<?xml version="1.0" encoding="UTF-8"?>
<svg width="479px" height="115px" viewBox="0 0 479 115" version="1.1" xmlns="http://www.w3.org/2000/svg" xmlns:xlink="http://www.w3.org/1999/xlink">
    <!-- Generator: Sketch 52.2 (67145) - http://www.bohemiancoding.com/sketch -->
    <title>Excellent Educators</title>
    <desc>Created with Sketch.</desc>
    <g id="Page-1" stroke="none" stroke-width="1" fill="none" fill-rule="evenodd">
        <g id="Graphs" transform="translate(-1767.000000, -109.000000)">
            <g id="Excellent-Educators" transform="translate(1767.000000, 109.000000)">
                <path d="M3.49003215,9 C2.77813149,9 2.15956854,8.89166775 1.63432476,8.675 C1.10908098,8.45833225 0.709728055,8.17291844 0.436254019,7.81875 C0.162779983,7.46458156 0.0173634309,7.08333538 0,6.675 C0,6.608333 0.0260447556,6.55000025 0.0781350482,6.5 C0.130225341,6.44999975 0.19533723,6.425 0.273472669,6.425 L0.911575563,6.425 C1.06784644,6.425 1.17636626,6.5083325 1.23713826,6.675 C1.3152737,7.02500175 1.53882452,7.32708206 1.90779743,7.58125 C2.27677033,7.83541794 2.80417664,7.9625 3.49003215,7.9625 C4.22797797,7.9625 4.77925863,7.83750125 5.14389068,7.5875 C5.50852272,7.33749875 5.69083601,6.99166888 5.69083601,6.55 C5.69083601,6.26666525 5.60184976,6.03333425 5.4238746,5.85 C5.24589943,5.66666575 4.98111108,5.50625069 4.62950161,5.36875 C4.27789213,5.23124931 3.75048583,5.062501 3.04726688,4.8625 C2.37877479,4.67916575 1.8470277,4.48333437 1.45200965,4.275 C1.05699159,4.06666562 0.759647301,3.81041819 0.559967846,3.50625 C0.360288391,3.20208181 0.260450161,2.816669 0.260450161,2.35 C0.260450161,1.89999775 0.386333146,1.49791844 0.638102894,1.14375 C0.889872641,0.789581562 1.25449922,0.510417688 1.73199357,0.30625 C2.20948792,0.102082313 2.77379096,0 3.42491961,0 C4.10209342,0 4.68158923,0.114582188 5.16342444,0.34375 C5.64525964,0.572917812 6.01205662,0.860414937 6.26382637,1.20625 C6.51559611,1.55208506 6.65016068,1.89999825 6.66752412,2.25 C6.66752412,2.32500037 6.64147936,2.38749975 6.58938907,2.4375 C6.53729877,2.48750025 6.47218689,2.5125 6.39405145,2.5125 L5.74292605,2.5125 C5.67347232,2.5125 5.60836043,2.49166688 5.54758842,2.45 C5.48681642,2.40833313 5.44340849,2.34583375 5.41736334,2.2625 C5.36527305,1.90416488 5.15691501,1.6083345 4.79228296,1.375 C4.42765091,1.1416655 3.97186769,1.025 3.42491961,1.025 C2.83456296,1.025 2.36575736,1.13541556 2.01848875,1.35625 C1.67122013,1.57708444 1.49758842,1.9041645 1.49758842,2.3375 C1.49758842,2.62916812 1.57789309,2.86666575 1.73850482,3.05 C1.89911656,3.23333425 2.14654174,3.39583263 2.48078778,3.5375 C2.81503383,3.67916738 3.30337299,3.84166575 3.94581994,4.025 C4.68376575,4.225001 5.26326156,4.424999 5.68432476,4.625 C6.10538796,4.825001 6.42009542,5.07291519 6.62845659,5.36875 C6.83681776,5.66458481 6.94099678,6.045831 6.94099678,6.5125 C6.94099678,7.29583725 6.63063011,7.90624781 6.00988746,8.34375 C5.38914481,8.78125219 4.54920144,9 3.49003215,9 Z M8.94646302,8.875 C8.85964587,8.875 8.79019319,8.84791694 8.73810289,8.79375 C8.6860126,8.73958306 8.65996785,8.67083375 8.65996785,8.5875 L8.65996785,0.425 C8.65996785,0.333332875 8.6860126,0.260416938 8.73810289,0.20625 C8.79019319,0.152083062 8.85964587,0.125 8.94646302,0.125 L14.2987138,0.125 C14.3942127,0.125 14.4701766,0.152083062 14.5266077,0.20625 C14.5830389,0.260416938 14.611254,0.333332875 14.611254,0.425 L14.611254,0.875 C14.611254,0.95833375 14.5830389,1.02499975 14.5266077,1.075 C14.4701766,1.12500025 14.3942127,1.15 14.2987138,1.15 L9.85803859,1.15 L9.85803859,3.9375 L14.0122186,3.9375 C14.1077175,3.9375 14.1836814,3.96458306 14.2401125,4.01875 C14.2965437,4.07291694 14.3247588,4.14583287 14.3247588,4.2375 L14.3247588,4.6625 C14.3247588,4.74583375 14.2965437,4.81458306 14.2401125,4.86875 C14.1836814,4.92291694 14.1077175,4.95 14.0122186,4.95 L9.85803859,4.95 L9.85803859,7.8375 L14.4028939,7.8375 C14.4983928,7.8375 14.5743566,7.86458306 14.6307878,7.91875 C14.6872189,7.97291694 14.7154341,8.04583288 14.7154341,8.1375 L14.7154341,8.5875 C14.7154341,8.67083375 14.6850485,8.73958306 14.6242765,8.79375 C14.5635045,8.84791694 14.489711,8.875 14.4028939,8.875 L8.94646302,8.875 Z M16.8250804,8.875 C16.7382632,8.875 16.6688105,8.84791694 16.6167203,8.79375 C16.56463,8.73958306 16.5385852,8.67083375 16.5385852,8.5875 L16.5385852,0.425 C16.5385852,0.333332875 16.56463,0.260416938 16.6167203,0.20625 C16.6688105,0.152083062 16.7382632,0.125 16.8250804,0.125 L20.1197749,0.125 C21.1008088,0.125 21.8712995,0.352081062 22.4312701,0.80625 C22.9912407,1.26041894 23.2712219,1.920829 23.2712219,2.7875 C23.2712219,3.654171 22.9912407,4.31249775 22.4312701,4.7625 C21.8712995,5.21250225 21.1008088,5.4375 20.1197749,5.4375 L17.7757235,5.4375 L17.7757235,8.5875 C17.7757235,8.67083375 17.7475083,8.73958306 17.6910772,8.79375 C17.634646,8.84791694 17.5630229,8.875 17.4762058,8.875 L16.8250804,8.875 Z M20.0546624,4.425 C21.3656014,4.425 22.0210611,3.87917213 22.0210611,2.7875 C22.0210611,2.254164 21.8582814,1.84583475 21.532717,1.5625 C21.2071527,1.27916525 20.7144728,1.1375 20.0546624,1.1375 L17.7757235,1.1375 L17.7757235,4.425 L20.0546624,4.425 Z M27.5946945,2.375 C27.5252408,2.375 27.4731513,2.35208356 27.4384244,2.30625 C27.4036976,2.26041644 27.3906752,2.19583375 27.3993569,2.1125 L27.6858521,0.3625 C27.720579,0.120832125 27.8421211,0 28.0504823,0 L28.8839228,0 C28.9446948,0 28.994614,0.020833125 29.0336817,0.0625 C29.0727494,0.104166875 29.092283,0.154166375 29.092283,0.2125 C29.092283,0.29583375 29.0792606,0.36249975 29.0532154,0.4125 L28.376045,2.1 C28.3326364,2.19166713 28.2848877,2.26041644 28.2327974,2.30625 C28.1807071,2.35208356 28.1025729,2.375 27.9983923,2.375 L27.5946945,2.375 Z M33.194373,8.875 C33.1075558,8.875 33.0381032,8.84791694 32.9860129,8.79375 C32.9339226,8.73958306 32.9078778,8.67083375 32.9078778,8.5875 L32.9078778,1.5375 L30.7200965,3.15 C30.6593245,3.20000025 30.5942126,3.225 30.5247588,3.225 C30.4466234,3.225 30.3728299,3.18333375 30.3033762,3.1 L29.990836,2.7125 C29.9474274,2.65416637 29.9257235,2.59583363 29.9257235,2.5375 C29.9257235,2.44583288 29.9691314,2.37083363 30.0559486,2.3125 L32.8818328,0.2125 C32.9773317,0.154166375 33.0901923,0.125 33.220418,0.125 L33.8324759,0.125 C33.919293,0.125 33.9909161,0.152083062 34.0473473,0.20625 C34.1037784,0.260416938 34.1319936,0.32916625 34.1319936,0.4125 L34.1319936,8.5875 C34.1319936,8.67083375 34.1037784,8.73958306 34.0473473,8.79375 C33.9909161,8.84791694 33.919293,8.875 33.8324759,8.875 L33.194373,8.875 Z M37.0881029,8.875 C37.0099675,8.875 36.947026,8.84791694 36.8992765,8.79375 C36.8515271,8.73958306 36.8276527,8.67500038 36.8276527,8.6 L36.8536977,8.4875 L40.1093248,1.175 L35.8118971,1.175 C35.72508,1.175 35.6534569,1.14791694 35.5970257,1.09375 C35.5405946,1.03958306 35.5123794,0.97083375 35.5123794,0.8875 L35.5123794,0.425 C35.5123794,0.333332875 35.5384242,0.260416938 35.5905145,0.20625 C35.6426048,0.152083062 35.7163982,0.125 35.8118971,0.125 L41.1250804,0.125 C41.2205793,0.125 41.2943727,0.152083062 41.346463,0.20625 C41.3985533,0.260416938 41.4245981,0.333332875 41.4245981,0.425 L41.4245981,0.85 C41.4245981,1.00000075 41.3898717,1.16249913 41.320418,1.3375 L38.1038585,8.5625 C38.0604499,8.65416713 38.0127012,8.72916638 37.9606109,8.7875 C37.9085206,8.84583363 37.8347272,8.875 37.7392283,8.875 L37.0881029,8.875 Z M46.1778135,5.625 C46.0909964,5.625 46.0193733,5.60000025 45.9629421,5.55 C45.906511,5.49999975 45.8782958,5.43333375 45.8782958,5.35 L45.8782958,4.9 C45.8782958,4.81666625 45.906511,4.74791694 45.9629421,4.69375 C46.0193733,4.63958306 46.0909964,4.6125 46.1778135,4.6125 L53.7308682,4.6125 C53.8176853,4.6125 53.8893084,4.63958306 53.9457395,4.69375 C54.0021707,4.74791694 54.0303859,4.81666625 54.0303859,4.9 L54.0303859,5.35 C54.0303859,5.43333375 54.0021707,5.49999975 53.9457395,5.55 C53.8893084,5.60000025 53.8176853,5.625 53.7308682,5.625 L46.1778135,5.625 Z M61.622508,8.875 C61.5356909,8.875 61.4640678,8.84791694 61.4076367,8.79375 C61.3512055,8.73958306 61.3229904,8.67083375 61.3229904,8.5875 L61.3229904,5.625 L58.1845659,0.5375 C58.1585208,0.48749975 58.1454984,0.433333625 58.1454984,0.375 C58.1454984,0.308333 58.1715431,0.25000025 58.2236334,0.2 C58.2757237,0.14999975 58.3364948,0.125 58.4059486,0.125 L59.0310289,0.125 C59.1872998,0.125 59.3001604,0.195832625 59.3696141,0.3375 L61.9480707,4.425 L64.5135048,0.3375 C64.600322,0.195832625 64.7131826,0.125 64.85209,0.125 L65.4771704,0.125 C65.5466241,0.125 65.6095656,0.14999975 65.6659968,0.2 C65.7224279,0.25000025 65.7506431,0.308333 65.7506431,0.375 C65.7506431,0.416666875 65.7332799,0.470833 65.6985531,0.5375 L62.5601286,5.625 L62.5601286,8.5875 C62.5601286,8.67083375 62.5319135,8.73958306 62.4754823,8.79375 C62.4190512,8.84791694 62.3430873,8.875 62.2475884,8.875 L61.622508,8.875 Z M67.5737942,8.875 C67.4869771,8.875 67.4175244,8.84791694 67.3654341,8.79375 C67.3133438,8.73958306 67.287299,8.67083375 67.287299,8.5875 L67.287299,0.425 C67.287299,0.333332875 67.3133438,0.260416938 67.3654341,0.20625 C67.4175244,0.152083062 67.4869771,0.125 67.5737942,0.125 L72.926045,0.125 C73.0215439,0.125 73.0975078,0.152083062 73.1539389,0.20625 C73.2103701,0.260416938 73.2385852,0.333332875 73.2385852,0.425 L73.2385852,0.875 C73.2385852,0.95833375 73.2103701,1.02499975 73.1539389,1.075 C73.0975078,1.12500025 73.0215439,1.15 72.926045,1.15 L68.4853698,1.15 L68.4853698,3.9375 L72.6395498,3.9375 C72.7350487,3.9375 72.8110126,3.96458306 72.8674437,4.01875 C72.9238749,4.07291694 72.95209,4.14583287 72.95209,4.2375 L72.95209,4.6625 C72.95209,4.74583375 72.9238749,4.81458306 72.8674437,4.86875 C72.8110126,4.92291694 72.7350487,4.95 72.6395498,4.95 L68.4853698,4.95 L68.4853698,7.8375 L73.0302251,7.8375 C73.125724,7.8375 73.2016878,7.86458306 73.258119,7.91875 C73.3145501,7.97291694 73.3427653,8.04583288 73.3427653,8.1375 L73.3427653,8.5875 C73.3427653,8.67083375 73.3123797,8.73958306 73.2516077,8.79375 C73.1908357,8.84791694 73.1170422,8.875 73.0302251,8.875 L67.5737942,8.875 Z M74.540836,8.875 C74.4713823,8.875 74.4106112,8.85000025 74.3585209,8.8 C74.3064306,8.74999975 74.2803859,8.691667 74.2803859,8.625 L74.3064309,8.4875 L77.5360129,0.4 C77.6054666,0.21666575 77.7443719,0.125 77.9527331,0.125 L78.7861736,0.125 C78.9945348,0.125 79.1334402,0.21666575 79.2028939,0.4 L82.4324759,8.4875 L82.4585209,8.625 C82.4585209,8.691667 82.4303057,8.74999975 82.3738746,8.8 C82.3174434,8.85000025 82.254502,8.875 82.1850482,8.875 L81.5729904,8.875 C81.4861732,8.875 81.4145501,8.85208356 81.358119,8.80625 C81.3016878,8.76041644 81.2647911,8.71250025 81.2474277,8.6625 L80.5181672,6.8625 L76.207717,6.8625 L75.4914791,8.6625 C75.4220254,8.80416738 75.3135056,8.875 75.1659164,8.875 L74.540836,8.875 Z M76.5853698,5.825 L80.153537,5.825 L78.3694534,1.3375 L76.5853698,5.825 Z M84.1514469,8.875 C84.0646298,8.875 83.9951771,8.84791694 83.9430868,8.79375 C83.8909965,8.73958306 83.8649518,8.67083375 83.8649518,8.5875 L83.8649518,0.425 C83.8649518,0.333332875 83.8909965,0.260416938 83.9430868,0.20625 C83.9951771,0.152083062 84.0646298,0.125 84.1514469,0.125 L87.3289389,0.125 C88.3186545,0.125 89.0934859,0.347914438 89.6534566,0.79375 C90.2134272,1.23958556 90.4934084,1.88749575 90.4934084,2.7375 C90.4934084,3.3708365 90.3284582,3.89166463 89.9985531,4.3 C89.6686479,4.70833538 89.2085239,4.99166588 88.6181672,5.15 L90.6236334,8.4875 C90.6496786,8.53750025 90.662701,8.58333312 90.662701,8.625 C90.662701,8.691667 90.6366562,8.74999975 90.5845659,8.8 C90.5324756,8.85000025 90.4717045,8.875 90.4022508,8.875 L89.8292605,8.875 C89.6990347,8.875 89.5970261,8.84583363 89.5232315,8.7875 C89.4494369,8.72916638 89.3821546,8.64583387 89.3213826,8.5375 L87.407074,5.3375 L85.0890675,5.3375 L85.0890675,8.5875 C85.0890675,8.67083375 85.058682,8.73958306 84.99791,8.79375 C84.937138,8.84791694 84.8633445,8.875 84.7765273,8.875 L84.1514469,8.875 Z M87.2768489,4.3125 C88.5877879,4.3125 89.2432476,3.78333862 89.2432476,2.725 C89.2432476,1.66666138 88.5877879,1.1375 87.2768489,1.1375 L85.0890675,1.1375 L85.0890675,4.3125 L87.2768489,4.3125 Z M95.8717042,8.875 C95.784887,8.875 95.7154343,8.84791694 95.6633441,8.79375 C95.6112538,8.73958306 95.585209,8.67083375 95.585209,8.5875 L95.585209,0.425 C95.585209,0.333332875 95.6112538,0.260416938 95.6633441,0.20625 C95.7154343,0.152083062 95.784887,0.125 95.8717042,0.125 L99.4268489,0.125 C100.347111,0.125 101.041638,0.337497875 101.51045,0.7625 C101.979263,1.18750213 102.213666,1.74166325 102.213666,2.425 C102.213666,2.891669 102.100805,3.28124844 101.87508,3.59375 C101.649356,3.90625156 101.384567,4.13333262 101.080707,4.275 C101.454021,4.45000087 101.766558,4.7208315 102.018328,5.0875 C102.270098,5.4541685 102.395981,5.87499762 102.395981,6.35 C102.395981,6.816669 102.28529,7.24166475 102.063907,7.625 C101.842523,8.00833525 101.514793,8.31249887 101.080707,8.5375 C100.646622,8.76250112 100.130067,8.875 99.5310289,8.875 L95.8717042,8.875 Z M99.2315113,3.8375 C99.7958228,3.8375 100.225561,3.71458456 100.52074,3.46875 C100.815918,3.22291544 100.963505,2.87916888 100.963505,2.4375 C100.963505,2.0041645 100.818088,1.67500112 100.527251,1.45 C100.236413,1.22499887 99.8045045,1.1125 99.2315113,1.1125 L96.8093248,1.1125 L96.8093248,3.8375 L99.2315113,3.8375 Z M99.3617363,7.8875 C99.9173661,7.8875 100.353616,7.74375144 100.670498,7.45625 C100.987381,7.16874856 101.14582,6.80000225 101.14582,6.35 C101.14582,5.89166437 100.987381,5.52083475 100.670498,5.2375 C100.353616,4.95416525 99.9173661,4.8125 99.3617363,4.8125 L96.8093248,4.8125 L96.8093248,7.8875 L99.3617363,7.8875 Z M104.557717,8.875 C104.4709,8.875 104.401447,8.84791694 104.349357,8.79375 C104.297267,8.73958306 104.271222,8.67083375 104.271222,8.5875 L104.271222,0.425 C104.271222,0.333332875 104.297267,0.260416938 104.349357,0.20625 C104.401447,0.152083062 104.4709,0.125 104.557717,0.125 L109.909968,0.125 C110.005467,0.125 110.081431,0.152083062 110.137862,0.20625 C110.194293,0.260416938 110.222508,0.333332875 110.222508,0.425 L110.222508,0.875 C110.222508,0.95833375 110.194293,1.02499975 110.137862,1.075 C110.081431,1.12500025 110.005467,1.15 109.909968,1.15 L105.469293,1.15 L105.469293,3.9375 L109.623473,3.9375 C109.718972,3.9375 109.794935,3.96458306 109.851367,4.01875 C109.907798,4.07291694 109.936013,4.14583287 109.936013,4.2375 L109.936013,4.6625 C109.936013,4.74583375 109.907798,4.81458306 109.851367,4.86875 C109.794935,4.92291694 109.718972,4.95 109.623473,4.95 L105.469293,4.95 L105.469293,7.8375 L110.014148,7.8375 C110.109647,7.8375 110.185611,7.86458306 110.242042,7.91875 C110.298473,7.97291694 110.326688,8.04583288 110.326688,8.1375 L110.326688,8.5875 C110.326688,8.67083375 110.296303,8.73958306 110.235531,8.79375 C110.174759,8.84791694 110.100965,8.875 110.014148,8.875 L104.557717,8.875 Z M115.353376,9 C114.224753,9 113.347913,8.700003 112.72283,8.1 C112.097746,7.499997 111.763505,6.68750513 111.720096,5.6625 C111.711415,5.41249875 111.707074,5.020836 111.707074,4.4875 C111.707074,3.94583062 111.711415,3.55416787 111.720096,3.3125 C111.754823,2.29582825 112.086894,1.48958631 112.716318,0.89375 C113.345743,0.297913688 114.224753,0 115.353376,0 C116.117367,0 116.764145,0.133332 117.29373,0.4 C117.823315,0.666668 118.222667,0.985414812 118.491801,1.35625 C118.760934,1.72708519 118.90418,2.07083175 118.921543,2.3875 L118.921543,2.4125 C118.921543,2.479167 118.893328,2.53541644 118.836897,2.58125 C118.780466,2.62708356 118.717524,2.65 118.648071,2.65 L117.91881,2.65 C117.840675,2.65 117.782074,2.6333335 117.743006,2.6 C117.703939,2.5666665 117.667042,2.50416713 117.632315,2.4125 C117.493408,2.02083138 117.237301,1.691668 116.863987,1.425 C116.490673,1.158332 115.987141,1.025 115.353376,1.025 C114.624112,1.025 114.051127,1.21666475 113.634405,1.6 C113.217683,1.98333525 112.996302,2.574996 112.970257,3.375 C112.961576,3.61666788 112.957235,3.9874975 112.957235,4.4875 C112.957235,4.97916912 112.961576,5.34999875 112.970257,5.6 C112.996302,6.40833737 113.217683,7.00416475 113.634405,7.3875 C114.051127,7.77083525 114.624112,7.9625 115.353376,7.9625 C116.091322,7.9625 116.68167,7.76875194 117.124437,7.38125 C117.567205,6.99374806 117.788585,6.41250387 117.788585,5.6375 L117.788585,5.1 L115.796141,5.1 C115.709324,5.1 115.637701,5.07083363 115.58127,5.0125 C115.524839,4.95416638 115.496624,4.88333375 115.496624,4.8 L115.496624,4.425 C115.496624,4.34166625 115.524839,4.27083363 115.58127,4.2125 C115.637701,4.15416638 115.709324,4.125 115.796141,4.125 L118.713183,4.125 C118.808682,4.125 118.884646,4.15208306 118.941077,4.20625 C118.997508,4.26041694 119.025723,4.33333288 119.025723,4.425 L119.025723,5.6125 C119.025723,6.28750338 118.880307,6.88124744 118.589469,7.39375 C118.298632,7.90625256 117.875405,8.30208194 117.319775,8.58125 C116.764145,8.86041806 116.108685,9 115.353376,9 Z M121.18746,8.875 C121.100643,8.875 121.03119,8.84791694 120.9791,8.79375 C120.927009,8.73958306 120.900965,8.67083375 120.900965,8.5875 L120.900965,0.4125 C120.900965,0.32916625 120.927009,0.260416938 120.9791,0.20625 C121.03119,0.152083062 121.100643,0.125 121.18746,0.125 L121.838585,0.125 C121.934084,0.125 122.007878,0.14999975 122.059968,0.2 C122.112058,0.25000025 122.138103,0.320832875 122.138103,0.4125 L122.138103,8.5875 C122.138103,8.67083375 122.109888,8.73958306 122.053457,8.79375 C121.997025,8.84791694 121.925402,8.875 121.838585,8.875 L121.18746,8.875 Z M124.716559,8.875 C124.629742,8.875 124.56029,8.84791694 124.508199,8.79375 C124.456109,8.73958306 124.430064,8.67083375 124.430064,8.5875 L124.430064,0.425 C124.430064,0.333332875 124.456109,0.260416938 124.508199,0.20625 C124.56029,0.152083062 124.629742,0.125 124.716559,0.125 L125.28955,0.125 C125.376367,0.125 125.441479,0.1416665 125.484887,0.175 C125.528296,0.2083335 125.571704,0.24999975 125.615113,0.3 L129.977653,6.75 L129.977653,0.425 C129.977653,0.333332875 130.005868,0.260416938 130.062299,0.20625 C130.11873,0.152083062 130.190353,0.125 130.27717,0.125 L130.863183,0.125 C130.958682,0.125 131.034646,0.152083062 131.091077,0.20625 C131.147508,0.260416938 131.175723,0.333332875 131.175723,0.425 L131.175723,8.575 C131.175723,8.65833375 131.147508,8.72916638 131.091077,8.7875 C131.034646,8.84583363 130.963023,8.875 130.876206,8.875 L130.290193,8.875 C130.142604,8.875 130.038425,8.81666725 129.977653,8.7 L125.615113,2.3125 L125.615113,8.5875 C125.615113,8.67083375 125.586897,8.73958306 125.530466,8.79375 C125.474035,8.84791694 125.402412,8.875 125.315595,8.875 L124.716559,8.875 Z M133.741158,8.875 C133.65434,8.875 133.584888,8.84791694 133.532797,8.79375 C133.480707,8.73958306 133.454662,8.67083375 133.454662,8.5875 L133.454662,0.425 C133.454662,0.333332875 133.480707,0.260416938 133.532797,0.20625 C133.584888,0.152083062 133.65434,0.125 133.741158,0.125 L134.314148,0.125 C134.400965,0.125 134.466077,0.1416665 134.509486,0.175 C134.552894,0.2083335 134.596302,0.24999975 134.639711,0.3 L139.002251,6.75 L139.002251,0.425 C139.002251,0.333332875 139.030466,0.260416938 139.086897,0.20625 C139.143328,0.152083062 139.214951,0.125 139.301768,0.125 L139.887781,0.125 C139.98328,0.125 140.059244,0.152083062 140.115675,0.20625 C140.172106,0.260416938 140.200322,0.333332875 140.200322,0.425 L140.200322,8.575 C140.200322,8.65833375 140.172106,8.72916638 140.115675,8.7875 C140.059244,8.84583363 139.987621,8.875 139.900804,8.875 L139.314791,8.875 C139.167202,8.875 139.063023,8.81666725 139.002251,8.7 L134.639711,2.3125 L134.639711,8.5875 C134.639711,8.67083375 134.611495,8.73958306 134.555064,8.79375 C134.498633,8.84791694 134.42701,8.875 134.340193,8.875 L133.741158,8.875 Z M142.765756,8.875 C142.678938,8.875 142.609486,8.84791694 142.557395,8.79375 C142.505305,8.73958306 142.47926,8.67083375 142.47926,8.5875 L142.47926,0.4125 C142.47926,0.32916625 142.505305,0.260416938 142.557395,0.20625 C142.609486,0.152083062 142.678938,0.125 142.765756,0.125 L143.416881,0.125 C143.51238,0.125 143.586173,0.14999975 143.638264,0.2 C143.690354,0.25000025 143.716399,0.320832875 143.716399,0.4125 L143.716399,8.5875 C143.716399,8.67083375 143.688184,8.73958306 143.631752,8.79375 C143.575321,8.84791694 143.503698,8.875 143.416881,8.875 L142.765756,8.875 Z M146.294855,8.875 C146.208038,8.875 146.138585,8.84791694 146.086495,8.79375 C146.034405,8.73958306 146.00836,8.67083375 146.00836,8.5875 L146.00836,0.425 C146.00836,0.333332875 146.034405,0.260416938 146.086495,0.20625 C146.138585,0.152083062 146.208038,0.125 146.294855,0.125 L146.867846,0.125 C146.954663,0.125 147.019775,0.1416665 147.063183,0.175 C147.106592,0.2083335 147.15,0.24999975 147.193408,0.3 L151.555949,6.75 L151.555949,0.425 C151.555949,0.333332875 151.584164,0.260416938 151.640595,0.20625 C151.697026,0.152083062 151.768649,0.125 151.855466,0.125 L152.441479,0.125 C152.536978,0.125 152.612942,0.152083062 152.669373,0.20625 C152.725804,0.260416938 152.754019,0.333332875 152.754019,0.425 L152.754019,8.575 C152.754019,8.65833375 152.725804,8.72916638 152.669373,8.7875 C152.612942,8.84583363 152.541319,8.875 152.454502,8.875 L151.868489,8.875 C151.7209,8.875 151.616721,8.81666725 151.555949,8.7 L147.193408,2.3125 L147.193408,8.5875 C147.193408,8.67083375 147.165193,8.73958306 147.108762,8.79375 C147.052331,8.84791694 146.980708,8.875 146.893891,8.875 L146.294855,8.875 Z M158.327653,9 C157.19903,9 156.32219,8.700003 155.697106,8.1 C155.072023,7.499997 154.737782,6.68750513 154.694373,5.6625 C154.685691,5.41249875 154.68135,5.020836 154.68135,4.4875 C154.68135,3.94583062 154.685691,3.55416787 154.694373,3.3125 C154.7291,2.29582825 155.06117,1.48958631 155.690595,0.89375 C156.320019,0.297913688 157.19903,0 158.327653,0 C159.091644,0 159.738422,0.133332 160.268006,0.4 C160.797591,0.666668 161.196944,0.985414812 161.466077,1.35625 C161.73521,1.72708519 161.878457,2.07083175 161.89582,2.3875 L161.89582,2.4125 C161.89582,2.479167 161.867605,2.53541644 161.811174,2.58125 C161.754742,2.62708356 161.691801,2.65 161.622347,2.65 L160.893087,2.65 C160.814951,2.65 160.756351,2.6333335 160.717283,2.6 C160.678215,2.5666665 160.641319,2.50416713 160.606592,2.4125 C160.467684,2.02083138 160.211577,1.691668 159.838264,1.425 C159.46495,1.158332 158.961418,1.025 158.327653,1.025 C157.598389,1.025 157.025404,1.21666475 156.608682,1.6 C156.191959,1.98333525 155.970579,2.574996 155.944534,3.375 C155.935852,3.61666788 155.931511,3.9874975 155.931511,4.4875 C155.931511,4.97916912 155.935852,5.34999875 155.944534,5.6 C155.970579,6.40833737 156.191959,7.00416475 156.608682,7.3875 C157.025404,7.77083525 157.598389,7.9625 158.327653,7.9625 C159.065599,7.9625 159.655946,7.76875194 160.098714,7.38125 C160.541481,6.99374806 160.762862,6.41250387 160.762862,5.6375 L160.762862,5.1 L158.770418,5.1 C158.683601,5.1 158.611978,5.07083363 158.555547,5.0125 C158.499115,4.95416638 158.4709,4.88333375 158.4709,4.8 L158.4709,4.425 C158.4709,4.34166625 158.499115,4.27083363 158.555547,4.2125 C158.611978,4.15416638 158.683601,4.125 158.770418,4.125 L161.68746,4.125 C161.782959,4.125 161.858923,4.15208306 161.915354,4.20625 C161.971785,4.26041694 162,4.33333288 162,4.425 L162,5.6125 C162,6.28750338 161.854583,6.88124744 161.563746,7.39375 C161.272909,7.90625256 160.849681,8.30208194 160.294051,8.58125 C159.738422,8.86041806 159.082962,9 158.327653,9 Z" id="Sep-’17-—-Year-Begin-Copy-4" fill="#000000"></path>
                <path d="M0.299528302,78.875 C0.21270807,78.875 0.141082453,78.8479169 0.0846493027,78.79375 C0.0282161521,78.7395831 0,78.6708338 0,78.5875 L0,70.425 C0,70.3333329 0.0260456788,70.2604169 0.0781378179,70.20625 C0.130229957,70.1520831 0.204026047,70.125 0.299528302,70.125 L0.911607875,70.125 C1.06788429,70.125 1.17640795,70.1874994 1.23718212,70.3125 L4.01107465,75.425 L6.81101313,70.3125 C6.88046931,70.1874994 6.98465203,70.125 7.1235644,70.125 L7.73564397,70.125 C7.83114623,70.125 7.90494232,70.1520831 7.95703445,70.20625 C8.00912659,70.2604169 8.03517227,70.3333329 8.03517227,70.425 L8.03517227,78.5875 C8.03517227,78.6708338 8.00695612,78.7395831 7.95052297,78.79375 C7.89408982,78.8479169 7.8224642,78.875 7.73564397,78.875 L7.13658737,78.875 C7.04976713,78.875 6.98031199,78.8479169 6.92821985,78.79375 C6.87612771,78.7395831 6.85008203,78.6708338 6.85008203,78.5875 L6.85008203,72.375 L4.62315422,76.5125 C4.53633399,76.6875009 4.39742371,76.775 4.2064192,76.775 L3.81573011,76.775 C3.63340762,76.775 3.49449733,76.6875009 3.39899508,76.5125 L1.18509024,72.375 L1.18509024,78.5875 C1.18509024,78.6708338 1.15687409,78.7395831 1.10044094,78.79375 C1.04400778,78.8479169 0.972382168,78.875 0.885561936,78.875 L0.299528302,78.875 Z M9.70211239,78.875 C9.6326562,78.875 9.57188295,78.8500003 9.51979081,78.8 C9.46769867,78.7499998 9.44165299,78.691667 9.44165299,78.625 L9.46769893,78.4875 L12.6973954,70.4 C12.7668516,70.2166658 12.9057619,70.125 13.1141304,70.125 L13.9476005,70.125 C14.155969,70.125 14.2948793,70.2166658 14.3643355,70.4 L17.594032,78.4875 L17.6200779,78.625 C17.6200779,78.691667 17.5918618,78.7499998 17.5354286,78.8 C17.4789955,78.8500003 17.4160518,78.875 17.3465956,78.875 L16.734516,78.875 C16.6476958,78.875 16.5760701,78.8520836 16.519637,78.80625 C16.4632038,78.7604164 16.4263058,78.7125003 16.4089418,78.6625 L15.6796555,76.8625 L11.3690525,76.8625 L10.6527892,78.6625 C10.583333,78.8041674 10.4748093,78.875 10.3272149,78.875 L9.70211239,78.875 Z M11.7467186,75.825 L15.3150123,75.825 L13.5308655,71.3375 L11.7467186,75.825 Z M19.313064,78.875 C19.2262438,78.875 19.1567886,78.8479169 19.1046965,78.79375 C19.0526043,78.7395831 19.0265587,78.6708338 19.0265587,78.5875 L19.0265587,70.425 C19.0265587,70.3333329 19.0526043,70.2604169 19.1046965,70.20625 C19.1567886,70.1520831 19.2262438,70.125 19.313064,70.125 L22.4906686,70.125 C23.4804192,70.125 24.2552782,70.3479144 24.8152687,70.79375 C25.3752592,71.2395856 25.6552502,71.8874957 25.6552502,72.7375 C25.6552502,73.3708365 25.4902942,73.8916646 25.1603774,74.3 C24.8304605,74.7083354 24.3703202,74.9916659 23.7799426,75.15 L25.7854799,78.4875 C25.811526,78.5375002 25.8245488,78.5833331 25.8245488,78.625 C25.8245488,78.691667 25.7985031,78.7499998 25.746411,78.8 C25.6943189,78.8500003 25.6335456,78.875 25.5640894,78.875 L24.9910788,78.875 C24.8608484,78.875 24.7588362,78.8458336 24.685039,78.7875 C24.6112418,78.7291664 24.5439571,78.6458339 24.4831829,78.5375 L22.5688064,75.3375 L20.2507178,75.3375 L20.2507178,78.5875 C20.2507178,78.6708338 20.2203312,78.7395831 20.159557,78.79375 C20.0987829,78.8479169 20.0249868,78.875 19.9381665,78.875 L19.313064,78.875 Z M22.4385767,74.3125 C23.7495622,74.3125 24.4050451,73.7833386 24.4050451,72.725 C24.4050451,71.6666614 23.7495622,71.1375 22.4385767,71.1375 L20.2507178,71.1375 L20.2507178,74.3125 L22.4385767,74.3125 Z M30.5518868,72.375 C30.4824306,72.375 30.4303392,72.3520836 30.3956112,72.30625 C30.3608831,72.2604164 30.3478602,72.1958337 30.3565422,72.1125 L30.6430476,70.3625 C30.6777757,70.1208321 30.7993222,70 31.0076907,70 L31.8411608,70 C31.9019349,70 31.9518558,70.0208331 31.9909249,70.0625 C32.029994,70.1041669 32.0495283,70.1541664 32.0495283,70.2125 C32.0495283,70.2958337 32.0365055,70.3624997 32.0104594,70.4125 L31.333265,72.1 C31.2898549,72.1916671 31.2421044,72.2604164 31.1900123,72.30625 C31.1379202,72.3520836 31.0597831,72.375 30.9555989,72.375 L30.5518868,72.375 Z M36.1517637,78.875 C36.0649435,78.875 35.9954884,78.8479169 35.9433962,78.79375 C35.8913041,78.7395831 35.8652584,78.6708338 35.8652584,78.5875 L35.8652584,71.5375 L33.6773995,73.15 C33.6166253,73.2000003 33.5515111,73.225 33.482055,73.225 C33.4039168,73.225 33.3301207,73.1833338 33.2606645,73.1 L32.9481132,72.7125 C32.9047031,72.6541664 32.8829984,72.5958336 32.8829984,72.5375 C32.8829984,72.4458329 32.9264078,72.3708336 33.0132281,72.3125 L35.8392125,70.2125 C35.9347147,70.1541664 36.0475793,70.125 36.1778097,70.125 L36.7898893,70.125 C36.8767095,70.125 36.9483351,70.1520831 37.0047683,70.20625 C37.0612014,70.2604169 37.0894176,70.3291662 37.0894176,70.4125 L37.0894176,78.5875 C37.0894176,78.6708338 37.0612014,78.7395831 37.0047683,78.79375 C36.9483351,78.8479169 36.8767095,78.875 36.7898893,78.875 L36.1517637,78.875 Z M42.2204676,79 C41.5606338,79 40.9724356,78.8937511 40.4558552,78.68125 C39.9392748,78.4687489 39.5377373,78.162502 39.2512305,77.7625 C38.9647238,77.362498 38.8214725,76.895836 38.8214725,76.3625 C38.8214725,75.8708309 38.9495304,75.4395852 39.2056501,75.06875 C39.4617698,74.6979148 39.8068751,74.412501 40.2409762,74.2125 C39.8936953,74.0208324 39.6245566,73.7687516 39.4335521,73.45625 C39.2425476,73.1437484 39.1470468,72.7750021 39.1470468,72.35 C39.1470468,71.6249964 39.4292083,71.0520854 39.9935398,70.63125 C40.5578713,70.2104146 41.3001731,70 42.2204676,70 C43.1407621,70 43.8808934,70.2083312 44.4408839,70.625 C45.0008744,71.0416687 45.2808655,71.616663 45.2808655,72.35 C45.2808655,72.7666688 45.1853646,73.1312484 44.9943601,73.44375 C44.8033556,73.7562516 44.5385579,74.012499 44.199959,74.2125 C44.6340601,74.412501 44.9791654,74.6979148 45.2352851,75.06875 C45.4914048,75.4395852 45.6194627,75.8749975 45.6194627,76.375 C45.6194627,76.908336 45.4762114,77.3729147 45.1897047,77.76875 C44.9031979,78.1645853 44.5016604,78.4687489 43.98508,78.68125 C43.4684996,78.8937511 42.8803014,79 42.2204676,79 Z M42.2204676,73.775 C42.750071,73.7583333 43.1971885,73.6250012 43.5618335,73.375 C43.9264784,73.1249987 44.1087982,72.7916688 44.1087982,72.375 C44.1087982,71.9499979 43.9286489,71.6104179 43.568345,71.35625 C43.208041,71.1020821 42.758753,70.975 42.2204676,70.975 C41.6735001,70.975 41.2220417,71.1020821 40.8660788,71.35625 C40.5101158,71.6104179 40.332137,71.9499979 40.332137,72.375 C40.332137,72.8000021 40.5101158,73.1395821 40.8660788,73.39375 C41.2220417,73.6479179 41.6735001,73.775 42.2204676,73.775 Z M42.2204676,78.025 C42.8368912,78.025 43.3512934,77.8750015 43.7636895,77.575 C44.1760856,77.2749985 44.3822806,76.8750025 44.3822806,76.375 C44.3822806,75.8749975 44.1760856,75.4750015 43.7636895,75.175 C43.3512934,74.8749985 42.8368912,74.725 42.2204676,74.725 C41.5953619,74.725 41.0766188,74.8749985 40.6642227,75.175 C40.2518266,75.4750015 40.0456317,75.8749975 40.0456317,76.375 C40.0456317,76.8750025 40.2518266,77.2749985 40.6642227,77.575 C41.0766188,77.8750015 41.5953619,78.025 42.2204676,78.025 Z M47.2994258,72.375 C47.2299696,72.375 47.1778782,72.3520836 47.1431501,72.30625 C47.108422,72.2604164 47.0953992,72.1958337 47.1040812,72.1125 L47.3905865,70.3625 C47.4253146,70.1208321 47.5468611,70 47.7552297,70 L48.5886998,70 C48.6494739,70 48.6993948,70.0208331 48.7384639,70.0625 C48.777533,70.1041669 48.7970673,70.1541664 48.7970673,70.2125 C48.7970673,70.2958337 48.7840444,70.3624997 48.7579984,70.4125 L48.0808039,72.1 C48.0373938,72.1916671 47.9896434,72.2604164 47.9375513,72.30625 C47.8854591,72.3520836 47.8073221,72.375 47.7031378,72.375 L47.2994258,72.375 Z M53.7067268,75.625 C53.6199066,75.625 53.548281,75.6000003 53.4918478,75.55 C53.4354147,75.4999998 53.4071985,75.4333337 53.4071985,75.35 L53.4071985,74.9 C53.4071985,74.8166662 53.4354147,74.7479169 53.4918478,74.69375 C53.548281,74.6395831 53.6199066,74.6125 53.7067268,74.6125 L61.2600492,74.6125 C61.3468695,74.6125 61.4184951,74.6395831 61.4749282,74.69375 C61.5313614,74.7479169 61.5595775,74.8166662 61.5595775,74.9 L61.5595775,75.35 C61.5595775,75.4333337 61.5313614,75.4999998 61.4749282,75.55 C61.4184951,75.6000003 61.3468695,75.625 61.2600492,75.625 L53.7067268,75.625 Z M69.1519688,78.875 C69.0651486,78.875 68.993523,78.8479169 68.9370898,78.79375 C68.8806567,78.7395831 68.8524405,78.6708338 68.8524405,78.5875 L68.8524405,75.625 L65.7139048,70.5375 C65.6878588,70.4874997 65.6748359,70.4333336 65.6748359,70.375 C65.6748359,70.308333 65.7008816,70.2500002 65.7529737,70.2 C65.8050659,70.1499997 65.8658391,70.125 65.9352953,70.125 L66.5603979,70.125 C66.7166743,70.125 66.8295389,70.1958326 66.8989951,70.3375 L69.4775431,74.425 L72.0430681,70.3375 C72.1298883,70.1958326 72.2427529,70.125 72.3816653,70.125 L73.0067678,70.125 C73.076224,70.125 73.1391678,70.1499997 73.1956009,70.2 C73.2520341,70.2500002 73.2802502,70.308333 73.2802502,70.375 C73.2802502,70.4166669 73.2628864,70.470833 73.2281583,70.5375 L70.0896226,75.625 L70.0896226,78.5875 C70.0896226,78.6708338 70.0614065,78.7395831 70.0049733,78.79375 C69.9485402,78.8479169 69.8725736,78.875 69.7770714,78.875 L69.1519688,78.875 Z M75.103466,78.875 C75.0166457,78.875 74.9471906,78.8479169 74.8950984,78.79375 C74.8430063,78.7395831 74.8169606,78.6708338 74.8169606,78.5875 L74.8169606,70.425 C74.8169606,70.3333329 74.8430063,70.2604169 74.8950984,70.20625 C74.9471906,70.1520831 75.0166457,70.125 75.103466,70.125 L80.4559065,70.125 C80.5514087,70.125 80.6273753,70.1520831 80.6838084,70.20625 C80.7402416,70.2604169 80.7684578,70.3333329 80.7684578,70.425 L80.7684578,70.875 C80.7684578,70.9583337 80.7402416,71.0249998 80.6838084,71.075 C80.6273753,71.1250003 80.5514087,71.15 80.4559065,71.15 L76.0150738,71.15 L76.0150738,73.9375 L80.1694011,73.9375 C80.2649034,73.9375 80.34087,73.9645831 80.3973031,74.01875 C80.4537363,74.0729169 80.4819524,74.1458329 80.4819524,74.2375 L80.4819524,74.6625 C80.4819524,74.7458338 80.4537363,74.8145831 80.3973031,74.86875 C80.34087,74.9229169 80.2649034,74.95 80.1694011,74.95 L76.0150738,74.95 L76.0150738,77.8375 L80.5600902,77.8375 C80.6555925,77.8375 80.7315591,77.8645831 80.7879922,77.91875 C80.8444254,77.9729169 80.8726415,78.0458329 80.8726415,78.1375 L80.8726415,78.5875 C80.8726415,78.6708338 80.8422549,78.7395831 80.7814807,78.79375 C80.7207066,78.8479169 80.6469105,78.875 80.5600902,78.875 L75.103466,78.875 Z M82.0707547,78.875 C82.0012985,78.875 81.9405253,78.8500003 81.8884331,78.8 C81.836341,78.7499998 81.8102953,78.691667 81.8102953,78.625 L81.8363413,78.4875 L85.0660377,70.4 C85.1354939,70.2166658 85.2744042,70.125 85.4827728,70.125 L86.3162428,70.125 C86.5246114,70.125 86.6635217,70.2166658 86.7329779,70.4 L89.9626743,78.4875 L89.9887203,78.625 C89.9887203,78.691667 89.9605041,78.7499998 89.904071,78.8 C89.8476378,78.8500003 89.7846941,78.875 89.7152379,78.875 L89.1031583,78.875 C89.0163381,78.875 88.9447125,78.8520836 88.8882793,78.80625 C88.8318462,78.7604164 88.7949481,78.7125003 88.7775841,78.6625 L88.0482978,76.8625 L83.7376948,76.8625 L83.0214315,78.6625 C82.9519753,78.8041674 82.8434517,78.875 82.6958573,78.875 L82.0707547,78.875 Z M84.115361,75.825 L87.6836546,75.825 L85.8995078,71.3375 L84.115361,75.825 Z M91.6817063,78.875 C91.5948861,78.875 91.5254309,78.8479169 91.4733388,78.79375 C91.4212467,78.7395831 91.395201,78.6708338 91.395201,78.5875 L91.395201,70.425 C91.395201,70.3333329 91.4212467,70.2604169 91.4733388,70.20625 C91.5254309,70.1520831 91.5948861,70.125 91.6817063,70.125 L94.8593109,70.125 C95.8490616,70.125 96.6239205,70.3479144 97.183911,70.79375 C97.7439015,71.2395856 98.0238925,71.8874957 98.0238925,72.7375 C98.0238925,73.3708365 97.8589366,73.8916646 97.5290197,74.3 C97.1991028,74.7083354 96.7389625,74.9916659 96.1485849,75.15 L98.1541222,78.4875 C98.1801683,78.5375002 98.1931911,78.5833331 98.1931911,78.625 C98.1931911,78.691667 98.1671455,78.7499998 98.1150533,78.8 C98.0629612,78.8500003 98.0021879,78.875 97.9327317,78.875 L97.3597211,78.875 C97.2294907,78.875 97.1274785,78.8458336 97.0536813,78.7875 C96.9798841,78.7291664 96.9125994,78.6458339 96.8518253,78.5375 L94.9374487,75.3375 L92.6193601,75.3375 L92.6193601,78.5875 C92.6193601,78.6708338 92.5889735,78.7395831 92.5281993,78.79375 C92.4674252,78.8479169 92.3936291,78.875 92.3068089,78.875 L91.6817063,78.875 Z M94.807219,74.3125 C96.1182045,74.3125 96.7736874,73.7833386 96.7736874,72.725 C96.7736874,71.6666614 96.1182045,71.1375 94.807219,71.1375 L92.6193601,71.1375 L92.6193601,74.3125 L94.807219,74.3125 Z M103.402379,78.875 C103.315559,78.875 103.246104,78.8479169 103.194011,78.79375 C103.141919,78.7395831 103.115874,78.6708338 103.115874,78.5875 L103.115874,70.425 C103.115874,70.3333329 103.141919,70.2604169 103.194011,70.20625 C103.246104,70.1520831 103.315559,70.125 103.402379,70.125 L108.75482,70.125 C108.850322,70.125 108.926288,70.1520831 108.982721,70.20625 C109.039155,70.2604169 109.067371,70.3333329 109.067371,70.425 L109.067371,70.875 C109.067371,70.9583337 109.039155,71.0249998 108.982721,71.075 C108.926288,71.1250003 108.850322,71.15 108.75482,71.15 L104.313987,71.15 L104.313987,73.9375 L108.468314,73.9375 C108.563816,73.9375 108.639783,73.9645831 108.696216,74.01875 C108.752649,74.0729169 108.780865,74.1458329 108.780865,74.2375 L108.780865,74.6625 C108.780865,74.7458338 108.752649,74.8145831 108.696216,74.86875 C108.639783,74.9229169 108.563816,74.95 108.468314,74.95 L104.313987,74.95 L104.313987,77.8375 L108.859003,77.8375 C108.954506,77.8375 109.030472,77.8645831 109.086905,77.91875 C109.143338,77.9729169 109.171555,78.0458329 109.171555,78.1375 L109.171555,78.5875 C109.171555,78.6708338 109.141168,78.7395831 109.080394,78.79375 C109.01962,78.8479169 108.945824,78.875 108.859003,78.875 L103.402379,78.875 Z M111.281276,78.875 C111.194455,78.875 111.125,78.8479169 111.072908,78.79375 C111.020816,78.7395831 110.99477,78.6708338 110.99477,78.5875 L110.99477,70.425 C110.99477,70.3333329 111.020816,70.2604169 111.072908,70.20625 C111.125,70.1520831 111.194455,70.125 111.281276,70.125 L111.854286,70.125 C111.941107,70.125 112.006221,70.1416665 112.049631,70.175 C112.093041,70.2083335 112.13645,70.2499998 112.179861,70.3 L116.542555,76.75 L116.542555,70.425 C116.542555,70.3333329 116.570772,70.2604169 116.627205,70.20625 C116.683638,70.1520831 116.755263,70.125 116.842084,70.125 L117.428117,70.125 C117.52362,70.125 117.599586,70.1520831 117.656019,70.20625 C117.712452,70.2604169 117.740669,70.3333329 117.740669,70.425 L117.740669,78.575 C117.740669,78.6583337 117.712452,78.7291664 117.656019,78.7875 C117.599586,78.8458336 117.527961,78.875 117.44114,78.875 L116.855107,78.875 C116.707512,78.875 116.60333,78.8166672 116.542555,78.7 L112.179861,72.3125 L112.179861,78.5875 C112.179861,78.6708338 112.151644,78.7395831 112.095211,78.79375 C112.038778,78.8479169 111.967152,78.875 111.880332,78.875 L111.281276,78.875 Z M120.306194,78.875 C120.219373,78.875 120.149918,78.8479169 120.097826,78.79375 C120.045734,78.7395831 120.019688,78.6708338 120.019688,78.5875 L120.019688,70.425 C120.019688,70.3333329 120.045734,70.2604169 120.097826,70.20625 C120.149918,70.1520831 120.219373,70.125 120.306194,70.125 L123.249385,70.125 C124.56037,70.125 125.506697,70.4062472 126.088392,70.96875 C126.670088,71.5312528 126.969613,72.379161 126.986977,73.5125 C126.995659,73.7541679 127,74.0791646 127,74.4875 C127,74.8958354 126.995659,75.2249988 126.986977,75.475 C126.969613,76.2666706 126.837214,76.9104142 126.589776,77.40625 C126.342339,77.9020858 125.953824,78.2708321 125.424221,78.5125 C124.894617,78.7541679 124.191384,78.875 123.3145,78.875 L120.306194,78.875 Z M123.249385,77.8375 C123.857126,77.8375 124.341142,77.7562508 124.701446,77.59375 C125.06175,77.4312492 125.322207,77.1770851 125.482824,76.83125 C125.643441,76.4854149 125.732431,76.0166696 125.749795,75.425 C125.767159,74.9249975 125.775841,74.6125006 125.775841,74.4875 C125.775841,74.354166 125.767159,74.0458358 125.749795,73.5625 C125.732431,72.7291625 125.526236,72.1187519 125.131204,71.73125 C124.736172,71.3437481 124.0872,71.15 123.18427,71.15 L121.243847,71.15 L121.243847,77.8375 L123.249385,77.8375 Z" id="MAR-’18’-—-Year-END-Copy-4" fill="#000000"></path>
                <g id="Group-9" transform="translate(0.000000, 88.000000)">
                    <polygon id="Fill-1" fill="#F38486" points="0 27 178 27 178 0 0 0"></polygon>
                    <polygon id="Fill-2" fill="#FFCA05" points="178 27 375 27 375 0 178 0"></polygon>
                    <polygon id="Fill-3" fill="#FFF100" points="375 27 479 27 479 0 375 0"></polygon>
                    <path d="M63.8490991,18 C63.2635106,18 62.7567589,17.9048961 62.3288288,17.7146853 C61.9008988,17.5244746 61.5762023,17.2764584 61.3547297,16.9706294 C61.1332572,16.6648003 61.0150151,16.3477872 61,16.0195804 C61,15.9524472 61.0225223,15.8983685 61.0675676,15.8573427 C61.1126128,15.8163168 61.1689186,15.7958042 61.2364865,15.7958042 L61.7432432,15.7958042 C61.8258262,15.7958042 61.8933931,15.8125872 61.9459459,15.8461538 C61.9984988,15.8797204 62.0397896,15.9449879 62.0698198,16.041958 C62.1674179,16.4223795 62.3795029,16.6909083 62.7060811,16.8475524 C63.0326593,17.0041966 63.4174152,17.0825175 63.8603604,17.0825175 C64.4009036,17.0825175 64.8307041,16.9538474 65.1497748,16.6965035 C65.4688454,16.4391596 65.6283784,16.0717973 65.6283784,15.5944056 C65.6283784,14.6843777 65.0690747,14.2293706 63.9504505,14.2293706 L62.8918919,14.2293706 C62.8168164,14.2293706 62.7548801,14.2051284 62.7060811,14.1566434 C62.657282,14.1081583 62.6328829,14.0466204 62.6328829,13.972028 L62.6328829,13.6811189 C62.6328829,13.5692302 62.6741738,13.4722615 62.7567568,13.3902098 L64.9527027,10.9734266 L61.6193694,10.9734266 C61.5442939,10.9734266 61.4823576,10.9510492 61.4335586,10.9062937 C61.3847595,10.8615382 61.3603604,10.8018652 61.3603604,10.7272727 L61.3603604,10.3244755 C61.3603604,10.2424238 61.3847595,10.1771564 61.4335586,10.1286713 C61.4823576,10.0801862 61.5442939,10.0559441 61.6193694,10.0559441 L66.0788288,10.0559441 C66.1614118,10.0559441 66.2271019,10.0801862 66.2759009,10.1286713 C66.3246999,10.1771564 66.3490991,10.2424238 66.3490991,10.3244755 L66.3490991,10.6937063 C66.3490991,10.775758 66.3115619,10.861538 66.2364865,10.951049 L64.0405405,13.4013986 L64.2207207,13.4013986 C64.9864903,13.4237763 65.5927155,13.6214434 66.0394144,13.9944056 C66.4861133,14.3673678 66.7094595,14.9118845 66.7094595,15.627972 C66.7094595,16.1202822 66.5874637,16.543588 66.3434685,16.8979021 C66.0994733,17.2522162 65.7597619,17.5244746 65.3243243,17.7146853 C64.8888867,17.9048961 64.3971499,18 63.8490991,18 Z M68.9391892,17.8881119 C68.8716213,17.8881119 68.8171924,17.8638697 68.7759009,17.8153846 C68.7346094,17.7668995 68.713964,17.7090912 68.713964,17.641958 L68.7364865,17.5412587 L71.5518018,10.9958042 L67.8355856,10.9958042 C67.7605101,10.9958042 67.6985738,10.971562 67.6497748,10.9230769 C67.6009757,10.8745918 67.5765766,10.813054 67.5765766,10.7384615 L67.5765766,10.3244755 C67.5765766,10.2424238 67.5990989,10.1771564 67.6441441,10.1286713 C67.6891894,10.0801862 67.7530026,10.0559441 67.8355856,10.0559441 L72.4301802,10.0559441 C72.5127632,10.0559441 72.5765764,10.0801862 72.6216216,10.1286713 C72.6666669,10.1771564 72.6891892,10.2424238 72.6891892,10.3244755 L72.6891892,10.7048951 C72.6891892,10.8391615 72.6591595,10.9846146 72.5990991,11.1412587 L69.8175676,17.6083916 C69.7800298,17.6904433 69.738739,17.7575755 69.6936937,17.8097902 C69.6486484,17.8620049 69.5848352,17.8881119 69.5022523,17.8881119 L68.9391892,17.8881119 Z M75.1666667,13.9832168 C74.6786762,13.9832168 74.2939203,13.8545467 74.0123874,13.5972028 C73.7308544,13.3398589 73.5788289,12.9836853 73.5563063,12.5286713 C73.5487988,12.4018642 73.545045,12.2377632 73.545045,12.0363636 C73.545045,11.8200455 73.5487988,11.6447559 73.5563063,11.5104895 C73.5788289,11.0480163 73.7252239,10.680654 73.9954955,10.4083916 C74.2657671,10.1361292 74.6561536,10 75.1666667,10 C75.6771797,10 76.0694431,10.1361292 76.3434685,10.4083916 C76.6174939,10.680654 76.7657657,11.0480163 76.7882883,11.5104895 C76.8033034,11.7790223 76.8108108,11.9543119 76.8108108,12.0363636 C76.8108108,12.1109561 76.8033034,12.275057 76.7882883,12.5286713 C76.7657657,12.9836853 76.6118633,13.3398589 76.3265766,13.5972028 C76.0412899,13.8545467 75.6546571,13.9832168 75.1666667,13.9832168 Z M74.2207207,17.8881119 C74.1531528,17.8881119 74.0968471,17.8675993 74.0518018,17.8265734 C74.0067565,17.7855476 73.9842342,17.7314689 73.9842342,17.6643357 C73.9842342,17.6195802 73.9992491,17.578555 74.0292793,17.5412587 L79.5923423,10.2685315 C79.6524027,10.1864798 79.7068316,10.1305363 79.7556306,10.1006993 C79.8044297,10.0708623 79.8738734,10.0559441 79.963964,10.0559441 L80.3243243,10.0559441 C80.3918922,10.0559441 80.4463211,10.0764567 80.4876126,10.1174825 C80.5289041,10.1585084 80.5495495,10.2125871 80.5495495,10.2797203 C80.5495495,10.3244757 80.5345347,10.365501 80.5045045,10.4027972 L74.9527027,17.6755245 C74.8926423,17.7501169 74.8382135,17.8041956 74.7894144,17.8377622 C74.7406154,17.8713288 74.6711716,17.8881119 74.5810811,17.8881119 L74.2207207,17.8881119 Z M75.1666667,13.3006993 C75.4369383,13.3006993 75.6358852,13.2223784 75.7635135,13.0657343 C75.8911418,12.9090901 75.9662161,12.7151527 75.9887387,12.4839161 C76.0037538,12.2153833 76.0112613,12.0587415 76.0112613,12.013986 C76.0112613,11.9468528 76.0037538,11.7939406 75.9887387,11.5552448 C75.9737236,11.3240082 75.9005262,11.1282059 75.7691441,10.9678322 C75.6377621,10.8074584 75.4369383,10.7272727 75.1666667,10.7272727 C74.896395,10.7272727 74.6974481,10.8074584 74.5698198,10.9678322 C74.4421916,11.1282059 74.3708709,11.3240082 74.3558559,11.5552448 C74.3483483,11.6745927 74.3445946,11.8275049 74.3445946,12.013986 C74.3445946,12.1930079 74.3483483,12.3496497 74.3558559,12.4839161 C74.3783785,12.7076934 74.451576,12.8997661 74.5754505,13.0601399 C74.6993249,13.2205136 74.896395,13.3006993 75.1666667,13.3006993 Z M79.3558559,17.9552448 C78.8678654,17.9552448 78.4831095,17.8172508 78.2015766,17.5412587 C77.9200436,17.2652667 77.7680181,16.8997692 77.7454955,16.4447552 C77.7304804,16.2209779 77.722973,16.0717952 77.722973,15.9972028 C77.722973,15.9226103 77.7304804,15.736132 77.7454955,15.4377622 C77.7680181,14.9752891 77.9144131,14.6079268 78.1846847,14.3356643 C78.4549563,14.0634019 78.8453428,13.9272727 79.3558559,13.9272727 C79.8663689,13.9272727 80.2586323,14.0634019 80.5326577,14.3356643 C80.8066831,14.6079268 80.9549548,14.9752891 80.9774775,15.4377622 C80.9924926,15.706295 81,15.8778551 81,15.9524476 C81,16.02704 80.9924926,16.1911409 80.9774775,16.4447552 C80.9549548,16.8997692 80.8010525,17.2652667 80.5157658,17.5412587 C80.2304791,17.8172508 79.8438463,17.9552448 79.3558559,17.9552448 Z M79.3558559,17.227972 C79.6261275,17.227972 79.8250744,17.1496511 79.9527027,16.993007 C80.080331,16.8363629 80.1554053,16.6424254 80.1779279,16.4111888 C80.192943,16.142656 80.2004505,15.9822846 80.2004505,15.9300699 C80.2004505,15.870396 80.192943,15.7212133 80.1779279,15.4825175 C80.1629128,15.2512809 80.0897154,15.0554787 79.9583333,14.8951049 C79.8269513,14.7347311 79.6261275,14.6545455 79.3558559,14.6545455 C79.0855842,14.6545455 78.8866373,14.7347311 78.759009,14.8951049 C78.6313807,15.0554787 78.5600601,15.2512809 78.545045,15.4825175 C78.5375375,15.6018654 78.5337838,15.7510481 78.5337838,15.9300699 C78.5337838,16.116551 78.5375375,16.2769224 78.545045,16.4111888 C78.5600601,16.6349662 78.6313807,16.8270388 78.759009,16.9874126 C78.8866373,17.1477863 79.0855842,17.227972 79.3558559,17.227972 Z" id="37%" fill="#010202"></path>
                    <path d="M271.139166,17.9324895 C271.064787,17.9324895 271.003426,17.9081109 270.955079,17.859353 C270.906733,17.8105952 270.88256,17.7487111 270.88256,17.673699 L270.88256,16.0309423 L267.256606,16.0309423 C267.182227,16.0309423 267.120865,16.0065638 267.072519,15.9578059 C267.024173,15.909048 267,15.847164 267,15.7721519 L267,15.3558368 C267,15.2508199 267.040908,15.1383035 267.122725,15.0182841 L270.480916,10.2475387 C270.518105,10.187529 270.573889,10.1406471 270.648268,10.1068917 C270.722647,10.0731363 270.804462,10.0562588 270.893717,10.0562588 L271.652378,10.0562588 C271.734195,10.0562588 271.797416,10.0787621 271.842043,10.1237693 C271.886671,10.1687766 271.908984,10.2325359 271.908984,10.3150492 L271.908984,15.0857947 L272.924251,15.0857947 C272.99863,15.0857947 273.059992,15.1101732 273.108338,15.1589311 C273.156685,15.2076889 273.180857,15.269573 273.180857,15.3445851 L273.180857,15.7721519 C273.180857,15.847164 273.156685,15.909048 273.108338,15.9578059 C273.059992,16.0065638 272.99863,16.0309423 272.924251,16.0309423 L271.908984,16.0309423 L271.908984,17.673699 C271.908984,17.7487111 271.884811,17.8105952 271.836465,17.859353 C271.788119,17.9081109 271.726757,17.9324895 271.652378,17.9324895 L271.139166,17.9324895 Z M268.160305,15.1082982 L270.893717,15.1082982 L270.893717,11.1926864 L268.160305,15.1082982 Z M276.405167,17.9324895 C276.330788,17.9324895 276.271286,17.9081109 276.226659,17.859353 C276.182031,17.8105952 276.159718,17.7487111 276.159718,17.673699 L276.159718,11.3277075 L274.285379,12.7791842 C274.233313,12.8241915 274.17753,12.8466948 274.118027,12.8466948 C274.051086,12.8466948 273.987865,12.8091893 273.928362,12.7341772 L273.660599,12.3853727 C273.623409,12.3328642 273.604815,12.2803566 273.604815,12.2278481 C273.604815,12.1453348 273.642004,12.0778249 273.716383,12.0253165 L276.137405,10.1350211 C276.219221,10.0825126 276.315913,10.0562588 276.427481,10.0562588 L276.95185,10.0562588 C277.026229,10.0562588 277.08759,10.0806374 277.135937,10.1293952 C277.184283,10.1781531 277.208456,10.2400371 277.208456,10.3150492 L277.208456,17.673699 C277.208456,17.7487111 277.184283,17.8105952 277.135937,17.859353 C277.08759,17.9081109 277.026229,17.9324895 276.95185,17.9324895 L276.405167,17.9324895 Z M280.220787,14.0056259 C279.737324,14.0056259 279.356138,13.876232 279.077217,13.6174402 C278.798296,13.3586485 278.647681,13.0004711 278.625367,12.5428973 C278.617929,12.4153768 278.61421,12.2503526 278.61421,12.04782 C278.61421,11.8302849 278.617929,11.6540091 278.625367,11.5189873 C278.647681,11.0539123 278.792717,10.6844833 279.060482,10.4106892 C279.328246,10.136895 279.71501,10 280.220787,10 C280.726563,10 281.115188,10.136895 281.386671,10.4106892 C281.658154,10.6844833 281.80505,11.0539123 281.827363,11.5189873 C281.842239,11.7890309 281.849677,11.9653067 281.849677,12.04782 C281.849677,12.1228321 281.842239,12.2878562 281.827363,12.5428973 C281.80505,13.0004711 281.652575,13.3586485 281.369935,13.6174402 C281.087296,13.876232 280.70425,14.0056259 280.220787,14.0056259 Z M279.283617,17.9324895 C279.216676,17.9324895 279.160893,17.9118614 279.116265,17.8706048 C279.071638,17.8293481 279.049325,17.7749652 279.049325,17.7074543 C279.049325,17.662447 279.0642,17.621191 279.093952,17.583685 L284.605402,10.2700422 C284.664905,10.1875289 284.718829,10.1312707 284.767176,10.1012658 C284.815522,10.071261 284.884321,10.0562588 284.973576,10.0562588 L285.330593,10.0562588 C285.397534,10.0562588 285.451458,10.0768868 285.492366,10.1181435 C285.533275,10.1594001 285.553729,10.2137831 285.553729,10.281294 C285.553729,10.3263012 285.538853,10.3675572 285.509102,10.4050633 L280.008808,17.718706 C279.949305,17.7937181 279.895381,17.8481011 279.847035,17.8818565 C279.798688,17.915612 279.729889,17.9324895 279.640634,17.9324895 L279.283617,17.9324895 Z M280.220787,13.3192686 C280.488551,13.3192686 280.685652,13.2405071 280.812096,13.0829817 C280.93854,12.9254563 281.012918,12.7304278 281.035232,12.4978903 C281.050108,12.2278468 281.057546,12.0703237 281.057546,12.0253165 C281.057546,11.9578056 281.050108,11.8040331 281.035232,11.5639944 C281.020356,11.3314569 280.947838,11.1345531 280.817675,10.9732771 C280.687512,10.8120011 280.488551,10.7313643 280.220787,10.7313643 C279.953023,10.7313643 279.755922,10.8120011 279.629477,10.9732771 C279.503033,11.1345531 279.432374,11.3314569 279.417499,11.5639944 C279.410061,11.6840137 279.406342,11.8377862 279.406342,12.0253165 C279.406342,12.2053455 279.410061,12.3628685 279.417499,12.4978903 C279.439812,12.7229266 279.512331,12.9160798 279.635056,13.0773558 C279.757781,13.2386318 279.953023,13.3192686 280.220787,13.3192686 Z M284.37111,18 C283.887647,18 283.506461,17.8612297 283.22754,17.583685 C282.948619,17.3061402 282.798004,16.9385864 282.77569,16.4810127 C282.760814,16.2559764 282.753376,16.1059544 282.753376,16.0309423 C282.753376,15.9559302 282.760814,15.7684028 282.77569,15.4683544 C282.798004,15.0032794 282.94304,14.6338504 283.210804,14.3600563 C283.478569,14.0862621 283.865333,13.9493671 284.37111,13.9493671 C284.876886,13.9493671 285.26551,14.0862621 285.536994,14.3600563 C285.808477,14.6338504 285.955373,15.0032794 285.977686,15.4683544 C285.992562,15.738398 286,15.9109232 286,15.9859353 C286,16.0609474 285.992562,16.2259715 285.977686,16.4810127 C285.955373,16.9385864 285.802898,17.3061402 285.520258,17.583685 C285.237618,17.8612297 284.854573,18 284.37111,18 Z M284.37111,17.2686357 C284.638874,17.2686357 284.835975,17.1898742 284.962419,17.0323488 C285.088863,16.8748234 285.163241,16.6797949 285.185555,16.4472574 C285.200431,16.1772138 285.207868,16.0159403 285.207868,15.9634318 C285.207868,15.9034221 285.200431,15.7534002 285.185555,15.5133615 C285.170679,15.280824 285.098161,15.0839202 284.967998,14.9226442 C284.837835,14.7613682 284.638874,14.6807314 284.37111,14.6807314 C284.103346,14.6807314 283.906245,14.7613682 283.7798,14.9226442 C283.653356,15.0839202 283.582697,15.280824 283.567821,15.5133615 C283.560384,15.6333808 283.556665,15.7834028 283.556665,15.9634318 C283.556665,16.150962 283.560384,16.3122356 283.567821,16.4472574 C283.582697,16.6722937 283.653356,16.8654469 283.7798,17.0267229 C283.906245,17.1879989 284.103346,17.2686357 284.37111,17.2686357 Z" id="41%" fill="#010202"></path>
                    <path d="M417.251366,17.9330544 C417.178506,17.9330544 417.118397,17.9088798 417.071038,17.86053 C417.023679,17.8121801 417,17.7508139 417,17.6764296 L417,17.3417015 C417,17.1706175 417.091074,17.0069743 417.273224,16.8507671 L419.655738,14.4295676 C420.194903,13.9609461 420.566483,13.5778722 420.770492,13.2803347 C420.9745,12.9827972 421.076503,12.6666683 421.076503,12.3319386 C421.076503,11.8930708 420.956285,11.5490482 420.715847,11.2998605 C420.475409,11.0506729 420.125685,10.9260809 419.666667,10.9260809 C419.229506,10.9260809 418.883426,11.0562516 418.628415,11.3165969 C418.373405,11.5769423 418.216758,11.9265436 418.15847,12.3654114 C418.143898,12.4472343 418.107468,12.51046 418.04918,12.5550907 C417.990892,12.5997213 417.932605,12.6220363 417.874317,12.6220363 L417.349727,12.6220363 C417.284153,12.6220363 417.229508,12.5997213 417.185792,12.5550907 C417.142076,12.51046 417.120219,12.4583917 417.120219,12.3988842 C417.134791,12.004647 417.238615,11.6234328 417.431694,11.2552301 C417.624773,10.8870274 417.910745,10.5857752 418.289617,10.3514644 C418.66849,10.1171536 419.127502,10 419.666667,10 C420.4827,10 421.096537,10.217571 421.508197,10.6527197 C421.919856,11.0878683 422.125683,11.640164 422.125683,12.3096234 C422.125683,12.778245 422.014573,13.20037 421.79235,13.5760112 C421.570126,13.9516523 421.222225,14.3477432 420.748634,14.7642957 L418.595628,16.9958159 L422.038251,16.9958159 C422.118397,16.9958159 422.180328,17.0181309 422.224044,17.0627615 C422.26776,17.1073921 422.289617,17.1706179 422.289617,17.2524407 L422.289617,17.6764296 C422.289617,17.7508139 422.265938,17.8121801 422.218579,17.86053 C422.17122,17.9088798 422.111111,17.9330544 422.038251,17.9330544 L417.251366,17.9330544 Z M423.63388,17.9330544 C423.56102,17.9330544 423.500911,17.9088798 423.453552,17.86053 C423.406193,17.8121801 423.382514,17.7508139 423.382514,17.6764296 L423.382514,17.3417015 C423.382514,17.1706175 423.473587,17.0069743 423.655738,16.8507671 L426.038251,14.4295676 C426.577416,13.9609461 426.948997,13.5778722 427.153005,13.2803347 C427.357014,12.9827972 427.459016,12.6666683 427.459016,12.3319386 C427.459016,11.8930708 427.338799,11.5490482 427.098361,11.2998605 C426.857922,11.0506729 426.508199,10.9260809 426.04918,10.9260809 C425.61202,10.9260809 425.265939,11.0562516 425.010929,11.3165969 C424.755919,11.5769423 424.599272,11.9265436 424.540984,12.3654114 C424.526412,12.4472343 424.489982,12.51046 424.431694,12.5550907 C424.373406,12.5997213 424.315119,12.6220363 424.256831,12.6220363 L423.73224,12.6220363 C423.666666,12.6220363 423.612022,12.5997213 423.568306,12.5550907 C423.52459,12.51046 423.502732,12.4583917 423.502732,12.3988842 C423.517304,12.004647 423.621128,11.6234328 423.814208,11.2552301 C424.007287,10.8870274 424.293259,10.5857752 424.672131,10.3514644 C425.051004,10.1171536 425.510016,10 426.04918,10 C426.865214,10 427.479051,10.217571 427.89071,10.6527197 C428.30237,11.0878683 428.508197,11.640164 428.508197,12.3096234 C428.508197,12.778245 428.397087,13.20037 428.174863,13.5760112 C427.95264,13.9516523 427.604738,14.3477432 427.131148,14.7642957 L424.978142,16.9958159 L428.420765,16.9958159 C428.500911,16.9958159 428.562841,17.0181309 428.606557,17.0627615 C428.650273,17.1073921 428.672131,17.1706179 428.672131,17.2524407 L428.672131,17.6764296 C428.672131,17.7508139 428.648452,17.8121801 428.601093,17.86053 C428.553734,17.9088798 428.493625,17.9330544 428.420765,17.9330544 L423.63388,17.9330544 Z M431.338798,14.0390516 C430.865207,14.0390516 430.491805,13.9107405 430.218579,13.6541144 C429.945354,13.3974883 429.797814,13.0423082 429.775956,12.5885635 C429.76867,12.46211 429.765027,12.2984668 429.765027,12.097629 C429.765027,11.8819143 429.76867,11.7071136 429.775956,11.5732218 C429.797814,11.1120386 429.939889,10.745701 430.202186,10.474198 C430.464482,10.2026951 430.843349,10.0669456 431.338798,10.0669456 C431.834247,10.0669456 432.214935,10.2026951 432.480874,10.474198 C432.746814,10.745701 432.89071,11.1120386 432.912568,11.5732218 C432.92714,11.8410055 432.934426,12.0158062 432.934426,12.097629 C432.934426,12.1720134 432.92714,12.3356566 432.912568,12.5885635 C432.89071,13.0423082 432.741349,13.3974883 432.464481,13.6541144 C432.187612,13.9107405 431.812389,14.0390516 431.338798,14.0390516 Z M430.420765,17.9330544 C430.355191,17.9330544 430.300547,17.912599 430.256831,17.8716876 C430.213115,17.8307762 430.191257,17.7768483 430.191257,17.7099024 C430.191257,17.6652717 430.205829,17.6243609 430.234973,17.5871688 L435.63388,10.334728 C435.692168,10.2529052 435.744991,10.1971178 435.79235,10.167364 C435.839709,10.1376103 435.907103,10.1227336 435.994536,10.1227336 L436.344262,10.1227336 C436.409836,10.1227336 436.462659,10.143189 436.502732,10.1841004 C436.542805,10.2250118 436.562842,10.2789397 436.562842,10.3458856 C436.562842,10.3905163 436.54827,10.4314271 436.519126,10.4686192 L431.131148,17.72106 C431.072859,17.7954444 431.020037,17.8493722 430.972678,17.8828452 C430.925319,17.9163182 430.857924,17.9330544 430.770492,17.9330544 L430.420765,17.9330544 Z M431.338798,13.3584379 C431.601094,13.3584379 431.794171,13.2803355 431.918033,13.1241283 C432.041895,12.9679211 432.114754,12.7745246 432.136612,12.5439331 C432.151184,12.2761493 432.15847,12.1199444 432.15847,12.0753138 C432.15847,12.0083679 432.151184,11.8558822 432.136612,11.6178522 C432.12204,11.3872606 432.051002,11.1920045 431.923497,11.0320781 C431.795992,10.8721517 431.601094,10.7921897 431.338798,10.7921897 C431.076501,10.7921897 430.883425,10.8721517 430.759563,11.0320781 C430.635701,11.1920045 430.566485,11.3872606 430.551913,11.6178522 C430.544627,11.7368672 430.540984,11.8893529 430.540984,12.0753138 C430.540984,12.2538363 430.544627,12.4100412 430.551913,12.5439331 C430.573771,12.7670862 430.644808,12.9586231 430.765027,13.1185495 C430.885247,13.2784759 431.076501,13.3584379 431.338798,13.3584379 Z M435.404372,18 C434.930781,18 434.557378,17.862391 434.284153,17.5871688 C434.010928,17.3119466 433.863388,16.9474686 433.84153,16.4937238 C433.826958,16.2705707 433.819672,16.1218042 433.819672,16.0474198 C433.819672,15.9730354 433.826958,15.7870773 433.84153,15.4895397 C433.863388,15.0283566 434.005463,14.662019 434.26776,14.390516 C434.530056,14.1190131 434.908923,13.9832636 435.404372,13.9832636 C435.89982,13.9832636 436.280509,14.1190131 436.546448,14.390516 C436.812387,14.662019 436.956284,15.0283566 436.978142,15.4895397 C436.992714,15.7573235 437,15.928405 437,16.0027894 C437,16.0771738 436.992714,16.240817 436.978142,16.4937238 C436.956284,16.9474686 436.806923,17.3119466 436.530055,17.5871688 C436.253186,17.862391 435.877962,18 435.404372,18 Z M435.404372,17.2747559 C435.666668,17.2747559 435.859744,17.1966535 435.983607,17.0404463 C436.107469,16.8842391 436.180328,16.6908426 436.202186,16.460251 C436.216758,16.1924673 436.224044,16.0325433 436.224044,15.9804742 C436.224044,15.9209667 436.216758,15.7722002 436.202186,15.5341702 C436.187614,15.3035786 436.116576,15.1083225 435.989071,14.9483961 C435.861566,14.7884697 435.666668,14.7085077 435.404372,14.7085077 C435.142075,14.7085077 434.948999,14.7884697 434.825137,14.9483961 C434.701274,15.1083225 434.632058,15.3035786 434.617486,15.5341702 C434.6102,15.6531852 434.606557,15.8019517 434.606557,15.9804742 C434.606557,16.1664351 434.6102,16.3263592 434.617486,16.460251 C434.632058,16.6834042 434.701274,16.8749411 434.825137,17.0348675 C434.948999,17.1947939 435.142075,17.2747559 435.404372,17.2747559 Z" id="22%" fill="#010202"></path>
                </g>
                <g id="Group-10" transform="translate(0.000000, 20.000000)">
                    <polygon id="Fill-4" fill="#F38486" points="0 27 304 27 304 0 0 0"></polygon>
                    <polygon id="Fill-5" fill="#FFCA05" points="301 27 429 27 429 0 301 0"></polygon>
                    <polygon id="Fill-6" fill="#FFF100" points="428 27 476 27 476 0 428 0"></polygon>
                    <path d="M144.881915,17 C144.286167,17 143.770481,16.8787891 143.33484,16.6363636 C142.8992,16.3939382 142.56782,16.0676011 142.340691,15.6573427 C142.113563,15.2470842 142,14.7995362 142,14.3146853 C142,13.6731903 142.256912,12.98695 142.770745,12.2559441 L144.904255,9.27972028 C144.911702,9.27226103 144.932181,9.24615407 144.965691,9.2013986 C144.999202,9.15664313 145.042021,9.12121225 145.094149,9.0951049 C145.146277,9.06899754 145.205851,9.05594406 145.272872,9.05594406 L145.820213,9.05594406 C145.887234,9.05594406 145.941223,9.08018624 145.982181,9.12867133 C146.023139,9.17715642 146.043617,9.2349647 146.043617,9.3020979 C146.043617,9.33939413 146.025,9.38787849 145.987766,9.44755245 L144.356915,11.7300699 C144.550533,11.6853145 144.766488,11.6629371 145.004787,11.6629371 C145.548407,11.6629371 146.02686,11.784148 146.44016,12.0265734 C146.85346,12.2689989 147.173669,12.5897416 147.400798,12.9888112 C147.627927,13.3878808 147.741489,13.8261048 147.741489,14.3034965 C147.741489,14.7808882 147.627927,15.2265714 147.400798,15.6405594 C147.173669,16.0545475 146.844151,16.3846142 146.412234,16.6307692 C145.980317,16.8769243 145.470216,17 144.881915,17 Z M144.870745,16.0713287 C145.198406,16.0713287 145.499999,16.0041965 145.775532,15.8699301 C146.051065,15.7356637 146.270744,15.5361319 146.434574,15.2713287 C146.598405,15.0065255 146.680319,14.6876476 146.680319,14.3146853 C146.680319,13.9491823 146.596543,13.634034 146.428989,13.3692308 C146.261435,13.1044276 146.039895,12.903031 145.764362,12.765035 C145.488828,12.6270389 145.190959,12.558042 144.870745,12.558042 C144.55053,12.558042 144.252661,12.6270389 143.977128,12.765035 C143.701594,12.903031 143.481916,13.1044276 143.318085,13.3692308 C143.154254,13.634034 143.07234,13.9491823 143.07234,14.3146853 C143.07234,14.6876476 143.154254,15.0065255 143.318085,15.2713287 C143.481916,15.5361319 143.701594,15.7356637 143.977128,15.8699301 C144.252661,16.0041965 144.55053,16.0713287 144.870745,16.0713287 Z M152.645213,16.8881119 C152.570744,16.8881119 152.509309,16.8638697 152.460904,16.8153846 C152.4125,16.7668995 152.388298,16.7053617 152.388298,16.6307692 L152.388298,14.9972028 L148.757979,14.9972028 C148.68351,14.9972028 148.622075,14.9729606 148.57367,14.9244755 C148.525266,14.8759904 148.501064,14.8144526 148.501064,14.7398601 L148.501064,14.3258741 C148.501064,14.2214447 148.542021,14.1095577 148.623936,13.9902098 L151.98617,9.24615385 C152.023404,9.18647989 152.079255,9.13986031 152.153723,9.10629371 C152.228192,9.0727271 152.310106,9.05594406 152.399468,9.05594406 L153.159043,9.05594406 C153.240958,9.05594406 153.304255,9.07832145 153.348936,9.12307692 C153.393617,9.16783239 153.415957,9.23123502 153.415957,9.31328671 L153.415957,14.0573427 L154.432447,14.0573427 C154.506915,14.0573427 154.568351,14.0815848 154.616755,14.1300699 C154.66516,14.178555 154.689362,14.2400929 154.689362,14.3146853 L154.689362,14.7398601 C154.689362,14.8144526 154.66516,14.8759904 154.616755,14.9244755 C154.568351,14.9729606 154.506915,14.9972028 154.432447,14.9972028 L153.415957,14.9972028 L153.415957,16.6307692 C153.415957,16.7053617 153.391756,16.7668995 153.343351,16.8153846 C153.294947,16.8638697 153.233511,16.8881119 153.159043,16.8881119 L152.645213,16.8881119 Z M149.662766,14.0797203 L152.399468,14.0797203 L152.399468,10.186014 L149.662766,14.0797203 Z M157.21383,12.9832168 C156.729785,12.9832168 156.34814,12.8545467 156.068883,12.5972028 C155.789626,12.3398589 155.63883,11.9836853 155.616489,11.5286713 C155.609043,11.4018642 155.605319,11.2377632 155.605319,11.0363636 C155.605319,10.8200455 155.609043,10.6447559 155.616489,10.5104895 C155.63883,10.0480163 155.784041,9.68065404 156.052128,9.40839161 C156.320214,9.13612917 156.707444,9 157.21383,9 C157.720215,9 158.109307,9.13612917 158.381117,9.40839161 C158.652927,9.68065404 158.8,10.0480163 158.82234,10.5104895 C158.837234,10.7790223 158.844681,10.9543119 158.844681,11.0363636 C158.844681,11.1109561 158.837234,11.275057 158.82234,11.5286713 C158.8,11.9836853 158.647342,12.3398589 158.364362,12.5972028 C158.081382,12.8545467 157.697875,12.9832168 157.21383,12.9832168 Z M156.275532,16.8881119 C156.20851,16.8881119 156.15266,16.8675993 156.107979,16.8265734 C156.063298,16.7855476 156.040957,16.7314689 156.040957,16.6643357 C156.040957,16.6195802 156.055851,16.578555 156.085638,16.5412587 L161.603723,9.26853147 C161.663298,9.18647978 161.717287,9.13053628 161.765691,9.1006993 C161.814096,9.07086232 161.882978,9.05594406 161.97234,9.05594406 L162.329787,9.05594406 C162.396809,9.05594406 162.450798,9.07645667 162.491755,9.11748252 C162.532713,9.15850836 162.553191,9.21258708 162.553191,9.27972028 C162.553191,9.32447575 162.538298,9.36550098 162.508511,9.4027972 L157.001596,16.6755245 C156.942021,16.7501169 156.888032,16.8041956 156.839628,16.8377622 C156.791223,16.8713288 156.722341,16.8881119 156.632979,16.8881119 L156.275532,16.8881119 Z M157.21383,12.3006993 C157.481916,12.3006993 157.679255,12.2223784 157.805851,12.0657343 C157.932447,11.9090901 158.006915,11.7151527 158.029255,11.4839161 C158.044149,11.2153833 158.051596,11.0587415 158.051596,11.013986 C158.051596,10.9468528 158.044149,10.7939406 158.029255,10.5552448 C158.014362,10.3240082 157.941756,10.1282059 157.811436,9.96783217 C157.681116,9.80745841 157.481916,9.72727273 157.21383,9.72727273 C156.945743,9.72727273 156.748405,9.80745841 156.621809,9.96783217 C156.495212,10.1282059 156.424468,10.3240082 156.409574,10.5552448 C156.402128,10.6745927 156.398404,10.8275049 156.398404,11.013986 C156.398404,11.1930079 156.402128,11.3496497 156.409574,11.4839161 C156.431915,11.7076934 156.504521,11.8997661 156.627394,12.0601399 C156.750267,12.2205136 156.945743,12.3006993 157.21383,12.3006993 Z M161.369149,16.9552448 C160.885104,16.9552448 160.503459,16.8172508 160.224202,16.5412587 C159.944945,16.2652667 159.794149,15.8997692 159.771809,15.4447552 C159.756915,15.2209779 159.749468,15.0717952 159.749468,14.9972028 C159.749468,14.9226103 159.756915,14.736132 159.771809,14.4377622 C159.794149,13.9752891 159.93936,13.6079268 160.207447,13.3356643 C160.475533,13.0634019 160.862763,12.9272727 161.369149,12.9272727 C161.875534,12.9272727 162.264626,13.0634019 162.536436,13.3356643 C162.808246,13.6079268 162.955319,13.9752891 162.97766,14.4377622 C162.992553,14.706295 163,14.8778551 163,14.9524476 C163,15.02704 162.992553,15.1911409 162.97766,15.4447552 C162.955319,15.8997692 162.802661,16.2652667 162.519681,16.5412587 C162.236701,16.8172508 161.853194,16.9552448 161.369149,16.9552448 Z M161.369149,16.227972 C161.637235,16.227972 161.834574,16.1496511 161.96117,15.993007 C162.087767,15.8363629 162.162234,15.6424254 162.184574,15.4111888 C162.199468,15.142656 162.206915,14.9822846 162.206915,14.9300699 C162.206915,14.870396 162.199468,14.7212133 162.184574,14.4825175 C162.169681,14.2512809 162.097075,14.0554787 161.966755,13.8951049 C161.836436,13.7347311 161.637235,13.6545455 161.369149,13.6545455 C161.101062,13.6545455 160.903724,13.7347311 160.777128,13.8951049 C160.650531,14.0554787 160.579787,14.2512809 160.564894,14.4825175 C160.557447,14.6018654 160.553723,14.7510481 160.553723,14.9300699 C160.553723,15.116551 160.557447,15.2769224 160.564894,15.4111888 C160.579787,15.6349662 160.650531,15.8270388 160.777128,15.9874126 C160.903724,16.1477863 161.101062,16.227972 161.369149,16.227972 Z" id="64%" fill="#010202"></path>
                    <path d="M355.249187,16.889043 C355.176959,16.889043 355.117371,16.8650026 355.070423,16.8169209 C355.023474,16.7688393 355,16.7078136 355,16.6338419 L355,16.3009709 C355,16.130836 355.090284,15.9681006 355.270856,15.8127601 L357.632719,13.4049931 C358.167211,12.9389713 358.535571,12.5580227 358.737811,12.2621359 C358.940052,11.9662491 359.04117,11.6518741 359.04117,11.3190014 C359.04117,10.8825683 358.921995,10.5404543 358.68364,10.2926491 C358.445286,10.0448439 358.098594,9.92094313 357.643554,9.92094313 C357.210182,9.92094313 356.867101,10.0503917 356.614301,10.3092926 C356.361501,10.5681936 356.206212,10.9158554 356.148429,11.3522885 C356.133983,11.4336574 356.09787,11.4965324 356.040087,11.5409154 C355.982304,11.5852984 355.924522,11.6074896 355.866739,11.6074896 L355.346696,11.6074896 C355.28169,11.6074896 355.227519,11.5852984 355.184182,11.5409154 C355.140845,11.4965324 355.119177,11.444753 355.119177,11.3855756 C355.133622,10.9935255 355.236547,10.6144262 355.427952,10.2482663 C355.619358,9.88210635 355.902851,9.58252544 356.27844,9.34951456 C356.654029,9.11650369 357.109062,9 357.643554,9 C358.452514,9 359.061031,9.21636399 359.469122,9.64909847 C359.877214,10.081833 360.081257,10.6310646 360.081257,11.29681 C360.081257,11.7628317 359.97111,12.1826149 359.750813,12.556172 C359.530515,12.9297291 359.185629,13.3236225 358.716143,13.7378641 L356.581798,15.9570042 L359.994583,15.9570042 C360.074034,15.9570042 360.135428,15.9791953 360.178765,16.0235784 C360.222102,16.0679614 360.24377,16.1308364 360.24377,16.2122053 L360.24377,16.6338419 C360.24377,16.7078136 360.220296,16.7688393 360.173348,16.8169209 C360.126399,16.8650026 360.066811,16.889043 359.994583,16.889043 L355.249187,16.889043 Z M364.122427,17 C363.544598,17 363.044422,16.8797978 362.621885,16.6393897 C362.199348,16.3989817 361.877935,16.0753603 361.657638,15.668516 C361.437341,15.2616716 361.327194,14.817848 361.327194,14.3370319 C361.327194,13.7008752 361.576379,13.0203457 362.074756,12.295423 L364.144095,9.34396671 C364.151318,9.33656954 364.171181,9.31067983 364.203684,9.26629681 C364.236187,9.22191379 364.277717,9.18677775 364.328277,9.16088766 C364.378837,9.13499756 364.436619,9.1220527 364.501625,9.1220527 L365.032503,9.1220527 C365.097508,9.1220527 365.149873,9.14609315 365.189599,9.19417476 C365.229325,9.24225637 365.249187,9.29958358 365.249187,9.36615811 C365.249187,9.40314397 365.231131,9.45122485 365.195016,9.51040222 L363.613218,11.7739251 C363.801012,11.7295421 364.010472,11.7073509 364.241603,11.7073509 C364.768872,11.7073509 365.232934,11.8275531 365.633803,12.0679612 C366.034672,12.3083692 366.34525,12.6264428 366.565547,13.0221914 C366.785844,13.41794 366.895991,13.8525173 366.895991,14.3259362 C366.895991,14.7993551 366.785844,15.2413294 366.565547,15.6518724 C366.34525,16.0624154 366.025643,16.3897353 365.606717,16.6338419 C365.187791,16.8779485 364.693033,17 364.122427,17 Z M364.111593,16.0790569 C364.429398,16.0790569 364.72192,16.0124833 364.989166,15.8793343 C365.256412,15.7461852 365.469483,15.5483138 365.628386,15.2857143 C365.787289,15.0231147 365.866739,14.7068904 365.866739,14.3370319 C365.866739,13.9745705 365.785483,13.6620448 365.622969,13.3994452 C365.460454,13.1368457 365.245577,12.937125 364.978332,12.8002774 C364.711086,12.6634297 364.422176,12.5950069 364.111593,12.5950069 C363.80101,12.5950069 363.5121,12.6634297 363.244854,12.8002774 C362.977608,12.937125 362.764537,13.1368457 362.605634,13.3994452 C362.446731,13.6620448 362.367281,13.9745705 362.367281,14.3370319 C362.367281,14.7068904 362.446731,15.0231147 362.605634,15.2857143 C362.764537,15.5483138 362.977608,15.7461852 363.244854,15.8793343 C363.5121,16.0124833 363.80101,16.0790569 364.111593,16.0790569 Z M369.387866,13.0166436 C368.91838,13.0166436 368.548214,12.8890443 368.277356,12.6338419 C368.006499,12.3786395 367.860238,12.0254299 367.83857,11.5742025 C367.831347,11.4484506 367.827736,11.2857153 367.827736,11.0859917 C367.827736,10.8714737 367.831347,10.6976428 367.83857,10.5644938 C367.860238,10.1058692 368.001082,9.74156399 368.261105,9.47156727 C368.521128,9.20157054 368.896711,9.0665742 369.387866,9.0665742 C369.87902,9.0665742 370.256409,9.20157054 370.520043,9.47156727 C370.783678,9.74156399 370.926327,10.1058692 370.947996,10.5644938 C370.962441,10.8307919 370.969664,11.0046228 370.969664,11.0859917 C370.969664,11.1599634 370.962441,11.3226987 370.947996,11.5742025 C370.926327,12.0254299 370.778261,12.3786395 370.503792,12.6338419 C370.229323,12.8890443 369.857352,13.0166436 369.387866,13.0166436 Z M368.47779,16.889043 C368.412784,16.889043 368.358613,16.8687011 368.315276,16.8280166 C368.271939,16.7873322 368.250271,16.7337035 368.250271,16.667129 C368.250271,16.622746 368.264716,16.5820621 368.293608,16.5450763 L373.64572,9.33287101 C373.703503,9.25150214 373.755868,9.19602419 373.802817,9.16643551 C373.849765,9.13684682 373.916576,9.1220527 374.00325,9.1220527 L374.349946,9.1220527 C374.414952,9.1220527 374.467317,9.14239462 374.507042,9.18307906 C374.546768,9.2237635 374.566631,9.27739218 374.566631,9.34396671 C374.566631,9.38834974 374.552185,9.42903356 374.523294,9.46601942 L369.182015,16.6782247 C369.124232,16.7521964 369.071867,16.8058251 369.024919,16.8391123 C368.97797,16.8723996 368.91116,16.889043 368.824485,16.889043 L368.47779,16.889043 Z M369.387866,12.3398058 C369.647889,12.3398058 369.839292,12.2621367 369.96208,12.1067961 C370.084869,11.9514555 370.157096,11.759132 370.178765,11.5298197 C370.193211,11.2635216 370.200433,11.1081833 370.200433,11.0638003 C370.200433,10.9972257 370.193211,10.845586 370.178765,10.6088766 C370.164319,10.3795643 370.093897,10.1853915 369.967497,10.0263523 C369.841097,9.86731312 369.647889,9.78779473 369.387866,9.78779473 C369.127843,9.78779473 368.93644,9.86731312 368.813651,10.0263523 C368.690863,10.1853915 368.622246,10.3795643 368.607801,10.6088766 C368.600578,10.7272313 368.596966,10.878871 368.596966,11.0638003 C368.596966,11.2413324 368.600578,11.3966706 368.607801,11.5298197 C368.629469,11.7517348 368.699891,11.9422091 368.819068,12.1012483 C368.938245,12.2602874 369.127843,12.3398058 369.387866,12.3398058 Z M373.418202,16.9556172 C372.948716,16.9556172 372.57855,16.8187716 372.307692,16.5450763 C372.036835,16.271381 371.890574,15.908925 371.868906,15.4576976 C371.85446,15.2357825 371.847237,15.0878413 371.847237,15.0138696 C371.847237,14.9398979 371.85446,14.7549714 371.868906,14.4590846 C371.890574,14.00046 372.031418,13.6361548 372.291441,13.3661581 C372.551464,13.0961614 372.927047,12.961165 373.418202,12.961165 C373.909356,12.961165 374.286745,13.0961614 374.550379,13.3661581 C374.814014,13.6361548 374.956663,14.00046 374.978332,14.4590846 C374.992777,14.7253827 375,14.8955151 375,14.9694868 C375,15.0434585 374.992777,15.2061938 374.978332,15.4576976 C374.956663,15.908925 374.808597,16.271381 374.534128,16.5450763 C374.259659,16.8187716 373.887687,16.9556172 373.418202,16.9556172 Z M373.418202,16.2343967 C373.678224,16.2343967 373.869627,16.1567275 373.992416,16.001387 C374.115205,15.8460464 374.187432,15.6537228 374.209101,15.4244105 C374.223546,15.1581124 374.230769,14.9990756 374.230769,14.9472954 C374.230769,14.8881181 374.223546,14.7401769 374.209101,14.5034674 C374.194655,14.2741551 374.124233,14.0799823 373.997833,13.9209431 C373.871433,13.761904 373.678224,13.6823856 373.418202,13.6823856 C373.158179,13.6823856 372.966776,13.761904 372.843987,13.9209431 C372.721198,14.0799823 372.652582,14.2741551 372.638137,14.5034674 C372.630914,14.6218221 372.627302,14.7697633 372.627302,14.9472954 C372.627302,15.1322247 372.630914,15.2912615 372.638137,15.4244105 C372.652582,15.6463257 372.721198,15.8367999 372.843987,15.9958391 C372.966776,16.1548783 373.158179,16.2343967 373.418202,16.2343967 Z" id="26%" fill="#010202"></path>
                    <path d="M444.734518,16.8888889 C444.661888,16.8888889 444.603785,16.8648151 444.560206,16.8166667 C444.516628,16.7685183 444.494839,16.7074078 444.494839,16.6333333 L444.494839,10.3666667 L442.664564,11.8 C442.613723,11.8444447 442.559251,11.8666667 442.501147,11.8666667 C442.435779,11.8666667 442.374045,11.82963 442.31594,11.7555556 L442.054472,11.4111111 C442.018157,11.359259 442,11.3074077 442,11.2555556 C442,11.1740737 442.036315,11.1074077 442.108945,11.0555556 L444.47305,9.18888889 C444.552944,9.13703678 444.647362,9.11111111 444.756307,9.11111111 L445.268349,9.11111111 C445.340979,9.11111111 445.400898,9.13518494 445.448108,9.18333333 C445.495318,9.23148172 445.518922,9.29259222 445.518922,9.36666667 L445.518922,16.6333333 C445.518922,16.7074078 445.495318,16.7685183 445.448108,16.8166667 C445.400898,16.8648151 445.340979,16.8888889 445.268349,16.8888889 L444.734518,16.8888889 Z M449.800459,17 C448.863527,17 448.178997,16.7203732 447.746846,16.1611111 C447.314696,15.6018491 447.084098,14.8703749 447.055046,13.9666667 L447.044151,13.0111111 L447.055046,12.0222222 C447.076835,11.1259214 447.307433,10.3981509 447.746846,9.83888889 C448.18626,9.27962683 448.87079,9 449.800459,9 C450.73739,9 451.425552,9.27962683 451.864966,9.83888889 C452.304379,10.3981509 452.534977,11.1259214 452.556766,12.0222222 C452.564029,12.2296307 452.567661,12.559257 452.567661,13.0111111 C452.567661,13.4481503 452.564029,13.7666657 452.556766,13.9666667 C452.527714,14.8703749 452.297116,15.6018491 451.864966,16.1611111 C451.432815,16.7203732 450.744653,17 449.800459,17 Z M449.800459,16.0777778 C450.359712,16.0777778 450.780962,15.8888908 451.06422,15.5111111 C451.347478,15.1333314 451.496368,14.6000034 451.510894,13.9111111 C451.518158,13.6962952 451.521789,13.3888909 451.521789,12.9888889 C451.521789,12.5814794 451.518158,12.2777788 451.510894,12.0777778 C451.496368,11.3962929 451.345663,10.8648167 451.058773,10.4833333 C450.771883,10.1018499 450.352449,9.91111111 449.800459,9.91111111 C449.248468,9.91111111 448.83085,10.1018499 448.547592,10.4833333 C448.264333,10.8648167 448.115443,11.3962929 448.100917,12.0777778 L448.090023,12.9888889 L448.100917,13.9111111 C448.115443,14.6000034 448.264333,15.1333314 448.547592,15.5111111 C448.83085,15.8888908 449.248468,16.0777778 449.800459,16.0777778 Z M455.356651,13.0111111 C454.884554,13.0111111 454.512329,12.8833346 454.239966,12.6277778 C453.967602,12.3722209 453.820528,12.0185208 453.798739,11.5666667 C453.791475,11.4407401 453.787844,11.2777788 453.787844,11.0777778 C453.787844,10.8629619 453.791475,10.6888896 453.798739,10.5555556 C453.820528,10.096294 453.962155,9.73148283 454.223624,9.46111111 C454.485093,9.19073939 454.862765,9.05555556 455.356651,9.05555556 C455.850538,9.05555556 456.230025,9.19073939 456.495126,9.46111111 C456.760227,9.73148283 456.90367,10.096294 456.925459,10.5555556 C456.939985,10.8222236 456.947248,10.9962959 456.947248,11.0777778 C456.947248,11.1518522 456.939985,11.3148136 456.925459,11.5666667 C456.90367,12.0185208 456.75478,12.3722209 456.478784,12.6277778 C456.202789,12.8833346 455.828749,13.0111111 455.356651,13.0111111 Z M454.441514,16.8888889 C454.376146,16.8888889 454.321675,16.8685187 454.278096,16.8277778 C454.234518,16.7870368 454.212729,16.7333337 454.212729,16.6666667 C454.212729,16.622222 454.227255,16.5814817 454.256307,16.5444444 L459.638188,9.32222222 C459.696292,9.24074033 459.748949,9.18518533 459.796158,9.15555556 C459.843368,9.12592578 459.91055,9.11111111 459.997706,9.11111111 L460.34633,9.11111111 C460.411698,9.11111111 460.464354,9.13148128 460.5043,9.17222222 C460.544247,9.21296317 460.56422,9.26666633 460.56422,9.33333333 C460.56422,9.377778 460.549694,9.41851833 460.520642,9.45555556 L455.149656,16.6777778 C455.091552,16.7518522 455.038895,16.8055554 454.991686,16.8388889 C454.944476,16.8722224 454.877294,16.8888889 454.790138,16.8888889 L454.441514,16.8888889 Z M455.356651,12.3333333 C455.618121,12.3333333 455.810588,12.2555563 455.93406,12.1 C456.057531,11.9444437 456.13016,11.751853 456.15195,11.5222222 C456.166476,11.2555542 456.173739,11.1000002 456.173739,11.0555556 C456.173739,10.9888886 456.166476,10.8370382 456.15195,10.6 C456.137423,10.3703692 456.06661,10.1759267 455.939507,10.0166667 C455.812404,9.85740661 455.618121,9.77777778 455.356651,9.77777778 C455.095182,9.77777778 454.902715,9.85740661 454.779243,10.0166667 C454.655772,10.1759267 454.586774,10.3703692 454.572248,10.6 C454.564985,10.7185191 454.561353,10.8703694 454.561353,11.0555556 C454.561353,11.2333342 454.564985,11.3888882 454.572248,11.5222222 C454.594037,11.7444456 454.66485,11.9351844 454.78469,12.0944444 C454.90453,12.2537045 455.095182,12.3333333 455.356651,12.3333333 Z M459.409404,16.9555556 C458.937307,16.9555556 458.565082,16.8185199 458.292718,16.5444444 C458.020354,16.270369 457.87328,15.9074097 457.851491,15.4555556 C457.836965,15.2333322 457.829702,15.0851856 457.829702,15.0111111 C457.829702,14.9370367 457.836965,14.7518533 457.851491,14.4555556 C457.87328,13.996294 458.014907,13.6314828 458.276376,13.3611111 C458.537845,13.0907394 458.915517,12.9555556 459.409404,12.9555556 C459.90329,12.9555556 460.282778,13.0907394 460.547878,13.3611111 C460.812979,13.6314828 460.956422,13.996294 460.978211,14.4555556 C460.992737,14.7222236 461,14.8925922 461,14.9666667 C461,15.0407411 460.992737,15.2037024 460.978211,15.4555556 C460.956422,15.9074097 460.807532,16.270369 460.531537,16.5444444 C460.255541,16.8185199 459.881501,16.9555556 459.409404,16.9555556 Z M459.409404,16.2333333 C459.670873,16.2333333 459.86334,16.1555563 459.986812,16 C460.110283,15.8444437 460.182913,15.651853 460.204702,15.4222222 C460.219228,15.1555542 460.226491,14.9962966 460.226491,14.9444444 C460.226491,14.8851849 460.219228,14.7370382 460.204702,14.5 C460.190176,14.2703692 460.119362,14.0759267 459.992259,13.9166667 C459.865156,13.7574066 459.670873,13.6777778 459.409404,13.6777778 C459.147934,13.6777778 458.955467,13.7574066 458.831995,13.9166667 C458.708524,14.0759267 458.639526,14.2703692 458.625,14.5 C458.617737,14.6185191 458.614106,14.7666658 458.614106,14.9444444 C458.614106,15.1296306 458.617737,15.2888882 458.625,15.4222222 C458.639526,15.6444456 458.708524,15.8351844 458.831995,15.9944444 C458.955467,16.1537045 459.147934,16.2333333 459.409404,16.2333333 Z" id="10%" fill="#010202"></path>
                </g>
            </g>
        </g>
    </g>
</svg>