<?xml version="1.0" encoding="UTF-8"?>
<svg width="480px" height="115px" viewBox="0 0 480 115" version="1.1" xmlns="http://www.w3.org/2000/svg" xmlns:xlink="http://www.w3.org/1999/xlink">
    <!-- Generator: Sketch 52.2 (67145) - http://www.bohemiancoding.com/sketch -->
    <title>Accountability to Learning</title>
    <desc>Created with Sketch.</desc>
    <g id="Page-1" stroke="none" stroke-width="1" fill="none" fill-rule="evenodd">
        <g id="Graphs" transform="translate(-1239.000000, -109.000000)">
            <g id="Accountability-to-Learning" transform="translate(1239.000000, 109.000000)">
                <path d="M3.49003215,9 C2.77813149,9 2.15956854,8.89166775 1.63432476,8.675 C1.10908098,8.45833225 0.709728055,8.17291844 0.436254019,7.81875 C0.162779983,7.46458156 0.0173634309,7.08333537 0,6.675 C0,6.608333 0.0260447556,6.55000025 0.0781350482,6.5 C0.130225341,6.44999975 0.19533723,6.425 0.273472669,6.425 L0.911575563,6.425 C1.06784644,6.425 1.17636626,6.5083325 1.23713826,6.675 C1.3152737,7.02500175 1.53882452,7.32708206 1.90779743,7.58125 C2.27677033,7.83541794 2.80417664,7.9625 3.49003215,7.9625 C4.22797797,7.9625 4.77925863,7.83750125 5.14389068,7.5875 C5.50852272,7.33749875 5.69083601,6.99166887 5.69083601,6.55 C5.69083601,6.26666525 5.60184976,6.03333425 5.4238746,5.85 C5.24589943,5.66666575 4.98111108,5.50625069 4.62950161,5.36875 C4.27789213,5.23124931 3.75048583,5.062501 3.04726688,4.8625 C2.37877479,4.67916575 1.8470277,4.48333438 1.45200965,4.275 C1.05699159,4.06666563 0.759647301,3.81041819 0.559967846,3.50625 C0.360288391,3.20208181 0.260450161,2.816669 0.260450161,2.35 C0.260450161,1.89999775 0.386333146,1.49791844 0.638102894,1.14375 C0.889872641,0.789581563 1.25449922,0.510417687 1.73199357,0.30625 C2.20948792,0.102082313 2.77379096,0 3.42491961,0 C4.10209342,0 4.68158923,0.114582188 5.16342444,0.34375 C5.64525964,0.572917812 6.01205662,0.860414938 6.26382637,1.20625 C6.51559611,1.55208506 6.65016068,1.89999825 6.66752412,2.25 C6.66752412,2.32500038 6.64147936,2.38749975 6.58938907,2.4375 C6.53729877,2.48750025 6.47218689,2.5125 6.39405145,2.5125 L5.74292605,2.5125 C5.67347232,2.5125 5.60836043,2.49166687 5.54758842,2.45 C5.48681642,2.40833312 5.44340849,2.34583375 5.41736334,2.2625 C5.36527305,1.90416488 5.15691501,1.6083345 4.79228296,1.375 C4.42765091,1.1416655 3.97186769,1.025 3.42491961,1.025 C2.83456296,1.025 2.36575736,1.13541556 2.01848875,1.35625 C1.67122013,1.57708444 1.49758842,1.9041645 1.49758842,2.3375 C1.49758842,2.62916813 1.57789309,2.86666575 1.73850482,3.05 C1.89911656,3.23333425 2.14654174,3.39583263 2.48078778,3.5375 C2.81503383,3.67916738 3.30337299,3.84166575 3.94581994,4.025 C4.68376575,4.225001 5.26326156,4.424999 5.68432476,4.625 C6.10538796,4.825001 6.42009542,5.07291519 6.62845659,5.36875 C6.83681776,5.66458481 6.94099678,6.045831 6.94099678,6.5125 C6.94099678,7.29583725 6.63063011,7.90624781 6.00988746,8.34375 C5.38914481,8.78125219 4.54920144,9 3.49003215,9 Z M8.94646302,8.875 C8.85964587,8.875 8.79019319,8.84791694 8.73810289,8.79375 C8.6860126,8.73958306 8.65996785,8.67083375 8.65996785,8.5875 L8.65996785,0.425 C8.65996785,0.333332875 8.6860126,0.260416938 8.73810289,0.20625 C8.79019319,0.152083063 8.85964587,0.125 8.94646302,0.125 L14.2987138,0.125 C14.3942127,0.125 14.4701766,0.152083063 14.5266077,0.20625 C14.5830389,0.260416938 14.611254,0.333332875 14.611254,0.425 L14.611254,0.875 C14.611254,0.95833375 14.5830389,1.02499975 14.5266077,1.075 C14.4701766,1.12500025 14.3942127,1.15 14.2987138,1.15 L9.85803859,1.15 L9.85803859,3.9375 L14.0122186,3.9375 C14.1077175,3.9375 14.1836814,3.96458306 14.2401125,4.01875 C14.2965437,4.07291694 14.3247588,4.14583288 14.3247588,4.2375 L14.3247588,4.6625 C14.3247588,4.74583375 14.2965437,4.81458306 14.2401125,4.86875 C14.1836814,4.92291694 14.1077175,4.95 14.0122186,4.95 L9.85803859,4.95 L9.85803859,7.8375 L14.4028939,7.8375 C14.4983928,7.8375 14.5743566,7.86458306 14.6307878,7.91875 C14.6872189,7.97291694 14.7154341,8.04583288 14.7154341,8.1375 L14.7154341,8.5875 C14.7154341,8.67083375 14.6850485,8.73958306 14.6242765,8.79375 C14.5635045,8.84791694 14.489711,8.875 14.4028939,8.875 L8.94646302,8.875 Z M16.8250804,8.875 C16.7382632,8.875 16.6688105,8.84791694 16.6167203,8.79375 C16.56463,8.73958306 16.5385852,8.67083375 16.5385852,8.5875 L16.5385852,0.425 C16.5385852,0.333332875 16.56463,0.260416938 16.6167203,0.20625 C16.6688105,0.152083063 16.7382632,0.125 16.8250804,0.125 L20.1197749,0.125 C21.1008088,0.125 21.8712995,0.352081063 22.4312701,0.80625 C22.9912407,1.26041894 23.2712219,1.920829 23.2712219,2.7875 C23.2712219,3.654171 22.9912407,4.31249775 22.4312701,4.7625 C21.8712995,5.21250225 21.1008088,5.4375 20.1197749,5.4375 L17.7757235,5.4375 L17.7757235,8.5875 C17.7757235,8.67083375 17.7475083,8.73958306 17.6910772,8.79375 C17.634646,8.84791694 17.5630229,8.875 17.4762058,8.875 L16.8250804,8.875 Z M20.0546624,4.425 C21.3656014,4.425 22.0210611,3.87917212 22.0210611,2.7875 C22.0210611,2.254164 21.8582814,1.84583475 21.532717,1.5625 C21.2071527,1.27916525 20.7144728,1.1375 20.0546624,1.1375 L17.7757235,1.1375 L17.7757235,4.425 L20.0546624,4.425 Z M27.5946945,2.375 C27.5252408,2.375 27.4731513,2.35208356 27.4384244,2.30625 C27.4036976,2.26041644 27.3906752,2.19583375 27.3993569,2.1125 L27.6858521,0.3625 C27.720579,0.120832125 27.8421211,0 28.0504823,0 L28.8839228,0 C28.9446948,0 28.994614,0.020833125 29.0336817,0.0625 C29.0727494,0.104166875 29.092283,0.154166375 29.092283,0.2125 C29.092283,0.29583375 29.0792606,0.36249975 29.0532154,0.4125 L28.376045,2.1 C28.3326364,2.19166713 28.2848877,2.26041644 28.2327974,2.30625 C28.1807071,2.35208356 28.1025729,2.375 27.9983923,2.375 L27.5946945,2.375 Z M33.194373,8.875 C33.1075558,8.875 33.0381032,8.84791694 32.9860129,8.79375 C32.9339226,8.73958306 32.9078778,8.67083375 32.9078778,8.5875 L32.9078778,1.5375 L30.7200965,3.15 C30.6593245,3.20000025 30.5942126,3.225 30.5247588,3.225 C30.4466234,3.225 30.3728299,3.18333375 30.3033762,3.1 L29.990836,2.7125 C29.9474274,2.65416638 29.9257235,2.59583363 29.9257235,2.5375 C29.9257235,2.44583288 29.9691314,2.37083363 30.0559486,2.3125 L32.8818328,0.2125 C32.9773317,0.154166375 33.0901923,0.125 33.220418,0.125 L33.8324759,0.125 C33.919293,0.125 33.9909161,0.152083063 34.0473473,0.20625 C34.1037784,0.260416938 34.1319936,0.32916625 34.1319936,0.4125 L34.1319936,8.5875 C34.1319936,8.67083375 34.1037784,8.73958306 34.0473473,8.79375 C33.9909161,8.84791694 33.919293,8.875 33.8324759,8.875 L33.194373,8.875 Z M37.0881029,8.875 C37.0099675,8.875 36.947026,8.84791694 36.8992765,8.79375 C36.8515271,8.73958306 36.8276527,8.67500038 36.8276527,8.6 L36.8536977,8.4875 L40.1093248,1.175 L35.8118971,1.175 C35.72508,1.175 35.6534569,1.14791694 35.5970257,1.09375 C35.5405946,1.03958306 35.5123794,0.97083375 35.5123794,0.8875 L35.5123794,0.425 C35.5123794,0.333332875 35.5384242,0.260416938 35.5905145,0.20625 C35.6426048,0.152083063 35.7163982,0.125 35.8118971,0.125 L41.1250804,0.125 C41.2205793,0.125 41.2943727,0.152083063 41.346463,0.20625 C41.3985533,0.260416938 41.4245981,0.333332875 41.4245981,0.425 L41.4245981,0.85 C41.4245981,1.00000075 41.3898717,1.16249913 41.320418,1.3375 L38.1038585,8.5625 C38.0604499,8.65416713 38.0127012,8.72916637 37.9606109,8.7875 C37.9085206,8.84583362 37.8347272,8.875 37.7392283,8.875 L37.0881029,8.875 Z M46.1778135,5.625 C46.0909964,5.625 46.0193733,5.60000025 45.9629421,5.55 C45.906511,5.49999975 45.8782958,5.43333375 45.8782958,5.35 L45.8782958,4.9 C45.8782958,4.81666625 45.906511,4.74791694 45.9629421,4.69375 C46.0193733,4.63958306 46.0909964,4.6125 46.1778135,4.6125 L53.7308682,4.6125 C53.8176853,4.6125 53.8893084,4.63958306 53.9457395,4.69375 C54.0021707,4.74791694 54.0303859,4.81666625 54.0303859,4.9 L54.0303859,5.35 C54.0303859,5.43333375 54.0021707,5.49999975 53.9457395,5.55 C53.8893084,5.60000025 53.8176853,5.625 53.7308682,5.625 L46.1778135,5.625 Z M61.622508,8.875 C61.5356909,8.875 61.4640678,8.84791694 61.4076367,8.79375 C61.3512055,8.73958306 61.3229904,8.67083375 61.3229904,8.5875 L61.3229904,5.625 L58.1845659,0.5375 C58.1585208,0.48749975 58.1454984,0.433333625 58.1454984,0.375 C58.1454984,0.308333 58.1715431,0.25000025 58.2236334,0.2 C58.2757237,0.14999975 58.3364948,0.125 58.4059486,0.125 L59.0310289,0.125 C59.1872998,0.125 59.3001604,0.195832625 59.3696141,0.3375 L61.9480707,4.425 L64.5135048,0.3375 C64.600322,0.195832625 64.7131826,0.125 64.85209,0.125 L65.4771704,0.125 C65.5466241,0.125 65.6095656,0.14999975 65.6659968,0.2 C65.7224279,0.25000025 65.7506431,0.308333 65.7506431,0.375 C65.7506431,0.416666875 65.7332799,0.470833 65.6985531,0.5375 L62.5601286,5.625 L62.5601286,8.5875 C62.5601286,8.67083375 62.5319135,8.73958306 62.4754823,8.79375 C62.4190512,8.84791694 62.3430873,8.875 62.2475884,8.875 L61.622508,8.875 Z M67.5737942,8.875 C67.4869771,8.875 67.4175244,8.84791694 67.3654341,8.79375 C67.3133438,8.73958306 67.287299,8.67083375 67.287299,8.5875 L67.287299,0.425 C67.287299,0.333332875 67.3133438,0.260416938 67.3654341,0.20625 C67.4175244,0.152083063 67.4869771,0.125 67.5737942,0.125 L72.926045,0.125 C73.0215439,0.125 73.0975078,0.152083063 73.1539389,0.20625 C73.2103701,0.260416938 73.2385852,0.333332875 73.2385852,0.425 L73.2385852,0.875 C73.2385852,0.95833375 73.2103701,1.02499975 73.1539389,1.075 C73.0975078,1.12500025 73.0215439,1.15 72.926045,1.15 L68.4853698,1.15 L68.4853698,3.9375 L72.6395498,3.9375 C72.7350487,3.9375 72.8110126,3.96458306 72.8674437,4.01875 C72.9238749,4.07291694 72.95209,4.14583288 72.95209,4.2375 L72.95209,4.6625 C72.95209,4.74583375 72.9238749,4.81458306 72.8674437,4.86875 C72.8110126,4.92291694 72.7350487,4.95 72.6395498,4.95 L68.4853698,4.95 L68.4853698,7.8375 L73.0302251,7.8375 C73.125724,7.8375 73.2016878,7.86458306 73.258119,7.91875 C73.3145501,7.97291694 73.3427653,8.04583288 73.3427653,8.1375 L73.3427653,8.5875 C73.3427653,8.67083375 73.3123797,8.73958306 73.2516077,8.79375 C73.1908357,8.84791694 73.1170422,8.875 73.0302251,8.875 L67.5737942,8.875 Z M74.540836,8.875 C74.4713823,8.875 74.4106112,8.85000025 74.3585209,8.8 C74.3064306,8.74999975 74.2803859,8.691667 74.2803859,8.625 L74.3064309,8.4875 L77.5360129,0.4 C77.6054666,0.21666575 77.7443719,0.125 77.9527331,0.125 L78.7861736,0.125 C78.9945348,0.125 79.1334402,0.21666575 79.2028939,0.4 L82.4324759,8.4875 L82.4585209,8.625 C82.4585209,8.691667 82.4303057,8.74999975 82.3738746,8.8 C82.3174434,8.85000025 82.254502,8.875 82.1850482,8.875 L81.5729904,8.875 C81.4861732,8.875 81.4145501,8.85208356 81.358119,8.80625 C81.3016878,8.76041644 81.2647911,8.71250025 81.2474277,8.6625 L80.5181672,6.8625 L76.207717,6.8625 L75.4914791,8.6625 C75.4220254,8.80416738 75.3135056,8.875 75.1659164,8.875 L74.540836,8.875 Z M76.5853698,5.825 L80.153537,5.825 L78.3694534,1.3375 L76.5853698,5.825 Z M84.1514469,8.875 C84.0646298,8.875 83.9951771,8.84791694 83.9430868,8.79375 C83.8909965,8.73958306 83.8649518,8.67083375 83.8649518,8.5875 L83.8649518,0.425 C83.8649518,0.333332875 83.8909965,0.260416938 83.9430868,0.20625 C83.9951771,0.152083063 84.0646298,0.125 84.1514469,0.125 L87.3289389,0.125 C88.3186545,0.125 89.0934859,0.347914438 89.6534566,0.79375 C90.2134272,1.23958556 90.4934084,1.88749575 90.4934084,2.7375 C90.4934084,3.3708365 90.3284582,3.89166463 89.9985531,4.3 C89.6686479,4.70833538 89.2085239,4.99166587 88.6181672,5.15 L90.6236334,8.4875 C90.6496786,8.53750025 90.662701,8.58333313 90.662701,8.625 C90.662701,8.691667 90.6366562,8.74999975 90.5845659,8.8 C90.5324756,8.85000025 90.4717045,8.875 90.4022508,8.875 L89.8292605,8.875 C89.6990347,8.875 89.5970261,8.84583362 89.5232315,8.7875 C89.4494369,8.72916637 89.3821546,8.64583388 89.3213826,8.5375 L87.407074,5.3375 L85.0890675,5.3375 L85.0890675,8.5875 C85.0890675,8.67083375 85.058682,8.73958306 84.99791,8.79375 C84.937138,8.84791694 84.8633445,8.875 84.7765273,8.875 L84.1514469,8.875 Z M87.2768489,4.3125 C88.5877879,4.3125 89.2432476,3.78333862 89.2432476,2.725 C89.2432476,1.66666138 88.5877879,1.1375 87.2768489,1.1375 L85.0890675,1.1375 L85.0890675,4.3125 L87.2768489,4.3125 Z M95.8717042,8.875 C95.784887,8.875 95.7154343,8.84791694 95.6633441,8.79375 C95.6112538,8.73958306 95.585209,8.67083375 95.585209,8.5875 L95.585209,0.425 C95.585209,0.333332875 95.6112538,0.260416938 95.6633441,0.20625 C95.7154343,0.152083063 95.784887,0.125 95.8717042,0.125 L99.4268489,0.125 C100.347111,0.125 101.041638,0.337497875 101.51045,0.7625 C101.979263,1.18750213 102.213666,1.74166325 102.213666,2.425 C102.213666,2.891669 102.100805,3.28124844 101.87508,3.59375 C101.649356,3.90625156 101.384567,4.13333263 101.080707,4.275 C101.454021,4.45000088 101.766558,4.7208315 102.018328,5.0875 C102.270098,5.4541685 102.395981,5.87499763 102.395981,6.35 C102.395981,6.816669 102.28529,7.24166475 102.063907,7.625 C101.842523,8.00833525 101.514793,8.31249888 101.080707,8.5375 C100.646622,8.76250113 100.130067,8.875 99.5310289,8.875 L95.8717042,8.875 Z M99.2315113,3.8375 C99.7958228,3.8375 100.225561,3.71458456 100.52074,3.46875 C100.815918,3.22291544 100.963505,2.87916888 100.963505,2.4375 C100.963505,2.0041645 100.818088,1.67500113 100.527251,1.45 C100.236413,1.22499888 99.8045045,1.1125 99.2315113,1.1125 L96.8093248,1.1125 L96.8093248,3.8375 L99.2315113,3.8375 Z M99.3617363,7.8875 C99.9173661,7.8875 100.353616,7.74375144 100.670498,7.45625 C100.987381,7.16874856 101.14582,6.80000225 101.14582,6.35 C101.14582,5.89166438 100.987381,5.52083475 100.670498,5.2375 C100.353616,4.95416525 99.9173661,4.8125 99.3617363,4.8125 L96.8093248,4.8125 L96.8093248,7.8875 L99.3617363,7.8875 Z M104.557717,8.875 C104.4709,8.875 104.401447,8.84791694 104.349357,8.79375 C104.297267,8.73958306 104.271222,8.67083375 104.271222,8.5875 L104.271222,0.425 C104.271222,0.333332875 104.297267,0.260416938 104.349357,0.20625 C104.401447,0.152083063 104.4709,0.125 104.557717,0.125 L109.909968,0.125 C110.005467,0.125 110.081431,0.152083063 110.137862,0.20625 C110.194293,0.260416938 110.222508,0.333332875 110.222508,0.425 L110.222508,0.875 C110.222508,0.95833375 110.194293,1.02499975 110.137862,1.075 C110.081431,1.12500025 110.005467,1.15 109.909968,1.15 L105.469293,1.15 L105.469293,3.9375 L109.623473,3.9375 C109.718972,3.9375 109.794935,3.96458306 109.851367,4.01875 C109.907798,4.07291694 109.936013,4.14583288 109.936013,4.2375 L109.936013,4.6625 C109.936013,4.74583375 109.907798,4.81458306 109.851367,4.86875 C109.794935,4.92291694 109.718972,4.95 109.623473,4.95 L105.469293,4.95 L105.469293,7.8375 L110.014148,7.8375 C110.109647,7.8375 110.185611,7.86458306 110.242042,7.91875 C110.298473,7.97291694 110.326688,8.04583288 110.326688,8.1375 L110.326688,8.5875 C110.326688,8.67083375 110.296303,8.73958306 110.235531,8.79375 C110.174759,8.84791694 110.100965,8.875 110.014148,8.875 L104.557717,8.875 Z M115.353376,9 C114.224753,9 113.347913,8.700003 112.72283,8.1 C112.097746,7.499997 111.763505,6.68750512 111.720096,5.6625 C111.711415,5.41249875 111.707074,5.020836 111.707074,4.4875 C111.707074,3.94583063 111.711415,3.55416787 111.720096,3.3125 C111.754823,2.29582825 112.086894,1.48958631 112.716318,0.89375 C113.345743,0.297913687 114.224753,0 115.353376,0 C116.117367,0 116.764145,0.133332 117.29373,0.4 C117.823315,0.666668 118.222667,0.985414812 118.491801,1.35625 C118.760934,1.72708519 118.90418,2.07083175 118.921543,2.3875 L118.921543,2.4125 C118.921543,2.479167 118.893328,2.53541644 118.836897,2.58125 C118.780466,2.62708356 118.717524,2.65 118.648071,2.65 L117.91881,2.65 C117.840675,2.65 117.782074,2.6333335 117.743006,2.6 C117.703939,2.5666665 117.667042,2.50416713 117.632315,2.4125 C117.493408,2.02083138 117.237301,1.691668 116.863987,1.425 C116.490673,1.158332 115.987141,1.025 115.353376,1.025 C114.624112,1.025 114.051127,1.21666475 113.634405,1.6 C113.217683,1.98333525 112.996302,2.574996 112.970257,3.375 C112.961576,3.61666788 112.957235,3.9874975 112.957235,4.4875 C112.957235,4.97916913 112.961576,5.34999875 112.970257,5.6 C112.996302,6.40833737 113.217683,7.00416475 113.634405,7.3875 C114.051127,7.77083525 114.624112,7.9625 115.353376,7.9625 C116.091322,7.9625 116.68167,7.76875194 117.124437,7.38125 C117.567205,6.99374806 117.788585,6.41250387 117.788585,5.6375 L117.788585,5.1 L115.796141,5.1 C115.709324,5.1 115.637701,5.07083363 115.58127,5.0125 C115.524839,4.95416638 115.496624,4.88333375 115.496624,4.8 L115.496624,4.425 C115.496624,4.34166625 115.524839,4.27083363 115.58127,4.2125 C115.637701,4.15416638 115.709324,4.125 115.796141,4.125 L118.713183,4.125 C118.808682,4.125 118.884646,4.15208306 118.941077,4.20625 C118.997508,4.26041694 119.025723,4.33333288 119.025723,4.425 L119.025723,5.6125 C119.025723,6.28750338 118.880307,6.88124744 118.589469,7.39375 C118.298632,7.90625256 117.875405,8.30208194 117.319775,8.58125 C116.764145,8.86041806 116.108685,9 115.353376,9 Z M121.18746,8.875 C121.100643,8.875 121.03119,8.84791694 120.9791,8.79375 C120.927009,8.73958306 120.900965,8.67083375 120.900965,8.5875 L120.900965,0.4125 C120.900965,0.32916625 120.927009,0.260416938 120.9791,0.20625 C121.03119,0.152083063 121.100643,0.125 121.18746,0.125 L121.838585,0.125 C121.934084,0.125 122.007878,0.14999975 122.059968,0.2 C122.112058,0.25000025 122.138103,0.320832875 122.138103,0.4125 L122.138103,8.5875 C122.138103,8.67083375 122.109888,8.73958306 122.053457,8.79375 C121.997025,8.84791694 121.925402,8.875 121.838585,8.875 L121.18746,8.875 Z M124.716559,8.875 C124.629742,8.875 124.56029,8.84791694 124.508199,8.79375 C124.456109,8.73958306 124.430064,8.67083375 124.430064,8.5875 L124.430064,0.425 C124.430064,0.333332875 124.456109,0.260416938 124.508199,0.20625 C124.56029,0.152083063 124.629742,0.125 124.716559,0.125 L125.28955,0.125 C125.376367,0.125 125.441479,0.1416665 125.484887,0.175 C125.528296,0.2083335 125.571704,0.24999975 125.615113,0.3 L129.977653,6.75 L129.977653,0.425 C129.977653,0.333332875 130.005868,0.260416938 130.062299,0.20625 C130.11873,0.152083063 130.190353,0.125 130.27717,0.125 L130.863183,0.125 C130.958682,0.125 131.034646,0.152083063 131.091077,0.20625 C131.147508,0.260416938 131.175723,0.333332875 131.175723,0.425 L131.175723,8.575 C131.175723,8.65833375 131.147508,8.72916637 131.091077,8.7875 C131.034646,8.84583362 130.963023,8.875 130.876206,8.875 L130.290193,8.875 C130.142604,8.875 130.038425,8.81666725 129.977653,8.7 L125.615113,2.3125 L125.615113,8.5875 C125.615113,8.67083375 125.586897,8.73958306 125.530466,8.79375 C125.474035,8.84791694 125.402412,8.875 125.315595,8.875 L124.716559,8.875 Z M133.741158,8.875 C133.65434,8.875 133.584888,8.84791694 133.532797,8.79375 C133.480707,8.73958306 133.454662,8.67083375 133.454662,8.5875 L133.454662,0.425 C133.454662,0.333332875 133.480707,0.260416938 133.532797,0.20625 C133.584888,0.152083063 133.65434,0.125 133.741158,0.125 L134.314148,0.125 C134.400965,0.125 134.466077,0.1416665 134.509486,0.175 C134.552894,0.2083335 134.596302,0.24999975 134.639711,0.3 L139.002251,6.75 L139.002251,0.425 C139.002251,0.333332875 139.030466,0.260416938 139.086897,0.20625 C139.143328,0.152083063 139.214951,0.125 139.301768,0.125 L139.887781,0.125 C139.98328,0.125 140.059244,0.152083063 140.115675,0.20625 C140.172106,0.260416938 140.200322,0.333332875 140.200322,0.425 L140.200322,8.575 C140.200322,8.65833375 140.172106,8.72916637 140.115675,8.7875 C140.059244,8.84583362 139.987621,8.875 139.900804,8.875 L139.314791,8.875 C139.167202,8.875 139.063023,8.81666725 139.002251,8.7 L134.639711,2.3125 L134.639711,8.5875 C134.639711,8.67083375 134.611495,8.73958306 134.555064,8.79375 C134.498633,8.84791694 134.42701,8.875 134.340193,8.875 L133.741158,8.875 Z M142.765756,8.875 C142.678938,8.875 142.609486,8.84791694 142.557395,8.79375 C142.505305,8.73958306 142.47926,8.67083375 142.47926,8.5875 L142.47926,0.4125 C142.47926,0.32916625 142.505305,0.260416938 142.557395,0.20625 C142.609486,0.152083063 142.678938,0.125 142.765756,0.125 L143.416881,0.125 C143.51238,0.125 143.586173,0.14999975 143.638264,0.2 C143.690354,0.25000025 143.716399,0.320832875 143.716399,0.4125 L143.716399,8.5875 C143.716399,8.67083375 143.688184,8.73958306 143.631752,8.79375 C143.575321,8.84791694 143.503698,8.875 143.416881,8.875 L142.765756,8.875 Z M146.294855,8.875 C146.208038,8.875 146.138585,8.84791694 146.086495,8.79375 C146.034405,8.73958306 146.00836,8.67083375 146.00836,8.5875 L146.00836,0.425 C146.00836,0.333332875 146.034405,0.260416938 146.086495,0.20625 C146.138585,0.152083063 146.208038,0.125 146.294855,0.125 L146.867846,0.125 C146.954663,0.125 147.019775,0.1416665 147.063183,0.175 C147.106592,0.2083335 147.15,0.24999975 147.193408,0.3 L151.555949,6.75 L151.555949,0.425 C151.555949,0.333332875 151.584164,0.260416938 151.640595,0.20625 C151.697026,0.152083063 151.768649,0.125 151.855466,0.125 L152.441479,0.125 C152.536978,0.125 152.612942,0.152083063 152.669373,0.20625 C152.725804,0.260416938 152.754019,0.333332875 152.754019,0.425 L152.754019,8.575 C152.754019,8.65833375 152.725804,8.72916637 152.669373,8.7875 C152.612942,8.84583362 152.541319,8.875 152.454502,8.875 L151.868489,8.875 C151.7209,8.875 151.616721,8.81666725 151.555949,8.7 L147.193408,2.3125 L147.193408,8.5875 C147.193408,8.67083375 147.165193,8.73958306 147.108762,8.79375 C147.052331,8.84791694 146.980708,8.875 146.893891,8.875 L146.294855,8.875 Z M158.327653,9 C157.19903,9 156.32219,8.700003 155.697106,8.1 C155.072023,7.499997 154.737782,6.68750512 154.694373,5.6625 C154.685691,5.41249875 154.68135,5.020836 154.68135,4.4875 C154.68135,3.94583063 154.685691,3.55416787 154.694373,3.3125 C154.7291,2.29582825 155.06117,1.48958631 155.690595,0.89375 C156.320019,0.297913687 157.19903,0 158.327653,0 C159.091644,0 159.738422,0.133332 160.268006,0.4 C160.797591,0.666668 161.196944,0.985414812 161.466077,1.35625 C161.73521,1.72708519 161.878457,2.07083175 161.89582,2.3875 L161.89582,2.4125 C161.89582,2.479167 161.867605,2.53541644 161.811174,2.58125 C161.754742,2.62708356 161.691801,2.65 161.622347,2.65 L160.893087,2.65 C160.814951,2.65 160.756351,2.6333335 160.717283,2.6 C160.678215,2.5666665 160.641319,2.50416713 160.606592,2.4125 C160.467684,2.02083138 160.211577,1.691668 159.838264,1.425 C159.46495,1.158332 158.961418,1.025 158.327653,1.025 C157.598389,1.025 157.025404,1.21666475 156.608682,1.6 C156.191959,1.98333525 155.970579,2.574996 155.944534,3.375 C155.935852,3.61666788 155.931511,3.9874975 155.931511,4.4875 C155.931511,4.97916913 155.935852,5.34999875 155.944534,5.6 C155.970579,6.40833737 156.191959,7.00416475 156.608682,7.3875 C157.025404,7.77083525 157.598389,7.9625 158.327653,7.9625 C159.065599,7.9625 159.655946,7.76875194 160.098714,7.38125 C160.541481,6.99374806 160.762862,6.41250387 160.762862,5.6375 L160.762862,5.1 L158.770418,5.1 C158.683601,5.1 158.611978,5.07083363 158.555547,5.0125 C158.499115,4.95416638 158.4709,4.88333375 158.4709,4.8 L158.4709,4.425 C158.4709,4.34166625 158.499115,4.27083363 158.555547,4.2125 C158.611978,4.15416638 158.683601,4.125 158.770418,4.125 L161.68746,4.125 C161.782959,4.125 161.858923,4.15208306 161.915354,4.20625 C161.971785,4.26041694 162,4.33333288 162,4.425 L162,5.6125 C162,6.28750338 161.854583,6.88124744 161.563746,7.39375 C161.272909,7.90625256 160.849681,8.30208194 160.294051,8.58125 C159.738422,8.86041806 159.082962,9 158.327653,9 Z" id="Sep-’17-—-Year-Begin-Copy-3" fill="#000000"></path>
                <path d="M1.2995283,78.875 C1.21270807,78.875 1.14108245,78.8479169 1.0846493,78.79375 C1.02821615,78.7395831 1,78.6708338 1,78.5875 L1,70.425 C1,70.3333329 1.02604568,70.2604169 1.07813782,70.20625 C1.13022996,70.1520831 1.20402605,70.125 1.2995283,70.125 L1.91160788,70.125 C2.06788429,70.125 2.17640795,70.1874994 2.23718212,70.3125 L5.01107465,75.425 L7.81101313,70.3125 C7.88046931,70.1874994 7.98465203,70.125 8.1235644,70.125 L8.73564397,70.125 C8.83114623,70.125 8.90494232,70.1520831 8.95703445,70.20625 C9.00912659,70.2604169 9.03517227,70.3333329 9.03517227,70.425 L9.03517227,78.5875 C9.03517227,78.6708338 9.00695612,78.7395831 8.95052297,78.79375 C8.89408982,78.8479169 8.8224642,78.875 8.73564397,78.875 L8.13658737,78.875 C8.04976713,78.875 7.98031199,78.8479169 7.92821985,78.79375 C7.87612771,78.7395831 7.85008203,78.6708338 7.85008203,78.5875 L7.85008203,72.375 L5.62315422,76.5125 C5.53633399,76.6875009 5.39742371,76.775 5.2064192,76.775 L4.81573011,76.775 C4.63340762,76.775 4.49449733,76.6875009 4.39899508,76.5125 L2.18509024,72.375 L2.18509024,78.5875 C2.18509024,78.6708338 2.15687409,78.7395831 2.10044094,78.79375 C2.04400778,78.8479169 1.97238217,78.875 1.88556194,78.875 L1.2995283,78.875 Z M10.7021124,78.875 C10.6326562,78.875 10.571883,78.8500003 10.5197908,78.8 C10.4676987,78.7499998 10.441653,78.691667 10.441653,78.625 L10.4676989,78.4875 L13.6973954,70.4 C13.7668516,70.2166658 13.9057619,70.125 14.1141304,70.125 L14.9476005,70.125 C15.155969,70.125 15.2948793,70.2166658 15.3643355,70.4 L18.594032,78.4875 L18.6200779,78.625 C18.6200779,78.691667 18.5918618,78.7499998 18.5354286,78.8 C18.4789955,78.8500003 18.4160518,78.875 18.3465956,78.875 L17.734516,78.875 C17.6476958,78.875 17.5760701,78.8520836 17.519637,78.80625 C17.4632038,78.7604164 17.4263058,78.7125003 17.4089418,78.6625 L16.6796555,76.8625 L12.3690525,76.8625 L11.6527892,78.6625 C11.583333,78.8041674 11.4748093,78.875 11.3272149,78.875 L10.7021124,78.875 Z M12.7467186,75.825 L16.3150123,75.825 L14.5308655,71.3375 L12.7467186,75.825 Z M20.313064,78.875 C20.2262438,78.875 20.1567886,78.8479169 20.1046965,78.79375 C20.0526043,78.7395831 20.0265587,78.6708338 20.0265587,78.5875 L20.0265587,70.425 C20.0265587,70.3333329 20.0526043,70.2604169 20.1046965,70.20625 C20.1567886,70.1520831 20.2262438,70.125 20.313064,70.125 L23.4906686,70.125 C24.4804192,70.125 25.2552782,70.3479144 25.8152687,70.79375 C26.3752592,71.2395856 26.6552502,71.8874958 26.6552502,72.7375 C26.6552502,73.3708365 26.4902942,73.8916646 26.1603774,74.3 C25.8304605,74.7083354 25.3703202,74.9916659 24.7799426,75.15 L26.7854799,78.4875 C26.811526,78.5375002 26.8245488,78.5833331 26.8245488,78.625 C26.8245488,78.691667 26.7985031,78.7499998 26.746411,78.8 C26.6943189,78.8500003 26.6335456,78.875 26.5640894,78.875 L25.9910788,78.875 C25.8608484,78.875 25.7588362,78.8458336 25.685039,78.7875 C25.6112418,78.7291664 25.5439571,78.6458339 25.4831829,78.5375 L23.5688064,75.3375 L21.2507178,75.3375 L21.2507178,78.5875 C21.2507178,78.6708338 21.2203312,78.7395831 21.159557,78.79375 C21.0987829,78.8479169 21.0249868,78.875 20.9381665,78.875 L20.313064,78.875 Z M23.4385767,74.3125 C24.7495622,74.3125 25.4050451,73.7833386 25.4050451,72.725 C25.4050451,71.6666614 24.7495622,71.1375 23.4385767,71.1375 L21.2507178,71.1375 L21.2507178,74.3125 L23.4385767,74.3125 Z M31.5518868,72.375 C31.4824306,72.375 31.4303392,72.3520836 31.3956112,72.30625 C31.3608831,72.2604164 31.3478602,72.1958337 31.3565422,72.1125 L31.6430476,70.3625 C31.6777757,70.1208321 31.7993222,70 32.0076907,70 L32.8411608,70 C32.9019349,70 32.9518558,70.0208331 32.9909249,70.0625 C33.029994,70.1041669 33.0495283,70.1541664 33.0495283,70.2125 C33.0495283,70.2958337 33.0365055,70.3624998 33.0104594,70.4125 L32.333265,72.1 C32.2898549,72.1916671 32.2421044,72.2604164 32.1900123,72.30625 C32.1379202,72.3520836 32.0597831,72.375 31.9555989,72.375 L31.5518868,72.375 Z M37.1517637,78.875 C37.0649435,78.875 36.9954884,78.8479169 36.9433962,78.79375 C36.8913041,78.7395831 36.8652584,78.6708338 36.8652584,78.5875 L36.8652584,71.5375 L34.6773995,73.15 C34.6166253,73.2000003 34.5515111,73.225 34.482055,73.225 C34.4039168,73.225 34.3301207,73.1833338 34.2606645,73.1 L33.9481132,72.7125 C33.9047031,72.6541664 33.8829984,72.5958336 33.8829984,72.5375 C33.8829984,72.4458329 33.9264078,72.3708336 34.0132281,72.3125 L36.8392125,70.2125 C36.9347147,70.1541664 37.0475793,70.125 37.1778097,70.125 L37.7898893,70.125 C37.8767095,70.125 37.9483351,70.1520831 38.0047683,70.20625 C38.0612014,70.2604169 38.0894176,70.3291663 38.0894176,70.4125 L38.0894176,78.5875 C38.0894176,78.6708338 38.0612014,78.7395831 38.0047683,78.79375 C37.9483351,78.8479169 37.8767095,78.875 37.7898893,78.875 L37.1517637,78.875 Z M43.2204676,79 C42.5606338,79 41.9724356,78.8937511 41.4558552,78.68125 C40.9392748,78.4687489 40.5377373,78.162502 40.2512305,77.7625 C39.9647238,77.362498 39.8214725,76.895836 39.8214725,76.3625 C39.8214725,75.8708309 39.9495304,75.4395852 40.2056501,75.06875 C40.4617698,74.6979148 40.8068751,74.412501 41.2409762,74.2125 C40.8936953,74.0208324 40.6245566,73.7687516 40.4335521,73.45625 C40.2425476,73.1437484 40.1470468,72.7750021 40.1470468,72.35 C40.1470468,71.6249964 40.4292083,71.0520854 40.9935398,70.63125 C41.5578713,70.2104146 42.3001731,70 43.2204676,70 C44.1407621,70 44.8808934,70.2083313 45.4408839,70.625 C46.0008744,71.0416688 46.2808655,71.616663 46.2808655,72.35 C46.2808655,72.7666688 46.1853646,73.1312484 45.9943601,73.44375 C45.8033556,73.7562516 45.5385579,74.012499 45.199959,74.2125 C45.6340601,74.412501 45.9791654,74.6979148 46.2352851,75.06875 C46.4914048,75.4395852 46.6194627,75.8749975 46.6194627,76.375 C46.6194627,76.908336 46.4762114,77.3729147 46.1897047,77.76875 C45.9031979,78.1645853 45.5016604,78.4687489 44.98508,78.68125 C44.4684996,78.8937511 43.8803014,79 43.2204676,79 Z M43.2204676,73.775 C43.750071,73.7583333 44.1971885,73.6250012 44.5618335,73.375 C44.9264784,73.1249987 45.1087982,72.7916688 45.1087982,72.375 C45.1087982,71.9499979 44.9286489,71.6104179 44.568345,71.35625 C44.208041,71.1020821 43.758753,70.975 43.2204676,70.975 C42.6735001,70.975 42.2220417,71.1020821 41.8660788,71.35625 C41.5101158,71.6104179 41.332137,71.9499979 41.332137,72.375 C41.332137,72.8000021 41.5101158,73.1395821 41.8660788,73.39375 C42.2220417,73.6479179 42.6735001,73.775 43.2204676,73.775 Z M43.2204676,78.025 C43.8368912,78.025 44.3512934,77.8750015 44.7636895,77.575 C45.1760856,77.2749985 45.3822806,76.8750025 45.3822806,76.375 C45.3822806,75.8749975 45.1760856,75.4750015 44.7636895,75.175 C44.3512934,74.8749985 43.8368912,74.725 43.2204676,74.725 C42.5953619,74.725 42.0766188,74.8749985 41.6642227,75.175 C41.2518266,75.4750015 41.0456317,75.8749975 41.0456317,76.375 C41.0456317,76.8750025 41.2518266,77.2749985 41.6642227,77.575 C42.0766188,77.8750015 42.5953619,78.025 43.2204676,78.025 Z M48.2994258,72.375 C48.2299696,72.375 48.1778782,72.3520836 48.1431501,72.30625 C48.108422,72.2604164 48.0953992,72.1958337 48.1040812,72.1125 L48.3905865,70.3625 C48.4253146,70.1208321 48.5468611,70 48.7552297,70 L49.5886998,70 C49.6494739,70 49.6993948,70.0208331 49.7384639,70.0625 C49.777533,70.1041669 49.7970673,70.1541664 49.7970673,70.2125 C49.7970673,70.2958337 49.7840444,70.3624998 49.7579984,70.4125 L49.0808039,72.1 C49.0373938,72.1916671 48.9896434,72.2604164 48.9375513,72.30625 C48.8854591,72.3520836 48.8073221,72.375 48.7031378,72.375 L48.2994258,72.375 Z M54.7067268,75.625 C54.6199066,75.625 54.548281,75.6000002 54.4918478,75.55 C54.4354147,75.4999997 54.4071985,75.4333338 54.4071985,75.35 L54.4071985,74.9 C54.4071985,74.8166662 54.4354147,74.7479169 54.4918478,74.69375 C54.548281,74.6395831 54.6199066,74.6125 54.7067268,74.6125 L62.2600492,74.6125 C62.3468695,74.6125 62.4184951,74.6395831 62.4749282,74.69375 C62.5313614,74.7479169 62.5595775,74.8166662 62.5595775,74.9 L62.5595775,75.35 C62.5595775,75.4333338 62.5313614,75.4999997 62.4749282,75.55 C62.4184951,75.6000002 62.3468695,75.625 62.2600492,75.625 L54.7067268,75.625 Z M70.1519688,78.875 C70.0651486,78.875 69.993523,78.8479169 69.9370898,78.79375 C69.8806567,78.7395831 69.8524405,78.6708338 69.8524405,78.5875 L69.8524405,75.625 L66.7139048,70.5375 C66.6878588,70.4874998 66.6748359,70.4333336 66.6748359,70.375 C66.6748359,70.308333 66.7008816,70.2500003 66.7529737,70.2 C66.8050659,70.1499998 66.8658391,70.125 66.9352953,70.125 L67.5603979,70.125 C67.7166743,70.125 67.8295389,70.1958326 67.8989951,70.3375 L70.4775431,74.425 L73.0430681,70.3375 C73.1298883,70.1958326 73.2427529,70.125 73.3816653,70.125 L74.0067678,70.125 C74.076224,70.125 74.1391678,70.1499998 74.1956009,70.2 C74.2520341,70.2500003 74.2802502,70.308333 74.2802502,70.375 C74.2802502,70.4166669 74.2628864,70.470833 74.2281583,70.5375 L71.0896226,75.625 L71.0896226,78.5875 C71.0896226,78.6708338 71.0614065,78.7395831 71.0049733,78.79375 C70.9485402,78.8479169 70.8725736,78.875 70.7770714,78.875 L70.1519688,78.875 Z M76.103466,78.875 C76.0166457,78.875 75.9471906,78.8479169 75.8950984,78.79375 C75.8430063,78.7395831 75.8169606,78.6708338 75.8169606,78.5875 L75.8169606,70.425 C75.8169606,70.3333329 75.8430063,70.2604169 75.8950984,70.20625 C75.9471906,70.1520831 76.0166457,70.125 76.103466,70.125 L81.4559065,70.125 C81.5514087,70.125 81.6273753,70.1520831 81.6838084,70.20625 C81.7402416,70.2604169 81.7684578,70.3333329 81.7684578,70.425 L81.7684578,70.875 C81.7684578,70.9583338 81.7402416,71.0249997 81.6838084,71.075 C81.6273753,71.1250002 81.5514087,71.15 81.4559065,71.15 L77.0150738,71.15 L77.0150738,73.9375 L81.1694011,73.9375 C81.2649034,73.9375 81.34087,73.9645831 81.3973031,74.01875 C81.4537363,74.0729169 81.4819524,74.1458329 81.4819524,74.2375 L81.4819524,74.6625 C81.4819524,74.7458338 81.4537363,74.8145831 81.3973031,74.86875 C81.34087,74.9229169 81.2649034,74.95 81.1694011,74.95 L77.0150738,74.95 L77.0150738,77.8375 L81.5600902,77.8375 C81.6555925,77.8375 81.7315591,77.8645831 81.7879922,77.91875 C81.8444254,77.9729169 81.8726415,78.0458329 81.8726415,78.1375 L81.8726415,78.5875 C81.8726415,78.6708338 81.8422549,78.7395831 81.7814807,78.79375 C81.7207066,78.8479169 81.6469105,78.875 81.5600902,78.875 L76.103466,78.875 Z M83.0707547,78.875 C83.0012985,78.875 82.9405253,78.8500003 82.8884331,78.8 C82.836341,78.7499998 82.8102953,78.691667 82.8102953,78.625 L82.8363413,78.4875 L86.0660377,70.4 C86.1354939,70.2166658 86.2744042,70.125 86.4827728,70.125 L87.3162428,70.125 C87.5246114,70.125 87.6635217,70.2166658 87.7329779,70.4 L90.9626743,78.4875 L90.9887203,78.625 C90.9887203,78.691667 90.9605041,78.7499998 90.904071,78.8 C90.8476378,78.8500003 90.7846941,78.875 90.7152379,78.875 L90.1031583,78.875 C90.0163381,78.875 89.9447125,78.8520836 89.8882793,78.80625 C89.8318462,78.7604164 89.7949481,78.7125003 89.7775841,78.6625 L89.0482978,76.8625 L84.7376948,76.8625 L84.0214315,78.6625 C83.9519753,78.8041674 83.8434517,78.875 83.6958573,78.875 L83.0707547,78.875 Z M85.115361,75.825 L88.6836546,75.825 L86.8995078,71.3375 L85.115361,75.825 Z M92.6817063,78.875 C92.5948861,78.875 92.5254309,78.8479169 92.4733388,78.79375 C92.4212467,78.7395831 92.395201,78.6708338 92.395201,78.5875 L92.395201,70.425 C92.395201,70.3333329 92.4212467,70.2604169 92.4733388,70.20625 C92.5254309,70.1520831 92.5948861,70.125 92.6817063,70.125 L95.8593109,70.125 C96.8490616,70.125 97.6239205,70.3479144 98.183911,70.79375 C98.7439015,71.2395856 99.0238925,71.8874958 99.0238925,72.7375 C99.0238925,73.3708365 98.8589366,73.8916646 98.5290197,74.3 C98.1991028,74.7083354 97.7389625,74.9916659 97.1485849,75.15 L99.1541222,78.4875 C99.1801683,78.5375002 99.1931911,78.5833331 99.1931911,78.625 C99.1931911,78.691667 99.1671455,78.7499998 99.1150533,78.8 C99.0629612,78.8500003 99.0021879,78.875 98.9327317,78.875 L98.3597211,78.875 C98.2294907,78.875 98.1274785,78.8458336 98.0536813,78.7875 C97.9798841,78.7291664 97.9125994,78.6458339 97.8518253,78.5375 L95.9374487,75.3375 L93.6193601,75.3375 L93.6193601,78.5875 C93.6193601,78.6708338 93.5889735,78.7395831 93.5281993,78.79375 C93.4674252,78.8479169 93.3936291,78.875 93.3068089,78.875 L92.6817063,78.875 Z M95.807219,74.3125 C97.1182045,74.3125 97.7736874,73.7833386 97.7736874,72.725 C97.7736874,71.6666614 97.1182045,71.1375 95.807219,71.1375 L93.6193601,71.1375 L93.6193601,74.3125 L95.807219,74.3125 Z M104.402379,78.875 C104.315559,78.875 104.246104,78.8479169 104.194011,78.79375 C104.141919,78.7395831 104.115874,78.6708338 104.115874,78.5875 L104.115874,70.425 C104.115874,70.3333329 104.141919,70.2604169 104.194011,70.20625 C104.246104,70.1520831 104.315559,70.125 104.402379,70.125 L109.75482,70.125 C109.850322,70.125 109.926288,70.1520831 109.982721,70.20625 C110.039155,70.2604169 110.067371,70.3333329 110.067371,70.425 L110.067371,70.875 C110.067371,70.9583338 110.039155,71.0249997 109.982721,71.075 C109.926288,71.1250002 109.850322,71.15 109.75482,71.15 L105.313987,71.15 L105.313987,73.9375 L109.468314,73.9375 C109.563816,73.9375 109.639783,73.9645831 109.696216,74.01875 C109.752649,74.0729169 109.780865,74.1458329 109.780865,74.2375 L109.780865,74.6625 C109.780865,74.7458338 109.752649,74.8145831 109.696216,74.86875 C109.639783,74.9229169 109.563816,74.95 109.468314,74.95 L105.313987,74.95 L105.313987,77.8375 L109.859003,77.8375 C109.954506,77.8375 110.030472,77.8645831 110.086905,77.91875 C110.143338,77.9729169 110.171555,78.0458329 110.171555,78.1375 L110.171555,78.5875 C110.171555,78.6708338 110.141168,78.7395831 110.080394,78.79375 C110.01962,78.8479169 109.945824,78.875 109.859003,78.875 L104.402379,78.875 Z M112.281276,78.875 C112.194455,78.875 112.125,78.8479169 112.072908,78.79375 C112.020816,78.7395831 111.99477,78.6708338 111.99477,78.5875 L111.99477,70.425 C111.99477,70.3333329 112.020816,70.2604169 112.072908,70.20625 C112.125,70.1520831 112.194455,70.125 112.281276,70.125 L112.854286,70.125 C112.941107,70.125 113.006221,70.1416665 113.049631,70.175 C113.093041,70.2083335 113.13645,70.2499998 113.179861,70.3 L117.542555,76.75 L117.542555,70.425 C117.542555,70.3333329 117.570772,70.2604169 117.627205,70.20625 C117.683638,70.1520831 117.755263,70.125 117.842084,70.125 L118.428117,70.125 C118.52362,70.125 118.599586,70.1520831 118.656019,70.20625 C118.712452,70.2604169 118.740669,70.3333329 118.740669,70.425 L118.740669,78.575 C118.740669,78.6583337 118.712452,78.7291664 118.656019,78.7875 C118.599586,78.8458336 118.527961,78.875 118.44114,78.875 L117.855107,78.875 C117.707512,78.875 117.60333,78.8166672 117.542555,78.7 L113.179861,72.3125 L113.179861,78.5875 C113.179861,78.6708338 113.151644,78.7395831 113.095211,78.79375 C113.038778,78.8479169 112.967152,78.875 112.880332,78.875 L112.281276,78.875 Z M121.306194,78.875 C121.219373,78.875 121.149918,78.8479169 121.097826,78.79375 C121.045734,78.7395831 121.019688,78.6708338 121.019688,78.5875 L121.019688,70.425 C121.019688,70.3333329 121.045734,70.2604169 121.097826,70.20625 C121.149918,70.1520831 121.219373,70.125 121.306194,70.125 L124.249385,70.125 C125.56037,70.125 126.506697,70.4062472 127.088392,70.96875 C127.670088,71.5312528 127.969613,72.379161 127.986977,73.5125 C127.995659,73.7541679 128,74.0791646 128,74.4875 C128,74.8958354 127.995659,75.2249988 127.986977,75.475 C127.969613,76.2666706 127.837214,76.9104142 127.589776,77.40625 C127.342339,77.9020858 126.953824,78.2708321 126.424221,78.5125 C125.894617,78.7541679 125.191384,78.875 124.3145,78.875 L121.306194,78.875 Z M124.249385,77.8375 C124.857126,77.8375 125.341142,77.7562508 125.701446,77.59375 C126.06175,77.4312492 126.322207,77.1770851 126.482824,76.83125 C126.643441,76.4854149 126.732431,76.0166696 126.749795,75.425 C126.767159,74.9249975 126.775841,74.6125006 126.775841,74.4875 C126.775841,74.354166 126.767159,74.0458358 126.749795,73.5625 C126.732431,72.7291625 126.526236,72.1187519 126.131204,71.73125 C125.736172,71.3437481 125.0872,71.15 124.18427,71.15 L122.243847,71.15 L122.243847,77.8375 L124.249385,77.8375 Z" id="MAR-’18’-—-Year-END-Copy-3" fill="#000000"></path>
                <g id="Group-8" transform="translate(0.000000, 88.000000)">
                    <polygon id="Fill-1" fill="#FFCA05" points="157 27 406 27 406 0 157 0"></polygon>
                    <polygon id="Fill-2" fill="#FFF100" points="406 27 480 27 480 0 406 0"></polygon>
                    <polygon id="Fill-3" fill="#F38486" points="0 27 157 27 157 0 0 0"></polygon>
                    <path d="M70.8503219,18 C70.264482,18 69.7575129,17.9048961 69.3293991,17.7146853 C68.9012854,17.5244746 68.5764496,17.2764584 68.354882,16.9706294 C68.1333143,16.6648003 68.0150215,16.3477872 68,16.0195804 C68,15.9524472 68.022532,15.8983685 68.0675966,15.8573427 C68.1126612,15.8163168 68.1689911,15.7958042 68.236588,15.7958042 L68.7435622,15.7958042 C68.8261807,15.7958042 68.8937766,15.8125872 68.9463519,15.8461538 C68.9989273,15.8797204 69.0402359,15.9449879 69.070279,16.041958 C69.1679189,16.4223795 69.3800949,16.6909083 69.7068133,16.8475524 C70.0335317,17.0041966 70.4184527,17.0825175 70.861588,17.0825175 C71.4023632,17.0825175 71.8323482,16.9538474 72.1515558,16.6965035 C72.4707634,16.4391596 72.6303648,16.0717973 72.6303648,15.5944056 C72.6303648,14.6843777 72.070821,14.2293706 70.9517167,14.2293706 L69.8927039,14.2293706 C69.8175962,14.2293706 69.7556333,14.2051284 69.7068133,14.1566434 C69.6579933,14.1081583 69.6335837,14.0466204 69.6335837,13.972028 L69.6335837,13.6811189 C69.6335837,13.5692302 69.6748923,13.4722615 69.7575107,13.3902098 L71.9543991,10.9734266 L68.6196352,10.9734266 C68.5445275,10.9734266 68.4825646,10.9510492 68.4337446,10.9062937 C68.3849246,10.8615382 68.360515,10.8018652 68.360515,10.7272727 L68.360515,10.3244755 C68.360515,10.2424238 68.3849246,10.1771564 68.4337446,10.1286713 C68.4825646,10.0801862 68.5445275,10.0559441 68.6196352,10.0559441 L73.0810086,10.0559441 C73.163627,10.0559441 73.2293452,10.0801862 73.2781652,10.1286713 C73.3269852,10.1771564 73.3513948,10.2424238 73.3513948,10.3244755 L73.3513948,10.6937063 C73.3513948,10.775758 73.3138416,10.861538 73.2387339,10.951049 L71.0418455,13.4013986 L71.222103,13.4013986 C71.9882013,13.4237763 72.5946866,13.6214434 73.0415773,13.9944056 C73.4884679,14.3673678 73.7119099,14.9118845 73.7119099,15.627972 C73.7119099,16.1202822 73.5898617,16.543588 73.3457618,16.8979021 C73.1016619,17.2522162 72.7618048,17.5244746 72.3261803,17.7146853 C71.8905558,17.9048961 71.3986079,18 70.8503219,18 Z M77.5874464,18 C77.0016065,18 76.4946373,17.9048961 76.0665236,17.7146853 C75.6384099,17.5244746 75.3135741,17.2764584 75.0920064,16.9706294 C74.8704388,16.6648003 74.752146,16.3477872 74.7371245,16.0195804 C74.7371245,15.9524472 74.7596564,15.8983685 74.804721,15.8573427 C74.8497856,15.8163168 74.9061155,15.7958042 74.9737124,15.7958042 L75.4806867,15.7958042 C75.5633051,15.7958042 75.630901,15.8125872 75.6834764,15.8461538 C75.7360518,15.8797204 75.7773604,15.9449879 75.8074034,16.041958 C75.9050434,16.4223795 76.1172194,16.6909083 76.4439378,16.8475524 C76.7706561,17.0041966 77.1555772,17.0825175 77.5987124,17.0825175 C78.1394877,17.0825175 78.5694727,16.9538474 78.8886803,16.6965035 C79.2078879,16.4391596 79.3674893,16.0717973 79.3674893,15.5944056 C79.3674893,14.6843777 78.8079455,14.2293706 77.6888412,14.2293706 L76.6298283,14.2293706 C76.5547207,14.2293706 76.4927578,14.2051284 76.4439378,14.1566434 C76.3951178,14.1081583 76.3707082,14.0466204 76.3707082,13.972028 L76.3707082,13.6811189 C76.3707082,13.5692302 76.4120168,13.4722615 76.4946352,13.3902098 L78.6915236,10.9734266 L75.3567597,10.9734266 C75.281652,10.9734266 75.2196891,10.9510492 75.1708691,10.9062937 C75.1220491,10.8615382 75.0976395,10.8018652 75.0976395,10.7272727 L75.0976395,10.3244755 C75.0976395,10.2424238 75.1220491,10.1771564 75.1708691,10.1286713 C75.2196891,10.0801862 75.281652,10.0559441 75.3567597,10.0559441 L79.818133,10.0559441 C79.9007515,10.0559441 79.9664697,10.0801862 80.0152897,10.1286713 C80.0641097,10.1771564 80.0885193,10.2424238 80.0885193,10.3244755 L80.0885193,10.6937063 C80.0885193,10.775758 80.050966,10.861538 79.9758584,10.951049 L77.77897,13.4013986 L77.9592275,13.4013986 C78.7253257,13.4237763 79.3318111,13.6214434 79.7787017,13.9944056 C80.2255924,14.3673678 80.4490343,14.9118845 80.4490343,15.627972 C80.4490343,16.1202822 80.3269862,16.543588 80.0828863,16.8979021 C79.8387863,17.2522162 79.4989292,17.5244746 79.0633047,17.7146853 C78.6276802,17.9048961 78.1357324,18 77.5874464,18 Z M83.1641631,13.9832168 C82.6759632,13.9832168 82.2910422,13.8545467 82.0093884,13.5972028 C81.7277346,13.3398589 81.5756439,12.9836853 81.5531116,12.5286713 C81.5456008,12.4018642 81.5418455,12.2377632 81.5418455,12.0363636 C81.5418455,11.8200455 81.5456008,11.6447559 81.5531116,11.5104895 C81.5756439,11.0480163 81.7221017,10.680654 81.9924893,10.4083916 C82.2628769,10.1361292 82.6534309,10 83.1641631,10 C83.6748953,10 84.067327,10.1361292 84.34147,10.4083916 C84.615613,10.680654 84.7639484,11.0480163 84.7864807,11.5104895 C84.8015022,11.7790223 84.8090129,11.9543119 84.8090129,12.0363636 C84.8090129,12.1109561 84.8015022,12.275057 84.7864807,12.5286713 C84.7639484,12.9836853 84.60998,13.3398589 84.3245708,13.5972028 C84.0391617,13.8545467 83.652363,13.9832168 83.1641631,13.9832168 Z M82.2178112,17.8881119 C82.1502143,17.8881119 82.0938843,17.8675993 82.0488197,17.8265734 C82.0037551,17.7855476 81.9812232,17.7314689 81.9812232,17.6643357 C81.9812232,17.6195802 81.9962445,17.578555 82.0262876,17.5412587 L87.5917382,10.2685315 C87.6518243,10.1864798 87.7062766,10.1305363 87.7550966,10.1006993 C87.8039166,10.0708623 87.8733901,10.0559441 87.9635193,10.0559441 L88.3240343,10.0559441 C88.3916312,10.0559441 88.4460835,10.0764567 88.4873927,10.1174825 C88.5287019,10.1585084 88.5493562,10.2125871 88.5493562,10.2797203 C88.5493562,10.3244757 88.5343349,10.365501 88.5042918,10.4027972 L82.9501073,17.6755245 C82.8900212,17.7501169 82.8355689,17.8041956 82.7867489,17.8377622 C82.7379289,17.8713288 82.6684554,17.8881119 82.5783262,17.8881119 L82.2178112,17.8881119 Z M83.1641631,13.3006993 C83.4345507,13.3006993 83.6335831,13.2223784 83.7612661,13.0657343 C83.8889491,12.9090901 83.9640557,12.7151527 83.986588,12.4839161 C84.0016095,12.2153833 84.0091202,12.0587415 84.0091202,12.013986 C84.0091202,11.9468528 84.0016095,11.7939406 83.986588,11.5552448 C83.9715664,11.3240082 83.8983376,11.1282059 83.7668991,10.9678322 C83.6354607,10.8074584 83.4345507,10.7272727 83.1641631,10.7272727 C82.8937755,10.7272727 82.6947431,10.8074584 82.5670601,10.9678322 C82.439377,11.1282059 82.3680258,11.3240082 82.3530043,11.5552448 C82.3454935,11.6745927 82.3417382,11.8275049 82.3417382,12.013986 C82.3417382,12.1930079 82.3454935,12.3496497 82.3530043,12.4839161 C82.3755366,12.7076934 82.4487655,12.8997661 82.5726931,13.0601399 C82.6966208,13.2205136 82.8937755,13.3006993 83.1641631,13.3006993 Z M87.3551502,17.9552448 C86.8669503,17.9552448 86.4820293,17.8172508 86.2003755,17.5412587 C85.9187218,17.2652667 85.766631,16.8997692 85.7440987,16.4447552 C85.7290772,16.2209779 85.7215665,16.0717952 85.7215665,15.9972028 C85.7215665,15.9226103 85.7290772,15.736132 85.7440987,15.4377622 C85.766631,14.9752891 85.9130888,14.6079268 86.1834764,14.3356643 C86.453864,14.0634019 86.844418,13.9272727 87.3551502,13.9272727 C87.8658824,13.9272727 88.2583141,14.0634019 88.5324571,14.3356643 C88.8066001,14.6079268 88.9549355,14.9752891 88.9774678,15.4377622 C88.9924893,15.706295 89,15.8778551 89,15.9524476 C89,16.02704 88.9924893,16.1911409 88.9774678,16.4447552 C88.9549355,16.8997692 88.8009671,17.2652667 88.5155579,17.5412587 C88.2301488,17.8172508 87.8433501,17.9552448 87.3551502,17.9552448 Z M87.3551502,17.227972 C87.6255378,17.227972 87.8245702,17.1496511 87.9522532,16.993007 C88.0799363,16.8363629 88.1550428,16.6424254 88.1775751,16.4111888 C88.1925966,16.142656 88.2001073,15.9822846 88.2001073,15.9300699 C88.2001073,15.870396 88.1925966,15.7212133 88.1775751,15.4825175 C88.1625536,15.2512809 88.0893247,15.0554787 87.9578863,14.8951049 C87.8264478,14.7347311 87.6255378,14.6545455 87.3551502,14.6545455 C87.0847626,14.6545455 86.8857303,14.7347311 86.7580472,14.8951049 C86.6303642,15.0554787 86.559013,15.2512809 86.5439914,15.4825175 C86.5364806,15.6018654 86.5327253,15.7510481 86.5327253,15.9300699 C86.5327253,16.116551 86.5364806,16.2769224 86.5439914,16.4111888 C86.559013,16.6349662 86.6303642,16.8270388 86.7580472,16.9874126 C86.8857303,17.1477863 87.0847626,17.227972 87.3551502,17.227972 Z" id="33%" fill="#010202"></path>
                    <path d="M273.661597,18 C273.118411,18 272.647657,17.9001397 272.249321,17.7004161 C271.850985,17.5006925 271.546805,17.2399461 271.336773,16.9181692 C271.126742,16.5963923 271.014485,16.2505798 271,15.8807212 L271,15.8585298 C271,15.7993525 271.021727,15.7512716 271.065182,15.7142857 C271.108637,15.6772999 271.159333,15.6588072 271.217273,15.6588072 L271.749593,15.6588072 C271.901685,15.6588072 271.999457,15.7401749 272.042911,15.9029126 C272.151549,16.3023598 272.352524,16.6000915 272.645845,16.7961165 C272.939165,16.9921415 273.277746,17.0901526 273.661597,17.0901526 C274.154085,17.0901526 274.563279,16.9366636 274.889191,16.629681 C275.215102,16.3226984 275.378055,15.8992168 275.378055,15.3592233 C275.378055,14.8636129 275.215102,14.4697194 274.889191,14.1775312 C274.563279,13.885343 274.154085,13.739251 273.661597,13.739251 C273.400868,13.739251 273.190839,13.7725378 273.031505,13.8391123 C272.87217,13.9056869 272.709217,14.0018487 272.54264,14.1276006 C272.448488,14.2015723 272.370632,14.2552009 272.309071,14.2884882 C272.24751,14.3217755 272.180518,14.3384189 272.108093,14.3384189 L271.586638,14.3384189 C271.521455,14.3384189 271.463516,14.3143784 271.412819,14.2662968 C271.362122,14.2182152 271.340395,14.160888 271.347637,14.0943135 L271.684411,10.3994452 C271.706138,10.214516 271.796668,10.1220527 271.956002,10.1220527 L275.714829,10.1220527 C275.794496,10.1220527 275.856056,10.1442439 275.899511,10.1886269 C275.942966,10.2330099 275.964693,10.2958849 275.964693,10.3772538 L275.964693,10.7877947 C275.964693,10.8617664 275.941155,10.9209429 275.894079,10.9653259 C275.847003,11.009709 275.787254,11.0319001 275.714829,11.0319001 L272.586095,11.0319001 L272.390549,13.2621359 C272.738188,13.0106321 273.20532,12.8848821 273.791961,12.8848821 C274.277207,12.8848821 274.718991,12.9828931 275.117328,13.1789182 C275.515664,13.3749432 275.832517,13.6615793 276.067898,14.038835 C276.303278,14.4160907 276.420967,14.8636128 276.420967,15.3814147 C276.420967,15.9288053 276.303278,16.4003679 276.067898,16.7961165 C275.832517,17.1918651 275.506611,17.491446 275.090168,17.6948682 C274.673726,17.8982904 274.19754,18 273.661597,18 Z M277.713743,17.889043 C277.641318,17.889043 277.581568,17.8650026 277.534492,17.8169209 C277.487416,17.7688393 277.463878,17.7078136 277.463878,17.6338419 L277.463878,17.3009709 C277.463878,17.130836 277.554408,16.9681006 277.73547,16.8127601 L280.103748,14.4049931 C280.639691,13.9389713 281.009052,13.5580227 281.211841,13.2621359 C281.414631,12.9662491 281.516024,12.6518741 281.516024,12.3190014 C281.516024,11.8825683 281.396525,11.5404543 281.157523,11.2926491 C280.918521,11.0448439 280.570888,10.9209431 280.114612,10.9209431 C279.680063,10.9209431 279.336051,11.0503917 279.082564,11.3092926 C278.829077,11.5681936 278.673366,11.9158554 278.615426,12.3522885 C278.600941,12.4336574 278.56473,12.4965324 278.50679,12.5409154 C278.44885,12.5852984 278.390911,12.6074896 278.332971,12.6074896 L277.811515,12.6074896 C277.746333,12.6074896 277.692015,12.5852984 277.648561,12.5409154 C277.605106,12.4965324 277.583379,12.444753 277.583379,12.3855756 C277.597864,11.9935255 277.701067,11.6144262 277.892993,11.2482663 C278.084919,10.8821064 278.369182,10.5825254 278.74579,10.3495146 C279.122399,10.1165037 279.578668,10 280.114612,10 C280.925769,10 281.535939,10.216364 281.945139,10.6490985 C282.354338,11.081833 282.558935,11.6310646 282.558935,12.29681 C282.558935,12.7628317 282.448489,13.1826149 282.227594,13.556172 C282.006698,13.9297291 281.660875,14.3236225 281.190114,14.7378641 L279.049973,16.9570042 L282.472026,16.9570042 C282.551693,16.9570042 282.613253,16.9791953 282.656708,17.0235784 C282.700163,17.0679614 282.72189,17.1308364 282.72189,17.2122053 L282.72189,17.6338419 C282.72189,17.7078136 282.698353,17.7688393 282.651276,17.8169209 C282.6042,17.8650026 282.544451,17.889043 282.472026,17.889043 L277.713743,17.889043 Z M285.372624,14.0166436 C284.901863,14.0166436 284.530691,13.8890443 284.259098,13.6338419 C283.987505,13.3786395 283.840847,13.0254299 283.81912,12.5742025 C283.811878,12.4484506 283.808256,12.2857153 283.808256,12.0859917 C283.808256,11.8714737 283.811878,11.6976428 283.81912,11.5644938 C283.840847,11.1058692 283.982074,10.741564 284.242803,10.4715673 C284.503532,10.2015705 284.880135,10.0665742 285.372624,10.0665742 C285.865112,10.0665742 286.243526,10.2015705 286.507876,10.4715673 C286.772227,10.741564 286.915263,11.1058692 286.936991,11.5644938 C286.951476,11.8307919 286.958718,12.0046228 286.958718,12.0859917 C286.958718,12.1599634 286.951476,12.3226987 286.936991,12.5742025 C286.915263,13.0254299 286.766795,13.3786395 286.491581,13.6338419 C286.216367,13.8890443 285.843385,14.0166436 285.372624,14.0166436 Z M284.460076,17.889043 C284.394894,17.889043 284.340576,17.8687011 284.297121,17.8280166 C284.253666,17.7873322 284.231939,17.7337035 284.231939,17.667129 C284.231939,17.622746 284.246424,17.5820621 284.275394,17.5450763 L289.642042,10.332871 C289.699982,10.2515021 289.752489,10.1960242 289.799565,10.1664355 C289.846642,10.1368468 289.913633,10.1220527 290.000543,10.1220527 L290.34818,10.1220527 C290.413363,10.1220527 290.46587,10.1423946 290.505703,10.1830791 C290.545537,10.2237635 290.565454,10.2773922 290.565454,10.3439667 C290.565454,10.3883497 290.550969,10.4290336 290.521999,10.4660194 L285.166214,17.6782247 C285.108274,17.7521964 285.055767,17.8058251 285.008691,17.8391123 C284.961615,17.8723996 284.894623,17.889043 284.807713,17.889043 L284.460076,17.889043 Z M285.372624,13.3398058 C285.633353,13.3398058 285.825276,13.2621367 285.948398,13.1067961 C286.07152,12.9514555 286.143943,12.759132 286.165671,12.5298197 C286.180156,12.2635216 286.187398,12.1081833 286.187398,12.0638003 C286.187398,11.9972257 286.180156,11.845586 286.165671,11.6088766 C286.151186,11.3795643 286.080573,11.1853915 285.953829,11.0263523 C285.827086,10.8673131 285.633353,10.7877947 285.372624,10.7877947 C285.111894,10.7877947 284.919972,10.8673131 284.79685,11.0263523 C284.673727,11.1853915 284.604925,11.3795643 284.59044,11.6088766 C284.583198,11.7272313 284.579576,11.878871 284.579576,12.0638003 C284.579576,12.2413324 284.583198,12.3966706 284.59044,12.5298197 C284.612167,12.7517348 284.68278,12.9422091 284.802281,13.1012483 C284.921782,13.2602874 285.111894,13.3398058 285.372624,13.3398058 Z M289.413905,17.9556172 C288.943144,17.9556172 288.571973,17.8187716 288.30038,17.5450763 C288.028787,17.271381 287.882129,16.908925 287.860402,16.4576976 C287.845917,16.2357825 287.838675,16.0878413 287.838675,16.0138696 C287.838675,15.9398979 287.845917,15.7549714 287.860402,15.4590846 C287.882129,15.00046 288.023356,14.6361548 288.284085,14.3661581 C288.544814,14.0961614 288.921417,13.961165 289.413905,13.961165 C289.906394,13.961165 290.284808,14.0961614 290.549158,14.3661581 C290.813508,14.6361548 290.956545,15.00046 290.978273,15.4590846 C290.992758,15.7253827 291,15.8955151 291,15.9694868 C291,16.0434585 290.992758,16.2061938 290.978273,16.4576976 C290.956545,16.908925 290.808077,17.271381 290.532863,17.5450763 C290.257648,17.8187716 289.884666,17.9556172 289.413905,17.9556172 Z M289.413905,17.2343967 C289.674635,17.2343967 289.866557,17.1567275 289.98968,17.001387 C290.112802,16.8460464 290.185225,16.6537228 290.206953,16.4244105 C290.221438,16.1581124 290.22868,15.9990756 290.22868,15.9472954 C290.22868,15.8881181 290.221438,15.7401769 290.206953,15.5034674 C290.192468,15.2741551 290.121855,15.0799823 289.995111,14.9209431 C289.868368,14.761904 289.674635,14.6823856 289.413905,14.6823856 C289.153176,14.6823856 288.961254,14.761904 288.838131,14.9209431 C288.715009,15.0799823 288.646207,15.2741551 288.631722,15.5034674 C288.624479,15.6218221 288.620858,15.7697633 288.620858,15.9472954 C288.620858,16.1322247 288.624479,16.2912615 288.631722,16.4244105 C288.646207,16.6463257 288.715009,16.8367999 288.838131,16.9958391 C288.961254,17.1548783 289.153176,17.2343967 289.413905,17.2343967 Z" id="52%" fill="#010202"></path>
                    <path d="M436.800352,17.8881119 C436.725973,17.8881119 436.666471,17.8638697 436.621844,17.8153846 C436.577216,17.7668995 436.554903,17.7053617 436.554903,17.6307692 L436.554903,11.3202797 L434.680564,12.7636364 C434.628498,12.8083918 434.572715,12.8307692 434.513212,12.8307692 C434.446271,12.8307692 434.38305,12.7934736 434.323547,12.7188811 L434.055784,12.372028 C434.018594,12.3198133 434,12.2675993 434,12.2153846 C434,12.1333329 434.037189,12.0662007 434.111568,12.013986 L436.53259,10.1342657 C436.614406,10.082051 436.711098,10.0559441 436.822666,10.0559441 L437.347035,10.0559441 C437.421414,10.0559441 437.482775,10.0801862 437.531122,10.1286713 C437.579468,10.1771564 437.603641,10.2386943 437.603641,10.3132867 L437.603641,17.6307692 C437.603641,17.7053617 437.579468,17.7668995 437.531122,17.8153846 C437.482775,17.8638697 437.421414,17.8881119 437.347035,17.8881119 L436.800352,17.8881119 Z M441.709336,18 C441.151495,18 440.668039,17.8993017 440.258955,17.6979021 C439.849871,17.4965025 439.537484,17.2335681 439.321785,16.9090909 C439.106086,16.5846138 438.990801,16.2358993 438.975925,15.8629371 L438.975925,15.8405594 C438.975925,15.7808855 438.998238,15.7324011 439.042866,15.6951049 C439.087493,15.6578087 439.139557,15.6391608 439.19906,15.6391608 L439.745743,15.6391608 C439.901939,15.6391608 440.002349,15.7212113 440.046976,15.8853147 C440.158544,16.2881139 440.364943,16.588344 440.666177,16.786014 C440.967412,16.983684 441.315128,17.0825175 441.709336,17.0825175 C442.215113,17.0825175 442.635348,16.9277405 442.970053,16.6181818 C443.304758,16.3086232 443.472108,15.8815878 443.472108,15.3370629 C443.472108,14.8372935 443.304758,14.4400947 442.970053,14.1454545 C442.635348,13.8508144 442.215113,13.7034965 441.709336,13.7034965 C441.441572,13.7034965 441.225877,13.7370626 441.062243,13.8041958 C440.898609,13.871329 440.731259,13.9682977 440.560188,14.0951049 C440.463495,14.1696973 440.383539,14.2237761 440.320317,14.2573427 C440.257095,14.2909093 440.188296,14.3076923 440.113917,14.3076923 L439.578391,14.3076923 C439.51145,14.3076923 439.451948,14.2834501 439.399883,14.234965 C439.347817,14.1864799 439.325504,14.1286717 439.332942,14.0615385 L439.678802,10.3356643 C439.701116,10.1491832 439.794088,10.0559441 439.957722,10.0559441 L443.817968,10.0559441 C443.899785,10.0559441 443.963006,10.0783215 444.007634,10.1230769 C444.052261,10.1678324 444.074574,10.231235 444.074574,10.3132867 L444.074574,10.7272727 C444.074574,10.8018652 444.050401,10.8615382 444.002055,10.9062937 C443.953709,10.9510492 443.892347,10.9734266 443.817968,10.9734266 L440.604815,10.9734266 L440.403993,13.2223776 C440.761012,12.9687633 441.240749,12.841958 441.843218,12.841958 C442.341557,12.841958 442.795261,12.9407916 443.204345,13.1384615 C443.613429,13.3361315 443.938832,13.6251729 444.180564,14.0055944 C444.422295,14.3860159 444.543159,14.8372934 444.543159,15.3594406 C444.543159,15.9114247 444.422295,16.3869444 444.180564,16.786014 C443.938832,17.1850836 443.604132,17.4871785 443.176453,17.6923077 C442.748775,17.8974369 442.25974,18 441.709336,18 Z M447.220787,13.9832168 C446.737324,13.9832168 446.356138,13.8545467 446.077217,13.5972028 C445.798296,13.3398589 445.647681,12.9836853 445.625367,12.5286713 C445.617929,12.4018642 445.61421,12.2377632 445.61421,12.0363636 C445.61421,11.8200455 445.617929,11.6447559 445.625367,11.5104895 C445.647681,11.0480163 445.792717,10.680654 446.060482,10.4083916 C446.328246,10.1361292 446.71501,10 447.220787,10 C447.726563,10 448.115188,10.1361292 448.386671,10.4083916 C448.658154,10.680654 448.80505,11.0480163 448.827363,11.5104895 C448.842239,11.7790223 448.849677,11.9543119 448.849677,12.0363636 C448.849677,12.1109561 448.842239,12.275057 448.827363,12.5286713 C448.80505,12.9836853 448.652575,13.3398589 448.369935,13.5972028 C448.087296,13.8545467 447.70425,13.9832168 447.220787,13.9832168 Z M446.283617,17.8881119 C446.216676,17.8881119 446.160893,17.8675993 446.116265,17.8265734 C446.071638,17.7855476 446.049325,17.7314689 446.049325,17.6643357 C446.049325,17.6195802 446.0642,17.578555 446.093952,17.5412587 L451.605402,10.2685315 C451.664905,10.1864798 451.718829,10.1305363 451.767176,10.1006993 C451.815522,10.0708623 451.884321,10.0559441 451.973576,10.0559441 L452.330593,10.0559441 C452.397534,10.0559441 452.451458,10.0764567 452.492366,10.1174825 C452.533275,10.1585084 452.553729,10.2125871 452.553729,10.2797203 C452.553729,10.3244757 452.538853,10.365501 452.509102,10.4027972 L447.008808,17.6755245 C446.949305,17.7501169 446.895381,17.8041956 446.847035,17.8377622 C446.798688,17.8713288 446.729889,17.8881119 446.640634,17.8881119 L446.283617,17.8881119 Z M447.220787,13.3006993 C447.488551,13.3006993 447.685652,13.2223784 447.812096,13.0657343 C447.93854,12.9090901 448.012918,12.7151527 448.035232,12.4839161 C448.050108,12.2153833 448.057546,12.0587415 448.057546,12.013986 C448.057546,11.9468528 448.050108,11.7939406 448.035232,11.5552448 C448.020356,11.3240082 447.947838,11.1282059 447.817675,10.9678322 C447.687512,10.8074584 447.488551,10.7272727 447.220787,10.7272727 C446.953023,10.7272727 446.755922,10.8074584 446.629477,10.9678322 C446.503033,11.1282059 446.432374,11.3240082 446.417499,11.5552448 C446.410061,11.6745927 446.406342,11.8275049 446.406342,12.013986 C446.406342,12.1930079 446.410061,12.3496497 446.417499,12.4839161 C446.439812,12.7076934 446.512331,12.8997661 446.635056,13.0601399 C446.757781,13.2205136 446.953023,13.3006993 447.220787,13.3006993 Z M451.37111,17.9552448 C450.887647,17.9552448 450.506461,17.8172508 450.22754,17.5412587 C449.948619,17.2652667 449.798004,16.8997692 449.77569,16.4447552 C449.760814,16.2209779 449.753376,16.0717952 449.753376,15.9972028 C449.753376,15.9226103 449.760814,15.736132 449.77569,15.4377622 C449.798004,14.9752891 449.94304,14.6079268 450.210804,14.3356643 C450.478569,14.0634019 450.865333,13.9272727 451.37111,13.9272727 C451.876886,13.9272727 452.26551,14.0634019 452.536994,14.3356643 C452.808477,14.6079268 452.955373,14.9752891 452.977686,15.4377622 C452.992562,15.706295 453,15.8778551 453,15.9524476 C453,16.02704 452.992562,16.1911409 452.977686,16.4447552 C452.955373,16.8997692 452.802898,17.2652667 452.520258,17.5412587 C452.237618,17.8172508 451.854573,17.9552448 451.37111,17.9552448 Z M451.37111,17.227972 C451.638874,17.227972 451.835975,17.1496511 451.962419,16.993007 C452.088863,16.8363629 452.163241,16.6424254 452.185555,16.4111888 C452.200431,16.142656 452.207868,15.9822846 452.207868,15.9300699 C452.207868,15.870396 452.200431,15.7212133 452.185555,15.4825175 C452.170679,15.2512809 452.098161,15.0554787 451.967998,14.8951049 C451.837835,14.7347311 451.638874,14.6545455 451.37111,14.6545455 C451.103346,14.6545455 450.906245,14.7347311 450.7798,14.8951049 C450.653356,15.0554787 450.582697,15.2512809 450.567821,15.4825175 C450.560384,15.6018654 450.556665,15.7510481 450.556665,15.9300699 C450.556665,16.116551 450.560384,16.2769224 450.567821,16.4111888 C450.582697,16.6349662 450.653356,16.8270388 450.7798,16.9874126 C450.906245,17.1477863 451.103346,17.227972 451.37111,17.227972 Z" id="15%" fill="#010202"></path>
                </g>
                <g id="Group-7" transform="translate(0.000000, 20.000000)">
                    <polygon id="Fill-4" fill="#FFF100" points="446 27 477 27 477 0 446 0"></polygon>
                    <polygon id="Fill-5" fill="#FFCA05" points="267 27 446 27 446 0 267 0"></polygon>
                    <polygon id="Fill-6" fill="#F38486" points="0 27 269 27 269 0 0 0"></polygon>
                    <path d="M112.634409,18 C112.096772,18 111.630826,17.8993017 111.236559,17.6979021 C110.842292,17.4965025 110.54122,17.2335681 110.333333,16.9090909 C110.125447,16.5846138 110.014337,16.2358993 110,15.8629371 L110,15.8405594 C110,15.7808855 110.021505,15.7324011 110.064516,15.6951049 C110.107527,15.6578087 110.157706,15.6391608 110.215054,15.6391608 L110.741935,15.6391608 C110.892474,15.6391608 110.989247,15.7212113 111.032258,15.8853147 C111.139785,16.2881139 111.338708,16.588344 111.629032,16.786014 C111.919356,16.983684 112.254478,17.0825175 112.634409,17.0825175 C113.121866,17.0825175 113.52688,16.9277405 113.849462,16.6181818 C114.172045,16.3086232 114.333333,15.8815878 114.333333,15.3370629 C114.333333,14.8372935 114.172045,14.4400947 113.849462,14.1454545 C113.52688,13.8508144 113.121866,13.7034965 112.634409,13.7034965 C112.376343,13.7034965 112.16846,13.7370626 112.010753,13.8041958 C111.853046,13.871329 111.691757,13.9682977 111.526882,14.0951049 C111.433691,14.1696973 111.356631,14.2237761 111.295699,14.2573427 C111.234767,14.2909093 111.168459,14.3076923 111.096774,14.3076923 L110.580645,14.3076923 C110.516129,14.3076923 110.458782,14.2834501 110.408602,14.234965 C110.358423,14.1864799 110.336918,14.1286717 110.344086,14.0615385 L110.677419,10.3356643 C110.698925,10.1491832 110.78853,10.0559441 110.946237,10.0559441 L114.666667,10.0559441 C114.74552,10.0559441 114.806451,10.0783215 114.849462,10.1230769 C114.892473,10.1678324 114.913978,10.231235 114.913978,10.3132867 L114.913978,10.7272727 C114.913978,10.8018652 114.890681,10.8615382 114.844086,10.9062937 C114.797491,10.9510492 114.738352,10.9734266 114.666667,10.9734266 L111.569892,10.9734266 L111.376344,13.2223776 C111.720432,12.9687633 112.182793,12.841958 112.763441,12.841958 C113.24373,12.841958 113.681002,12.9407916 114.075269,13.1384615 C114.469536,13.3361315 114.783153,13.6251729 115.016129,14.0055944 C115.249105,14.3860159 115.365591,14.8372934 115.365591,15.3594406 C115.365591,15.9114247 115.249105,16.3869444 115.016129,16.786014 C114.783153,17.1850836 114.460576,17.4871785 114.048387,17.6923077 C113.636199,17.8974369 113.164877,18 112.634409,18 Z M117.483871,17.8881119 C117.419355,17.8881119 117.367384,17.8638697 117.327957,17.8153846 C117.28853,17.7668995 117.268817,17.7090912 117.268817,17.641958 L117.290323,17.5412587 L119.978495,10.9958042 L116.430108,10.9958042 C116.358423,10.9958042 116.299283,10.971562 116.252688,10.9230769 C116.206093,10.8745918 116.182796,10.813054 116.182796,10.7384615 L116.182796,10.3244755 C116.182796,10.2424238 116.204301,10.1771564 116.247312,10.1286713 C116.290323,10.0801862 116.351254,10.0559441 116.430108,10.0559441 L120.817204,10.0559441 C120.896058,10.0559441 120.956989,10.0801862 121,10.1286713 C121.043011,10.1771564 121.064516,10.2424238 121.064516,10.3244755 L121.064516,10.7048951 C121.064516,10.8391615 121.035843,10.9846146 120.978495,11.1412587 L118.322581,17.6083916 C118.286738,17.6904433 118.247312,17.7575755 118.204301,17.8097902 C118.16129,17.8620049 118.100359,17.8881119 118.021505,17.8881119 L117.483871,17.8881119 Z M123.430108,13.9832168 C122.964155,13.9832168 122.596776,13.8545467 122.327957,13.5972028 C122.059138,13.3398589 121.913979,12.9836853 121.892473,12.5286713 C121.885305,12.4018642 121.88172,12.2377632 121.88172,12.0363636 C121.88172,11.8200455 121.885305,11.6447559 121.892473,11.5104895 C121.913979,11.0480163 122.053762,10.680654 122.311828,10.4083916 C122.569894,10.1361292 122.94265,10 123.430108,10 C123.917565,10 124.292113,10.1361292 124.553763,10.4083916 C124.815413,10.680654 124.956989,11.0480163 124.978495,11.5104895 C124.992832,11.7790223 125,11.9543119 125,12.0363636 C125,12.1109561 124.992832,12.275057 124.978495,12.5286713 C124.956989,12.9836853 124.810037,13.3398589 124.537634,13.5972028 C124.265232,13.8545467 123.89606,13.9832168 123.430108,13.9832168 Z M122.526882,17.8881119 C122.462365,17.8881119 122.408602,17.8675993 122.365591,17.8265734 C122.32258,17.7855476 122.301075,17.7314689 122.301075,17.6643357 C122.301075,17.6195802 122.315412,17.578555 122.344086,17.5412587 L127.655914,10.2685315 C127.713262,10.1864798 127.765233,10.1305363 127.811828,10.1006993 C127.858423,10.0708623 127.924731,10.0559441 128.010753,10.0559441 L128.354839,10.0559441 C128.419355,10.0559441 128.471326,10.0764567 128.510753,10.1174825 C128.550179,10.1585084 128.569892,10.2125871 128.569892,10.2797203 C128.569892,10.3244757 128.555556,10.365501 128.526882,10.4027972 L123.225806,17.6755245 C123.168458,17.7501169 123.116488,17.8041956 123.069892,17.8377622 C123.023297,17.8713288 122.95699,17.8881119 122.870968,17.8881119 L122.526882,17.8881119 Z M123.430108,13.3006993 C123.688173,13.3006993 123.878136,13.2223784 124,13.0657343 C124.121864,12.9090901 124.193548,12.7151527 124.215054,12.4839161 C124.229391,12.2153833 124.236559,12.0587415 124.236559,12.013986 C124.236559,11.9468528 124.229391,11.7939406 124.215054,11.5552448 C124.200717,11.3240082 124.130825,11.1282059 124.005376,10.9678322 C123.879928,10.8074584 123.688173,10.7272727 123.430108,10.7272727 C123.172042,10.7272727 122.982079,10.8074584 122.860215,10.9678322 C122.738351,11.1282059 122.670251,11.3240082 122.655914,11.5552448 C122.648745,11.6745927 122.645161,11.8275049 122.645161,12.013986 C122.645161,12.1930079 122.648745,12.3496497 122.655914,12.4839161 C122.677419,12.7076934 122.747311,12.8997661 122.865591,13.0601399 C122.983872,13.2205136 123.172042,13.3006993 123.430108,13.3006993 Z M127.430108,17.9552448 C126.964155,17.9552448 126.596776,17.8172508 126.327957,17.5412587 C126.059138,17.2652667 125.913979,16.8997692 125.892473,16.4447552 C125.878136,16.2209779 125.870968,16.0717952 125.870968,15.9972028 C125.870968,15.9226103 125.878136,15.736132 125.892473,15.4377622 C125.913979,14.9752891 126.053762,14.6079268 126.311828,14.3356643 C126.569894,14.0634019 126.94265,13.9272727 127.430108,13.9272727 C127.917565,13.9272727 128.292113,14.0634019 128.553763,14.3356643 C128.815413,14.6079268 128.956989,14.9752891 128.978495,15.4377622 C128.992832,15.706295 129,15.8778551 129,15.9524476 C129,16.02704 128.992832,16.1911409 128.978495,16.4447552 C128.956989,16.8997692 128.810037,17.2652667 128.537634,17.5412587 C128.265232,17.8172508 127.89606,17.9552448 127.430108,17.9552448 Z M127.430108,17.227972 C127.688173,17.227972 127.878136,17.1496511 128,16.993007 C128.121864,16.8363629 128.193548,16.6424254 128.215054,16.4111888 C128.229391,16.142656 128.236559,15.9822846 128.236559,15.9300699 C128.236559,15.870396 128.229391,15.7212133 128.215054,15.4825175 C128.200717,15.2512809 128.130825,15.0554787 128.005376,14.8951049 C127.879928,14.7347311 127.688173,14.6545455 127.430108,14.6545455 C127.172042,14.6545455 126.982079,14.7347311 126.860215,14.8951049 C126.738351,15.0554787 126.670251,15.2512809 126.655914,15.4825175 C126.648745,15.6018654 126.645161,15.7510481 126.645161,15.9300699 C126.645161,16.116551 126.648745,16.2769224 126.655914,16.4111888 C126.670251,16.6349662 126.738351,16.8270388 126.860215,16.9874126 C126.982079,17.1477863 127.172042,17.227972 127.430108,17.227972 Z" id="57%" fill="#010202"></path>
                    <path d="M348.847267,18 C348.262055,18 347.755629,17.9048961 347.327974,17.7146853 C346.900319,17.5244746 346.575832,17.2764584 346.354502,16.9706294 C346.133171,16.6648003 346.015005,16.3477872 346,16.0195804 C346,15.9524472 346.022508,15.8983685 346.067524,15.8573427 C346.11254,15.8163168 346.16881,15.7958042 346.236334,15.7958042 L346.742765,15.7958042 C346.825295,15.7958042 346.892819,15.8125872 346.945338,15.8461538 C346.997857,15.8797204 347.039121,15.9449879 347.069132,16.041958 C347.166667,16.4223795 347.378616,16.6909083 347.704984,16.8475524 C348.031352,17.0041966 348.415861,17.0825175 348.858521,17.0825175 C349.398717,17.0825175 349.828241,16.9538474 350.147106,16.6965035 C350.465972,16.4391596 350.625402,16.0717973 350.625402,15.5944056 C350.625402,14.6843777 350.066458,14.2293706 348.948553,14.2293706 L347.890675,14.2293706 C347.815648,14.2293706 347.753752,14.2051284 347.704984,14.1566434 C347.656216,14.1081583 347.631833,14.0466204 347.631833,13.972028 L347.631833,13.6811189 C347.631833,13.5692302 347.673097,13.4722615 347.755627,13.3902098 L349.950161,10.9734266 L346.618971,10.9734266 C346.543944,10.9734266 346.482047,10.9510492 346.43328,10.9062937 C346.384512,10.8615382 346.360129,10.8018652 346.360129,10.7272727 L346.360129,10.3244755 C346.360129,10.2424238 346.384512,10.1771564 346.43328,10.1286713 C346.482047,10.0801862 346.543944,10.0559441 346.618971,10.0559441 L351.075563,10.0559441 C351.158093,10.0559441 351.22374,10.0801862 351.272508,10.1286713 C351.321276,10.1771564 351.345659,10.2424238 351.345659,10.3244755 L351.345659,10.6937063 C351.345659,10.775758 351.308146,10.861538 351.233119,10.951049 L349.038585,13.4013986 L349.21865,13.4013986 C349.983927,13.4237763 350.589762,13.6214434 351.036174,13.9944056 C351.482585,14.3673678 351.705788,14.9118845 351.705788,15.627972 C351.705788,16.1202822 351.58387,16.543588 351.340032,16.8979021 C351.096194,17.2522162 350.756701,17.5244746 350.321543,17.7146853 C349.886386,17.9048961 349.394965,18 348.847267,18 Z M355.700965,18 C355.100747,18 354.581192,17.8787891 354.142283,17.6363636 C353.703374,17.3939382 353.369508,17.0676011 353.140675,16.6573427 C352.911842,16.2470842 352.797428,15.7995362 352.797428,15.3146853 C352.797428,14.6731903 353.056268,13.98695 353.573955,13.2559441 L355.723473,10.2797203 C355.730975,10.272261 355.751608,10.2461541 355.78537,10.2013986 C355.819132,10.1566431 355.862272,10.1212123 355.914791,10.0951049 C355.96731,10.0689975 356.027331,10.0559441 356.094855,10.0559441 L356.646302,10.0559441 C356.713827,10.0559441 356.768221,10.0801862 356.809486,10.1286713 C356.85075,10.1771564 356.871383,10.2349647 356.871383,10.3020979 C356.871383,10.3393941 356.852626,10.3878785 356.815113,10.4475524 L355.172026,12.7300699 C355.367096,12.6853145 355.584672,12.6629371 355.824759,12.6629371 C356.372457,12.6629371 356.8545,12.784148 357.2709,13.0265734 C357.687301,13.2689989 358.009913,13.5897416 358.238746,13.9888112 C358.467579,14.3878808 358.581994,14.8261048 358.581994,15.3034965 C358.581994,15.7808882 358.467579,16.2265714 358.238746,16.6405594 C358.009913,17.0545475 357.677923,17.3846142 357.242765,17.6307692 C356.807608,17.8769243 356.293679,18 355.700965,18 Z M355.689711,17.0713287 C356.01983,17.0713287 356.323686,17.0041965 356.601286,16.8699301 C356.878887,16.7356637 357.100214,16.5361319 357.265273,16.2713287 C357.430333,16.0065255 357.512862,15.6876476 357.512862,15.3146853 C357.512862,14.9491823 357.428457,14.634034 357.259646,14.3692308 C357.090835,14.1044276 356.867633,13.903031 356.590032,13.765035 C356.312432,13.6270389 356.012327,13.558042 355.689711,13.558042 C355.367094,13.558042 355.06699,13.6270389 354.789389,13.765035 C354.511789,13.903031 354.290462,14.1044276 354.125402,14.3692308 C353.960342,14.634034 353.877814,14.9491823 353.877814,15.3146853 C353.877814,15.6876476 353.960342,16.0065255 354.125402,16.2713287 C354.290462,16.5361319 354.511789,16.7356637 354.789389,16.8699301 C355.06699,17.0041965 355.367094,17.0713287 355.689711,17.0713287 Z M361.170418,13.9832168 C360.682741,13.9832168 360.298233,13.8545467 360.016881,13.5972028 C359.735529,13.3398589 359.583601,12.9836853 359.561093,12.5286713 C359.553591,12.4018642 359.549839,12.2377632 359.549839,12.0363636 C359.549839,11.8200455 359.553591,11.6447559 359.561093,11.5104895 C359.583601,11.0480163 359.729902,10.680654 360,10.4083916 C360.270098,10.1361292 360.660233,10 361.170418,10 C361.680603,10 362.072614,10.1361292 362.346463,10.4083916 C362.620312,10.680654 362.768489,11.0480163 362.790997,11.5104895 C362.806002,11.7790223 362.813505,11.9543119 362.813505,12.0363636 C362.813505,12.1109561 362.806002,12.275057 362.790997,12.5286713 C362.768489,12.9836853 362.614685,13.3398589 362.329582,13.5972028 C362.044479,13.8545467 361.658095,13.9832168 361.170418,13.9832168 Z M360.22508,17.8881119 C360.157556,17.8881119 360.101286,17.8675993 360.05627,17.8265734 C360.011254,17.7855476 359.988746,17.7314689 359.988746,17.6643357 C359.988746,17.6195802 360.003751,17.578555 360.033762,17.5412587 L365.593248,10.2685315 C365.653269,10.1864798 365.707663,10.1305363 365.756431,10.1006993 C365.805199,10.0708623 365.874598,10.0559441 365.96463,10.0559441 L366.324759,10.0559441 C366.392283,10.0559441 366.446677,10.0764567 366.487942,10.1174825 C366.529207,10.1585084 366.549839,10.2125871 366.549839,10.2797203 C366.549839,10.3244757 366.534834,10.365501 366.504823,10.4027972 L360.956592,17.6755245 C360.89657,17.7501169 360.842176,17.8041956 360.793408,17.8377622 C360.744641,17.8713288 360.675242,17.8881119 360.585209,17.8881119 L360.22508,17.8881119 Z M361.170418,13.3006993 C361.440516,13.3006993 361.639335,13.2223784 361.766881,13.0657343 C361.894427,12.9090901 361.969453,12.7151527 361.991961,12.4839161 C362.006967,12.2153833 362.014469,12.0587415 362.014469,12.013986 C362.014469,11.9468528 362.006967,11.7939406 361.991961,11.5552448 C361.976956,11.3240082 361.903806,11.1282059 361.772508,10.9678322 C361.64121,10.8074584 361.440516,10.7272727 361.170418,10.7272727 C360.90032,10.7272727 360.701501,10.8074584 360.573955,10.9678322 C360.446409,11.1282059 360.375134,11.3240082 360.360129,11.5552448 C360.352626,11.6745927 360.348875,11.8275049 360.348875,12.013986 C360.348875,12.1930079 360.352626,12.3496497 360.360129,12.4839161 C360.382637,12.7076934 360.455787,12.8997661 360.579582,13.0601399 C360.703377,13.2205136 360.90032,13.3006993 361.170418,13.3006993 Z M365.356913,17.9552448 C364.869237,17.9552448 364.484728,17.8172508 364.203376,17.5412587 C363.922024,17.2652667 363.770097,16.8997692 363.747588,16.4447552 C363.732583,16.2209779 363.72508,16.0717952 363.72508,15.9972028 C363.72508,15.9226103 363.732583,15.736132 363.747588,15.4377622 C363.770097,14.9752891 363.916397,14.6079268 364.186495,14.3356643 C364.456593,14.0634019 364.846728,13.9272727 365.356913,13.9272727 C365.867098,13.9272727 366.259109,14.0634019 366.532958,14.3356643 C366.806807,14.6079268 366.954984,14.9752891 366.977492,15.4377622 C366.992497,15.706295 367,15.8778551 367,15.9524476 C367,16.02704 366.992497,16.1911409 366.977492,16.4447552 C366.954984,16.8997692 366.80118,17.2652667 366.516077,17.5412587 C366.230974,17.8172508 365.84459,17.9552448 365.356913,17.9552448 Z M365.356913,17.227972 C365.627011,17.227972 365.82583,17.1496511 365.953376,16.993007 C366.080922,16.8363629 366.155948,16.6424254 366.178457,16.4111888 C366.193462,16.142656 366.200965,15.9822846 366.200965,15.9300699 C366.200965,15.870396 366.193462,15.7212133 366.178457,15.4825175 C366.163451,15.2512809 366.090301,15.0554787 365.959003,14.8951049 C365.827706,14.7347311 365.627011,14.6545455 365.356913,14.6545455 C365.086815,14.6545455 364.887996,14.7347311 364.76045,14.8951049 C364.632904,15.0554787 364.561629,15.2512809 364.546624,15.4825175 C364.539121,15.6018654 364.53537,15.7510481 364.53537,15.9300699 C364.53537,16.116551 364.539121,16.2769224 364.546624,16.4111888 C364.561629,16.6349662 364.632904,16.8270388 364.76045,16.9874126 C364.887996,17.1477863 365.086815,17.227972 365.356913,17.227972 Z" id="36%" fill="#010202"></path>
                    <path d="M456.319631,17.9324895 C456.254194,17.9324895 456.201482,17.9081109 456.161493,17.859353 C456.121504,17.8105952 456.10151,17.7524617 456.10151,17.6849508 L456.123322,17.583685 L458.849832,11.0014065 L455.250839,11.0014065 C455.178132,11.0014065 455.118149,10.9770279 455.070889,10.92827 C455.02363,10.8795122 455,10.8176281 455,10.742616 L455,10.326301 C455,10.2437877 455.021812,10.1781531 455.065436,10.1293952 C455.109061,10.0806374 455.170861,10.0562588 455.250839,10.0562588 L459.700503,10.0562588 C459.780481,10.0562588 459.842282,10.0806374 459.885906,10.1293952 C459.92953,10.1781531 459.951342,10.2437877 459.951342,10.326301 L459.951342,10.7088608 C459.951342,10.8438825 459.92226,10.9901539 459.864094,11.1476793 L457.170302,17.6511955 C457.133948,17.7337088 457.09396,17.8012187 457.050336,17.8537271 C457.006711,17.9062356 456.944911,17.9324895 456.864933,17.9324895 L456.319631,17.9324895 Z M462.350671,14.0056259 C461.878074,14.0056259 461.505454,13.876232 461.232802,13.6174402 C460.96015,13.3586485 460.81292,13.0004711 460.791107,12.5428973 C460.783837,12.4153768 460.780201,12.2503526 460.780201,12.04782 C460.780201,11.8302849 460.783837,11.6540091 460.791107,11.5189873 C460.81292,11.0539123 460.954697,10.6844833 461.216443,10.4106892 C461.478189,10.136895 461.856262,10 462.350671,10 C462.845081,10 463.224971,10.136895 463.490352,10.4106892 C463.755734,10.6844833 463.899329,11.0539123 463.921141,11.5189873 C463.935682,11.7890309 463.942953,11.9653067 463.942953,12.04782 C463.942953,12.1228321 463.935682,12.2878562 463.921141,12.5428973 C463.899329,13.0004711 463.750281,13.3586485 463.473993,13.6174402 C463.197706,13.876232 462.823269,14.0056259 462.350671,14.0056259 Z M461.434564,17.9324895 C461.369127,17.9324895 461.314598,17.9118614 461.270973,17.8706048 C461.227349,17.8293481 461.205537,17.7749652 461.205537,17.7074543 C461.205537,17.662447 461.220078,17.621191 461.249161,17.583685 L466.636745,10.2700422 C466.694911,10.1875289 466.747623,10.1312707 466.794883,10.1012658 C466.842142,10.071261 466.909396,10.0562588 466.996644,10.0562588 L467.345638,10.0562588 C467.411074,10.0562588 467.463786,10.0768868 467.503775,10.1181435 C467.543764,10.1594001 467.563758,10.2137831 467.563758,10.281294 C467.563758,10.3263012 467.549217,10.3675572 467.520134,10.4050633 L462.143456,17.718706 C462.085291,17.7937181 462.032579,17.8481011 461.985319,17.8818565 C461.938059,17.915612 461.870806,17.9324895 461.783557,17.9324895 L461.434564,17.9324895 Z M462.350671,13.3192686 C462.612417,13.3192686 462.805089,13.2405071 462.928691,13.0829817 C463.052294,12.9254563 463.125,12.7304278 463.146812,12.4978903 C463.161354,12.2278468 463.168624,12.0703237 463.168624,12.0253165 C463.168624,11.9578056 463.161354,11.8040331 463.146812,11.5639944 C463.132271,11.3314569 463.061382,11.1345531 462.934144,10.9732771 C462.806907,10.8120011 462.612417,10.7313643 462.350671,10.7313643 C462.088925,10.7313643 461.896253,10.8120011 461.772651,10.9732771 C461.649049,11.1345531 461.579978,11.3314569 461.565436,11.5639944 C461.558166,11.6840137 461.55453,11.8377862 461.55453,12.0253165 C461.55453,12.2053455 461.558166,12.3628685 461.565436,12.4978903 C461.587248,12.7229266 461.658137,12.9160798 461.778104,13.0773558 C461.898071,13.2386318 462.088925,13.3192686 462.350671,13.3192686 Z M466.407718,18 C465.935121,18 465.562501,17.8612297 465.289849,17.583685 C465.017197,17.3061402 464.869967,16.9385864 464.848154,16.4810127 C464.833613,16.2559764 464.826342,16.1059544 464.826342,16.0309423 C464.826342,15.9559302 464.833613,15.7684028 464.848154,15.4683544 C464.869967,15.0032794 465.011744,14.6338504 465.27349,14.3600563 C465.535236,14.0862621 465.913308,13.9493671 466.407718,13.9493671 C466.902128,13.9493671 467.282018,14.0862621 467.547399,14.3600563 C467.812781,14.6338504 467.956376,15.0032794 467.978188,15.4683544 C467.992729,15.738398 468,15.9109232 468,15.9859353 C468,16.0609474 467.992729,16.2259715 467.978188,16.4810127 C467.956376,16.9385864 467.807328,17.3061402 467.53104,17.583685 C467.254753,17.8612297 466.880316,18 466.407718,18 Z M466.407718,17.2686357 C466.669464,17.2686357 466.862136,17.1898742 466.985738,17.0323488 C467.109341,16.8748234 467.182047,16.6797949 467.203859,16.4472574 C467.218401,16.1772138 467.225671,16.0159403 467.225671,15.9634318 C467.225671,15.9034221 467.218401,15.7534002 467.203859,15.5133615 C467.189318,15.280824 467.118429,15.0839202 466.991191,14.9226442 C466.863954,14.7613682 466.669464,14.6807314 466.407718,14.6807314 C466.145972,14.6807314 465.9533,14.7613682 465.829698,14.9226442 C465.706096,15.0839202 465.637025,15.280824 465.622483,15.5133615 C465.615212,15.6333808 465.611577,15.7834028 465.611577,15.9634318 C465.611577,16.150962 465.615212,16.3122356 465.622483,16.4472574 C465.637025,16.6722937 465.706096,16.8654469 465.829698,17.0267229 C465.9533,17.1879989 466.145972,17.2686357 466.407718,17.2686357 Z" id="7%" fill="#010202"></path>
                </g>
            </g>
        </g>
    </g>
</svg>