<?xml version="1.0" encoding="UTF-8"?>
<svg width="495px" height="115px" viewBox="0 0 495 115" version="1.1" xmlns="http://www.w3.org/2000/svg" xmlns:xlink="http://www.w3.org/1999/xlink">
    <!-- Generator: Sketch 52.2 (67145) - http://www.bohemiancoding.com/sketch -->
    <title>Parents as Partners</title>
    <desc>Created with Sketch.</desc>
    <g id="Page-1" stroke="none" stroke-width="1" fill="none" fill-rule="evenodd">
        <g id="Graphs" transform="translate(-681.000000, -109.000000)">
            <g id="Parents-as-Partners" transform="translate(681.000000, 109.000000)">
                <path d="M3.49003215,9 C2.77813149,9 2.15956854,8.89166775 1.63432476,8.675 C1.10908098,8.45833225 0.709728055,8.17291844 0.436254019,7.81875 C0.162779983,7.46458156 0.0173634309,7.08333537 0,6.675 C0,6.608333 0.0260447556,6.55000025 0.0781350482,6.5 C0.130225341,6.44999975 0.19533723,6.425 0.273472669,6.425 L0.911575563,6.425 C1.06784644,6.425 1.17636626,6.5083325 1.23713826,6.675 C1.3152737,7.02500175 1.53882452,7.32708206 1.90779743,7.58125 C2.27677033,7.83541794 2.80417664,7.9625 3.49003215,7.9625 C4.22797797,7.9625 4.77925863,7.83750125 5.14389068,7.5875 C5.50852272,7.33749875 5.69083601,6.99166887 5.69083601,6.55 C5.69083601,6.26666525 5.60184976,6.03333425 5.4238746,5.85 C5.24589943,5.66666575 4.98111108,5.50625069 4.62950161,5.36875 C4.27789213,5.23124931 3.75048583,5.062501 3.04726688,4.8625 C2.37877479,4.67916575 1.8470277,4.48333438 1.45200965,4.275 C1.05699159,4.06666563 0.759647301,3.81041819 0.559967846,3.50625 C0.360288391,3.20208181 0.260450161,2.816669 0.260450161,2.35 C0.260450161,1.89999775 0.386333146,1.49791844 0.638102894,1.14375 C0.889872641,0.789581563 1.25449922,0.510417687 1.73199357,0.30625 C2.20948792,0.102082313 2.77379096,0 3.42491961,0 C4.10209342,0 4.68158923,0.114582188 5.16342444,0.34375 C5.64525964,0.572917812 6.01205662,0.860414938 6.26382637,1.20625 C6.51559611,1.55208506 6.65016068,1.89999825 6.66752412,2.25 C6.66752412,2.32500038 6.64147936,2.38749975 6.58938907,2.4375 C6.53729877,2.48750025 6.47218689,2.5125 6.39405145,2.5125 L5.74292605,2.5125 C5.67347232,2.5125 5.60836043,2.49166687 5.54758842,2.45 C5.48681642,2.40833312 5.44340849,2.34583375 5.41736334,2.2625 C5.36527305,1.90416488 5.15691501,1.6083345 4.79228296,1.375 C4.42765091,1.1416655 3.97186769,1.025 3.42491961,1.025 C2.83456296,1.025 2.36575736,1.13541556 2.01848875,1.35625 C1.67122013,1.57708444 1.49758842,1.9041645 1.49758842,2.3375 C1.49758842,2.62916813 1.57789309,2.86666575 1.73850482,3.05 C1.89911656,3.23333425 2.14654174,3.39583263 2.48078778,3.5375 C2.81503383,3.67916738 3.30337299,3.84166575 3.94581994,4.025 C4.68376575,4.225001 5.26326156,4.424999 5.68432476,4.625 C6.10538796,4.825001 6.42009542,5.07291519 6.62845659,5.36875 C6.83681776,5.66458481 6.94099678,6.045831 6.94099678,6.5125 C6.94099678,7.29583725 6.63063011,7.90624781 6.00988746,8.34375 C5.38914481,8.78125219 4.54920144,9 3.49003215,9 Z M8.94646302,8.875 C8.85964587,8.875 8.79019319,8.84791694 8.73810289,8.79375 C8.6860126,8.73958306 8.65996785,8.67083375 8.65996785,8.5875 L8.65996785,0.425 C8.65996785,0.333332875 8.6860126,0.260416938 8.73810289,0.20625 C8.79019319,0.152083063 8.85964587,0.125 8.94646302,0.125 L14.2987138,0.125 C14.3942127,0.125 14.4701766,0.152083063 14.5266077,0.20625 C14.5830389,0.260416938 14.611254,0.333332875 14.611254,0.425 L14.611254,0.875 C14.611254,0.95833375 14.5830389,1.02499975 14.5266077,1.075 C14.4701766,1.12500025 14.3942127,1.15 14.2987138,1.15 L9.85803859,1.15 L9.85803859,3.9375 L14.0122186,3.9375 C14.1077175,3.9375 14.1836814,3.96458306 14.2401125,4.01875 C14.2965437,4.07291694 14.3247588,4.14583288 14.3247588,4.2375 L14.3247588,4.6625 C14.3247588,4.74583375 14.2965437,4.81458306 14.2401125,4.86875 C14.1836814,4.92291694 14.1077175,4.95 14.0122186,4.95 L9.85803859,4.95 L9.85803859,7.8375 L14.4028939,7.8375 C14.4983928,7.8375 14.5743566,7.86458306 14.6307878,7.91875 C14.6872189,7.97291694 14.7154341,8.04583288 14.7154341,8.1375 L14.7154341,8.5875 C14.7154341,8.67083375 14.6850485,8.73958306 14.6242765,8.79375 C14.5635045,8.84791694 14.489711,8.875 14.4028939,8.875 L8.94646302,8.875 Z M16.8250804,8.875 C16.7382632,8.875 16.6688105,8.84791694 16.6167203,8.79375 C16.56463,8.73958306 16.5385852,8.67083375 16.5385852,8.5875 L16.5385852,0.425 C16.5385852,0.333332875 16.56463,0.260416938 16.6167203,0.20625 C16.6688105,0.152083063 16.7382632,0.125 16.8250804,0.125 L20.1197749,0.125 C21.1008088,0.125 21.8712995,0.352081063 22.4312701,0.80625 C22.9912407,1.26041894 23.2712219,1.920829 23.2712219,2.7875 C23.2712219,3.654171 22.9912407,4.31249775 22.4312701,4.7625 C21.8712995,5.21250225 21.1008088,5.4375 20.1197749,5.4375 L17.7757235,5.4375 L17.7757235,8.5875 C17.7757235,8.67083375 17.7475083,8.73958306 17.6910772,8.79375 C17.634646,8.84791694 17.5630229,8.875 17.4762058,8.875 L16.8250804,8.875 Z M20.0546624,4.425 C21.3656014,4.425 22.0210611,3.87917212 22.0210611,2.7875 C22.0210611,2.254164 21.8582814,1.84583475 21.532717,1.5625 C21.2071527,1.27916525 20.7144728,1.1375 20.0546624,1.1375 L17.7757235,1.1375 L17.7757235,4.425 L20.0546624,4.425 Z M27.5946945,2.375 C27.5252408,2.375 27.4731513,2.35208356 27.4384244,2.30625 C27.4036976,2.26041644 27.3906752,2.19583375 27.3993569,2.1125 L27.6858521,0.3625 C27.720579,0.120832125 27.8421211,0 28.0504823,0 L28.8839228,0 C28.9446948,0 28.994614,0.020833125 29.0336817,0.0625 C29.0727494,0.104166875 29.092283,0.154166375 29.092283,0.2125 C29.092283,0.29583375 29.0792606,0.36249975 29.0532154,0.4125 L28.376045,2.1 C28.3326364,2.19166713 28.2848877,2.26041644 28.2327974,2.30625 C28.1807071,2.35208356 28.1025729,2.375 27.9983923,2.375 L27.5946945,2.375 Z M33.194373,8.875 C33.1075558,8.875 33.0381032,8.84791694 32.9860129,8.79375 C32.9339226,8.73958306 32.9078778,8.67083375 32.9078778,8.5875 L32.9078778,1.5375 L30.7200965,3.15 C30.6593245,3.20000025 30.5942126,3.225 30.5247588,3.225 C30.4466234,3.225 30.3728299,3.18333375 30.3033762,3.1 L29.990836,2.7125 C29.9474274,2.65416638 29.9257235,2.59583363 29.9257235,2.5375 C29.9257235,2.44583288 29.9691314,2.37083363 30.0559486,2.3125 L32.8818328,0.2125 C32.9773317,0.154166375 33.0901923,0.125 33.220418,0.125 L33.8324759,0.125 C33.919293,0.125 33.9909161,0.152083063 34.0473473,0.20625 C34.1037784,0.260416938 34.1319936,0.32916625 34.1319936,0.4125 L34.1319936,8.5875 C34.1319936,8.67083375 34.1037784,8.73958306 34.0473473,8.79375 C33.9909161,8.84791694 33.919293,8.875 33.8324759,8.875 L33.194373,8.875 Z M37.0881029,8.875 C37.0099675,8.875 36.947026,8.84791694 36.8992765,8.79375 C36.8515271,8.73958306 36.8276527,8.67500038 36.8276527,8.6 L36.8536977,8.4875 L40.1093248,1.175 L35.8118971,1.175 C35.72508,1.175 35.6534569,1.14791694 35.5970257,1.09375 C35.5405946,1.03958306 35.5123794,0.97083375 35.5123794,0.8875 L35.5123794,0.425 C35.5123794,0.333332875 35.5384242,0.260416938 35.5905145,0.20625 C35.6426048,0.152083063 35.7163982,0.125 35.8118971,0.125 L41.1250804,0.125 C41.2205793,0.125 41.2943727,0.152083063 41.346463,0.20625 C41.3985533,0.260416938 41.4245981,0.333332875 41.4245981,0.425 L41.4245981,0.85 C41.4245981,1.00000075 41.3898717,1.16249913 41.320418,1.3375 L38.1038585,8.5625 C38.0604499,8.65416713 38.0127012,8.72916637 37.9606109,8.7875 C37.9085206,8.84583362 37.8347272,8.875 37.7392283,8.875 L37.0881029,8.875 Z M46.1778135,5.625 C46.0909964,5.625 46.0193733,5.60000025 45.9629421,5.55 C45.906511,5.49999975 45.8782958,5.43333375 45.8782958,5.35 L45.8782958,4.9 C45.8782958,4.81666625 45.906511,4.74791694 45.9629421,4.69375 C46.0193733,4.63958306 46.0909964,4.6125 46.1778135,4.6125 L53.7308682,4.6125 C53.8176853,4.6125 53.8893084,4.63958306 53.9457395,4.69375 C54.0021707,4.74791694 54.0303859,4.81666625 54.0303859,4.9 L54.0303859,5.35 C54.0303859,5.43333375 54.0021707,5.49999975 53.9457395,5.55 C53.8893084,5.60000025 53.8176853,5.625 53.7308682,5.625 L46.1778135,5.625 Z M61.622508,8.875 C61.5356909,8.875 61.4640678,8.84791694 61.4076367,8.79375 C61.3512055,8.73958306 61.3229904,8.67083375 61.3229904,8.5875 L61.3229904,5.625 L58.1845659,0.5375 C58.1585208,0.48749975 58.1454984,0.433333625 58.1454984,0.375 C58.1454984,0.308333 58.1715431,0.25000025 58.2236334,0.2 C58.2757237,0.14999975 58.3364948,0.125 58.4059486,0.125 L59.0310289,0.125 C59.1872998,0.125 59.3001604,0.195832625 59.3696141,0.3375 L61.9480707,4.425 L64.5135048,0.3375 C64.600322,0.195832625 64.7131826,0.125 64.85209,0.125 L65.4771704,0.125 C65.5466241,0.125 65.6095656,0.14999975 65.6659968,0.2 C65.7224279,0.25000025 65.7506431,0.308333 65.7506431,0.375 C65.7506431,0.416666875 65.7332799,0.470833 65.6985531,0.5375 L62.5601286,5.625 L62.5601286,8.5875 C62.5601286,8.67083375 62.5319135,8.73958306 62.4754823,8.79375 C62.4190512,8.84791694 62.3430873,8.875 62.2475884,8.875 L61.622508,8.875 Z M67.5737942,8.875 C67.4869771,8.875 67.4175244,8.84791694 67.3654341,8.79375 C67.3133438,8.73958306 67.287299,8.67083375 67.287299,8.5875 L67.287299,0.425 C67.287299,0.333332875 67.3133438,0.260416938 67.3654341,0.20625 C67.4175244,0.152083063 67.4869771,0.125 67.5737942,0.125 L72.926045,0.125 C73.0215439,0.125 73.0975078,0.152083063 73.1539389,0.20625 C73.2103701,0.260416938 73.2385852,0.333332875 73.2385852,0.425 L73.2385852,0.875 C73.2385852,0.95833375 73.2103701,1.02499975 73.1539389,1.075 C73.0975078,1.12500025 73.0215439,1.15 72.926045,1.15 L68.4853698,1.15 L68.4853698,3.9375 L72.6395498,3.9375 C72.7350487,3.9375 72.8110126,3.96458306 72.8674437,4.01875 C72.9238749,4.07291694 72.95209,4.14583288 72.95209,4.2375 L72.95209,4.6625 C72.95209,4.74583375 72.9238749,4.81458306 72.8674437,4.86875 C72.8110126,4.92291694 72.7350487,4.95 72.6395498,4.95 L68.4853698,4.95 L68.4853698,7.8375 L73.0302251,7.8375 C73.125724,7.8375 73.2016878,7.86458306 73.258119,7.91875 C73.3145501,7.97291694 73.3427653,8.04583288 73.3427653,8.1375 L73.3427653,8.5875 C73.3427653,8.67083375 73.3123797,8.73958306 73.2516077,8.79375 C73.1908357,8.84791694 73.1170422,8.875 73.0302251,8.875 L67.5737942,8.875 Z M74.540836,8.875 C74.4713823,8.875 74.4106112,8.85000025 74.3585209,8.8 C74.3064306,8.74999975 74.2803859,8.691667 74.2803859,8.625 L74.3064309,8.4875 L77.5360129,0.4 C77.6054666,0.21666575 77.7443719,0.125 77.9527331,0.125 L78.7861736,0.125 C78.9945348,0.125 79.1334402,0.21666575 79.2028939,0.4 L82.4324759,8.4875 L82.4585209,8.625 C82.4585209,8.691667 82.4303057,8.74999975 82.3738746,8.8 C82.3174434,8.85000025 82.254502,8.875 82.1850482,8.875 L81.5729904,8.875 C81.4861732,8.875 81.4145501,8.85208356 81.358119,8.80625 C81.3016878,8.76041644 81.2647911,8.71250025 81.2474277,8.6625 L80.5181672,6.8625 L76.207717,6.8625 L75.4914791,8.6625 C75.4220254,8.80416738 75.3135056,8.875 75.1659164,8.875 L74.540836,8.875 Z M76.5853698,5.825 L80.153537,5.825 L78.3694534,1.3375 L76.5853698,5.825 Z M84.1514469,8.875 C84.0646298,8.875 83.9951771,8.84791694 83.9430868,8.79375 C83.8909965,8.73958306 83.8649518,8.67083375 83.8649518,8.5875 L83.8649518,0.425 C83.8649518,0.333332875 83.8909965,0.260416938 83.9430868,0.20625 C83.9951771,0.152083063 84.0646298,0.125 84.1514469,0.125 L87.3289389,0.125 C88.3186545,0.125 89.0934859,0.347914438 89.6534566,0.79375 C90.2134272,1.23958556 90.4934084,1.88749575 90.4934084,2.7375 C90.4934084,3.3708365 90.3284582,3.89166463 89.9985531,4.3 C89.6686479,4.70833538 89.2085239,4.99166587 88.6181672,5.15 L90.6236334,8.4875 C90.6496786,8.53750025 90.662701,8.58333313 90.662701,8.625 C90.662701,8.691667 90.6366562,8.74999975 90.5845659,8.8 C90.5324756,8.85000025 90.4717045,8.875 90.4022508,8.875 L89.8292605,8.875 C89.6990347,8.875 89.5970261,8.84583362 89.5232315,8.7875 C89.4494369,8.72916637 89.3821546,8.64583388 89.3213826,8.5375 L87.407074,5.3375 L85.0890675,5.3375 L85.0890675,8.5875 C85.0890675,8.67083375 85.058682,8.73958306 84.99791,8.79375 C84.937138,8.84791694 84.8633445,8.875 84.7765273,8.875 L84.1514469,8.875 Z M87.2768489,4.3125 C88.5877879,4.3125 89.2432476,3.78333862 89.2432476,2.725 C89.2432476,1.66666138 88.5877879,1.1375 87.2768489,1.1375 L85.0890675,1.1375 L85.0890675,4.3125 L87.2768489,4.3125 Z M95.8717042,8.875 C95.784887,8.875 95.7154343,8.84791694 95.6633441,8.79375 C95.6112538,8.73958306 95.585209,8.67083375 95.585209,8.5875 L95.585209,0.425 C95.585209,0.333332875 95.6112538,0.260416938 95.6633441,0.20625 C95.7154343,0.152083063 95.784887,0.125 95.8717042,0.125 L99.4268489,0.125 C100.347111,0.125 101.041638,0.337497875 101.51045,0.7625 C101.979263,1.18750213 102.213666,1.74166325 102.213666,2.425 C102.213666,2.891669 102.100805,3.28124844 101.87508,3.59375 C101.649356,3.90625156 101.384567,4.13333263 101.080707,4.275 C101.454021,4.45000088 101.766558,4.7208315 102.018328,5.0875 C102.270098,5.4541685 102.395981,5.87499763 102.395981,6.35 C102.395981,6.816669 102.28529,7.24166475 102.063907,7.625 C101.842523,8.00833525 101.514793,8.31249888 101.080707,8.5375 C100.646622,8.76250113 100.130067,8.875 99.5310289,8.875 L95.8717042,8.875 Z M99.2315113,3.8375 C99.7958228,3.8375 100.225561,3.71458456 100.52074,3.46875 C100.815918,3.22291544 100.963505,2.87916888 100.963505,2.4375 C100.963505,2.0041645 100.818088,1.67500113 100.527251,1.45 C100.236413,1.22499888 99.8045045,1.1125 99.2315113,1.1125 L96.8093248,1.1125 L96.8093248,3.8375 L99.2315113,3.8375 Z M99.3617363,7.8875 C99.9173661,7.8875 100.353616,7.74375144 100.670498,7.45625 C100.987381,7.16874856 101.14582,6.80000225 101.14582,6.35 C101.14582,5.89166438 100.987381,5.52083475 100.670498,5.2375 C100.353616,4.95416525 99.9173661,4.8125 99.3617363,4.8125 L96.8093248,4.8125 L96.8093248,7.8875 L99.3617363,7.8875 Z M104.557717,8.875 C104.4709,8.875 104.401447,8.84791694 104.349357,8.79375 C104.297267,8.73958306 104.271222,8.67083375 104.271222,8.5875 L104.271222,0.425 C104.271222,0.333332875 104.297267,0.260416938 104.349357,0.20625 C104.401447,0.152083063 104.4709,0.125 104.557717,0.125 L109.909968,0.125 C110.005467,0.125 110.081431,0.152083063 110.137862,0.20625 C110.194293,0.260416938 110.222508,0.333332875 110.222508,0.425 L110.222508,0.875 C110.222508,0.95833375 110.194293,1.02499975 110.137862,1.075 C110.081431,1.12500025 110.005467,1.15 109.909968,1.15 L105.469293,1.15 L105.469293,3.9375 L109.623473,3.9375 C109.718972,3.9375 109.794935,3.96458306 109.851367,4.01875 C109.907798,4.07291694 109.936013,4.14583288 109.936013,4.2375 L109.936013,4.6625 C109.936013,4.74583375 109.907798,4.81458306 109.851367,4.86875 C109.794935,4.92291694 109.718972,4.95 109.623473,4.95 L105.469293,4.95 L105.469293,7.8375 L110.014148,7.8375 C110.109647,7.8375 110.185611,7.86458306 110.242042,7.91875 C110.298473,7.97291694 110.326688,8.04583288 110.326688,8.1375 L110.326688,8.5875 C110.326688,8.67083375 110.296303,8.73958306 110.235531,8.79375 C110.174759,8.84791694 110.100965,8.875 110.014148,8.875 L104.557717,8.875 Z M115.353376,9 C114.224753,9 113.347913,8.700003 112.72283,8.1 C112.097746,7.499997 111.763505,6.68750512 111.720096,5.6625 C111.711415,5.41249875 111.707074,5.020836 111.707074,4.4875 C111.707074,3.94583063 111.711415,3.55416787 111.720096,3.3125 C111.754823,2.29582825 112.086894,1.48958631 112.716318,0.89375 C113.345743,0.297913687 114.224753,0 115.353376,0 C116.117367,0 116.764145,0.133332 117.29373,0.4 C117.823315,0.666668 118.222667,0.985414812 118.491801,1.35625 C118.760934,1.72708519 118.90418,2.07083175 118.921543,2.3875 L118.921543,2.4125 C118.921543,2.479167 118.893328,2.53541644 118.836897,2.58125 C118.780466,2.62708356 118.717524,2.65 118.648071,2.65 L117.91881,2.65 C117.840675,2.65 117.782074,2.6333335 117.743006,2.6 C117.703939,2.5666665 117.667042,2.50416713 117.632315,2.4125 C117.493408,2.02083138 117.237301,1.691668 116.863987,1.425 C116.490673,1.158332 115.987141,1.025 115.353376,1.025 C114.624112,1.025 114.051127,1.21666475 113.634405,1.6 C113.217683,1.98333525 112.996302,2.574996 112.970257,3.375 C112.961576,3.61666788 112.957235,3.9874975 112.957235,4.4875 C112.957235,4.97916913 112.961576,5.34999875 112.970257,5.6 C112.996302,6.40833737 113.217683,7.00416475 113.634405,7.3875 C114.051127,7.77083525 114.624112,7.9625 115.353376,7.9625 C116.091322,7.9625 116.68167,7.76875194 117.124437,7.38125 C117.567205,6.99374806 117.788585,6.41250387 117.788585,5.6375 L117.788585,5.1 L115.796141,5.1 C115.709324,5.1 115.637701,5.07083363 115.58127,5.0125 C115.524839,4.95416638 115.496624,4.88333375 115.496624,4.8 L115.496624,4.425 C115.496624,4.34166625 115.524839,4.27083363 115.58127,4.2125 C115.637701,4.15416638 115.709324,4.125 115.796141,4.125 L118.713183,4.125 C118.808682,4.125 118.884646,4.15208306 118.941077,4.20625 C118.997508,4.26041694 119.025723,4.33333288 119.025723,4.425 L119.025723,5.6125 C119.025723,6.28750338 118.880307,6.88124744 118.589469,7.39375 C118.298632,7.90625256 117.875405,8.30208194 117.319775,8.58125 C116.764145,8.86041806 116.108685,9 115.353376,9 Z M121.18746,8.875 C121.100643,8.875 121.03119,8.84791694 120.9791,8.79375 C120.927009,8.73958306 120.900965,8.67083375 120.900965,8.5875 L120.900965,0.4125 C120.900965,0.32916625 120.927009,0.260416938 120.9791,0.20625 C121.03119,0.152083063 121.100643,0.125 121.18746,0.125 L121.838585,0.125 C121.934084,0.125 122.007878,0.14999975 122.059968,0.2 C122.112058,0.25000025 122.138103,0.320832875 122.138103,0.4125 L122.138103,8.5875 C122.138103,8.67083375 122.109888,8.73958306 122.053457,8.79375 C121.997025,8.84791694 121.925402,8.875 121.838585,8.875 L121.18746,8.875 Z M124.716559,8.875 C124.629742,8.875 124.56029,8.84791694 124.508199,8.79375 C124.456109,8.73958306 124.430064,8.67083375 124.430064,8.5875 L124.430064,0.425 C124.430064,0.333332875 124.456109,0.260416938 124.508199,0.20625 C124.56029,0.152083063 124.629742,0.125 124.716559,0.125 L125.28955,0.125 C125.376367,0.125 125.441479,0.1416665 125.484887,0.175 C125.528296,0.2083335 125.571704,0.24999975 125.615113,0.3 L129.977653,6.75 L129.977653,0.425 C129.977653,0.333332875 130.005868,0.260416938 130.062299,0.20625 C130.11873,0.152083063 130.190353,0.125 130.27717,0.125 L130.863183,0.125 C130.958682,0.125 131.034646,0.152083063 131.091077,0.20625 C131.147508,0.260416938 131.175723,0.333332875 131.175723,0.425 L131.175723,8.575 C131.175723,8.65833375 131.147508,8.72916637 131.091077,8.7875 C131.034646,8.84583362 130.963023,8.875 130.876206,8.875 L130.290193,8.875 C130.142604,8.875 130.038425,8.81666725 129.977653,8.7 L125.615113,2.3125 L125.615113,8.5875 C125.615113,8.67083375 125.586897,8.73958306 125.530466,8.79375 C125.474035,8.84791694 125.402412,8.875 125.315595,8.875 L124.716559,8.875 Z M133.741158,8.875 C133.65434,8.875 133.584888,8.84791694 133.532797,8.79375 C133.480707,8.73958306 133.454662,8.67083375 133.454662,8.5875 L133.454662,0.425 C133.454662,0.333332875 133.480707,0.260416938 133.532797,0.20625 C133.584888,0.152083063 133.65434,0.125 133.741158,0.125 L134.314148,0.125 C134.400965,0.125 134.466077,0.1416665 134.509486,0.175 C134.552894,0.2083335 134.596302,0.24999975 134.639711,0.3 L139.002251,6.75 L139.002251,0.425 C139.002251,0.333332875 139.030466,0.260416938 139.086897,0.20625 C139.143328,0.152083063 139.214951,0.125 139.301768,0.125 L139.887781,0.125 C139.98328,0.125 140.059244,0.152083063 140.115675,0.20625 C140.172106,0.260416938 140.200322,0.333332875 140.200322,0.425 L140.200322,8.575 C140.200322,8.65833375 140.172106,8.72916637 140.115675,8.7875 C140.059244,8.84583362 139.987621,8.875 139.900804,8.875 L139.314791,8.875 C139.167202,8.875 139.063023,8.81666725 139.002251,8.7 L134.639711,2.3125 L134.639711,8.5875 C134.639711,8.67083375 134.611495,8.73958306 134.555064,8.79375 C134.498633,8.84791694 134.42701,8.875 134.340193,8.875 L133.741158,8.875 Z M142.765756,8.875 C142.678938,8.875 142.609486,8.84791694 142.557395,8.79375 C142.505305,8.73958306 142.47926,8.67083375 142.47926,8.5875 L142.47926,0.4125 C142.47926,0.32916625 142.505305,0.260416938 142.557395,0.20625 C142.609486,0.152083063 142.678938,0.125 142.765756,0.125 L143.416881,0.125 C143.51238,0.125 143.586173,0.14999975 143.638264,0.2 C143.690354,0.25000025 143.716399,0.320832875 143.716399,0.4125 L143.716399,8.5875 C143.716399,8.67083375 143.688184,8.73958306 143.631752,8.79375 C143.575321,8.84791694 143.503698,8.875 143.416881,8.875 L142.765756,8.875 Z M146.294855,8.875 C146.208038,8.875 146.138585,8.84791694 146.086495,8.79375 C146.034405,8.73958306 146.00836,8.67083375 146.00836,8.5875 L146.00836,0.425 C146.00836,0.333332875 146.034405,0.260416938 146.086495,0.20625 C146.138585,0.152083063 146.208038,0.125 146.294855,0.125 L146.867846,0.125 C146.954663,0.125 147.019775,0.1416665 147.063183,0.175 C147.106592,0.2083335 147.15,0.24999975 147.193408,0.3 L151.555949,6.75 L151.555949,0.425 C151.555949,0.333332875 151.584164,0.260416938 151.640595,0.20625 C151.697026,0.152083063 151.768649,0.125 151.855466,0.125 L152.441479,0.125 C152.536978,0.125 152.612942,0.152083063 152.669373,0.20625 C152.725804,0.260416938 152.754019,0.333332875 152.754019,0.425 L152.754019,8.575 C152.754019,8.65833375 152.725804,8.72916637 152.669373,8.7875 C152.612942,8.84583362 152.541319,8.875 152.454502,8.875 L151.868489,8.875 C151.7209,8.875 151.616721,8.81666725 151.555949,8.7 L147.193408,2.3125 L147.193408,8.5875 C147.193408,8.67083375 147.165193,8.73958306 147.108762,8.79375 C147.052331,8.84791694 146.980708,8.875 146.893891,8.875 L146.294855,8.875 Z M158.327653,9 C157.19903,9 156.32219,8.700003 155.697106,8.1 C155.072023,7.499997 154.737782,6.68750512 154.694373,5.6625 C154.685691,5.41249875 154.68135,5.020836 154.68135,4.4875 C154.68135,3.94583063 154.685691,3.55416787 154.694373,3.3125 C154.7291,2.29582825 155.06117,1.48958631 155.690595,0.89375 C156.320019,0.297913687 157.19903,0 158.327653,0 C159.091644,0 159.738422,0.133332 160.268006,0.4 C160.797591,0.666668 161.196944,0.985414812 161.466077,1.35625 C161.73521,1.72708519 161.878457,2.07083175 161.89582,2.3875 L161.89582,2.4125 C161.89582,2.479167 161.867605,2.53541644 161.811174,2.58125 C161.754742,2.62708356 161.691801,2.65 161.622347,2.65 L160.893087,2.65 C160.814951,2.65 160.756351,2.6333335 160.717283,2.6 C160.678215,2.5666665 160.641319,2.50416713 160.606592,2.4125 C160.467684,2.02083138 160.211577,1.691668 159.838264,1.425 C159.46495,1.158332 158.961418,1.025 158.327653,1.025 C157.598389,1.025 157.025404,1.21666475 156.608682,1.6 C156.191959,1.98333525 155.970579,2.574996 155.944534,3.375 C155.935852,3.61666788 155.931511,3.9874975 155.931511,4.4875 C155.931511,4.97916913 155.935852,5.34999875 155.944534,5.6 C155.970579,6.40833737 156.191959,7.00416475 156.608682,7.3875 C157.025404,7.77083525 157.598389,7.9625 158.327653,7.9625 C159.065599,7.9625 159.655946,7.76875194 160.098714,7.38125 C160.541481,6.99374806 160.762862,6.41250387 160.762862,5.6375 L160.762862,5.1 L158.770418,5.1 C158.683601,5.1 158.611978,5.07083363 158.555547,5.0125 C158.499115,4.95416638 158.4709,4.88333375 158.4709,4.8 L158.4709,4.425 C158.4709,4.34166625 158.499115,4.27083363 158.555547,4.2125 C158.611978,4.15416638 158.683601,4.125 158.770418,4.125 L161.68746,4.125 C161.782959,4.125 161.858923,4.15208306 161.915354,4.20625 C161.971785,4.26041694 162,4.33333288 162,4.425 L162,5.6125 C162,6.28750338 161.854583,6.88124744 161.563746,7.39375 C161.272909,7.90625256 160.849681,8.30208194 160.294051,8.58125 C159.738422,8.86041806 159.082962,9 158.327653,9 Z" id="Sep-’17-—-Year-Begin-Copy-2" fill="#000000"></path>
                <path d="M1.2995283,78.875 C1.21270807,78.875 1.14108245,78.8479169 1.0846493,78.79375 C1.02821615,78.7395831 1,78.6708338 1,78.5875 L1,70.425 C1,70.3333329 1.02604568,70.2604169 1.07813782,70.20625 C1.13022996,70.1520831 1.20402605,70.125 1.2995283,70.125 L1.91160788,70.125 C2.06788429,70.125 2.17640795,70.1874994 2.23718212,70.3125 L5.01107465,75.425 L7.81101313,70.3125 C7.88046931,70.1874994 7.98465203,70.125 8.1235644,70.125 L8.73564397,70.125 C8.83114623,70.125 8.90494232,70.1520831 8.95703445,70.20625 C9.00912659,70.2604169 9.03517227,70.3333329 9.03517227,70.425 L9.03517227,78.5875 C9.03517227,78.6708338 9.00695612,78.7395831 8.95052297,78.79375 C8.89408982,78.8479169 8.8224642,78.875 8.73564397,78.875 L8.13658737,78.875 C8.04976713,78.875 7.98031199,78.8479169 7.92821985,78.79375 C7.87612771,78.7395831 7.85008203,78.6708338 7.85008203,78.5875 L7.85008203,72.375 L5.62315422,76.5125 C5.53633399,76.6875009 5.39742371,76.775 5.2064192,76.775 L4.81573011,76.775 C4.63340762,76.775 4.49449733,76.6875009 4.39899508,76.5125 L2.18509024,72.375 L2.18509024,78.5875 C2.18509024,78.6708338 2.15687409,78.7395831 2.10044094,78.79375 C2.04400778,78.8479169 1.97238217,78.875 1.88556194,78.875 L1.2995283,78.875 Z M10.7021124,78.875 C10.6326562,78.875 10.571883,78.8500003 10.5197908,78.8 C10.4676987,78.7499998 10.441653,78.691667 10.441653,78.625 L10.4676989,78.4875 L13.6973954,70.4 C13.7668516,70.2166658 13.9057619,70.125 14.1141304,70.125 L14.9476005,70.125 C15.155969,70.125 15.2948793,70.2166658 15.3643355,70.4 L18.594032,78.4875 L18.6200779,78.625 C18.6200779,78.691667 18.5918618,78.7499998 18.5354286,78.8 C18.4789955,78.8500003 18.4160518,78.875 18.3465956,78.875 L17.734516,78.875 C17.6476958,78.875 17.5760701,78.8520836 17.519637,78.80625 C17.4632038,78.7604164 17.4263058,78.7125003 17.4089418,78.6625 L16.6796555,76.8625 L12.3690525,76.8625 L11.6527892,78.6625 C11.583333,78.8041674 11.4748093,78.875 11.3272149,78.875 L10.7021124,78.875 Z M12.7467186,75.825 L16.3150123,75.825 L14.5308655,71.3375 L12.7467186,75.825 Z M20.313064,78.875 C20.2262438,78.875 20.1567886,78.8479169 20.1046965,78.79375 C20.0526043,78.7395831 20.0265587,78.6708338 20.0265587,78.5875 L20.0265587,70.425 C20.0265587,70.3333329 20.0526043,70.2604169 20.1046965,70.20625 C20.1567886,70.1520831 20.2262438,70.125 20.313064,70.125 L23.4906686,70.125 C24.4804192,70.125 25.2552782,70.3479144 25.8152687,70.79375 C26.3752592,71.2395856 26.6552502,71.8874958 26.6552502,72.7375 C26.6552502,73.3708365 26.4902942,73.8916646 26.1603774,74.3 C25.8304605,74.7083354 25.3703202,74.9916659 24.7799426,75.15 L26.7854799,78.4875 C26.811526,78.5375002 26.8245488,78.5833331 26.8245488,78.625 C26.8245488,78.691667 26.7985031,78.7499998 26.746411,78.8 C26.6943189,78.8500003 26.6335456,78.875 26.5640894,78.875 L25.9910788,78.875 C25.8608484,78.875 25.7588362,78.8458336 25.685039,78.7875 C25.6112418,78.7291664 25.5439571,78.6458339 25.4831829,78.5375 L23.5688064,75.3375 L21.2507178,75.3375 L21.2507178,78.5875 C21.2507178,78.6708338 21.2203312,78.7395831 21.159557,78.79375 C21.0987829,78.8479169 21.0249868,78.875 20.9381665,78.875 L20.313064,78.875 Z M23.4385767,74.3125 C24.7495622,74.3125 25.4050451,73.7833386 25.4050451,72.725 C25.4050451,71.6666614 24.7495622,71.1375 23.4385767,71.1375 L21.2507178,71.1375 L21.2507178,74.3125 L23.4385767,74.3125 Z M31.5518868,72.375 C31.4824306,72.375 31.4303392,72.3520836 31.3956112,72.30625 C31.3608831,72.2604164 31.3478602,72.1958337 31.3565422,72.1125 L31.6430476,70.3625 C31.6777757,70.1208321 31.7993222,70 32.0076907,70 L32.8411608,70 C32.9019349,70 32.9518558,70.0208331 32.9909249,70.0625 C33.029994,70.1041669 33.0495283,70.1541664 33.0495283,70.2125 C33.0495283,70.2958337 33.0365055,70.3624998 33.0104594,70.4125 L32.333265,72.1 C32.2898549,72.1916671 32.2421044,72.2604164 32.1900123,72.30625 C32.1379202,72.3520836 32.0597831,72.375 31.9555989,72.375 L31.5518868,72.375 Z M37.1517637,78.875 C37.0649435,78.875 36.9954884,78.8479169 36.9433962,78.79375 C36.8913041,78.7395831 36.8652584,78.6708338 36.8652584,78.5875 L36.8652584,71.5375 L34.6773995,73.15 C34.6166253,73.2000003 34.5515111,73.225 34.482055,73.225 C34.4039168,73.225 34.3301207,73.1833338 34.2606645,73.1 L33.9481132,72.7125 C33.9047031,72.6541664 33.8829984,72.5958336 33.8829984,72.5375 C33.8829984,72.4458329 33.9264078,72.3708336 34.0132281,72.3125 L36.8392125,70.2125 C36.9347147,70.1541664 37.0475793,70.125 37.1778097,70.125 L37.7898893,70.125 C37.8767095,70.125 37.9483351,70.1520831 38.0047683,70.20625 C38.0612014,70.2604169 38.0894176,70.3291663 38.0894176,70.4125 L38.0894176,78.5875 C38.0894176,78.6708338 38.0612014,78.7395831 38.0047683,78.79375 C37.9483351,78.8479169 37.8767095,78.875 37.7898893,78.875 L37.1517637,78.875 Z M43.2204676,79 C42.5606338,79 41.9724356,78.8937511 41.4558552,78.68125 C40.9392748,78.4687489 40.5377373,78.162502 40.2512305,77.7625 C39.9647238,77.362498 39.8214725,76.895836 39.8214725,76.3625 C39.8214725,75.8708309 39.9495304,75.4395852 40.2056501,75.06875 C40.4617698,74.6979148 40.8068751,74.412501 41.2409762,74.2125 C40.8936953,74.0208324 40.6245566,73.7687516 40.4335521,73.45625 C40.2425476,73.1437484 40.1470468,72.7750021 40.1470468,72.35 C40.1470468,71.6249964 40.4292083,71.0520854 40.9935398,70.63125 C41.5578713,70.2104146 42.3001731,70 43.2204676,70 C44.1407621,70 44.8808934,70.2083313 45.4408839,70.625 C46.0008744,71.0416688 46.2808655,71.616663 46.2808655,72.35 C46.2808655,72.7666688 46.1853646,73.1312484 45.9943601,73.44375 C45.8033556,73.7562516 45.5385579,74.012499 45.199959,74.2125 C45.6340601,74.412501 45.9791654,74.6979148 46.2352851,75.06875 C46.4914048,75.4395852 46.6194627,75.8749975 46.6194627,76.375 C46.6194627,76.908336 46.4762114,77.3729147 46.1897047,77.76875 C45.9031979,78.1645853 45.5016604,78.4687489 44.98508,78.68125 C44.4684996,78.8937511 43.8803014,79 43.2204676,79 Z M43.2204676,73.775 C43.750071,73.7583333 44.1971885,73.6250012 44.5618335,73.375 C44.9264784,73.1249987 45.1087982,72.7916688 45.1087982,72.375 C45.1087982,71.9499979 44.9286489,71.6104179 44.568345,71.35625 C44.208041,71.1020821 43.758753,70.975 43.2204676,70.975 C42.6735001,70.975 42.2220417,71.1020821 41.8660788,71.35625 C41.5101158,71.6104179 41.332137,71.9499979 41.332137,72.375 C41.332137,72.8000021 41.5101158,73.1395821 41.8660788,73.39375 C42.2220417,73.6479179 42.6735001,73.775 43.2204676,73.775 Z M43.2204676,78.025 C43.8368912,78.025 44.3512934,77.8750015 44.7636895,77.575 C45.1760856,77.2749985 45.3822806,76.8750025 45.3822806,76.375 C45.3822806,75.8749975 45.1760856,75.4750015 44.7636895,75.175 C44.3512934,74.8749985 43.8368912,74.725 43.2204676,74.725 C42.5953619,74.725 42.0766188,74.8749985 41.6642227,75.175 C41.2518266,75.4750015 41.0456317,75.8749975 41.0456317,76.375 C41.0456317,76.8750025 41.2518266,77.2749985 41.6642227,77.575 C42.0766188,77.8750015 42.5953619,78.025 43.2204676,78.025 Z M48.2994258,72.375 C48.2299696,72.375 48.1778782,72.3520836 48.1431501,72.30625 C48.108422,72.2604164 48.0953992,72.1958337 48.1040812,72.1125 L48.3905865,70.3625 C48.4253146,70.1208321 48.5468611,70 48.7552297,70 L49.5886998,70 C49.6494739,70 49.6993948,70.0208331 49.7384639,70.0625 C49.777533,70.1041669 49.7970673,70.1541664 49.7970673,70.2125 C49.7970673,70.2958337 49.7840444,70.3624998 49.7579984,70.4125 L49.0808039,72.1 C49.0373938,72.1916671 48.9896434,72.2604164 48.9375513,72.30625 C48.8854591,72.3520836 48.8073221,72.375 48.7031378,72.375 L48.2994258,72.375 Z M54.7067268,75.625 C54.6199066,75.625 54.548281,75.6000002 54.4918478,75.55 C54.4354147,75.4999997 54.4071985,75.4333338 54.4071985,75.35 L54.4071985,74.9 C54.4071985,74.8166662 54.4354147,74.7479169 54.4918478,74.69375 C54.548281,74.6395831 54.6199066,74.6125 54.7067268,74.6125 L62.2600492,74.6125 C62.3468695,74.6125 62.4184951,74.6395831 62.4749282,74.69375 C62.5313614,74.7479169 62.5595775,74.8166662 62.5595775,74.9 L62.5595775,75.35 C62.5595775,75.4333338 62.5313614,75.4999997 62.4749282,75.55 C62.4184951,75.6000002 62.3468695,75.625 62.2600492,75.625 L54.7067268,75.625 Z M70.1519688,78.875 C70.0651486,78.875 69.993523,78.8479169 69.9370898,78.79375 C69.8806567,78.7395831 69.8524405,78.6708338 69.8524405,78.5875 L69.8524405,75.625 L66.7139048,70.5375 C66.6878588,70.4874998 66.6748359,70.4333336 66.6748359,70.375 C66.6748359,70.308333 66.7008816,70.2500003 66.7529737,70.2 C66.8050659,70.1499998 66.8658391,70.125 66.9352953,70.125 L67.5603979,70.125 C67.7166743,70.125 67.8295389,70.1958326 67.8989951,70.3375 L70.4775431,74.425 L73.0430681,70.3375 C73.1298883,70.1958326 73.2427529,70.125 73.3816653,70.125 L74.0067678,70.125 C74.076224,70.125 74.1391678,70.1499998 74.1956009,70.2 C74.2520341,70.2500003 74.2802502,70.308333 74.2802502,70.375 C74.2802502,70.4166669 74.2628864,70.470833 74.2281583,70.5375 L71.0896226,75.625 L71.0896226,78.5875 C71.0896226,78.6708338 71.0614065,78.7395831 71.0049733,78.79375 C70.9485402,78.8479169 70.8725736,78.875 70.7770714,78.875 L70.1519688,78.875 Z M76.103466,78.875 C76.0166457,78.875 75.9471906,78.8479169 75.8950984,78.79375 C75.8430063,78.7395831 75.8169606,78.6708338 75.8169606,78.5875 L75.8169606,70.425 C75.8169606,70.3333329 75.8430063,70.2604169 75.8950984,70.20625 C75.9471906,70.1520831 76.0166457,70.125 76.103466,70.125 L81.4559065,70.125 C81.5514087,70.125 81.6273753,70.1520831 81.6838084,70.20625 C81.7402416,70.2604169 81.7684578,70.3333329 81.7684578,70.425 L81.7684578,70.875 C81.7684578,70.9583338 81.7402416,71.0249997 81.6838084,71.075 C81.6273753,71.1250002 81.5514087,71.15 81.4559065,71.15 L77.0150738,71.15 L77.0150738,73.9375 L81.1694011,73.9375 C81.2649034,73.9375 81.34087,73.9645831 81.3973031,74.01875 C81.4537363,74.0729169 81.4819524,74.1458329 81.4819524,74.2375 L81.4819524,74.6625 C81.4819524,74.7458338 81.4537363,74.8145831 81.3973031,74.86875 C81.34087,74.9229169 81.2649034,74.95 81.1694011,74.95 L77.0150738,74.95 L77.0150738,77.8375 L81.5600902,77.8375 C81.6555925,77.8375 81.7315591,77.8645831 81.7879922,77.91875 C81.8444254,77.9729169 81.8726415,78.0458329 81.8726415,78.1375 L81.8726415,78.5875 C81.8726415,78.6708338 81.8422549,78.7395831 81.7814807,78.79375 C81.7207066,78.8479169 81.6469105,78.875 81.5600902,78.875 L76.103466,78.875 Z M83.0707547,78.875 C83.0012985,78.875 82.9405253,78.8500003 82.8884331,78.8 C82.836341,78.7499998 82.8102953,78.691667 82.8102953,78.625 L82.8363413,78.4875 L86.0660377,70.4 C86.1354939,70.2166658 86.2744042,70.125 86.4827728,70.125 L87.3162428,70.125 C87.5246114,70.125 87.6635217,70.2166658 87.7329779,70.4 L90.9626743,78.4875 L90.9887203,78.625 C90.9887203,78.691667 90.9605041,78.7499998 90.904071,78.8 C90.8476378,78.8500003 90.7846941,78.875 90.7152379,78.875 L90.1031583,78.875 C90.0163381,78.875 89.9447125,78.8520836 89.8882793,78.80625 C89.8318462,78.7604164 89.7949481,78.7125003 89.7775841,78.6625 L89.0482978,76.8625 L84.7376948,76.8625 L84.0214315,78.6625 C83.9519753,78.8041674 83.8434517,78.875 83.6958573,78.875 L83.0707547,78.875 Z M85.115361,75.825 L88.6836546,75.825 L86.8995078,71.3375 L85.115361,75.825 Z M92.6817063,78.875 C92.5948861,78.875 92.5254309,78.8479169 92.4733388,78.79375 C92.4212467,78.7395831 92.395201,78.6708338 92.395201,78.5875 L92.395201,70.425 C92.395201,70.3333329 92.4212467,70.2604169 92.4733388,70.20625 C92.5254309,70.1520831 92.5948861,70.125 92.6817063,70.125 L95.8593109,70.125 C96.8490616,70.125 97.6239205,70.3479144 98.183911,70.79375 C98.7439015,71.2395856 99.0238925,71.8874958 99.0238925,72.7375 C99.0238925,73.3708365 98.8589366,73.8916646 98.5290197,74.3 C98.1991028,74.7083354 97.7389625,74.9916659 97.1485849,75.15 L99.1541222,78.4875 C99.1801683,78.5375002 99.1931911,78.5833331 99.1931911,78.625 C99.1931911,78.691667 99.1671455,78.7499998 99.1150533,78.8 C99.0629612,78.8500003 99.0021879,78.875 98.9327317,78.875 L98.3597211,78.875 C98.2294907,78.875 98.1274785,78.8458336 98.0536813,78.7875 C97.9798841,78.7291664 97.9125994,78.6458339 97.8518253,78.5375 L95.9374487,75.3375 L93.6193601,75.3375 L93.6193601,78.5875 C93.6193601,78.6708338 93.5889735,78.7395831 93.5281993,78.79375 C93.4674252,78.8479169 93.3936291,78.875 93.3068089,78.875 L92.6817063,78.875 Z M95.807219,74.3125 C97.1182045,74.3125 97.7736874,73.7833386 97.7736874,72.725 C97.7736874,71.6666614 97.1182045,71.1375 95.807219,71.1375 L93.6193601,71.1375 L93.6193601,74.3125 L95.807219,74.3125 Z M104.402379,78.875 C104.315559,78.875 104.246104,78.8479169 104.194011,78.79375 C104.141919,78.7395831 104.115874,78.6708338 104.115874,78.5875 L104.115874,70.425 C104.115874,70.3333329 104.141919,70.2604169 104.194011,70.20625 C104.246104,70.1520831 104.315559,70.125 104.402379,70.125 L109.75482,70.125 C109.850322,70.125 109.926288,70.1520831 109.982721,70.20625 C110.039155,70.2604169 110.067371,70.3333329 110.067371,70.425 L110.067371,70.875 C110.067371,70.9583338 110.039155,71.0249997 109.982721,71.075 C109.926288,71.1250002 109.850322,71.15 109.75482,71.15 L105.313987,71.15 L105.313987,73.9375 L109.468314,73.9375 C109.563816,73.9375 109.639783,73.9645831 109.696216,74.01875 C109.752649,74.0729169 109.780865,74.1458329 109.780865,74.2375 L109.780865,74.6625 C109.780865,74.7458338 109.752649,74.8145831 109.696216,74.86875 C109.639783,74.9229169 109.563816,74.95 109.468314,74.95 L105.313987,74.95 L105.313987,77.8375 L109.859003,77.8375 C109.954506,77.8375 110.030472,77.8645831 110.086905,77.91875 C110.143338,77.9729169 110.171555,78.0458329 110.171555,78.1375 L110.171555,78.5875 C110.171555,78.6708338 110.141168,78.7395831 110.080394,78.79375 C110.01962,78.8479169 109.945824,78.875 109.859003,78.875 L104.402379,78.875 Z M112.281276,78.875 C112.194455,78.875 112.125,78.8479169 112.072908,78.79375 C112.020816,78.7395831 111.99477,78.6708338 111.99477,78.5875 L111.99477,70.425 C111.99477,70.3333329 112.020816,70.2604169 112.072908,70.20625 C112.125,70.1520831 112.194455,70.125 112.281276,70.125 L112.854286,70.125 C112.941107,70.125 113.006221,70.1416665 113.049631,70.175 C113.093041,70.2083335 113.13645,70.2499998 113.179861,70.3 L117.542555,76.75 L117.542555,70.425 C117.542555,70.3333329 117.570772,70.2604169 117.627205,70.20625 C117.683638,70.1520831 117.755263,70.125 117.842084,70.125 L118.428117,70.125 C118.52362,70.125 118.599586,70.1520831 118.656019,70.20625 C118.712452,70.2604169 118.740669,70.3333329 118.740669,70.425 L118.740669,78.575 C118.740669,78.6583337 118.712452,78.7291664 118.656019,78.7875 C118.599586,78.8458336 118.527961,78.875 118.44114,78.875 L117.855107,78.875 C117.707512,78.875 117.60333,78.8166672 117.542555,78.7 L113.179861,72.3125 L113.179861,78.5875 C113.179861,78.6708338 113.151644,78.7395831 113.095211,78.79375 C113.038778,78.8479169 112.967152,78.875 112.880332,78.875 L112.281276,78.875 Z M121.306194,78.875 C121.219373,78.875 121.149918,78.8479169 121.097826,78.79375 C121.045734,78.7395831 121.019688,78.6708338 121.019688,78.5875 L121.019688,70.425 C121.019688,70.3333329 121.045734,70.2604169 121.097826,70.20625 C121.149918,70.1520831 121.219373,70.125 121.306194,70.125 L124.249385,70.125 C125.56037,70.125 126.506697,70.4062472 127.088392,70.96875 C127.670088,71.5312528 127.969613,72.379161 127.986977,73.5125 C127.995659,73.7541679 128,74.0791646 128,74.4875 C128,74.8958354 127.995659,75.2249988 127.986977,75.475 C127.969613,76.2666706 127.837214,76.9104142 127.589776,77.40625 C127.342339,77.9020858 126.953824,78.2708321 126.424221,78.5125 C125.894617,78.7541679 125.191384,78.875 124.3145,78.875 L121.306194,78.875 Z M124.249385,77.8375 C124.857126,77.8375 125.341142,77.7562508 125.701446,77.59375 C126.06175,77.4312492 126.322207,77.1770851 126.482824,76.83125 C126.643441,76.4854149 126.732431,76.0166696 126.749795,75.425 C126.767159,74.9249975 126.775841,74.6125006 126.775841,74.4875 C126.775841,74.354166 126.767159,74.0458358 126.749795,73.5625 C126.732431,72.7291625 126.526236,72.1187519 126.131204,71.73125 C125.736172,71.3437481 125.0872,71.15 124.18427,71.15 L122.243847,71.15 L122.243847,77.8375 L124.249385,77.8375 Z" id="MAR-’18’-—-Year-END-Copy-2" fill="#000000"></path>
                <g id="Group-3" transform="translate(0.000000, 88.000000)">
                    <g id="Group-2">
                        <polygon id="Fill-1" fill="#F38486" points="-2.84217094e-14 27 107.952405 27 107.952405 0 -2.84217094e-14 0"></polygon>
                        <polygon id="Fill-2" fill="#FFCA05" points="107 27 430.627311 27 430.627311 0 107 0"></polygon>
                        <polygon id="Fill-3" fill="#FFF100" points="429 27 476.702149 27 476.702149 0 429 0"></polygon>
                        <path d="M44.253,17.821 C44.1796663,17.821 44.1191669,17.7971669 44.0715,17.7495 C44.0238331,17.7018331 44,17.6413337 44,17.568 L44,17.238 C44,17.0693325 44.0916657,16.9080008 44.275,16.754 L46.673,14.367 C47.2156694,13.9049977 47.5896656,13.5273348 47.795,13.234 C48.0003344,12.9406652 48.103,12.6290017 48.103,12.299 C48.103,11.8663312 47.9820012,11.5271679 47.74,11.2815 C47.4979988,11.0358321 47.1460023,10.913 46.684,10.913 C46.2439978,10.913 45.8956679,11.0413321 45.639,11.298 C45.382332,11.554668 45.224667,11.8993312 45.166,12.332 C45.1513333,12.4126671 45.114667,12.4749998 45.056,12.519 C44.997333,12.5630002 44.938667,12.585 44.88,12.585 L44.352,12.585 C44.2859997,12.585 44.2310002,12.5630002 44.187,12.519 C44.1429998,12.4749998 44.121,12.423667 44.121,12.365 C44.1356667,11.9763314 44.2401657,11.6005018 44.4345,11.2375 C44.6288343,10.8744982 44.9166648,10.5775012 45.298,10.3465 C45.6793352,10.1154988 46.1413306,10 46.684,10 C47.5053374,10 48.1231646,10.2144979 48.5375,10.6435 C48.9518354,11.0725021 49.159,11.6169967 49.159,12.277 C49.159,12.7390023 49.0471678,13.1551648 48.8235,13.5255 C48.5998322,13.8958352 48.249669,14.2863313 47.773,14.697 L45.606,16.897 L49.071,16.897 C49.1516671,16.897 49.2139998,16.9189998 49.258,16.963 C49.3020002,17.0070002 49.324,17.0693329 49.324,17.15 L49.324,17.568 C49.324,17.6413337 49.3001669,17.7018331 49.2525,17.7495 C49.2048331,17.7971669 49.1443337,17.821 49.071,17.821 L44.253,17.821 Z M53.141,17.931 C52.5689971,17.931 52.0740021,17.8375009 51.656,17.6505 C51.2379979,17.4634991 50.9208344,17.2196682 50.7045,16.919 C50.4881656,16.6183318 50.3726667,16.3066683 50.358,15.984 C50.358,15.9179997 50.3799998,15.8648335 50.424,15.8245 C50.4680002,15.7841665 50.5229997,15.764 50.589,15.764 L51.084,15.764 C51.1646671,15.764 51.2306664,15.7804998 51.282,15.8135 C51.3333336,15.8465002 51.3736665,15.9106662 51.403,16.006 C51.4983338,16.3800019 51.7054984,16.6439992 52.0245,16.798 C52.3435016,16.9520008 52.7193312,17.029 53.152,17.029 C53.6800026,17.029 54.0998318,16.9025013 54.4115,16.6495 C54.7231682,16.3964987 54.879,16.0353357 54.879,15.566 C54.879,14.6713289 54.3326721,14.224 53.24,14.224 L52.206,14.224 C52.1326663,14.224 52.0721669,14.2001669 52.0245,14.1525 C51.9768331,14.1048331 51.953,14.0443337 51.953,13.971 L51.953,13.685 C51.953,13.5749995 51.9933329,13.4796671 52.074,13.399 L54.219,11.023 L50.963,11.023 C50.8896663,11.023 50.8291669,11.0010002 50.7815,10.957 C50.7338331,10.9129998 50.71,10.8543337 50.71,10.781 L50.71,10.385 C50.71,10.3043329 50.7338331,10.2401669 50.7815,10.1925 C50.8291669,10.1448331 50.8896663,10.121 50.963,10.121 L55.319,10.121 C55.3996671,10.121 55.4638331,10.1448331 55.5115,10.1925 C55.5591669,10.2401669 55.583,10.3043329 55.583,10.385 L55.583,10.748 C55.583,10.8286671 55.5463337,10.9129996 55.473,11.001 L53.328,13.41 L53.504,13.41 C54.2520037,13.4320001 54.8441645,13.6263315 55.2805,13.993 C55.7168355,14.3596685 55.935,14.8949965 55.935,15.599 C55.935,16.0830024 55.8158345,16.4991649 55.5775,16.8475 C55.3391655,17.1958351 55.0073355,17.4634991 54.582,17.6505 C54.1566645,17.8375009 53.676336,17.931 53.141,17.931 Z M58.586,13.982 C58.1093309,13.982 57.7335014,13.8555013 57.4585,13.6025 C57.1834986,13.3494987 57.0350001,12.9993356 57.013,12.552 C57.0056666,12.4273327 57.002,12.266001 57.002,12.068 C57.002,11.8553323 57.0056666,11.6830007 57.013,11.551 C57.0350001,11.0963311 57.1779987,10.735168 57.442,10.4675 C57.7060013,10.199832 58.0873308,10.066 58.586,10.066 C59.0846692,10.066 59.467832,10.199832 59.7355,10.4675 C60.003168,10.735168 60.1479999,11.0963311 60.17,11.551 C60.1846667,11.8150013 60.192,11.9873329 60.192,12.068 C60.192,12.1413337 60.1846667,12.3026654 60.17,12.552 C60.1479999,12.9993356 59.9976681,13.3494987 59.719,13.6025 C59.4403319,13.8555013 59.062669,13.982 58.586,13.982 Z M57.662,17.821 C57.5959997,17.821 57.5410002,17.8008335 57.497,17.7605 C57.4529998,17.7201665 57.431,17.6670003 57.431,17.601 C57.431,17.5569998 57.4456665,17.5166669 57.475,17.48 L62.909,10.33 C62.967667,10.2493329 63.0208331,10.1943335 63.0685,10.165 C63.1161669,10.1356665 63.1839996,10.121 63.272,10.121 L63.624,10.121 C63.6900003,10.121 63.7431665,10.1411665 63.7835,10.1815 C63.8238335,10.2218335 63.844,10.2749997 63.844,10.341 C63.844,10.3850002 63.8293335,10.4253332 63.8,10.462 L58.377,17.612 C58.318333,17.6853337 58.2651669,17.7384998 58.2175,17.7715 C58.1698331,17.8045002 58.1020004,17.821 58.014,17.821 L57.662,17.821 Z M58.586,13.311 C58.8500013,13.311 59.0443327,13.2340008 59.169,13.08 C59.2936673,12.9259992 59.3669999,12.7353345 59.389,12.508 C59.4036667,12.2439987 59.411,12.0900002 59.411,12.046 C59.411,11.9799997 59.4036667,11.8296678 59.389,11.595 C59.3743333,11.3676655 59.302834,11.1751675 59.1745,11.0175 C59.046166,10.8598325 58.8500013,10.781 58.586,10.781 C58.3219987,10.781 58.1276673,10.8598325 58.003,11.0175 C57.8783327,11.1751675 57.8086667,11.3676655 57.794,11.595 C57.7866666,11.7123339 57.783,11.8626658 57.783,12.046 C57.783,12.2220009 57.7866666,12.3759993 57.794,12.508 C57.8160001,12.7280011 57.8874994,12.9168325 58.0085,13.0745 C58.1295006,13.2321675 58.3219987,13.311 58.586,13.311 Z M62.678,17.887 C62.2013309,17.887 61.8255014,17.7513347 61.5505,17.48 C61.2754986,17.2086653 61.1270001,16.8493356 61.105,16.402 C61.0903333,16.1819989 61.083,16.0353337 61.083,15.962 C61.083,15.8886663 61.0903333,15.7053348 61.105,15.412 C61.1270001,14.9573311 61.2699987,14.596168 61.534,14.3285 C61.7980013,14.060832 62.1793308,13.927 62.678,13.927 C63.1766692,13.927 63.559832,14.060832 63.8275,14.3285 C64.095168,14.596168 64.2399999,14.9573311 64.262,15.412 C64.2766667,15.6760013 64.284,15.8446663 64.284,15.918 C64.284,15.9913337 64.2766667,16.1526654 64.262,16.402 C64.2399999,16.8493356 64.0896681,17.2086653 63.811,17.48 C63.5323319,17.7513347 63.154669,17.887 62.678,17.887 Z M62.678,17.172 C62.9420013,17.172 63.1363327,17.0950008 63.261,16.941 C63.3856673,16.7869992 63.4589999,16.5963345 63.481,16.369 C63.4956667,16.1049987 63.503,15.9473336 63.503,15.896 C63.503,15.837333 63.4956667,15.6906678 63.481,15.456 C63.4663333,15.2286655 63.394834,15.0361675 63.2665,14.8785 C63.138166,14.7208325 62.9420013,14.642 62.678,14.642 C62.4139987,14.642 62.2196673,14.7208325 62.095,14.8785 C61.9703327,15.0361675 61.9006667,15.2286655 61.886,15.456 C61.8786666,15.5733339 61.875,15.7199991 61.875,15.896 C61.875,16.0793343 61.8786666,16.2369993 61.886,16.369 C61.9006667,16.5890011 61.9703327,16.7778325 62.095,16.9355 C62.2196673,17.0931675 62.4139987,17.172 62.678,17.172 Z" id="23%" fill="#010202"></path>
                        <path d="M261.838,17.92 C261.25133,17.92 260.743502,17.8008345 260.3145,17.5625 C259.885498,17.3241655 259.559168,17.0033354 259.3355,16.6 C259.111832,16.1966647 259,15.7566691 259,15.28 C259,14.6493302 259.252997,13.9746703 259.759,13.256 L261.86,10.33 C261.867333,10.3226666 261.8875,10.2970002 261.9205,10.253 C261.9535,10.2089998 261.995666,10.1741668 262.047,10.1485 C262.098334,10.1228332 262.157,10.11 262.223,10.11 L262.762,10.11 C262.828,10.11 262.881166,10.1338331 262.9215,10.1815 C262.961834,10.2291669 262.982,10.2859997 262.982,10.352 C262.982,10.3886669 262.963667,10.436333 262.927,10.495 L261.321,12.739 C261.511668,12.6949998 261.724332,12.673 261.959,12.673 C262.494336,12.673 262.965498,12.7921655 263.3725,13.0305 C263.779502,13.2688345 264.094832,13.5841647 264.3185,13.9765 C264.542168,14.3688353 264.654,14.7996643 264.654,15.269 C264.654,15.7383357 264.542168,16.176498 264.3185,16.5835 C264.094832,16.990502 263.770335,17.3149988 263.345,17.557 C262.919665,17.7990012 262.417336,17.92 261.838,17.92 Z M261.827,17.007 C262.149668,17.007 262.446665,16.9410007 262.718,16.809 C262.989335,16.6769993 263.205666,16.4808346 263.367,16.2205 C263.528334,15.9601654 263.609,15.6466685 263.609,15.28 C263.609,14.9206649 263.526501,14.6108346 263.3615,14.3505 C263.196499,14.0901654 262.978335,13.8921673 262.707,13.7565 C262.435665,13.6208327 262.142335,13.553 261.827,13.553 C261.511665,13.553 261.218335,13.6208327 260.947,13.7565 C260.675665,13.8921673 260.459334,14.0901654 260.298,14.3505 C260.136666,14.6108346 260.056,14.9206649 260.056,15.28 C260.056,15.6466685 260.136666,15.9601654 260.298,16.2205 C260.459334,16.4808346 260.675665,16.6769993 260.947,16.809 C261.218335,16.9410007 261.511665,17.007 261.827,17.007 Z M268.548,17.92 C267.990664,17.92 267.493836,17.8265009 267.0575,17.6395 C266.621164,17.4524991 266.282001,17.1830018 266.04,16.831 C265.797999,16.4789982 265.677,16.0683357 265.677,15.599 C265.677,15.1663312 265.785166,14.786835 266.0015,14.4605 C266.217834,14.134165 266.509331,13.8830009 266.876,13.707 C266.582665,13.5383325 266.355334,13.3165014 266.194,13.0415 C266.032666,12.7664986 265.952,12.4420019 265.952,12.068 C265.952,11.4299968 266.190331,10.9258352 266.667,10.5555 C267.143669,10.1851648 267.770663,10 268.548,10 C269.325337,10 269.950498,10.1833315 270.4235,10.55 C270.896502,10.9166685 271.133,11.4226634 271.133,12.068 C271.133,12.4346685 271.052334,12.7554986 270.891,13.0305 C270.729666,13.3055014 270.506001,13.5309991 270.22,13.707 C270.586668,13.8830009 270.878166,14.134165 271.0945,14.4605 C271.310834,14.786835 271.419,15.1699978 271.419,15.61 C271.419,16.0793357 271.298001,16.4881649 271.056,16.8365 C270.813999,17.1848351 270.474836,17.4524991 270.0385,17.6395 C269.602164,17.8265009 269.105336,17.92 268.548,17.92 Z M268.548,13.322 C268.995336,13.3073333 269.372998,13.1900011 269.681,12.97 C269.989002,12.7499989 270.143,12.4566685 270.143,12.09 C270.143,11.7159981 269.990835,11.4171678 269.6865,11.1935 C269.382165,10.9698322 269.002669,10.858 268.548,10.858 C268.085998,10.858 267.704668,10.9698322 267.404,11.1935 C267.103332,11.4171678 266.953,11.7159981 266.953,12.09 C266.953,12.4640019 267.103332,12.7628322 267.404,12.9865 C267.704668,13.2101678 268.085998,13.322 268.548,13.322 Z M268.548,17.062 C269.068669,17.062 269.503165,16.9300013 269.8515,16.666 C270.199835,16.4019987 270.374,16.0500022 270.374,15.61 C270.374,15.1699978 270.199835,14.8180013 269.8515,14.554 C269.503165,14.2899987 269.068669,14.158 268.548,14.158 C268.019997,14.158 267.581835,14.2899987 267.2335,14.554 C266.885165,14.8180013 266.711,15.1699978 266.711,15.61 C266.711,16.0500022 266.885165,16.4019987 267.2335,16.666 C267.581835,16.9300013 268.019997,17.062 268.548,17.062 Z M274.158,13.971 C273.681331,13.971 273.305501,13.8445013 273.0305,13.5915 C272.755499,13.3384987 272.607,12.9883356 272.585,12.541 C272.577667,12.4163327 272.574,12.255001 272.574,12.057 C272.574,11.8443323 272.577667,11.6720007 272.585,11.54 C272.607,11.0853311 272.749999,10.724168 273.014,10.4565 C273.278001,10.188832 273.659331,10.055 274.158,10.055 C274.656669,10.055 275.039832,10.188832 275.3075,10.4565 C275.575168,10.724168 275.72,11.0853311 275.742,11.54 C275.756667,11.8040013 275.764,11.9763329 275.764,12.057 C275.764,12.1303337 275.756667,12.2916654 275.742,12.541 C275.72,12.9883356 275.569668,13.3384987 275.291,13.5915 C275.012332,13.8445013 274.634669,13.971 274.158,13.971 Z M273.234,17.81 C273.168,17.81 273.113,17.7898335 273.069,17.7495 C273.025,17.7091665 273.003,17.6560003 273.003,17.59 C273.003,17.5459998 273.017667,17.5056669 273.047,17.469 L278.481,10.319 C278.539667,10.2383329 278.592833,10.1833335 278.6405,10.154 C278.688167,10.1246665 278.756,10.11 278.844,10.11 L279.196,10.11 C279.262,10.11 279.315166,10.1301665 279.3555,10.1705 C279.395834,10.2108335 279.416,10.2639997 279.416,10.33 C279.416,10.3740002 279.401333,10.4143332 279.372,10.451 L273.949,17.601 C273.890333,17.6743337 273.837167,17.7274998 273.7895,17.7605 C273.741833,17.7935002 273.674,17.81 273.586,17.81 L273.234,17.81 Z M274.158,13.3 C274.422001,13.3 274.616333,13.2230008 274.741,13.069 C274.865667,12.9149992 274.939,12.7243345 274.961,12.497 C274.975667,12.2329987 274.983,12.0790002 274.983,12.035 C274.983,11.9689997 274.975667,11.8186678 274.961,11.584 C274.946333,11.3566655 274.874834,11.1641675 274.7465,11.0065 C274.618166,10.8488325 274.422001,10.77 274.158,10.77 C273.893999,10.77 273.699667,10.8488325 273.575,11.0065 C273.450333,11.1641675 273.380667,11.3566655 273.366,11.584 C273.358667,11.7013339 273.355,11.8516658 273.355,12.035 C273.355,12.2110009 273.358667,12.3649993 273.366,12.497 C273.388,12.7170011 273.459499,12.9058325 273.5805,13.0635 C273.701501,13.2211675 273.893999,13.3 274.158,13.3 Z M278.25,17.876 C277.773331,17.876 277.397501,17.7403347 277.1225,17.469 C276.847499,17.1976653 276.699,16.8383356 276.677,16.391 C276.662333,16.1709989 276.655,16.0243337 276.655,15.951 C276.655,15.8776663 276.662333,15.6943348 276.677,15.401 C276.699,14.9463311 276.841999,14.585168 277.106,14.3175 C277.370001,14.049832 277.751331,13.916 278.25,13.916 C278.748669,13.916 279.131832,14.049832 279.3995,14.3175 C279.667168,14.585168 279.812,14.9463311 279.834,15.401 C279.848667,15.6650013 279.856,15.8336663 279.856,15.907 C279.856,15.9803337 279.848667,16.1416654 279.834,16.391 C279.812,16.8383356 279.661668,17.1976653 279.383,17.469 C279.104332,17.7403347 278.726669,17.876 278.25,17.876 Z M278.25,17.161 C278.514001,17.161 278.708333,17.0840008 278.833,16.93 C278.957667,16.7759992 279.031,16.5853345 279.053,16.358 C279.067667,16.0939987 279.075,15.9363336 279.075,15.885 C279.075,15.826333 279.067667,15.6796678 279.053,15.445 C279.038333,15.2176655 278.966834,15.0251675 278.8385,14.8675 C278.710166,14.7098325 278.514001,14.631 278.25,14.631 C277.985999,14.631 277.791667,14.7098325 277.667,14.8675 C277.542333,15.0251675 277.472667,15.2176655 277.458,15.445 C277.450667,15.5623339 277.447,15.7089991 277.447,15.885 C277.447,16.0683343 277.450667,16.2259993 277.458,16.358 C277.472667,16.5780011 277.542333,16.7668325 277.667,16.9245 C277.791667,17.0821675 277.985999,17.161 278.25,17.161 Z" id="68%" fill="#010202"></path>
                        <path d="M446.761,17.81 C446.687666,17.81 446.629,17.7861669 446.585,17.7385 C446.541,17.6908331 446.519,17.6303337 446.519,17.557 L446.519,11.353 L444.671,12.772 C444.619666,12.8160002 444.564667,12.838 444.506,12.838 C444.44,12.838 444.377667,12.8013337 444.319,12.728 L444.055,12.387 C444.018333,12.3356664 444,12.2843336 444,12.233 C444,12.1523329 444.036666,12.0863336 444.11,12.035 L446.497,10.187 C446.577667,10.1356664 446.672999,10.11 446.783,10.11 L447.3,10.11 C447.373334,10.11 447.433833,10.1338331 447.4815,10.1815 C447.529167,10.2291669 447.553,10.2896663 447.553,10.363 L447.553,17.557 C447.553,17.6303337 447.529167,17.6908331 447.4815,17.7385 C447.433833,17.7861669 447.373334,17.81 447.3,17.81 L446.761,17.81 Z M451.876,17.92 C450.929995,17.92 450.238836,17.6431694 449.8025,17.0895 C449.366164,16.5358306 449.133333,15.8116711 449.104,14.917 L449.093,13.971 L449.104,12.992 C449.126,12.1046622 449.358831,11.3841694 449.8025,10.8305 C450.246169,10.2768306 450.937329,10 451.876,10 C452.822005,10 453.516831,10.2768306 453.9605,10.8305 C454.404169,11.3841694 454.637,12.1046622 454.659,12.992 C454.666333,13.1973344 454.67,13.5236644 454.67,13.971 C454.67,14.4036688 454.666333,14.718999 454.659,14.917 C454.629667,15.8116711 454.396836,16.5358306 453.9605,17.0895 C453.524164,17.6431694 452.829338,17.92 451.876,17.92 Z M451.876,17.007 C452.440669,17.007 452.865999,16.8200019 453.152,16.446 C453.438001,16.0719981 453.588333,15.5440034 453.603,14.862 C453.610333,14.6493323 453.614,14.345002 453.614,13.949 C453.614,13.5456647 453.610333,13.245001 453.603,13.047 C453.588333,12.37233 453.436168,11.8461686 453.1465,11.4685 C452.856832,11.0908314 452.433336,10.902 451.876,10.902 C451.318664,10.902 450.897001,11.0908314 450.611,11.4685 C450.324999,11.8461686 450.174667,12.37233 450.16,13.047 L450.149,13.949 L450.16,14.862 C450.174667,15.5440034 450.324999,16.0719981 450.611,16.446 C450.897001,16.8200019 451.318664,17.007 451.876,17.007 Z M457.486,13.971 C457.009331,13.971 456.633501,13.8445013 456.3585,13.5915 C456.083499,13.3384987 455.935,12.9883356 455.913,12.541 C455.905667,12.4163327 455.902,12.255001 455.902,12.057 C455.902,11.8443323 455.905667,11.6720007 455.913,11.54 C455.935,11.0853311 456.077999,10.724168 456.342,10.4565 C456.606001,10.188832 456.987331,10.055 457.486,10.055 C457.984669,10.055 458.367832,10.188832 458.6355,10.4565 C458.903168,10.724168 459.048,11.0853311 459.07,11.54 C459.084667,11.8040013 459.092,11.9763329 459.092,12.057 C459.092,12.1303337 459.084667,12.2916654 459.07,12.541 C459.048,12.9883356 458.897668,13.3384987 458.619,13.5915 C458.340332,13.8445013 457.962669,13.971 457.486,13.971 Z M456.562,17.81 C456.496,17.81 456.441,17.7898335 456.397,17.7495 C456.353,17.7091665 456.331,17.6560003 456.331,17.59 C456.331,17.5459998 456.345667,17.5056669 456.375,17.469 L461.809,10.319 C461.867667,10.2383329 461.920833,10.1833335 461.9685,10.154 C462.016167,10.1246665 462.084,10.11 462.172,10.11 L462.524,10.11 C462.59,10.11 462.643166,10.1301665 462.6835,10.1705 C462.723834,10.2108335 462.744,10.2639997 462.744,10.33 C462.744,10.3740002 462.729333,10.4143332 462.7,10.451 L457.277,17.601 C457.218333,17.6743337 457.165167,17.7274998 457.1175,17.7605 C457.069833,17.7935002 457.002,17.81 456.914,17.81 L456.562,17.81 Z M457.486,13.3 C457.750001,13.3 457.944333,13.2230008 458.069,13.069 C458.193667,12.9149992 458.267,12.7243345 458.289,12.497 C458.303667,12.2329987 458.311,12.0790002 458.311,12.035 C458.311,11.9689997 458.303667,11.8186678 458.289,11.584 C458.274333,11.3566655 458.202834,11.1641675 458.0745,11.0065 C457.946166,10.8488325 457.750001,10.77 457.486,10.77 C457.221999,10.77 457.027667,10.8488325 456.903,11.0065 C456.778333,11.1641675 456.708667,11.3566655 456.694,11.584 C456.686667,11.7013339 456.683,11.8516658 456.683,12.035 C456.683,12.2110009 456.686667,12.3649993 456.694,12.497 C456.716,12.7170011 456.787499,12.9058325 456.9085,13.0635 C457.029501,13.2211675 457.221999,13.3 457.486,13.3 Z M461.578,17.876 C461.101331,17.876 460.725501,17.7403347 460.4505,17.469 C460.175499,17.1976653 460.027,16.8383356 460.005,16.391 C459.990333,16.1709989 459.983,16.0243337 459.983,15.951 C459.983,15.8776663 459.990333,15.6943348 460.005,15.401 C460.027,14.9463311 460.169999,14.585168 460.434,14.3175 C460.698001,14.049832 461.079331,13.916 461.578,13.916 C462.076669,13.916 462.459832,14.049832 462.7275,14.3175 C462.995168,14.585168 463.14,14.9463311 463.162,15.401 C463.176667,15.6650013 463.184,15.8336663 463.184,15.907 C463.184,15.9803337 463.176667,16.1416654 463.162,16.391 C463.14,16.8383356 462.989668,17.1976653 462.711,17.469 C462.432332,17.7403347 462.054669,17.876 461.578,17.876 Z M461.578,17.161 C461.842001,17.161 462.036333,17.0840008 462.161,16.93 C462.285667,16.7759992 462.359,16.5853345 462.381,16.358 C462.395667,16.0939987 462.403,15.9363336 462.403,15.885 C462.403,15.826333 462.395667,15.6796678 462.381,15.445 C462.366333,15.2176655 462.294834,15.0251675 462.1665,14.8675 C462.038166,14.7098325 461.842001,14.631 461.578,14.631 C461.313999,14.631 461.119667,14.7098325 460.995,14.8675 C460.870333,15.0251675 460.800667,15.2176655 460.786,15.445 C460.778667,15.5623339 460.775,15.7089991 460.775,15.885 C460.775,16.0683343 460.778667,16.2259993 460.786,16.358 C460.800667,16.5780011 460.870333,16.7668325 460.995,16.9245 C461.119667,17.0821675 461.313999,17.161 461.578,17.161 Z" id="10%" fill="#010202"></path>
                    </g>
                </g>
                <g id="Group-6" transform="translate(0.000000, 20.000000)">
                    <polygon id="Fill-4" fill="#F38486" points="0 27 231 27 231 0 0 0"></polygon>
                    <polygon id="Fill-5" fill="#FFCA05" points="230 27 461 27 461 0 230 0"></polygon>
                    <polygon id="Fill-6" fill="#FFF100" points="460 27 478 27 478 0 460 0"></polygon>
                    <path d="M77.0326087,17.8888889 C76.9601446,17.8888889 76.9003626,17.8648151 76.8532609,17.8166667 C76.8061592,17.7685183 76.7826087,17.7074078 76.7826087,17.6333333 L76.7826087,16.0111111 L73.25,16.0111111 C73.1775359,16.0111111 73.1177539,15.9870373 73.0706522,15.9388889 C73.0235505,15.8907405 73,15.82963 73,15.7555556 L73,15.3444444 C73,15.2407402 73.0398547,15.1296302 73.1195652,15.0111111 L76.3913043,10.3 C76.4275364,10.2407404 76.4818837,10.1944446 76.5543478,10.1611111 C76.626812,10.1277776 76.7065213,10.1111111 76.7934783,10.1111111 L77.5326087,10.1111111 C77.6123192,10.1111111 77.6739128,10.1333331 77.7173913,10.1777778 C77.7608698,10.2222224 77.7826087,10.2851848 77.7826087,10.3666667 L77.7826087,15.0777778 L78.7717391,15.0777778 C78.8442033,15.0777778 78.9039853,15.1018516 78.951087,15.15 C78.9981886,15.1981484 79.0217391,15.2592589 79.0217391,15.3333333 L79.0217391,15.7555556 C79.0217391,15.82963 78.9981886,15.8907405 78.951087,15.9388889 C78.9039853,15.9870373 78.8442033,16.0111111 78.7717391,16.0111111 L77.7826087,16.0111111 L77.7826087,17.6333333 C77.7826087,17.7074078 77.7590582,17.7685183 77.7119565,17.8166667 C77.6648548,17.8648151 77.6050728,17.8888889 77.5326087,17.8888889 L77.0326087,17.8888889 Z M74.1304348,15.1 L76.7934783,15.1 L76.7934783,11.2333333 L74.1304348,15.1 Z M82.826087,18 C82.2753596,18 81.7844224,17.9055565 81.3532609,17.7166667 C80.9220993,17.5277768 80.5869577,17.2555573 80.3478261,16.9 C80.1086945,16.5444427 79.9891304,16.129632 79.9891304,15.6555556 C79.9891304,15.2185163 80.0960134,14.8351868 80.3097826,14.5055556 C80.5235518,14.1759243 80.8115924,13.9222231 81.173913,13.7444444 C80.8840565,13.5740732 80.6594211,13.3500014 80.5,13.0722222 C80.3405789,12.7944431 80.2608696,12.4666686 80.2608696,12.0888889 C80.2608696,11.4444412 80.4963745,10.9351871 80.9673913,10.5611111 C81.4384082,10.1870352 82.0579672,10 82.826087,10 C83.5942067,10 84.2119542,10.1851833 84.6793478,10.5555556 C85.1467415,10.9259278 85.3804348,11.4370338 85.3804348,12.0888889 C85.3804348,12.4592611 85.3007254,12.7833319 85.1413043,13.0611111 C84.9818833,13.3388903 84.760871,13.5666658 84.4782609,13.7444444 C84.8405815,13.9222231 85.1286221,14.1759243 85.3423913,14.5055556 C85.5561605,14.8351868 85.6630435,15.22222 85.6630435,15.6666667 C85.6630435,16.1407431 85.5434795,16.5537019 85.3043478,16.9055556 C85.0652162,17.2574092 84.7300746,17.5277768 84.298913,17.7166667 C83.8677515,17.9055565 83.3768143,18 82.826087,18 Z M82.826087,13.3555556 C83.2681182,13.3407407 83.6413028,13.2222233 83.9456522,13 C84.2500015,12.7777767 84.4021739,12.4814833 84.4021739,12.1111111 C84.4021739,11.7333314 84.2518131,11.4314826 83.951087,11.2055556 C83.6503608,10.9796285 83.2753646,10.8666667 82.826087,10.8666667 C82.3695629,10.8666667 81.9927551,10.9796285 81.6956522,11.2055556 C81.3985492,11.4314826 81.25,11.7333314 81.25,12.1111111 C81.25,12.4888908 81.3985492,12.7907396 81.6956522,13.0166667 C81.9927551,13.2425937 82.3695629,13.3555556 82.826087,13.3555556 Z M82.826087,17.1333333 C83.3405823,17.1333333 83.7699258,17.0000013 84.1141304,16.7333333 C84.4583351,16.4666653 84.6304348,16.1111133 84.6304348,15.6666667 C84.6304348,15.22222 84.4583351,14.866668 84.1141304,14.6 C83.7699258,14.333332 83.3405823,14.2 82.826087,14.2 C82.3043452,14.2 81.8713785,14.333332 81.5271739,14.6 C81.1829693,14.866668 81.0108696,15.22222 81.0108696,15.6666667 C81.0108696,16.1111133 81.1829693,16.4666653 81.5271739,16.7333333 C81.8713785,17.0000013 82.3043452,17.1333333 82.826087,17.1333333 Z M88.3695652,14.0111111 C87.8985484,14.0111111 87.5271753,13.8833346 87.2554348,13.6277778 C86.9836943,13.3722209 86.8369566,13.0185208 86.8152174,12.5666667 C86.807971,12.4407401 86.8043478,12.2777788 86.8043478,12.0777778 C86.8043478,11.8629619 86.807971,11.6888896 86.8152174,11.5555556 C86.8369566,11.096294 86.9782596,10.7314828 87.2391304,10.4611111 C87.5000013,10.1907394 87.8768091,10.0555556 88.3695652,10.0555556 C88.8623213,10.0555556 89.2409407,10.1907394 89.5054348,10.4611111 C89.7699289,10.7314828 89.9130434,11.096294 89.9347826,11.5555556 C89.9492754,11.8222236 89.9565217,11.9962959 89.9565217,12.0777778 C89.9565217,12.1518522 89.9492754,12.3148136 89.9347826,12.5666667 C89.9130434,13.0185208 89.7644941,13.3722209 89.4891304,13.6277778 C89.2137667,13.8833346 88.8405821,14.0111111 88.3695652,14.0111111 Z M87.4565217,17.8888889 C87.391304,17.8888889 87.3369567,17.8685187 87.2934783,17.8277778 C87.2499998,17.7870368 87.2282609,17.7333337 87.2282609,17.6666667 C87.2282609,17.622222 87.2427535,17.5814817 87.2717391,17.5444444 L92.6413043,10.3222222 C92.6992757,10.2407403 92.7518114,10.1851853 92.798913,10.1555556 C92.8460147,10.1259258 92.913043,10.1111111 93,10.1111111 L93.3478261,10.1111111 C93.4130438,10.1111111 93.4655795,10.1314813 93.5054348,10.1722222 C93.5452901,10.2129632 93.5652174,10.2666663 93.5652174,10.3333333 C93.5652174,10.377778 93.5507248,10.4185183 93.5217391,10.4555556 L88.1630435,17.6777778 C88.1050722,17.7518522 88.0525365,17.8055554 88.0054348,17.8388889 C87.9583331,17.8722224 87.8913048,17.8888889 87.8043478,17.8888889 L87.4565217,17.8888889 Z M88.3695652,13.3333333 C88.6304361,13.3333333 88.8224632,13.2555563 88.9456522,13.1 C89.0688412,12.9444437 89.1413042,12.751853 89.1630435,12.5222222 C89.1775363,12.2555542 89.1847826,12.1000002 89.1847826,12.0555556 C89.1847826,11.9888886 89.1775363,11.8370382 89.1630435,11.6 C89.1485507,11.3703692 89.0778992,11.1759267 88.951087,11.0166667 C88.8242747,10.8574066 88.6304361,10.7777778 88.3695652,10.7777778 C88.1086943,10.7777778 87.9166673,10.8574066 87.7934783,11.0166667 C87.6702892,11.1759267 87.6014493,11.3703692 87.5869565,11.6 C87.5797101,11.7185191 87.576087,11.8703694 87.576087,12.0555556 C87.576087,12.2333342 87.5797101,12.3888882 87.5869565,12.5222222 C87.6086958,12.7444456 87.6793472,12.9351844 87.798913,13.0944444 C87.9184789,13.2537045 88.1086943,13.3333333 88.3695652,13.3333333 Z M92.4130435,17.9555556 C91.9420266,17.9555556 91.5706535,17.8185199 91.298913,17.5444444 C91.0271726,17.270369 90.8804349,16.9074097 90.8586957,16.4555556 C90.8442028,16.2333322 90.8369565,16.0851856 90.8369565,16.0111111 C90.8369565,15.9370367 90.8442028,15.7518533 90.8586957,15.4555556 C90.8804349,14.996294 91.0217378,14.6314828 91.2826087,14.3611111 C91.5434796,14.0907394 91.9202874,13.9555556 92.4130435,13.9555556 C92.9057996,13.9555556 93.284419,14.0907394 93.548913,14.3611111 C93.8134071,14.6314828 93.9565216,14.996294 93.9782609,15.4555556 C93.9927537,15.7222236 94,15.8925922 94,15.9666667 C94,16.0407411 93.9927537,16.2037024 93.9782609,16.4555556 C93.9565216,16.9074097 93.8079724,17.270369 93.5326087,17.5444444 C93.257245,17.8185199 92.8840603,17.9555556 92.4130435,17.9555556 Z M92.4130435,17.2333333 C92.6739143,17.2333333 92.8659414,17.1555563 92.9891304,17 C93.1123195,16.8444437 93.1847825,16.651853 93.2065217,16.4222222 C93.2210146,16.1555542 93.2282609,15.9962966 93.2282609,15.9444444 C93.2282609,15.8851849 93.2210146,15.7370382 93.2065217,15.5 C93.1920289,15.2703692 93.1213774,15.0759267 92.9945652,14.9166667 C92.867753,14.7574066 92.6739143,14.6777778 92.4130435,14.6777778 C92.1521726,14.6777778 91.9601455,14.7574066 91.8369565,14.9166667 C91.7137675,15.0759267 91.6449276,15.2703692 91.6304348,15.5 C91.6231884,15.6185191 91.6195652,15.7666658 91.6195652,15.9444444 C91.6195652,16.1296306 91.6231884,16.2888882 91.6304348,16.4222222 C91.6449276,16.6444456 91.7137675,16.8351844 91.8369565,16.9944444 C91.9601455,17.1537045 92.1521726,17.2333333 92.4130435,17.2333333 Z" id="48%" fill="#010202"></path>
                    <path d="M324.032609,17.8888889 C323.960145,17.8888889 323.900363,17.8648151 323.853261,17.8166667 C323.806159,17.7685183 323.782609,17.7074078 323.782609,17.6333333 L323.782609,16.0111111 L320.25,16.0111111 C320.177536,16.0111111 320.117754,15.9870373 320.070652,15.9388889 C320.02355,15.8907405 320,15.82963 320,15.7555556 L320,15.3444444 C320,15.2407402 320.039855,15.1296302 320.119565,15.0111111 L323.391304,10.3 C323.427536,10.2407404 323.481884,10.1944446 323.554348,10.1611111 C323.626812,10.1277776 323.706521,10.1111111 323.793478,10.1111111 L324.532609,10.1111111 C324.612319,10.1111111 324.673913,10.1333331 324.717391,10.1777778 C324.76087,10.2222224 324.782609,10.2851848 324.782609,10.3666667 L324.782609,15.0777778 L325.771739,15.0777778 C325.844203,15.0777778 325.903985,15.1018516 325.951087,15.15 C325.998189,15.1981484 326.021739,15.2592589 326.021739,15.3333333 L326.021739,15.7555556 C326.021739,15.82963 325.998189,15.8907405 325.951087,15.9388889 C325.903985,15.9870373 325.844203,16.0111111 325.771739,16.0111111 L324.782609,16.0111111 L324.782609,17.6333333 C324.782609,17.7074078 324.759058,17.7685183 324.711957,17.8166667 C324.664855,17.8648151 324.605073,17.8888889 324.532609,17.8888889 L324.032609,17.8888889 Z M321.130435,15.1 L323.793478,15.1 L323.793478,11.2333333 L321.130435,15.1 Z M329.826087,18 C329.27536,18 328.784422,17.9055565 328.353261,17.7166667 C327.922099,17.5277768 327.586958,17.2555573 327.347826,16.9 C327.108694,16.5444427 326.98913,16.129632 326.98913,15.6555556 C326.98913,15.2185163 327.096013,14.8351868 327.309783,14.5055556 C327.523552,14.1759243 327.811592,13.9222231 328.173913,13.7444444 C327.884057,13.5740732 327.659421,13.3500014 327.5,13.0722222 C327.340579,12.7944431 327.26087,12.4666686 327.26087,12.0888889 C327.26087,11.4444412 327.496374,10.9351871 327.967391,10.5611111 C328.438408,10.1870352 329.057967,10 329.826087,10 C330.594207,10 331.211954,10.1851833 331.679348,10.5555556 C332.146741,10.9259278 332.380435,11.4370338 332.380435,12.0888889 C332.380435,12.4592611 332.300725,12.7833319 332.141304,13.0611111 C331.981883,13.3388903 331.760871,13.5666658 331.478261,13.7444444 C331.840582,13.9222231 332.128622,14.1759243 332.342391,14.5055556 C332.55616,14.8351868 332.663043,15.22222 332.663043,15.6666667 C332.663043,16.1407431 332.543479,16.5537019 332.304348,16.9055556 C332.065216,17.2574092 331.730075,17.5277768 331.298913,17.7166667 C330.867751,17.9055565 330.376814,18 329.826087,18 Z M329.826087,13.3555556 C330.268118,13.3407407 330.641303,13.2222233 330.945652,13 C331.250002,12.7777767 331.402174,12.4814833 331.402174,12.1111111 C331.402174,11.7333314 331.251813,11.4314826 330.951087,11.2055556 C330.650361,10.9796285 330.275365,10.8666667 329.826087,10.8666667 C329.369563,10.8666667 328.992755,10.9796285 328.695652,11.2055556 C328.398549,11.4314826 328.25,11.7333314 328.25,12.1111111 C328.25,12.4888908 328.398549,12.7907396 328.695652,13.0166667 C328.992755,13.2425937 329.369563,13.3555556 329.826087,13.3555556 Z M329.826087,17.1333333 C330.340582,17.1333333 330.769926,17.0000013 331.11413,16.7333333 C331.458335,16.4666653 331.630435,16.1111133 331.630435,15.6666667 C331.630435,15.22222 331.458335,14.866668 331.11413,14.6 C330.769926,14.333332 330.340582,14.2 329.826087,14.2 C329.304345,14.2 328.871379,14.333332 328.527174,14.6 C328.182969,14.866668 328.01087,15.22222 328.01087,15.6666667 C328.01087,16.1111133 328.182969,16.4666653 328.527174,16.7333333 C328.871379,17.0000013 329.304345,17.1333333 329.826087,17.1333333 Z M335.369565,14.0111111 C334.898548,14.0111111 334.527175,13.8833346 334.255435,13.6277778 C333.983694,13.3722209 333.836957,13.0185208 333.815217,12.5666667 C333.807971,12.4407401 333.804348,12.2777788 333.804348,12.0777778 C333.804348,11.8629619 333.807971,11.6888896 333.815217,11.5555556 C333.836957,11.096294 333.97826,10.7314828 334.23913,10.4611111 C334.500001,10.1907394 334.876809,10.0555556 335.369565,10.0555556 C335.862321,10.0555556 336.240941,10.1907394 336.505435,10.4611111 C336.769929,10.7314828 336.913043,11.096294 336.934783,11.5555556 C336.949275,11.8222236 336.956522,11.9962959 336.956522,12.0777778 C336.956522,12.1518522 336.949275,12.3148136 336.934783,12.5666667 C336.913043,13.0185208 336.764494,13.3722209 336.48913,13.6277778 C336.213767,13.8833346 335.840582,14.0111111 335.369565,14.0111111 Z M334.456522,17.8888889 C334.391304,17.8888889 334.336957,17.8685187 334.293478,17.8277778 C334.25,17.7870368 334.228261,17.7333337 334.228261,17.6666667 C334.228261,17.622222 334.242753,17.5814817 334.271739,17.5444444 L339.641304,10.3222222 C339.699276,10.2407403 339.751811,10.1851853 339.798913,10.1555556 C339.846015,10.1259258 339.913043,10.1111111 340,10.1111111 L340.347826,10.1111111 C340.413044,10.1111111 340.46558,10.1314813 340.505435,10.1722222 C340.54529,10.2129632 340.565217,10.2666663 340.565217,10.3333333 C340.565217,10.377778 340.550725,10.4185183 340.521739,10.4555556 L335.163043,17.6777778 C335.105072,17.7518522 335.052536,17.8055554 335.005435,17.8388889 C334.958333,17.8722224 334.891305,17.8888889 334.804348,17.8888889 L334.456522,17.8888889 Z M335.369565,13.3333333 C335.630436,13.3333333 335.822463,13.2555563 335.945652,13.1 C336.068841,12.9444437 336.141304,12.751853 336.163043,12.5222222 C336.177536,12.2555542 336.184783,12.1000002 336.184783,12.0555556 C336.184783,11.9888886 336.177536,11.8370382 336.163043,11.6 C336.148551,11.3703692 336.077899,11.1759267 335.951087,11.0166667 C335.824275,10.8574066 335.630436,10.7777778 335.369565,10.7777778 C335.108694,10.7777778 334.916667,10.8574066 334.793478,11.0166667 C334.670289,11.1759267 334.601449,11.3703692 334.586957,11.6 C334.57971,11.7185191 334.576087,11.8703694 334.576087,12.0555556 C334.576087,12.2333342 334.57971,12.3888882 334.586957,12.5222222 C334.608696,12.7444456 334.679347,12.9351844 334.798913,13.0944444 C334.918479,13.2537045 335.108694,13.3333333 335.369565,13.3333333 Z M339.413043,17.9555556 C338.942027,17.9555556 338.570654,17.8185199 338.298913,17.5444444 C338.027173,17.270369 337.880435,16.9074097 337.858696,16.4555556 C337.844203,16.2333322 337.836957,16.0851856 337.836957,16.0111111 C337.836957,15.9370367 337.844203,15.7518533 337.858696,15.4555556 C337.880435,14.996294 338.021738,14.6314828 338.282609,14.3611111 C338.54348,14.0907394 338.920287,13.9555556 339.413043,13.9555556 C339.9058,13.9555556 340.284419,14.0907394 340.548913,14.3611111 C340.813407,14.6314828 340.956522,14.996294 340.978261,15.4555556 C340.992754,15.7222236 341,15.8925922 341,15.9666667 C341,16.0407411 340.992754,16.2037024 340.978261,16.4555556 C340.956522,16.9074097 340.807972,17.270369 340.532609,17.5444444 C340.257245,17.8185199 339.88406,17.9555556 339.413043,17.9555556 Z M339.413043,17.2333333 C339.673914,17.2333333 339.865941,17.1555563 339.98913,17 C340.112319,16.8444437 340.184782,16.651853 340.206522,16.4222222 C340.221015,16.1555542 340.228261,15.9962966 340.228261,15.9444444 C340.228261,15.8851849 340.221015,15.7370382 340.206522,15.5 C340.192029,15.2703692 340.121377,15.0759267 339.994565,14.9166667 C339.867753,14.7574066 339.673914,14.6777778 339.413043,14.6777778 C339.152173,14.6777778 338.960146,14.7574066 338.836957,14.9166667 C338.713768,15.0759267 338.644928,15.2703692 338.630435,15.5 C338.623188,15.6185191 338.619565,15.7666658 338.619565,15.9444444 C338.619565,16.1296306 338.623188,16.2888882 338.630435,16.4222222 C338.644928,16.6444456 338.713768,16.8351844 338.836957,16.9944444 C338.960146,17.1537045 339.152173,17.2333333 339.413043,17.2333333 Z" id="48%" fill="#010202"></path>
                    <path d="M485.001541,17.9324895 C484.929635,17.9324895 484.870314,17.9081109 484.823575,17.859353 C484.776836,17.8105952 484.753467,17.7487111 484.753467,17.673699 L484.753467,16.0309423 L481.248074,16.0309423 C481.176168,16.0309423 481.116847,16.0065638 481.070108,15.9578059 C481.023369,15.909048 481,15.847164 481,15.7721519 L481,15.3558368 C481,15.2508199 481.039548,15.1383035 481.118644,15.0182841 L484.365177,10.2475387 C484.40113,10.187529 484.455059,10.1406471 484.526965,10.1068917 C484.59887,10.0731363 484.677966,10.0562588 484.764253,10.0562588 L485.497689,10.0562588 C485.576785,10.0562588 485.637904,10.0787621 485.681048,10.1237693 C485.724191,10.1687766 485.745763,10.2325359 485.745763,10.3150492 L485.745763,15.0857947 L486.727273,15.0857947 C486.799179,15.0857947 486.8585,15.1101732 486.905239,15.1589311 C486.951978,15.2076889 486.975347,15.269573 486.975347,15.3445851 L486.975347,15.7721519 C486.975347,15.847164 486.951978,15.909048 486.905239,15.9578059 C486.8585,16.0065638 486.799179,16.0309423 486.727273,16.0309423 L485.745763,16.0309423 L485.745763,17.673699 C485.745763,17.7487111 485.722394,17.8105952 485.675655,17.859353 C485.628916,17.9081109 485.569595,17.9324895 485.497689,17.9324895 L485.001541,17.9324895 Z M482.121726,15.1082982 L484.764253,15.1082982 L484.764253,11.1926864 L482.121726,15.1082982 Z M489.412943,14.0056259 C488.945555,14.0056259 488.577043,13.876232 488.307396,13.6174402 C488.037749,13.3586485 487.892142,13.0004711 487.87057,12.5428973 C487.86338,12.4153768 487.859784,12.2503526 487.859784,12.04782 C487.859784,11.8302849 487.86338,11.6540091 487.87057,11.5189873 C487.892142,11.0539123 488.032356,10.6844833 488.291217,10.4106892 C488.550078,10.136895 488.923983,10 489.412943,10 C489.901903,10 490.277605,10.136895 490.540062,10.4106892 C490.802518,10.6844833 490.94453,11.0539123 490.966102,11.5189873 C490.980483,11.7890309 490.987673,11.9653067 490.987673,12.04782 C490.987673,12.1228321 490.980483,12.2878562 490.966102,12.5428973 C490.94453,13.0004711 490.797125,13.3586485 490.523883,13.6174402 C490.250641,13.876232 489.880331,14.0056259 489.412943,14.0056259 Z M488.506934,17.9324895 C488.442218,17.9324895 488.38829,17.9118614 488.345146,17.8706048 C488.302003,17.8293481 488.280431,17.7749652 488.280431,17.7074543 C488.280431,17.662447 488.294812,17.621191 488.323575,17.583685 L493.651772,10.2700422 C493.709297,10.1875289 493.761428,10.1312707 493.808166,10.1012658 C493.854905,10.071261 493.921417,10.0562588 494.007704,10.0562588 L494.352851,10.0562588 C494.417566,10.0562588 494.469697,10.0768868 494.509245,10.1181435 C494.548793,10.1594001 494.568567,10.2137831 494.568567,10.281294 C494.568567,10.3263012 494.554186,10.3675572 494.525424,10.4050633 L489.208012,17.718706 C489.150488,17.7937181 489.098357,17.8481011 489.051618,17.8818565 C489.004879,17.915612 488.938367,17.9324895 488.85208,17.9324895 L488.506934,17.9324895 Z M489.412943,13.3192686 C489.671804,13.3192686 489.862352,13.2405071 489.984592,13.0829817 C490.106832,12.9254563 490.178736,12.7304278 490.200308,12.4978903 C490.214689,12.2278468 490.22188,12.0703237 490.22188,12.0253165 C490.22188,11.9578056 490.214689,11.8040331 490.200308,11.5639944 C490.185927,11.3314569 490.11582,11.1345531 489.989985,10.9732771 C489.864149,10.8120011 489.671804,10.7313643 489.412943,10.7313643 C489.154082,10.7313643 488.963534,10.8120011 488.841294,10.9732771 C488.719054,11.1345531 488.650745,11.3314569 488.636364,11.5639944 C488.629173,11.6840137 488.625578,11.8377862 488.625578,12.0253165 C488.625578,12.2053455 488.629173,12.3628685 488.636364,12.4978903 C488.657935,12.7229266 488.728043,12.9160798 488.846687,13.0773558 C488.965332,13.2386318 489.154082,13.3192686 489.412943,13.3192686 Z M493.42527,18 C492.957882,18 492.58937,17.8612297 492.319723,17.583685 C492.050076,17.3061402 491.904469,16.9385864 491.882897,16.4810127 C491.868516,16.2559764 491.861325,16.1059544 491.861325,16.0309423 C491.861325,15.9559302 491.868516,15.7684028 491.882897,15.4683544 C491.904469,15.0032794 492.044683,14.6338504 492.303544,14.3600563 C492.562405,14.0862621 492.93631,13.9493671 493.42527,13.9493671 C493.914229,13.9493671 494.289932,14.0862621 494.552388,14.3600563 C494.814845,14.6338504 494.956857,15.0032794 494.978428,15.4683544 C494.99281,15.738398 495,15.9109232 495,15.9859353 C495,16.0609474 494.99281,16.2259715 494.978428,16.4810127 C494.956857,16.9385864 494.809452,17.3061402 494.53621,17.583685 C494.262967,17.8612297 493.892658,18 493.42527,18 Z M493.42527,17.2686357 C493.684131,17.2686357 493.874678,17.1898742 493.996918,17.0323488 C494.119158,16.8748234 494.191063,16.6797949 494.212635,16.4472574 C494.227016,16.1772138 494.234206,16.0159403 494.234206,15.9634318 C494.234206,15.9034221 494.227016,15.7534002 494.212635,15.5133615 C494.198254,15.280824 494.128146,15.0839202 494.002311,14.9226442 C493.876476,14.7613682 493.684131,14.6807314 493.42527,14.6807314 C493.166409,14.6807314 492.975861,14.7613682 492.853621,14.9226442 C492.731381,15.0839202 492.663071,15.280824 492.64869,15.5133615 C492.6415,15.6333808 492.637904,15.7834028 492.637904,15.9634318 C492.637904,16.150962 492.6415,16.3122356 492.64869,16.4472574 C492.663071,16.6722937 492.731381,16.8654469 492.853621,17.0267229 C492.975861,17.1879989 493.166409,17.2686357 493.42527,17.2686357 Z" id="4%" fill="#010202"></path>
                </g>
            </g>
        </g>
    </g>
</svg>