<?xml version="1.0" encoding="UTF-8"?>
<svg width="481px" height="115px" viewBox="0 0 481 115" version="1.1" xmlns="http://www.w3.org/2000/svg" xmlns:xlink="http://www.w3.org/1999/xlink">
    <!-- Generator: Sketch 52.2 (67145) - http://www.bohemiancoding.com/sketch -->
    <title>Progressive pedagogy</title>
    <desc>Created with Sketch.</desc>
    <g id="Page-1" stroke="none" stroke-width="1" fill="none" fill-rule="evenodd">
        <g id="Graphs" transform="translate(-140.000000, -109.000000)">
            <g id="Progressive-pedagogy" transform="translate(140.000000, 109.000000)">
                <path d="M3.49003215,9 C2.77813149,9 2.15956854,8.89166775 1.63432476,8.675 C1.10908098,8.45833225 0.709728055,8.17291844 0.436254019,7.81875 C0.162779983,7.46458156 0.0173634309,7.08333538 0,6.675 C0,6.608333 0.0260447556,6.55000025 0.0781350482,6.5 C0.130225341,6.44999975 0.19533723,6.425 0.273472669,6.425 L0.911575563,6.425 C1.06784644,6.425 1.17636626,6.5083325 1.23713826,6.675 C1.3152737,7.02500175 1.53882452,7.32708206 1.90779743,7.58125 C2.27677033,7.83541794 2.80417664,7.9625 3.49003215,7.9625 C4.22797797,7.9625 4.77925863,7.83750125 5.14389068,7.5875 C5.50852272,7.33749875 5.69083601,6.99166888 5.69083601,6.55 C5.69083601,6.26666525 5.60184976,6.03333425 5.4238746,5.85 C5.24589943,5.66666575 4.98111108,5.50625069 4.62950161,5.36875 C4.27789213,5.23124931 3.75048583,5.062501 3.04726688,4.8625 C2.37877479,4.67916575 1.8470277,4.48333438 1.45200965,4.275 C1.05699159,4.06666562 0.759647301,3.81041819 0.559967846,3.50625 C0.360288391,3.20208181 0.260450161,2.816669 0.260450161,2.35 C0.260450161,1.89999775 0.386333146,1.49791844 0.638102894,1.14375 C0.889872641,0.789581562 1.25449922,0.510417687 1.73199357,0.30625 C2.20948792,0.102082313 2.77379096,0 3.42491961,0 C4.10209342,0 4.68158923,0.114582188 5.16342444,0.34375 C5.64525964,0.572917813 6.01205662,0.860414937 6.26382637,1.20625 C6.51559611,1.55208506 6.65016068,1.89999825 6.66752412,2.25 C6.66752412,2.32500038 6.64147936,2.38749975 6.58938907,2.4375 C6.53729877,2.48750025 6.47218689,2.5125 6.39405145,2.5125 L5.74292605,2.5125 C5.67347232,2.5125 5.60836043,2.49166688 5.54758842,2.45 C5.48681642,2.40833313 5.44340849,2.34583375 5.41736334,2.2625 C5.36527305,1.90416487 5.15691501,1.6083345 4.79228296,1.375 C4.42765091,1.1416655 3.97186769,1.025 3.42491961,1.025 C2.83456296,1.025 2.36575736,1.13541556 2.01848875,1.35625 C1.67122013,1.57708444 1.49758842,1.9041645 1.49758842,2.3375 C1.49758842,2.62916812 1.57789309,2.86666575 1.73850482,3.05 C1.89911656,3.23333425 2.14654174,3.39583263 2.48078778,3.5375 C2.81503383,3.67916738 3.30337299,3.84166575 3.94581994,4.025 C4.68376575,4.225001 5.26326156,4.424999 5.68432476,4.625 C6.10538796,4.825001 6.42009542,5.07291519 6.62845659,5.36875 C6.83681776,5.66458481 6.94099678,6.045831 6.94099678,6.5125 C6.94099678,7.29583725 6.63063011,7.90624781 6.00988746,8.34375 C5.38914481,8.78125219 4.54920144,9 3.49003215,9 Z M8.94646302,8.875 C8.85964587,8.875 8.79019319,8.84791694 8.73810289,8.79375 C8.6860126,8.73958306 8.65996785,8.67083375 8.65996785,8.5875 L8.65996785,0.425 C8.65996785,0.333332875 8.6860126,0.260416938 8.73810289,0.20625 C8.79019319,0.152083063 8.85964587,0.125 8.94646302,0.125 L14.2987138,0.125 C14.3942127,0.125 14.4701766,0.152083063 14.5266077,0.20625 C14.5830389,0.260416938 14.611254,0.333332875 14.611254,0.425 L14.611254,0.875 C14.611254,0.95833375 14.5830389,1.02499975 14.5266077,1.075 C14.4701766,1.12500025 14.3942127,1.15 14.2987138,1.15 L9.85803859,1.15 L9.85803859,3.9375 L14.0122186,3.9375 C14.1077175,3.9375 14.1836814,3.96458306 14.2401125,4.01875 C14.2965437,4.07291694 14.3247588,4.14583287 14.3247588,4.2375 L14.3247588,4.6625 C14.3247588,4.74583375 14.2965437,4.81458306 14.2401125,4.86875 C14.1836814,4.92291694 14.1077175,4.95 14.0122186,4.95 L9.85803859,4.95 L9.85803859,7.8375 L14.4028939,7.8375 C14.4983928,7.8375 14.5743566,7.86458306 14.6307878,7.91875 C14.6872189,7.97291694 14.7154341,8.04583288 14.7154341,8.1375 L14.7154341,8.5875 C14.7154341,8.67083375 14.6850485,8.73958306 14.6242765,8.79375 C14.5635045,8.84791694 14.489711,8.875 14.4028939,8.875 L8.94646302,8.875 Z M16.8250804,8.875 C16.7382632,8.875 16.6688105,8.84791694 16.6167203,8.79375 C16.56463,8.73958306 16.5385852,8.67083375 16.5385852,8.5875 L16.5385852,0.425 C16.5385852,0.333332875 16.56463,0.260416938 16.6167203,0.20625 C16.6688105,0.152083063 16.7382632,0.125 16.8250804,0.125 L20.1197749,0.125 C21.1008088,0.125 21.8712995,0.352081062 22.4312701,0.80625 C22.9912407,1.26041894 23.2712219,1.920829 23.2712219,2.7875 C23.2712219,3.654171 22.9912407,4.31249775 22.4312701,4.7625 C21.8712995,5.21250225 21.1008088,5.4375 20.1197749,5.4375 L17.7757235,5.4375 L17.7757235,8.5875 C17.7757235,8.67083375 17.7475083,8.73958306 17.6910772,8.79375 C17.634646,8.84791694 17.5630229,8.875 17.4762058,8.875 L16.8250804,8.875 Z M20.0546624,4.425 C21.3656014,4.425 22.0210611,3.87917213 22.0210611,2.7875 C22.0210611,2.254164 21.8582814,1.84583475 21.532717,1.5625 C21.2071527,1.27916525 20.7144728,1.1375 20.0546624,1.1375 L17.7757235,1.1375 L17.7757235,4.425 L20.0546624,4.425 Z M27.5946945,2.375 C27.5252408,2.375 27.4731513,2.35208356 27.4384244,2.30625 C27.4036976,2.26041644 27.3906752,2.19583375 27.3993569,2.1125 L27.6858521,0.3625 C27.720579,0.120832125 27.8421211,0 28.0504823,0 L28.8839228,0 C28.9446948,0 28.994614,0.020833125 29.0336817,0.0625 C29.0727494,0.104166875 29.092283,0.154166375 29.092283,0.2125 C29.092283,0.29583375 29.0792606,0.36249975 29.0532154,0.4125 L28.376045,2.1 C28.3326364,2.19166713 28.2848877,2.26041644 28.2327974,2.30625 C28.1807071,2.35208356 28.1025729,2.375 27.9983923,2.375 L27.5946945,2.375 Z M33.194373,8.875 C33.1075558,8.875 33.0381032,8.84791694 32.9860129,8.79375 C32.9339226,8.73958306 32.9078778,8.67083375 32.9078778,8.5875 L32.9078778,1.5375 L30.7200965,3.15 C30.6593245,3.20000025 30.5942126,3.225 30.5247588,3.225 C30.4466234,3.225 30.3728299,3.18333375 30.3033762,3.1 L29.990836,2.7125 C29.9474274,2.65416637 29.9257235,2.59583362 29.9257235,2.5375 C29.9257235,2.44583287 29.9691314,2.37083363 30.0559486,2.3125 L32.8818328,0.2125 C32.9773317,0.154166375 33.0901923,0.125 33.220418,0.125 L33.8324759,0.125 C33.919293,0.125 33.9909161,0.152083063 34.0473473,0.20625 C34.1037784,0.260416938 34.1319936,0.32916625 34.1319936,0.4125 L34.1319936,8.5875 C34.1319936,8.67083375 34.1037784,8.73958306 34.0473473,8.79375 C33.9909161,8.84791694 33.919293,8.875 33.8324759,8.875 L33.194373,8.875 Z M37.0881029,8.875 C37.0099675,8.875 36.947026,8.84791694 36.8992765,8.79375 C36.8515271,8.73958306 36.8276527,8.67500038 36.8276527,8.6 L36.8536977,8.4875 L40.1093248,1.175 L35.8118971,1.175 C35.72508,1.175 35.6534569,1.14791694 35.5970257,1.09375 C35.5405946,1.03958306 35.5123794,0.97083375 35.5123794,0.8875 L35.5123794,0.425 C35.5123794,0.333332875 35.5384242,0.260416938 35.5905145,0.20625 C35.6426048,0.152083063 35.7163982,0.125 35.8118971,0.125 L41.1250804,0.125 C41.2205793,0.125 41.2943727,0.152083063 41.346463,0.20625 C41.3985533,0.260416938 41.4245981,0.333332875 41.4245981,0.425 L41.4245981,0.85 C41.4245981,1.00000075 41.3898717,1.16249913 41.320418,1.3375 L38.1038585,8.5625 C38.0604499,8.65416713 38.0127012,8.72916637 37.9606109,8.7875 C37.9085206,8.84583363 37.8347272,8.875 37.7392283,8.875 L37.0881029,8.875 Z M46.1778135,5.625 C46.0909964,5.625 46.0193733,5.60000025 45.9629421,5.55 C45.906511,5.49999975 45.8782958,5.43333375 45.8782958,5.35 L45.8782958,4.9 C45.8782958,4.81666625 45.906511,4.74791694 45.9629421,4.69375 C46.0193733,4.63958306 46.0909964,4.6125 46.1778135,4.6125 L53.7308682,4.6125 C53.8176853,4.6125 53.8893084,4.63958306 53.9457395,4.69375 C54.0021707,4.74791694 54.0303859,4.81666625 54.0303859,4.9 L54.0303859,5.35 C54.0303859,5.43333375 54.0021707,5.49999975 53.9457395,5.55 C53.8893084,5.60000025 53.8176853,5.625 53.7308682,5.625 L46.1778135,5.625 Z M61.622508,8.875 C61.5356909,8.875 61.4640678,8.84791694 61.4076367,8.79375 C61.3512055,8.73958306 61.3229904,8.67083375 61.3229904,8.5875 L61.3229904,5.625 L58.1845659,0.5375 C58.1585208,0.48749975 58.1454984,0.433333625 58.1454984,0.375 C58.1454984,0.308333 58.1715431,0.25000025 58.2236334,0.2 C58.2757237,0.14999975 58.3364948,0.125 58.4059486,0.125 L59.0310289,0.125 C59.1872998,0.125 59.3001604,0.195832625 59.3696141,0.3375 L61.9480707,4.425 L64.5135048,0.3375 C64.600322,0.195832625 64.7131826,0.125 64.85209,0.125 L65.4771704,0.125 C65.5466241,0.125 65.6095656,0.14999975 65.6659968,0.2 C65.7224279,0.25000025 65.7506431,0.308333 65.7506431,0.375 C65.7506431,0.416666875 65.7332799,0.470833 65.6985531,0.5375 L62.5601286,5.625 L62.5601286,8.5875 C62.5601286,8.67083375 62.5319135,8.73958306 62.4754823,8.79375 C62.4190512,8.84791694 62.3430873,8.875 62.2475884,8.875 L61.622508,8.875 Z M67.5737942,8.875 C67.4869771,8.875 67.4175244,8.84791694 67.3654341,8.79375 C67.3133438,8.73958306 67.287299,8.67083375 67.287299,8.5875 L67.287299,0.425 C67.287299,0.333332875 67.3133438,0.260416938 67.3654341,0.20625 C67.4175244,0.152083063 67.4869771,0.125 67.5737942,0.125 L72.926045,0.125 C73.0215439,0.125 73.0975078,0.152083063 73.1539389,0.20625 C73.2103701,0.260416938 73.2385852,0.333332875 73.2385852,0.425 L73.2385852,0.875 C73.2385852,0.95833375 73.2103701,1.02499975 73.1539389,1.075 C73.0975078,1.12500025 73.0215439,1.15 72.926045,1.15 L68.4853698,1.15 L68.4853698,3.9375 L72.6395498,3.9375 C72.7350487,3.9375 72.8110126,3.96458306 72.8674437,4.01875 C72.9238749,4.07291694 72.95209,4.14583287 72.95209,4.2375 L72.95209,4.6625 C72.95209,4.74583375 72.9238749,4.81458306 72.8674437,4.86875 C72.8110126,4.92291694 72.7350487,4.95 72.6395498,4.95 L68.4853698,4.95 L68.4853698,7.8375 L73.0302251,7.8375 C73.125724,7.8375 73.2016878,7.86458306 73.258119,7.91875 C73.3145501,7.97291694 73.3427653,8.04583288 73.3427653,8.1375 L73.3427653,8.5875 C73.3427653,8.67083375 73.3123797,8.73958306 73.2516077,8.79375 C73.1908357,8.84791694 73.1170422,8.875 73.0302251,8.875 L67.5737942,8.875 Z M74.540836,8.875 C74.4713823,8.875 74.4106112,8.85000025 74.3585209,8.8 C74.3064306,8.74999975 74.2803859,8.691667 74.2803859,8.625 L74.3064309,8.4875 L77.5360129,0.4 C77.6054666,0.21666575 77.7443719,0.125 77.9527331,0.125 L78.7861736,0.125 C78.9945348,0.125 79.1334402,0.21666575 79.2028939,0.4 L82.4324759,8.4875 L82.4585209,8.625 C82.4585209,8.691667 82.4303057,8.74999975 82.3738746,8.8 C82.3174434,8.85000025 82.254502,8.875 82.1850482,8.875 L81.5729904,8.875 C81.4861732,8.875 81.4145501,8.85208356 81.358119,8.80625 C81.3016878,8.76041644 81.2647911,8.71250025 81.2474277,8.6625 L80.5181672,6.8625 L76.207717,6.8625 L75.4914791,8.6625 C75.4220254,8.80416738 75.3135056,8.875 75.1659164,8.875 L74.540836,8.875 Z M76.5853698,5.825 L80.153537,5.825 L78.3694534,1.3375 L76.5853698,5.825 Z M84.1514469,8.875 C84.0646298,8.875 83.9951771,8.84791694 83.9430868,8.79375 C83.8909965,8.73958306 83.8649518,8.67083375 83.8649518,8.5875 L83.8649518,0.425 C83.8649518,0.333332875 83.8909965,0.260416938 83.9430868,0.20625 C83.9951771,0.152083063 84.0646298,0.125 84.1514469,0.125 L87.3289389,0.125 C88.3186545,0.125 89.0934859,0.347914438 89.6534566,0.79375 C90.2134272,1.23958556 90.4934084,1.88749575 90.4934084,2.7375 C90.4934084,3.3708365 90.3284582,3.89166463 89.9985531,4.3 C89.6686479,4.70833538 89.2085239,4.99166588 88.6181672,5.15 L90.6236334,8.4875 C90.6496786,8.53750025 90.662701,8.58333312 90.662701,8.625 C90.662701,8.691667 90.6366562,8.74999975 90.5845659,8.8 C90.5324756,8.85000025 90.4717045,8.875 90.4022508,8.875 L89.8292605,8.875 C89.6990347,8.875 89.5970261,8.84583363 89.5232315,8.7875 C89.4494369,8.72916637 89.3821546,8.64583388 89.3213826,8.5375 L87.407074,5.3375 L85.0890675,5.3375 L85.0890675,8.5875 C85.0890675,8.67083375 85.058682,8.73958306 84.99791,8.79375 C84.937138,8.84791694 84.8633445,8.875 84.7765273,8.875 L84.1514469,8.875 Z M87.2768489,4.3125 C88.5877879,4.3125 89.2432476,3.78333862 89.2432476,2.725 C89.2432476,1.66666138 88.5877879,1.1375 87.2768489,1.1375 L85.0890675,1.1375 L85.0890675,4.3125 L87.2768489,4.3125 Z M95.8717042,8.875 C95.784887,8.875 95.7154343,8.84791694 95.6633441,8.79375 C95.6112538,8.73958306 95.585209,8.67083375 95.585209,8.5875 L95.585209,0.425 C95.585209,0.333332875 95.6112538,0.260416938 95.6633441,0.20625 C95.7154343,0.152083063 95.784887,0.125 95.8717042,0.125 L99.4268489,0.125 C100.347111,0.125 101.041638,0.337497875 101.51045,0.7625 C101.979263,1.18750213 102.213666,1.74166325 102.213666,2.425 C102.213666,2.891669 102.100805,3.28124844 101.87508,3.59375 C101.649356,3.90625156 101.384567,4.13333262 101.080707,4.275 C101.454021,4.45000088 101.766558,4.7208315 102.018328,5.0875 C102.270098,5.4541685 102.395981,5.87499763 102.395981,6.35 C102.395981,6.816669 102.28529,7.24166475 102.063907,7.625 C101.842523,8.00833525 101.514793,8.31249888 101.080707,8.5375 C100.646622,8.76250113 100.130067,8.875 99.5310289,8.875 L95.8717042,8.875 Z M99.2315113,3.8375 C99.7958228,3.8375 100.225561,3.71458456 100.52074,3.46875 C100.815918,3.22291544 100.963505,2.87916888 100.963505,2.4375 C100.963505,2.0041645 100.818088,1.67500113 100.527251,1.45 C100.236413,1.22499887 99.8045045,1.1125 99.2315113,1.1125 L96.8093248,1.1125 L96.8093248,3.8375 L99.2315113,3.8375 Z M99.3617363,7.8875 C99.9173661,7.8875 100.353616,7.74375144 100.670498,7.45625 C100.987381,7.16874856 101.14582,6.80000225 101.14582,6.35 C101.14582,5.89166438 100.987381,5.52083475 100.670498,5.2375 C100.353616,4.95416525 99.9173661,4.8125 99.3617363,4.8125 L96.8093248,4.8125 L96.8093248,7.8875 L99.3617363,7.8875 Z M104.557717,8.875 C104.4709,8.875 104.401447,8.84791694 104.349357,8.79375 C104.297267,8.73958306 104.271222,8.67083375 104.271222,8.5875 L104.271222,0.425 C104.271222,0.333332875 104.297267,0.260416938 104.349357,0.20625 C104.401447,0.152083063 104.4709,0.125 104.557717,0.125 L109.909968,0.125 C110.005467,0.125 110.081431,0.152083063 110.137862,0.20625 C110.194293,0.260416938 110.222508,0.333332875 110.222508,0.425 L110.222508,0.875 C110.222508,0.95833375 110.194293,1.02499975 110.137862,1.075 C110.081431,1.12500025 110.005467,1.15 109.909968,1.15 L105.469293,1.15 L105.469293,3.9375 L109.623473,3.9375 C109.718972,3.9375 109.794935,3.96458306 109.851367,4.01875 C109.907798,4.07291694 109.936013,4.14583287 109.936013,4.2375 L109.936013,4.6625 C109.936013,4.74583375 109.907798,4.81458306 109.851367,4.86875 C109.794935,4.92291694 109.718972,4.95 109.623473,4.95 L105.469293,4.95 L105.469293,7.8375 L110.014148,7.8375 C110.109647,7.8375 110.185611,7.86458306 110.242042,7.91875 C110.298473,7.97291694 110.326688,8.04583288 110.326688,8.1375 L110.326688,8.5875 C110.326688,8.67083375 110.296303,8.73958306 110.235531,8.79375 C110.174759,8.84791694 110.100965,8.875 110.014148,8.875 L104.557717,8.875 Z M115.353376,9 C114.224753,9 113.347913,8.700003 112.72283,8.1 C112.097746,7.499997 111.763505,6.68750513 111.720096,5.6625 C111.711415,5.41249875 111.707074,5.020836 111.707074,4.4875 C111.707074,3.94583063 111.711415,3.55416788 111.720096,3.3125 C111.754823,2.29582825 112.086894,1.48958631 112.716318,0.89375 C113.345743,0.297913688 114.224753,0 115.353376,0 C116.117367,0 116.764145,0.133332 117.29373,0.4 C117.823315,0.666668 118.222667,0.985414813 118.491801,1.35625 C118.760934,1.72708519 118.90418,2.07083175 118.921543,2.3875 L118.921543,2.4125 C118.921543,2.479167 118.893328,2.53541644 118.836897,2.58125 C118.780466,2.62708356 118.717524,2.65 118.648071,2.65 L117.91881,2.65 C117.840675,2.65 117.782074,2.6333335 117.743006,2.6 C117.703939,2.5666665 117.667042,2.50416712 117.632315,2.4125 C117.493408,2.02083138 117.237301,1.691668 116.863987,1.425 C116.490673,1.158332 115.987141,1.025 115.353376,1.025 C114.624112,1.025 114.051127,1.21666475 113.634405,1.6 C113.217683,1.98333525 112.996302,2.574996 112.970257,3.375 C112.961576,3.61666788 112.957235,3.9874975 112.957235,4.4875 C112.957235,4.97916913 112.961576,5.34999875 112.970257,5.6 C112.996302,6.40833738 113.217683,7.00416475 113.634405,7.3875 C114.051127,7.77083525 114.624112,7.9625 115.353376,7.9625 C116.091322,7.9625 116.68167,7.76875194 117.124437,7.38125 C117.567205,6.99374806 117.788585,6.41250388 117.788585,5.6375 L117.788585,5.1 L115.796141,5.1 C115.709324,5.1 115.637701,5.07083363 115.58127,5.0125 C115.524839,4.95416638 115.496624,4.88333375 115.496624,4.8 L115.496624,4.425 C115.496624,4.34166625 115.524839,4.27083362 115.58127,4.2125 C115.637701,4.15416638 115.709324,4.125 115.796141,4.125 L118.713183,4.125 C118.808682,4.125 118.884646,4.15208306 118.941077,4.20625 C118.997508,4.26041694 119.025723,4.33333288 119.025723,4.425 L119.025723,5.6125 C119.025723,6.28750338 118.880307,6.88124744 118.589469,7.39375 C118.298632,7.90625256 117.875405,8.30208194 117.319775,8.58125 C116.764145,8.86041806 116.108685,9 115.353376,9 Z M121.18746,8.875 C121.100643,8.875 121.03119,8.84791694 120.9791,8.79375 C120.927009,8.73958306 120.900965,8.67083375 120.900965,8.5875 L120.900965,0.4125 C120.900965,0.32916625 120.927009,0.260416938 120.9791,0.20625 C121.03119,0.152083063 121.100643,0.125 121.18746,0.125 L121.838585,0.125 C121.934084,0.125 122.007878,0.14999975 122.059968,0.2 C122.112058,0.25000025 122.138103,0.320832875 122.138103,0.4125 L122.138103,8.5875 C122.138103,8.67083375 122.109888,8.73958306 122.053457,8.79375 C121.997025,8.84791694 121.925402,8.875 121.838585,8.875 L121.18746,8.875 Z M124.716559,8.875 C124.629742,8.875 124.56029,8.84791694 124.508199,8.79375 C124.456109,8.73958306 124.430064,8.67083375 124.430064,8.5875 L124.430064,0.425 C124.430064,0.333332875 124.456109,0.260416938 124.508199,0.20625 C124.56029,0.152083063 124.629742,0.125 124.716559,0.125 L125.28955,0.125 C125.376367,0.125 125.441479,0.1416665 125.484887,0.175 C125.528296,0.2083335 125.571704,0.24999975 125.615113,0.3 L129.977653,6.75 L129.977653,0.425 C129.977653,0.333332875 130.005868,0.260416938 130.062299,0.20625 C130.11873,0.152083063 130.190353,0.125 130.27717,0.125 L130.863183,0.125 C130.958682,0.125 131.034646,0.152083063 131.091077,0.20625 C131.147508,0.260416938 131.175723,0.333332875 131.175723,0.425 L131.175723,8.575 C131.175723,8.65833375 131.147508,8.72916637 131.091077,8.7875 C131.034646,8.84583363 130.963023,8.875 130.876206,8.875 L130.290193,8.875 C130.142604,8.875 130.038425,8.81666725 129.977653,8.7 L125.615113,2.3125 L125.615113,8.5875 C125.615113,8.67083375 125.586897,8.73958306 125.530466,8.79375 C125.474035,8.84791694 125.402412,8.875 125.315595,8.875 L124.716559,8.875 Z M133.741158,8.875 C133.65434,8.875 133.584888,8.84791694 133.532797,8.79375 C133.480707,8.73958306 133.454662,8.67083375 133.454662,8.5875 L133.454662,0.425 C133.454662,0.333332875 133.480707,0.260416938 133.532797,0.20625 C133.584888,0.152083063 133.65434,0.125 133.741158,0.125 L134.314148,0.125 C134.400965,0.125 134.466077,0.1416665 134.509486,0.175 C134.552894,0.2083335 134.596302,0.24999975 134.639711,0.3 L139.002251,6.75 L139.002251,0.425 C139.002251,0.333332875 139.030466,0.260416938 139.086897,0.20625 C139.143328,0.152083063 139.214951,0.125 139.301768,0.125 L139.887781,0.125 C139.98328,0.125 140.059244,0.152083063 140.115675,0.20625 C140.172106,0.260416938 140.200322,0.333332875 140.200322,0.425 L140.200322,8.575 C140.200322,8.65833375 140.172106,8.72916637 140.115675,8.7875 C140.059244,8.84583363 139.987621,8.875 139.900804,8.875 L139.314791,8.875 C139.167202,8.875 139.063023,8.81666725 139.002251,8.7 L134.639711,2.3125 L134.639711,8.5875 C134.639711,8.67083375 134.611495,8.73958306 134.555064,8.79375 C134.498633,8.84791694 134.42701,8.875 134.340193,8.875 L133.741158,8.875 Z M142.765756,8.875 C142.678938,8.875 142.609486,8.84791694 142.557395,8.79375 C142.505305,8.73958306 142.47926,8.67083375 142.47926,8.5875 L142.47926,0.4125 C142.47926,0.32916625 142.505305,0.260416938 142.557395,0.20625 C142.609486,0.152083063 142.678938,0.125 142.765756,0.125 L143.416881,0.125 C143.51238,0.125 143.586173,0.14999975 143.638264,0.2 C143.690354,0.25000025 143.716399,0.320832875 143.716399,0.4125 L143.716399,8.5875 C143.716399,8.67083375 143.688184,8.73958306 143.631752,8.79375 C143.575321,8.84791694 143.503698,8.875 143.416881,8.875 L142.765756,8.875 Z M146.294855,8.875 C146.208038,8.875 146.138585,8.84791694 146.086495,8.79375 C146.034405,8.73958306 146.00836,8.67083375 146.00836,8.5875 L146.00836,0.425 C146.00836,0.333332875 146.034405,0.260416938 146.086495,0.20625 C146.138585,0.152083063 146.208038,0.125 146.294855,0.125 L146.867846,0.125 C146.954663,0.125 147.019775,0.1416665 147.063183,0.175 C147.106592,0.2083335 147.15,0.24999975 147.193408,0.3 L151.555949,6.75 L151.555949,0.425 C151.555949,0.333332875 151.584164,0.260416938 151.640595,0.20625 C151.697026,0.152083063 151.768649,0.125 151.855466,0.125 L152.441479,0.125 C152.536978,0.125 152.612942,0.152083063 152.669373,0.20625 C152.725804,0.260416938 152.754019,0.333332875 152.754019,0.425 L152.754019,8.575 C152.754019,8.65833375 152.725804,8.72916637 152.669373,8.7875 C152.612942,8.84583363 152.541319,8.875 152.454502,8.875 L151.868489,8.875 C151.7209,8.875 151.616721,8.81666725 151.555949,8.7 L147.193408,2.3125 L147.193408,8.5875 C147.193408,8.67083375 147.165193,8.73958306 147.108762,8.79375 C147.052331,8.84791694 146.980708,8.875 146.893891,8.875 L146.294855,8.875 Z M158.327653,9 C157.19903,9 156.32219,8.700003 155.697106,8.1 C155.072023,7.499997 154.737782,6.68750513 154.694373,5.6625 C154.685691,5.41249875 154.68135,5.020836 154.68135,4.4875 C154.68135,3.94583063 154.685691,3.55416788 154.694373,3.3125 C154.7291,2.29582825 155.06117,1.48958631 155.690595,0.89375 C156.320019,0.297913688 157.19903,0 158.327653,0 C159.091644,0 159.738422,0.133332 160.268006,0.4 C160.797591,0.666668 161.196944,0.985414813 161.466077,1.35625 C161.73521,1.72708519 161.878457,2.07083175 161.89582,2.3875 L161.89582,2.4125 C161.89582,2.479167 161.867605,2.53541644 161.811174,2.58125 C161.754742,2.62708356 161.691801,2.65 161.622347,2.65 L160.893087,2.65 C160.814951,2.65 160.756351,2.6333335 160.717283,2.6 C160.678215,2.5666665 160.641319,2.50416712 160.606592,2.4125 C160.467684,2.02083138 160.211577,1.691668 159.838264,1.425 C159.46495,1.158332 158.961418,1.025 158.327653,1.025 C157.598389,1.025 157.025404,1.21666475 156.608682,1.6 C156.191959,1.98333525 155.970579,2.574996 155.944534,3.375 C155.935852,3.61666788 155.931511,3.9874975 155.931511,4.4875 C155.931511,4.97916913 155.935852,5.34999875 155.944534,5.6 C155.970579,6.40833738 156.191959,7.00416475 156.608682,7.3875 C157.025404,7.77083525 157.598389,7.9625 158.327653,7.9625 C159.065599,7.9625 159.655946,7.76875194 160.098714,7.38125 C160.541481,6.99374806 160.762862,6.41250388 160.762862,5.6375 L160.762862,5.1 L158.770418,5.1 C158.683601,5.1 158.611978,5.07083363 158.555547,5.0125 C158.499115,4.95416638 158.4709,4.88333375 158.4709,4.8 L158.4709,4.425 C158.4709,4.34166625 158.499115,4.27083362 158.555547,4.2125 C158.611978,4.15416638 158.683601,4.125 158.770418,4.125 L161.68746,4.125 C161.782959,4.125 161.858923,4.15208306 161.915354,4.20625 C161.971785,4.26041694 162,4.33333288 162,4.425 L162,5.6125 C162,6.28750338 161.854583,6.88124744 161.563746,7.39375 C161.272909,7.90625256 160.849681,8.30208194 160.294051,8.58125 C159.738422,8.86041806 159.082962,9 158.327653,9 Z" id="Sep-’17-—-Year-Begin" fill="#000000"></path>
                <path d="M1.2995283,78.875 C1.21270807,78.875 1.14108245,78.8479169 1.0846493,78.79375 C1.02821615,78.7395831 1,78.6708337 1,78.5875 L1,70.425 C1,70.3333329 1.02604568,70.2604169 1.07813782,70.20625 C1.13022996,70.1520831 1.20402605,70.125 1.2995283,70.125 L1.91160788,70.125 C2.06788429,70.125 2.17640795,70.1874994 2.23718212,70.3125 L5.01107465,75.425 L7.81101313,70.3125 C7.88046931,70.1874994 7.98465203,70.125 8.1235644,70.125 L8.73564397,70.125 C8.83114623,70.125 8.90494232,70.1520831 8.95703445,70.20625 C9.00912659,70.2604169 9.03517227,70.3333329 9.03517227,70.425 L9.03517227,78.5875 C9.03517227,78.6708337 9.00695612,78.7395831 8.95052297,78.79375 C8.89408982,78.8479169 8.8224642,78.875 8.73564397,78.875 L8.13658737,78.875 C8.04976713,78.875 7.98031199,78.8479169 7.92821985,78.79375 C7.87612771,78.7395831 7.85008203,78.6708337 7.85008203,78.5875 L7.85008203,72.375 L5.62315422,76.5125 C5.53633399,76.6875009 5.39742371,76.775 5.2064192,76.775 L4.81573011,76.775 C4.63340762,76.775 4.49449733,76.6875009 4.39899508,76.5125 L2.18509024,72.375 L2.18509024,78.5875 C2.18509024,78.6708337 2.15687409,78.7395831 2.10044094,78.79375 C2.04400778,78.8479169 1.97238217,78.875 1.88556194,78.875 L1.2995283,78.875 Z M10.7021124,78.875 C10.6326562,78.875 10.571883,78.8500002 10.5197908,78.8 C10.4676987,78.7499998 10.441653,78.691667 10.441653,78.625 L10.4676989,78.4875 L13.6973954,70.4 C13.7668516,70.2166658 13.9057619,70.125 14.1141304,70.125 L14.9476005,70.125 C15.155969,70.125 15.2948793,70.2166658 15.3643355,70.4 L18.594032,78.4875 L18.6200779,78.625 C18.6200779,78.691667 18.5918618,78.7499998 18.5354286,78.8 C18.4789955,78.8500002 18.4160518,78.875 18.3465956,78.875 L17.734516,78.875 C17.6476958,78.875 17.5760701,78.8520836 17.519637,78.80625 C17.4632038,78.7604164 17.4263058,78.7125003 17.4089418,78.6625 L16.6796555,76.8625 L12.3690525,76.8625 L11.6527892,78.6625 C11.583333,78.8041674 11.4748093,78.875 11.3272149,78.875 L10.7021124,78.875 Z M12.7467186,75.825 L16.3150123,75.825 L14.5308655,71.3375 L12.7467186,75.825 Z M20.313064,78.875 C20.2262438,78.875 20.1567886,78.8479169 20.1046965,78.79375 C20.0526043,78.7395831 20.0265587,78.6708337 20.0265587,78.5875 L20.0265587,70.425 C20.0265587,70.3333329 20.0526043,70.2604169 20.1046965,70.20625 C20.1567886,70.1520831 20.2262438,70.125 20.313064,70.125 L23.4906686,70.125 C24.4804192,70.125 25.2552782,70.3479144 25.8152687,70.79375 C26.3752592,71.2395856 26.6552502,71.8874957 26.6552502,72.7375 C26.6552502,73.3708365 26.4902942,73.8916646 26.1603774,74.3 C25.8304605,74.7083354 25.3703202,74.9916659 24.7799426,75.15 L26.7854799,78.4875 C26.811526,78.5375003 26.8245488,78.5833331 26.8245488,78.625 C26.8245488,78.691667 26.7985031,78.7499998 26.746411,78.8 C26.6943189,78.8500002 26.6335456,78.875 26.5640894,78.875 L25.9910788,78.875 C25.8608484,78.875 25.7588362,78.8458336 25.685039,78.7875 C25.6112418,78.7291664 25.5439571,78.6458339 25.4831829,78.5375 L23.5688064,75.3375 L21.2507178,75.3375 L21.2507178,78.5875 C21.2507178,78.6708337 21.2203312,78.7395831 21.159557,78.79375 C21.0987829,78.8479169 21.0249868,78.875 20.9381665,78.875 L20.313064,78.875 Z M23.4385767,74.3125 C24.7495622,74.3125 25.4050451,73.7833386 25.4050451,72.725 C25.4050451,71.6666614 24.7495622,71.1375 23.4385767,71.1375 L21.2507178,71.1375 L21.2507178,74.3125 L23.4385767,74.3125 Z M31.5518868,72.375 C31.4824306,72.375 31.4303392,72.3520836 31.3956112,72.30625 C31.3608831,72.2604164 31.3478602,72.1958337 31.3565422,72.1125 L31.6430476,70.3625 C31.6777757,70.1208321 31.7993222,70 32.0076907,70 L32.8411608,70 C32.9019349,70 32.9518558,70.0208331 32.9909249,70.0625 C33.029994,70.1041669 33.0495283,70.1541664 33.0495283,70.2125 C33.0495283,70.2958337 33.0365055,70.3624997 33.0104594,70.4125 L32.333265,72.1 C32.2898549,72.1916671 32.2421044,72.2604164 32.1900123,72.30625 C32.1379202,72.3520836 32.0597831,72.375 31.9555989,72.375 L31.5518868,72.375 Z M37.1517637,78.875 C37.0649435,78.875 36.9954884,78.8479169 36.9433962,78.79375 C36.8913041,78.7395831 36.8652584,78.6708337 36.8652584,78.5875 L36.8652584,71.5375 L34.6773995,73.15 C34.6166253,73.2000002 34.5515111,73.225 34.482055,73.225 C34.4039168,73.225 34.3301207,73.1833337 34.2606645,73.1 L33.9481132,72.7125 C33.9047031,72.6541664 33.8829984,72.5958336 33.8829984,72.5375 C33.8829984,72.4458329 33.9264078,72.3708336 34.0132281,72.3125 L36.8392125,70.2125 C36.9347147,70.1541664 37.0475793,70.125 37.1778097,70.125 L37.7898893,70.125 C37.8767095,70.125 37.9483351,70.1520831 38.0047683,70.20625 C38.0612014,70.2604169 38.0894176,70.3291663 38.0894176,70.4125 L38.0894176,78.5875 C38.0894176,78.6708337 38.0612014,78.7395831 38.0047683,78.79375 C37.9483351,78.8479169 37.8767095,78.875 37.7898893,78.875 L37.1517637,78.875 Z M43.2204676,79 C42.5606338,79 41.9724356,78.8937511 41.4558552,78.68125 C40.9392748,78.4687489 40.5377373,78.162502 40.2512305,77.7625 C39.9647238,77.362498 39.8214725,76.895836 39.8214725,76.3625 C39.8214725,75.8708309 39.9495304,75.4395852 40.2056501,75.06875 C40.4617698,74.6979148 40.8068751,74.412501 41.2409762,74.2125 C40.8936953,74.0208324 40.6245566,73.7687516 40.4335521,73.45625 C40.2425476,73.1437484 40.1470468,72.7750021 40.1470468,72.35 C40.1470468,71.6249964 40.4292083,71.0520854 40.9935398,70.63125 C41.5578713,70.2104146 42.3001731,70 43.2204676,70 C44.1407621,70 44.8808934,70.2083312 45.4408839,70.625 C46.0008744,71.0416687 46.2808655,71.616663 46.2808655,72.35 C46.2808655,72.7666687 46.1853646,73.1312484 45.9943601,73.44375 C45.8033556,73.7562516 45.5385579,74.012499 45.199959,74.2125 C45.6340601,74.412501 45.9791654,74.6979148 46.2352851,75.06875 C46.4914048,75.4395852 46.6194627,75.8749975 46.6194627,76.375 C46.6194627,76.908336 46.4762114,77.3729147 46.1897047,77.76875 C45.9031979,78.1645853 45.5016604,78.4687489 44.98508,78.68125 C44.4684996,78.8937511 43.8803014,79 43.2204676,79 Z M43.2204676,73.775 C43.750071,73.7583332 44.1971885,73.6250012 44.5618335,73.375 C44.9264784,73.1249988 45.1087982,72.7916687 45.1087982,72.375 C45.1087982,71.9499979 44.9286489,71.6104179 44.568345,71.35625 C44.208041,71.1020821 43.758753,70.975 43.2204676,70.975 C42.6735001,70.975 42.2220417,71.1020821 41.8660788,71.35625 C41.5101158,71.6104179 41.332137,71.9499979 41.332137,72.375 C41.332137,72.8000021 41.5101158,73.1395821 41.8660788,73.39375 C42.2220417,73.6479179 42.6735001,73.775 43.2204676,73.775 Z M43.2204676,78.025 C43.8368912,78.025 44.3512934,77.8750015 44.7636895,77.575 C45.1760856,77.2749985 45.3822806,76.8750025 45.3822806,76.375 C45.3822806,75.8749975 45.1760856,75.4750015 44.7636895,75.175 C44.3512934,74.8749985 43.8368912,74.725 43.2204676,74.725 C42.5953619,74.725 42.0766188,74.8749985 41.6642227,75.175 C41.2518266,75.4750015 41.0456317,75.8749975 41.0456317,76.375 C41.0456317,76.8750025 41.2518266,77.2749985 41.6642227,77.575 C42.0766188,77.8750015 42.5953619,78.025 43.2204676,78.025 Z M48.2994258,72.375 C48.2299696,72.375 48.1778782,72.3520836 48.1431501,72.30625 C48.108422,72.2604164 48.0953992,72.1958337 48.1040812,72.1125 L48.3905865,70.3625 C48.4253146,70.1208321 48.5468611,70 48.7552297,70 L49.5886998,70 C49.6494739,70 49.6993948,70.0208331 49.7384639,70.0625 C49.777533,70.1041669 49.7970673,70.1541664 49.7970673,70.2125 C49.7970673,70.2958337 49.7840444,70.3624997 49.7579984,70.4125 L49.0808039,72.1 C49.0373938,72.1916671 48.9896434,72.2604164 48.9375513,72.30625 C48.8854591,72.3520836 48.8073221,72.375 48.7031378,72.375 L48.2994258,72.375 Z M54.7067268,75.625 C54.6199066,75.625 54.548281,75.6000002 54.4918478,75.55 C54.4354147,75.4999998 54.4071985,75.4333338 54.4071985,75.35 L54.4071985,74.9 C54.4071985,74.8166662 54.4354147,74.7479169 54.4918478,74.69375 C54.548281,74.6395831 54.6199066,74.6125 54.7067268,74.6125 L62.2600492,74.6125 C62.3468695,74.6125 62.4184951,74.6395831 62.4749282,74.69375 C62.5313614,74.7479169 62.5595775,74.8166662 62.5595775,74.9 L62.5595775,75.35 C62.5595775,75.4333338 62.5313614,75.4999998 62.4749282,75.55 C62.4184951,75.6000002 62.3468695,75.625 62.2600492,75.625 L54.7067268,75.625 Z M70.1519688,78.875 C70.0651486,78.875 69.993523,78.8479169 69.9370898,78.79375 C69.8806567,78.7395831 69.8524405,78.6708337 69.8524405,78.5875 L69.8524405,75.625 L66.7139048,70.5375 C66.6878588,70.4874997 66.6748359,70.4333336 66.6748359,70.375 C66.6748359,70.308333 66.7008816,70.2500002 66.7529737,70.2 C66.8050659,70.1499997 66.8658391,70.125 66.9352953,70.125 L67.5603979,70.125 C67.7166743,70.125 67.8295389,70.1958326 67.8989951,70.3375 L70.4775431,74.425 L73.0430681,70.3375 C73.1298883,70.1958326 73.2427529,70.125 73.3816653,70.125 L74.0067678,70.125 C74.076224,70.125 74.1391678,70.1499997 74.1956009,70.2 C74.2520341,70.2500002 74.2802502,70.308333 74.2802502,70.375 C74.2802502,70.4166669 74.2628864,70.470833 74.2281583,70.5375 L71.0896226,75.625 L71.0896226,78.5875 C71.0896226,78.6708337 71.0614065,78.7395831 71.0049733,78.79375 C70.9485402,78.8479169 70.8725736,78.875 70.7770714,78.875 L70.1519688,78.875 Z M76.103466,78.875 C76.0166457,78.875 75.9471906,78.8479169 75.8950984,78.79375 C75.8430063,78.7395831 75.8169606,78.6708337 75.8169606,78.5875 L75.8169606,70.425 C75.8169606,70.3333329 75.8430063,70.2604169 75.8950984,70.20625 C75.9471906,70.1520831 76.0166457,70.125 76.103466,70.125 L81.4559065,70.125 C81.5514087,70.125 81.6273753,70.1520831 81.6838084,70.20625 C81.7402416,70.2604169 81.7684578,70.3333329 81.7684578,70.425 L81.7684578,70.875 C81.7684578,70.9583337 81.7402416,71.0249997 81.6838084,71.075 C81.6273753,71.1250002 81.5514087,71.15 81.4559065,71.15 L77.0150738,71.15 L77.0150738,73.9375 L81.1694011,73.9375 C81.2649034,73.9375 81.34087,73.9645831 81.3973031,74.01875 C81.4537363,74.0729169 81.4819524,74.1458329 81.4819524,74.2375 L81.4819524,74.6625 C81.4819524,74.7458338 81.4537363,74.8145831 81.3973031,74.86875 C81.34087,74.9229169 81.2649034,74.95 81.1694011,74.95 L77.0150738,74.95 L77.0150738,77.8375 L81.5600902,77.8375 C81.6555925,77.8375 81.7315591,77.8645831 81.7879922,77.91875 C81.8444254,77.9729169 81.8726415,78.0458329 81.8726415,78.1375 L81.8726415,78.5875 C81.8726415,78.6708337 81.8422549,78.7395831 81.7814807,78.79375 C81.7207066,78.8479169 81.6469105,78.875 81.5600902,78.875 L76.103466,78.875 Z M83.0707547,78.875 C83.0012985,78.875 82.9405253,78.8500002 82.8884331,78.8 C82.836341,78.7499998 82.8102953,78.691667 82.8102953,78.625 L82.8363413,78.4875 L86.0660377,70.4 C86.1354939,70.2166658 86.2744042,70.125 86.4827728,70.125 L87.3162428,70.125 C87.5246114,70.125 87.6635217,70.2166658 87.7329779,70.4 L90.9626743,78.4875 L90.9887203,78.625 C90.9887203,78.691667 90.9605041,78.7499998 90.904071,78.8 C90.8476378,78.8500002 90.7846941,78.875 90.7152379,78.875 L90.1031583,78.875 C90.0163381,78.875 89.9447125,78.8520836 89.8882793,78.80625 C89.8318462,78.7604164 89.7949481,78.7125003 89.7775841,78.6625 L89.0482978,76.8625 L84.7376948,76.8625 L84.0214315,78.6625 C83.9519753,78.8041674 83.8434517,78.875 83.6958573,78.875 L83.0707547,78.875 Z M85.115361,75.825 L88.6836546,75.825 L86.8995078,71.3375 L85.115361,75.825 Z M92.6817063,78.875 C92.5948861,78.875 92.5254309,78.8479169 92.4733388,78.79375 C92.4212467,78.7395831 92.395201,78.6708337 92.395201,78.5875 L92.395201,70.425 C92.395201,70.3333329 92.4212467,70.2604169 92.4733388,70.20625 C92.5254309,70.1520831 92.5948861,70.125 92.6817063,70.125 L95.8593109,70.125 C96.8490616,70.125 97.6239205,70.3479144 98.183911,70.79375 C98.7439015,71.2395856 99.0238925,71.8874957 99.0238925,72.7375 C99.0238925,73.3708365 98.8589366,73.8916646 98.5290197,74.3 C98.1991028,74.7083354 97.7389625,74.9916659 97.1485849,75.15 L99.1541222,78.4875 C99.1801683,78.5375003 99.1931911,78.5833331 99.1931911,78.625 C99.1931911,78.691667 99.1671455,78.7499998 99.1150533,78.8 C99.0629612,78.8500002 99.0021879,78.875 98.9327317,78.875 L98.3597211,78.875 C98.2294907,78.875 98.1274785,78.8458336 98.0536813,78.7875 C97.9798841,78.7291664 97.9125994,78.6458339 97.8518253,78.5375 L95.9374487,75.3375 L93.6193601,75.3375 L93.6193601,78.5875 C93.6193601,78.6708337 93.5889735,78.7395831 93.5281993,78.79375 C93.4674252,78.8479169 93.3936291,78.875 93.3068089,78.875 L92.6817063,78.875 Z M95.807219,74.3125 C97.1182045,74.3125 97.7736874,73.7833386 97.7736874,72.725 C97.7736874,71.6666614 97.1182045,71.1375 95.807219,71.1375 L93.6193601,71.1375 L93.6193601,74.3125 L95.807219,74.3125 Z M104.402379,78.875 C104.315559,78.875 104.246104,78.8479169 104.194011,78.79375 C104.141919,78.7395831 104.115874,78.6708337 104.115874,78.5875 L104.115874,70.425 C104.115874,70.3333329 104.141919,70.2604169 104.194011,70.20625 C104.246104,70.1520831 104.315559,70.125 104.402379,70.125 L109.75482,70.125 C109.850322,70.125 109.926288,70.1520831 109.982721,70.20625 C110.039155,70.2604169 110.067371,70.3333329 110.067371,70.425 L110.067371,70.875 C110.067371,70.9583337 110.039155,71.0249997 109.982721,71.075 C109.926288,71.1250002 109.850322,71.15 109.75482,71.15 L105.313987,71.15 L105.313987,73.9375 L109.468314,73.9375 C109.563816,73.9375 109.639783,73.9645831 109.696216,74.01875 C109.752649,74.0729169 109.780865,74.1458329 109.780865,74.2375 L109.780865,74.6625 C109.780865,74.7458338 109.752649,74.8145831 109.696216,74.86875 C109.639783,74.9229169 109.563816,74.95 109.468314,74.95 L105.313987,74.95 L105.313987,77.8375 L109.859003,77.8375 C109.954506,77.8375 110.030472,77.8645831 110.086905,77.91875 C110.143338,77.9729169 110.171555,78.0458329 110.171555,78.1375 L110.171555,78.5875 C110.171555,78.6708337 110.141168,78.7395831 110.080394,78.79375 C110.01962,78.8479169 109.945824,78.875 109.859003,78.875 L104.402379,78.875 Z M112.281276,78.875 C112.194455,78.875 112.125,78.8479169 112.072908,78.79375 C112.020816,78.7395831 111.99477,78.6708337 111.99477,78.5875 L111.99477,70.425 C111.99477,70.3333329 112.020816,70.2604169 112.072908,70.20625 C112.125,70.1520831 112.194455,70.125 112.281276,70.125 L112.854286,70.125 C112.941107,70.125 113.006221,70.1416665 113.049631,70.175 C113.093041,70.2083335 113.13645,70.2499997 113.179861,70.3 L117.542555,76.75 L117.542555,70.425 C117.542555,70.3333329 117.570772,70.2604169 117.627205,70.20625 C117.683638,70.1520831 117.755263,70.125 117.842084,70.125 L118.428117,70.125 C118.52362,70.125 118.599586,70.1520831 118.656019,70.20625 C118.712452,70.2604169 118.740669,70.3333329 118.740669,70.425 L118.740669,78.575 C118.740669,78.6583337 118.712452,78.7291664 118.656019,78.7875 C118.599586,78.8458336 118.527961,78.875 118.44114,78.875 L117.855107,78.875 C117.707512,78.875 117.60333,78.8166673 117.542555,78.7 L113.179861,72.3125 L113.179861,78.5875 C113.179861,78.6708337 113.151644,78.7395831 113.095211,78.79375 C113.038778,78.8479169 112.967152,78.875 112.880332,78.875 L112.281276,78.875 Z M121.306194,78.875 C121.219373,78.875 121.149918,78.8479169 121.097826,78.79375 C121.045734,78.7395831 121.019688,78.6708337 121.019688,78.5875 L121.019688,70.425 C121.019688,70.3333329 121.045734,70.2604169 121.097826,70.20625 C121.149918,70.1520831 121.219373,70.125 121.306194,70.125 L124.249385,70.125 C125.56037,70.125 126.506697,70.4062472 127.088392,70.96875 C127.670088,71.5312528 127.969613,72.379161 127.986977,73.5125 C127.995659,73.7541679 128,74.0791646 128,74.4875 C128,74.8958354 127.995659,75.2249987 127.986977,75.475 C127.969613,76.2666706 127.837214,76.9104142 127.589776,77.40625 C127.342339,77.9020858 126.953824,78.2708321 126.424221,78.5125 C125.894617,78.7541679 125.191384,78.875 124.3145,78.875 L121.306194,78.875 Z M124.249385,77.8375 C124.857126,77.8375 125.341142,77.7562508 125.701446,77.59375 C126.06175,77.4312492 126.322207,77.1770851 126.482824,76.83125 C126.643441,76.4854149 126.732431,76.0166696 126.749795,75.425 C126.767159,74.9249975 126.775841,74.6125006 126.775841,74.4875 C126.775841,74.354166 126.767159,74.0458357 126.749795,73.5625 C126.732431,72.7291625 126.526236,72.1187519 126.131204,71.73125 C125.736172,71.3437481 125.0872,71.15 124.18427,71.15 L122.243847,71.15 L122.243847,77.8375 L124.249385,77.8375 Z" id="MAR-’18’-—-Year-END" fill="#000000"></path>
                <g id="Group-5" transform="translate(0.000000, 20.000000)">
                    <polygon id="Rectangle-4" fill="#F38588" fill-rule="nonzero" points="0 0 271 0 271 27 0 27"></polygon>
                    <polygon id="Rectangle-4-Copy-2" fill="#FFCB09" fill-rule="nonzero" points="269 0 451 0 451 27 269 27"></polygon>
                    <polygon id="Rectangle-4-Copy-3" fill="#FFF200" fill-rule="nonzero" points="450 0 481 0 481 27 450 27"></polygon>
                    <path d="M127.911715,18 C127.317484,18 126.802492,17.8867144 126.366723,17.6601399 C125.930954,17.4335653 125.59819,17.1377641 125.368421,16.7727273 C125.138652,16.4076905 125.015846,16.0153867 125,15.5958042 L125,15.5706294 C125,15.5034962 125.023769,15.4489513 125.071307,15.406993 C125.118846,15.3650348 125.174306,15.3440559 125.237691,15.3440559 L125.820034,15.3440559 C125.986418,15.3440559 126.093378,15.4363627 126.140917,15.620979 C126.259763,16.0741281 126.479625,16.411887 126.800509,16.6342657 C127.121394,16.8566445 127.491792,16.9678322 127.911715,16.9678322 C128.450484,16.9678322 128.898131,16.793708 129.254669,16.4454545 C129.611207,16.0972011 129.789474,15.6167863 129.789474,15.0041958 C129.789474,14.4419552 129.611207,13.9951066 129.254669,13.6636364 C128.898131,13.3321662 128.450484,13.1664336 127.911715,13.1664336 C127.626484,13.1664336 127.396718,13.2041954 127.222411,13.2797203 C127.048103,13.3552451 126.869837,13.464335 126.687606,13.606993 C126.584606,13.6909095 126.499434,13.7517481 126.432088,13.7895105 C126.364742,13.8272729 126.291455,13.8461538 126.212224,13.8461538 L125.641766,13.8461538 C125.570458,13.8461538 125.507074,13.8188814 125.451613,13.7643357 C125.396151,13.7097899 125.372383,13.6447556 125.380306,13.5692308 L125.748727,9.37762238 C125.772496,9.16783112 125.871533,9.06293706 126.04584,9.06293706 L130.157895,9.06293706 C130.245049,9.06293706 130.312394,9.08811164 130.359932,9.13846154 C130.407471,9.18881144 130.431239,9.2601394 130.431239,9.35244755 L130.431239,9.81818182 C130.431239,9.90209832 130.40549,9.96923052 130.35399,10.0195804 C130.30249,10.0699303 130.237125,10.0951049 130.157895,10.0951049 L126.735144,10.0951049 L126.521222,12.6251748 C126.90153,12.3398587 127.41256,12.1972028 128.054329,12.1972028 C128.585175,12.1972028 129.068475,12.3083905 129.504244,12.5307692 C129.940013,12.753148 130.286643,13.0783195 130.544143,13.5062937 C130.801642,13.9342679 130.93039,14.4419551 130.93039,15.0293706 C130.93039,15.6503528 130.801642,16.1853124 130.544143,16.6342657 C130.286643,17.083219 129.93011,17.4230758 129.474533,17.6538462 C129.018956,17.8846165 128.498022,18 127.911715,18 Z M133.271647,17.8741259 C133.200339,17.8741259 133.142898,17.8468534 133.099321,17.7923077 C133.055744,17.737762 133.033956,17.6727277 133.033956,17.5972028 L133.057725,17.4839161 L136.028862,10.1202797 L132.106961,10.1202797 C132.02773,10.1202797 131.962366,10.0930073 131.910866,10.0384615 C131.859366,9.98391581 131.833616,9.91468573 131.833616,9.83076923 L131.833616,9.36503497 C131.833616,9.27272681 131.857385,9.19930097 131.904924,9.14475524 C131.952462,9.09020952 132.019807,9.06293706 132.106961,9.06293706 L136.955857,9.06293706 C137.043011,9.06293706 137.110356,9.09020952 137.157895,9.14475524 C137.205433,9.19930097 137.229202,9.27272681 137.229202,9.36503497 L137.229202,9.79300699 C137.229202,9.9440567 137.19751,10.1076914 137.134126,10.2839161 L134.198642,17.5594406 C134.159026,17.6517487 134.11545,17.7272724 134.067912,17.786014 C134.020373,17.8447555 133.953028,17.8741259 133.865874,17.8741259 L133.271647,17.8741259 Z M139.843803,13.4811189 C139.328803,13.4811189 138.922752,13.3363651 138.625637,13.0468531 C138.328521,12.7573412 138.168082,12.3566459 138.144312,11.8447552 C138.136389,11.7020972 138.132428,11.5174837 138.132428,11.2909091 C138.132428,11.0475512 138.136389,10.8503504 138.144312,10.6993007 C138.168082,10.1790184 138.322579,9.7657358 138.60781,9.45944056 C138.89304,9.15314532 139.305034,9 139.843803,9 C140.382572,9 140.796546,9.15314532 141.085739,9.45944056 C141.374931,9.7657358 141.531409,10.1790184 141.555178,10.6993007 C141.571024,11.0014001 141.578947,11.1986009 141.578947,11.2909091 C141.578947,11.3748256 141.571024,11.5594391 141.555178,11.8447552 C141.531409,12.3566459 141.368988,12.7573412 141.067912,13.0468531 C140.766835,13.3363651 140.358803,13.4811189 139.843803,13.4811189 Z M138.845501,17.8741259 C138.774193,17.8741259 138.714771,17.8510492 138.667233,17.8048951 C138.619694,17.758741 138.595925,17.6979025 138.595925,17.6223776 C138.595925,17.5720277 138.611771,17.5258743 138.643463,17.4839161 L144.514431,9.3020979 C144.577816,9.20978975 144.635257,9.14685331 144.686757,9.11328671 C144.738257,9.07972011 144.811545,9.06293706 144.906621,9.06293706 L145.286927,9.06293706 C145.358235,9.06293706 145.415676,9.08601376 145.459253,9.13216783 C145.50283,9.17832191 145.524618,9.23916046 145.524618,9.31468531 C145.524618,9.36503522 145.508772,9.4111886 145.47708,9.45314685 L139.617997,17.634965 C139.554612,17.7188815 139.497171,17.7797201 139.445671,17.8174825 C139.394171,17.8552449 139.320883,17.8741259 139.225806,17.8741259 L138.845501,17.8741259 Z M139.843803,12.7132867 C140.129034,12.7132867 140.338992,12.6251757 140.473684,12.448951 C140.608376,12.2727264 140.687606,12.0545468 140.711375,11.7944056 C140.727221,11.4923062 140.735144,11.3160842 140.735144,11.2657343 C140.735144,11.1902094 140.727221,11.0181832 140.711375,10.7496503 C140.695529,10.4895092 140.61828,10.2692317 140.479626,10.0888112 C140.340973,9.90839071 140.129034,9.81818182 139.843803,9.81818182 C139.558572,9.81818182 139.348614,9.90839071 139.213922,10.0888112 C139.07923,10.2692317 139.003962,10.4895092 138.988115,10.7496503 C138.980192,10.8839168 138.976231,11.055943 138.976231,11.2657343 C138.976231,11.4671339 138.980192,11.6433559 138.988115,11.7944056 C139.011885,12.0461551 139.089133,12.2622369 139.219864,12.4426573 C139.350595,12.6230778 139.558572,12.7132867 139.843803,12.7132867 Z M144.264856,17.9496503 C143.749856,17.9496503 143.343805,17.7944071 143.046689,17.4839161 C142.749574,17.173425 142.589134,16.7622403 142.565365,16.2503497 C142.549519,15.9986001 142.541596,15.8307697 142.541596,15.7468531 C142.541596,15.6629366 142.549519,15.4531485 142.565365,15.1174825 C142.589134,14.5972002 142.743632,14.1839176 143.028862,13.8776224 C143.314093,13.5713271 143.726087,13.4181818 144.264856,13.4181818 C144.803625,13.4181818 145.217599,13.5713271 145.506791,13.8776224 C145.795983,14.1839176 145.952462,14.5972002 145.976231,15.1174825 C145.992077,15.4195819 146,15.612587 146,15.6965035 C146,15.78042 145.992077,15.9650335 145.976231,16.2503497 C145.952462,16.7622403 145.790041,17.173425 145.488964,17.4839161 C145.187888,17.7944071 144.779855,17.9496503 144.264856,17.9496503 Z M144.264856,17.1314685 C144.550086,17.1314685 144.760045,17.0433575 144.894737,16.8671329 C145.029429,16.6909082 145.108659,16.4727286 145.132428,16.2125874 C145.148274,15.910488 145.156197,15.7300702 145.156197,15.6713287 C145.156197,15.6041955 145.148274,15.436365 145.132428,15.1678322 C145.116582,14.907691 145.039333,14.6874135 144.900679,14.506993 C144.762025,14.3265725 144.550086,14.2363636 144.264856,14.2363636 C143.979625,14.2363636 143.769667,14.3265725 143.634975,14.506993 C143.500282,14.6874135 143.425014,14.907691 143.409168,15.1678322 C143.401245,15.3020986 143.397284,15.4699291 143.397284,15.6713287 C143.397284,15.8811199 143.401245,16.0615377 143.409168,16.2125874 C143.425014,16.4643369 143.500282,16.6804187 143.634975,16.8608392 C143.769667,17.0412596 143.979625,17.1314685 144.264856,17.1314685 Z" id="57%" fill="#000000"></path>
                    <path d="M359.982851,18 C359.369772,18 358.839231,17.8930081 358.391211,17.679021 C357.943192,17.4650339 357.603252,17.1860157 357.371383,16.841958 C357.139513,16.4979004 357.01572,16.1412606 357,15.772028 C357,15.6965031 357.02358,15.6356646 357.07074,15.5895105 C357.117899,15.5433564 357.176849,15.5202797 357.247588,15.5202797 L357.778135,15.5202797 C357.864595,15.5202797 357.935334,15.5391607 357.990354,15.5769231 C358.045374,15.6146855 358.088603,15.6881113 358.120043,15.7972028 C358.222223,16.225177 358.444264,16.5272718 358.786174,16.7034965 C359.128083,16.8797212 359.530902,16.9678322 359.994641,16.9678322 C360.56056,16.9678322 361.010538,16.8230784 361.344587,16.5335664 C361.678637,16.2440545 361.845659,15.8307719 361.845659,15.2937063 C361.845659,14.269925 361.260099,13.758042 360.08896,13.758042 L358.980707,13.758042 C358.902108,13.758042 358.837264,13.7307695 358.786174,13.6762238 C358.735084,13.621678 358.709539,13.552448 358.709539,13.4685315 L358.709539,13.1412587 C358.709539,13.015384 358.752768,12.9062942 358.839228,12.813986 L361.138264,10.0951049 L357.648446,10.0951049 C357.569846,10.0951049 357.505002,10.0699303 357.453912,10.0195804 C357.402822,9.96923052 357.377278,9.90209832 357.377278,9.81818182 L357.377278,9.36503497 C357.377278,9.27272681 357.402822,9.19930097 357.453912,9.14475524 C357.505002,9.09020952 357.569846,9.06293706 357.648446,9.06293706 L362.317256,9.06293706 C362.403716,9.06293706 362.47249,9.09020952 362.52358,9.14475524 C362.57467,9.19930097 362.600214,9.27272681 362.600214,9.36503497 L362.600214,9.78041958 C362.600214,9.87272773 362.560915,9.96923027 362.482315,10.0699301 L360.18328,12.8265734 L360.371919,12.8265734 C361.173637,12.8517484 361.808322,13.0741238 362.275991,13.4937063 C362.743661,13.9132888 362.977492,14.5258701 362.977492,15.3314685 C362.977492,15.8853175 362.849769,16.3615365 362.594319,16.7601399 C362.33887,17.1587433 361.983211,17.4650339 361.527331,17.679021 C361.071452,17.8930081 360.55663,18 359.982851,18 Z M367.162915,18 C366.534116,18 365.98982,17.8636377 365.530011,17.5909091 C365.070201,17.3181805 364.720437,16.9510513 364.480707,16.4895105 C364.240978,16.0279697 364.121115,15.5244783 364.121115,14.979021 C364.121115,14.257339 364.39228,13.4853188 364.93462,12.6629371 L367.186495,9.31468531 C367.194355,9.30629366 367.21597,9.27692333 367.25134,9.22657343 C367.28671,9.17622352 367.331904,9.13636378 367.386924,9.10699301 C367.441944,9.07762223 367.504823,9.06293706 367.575563,9.06293706 L368.153269,9.06293706 C368.224009,9.06293706 368.280993,9.09020952 368.324223,9.14475524 C368.367453,9.19930097 368.389068,9.26433529 368.389068,9.33986014 C368.389068,9.38181839 368.369418,9.4363633 368.330118,9.5034965 L366.608789,12.0713287 C366.813149,12.0209788 367.041085,11.9958042 367.292605,11.9958042 C367.866384,11.9958042 368.37138,12.1321665 368.80761,12.4048951 C369.243839,12.6776237 369.581814,13.0384593 369.821543,13.4874126 C370.061273,13.9363659 370.181136,14.4293679 370.181136,14.9664336 C370.181136,15.5034992 370.061273,16.0048928 369.821543,16.4706294 C369.581814,16.936366 369.234014,17.3076909 368.778135,17.5846154 C368.322256,17.8615398 367.783854,18 367.162915,18 Z M367.151125,16.9552448 C367.496965,16.9552448 367.81529,16.879721 368.106109,16.7286713 C368.396929,16.5776216 368.628795,16.3531483 368.801715,16.0552448 C368.974635,15.7573412 369.061093,15.3986035 369.061093,14.979021 C369.061093,14.5678301 368.97267,14.2132882 368.79582,13.9153846 C368.61897,13.617481 368.385139,13.3909099 368.094319,13.2356643 C367.8035,13.0804188 367.489105,13.0027972 367.151125,13.0027972 C366.813146,13.0027972 366.498751,13.0804188 366.207931,13.2356643 C365.917112,13.3909099 365.685246,13.617481 365.512326,13.9153846 C365.339406,14.2132882 365.252947,14.5678301 365.252947,14.979021 C365.252947,15.3986035 365.339406,15.7573412 365.512326,16.0552448 C365.685246,16.3531483 365.917112,16.5776216 366.207931,16.7286713 C366.498751,16.879721 366.813146,16.9552448 367.151125,16.9552448 Z M372.892819,13.4811189 C372.38192,13.4811189 371.979101,13.3363651 371.684352,13.0468531 C371.389602,12.7573412 371.23044,12.3566459 371.20686,11.8447552 C371.199,11.7020972 371.19507,11.5174837 371.19507,11.2909091 C371.19507,11.0475512 371.199,10.8503504 371.20686,10.6993007 C371.23044,10.1790184 371.383707,9.7657358 371.666667,9.45944056 C371.949626,9.15314532 372.35834,9 372.892819,9 C373.427298,9 373.837976,9.15314532 374.124866,9.45944056 C374.411756,9.7657358 374.566988,10.1790184 374.590568,10.6993007 C374.606288,11.0014001 374.614148,11.1986009 374.614148,11.2909091 C374.614148,11.3748256 374.606288,11.5594391 374.590568,11.8447552 C374.566988,12.3566459 374.405861,12.7573412 374.107181,13.0468531 C373.808502,13.3363651 373.403718,13.4811189 372.892819,13.4811189 Z M371.902465,17.8741259 C371.831725,17.8741259 371.772776,17.8510492 371.725616,17.8048951 C371.678456,17.758741 371.654877,17.6979025 371.654877,17.6223776 C371.654877,17.5720277 371.670596,17.5258743 371.702036,17.4839161 L377.526259,9.3020979 C377.589139,9.20978975 377.646123,9.14685331 377.697213,9.11328671 C377.748303,9.07972011 377.821007,9.06293706 377.915327,9.06293706 L378.292605,9.06293706 C378.363344,9.06293706 378.420328,9.08601376 378.463558,9.13216783 C378.506788,9.17832191 378.528403,9.23916046 378.528403,9.31468531 C378.528403,9.36503522 378.512683,9.4111886 378.481243,9.45314685 L372.66881,17.634965 C372.60593,17.7188815 372.548946,17.7797201 372.497856,17.8174825 C372.446766,17.8552449 372.374063,17.8741259 372.279743,17.8741259 L371.902465,17.8741259 Z M372.892819,12.7132867 C373.175778,12.7132867 373.384065,12.6251757 373.517685,12.448951 C373.651305,12.2727264 373.729903,12.0545468 373.753483,11.7944056 C373.769203,11.4923062 373.777063,11.3160842 373.777063,11.2657343 C373.777063,11.1902094 373.769203,11.0181832 373.753483,10.7496503 C373.737763,10.4895092 373.66113,10.2692317 373.52358,10.0888112 C373.38603,9.90839071 373.175778,9.81818182 372.892819,9.81818182 C372.609859,9.81818182 372.401573,9.90839071 372.267953,10.0888112 C372.134333,10.2692317 372.059664,10.4895092 372.043944,10.7496503 C372.036084,10.8839168 372.032154,11.055943 372.032154,11.2657343 C372.032154,11.4671339 372.036084,11.6433559 372.043944,11.7944056 C372.067524,12.0461551 372.144158,12.2622369 372.273848,12.4426573 C372.403538,12.6230778 372.609859,12.7132867 372.892819,12.7132867 Z M377.278671,17.9496503 C376.767772,17.9496503 376.364953,17.7944071 376.070204,17.4839161 C375.775454,17.173425 375.616292,16.7622403 375.592712,16.2503497 C375.576992,15.9986001 375.569132,15.8307697 375.569132,15.7468531 C375.569132,15.6629366 375.576992,15.4531485 375.592712,15.1174825 C375.616292,14.5972002 375.769559,14.1839176 376.052519,13.8776224 C376.335478,13.5713271 376.744192,13.4181818 377.278671,13.4181818 C377.81315,13.4181818 378.223829,13.5713271 378.510718,13.8776224 C378.797608,14.1839176 378.95284,14.5972002 378.97642,15.1174825 C378.99214,15.4195819 379,15.612587 379,15.6965035 C379,15.78042 378.99214,15.9650335 378.97642,16.2503497 C378.95284,16.7622403 378.791713,17.173425 378.493033,17.4839161 C378.194354,17.7944071 377.78957,17.9496503 377.278671,17.9496503 Z M377.278671,17.1314685 C377.561631,17.1314685 377.769917,17.0433575 377.903537,16.8671329 C378.037157,16.6909082 378.115756,16.4727286 378.139335,16.2125874 C378.155055,15.910488 378.162915,15.7300702 378.162915,15.6713287 C378.162915,15.6041955 378.155055,15.436365 378.139335,15.1678322 C378.123615,14.907691 378.046982,14.6874135 377.909432,14.506993 C377.771882,14.3265725 377.561631,14.2363636 377.278671,14.2363636 C376.995711,14.2363636 376.787425,14.3265725 376.653805,14.506993 C376.520185,14.6874135 376.445516,14.907691 376.429796,15.1678322 C376.421936,15.3020986 376.418006,15.4699291 376.418006,15.6713287 C376.418006,15.8811199 376.421936,16.0615377 376.429796,16.2125874 C376.445516,16.4643369 376.520185,16.6804187 376.653805,16.8608392 C376.787425,17.0412596 376.995711,17.1314685 377.278671,17.1314685 Z" id="36%" fill="#000000"></path>
                    <path d="M460.421141,17.9240506 C460.350671,17.9240506 460.293904,17.8966247 460.250839,17.8417722 C460.207774,17.7869196 460.186242,17.7215194 460.186242,17.6455696 L460.209732,17.5316456 L463.145973,10.1265823 L459.270134,10.1265823 C459.191834,10.1265823 459.127237,10.0991564 459.076342,10.0443038 C459.025447,9.9894512 459,9.91983165 459,9.83544304 L459,9.36708861 C459,9.27426114 459.02349,9.20042222 459.07047,9.14556962 C459.11745,9.09071703 459.184004,9.06329114 459.270134,9.06329114 L464.062081,9.06329114 C464.148211,9.06329114 464.214765,9.09071703 464.261745,9.14556962 C464.308725,9.20042222 464.332215,9.27426114 464.332215,9.36708861 L464.332215,9.79746835 C464.332215,9.94936785 464.300895,10.1139232 464.238255,10.2911392 L461.337248,17.6075949 C461.298098,17.7004224 461.255034,17.776371 461.208054,17.835443 C461.161074,17.8945151 461.094519,17.9240506 461.008389,17.9240506 L460.421141,17.9240506 Z M466.916107,13.5063291 C466.407156,13.5063291 466.005874,13.3607609 465.712248,13.0696203 C465.418623,12.7784796 465.260067,12.37553 465.236577,11.8607595 C465.228747,11.7172989 465.224832,11.5316467 465.224832,11.3037975 C465.224832,11.0590705 465.228747,10.8607603 465.236577,10.7088608 C465.260067,10.1856514 465.41275,9.77004373 465.694631,9.46202532 C465.976511,9.1540069 466.383666,9 466.916107,9 C467.448549,9 467.857661,9.1540069 468.143456,9.46202532 C468.429252,9.77004373 468.583892,10.1856514 468.607383,10.7088608 C468.623043,11.0126597 468.630872,11.21097 468.630872,11.3037975 C468.630872,11.3881861 468.623043,11.5738382 468.607383,11.8607595 C468.583892,12.37553 468.42338,12.7784796 468.125839,13.0696203 C467.828298,13.3607609 467.425058,13.5063291 466.916107,13.5063291 Z M465.92953,17.9240506 C465.85906,17.9240506 465.800336,17.9008441 465.753356,17.8544304 C465.706376,17.8080166 465.682886,17.7468358 465.682886,17.6708861 C465.682886,17.6202529 465.698546,17.5738399 465.729866,17.5316456 L471.531879,9.30379747 C471.594519,9.21097 471.651286,9.14767949 471.702181,9.11392405 C471.753076,9.08016861 471.825503,9.06329114 471.919463,9.06329114 L472.295302,9.06329114 C472.365772,9.06329114 472.422539,9.08649766 472.465604,9.13291139 C472.508669,9.17932513 472.530201,9.24050595 472.530201,9.3164557 C472.530201,9.36708886 472.514542,9.4135019 472.483221,9.4556962 L466.692953,17.6835443 C466.630313,17.7679329 466.573546,17.8291137 466.522651,17.8670886 C466.471756,17.9050635 466.399329,17.9240506 466.305369,17.9240506 L465.92953,17.9240506 Z M466.916107,12.7341772 C467.197988,12.7341772 467.40548,12.6455705 467.538591,12.4683544 C467.671701,12.2911384 467.75,12.0717313 467.77349,11.8101266 C467.78915,11.5063276 467.79698,11.3291142 467.79698,11.278481 C467.79698,11.2025313 467.78915,11.0295372 467.77349,10.7594937 C467.75783,10.497889 467.681488,10.2763722 467.544463,10.0949367 C467.407438,9.9135012 467.197988,9.82278481 466.916107,9.82278481 C466.634227,9.82278481 466.426734,9.9135012 466.293624,10.0949367 C466.160514,10.2763722 466.08613,10.497889 466.07047,10.7594937 C466.06264,10.8945154 466.058725,11.0675095 466.058725,11.278481 C466.058725,11.4810137 466.06264,11.6582271 466.07047,11.8101266 C466.09396,12.0632924 466.170301,12.2805898 466.299497,12.4620253 C466.428692,12.6434608 466.634227,12.7341772 466.916107,12.7341772 Z M471.285235,18 C470.776284,18 470.375001,17.8438834 470.081376,17.5316456 C469.78775,17.2194077 469.629195,16.8059097 469.605705,16.2911392 C469.590045,16.0379734 469.582215,15.8691987 469.582215,15.7848101 C469.582215,15.7004215 469.590045,15.4894532 469.605705,15.1518987 C469.629195,14.6286894 469.781878,14.2130817 470.063758,13.9050633 C470.345639,13.5970449 470.752794,13.443038 471.285235,13.443038 C471.817676,13.443038 472.226788,13.5970449 472.512584,13.9050633 C472.79838,14.2130817 472.95302,14.6286894 472.97651,15.1518987 C472.99217,15.4556977 473,15.6497886 473,15.7341772 C473,15.8185658 472.99217,16.004218 472.97651,16.2911392 C472.95302,16.8059097 472.792507,17.2194077 472.494966,17.5316456 C472.197426,17.8438834 471.794186,18 471.285235,18 Z M471.285235,17.1772152 C471.567116,17.1772152 471.774608,17.0886085 471.907718,16.9113924 C472.040828,16.7341763 472.119127,16.5147692 472.142617,16.2531646 C472.158277,15.9493656 472.166107,15.7679328 472.166107,15.7088608 C472.166107,15.6413499 472.158277,15.4725752 472.142617,15.2025316 C472.126957,14.940927 472.050616,14.7194102 471.913591,14.5379747 C471.776565,14.3565392 471.567116,14.2658228 471.285235,14.2658228 C471.003354,14.2658228 470.795862,14.3565392 470.662752,14.5379747 C470.529641,14.7194102 470.455257,14.940927 470.439597,15.2025316 C470.431767,15.3375534 470.427852,15.5063281 470.427852,15.7088608 C470.427852,15.9198323 470.431767,16.1012651 470.439597,16.2531646 C470.455257,16.5063304 470.529641,16.7236278 470.662752,16.9050633 C470.795862,17.0864988 471.003354,17.1772152 471.285235,17.1772152 Z" id="7%" fill="#000000"></path>
                </g>
                <g id="Group-4" transform="translate(0.000000, 88.000000)">
                    <rect id="Rectangle-4-Copy-4" fill="#F38588" fill-rule="nonzero" x="8.24229573e-13" y="5.32907052e-15" width="157.215236" height="27"></rect>
                    <polygon id="Rectangle-4-Copy-6" fill="#FFCB09" fill-rule="nonzero" points="157.397869 5.32907052e-15 405.47126 5.32907052e-15 405.47126 27 157.397869 27"></polygon>
                    <polygon id="Rectangle-4-Copy-7" fill="#FFF200" fill-rule="nonzero" points="404.980462 5.32907052e-15 478.483689 5.32907052e-15 478.483689 27 404.980462 27"></polygon>
                    <path d="M436.835401,17.71875 C436.761665,17.71875 436.702677,17.6949846 436.658435,17.6474531 C436.614193,17.5999216 436.592073,17.5395941 436.592073,17.4664687 L436.592073,11.2800937 L434.733927,12.6950625 C434.682311,12.7389377 434.62701,12.760875 434.568021,12.760875 C434.501658,12.760875 434.438983,12.7243129 434.379994,12.6511875 L434.114545,12.3111562 C434.077677,12.2599685 434.059243,12.2087815 434.059243,12.1575937 C434.059243,12.0771558 434.096111,12.011344 434.169847,11.9601562 L436.569952,10.1174062 C436.651062,10.0662185 436.746917,10.040625 436.857522,10.040625 L437.37736,10.040625 C437.451097,10.040625 437.511928,10.0643904 437.559857,10.1119219 C437.607785,10.1594534 437.631749,10.2197809 437.631749,10.2929062 L437.631749,17.4664687 C437.631749,17.5395941 437.607785,17.5999216 437.559857,17.6474531 C437.511928,17.6949846 437.451097,17.71875 437.37736,17.71875 L436.835401,17.71875 Z M441.701973,17.8284375 C441.148951,17.8284375 440.669672,17.7297197 440.264122,17.5322812 C439.858573,17.3348428 439.548885,17.0770797 439.335049,16.7589844 C439.121214,16.440889 439.006925,16.0990331 438.992177,15.7334062 L438.992177,15.7114687 C438.992177,15.6529685 439.014298,15.6054377 439.05854,15.568875 C439.102781,15.5323123 439.154396,15.5140312 439.213385,15.5140312 L439.755344,15.5140312 C439.910191,15.5140312 440.009733,15.5944679 440.053975,15.7553437 C440.164579,16.1502207 440.369194,16.4445459 440.667827,16.6383281 C440.966459,16.8321103 441.311171,16.929 441.701973,16.929 C442.20338,16.929 442.619984,16.7772671 442.951797,16.4737969 C443.283611,16.1703266 443.449515,15.7516902 443.449515,15.217875 C443.449515,14.7279351 443.283611,14.3385483 442.951797,14.0497031 C442.619984,13.7608579 442.20338,13.6164375 441.701973,13.6164375 C441.436522,13.6164375 441.22269,13.6493434 441.06047,13.7151562 C440.898251,13.7809691 440.732346,13.8760306 440.562753,14.0003437 C440.466896,14.0734691 440.38763,14.1264842 440.324954,14.1593906 C440.262279,14.192297 440.194073,14.20875 440.120337,14.20875 L439.589438,14.20875 C439.523076,14.20875 439.464088,14.1849846 439.412472,14.1374531 C439.360857,14.0899216 439.338736,14.0332503 439.34611,13.9674375 L439.688982,10.3148437 C439.711103,10.1320303 439.803272,10.040625 439.965492,10.040625 L443.792387,10.040625 C443.873497,10.040625 443.936172,10.0625623 443.980414,10.1064375 C444.024655,10.1503127 444.046776,10.2124683 444.046776,10.2929062 L444.046776,10.69875 C444.046776,10.7718754 444.022812,10.8303748 443.974883,10.87425 C443.926955,10.9181252 443.866123,10.9400625 443.792387,10.9400625 L440.606994,10.9400625 L440.407907,13.1447812 C440.761842,12.896155 441.237434,12.7718437 441.834698,12.7718437 C442.328731,12.7718437 442.778516,12.8687334 443.184065,13.0625156 C443.589615,13.2562978 443.912207,13.5396544 444.15185,13.9125937 C444.391493,14.2855331 444.511312,14.7279349 444.511312,15.2398125 C444.511312,15.7809402 444.391493,16.2471074 444.15185,16.6383281 C443.912207,17.0295488 443.580398,17.3257021 443.156414,17.5267969 C442.732431,17.7278916 442.247622,17.8284375 441.701973,17.8284375 Z M447.165806,13.8906562 C446.68652,13.8906562 446.308627,13.7645169 446.032116,13.5122344 C445.755605,13.2599519 445.606291,12.9107835 445.58417,12.4647187 C445.576797,12.3404056 445.57311,12.1795322 445.57311,11.9820937 C445.57311,11.7700302 445.576797,11.5981882 445.58417,11.4665625 C445.606291,11.0131852 445.750075,10.6530482 446.015525,10.3861406 C446.280976,10.119233 446.664399,9.98578125 447.165806,9.98578125 C447.667213,9.98578125 448.052479,10.119233 448.321617,10.3861406 C448.590754,10.6530482 448.736381,11.0131852 448.758502,11.4665625 C448.77325,11.7298138 448.780623,11.9016558 448.780623,11.9820937 C448.780623,12.0552191 448.77325,12.2160925 448.758502,12.4647187 C448.736381,12.9107835 448.585224,13.2599519 448.305026,13.5122344 C448.024828,13.7645169 447.645092,13.8906562 447.165806,13.8906562 Z M446.236733,17.71875 C446.170371,17.71875 446.115069,17.6986408 446.070827,17.6584219 C446.026586,17.6182029 446.004465,17.5651878 446.004465,17.499375 C446.004465,17.4554998 446.019212,17.4152814 446.048707,17.3787188 L451.51254,10.2490312 C451.571529,10.1685933 451.624987,10.1137501 451.672915,10.0845 C451.720844,10.0552499 451.789049,10.040625 451.877533,10.040625 L452.231465,10.040625 C452.297828,10.040625 452.351286,10.0607342 452.391841,10.1009531 C452.432396,10.1411721 452.452673,10.1941872 452.452673,10.26 C452.452673,10.3038752 452.437926,10.3440936 452.408431,10.3806562 L446.955659,17.5103437 C446.89667,17.5834691 446.843212,17.6364842 446.795283,17.6693906 C446.747354,17.702297 446.679149,17.71875 446.590666,17.71875 L446.236733,17.71875 Z M447.165806,13.2215625 C447.431257,13.2215625 447.626655,13.144782 447.752007,12.9912187 C447.877359,12.8376555 447.951094,12.6475324 447.973215,12.4208437 C447.987962,12.1575924 447.995335,12.0040315 447.995335,11.9601562 C447.995335,11.8943434 447.987962,11.7444387 447.973215,11.5104375 C447.958467,11.2837489 447.886576,11.0917977 447.757537,10.9345781 C447.628498,10.7773586 447.431257,10.69875 447.165806,10.69875 C446.900355,10.69875 446.704957,10.7773586 446.579605,10.9345781 C446.454254,11.0917977 446.384205,11.2837489 446.369458,11.5104375 C446.362084,11.6274381 446.358398,11.7773428 446.358398,11.9601562 C446.358398,12.1356571 446.362084,12.2892181 446.369458,12.4208437 C446.391579,12.6402198 446.463471,12.8285148 446.585136,12.9857344 C446.7068,13.1429539 446.900355,13.2215625 447.165806,13.2215625 Z M451.280271,17.7845625 C450.800985,17.7845625 450.423093,17.6492826 450.146581,17.3787188 C449.87007,17.1081549 449.720756,16.749846 449.698636,16.3037812 C449.683888,16.0844052 449.676515,15.9381566 449.676515,15.8650312 C449.676515,15.7919059 449.683888,15.6090952 449.698636,15.3165937 C449.720756,14.8632165 449.86454,14.5030795 450.129991,14.2361719 C450.395442,13.9692643 450.778865,13.8358125 451.280271,13.8358125 C451.781678,13.8358125 452.166945,13.9692643 452.436082,14.2361719 C452.70522,14.5030795 452.850847,14.8632165 452.872968,15.3165937 C452.887715,15.5798451 452.895089,15.7480309 452.895089,15.8211563 C452.895089,15.8942816 452.887715,16.055155 452.872968,16.3037812 C452.850847,16.749846 452.69969,17.1081549 452.419492,17.3787188 C452.139294,17.6492826 451.759557,17.7845625 451.280271,17.7845625 Z M451.280271,17.0715937 C451.545722,17.0715937 451.74112,16.9948133 451.866472,16.84125 C451.991824,16.6876867 452.065559,16.4975636 452.08768,16.270875 C452.102427,16.0076237 452.109801,15.8504065 452.109801,15.7992187 C452.109801,15.7407185 452.102427,15.5944699 452.08768,15.3604687 C452.072933,15.1337801 452.001041,14.9418289 451.872002,14.7846094 C451.742964,14.6273898 451.545722,14.5487812 451.280271,14.5487812 C451.014821,14.5487812 450.819422,14.6273898 450.694071,14.7846094 C450.568719,14.9418289 450.498671,15.1337801 450.483923,15.3604687 C450.47655,15.4774693 450.472863,15.6237179 450.472863,15.7992187 C450.472863,15.9820322 450.47655,16.1392493 450.483923,16.270875 C450.498671,16.4902511 450.568719,16.6785461 450.694071,16.8357656 C450.819422,16.9929852 451.014821,17.0715937 451.280271,17.0715937 Z" id="15%" fill="#000000"></path>
                    <path d="M273.619342,17.8284375 C273.066319,17.8284375 272.587041,17.7297197 272.181491,17.5322812 C271.775941,17.3348428 271.466253,17.0770797 271.252418,16.7589844 C271.038583,16.440889 270.924293,16.0990331 270.909546,15.7334062 L270.909546,15.7114687 C270.909546,15.6529685 270.931666,15.6054377 270.975908,15.568875 C271.02015,15.5323123 271.071765,15.5140312 271.130754,15.5140312 L271.672713,15.5140312 C271.827559,15.5140312 271.927102,15.5944679 271.971343,15.7553437 C272.081948,16.1502207 272.286563,16.4445459 272.585195,16.6383281 C272.883827,16.8321103 273.228539,16.929 273.619342,16.929 C274.120749,16.929 274.537352,16.7772671 274.869166,16.4737969 C275.200979,16.1703266 275.366883,15.7516902 275.366883,15.217875 C275.366883,14.7279351 275.200979,14.3385483 274.869166,14.0497031 C274.537352,13.7608579 274.120749,13.6164375 273.619342,13.6164375 C273.353891,13.6164375 273.140059,13.6493434 272.977839,13.7151562 C272.815619,13.7809691 272.649715,13.8760306 272.480121,14.0003437 C272.384264,14.0734691 272.304999,14.1264842 272.242323,14.1593906 C272.179647,14.192297 272.111442,14.20875 272.037706,14.20875 L271.506807,14.20875 C271.440444,14.20875 271.381456,14.1849846 271.329841,14.1374531 C271.278225,14.0899216 271.256105,14.0332503 271.263478,13.9674375 L271.606351,10.3148437 C271.628471,10.1320303 271.72064,10.040625 271.88286,10.040625 L275.709755,10.040625 C275.790865,10.040625 275.85354,10.0625623 275.897782,10.1064375 C275.942024,10.1503127 275.964144,10.2124683 275.964144,10.2929062 L275.964144,10.69875 C275.964144,10.7718754 275.940181,10.8303748 275.892252,10.87425 C275.844323,10.9181252 275.783492,10.9400625 275.709755,10.9400625 L272.524363,10.9400625 L272.325276,13.1447812 C272.67921,12.896155 273.154802,12.7718437 273.752066,12.7718437 C274.2461,12.7718437 274.695884,12.8687334 275.101434,13.0625156 C275.506984,13.2562978 275.829575,13.5396544 276.069218,13.9125937 C276.308861,14.2855331 276.428681,14.7279349 276.428681,15.2398125 C276.428681,15.7809402 276.308861,16.2471074 276.069218,16.6383281 C275.829575,17.0295488 275.497767,17.3257021 275.073783,17.5267969 C274.649799,17.7278916 274.16499,17.8284375 273.619342,17.8284375 Z M277.744867,17.71875 C277.671131,17.71875 277.6103,17.6949846 277.562371,17.6474531 C277.514442,17.5999216 277.490478,17.5395941 277.490478,17.4664687 L277.490478,17.1374062 C277.490478,16.9692179 277.582647,16.8083445 277.766988,16.6547812 L280.178153,14.2745625 C280.723802,13.8138727 281.099852,13.4372827 281.306313,13.1447812 C281.512775,12.8522798 281.616004,12.5415016 281.616004,12.2124375 C281.616004,11.7809978 281.494341,11.4427981 281.251011,11.1978281 C281.007681,10.9528582 280.653752,10.830375 280.189214,10.830375 C279.746796,10.830375 279.396554,10.9583425 279.138477,11.2142812 C278.8804,11.47022 278.721869,11.8139041 278.66288,12.2453437 C278.648133,12.3257817 278.611265,12.3879373 278.552276,12.4318125 C278.493287,12.4756877 278.434299,12.497625 278.37531,12.497625 L277.844411,12.497625 C277.778048,12.497625 277.722747,12.4756877 277.678505,12.4318125 C277.634263,12.3879373 277.612143,12.3367503 277.612143,12.27825 C277.62689,11.8906856 277.731963,11.5159237 277.927364,11.1539531 C278.122765,10.7919826 278.412176,10.4958293 278.795605,10.2654844 C279.179033,10.0351395 279.643565,9.91996875 280.189214,9.91996875 C281.01506,9.91996875 281.636279,10.1338572 282.05289,10.5616406 C282.4695,10.989424 282.677802,11.5323717 282.677802,12.1905 C282.677802,12.6511898 282.565355,13.06617 282.34046,13.4354531 C282.115564,13.8047362 281.763478,14.194123 281.284192,14.603625 L279.105295,16.797375 L282.589319,16.797375 C282.670428,16.797375 282.733103,16.8193123 282.777345,16.8631875 C282.821587,16.9070627 282.843708,16.9692183 282.843708,17.0496562 L282.843708,17.4664687 C282.843708,17.5395941 282.819744,17.5999216 282.771815,17.6474531 C282.723886,17.6949846 282.663055,17.71875 282.589319,17.71875 L277.744867,17.71875 Z M285.542443,13.8906562 C285.063157,13.8906562 284.685264,13.7645169 284.408753,13.5122344 C284.132242,13.2599519 283.982928,12.9107835 283.960807,12.4647187 C283.953433,12.3404056 283.949747,12.1795322 283.949747,11.9820937 C283.949747,11.7700302 283.953433,11.5981882 283.960807,11.4665625 C283.982928,11.0131852 284.126712,10.6530482 284.392162,10.3861406 C284.657613,10.119233 285.041036,9.98578125 285.542443,9.98578125 C286.04385,9.98578125 286.429116,10.119233 286.698254,10.3861406 C286.967391,10.6530482 287.113018,11.0131852 287.135139,11.4665625 C287.149886,11.7298138 287.15726,11.9016558 287.15726,11.9820937 C287.15726,12.0552191 287.149886,12.2160925 287.135139,12.4647187 C287.113018,12.9107835 286.961861,13.2599519 286.681663,13.5122344 C286.401465,13.7645169 286.021729,13.8906562 285.542443,13.8906562 Z M284.61337,17.71875 C284.547007,17.71875 284.491706,17.6986408 284.447464,17.6584219 C284.403222,17.6182029 284.381102,17.5651878 284.381102,17.499375 C284.381102,17.4554998 284.395849,17.4152814 284.425343,17.3787188 L289.889176,10.2490312 C289.948165,10.1685933 290.001624,10.1137501 290.049552,10.0845 C290.097481,10.0552499 290.165686,10.040625 290.254169,10.040625 L290.608102,10.040625 C290.674465,10.040625 290.727923,10.0607342 290.768478,10.1009531 C290.809032,10.1411721 290.82931,10.1941872 290.82931,10.26 C290.82931,10.3038752 290.814563,10.3440936 290.785068,10.3806562 L285.332295,17.5103437 C285.273306,17.5834691 285.219848,17.6364842 285.17192,17.6693906 C285.123991,17.702297 285.055786,17.71875 284.967303,17.71875 L284.61337,17.71875 Z M285.542443,13.2215625 C285.807894,13.2215625 286.003292,13.144782 286.128644,12.9912187 C286.253995,12.8376555 286.327731,12.6475324 286.349851,12.4208437 C286.364599,12.1575924 286.371972,12.0040315 286.371972,11.9601562 C286.371972,11.8943434 286.364599,11.7444387 286.349851,11.5104375 C286.335104,11.2837489 286.263212,11.0917977 286.134174,10.9345781 C286.005135,10.7773586 285.807894,10.69875 285.542443,10.69875 C285.276992,10.69875 285.081594,10.7773586 284.956242,10.9345781 C284.83089,11.0917977 284.760842,11.2837489 284.746095,11.5104375 C284.738721,11.6274381 284.735034,11.7773428 284.735034,11.9601562 C284.735034,12.1356571 284.738721,12.2892181 284.746095,12.4208437 C284.768216,12.6402198 284.840107,12.8285148 284.961772,12.9857344 C285.083437,13.1429539 285.276992,13.2215625 285.542443,13.2215625 Z M289.656908,17.7845625 C289.177622,17.7845625 288.799729,17.6492826 288.523218,17.3787188 C288.246707,17.1081549 288.097393,16.749846 288.075272,16.3037812 C288.060525,16.0844052 288.053152,15.9381566 288.053152,15.8650312 C288.053152,15.7919059 288.060525,15.6090952 288.075272,15.3165937 C288.097393,14.8632165 288.241177,14.5030795 288.506628,14.2361719 C288.772078,13.9692643 289.155501,13.8358125 289.656908,13.8358125 C290.158315,13.8358125 290.543582,13.9692643 290.812719,14.2361719 C291.081857,14.5030795 291.227484,14.8632165 291.249605,15.3165937 C291.264352,15.5798451 291.271725,15.7480309 291.271725,15.8211562 C291.271725,15.8942816 291.264352,16.055155 291.249605,16.3037812 C291.227484,16.749846 291.076326,17.1081549 290.796128,17.3787188 C290.515931,17.6492826 290.136194,17.7845625 289.656908,17.7845625 Z M289.656908,17.0715937 C289.922359,17.0715937 290.117757,16.9948133 290.243109,16.84125 C290.368461,16.6876867 290.442196,16.4975636 290.464317,16.270875 C290.479064,16.0076237 290.486438,15.8504065 290.486438,15.7992187 C290.486438,15.7407185 290.479064,15.5944699 290.464317,15.3604687 C290.449569,15.1337801 290.377678,14.9418289 290.248639,14.7846094 C290.119601,14.6273898 289.922359,14.5487812 289.656908,14.5487812 C289.391458,14.5487812 289.196059,14.6273898 289.070708,14.7846094 C288.945356,14.9418289 288.875307,15.1337801 288.86056,15.3604687 C288.853186,15.4774693 288.8495,15.6237179 288.8495,15.7992187 C288.8495,15.9820322 288.853186,16.1392493 288.86056,16.270875 C288.875307,16.4902511 288.945356,16.6785461 289.070708,16.8357656 C289.196059,16.9929852 289.391458,17.0715937 289.656908,17.0715937 Z" id="52%" fill="#000000"></path>
                    <path d="M75.3278052,17.8284375 C74.752662,17.8284375 74.2549494,17.7352041 73.8346525,17.5487344 C73.4143555,17.3622647 73.0954508,17.1191265 72.8779287,16.8193125 C72.6604066,16.5194985 72.5442736,16.2087204 72.5295264,15.8869687 C72.5295264,15.8211559 72.5516469,15.7681408 72.5958887,15.7279219 C72.6401305,15.6877029 72.6954319,15.6675937 72.7617946,15.6675937 L73.2595121,15.6675937 C73.3406221,15.6675937 73.4069838,15.6840467 73.4585992,15.7169531 C73.5102146,15.7498595 73.550769,15.8138433 73.5802635,15.9089062 C73.6761207,16.2818456 73.8844226,16.545093 74.2051756,16.6986562 C74.5259285,16.8522195 74.9038214,16.929 75.3388656,16.929 C75.869767,16.929 76.291901,16.8028606 76.6052803,16.5505781 C76.9186597,16.2982956 77.075347,15.9381586 77.075347,15.4701562 C77.075347,14.5780268 76.5260197,14.1319687 75.4273487,14.1319687 L74.387672,14.1319687 C74.3139357,14.1319687 74.2531042,14.1082034 74.2051756,14.0606719 C74.157247,14.0131404 74.133283,13.9528129 74.133283,13.8796875 L74.133283,13.5945 C74.133283,13.484812 74.1738374,13.3897504 74.2549473,13.3093125 L76.4117235,10.9400625 L73.1378478,10.9400625 C73.0641115,10.9400625 73.00328,10.9181252 72.9553514,10.87425 C72.9074228,10.8303748 72.8834589,10.7718754 72.8834589,10.69875 L72.8834589,10.303875 C72.8834589,10.2234371 72.9074228,10.1594534 72.9553514,10.1119219 C73.00328,10.0643904 73.0641115,10.040625 73.1378478,10.040625 L77.5177626,10.040625 C77.5988725,10.040625 77.6633908,10.0643904 77.7113194,10.1119219 C77.759248,10.1594534 77.783212,10.2234371 77.783212,10.303875 L77.783212,10.6658437 C77.783212,10.7462817 77.7463444,10.8303746 77.6726081,10.918125 L75.5158319,13.3202812 L75.6927981,13.3202812 C76.4449084,13.3422189 77.0403202,13.5359982 77.4790512,13.901625 C77.9177822,14.2672518 78.1371445,14.801059 78.1371445,15.5030625 C78.1371445,15.9856899 78.0173248,16.4006701 77.7776818,16.7480156 C77.5380388,17.0953611 77.204387,17.3622647 76.7767164,17.5487344 C76.3490458,17.7352041 75.8660803,17.8284375 75.3278052,17.8284375 Z M81.9419189,17.8284375 C81.3667757,17.8284375 80.8690631,17.7352041 80.4487661,17.5487344 C80.0284692,17.3622647 79.7095644,17.1191265 79.4920423,16.8193125 C79.2745202,16.5194985 79.1583873,16.2087204 79.14364,15.8869687 C79.14364,15.8211559 79.1657606,15.7681408 79.2100024,15.7279219 C79.2542442,15.6877029 79.3095456,15.6675937 79.3759082,15.6675937 L79.8736258,15.6675937 C79.9547358,15.6675937 80.0210974,15.6840467 80.0727129,15.7169531 C80.1243283,15.7498595 80.1648826,15.8138433 80.1943772,15.9089062 C80.2902344,16.2818456 80.4985363,16.545093 80.8192892,16.6986562 C81.1400422,16.8522195 81.5179351,16.929 81.9529793,16.929 C82.4838807,16.929 82.9060147,16.8028606 83.219394,16.5505781 C83.5327733,16.2982956 83.6894606,15.9381586 83.6894606,15.4701562 C83.6894606,14.5780268 83.1401334,14.1319687 82.0414624,14.1319687 L81.0017857,14.1319687 C80.9280494,14.1319687 80.8672178,14.1082034 80.8192892,14.0606719 C80.7713606,14.0131404 80.7473967,13.9528129 80.7473967,13.8796875 L80.7473967,13.5945 C80.7473967,13.484812 80.7879511,13.3897504 80.869061,13.3093125 L83.0258372,10.9400625 L79.7519615,10.9400625 C79.6782252,10.9400625 79.6173937,10.9181252 79.5694651,10.87425 C79.5215365,10.8303748 79.4975725,10.7718754 79.4975725,10.69875 L79.4975725,10.303875 C79.4975725,10.2234371 79.5215365,10.1594534 79.5694651,10.1119219 C79.6173937,10.0643904 79.6782252,10.040625 79.7519615,10.040625 L84.1318763,10.040625 C84.2129862,10.040625 84.2775045,10.0643904 84.3254331,10.1119219 C84.3733617,10.1594534 84.3973256,10.2234371 84.3973256,10.303875 L84.3973256,10.6658437 C84.3973256,10.7462817 84.360458,10.8303746 84.2867217,10.918125 L82.1299455,13.3202812 L82.3069118,13.3202812 C83.0590221,13.3422189 83.6544339,13.5359982 84.0931649,13.901625 C84.5318959,14.2672518 84.7512581,14.801059 84.7512581,15.5030625 C84.7512581,15.9856899 84.6314384,16.4006701 84.3917954,16.7480156 C84.1521524,17.0953611 83.8185007,17.3622647 83.3908301,17.5487344 C82.9631595,17.7352041 82.4801939,17.8284375 81.9419189,17.8284375 Z M87.4168123,13.8906562 C86.9375263,13.8906562 86.5596334,13.7645169 86.2831223,13.5122344 C86.0066111,13.2599519 85.8572973,12.9107835 85.8351764,12.4647187 C85.8278028,12.3404056 85.8241161,12.1795322 85.8241161,11.9820937 C85.8241161,11.7700302 85.8278028,11.5981882 85.8351764,11.4665625 C85.8572973,11.0131852 86.001081,10.6530482 86.2665317,10.3861406 C86.5319824,10.119233 86.9154054,9.98578125 87.4168123,9.98578125 C87.9182192,9.98578125 88.3034856,10.119233 88.5726232,10.3861406 C88.8417607,10.6530482 88.9873877,11.0131852 89.0095086,11.4665625 C89.0242559,11.7298138 89.0316294,11.9016558 89.0316294,11.9820937 C89.0316294,12.0552191 89.0242559,12.2160925 89.0095086,12.4647187 C88.9873877,12.9107835 88.8362305,13.2599519 88.5560326,13.5122344 C88.2758346,13.7645169 87.8960983,13.8906562 87.4168123,13.8906562 Z M86.4877395,17.71875 C86.4213768,17.71875 86.3660754,17.6986408 86.3218336,17.6584219 C86.2775919,17.6182029 86.2554713,17.5651878 86.2554713,17.499375 C86.2554713,17.4554998 86.2702183,17.4152814 86.2997129,17.3787188 L91.7635459,10.2490312 C91.8225349,10.1685933 91.875993,10.1137501 91.9239216,10.0845 C91.9718502,10.0552499 92.0400552,10.040625 92.1285388,10.040625 L92.4824713,10.040625 C92.548834,10.040625 92.602292,10.0607342 92.642847,10.1009531 C92.6834019,10.1411721 92.7036791,10.1941872 92.7036791,10.26 C92.7036791,10.3038752 92.6889321,10.3440936 92.6594375,10.3806562 L87.2066649,17.5103437 C87.1476759,17.5834691 87.0942178,17.6364842 87.0462892,17.6693906 C86.9983606,17.702297 86.9301556,17.71875 86.841672,17.71875 L86.4877395,17.71875 Z M87.4168123,13.2215625 C87.682263,13.2215625 87.8776613,13.144782 88.003013,12.9912187 C88.1283648,12.8376555 88.2021,12.6475324 88.2242208,12.4208437 C88.2389681,12.1575924 88.2463416,12.0040315 88.2463416,11.9601562 C88.2463416,11.8943434 88.2389681,11.7444387 88.2242208,11.5104375 C88.2094736,11.2837489 88.1375818,11.0917977 88.0085432,10.9345781 C87.8795047,10.7773586 87.682263,10.69875 87.4168123,10.69875 C87.1513616,10.69875 86.9559633,10.7773586 86.8306116,10.9345781 C86.7052599,11.0917977 86.6352114,11.2837489 86.6204642,11.5104375 C86.6130906,11.6274381 86.6094038,11.7773428 86.6094038,11.9601562 C86.6094038,12.1356571 86.6130906,12.2892181 86.6204642,12.4208437 C86.6425851,12.6402198 86.7144769,12.8285148 86.8361418,12.9857344 C86.9578067,13.1429539 87.1513616,13.2215625 87.4168123,13.2215625 Z M91.5312777,17.7845625 C91.0519917,17.7845625 90.6740988,17.6492826 90.3975876,17.3787188 C90.1210765,17.1081549 89.9717627,16.749846 89.9496418,16.3037812 C89.9348945,16.0844052 89.927521,15.9381566 89.927521,15.8650312 C89.927521,15.7919059 89.9348945,15.6090952 89.9496418,15.3165937 C89.9717627,14.8632165 90.1155463,14.5030795 90.380997,14.2361719 C90.6464478,13.9692643 91.0298708,13.8358125 91.5312777,13.8358125 C92.0326846,13.8358125 92.417951,13.9692643 92.6870885,14.2361719 C92.956226,14.5030795 93.1018531,14.8632165 93.123974,15.3165937 C93.1387212,15.5798451 93.1460947,15.7480309 93.1460947,15.8211563 C93.1460947,15.8942816 93.1387212,16.055155 93.123974,16.3037812 C93.1018531,16.749846 92.9506959,17.1081549 92.6704979,17.3787188 C92.3903,17.6492826 92.0105637,17.7845625 91.5312777,17.7845625 Z M91.5312777,17.0715937 C91.7967284,17.0715937 91.9921267,16.9948133 92.1174784,16.84125 C92.2428301,16.6876867 92.3165653,16.4975636 92.3386862,16.270875 C92.3534335,16.0076237 92.360807,15.8504065 92.360807,15.7992187 C92.360807,15.7407185 92.3534335,15.5944699 92.3386862,15.3604687 C92.3239389,15.1337801 92.2520471,14.9418289 92.1230086,14.7846094 C91.9939701,14.6273898 91.7967284,14.5487812 91.5312777,14.5487812 C91.265827,14.5487812 91.0704287,14.6273898 90.945077,14.7846094 C90.8197253,14.9418289 90.7496768,15.1337801 90.7349295,15.3604687 C90.7275559,15.4774693 90.7238692,15.6237179 90.7238692,15.7992187 C90.7238692,15.9820322 90.7275559,16.1392493 90.7349295,16.270875 C90.7496768,16.4902511 90.8197253,16.6785461 90.945077,16.8357656 C91.0704287,16.9929852 91.265827,17.0715937 91.5312777,17.0715937 Z" id="33%" fill="#000000"></path>
                    <g id="Group"></g>
                </g>
            </g>
        </g>
    </g>
</svg>