<?xml version="1.0" encoding="UTF-8"?>
<svg width="45px" height="45px" viewBox="0 0 45 45" version="1.1" xmlns="http://www.w3.org/2000/svg" xmlns:xlink="http://www.w3.org/1999/xlink">
    <!-- Generator: Sketch 47.1 (45422) - http://www.bohemiancoding.com/sketch -->
    <title>facebook2 copy 3</title>
    <desc>Created with Sketch.</desc>
    <defs></defs>
    <g id="Landing" stroke="none" stroke-width="1" fill="none" fill-rule="evenodd">
        <g id="ali-d2-copy" transform="translate(-193.000000, -452.000000)">
            <g id="facebook2-copy-3" transform="translate(193.000000, 452.000000)">
                <path d="M22.4762682,44.9999477 C16.5084021,45.0128452 10.7814996,42.6416911 6.5631288,38.4113067 C2.34475796,34.1809222 -0.0171807517,28.4401986 9.40961448e-05,22.4597631 C9.40961448e-05,9.90921896 10.3609481,-0.237643485 22.9514675,0.00423643029 C35.0713133,0.23402235 45.2254933,10.2584331 44.9961908,22.9314289 C44.7729225,35.2552106 34.6398625,45.0755351 22.4762682,44.9984359 L22.4762682,44.9999477 Z" id="Shape" fill="#FFFFFF"></path>
                <path d="M26.9880579,12.0561147 C26.9432751,12.0257824 26.919391,12 26.8955068,12 C25.3908046,12.0379153 23.8681893,11.952985 22.3858785,12.1562112 C20.4094641,12.4231353 19.3555755,13.7698883 19.283923,15.8067007 C19.2495895,16.763684 19.2719809,17.7282504 19.2689954,18.6882669 L19.2689954,19.2114987 L17,19.2114987 L17,22.9636013 L19.283923,22.9636013 L19.283923,34 L23.6323332,34 L23.6323332,22.886254 L26.6775638,22.886254 C26.7865353,21.6380808 26.8925213,20.4384393 27,19.1887495 L23.6442753,19.1887495 C23.6442753,18.3091135 23.6263621,17.4749759 23.6487535,16.6438715 C23.6636811,16.1130567 23.8846096,15.8855646 24.411554,15.8537157 C24.9728318,15.8142837 25.5400806,15.8294499 26.0968801,15.8218668 L26.9895507,15.8218668 L26.9880579,12.0545981 L26.9880579,12.0561147 Z" id="Shape" fill="#333" fill-rule="nonzero"></path>
            </g>
        </g>
    </g>
</svg>