<?xml version="1.0" encoding="UTF-8"?>
<svg width="37px" height="37px" viewBox="0 0 37 37" version="1.1" xmlns="http://www.w3.org/2000/svg" xmlns:xlink="http://www.w3.org/1999/xlink">
    <!-- Generator: Sketch 47.1 (45422) - http://www.bohemiancoding.com/sketch -->
    <title>facebook</title>
    <desc>Created with Sketch.</desc>
    <defs></defs>
    <g id="All" stroke="none" stroke-width="1" fill="none" fill-rule="evenodd">
        <g id="Footer" transform="translate(-76.000000, -1631.000000)">
            <g id="Op-02" transform="translate(0.000000, 994.000000)">
                <g id="Follow" transform="translate(77.000000, 605.000000)">
                    <g id="facebook" transform="translate(0.000000, 33.000000)">
                        <path d="M17.4283983,34.9698881 C7.79259152,34.9698881 0.0469073744,27.213199 0.0469073744,17.5745029 C0.0449981597,7.88880432 8.05988154,0.057800418 17.7962402,0.245810569 C27.1698482,0.423022839 35.0224483,8.16002161 34.8448914,17.9403605 C34.6717892,27.4507524 26.8350992,35.0289588 17.4283983,34.9698881 Z" id="Shape" stroke="#FFFFFF" fill-rule="nonzero"></path>
                        <path d="M21.3508239,9.27404657 C21.3149253,9.25225875 21.2960057,9.2314392 21.2780564,9.2314392 C20.1011646,9.26145804 18.9121449,9.19561031 17.7532024,9.35151445 C16.2085924,9.5572886 15.3853503,10.5934218 15.3285918,12.1602101 C15.3019104,12.8966394 15.3198596,13.6388788 15.3164639,14.3762763 L15.3164639,14.7795936 L13.5448196,14.7795936 L13.5448196,17.6657572 L15.3290768,17.6657572 L15.3290768,26.1557551 L18.7278007,26.1557551 L18.7278007,17.6057195 L21.1077807,17.6057195 C21.1921909,16.6465701 21.2756309,15.7227653 21.3590708,14.7621633 L18.7375031,14.7621633 C18.7375031,14.0862559 18.7244049,13.4427881 18.741384,12.8036779 C18.7535119,12.3955189 18.9262133,12.2202478 19.3380769,12.1960391 C19.7756517,12.1665044 20.2190478,12.1776404 20.6541971,12.1718303 C20.8870528,12.1708619 21.117483,12.1718303 21.3517941,12.1718303 C21.3508239,11.1589375 21.3508239,10.2099557 21.3508239,9.27404657 Z" id="Shape-path" fill="#FFFFFF"></path>
                    </g>
                </g>
            </g>
        </g>
    </g>
</svg>