<?xml version="1.0" encoding="UTF-8"?>
<svg width="47px" height="47px" viewBox="0 0 47 47" version="1.1" xmlns="http://www.w3.org/2000/svg" xmlns:xlink="http://www.w3.org/1999/xlink">
    <!-- Generator: Sketch 47.1 (45422) - http://www.bohemiancoding.com/sketch -->
    <title>instagram copy</title>
    <desc>Created with Sketch.</desc>
    <defs>
        <polygon id="path-1" points="22 0 0 0 0 7 22 7"></polygon>
    </defs>
    <g id="Landing" stroke="none" stroke-width="1" fill="none" fill-rule="evenodd">
        <g id="instagram-copy" transform="translate(1.000000, 1.000000)">
            <ellipse id="Oval" stroke="#FFFFFF" stroke-width="2" fill="#FFFFFF" fill-rule="nonzero" cx="22.3881081" cy="22.482973" rx="21.7860811" ry="21.7204054"></ellipse>
            <path d="M28.2089189,18.9097297 C28.2831081,18.8975676 28.3366216,18.8793243 28.3913514,18.8793243 C30.0089189,18.8793243 31.6240541,18.8805405 33.2404054,18.8781081 C33.3535135,18.8781081 33.3936486,18.9097297 33.3936486,19.0277027 C33.3912162,22.4221622 33.3972973,25.8154054 33.3863514,29.2098649 C33.3772711,29.6827702 33.2837752,30.1502498 33.1102703,30.5902703 C32.9048324,31.1706863 32.5428335,31.6829568 32.0643243,32.0704054 C31.8059757,32.2771007 31.5138352,32.4375722 31.2008108,32.5447297 C30.7872973,32.6858108 30.3628378,32.7381081 29.9274324,32.7381081 C25.137973,32.7344595 20.3472973,32.7332432 15.5566216,32.7368919 C14.9818288,32.7426826 14.4115211,32.6352333 13.8782432,32.4206757 C12.9794595,32.0509459 12.2448649,31.4683784 11.745,30.6206757 C11.4606803,30.1470733 11.3098084,29.6053631 11.3083784,29.052973 C11.3083784,25.7132432 11.3083784,22.3735135 11.3047297,19.0313514 C11.3047297,18.9060811 11.3472973,18.8781081 11.4677027,18.8781081 C13.3504054,18.8817568 15.2343243,18.8793243 17.1182432,18.8793243 C17.1741892,18.8793243 17.2301351,18.8914865 17.3104054,18.9012162 C16.5932782,20.2655562 16.4090447,21.8477974 16.7935135,23.3404054 C17.1102695,24.6638613 17.8751529,25.8369691 18.9583784,26.6606757 C21.4248649,28.5737838 24.3352703,28.187027 26.1778378,26.9464865 C27.4840541,26.0659459 28.3487838,24.8472973 28.7355405,23.3245946 C29.1198649,21.8067568 28.9386486,20.3302703 28.2089189,18.9097297" id="Shape" fill="#333333" fill-rule="nonzero"></path>
            <g id="Group" transform="translate(11.304730, 10.502027)">
                <g id="Clipped">
                    <mask id="mask-2" fill="white">
                        <use xlink:href="#path-1"></use>
                    </mask>
                    <g id="a"></g>
                    <path d="M15.1313355,3.51574092 L15.1386045,3.51574092 C15.1386045,3.97546099 15.1446621,4.43518106 15.1361815,4.89490113 C15.1289125,5.31025143 15.3372919,5.57400504 15.7407242,5.61467732 C15.9418346,5.63439722 16.147791,5.62946725 16.3513244,5.62946725 C17.0636913,5.63069974 17.7760582,5.63686221 18.4884251,5.62823475 C18.9487983,5.62207228 19.267425,5.39652598 19.2613674,4.8431364 C19.2528869,3.91383632 19.269848,2.98207124 19.2565214,2.05277115 C19.2439036,1.8965987 19.1885008,1.74715283 19.0966023,1.62139843 C18.9584904,1.41433953 18.7246692,1.39215465 18.4969057,1.39215465 C17.6149276,1.38845717 16.7329495,1.39215465 15.8497599,1.38845717 C15.4342126,1.38845717 15.1167974,1.63495586 15.1289125,2.12179079 C15.1410275,2.58644083 15.1313355,3.05109088 15.1313355,3.51574092 L15.1313355,3.51574092 Z M11.4107933,0.00190199612 C13.9186156,0.00190199612 16.4240149,-0.0042604713 18.9330487,0.00559947657 C19.5945322,0.00806446354 20.1833253,0.261958121 20.7030624,0.681005906 C21.1428399,1.03596403 21.4517745,1.49445161 21.6698461,2.01209887 C21.8709564,2.50016629 21.9945303,3.01411607 21.9969533,3.54778575 C22.0030108,4.61142763 21.9981648,5.676302 21.9981648,6.73994387 C21.9981648,6.99876751 21.9981648,6.99383753 21.7425366,6.99383753 L16.6651051,6.99383753 L16.1647521,6.99630252 C15.8909512,6.99630252 15.7104365,6.95439774 15.5105376,6.74980382 C15.1060823,6.34603704 14.6380266,6.01401428 14.1257835,5.76750652 C13.7259858,5.56784257 13.3177075,5.38789852 12.8755069,5.31148393 C12.4393639,5.23753432 11.9983749,5.15618975 11.5585973,5.1266099 C11.2295928,5.11074879 10.8998611,5.13016483 10.5748526,5.1845371 C10.2295727,5.23753432 9.88550431,5.32380886 9.54628198,5.42240834 C9.11983104,5.54565769 8.71518725,5.7329967 8.33356212,5.96840295 C7.88288101,6.243249 7.46733364,6.55999983 7.09418907,6.93467785 C7.03845969,6.98890756 6.92094338,6.99137255 6.83371478,6.99137255 C5.33507895,6.99507003 3.83523161,6.99383753 2.33901879,6.99383753 C1.60605624,6.99383753 0.873093686,6.99383753 0.142554149,7 C0.0371529228,7 -0.000403836117,6.95932772 0.000807672235,6.86196073 L0.00323068894,6.49221268 C0.00323068894,5.52224031 -0.00403836117,4.55226794 0.00323068894,3.58229557 C0.00686521399,3.12627298 0.148611691,2.70106273 0.350933586,2.29680486 C0.736193242,1.53512389 1.32740932,0.976804342 2.04462226,0.557756558 C2.62840785,0.211969758 3.28835859,0.0212362143 3.96365149,0.0031344896 L11.4120048,0.0031344896 L11.4120048,0.00190199612 L11.4107933,0.00190199612 Z" id="Shape" fill="#333333" fill-rule="nonzero" mask="url(#mask-2)"></path>
                </g>
            </g>
            <path d="M22.7408108,16.8445946 C25.3958108,16.8421622 27.5327027,18.9304054 27.6762162,21.4382432 C27.8537838,24.5383784 25.5235135,26.6716216 22.9147297,26.7518919 C20.1332432,26.837027 18.0778378,24.6891892 17.8552703,22.302973 C17.7123815,20.9157838 18.1611091,19.5326551 19.0911566,18.4935581 C20.021204,17.454461 21.3463265,16.8557526 22.7408108,16.8445946" id="Shape" fill="#333333" fill-rule="nonzero"></path>
        </g>
    </g>
</svg>