<svg xmlns="http://www.w3.org/2000/svg" xmlns:xlink="http://www.w3.org/1999/xlink" width="47" height="47" viewBox="0 0 47 47">
    <defs>
        <path id="a" d="M22.089.08H.002v6.907H22.09z"/>
    </defs>
    <g fill="none" fill-rule="evenodd" transform="translate(1 1)">
        <ellipse cx="22.388" cy="22.483" stroke="#FFF" stroke-width="1" rx="21.786" ry="21.72"/>
        <path fill="#FFF" fill-rule="nonzero" d="M28.209 18.91c.074-.012.128-.03.182-.03 1.618 0 3.233 0 4.85-.002.113 0 .153.032.153.15-.003 3.394.003 6.787-.008 10.182a3.97 3.97 0 0 1-.276 1.38 3.337 3.337 0 0 1-1.046 1.48 2.87 2.87 0 0 1-.863.475 3.9 3.9 0 0 1-1.274.193c-4.789-.004-9.58-.005-14.37-.001a4.378 4.378 0 0 1-1.679-.316c-.899-.37-1.633-.953-2.133-1.8a3.061 3.061 0 0 1-.437-1.568c0-3.34 0-6.68-.003-10.022 0-.125.042-.153.163-.153 1.882.004 3.766.001 5.65.001.056 0 .112.012.192.022a6.211 6.211 0 0 0-.516 4.44 5.895 5.895 0 0 0 2.164 3.32c2.467 1.913 5.377 1.526 7.22.285 1.306-.88 2.17-2.099 2.558-3.621.384-1.518.203-2.995-.527-4.415"/>
        <g transform="translate(11.305 10.502)">
            <mask id="b" fill="#fff">
                <use xlink:href="#a"/>
            </mask>
            <path fill="#FFF" fill-rule="nonzero" d="M15.193 3.549h.007c0 .454.006.907-.002 1.36-.007.41.202.671.607.711.202.02.408.015.613.015.715 0 1.43.007 2.145-.001.462-.007.782-.23.776-.775-.008-.917.009-1.837-.005-2.754a.827.827 0 0 0-.16-.425c-.139-.205-.374-.227-.602-.227-.886-.003-1.771 0-2.658-.003-.417 0-.736.243-.723.723.012.459.002.917.002 1.376zM11.458.08c2.518 0 5.033-.006 7.551.004.665.003 1.256.253 1.777.667.442.35.752.802.97 1.313.203.482.327.989.33 1.516.005 1.05 0 2.1 0 3.15 0 .255 0 .25-.256.25h-5.097l-.503.003c-.274 0-.456-.042-.656-.244a5.096 5.096 0 0 0-1.39-.97c-.402-.196-.812-.374-1.256-.45-.437-.072-.88-.152-1.322-.181a4.712 4.712 0 0 0-.987.057 8.272 8.272 0 0 0-1.033.234 4.97 4.97 0 0 0-1.217.54c-.453.27-.87.583-1.244.953-.056.053-.174.056-.262.056-1.504.003-3.01.002-4.512.002-.736 0-1.472 0-2.205.006-.106 0-.144-.04-.142-.136l.002-.365c0-.957-.007-1.914 0-2.871.004-.45.146-.87.35-1.269.386-.752.98-1.302 1.7-1.716A4.04 4.04 0 0 1 3.981.083h7.477V.08h-.001z" mask="url(#b)"/>
        </g>
        <path fill="#FFF" fill-rule="nonzero" d="M22.74 16.845c2.656-.003 4.793 2.085 4.936 4.593.178 3.1-2.152 5.234-4.761 5.314-2.782.085-4.837-2.063-5.06-4.449a4.951 4.951 0 0 1 4.886-5.458"/>
    </g>
</svg>
