<?xml version="1.0" encoding="utf-8"?>
<!-- Generator: Adobe Illustrator 16.0.0, SVG Export Plug-In . SVG Version: 6.00 Build 0)  -->
<!DOCTYPE svg PUBLIC "-//W3C//DTD SVG 1.1//EN" "http://www.w3.org/Graphics/SVG/1.1/DTD/svg11.dtd">
<svg version="1.1" id="Layer_2" xmlns="http://www.w3.org/2000/svg" xmlns:xlink="http://www.w3.org/1999/xlink" x="0px" y="0px"
	 width="585px" height="585px" viewBox="6.64 128.445 585 585" enable-background="new 6.64 128.445 585 585" xml:space="preserve">
<g>
	<polygon fill="#FFFFFF" points="299.64,462.437 282.437,445.232 165.94,334.689 165.94,518.154 433.34,518.154 433.34,334.689 
		316.843,445.232 	"/>
	<polygon fill="#FFFFFF" points="409.231,323.736 190.049,323.736 299.64,428.089 	"/>
	<path fill="#FFFFFF" d="M299.471,129.444c-161.268,0-292,130.733-292,292c0,161.267,130.733,292,292,292
		c161.267,0,292-130.733,292-292C591.471,260.177,460.738,129.444,299.471,129.444z M457.627,522.619
		c0,10.953-9.048,19.882-20.239,19.882H161.892c-11.19,0-20.239-8.929-20.239-19.882V319.271c0-10.953,9.049-19.882,20.239-19.882
		h275.496c11.191,0,20.239,8.929,20.239,19.882V522.619z"/>
</g>
</svg>
