<?xml version="1.0" encoding="UTF-8"?>
<svg width="36px" height="37px" viewBox="0 0 36 37" version="1.1" xmlns="http://www.w3.org/2000/svg" xmlns:xlink="http://www.w3.org/1999/xlink">
    <!-- Generator: Sketch 47.1 (45422) - http://www.bohemiancoding.com/sketch -->
    <title>Youtube Hover</title>
    <desc>Created with Sketch.</desc>
    <defs></defs>
    <g id="All" stroke="none" stroke-width="1" fill="#fff" fill-rule="evenodd">
        <g id="Footer" transform="translate(-263.000000, -1631.000000)">
            <g id="Op-02" transform="translate(0.000000, 994.000000)">
                <g id="Follow" transform="translate(77.000000, 605.000000)">
                    <g id="youtube" transform="translate(187.000000, 33.000000)">
                        <path d="M16.9052836,0 C7.57126361,0 0,7.78082551 0,17.3807763 C0,26.9794566 7.57126361,34.7621877 16.9052836,34.7621877 C26.2442463,34.7621877 33.8130386,26.9794566 33.8130386,17.3807763 C33.8130386,7.78082551 26.2442463,0 16.9052836,0 Z" id="Shape-path" stroke="#FFFFFF"></path>
                        <g id="Group-6" transform="translate(8.206897, 10.500000)">
                            <path d="M17.5757398,8.11402069 C17.5478628,8.79720009 17.494554,9.47771718 17.4505375,10.1603642 C17.4153244,10.7024348 17.3052833,11.226401 17.1199252,11.7301327 C16.8064303,12.5831752 16.2107411,13.0544252 15.3979042,13.2013913 C15.0002891,13.2716794 14.5933815,13.2929789 14.1923428,13.3148108 C13.4836782,13.3552798 12.7764807,13.3819041 12.067816,13.4074634 C11.6878074,13.423438 11.3053534,13.4292953 10.9243667,13.4356851 C10.2778142,13.4479323 9.6337069,13.4639069 8.98911057,13.4612445 C8.11122718,13.458582 7.23432189,13.442075 6.35643845,13.4250354 C5.72406893,13.4111907 5.08876497,13.3941512 4.4563955,13.3696569 C3.92917634,13.34676 3.40097903,13.3238631 2.8757162,13.2738094 C2.54999457,13.2429252 2.21938218,13.1891441 1.90344197,13.0986216 C1.16200948,12.890952 0.669514416,12.380298 0.421066102,11.5884914 C0.266519467,11.1017993 0.166259811,10.6049899 0.133492001,10.0916734 C0.0884974839,9.40103919 0.0302979085,8.70933994 0.0131804419,8.01710823 C-0.0078496223,7.20719716 -2.45216556e-05,6.39888351 0.0112241195,5.59056981 C0.0200274285,4.68534375 0.0782269095,3.78650748 0.184355486,2.89086616 C0.243533128,2.39245932 0.370691721,1.90576716 0.589306709,1.45901147 C0.908181354,0.802988807 1.42512998,0.424391323 2.08244216,0.280087601 C2.39006816,0.212461925 2.70600842,0.188500032 3.02048141,0.16720056 C3.6220394,0.126731617 4.22310833,0.102237305 4.82466631,0.0740155179 C5.14060657,0.059105941 5.45997027,0.0527161528 5.77688864,0.0457937844 C6.52565722,0.0324816278 7.27442574,0.0202344716 8.02466149,0.009584789 C8.49661555,0.0031948941 8.96954773,0 9.44296901,0 C9.89780555,0.00266242064 10.3487295,0.009584789 10.803077,0.0191695246 C11.4784848,0.0367415222 12.1558489,0.0516511525 12.8317458,0.0772104653 C13.4152082,0.0990424106 14.002094,0.129926618 14.5855564,0.16720056 C14.9763245,0.191162453 15.3700271,0.207669504 15.7471013,0.342388489 C16.4738616,0.602241566 16.9487501,1.13472751 17.1893733,1.92546911 C17.3419636,2.42653842 17.4319528,2.93825736 17.4637425,3.46222357 C17.5048245,4.1075965 17.5527535,4.75137201 17.5781852,5.39674494 C17.5943246,5.84243568 17.5811196,6.29025637 17.5811196,6.73701205 L17.5781852,6.73701205 C17.5786743,7.19548243 17.5948136,7.6560828 17.5757398,8.11402069 Z" id="Shape-path" fill="#333"></path>
                            <path d="M6.76392573,9.42307692 C8.56819644,8.52919448 10.3585368,7.63904324 12.1750663,6.73929761 C10.3585368,5.83315563 8.56708204,4.93927324 6.76392573,4.03846154 L6.76392573,9.42307692 Z" id="Shape" fill="#fff" fill-rule="nonzero"></path>
                        </g>
                    </g>
                </g>
            </g>
        </g>
    </g>
</svg>