<svg width="100" height="50" viewBox="0 0 100 50" fill="none" xmlns="http://www.w3.org/2000/svg">
<g clip-path="url(#clip0_771_1647)">
<mask id="mask0_771_1647" style="mask-type:alpha" maskUnits="userSpaceOnUse" x="0" y="4" width="27" height="46">
<path d="M1.49389 16.6288C2.1895 9.28789 6.62683 4.36743 13.8466 4.36743C20.7993 4.36743 25.4509 9.06061 25.4509 16.4015C25.4509 19.6743 24.3268 23.3561 21.6004 25.2652C25.2894 26.9697 26.7861 31.7765 26.7861 35.6629C26.7861 44.0265 21.0663 49.2197 13.3653 49.2197C5.98728 49.2197 0.425768 43.4015 0.000488281 35.7765H7.91255C8.07408 39.1629 10.2136 41.9924 13.685 41.9924C17.2191 41.9924 19.085 38.4811 19.085 35.1515C19.085 31.7765 16.9455 28.0947 13.418 28.3788L11.9741 28.4924V22.5606H12.8279C16.1971 22.5606 17.9641 20.2424 17.9641 16.6856C17.9641 13.8674 16.3059 11.2652 13.3653 11.2652C10.5829 11.2652 9.08946 14.0379 8.98067 16.6288H1.49389Z" fill="white"/>
</mask>
<g mask="url(#mask0_771_1647)">
<path fill-rule="evenodd" clip-rule="evenodd" d="M-5.4541 54.9015H32.2406V-1.30981H-5.4541V54.9015Z" fill="white"/>
</g>
<mask id="mask1_771_1647" style="mask-type:alpha" maskUnits="userSpaceOnUse" x="29" y="4" width="28" height="44">
<path d="M56.6028 40.5505V47.7047H29.0317L39.4545 34.1511C42.3254 30.467 48.3515 23.1325 48.3515 18.3667C48.3515 15.336 46.4544 11.5392 43.0883 11.5392C39.5081 11.5392 37.8786 15.5726 38.0425 18.7611H29.5738C30.1158 10.6379 34.6229 4.37372 43.0347 4.37372C50.5231 4.37372 56.3284 10.2436 56.3284 17.9837C56.3284 24.1915 52.9657 28.8446 49.2181 33.3174L43.1954 40.5505H56.6028Z" fill="white"/>
</mask>
<g mask="url(#mask1_771_1647)">
<path fill-rule="evenodd" clip-rule="evenodd" d="M23.4956 53.338H62.1389V-1.26746H23.4956V53.338Z" fill="white"/>
</g>
<mask id="mask2_771_1647" style="mask-type:alpha" maskUnits="userSpaceOnUse" x="60" y="5" width="15" height="43">
<path d="M60.1548 12.9729V5.87244H74.208V47.705H65.8078V12.9729H60.1548Z" fill="white"/>
</mask>
<g mask="url(#mask2_771_1647)">
<path fill-rule="evenodd" clip-rule="evenodd" d="M54.3271 53.2871H80.0354V0.289062H54.3271V53.2871Z" fill="white"/>
</g>
<mask id="mask3_771_1647" style="mask-type:alpha" maskUnits="userSpaceOnUse" x="77" y="0" width="23" height="26">
<path d="M93.5577 0.869568H93.9406C94.9889 0.919386 96.0006 1.37684 96.7637 2.16865L99.1763 2.38134V2.38321L97.9771 4.57642C98.2714 6.30106 97.5781 8.08169 96.1423 9.08959C96.2698 9.44796 96.3713 9.82872 96.4235 10.2319C96.6689 12.1805 95.8545 14.0059 94.4612 15.1146L94.4678 15.137L94.2912 15.2378C94.0688 15.4058 93.8333 15.5514 93.5848 15.6746L77.3335 25.496L83.9039 13.9835L77.3335 5.99869H88.4598L89.9087 3.45652C90.0329 3.17655 90.1801 2.90778 90.3568 2.6614L90.4156 2.56061L90.4189 2.57181C90.7754 2.09025 91.2267 1.68709 91.7663 1.38472C92.34 1.06552 92.9507 0.898465 93.5578 0.869568H93.5577ZM94.0589 2.6502C93.6992 2.85178 93.5618 3.32214 93.7516 3.7029C93.9412 4.08367 94.3926 4.22925 94.7523 4.02767C95.1187 3.82609 95.256 3.35573 95.063 2.97497C94.8733 2.59421 94.422 2.44862 94.0589 2.6502Z" fill="white"/>
</mask>
<g mask="url(#mask3_771_1647)">
<path fill-rule="evenodd" clip-rule="evenodd" d="M71.9224 31.0955H104.589V-4.73621H71.9224V31.0955Z" fill="white"/>
</g>
</g>
<defs>
<clipPath id="clip0_771_1647">
<rect width="100" height="50" fill="white"/>
</clipPath>
</defs>
</svg>
