<svg width="150" height="23" viewBox="0 0 150 23" fill="none" xmlns="http://www.w3.org/2000/svg">
<g clip-path="url(#clip0_771_2929)">
<path d="M35.1047 16.5693C33.9072 16.5693 32.9025 16.1288 32.0907 15.2478C31.2789 14.3668 30.873 13.3003 30.873 12.0483C30.873 10.7964 31.2789 9.72986 32.0907 8.8489C32.9025 7.96786 33.9072 7.52734 35.1047 7.52734C35.738 7.52734 36.3281 7.6694 36.8751 7.95338C37.422 8.23737 37.8451 8.59968 38.1445 9.04013V7.70126H39.6299V16.3954H38.1445V15.0565C37.8451 15.497 37.422 15.8593 36.8751 16.1433C36.3281 16.4273 35.738 16.5693 35.1047 16.5693ZM35.3292 15.1956C36.1813 15.1956 36.8837 14.8942 37.4364 14.2914C37.9891 13.6886 38.2654 12.9409 38.2654 12.0483C38.2654 11.1557 37.9891 10.408 37.4364 9.80522C36.8837 9.20242 36.1813 8.90105 35.3292 8.90105C34.4771 8.90105 33.7574 9.20242 33.2047 9.80522C32.652 10.408 32.3757 11.1557 32.3757 12.0483C32.3757 12.9409 32.652 13.6886 33.2047 14.2914C33.7574 14.8942 34.4656 15.1956 35.3292 15.1956Z" fill="white"/>
<path d="M46.4177 16.5693C45.2202 16.5693 44.2155 16.1288 43.4037 15.2478C42.592 14.3668 42.186 13.3003 42.186 12.0483C42.186 10.7964 42.592 9.72986 43.4037 8.8489C44.2155 7.96786 45.2202 7.52734 46.4177 7.52734C47.051 7.52734 47.6411 7.6694 48.1881 7.95338C48.735 8.23737 49.1582 8.59968 49.4576 9.04013V7.70126H50.9429V16.3954H49.4576V15.0565C49.1582 15.497 48.735 15.8593 48.1881 16.1433C47.6411 16.4273 47.051 16.5693 46.4177 16.5693ZM46.6423 15.1956C47.4943 15.1956 48.1967 14.8942 48.7494 14.2914C49.3021 13.6886 49.5785 12.9409 49.5785 12.0483C49.5785 11.1557 49.3021 10.408 48.7494 9.80522C48.1967 9.20242 47.4943 8.90105 46.6423 8.90105C45.7902 8.90105 45.0705 9.20242 44.5178 9.80522C43.9651 10.408 43.6887 11.1557 43.6887 12.0483C43.6887 12.9409 43.9651 13.6886 44.5178 14.2914C45.0705 14.8942 45.7786 15.1956 46.6423 15.1956Z" fill="white"/>
<path d="M55.6587 20.0296H54.1733V7.70126H55.6587V9.04013C55.9581 8.59968 56.3812 8.23737 56.9282 7.95338C57.4752 7.6694 58.0652 7.52734 58.6985 7.52734C59.8961 7.52734 60.9008 7.96786 61.7125 8.8489C62.5243 9.72986 62.9302 10.7964 62.9302 12.0483C62.9302 13.3003 62.5243 14.3668 61.7125 15.2478C60.9008 16.1288 59.8961 16.5693 58.6985 16.5693C58.0652 16.5693 57.4752 16.4273 56.9282 16.1433C56.3812 15.8593 55.9581 15.497 55.6587 15.0565V20.0296ZM56.3669 14.2914C56.9196 14.8942 57.6219 15.1956 58.474 15.1956C59.3261 15.1956 60.0285 14.8942 60.5812 14.2914C61.1339 13.6886 61.4102 12.9409 61.4102 12.0483C61.4102 11.1557 61.1339 10.408 60.5812 9.80522C60.0285 9.20242 59.3261 8.90105 58.474 8.90105C57.6219 8.90105 56.9196 9.20242 56.3669 9.80522C55.8141 10.408 55.5378 11.1557 55.5378 12.0483C55.5378 12.9409 55.8141 13.6886 56.3669 14.2914Z" fill="white"/>
<path d="M68.6988 16.4822C67.9048 16.4822 67.2654 16.2561 66.7819 15.8041C66.2982 15.352 66.0564 14.6912 66.0564 13.8218V9.0748H64.2256V7.70109H66.0564V5.28412H67.5418V7.70109H70.0292V9.0748H67.5418V13.6305C67.5418 14.1753 67.6569 14.5579 67.8873 14.7781C68.1177 14.9984 68.4805 15.1085 68.9751 15.1085C69.4129 15.1085 69.7643 15.0505 70.0292 14.9347V16.2735C69.6143 16.4126 69.1711 16.4822 68.6988 16.4822Z" fill="white"/>
<path d="M73.8633 5.06683C73.6674 5.2697 73.4201 5.37113 73.1207 5.37113C72.8214 5.37113 72.568 5.2697 72.3606 5.06683C72.1532 4.86397 72.0498 4.61184 72.0498 4.31044C72.0498 4.00904 72.1532 3.7714 72.3606 3.56275C72.568 3.35408 72.8214 3.24976 73.1207 3.24976C73.4201 3.24976 73.6674 3.35408 73.8633 3.56275C74.0593 3.7714 74.1566 4.02063 74.1566 4.31044C74.1566 4.60025 74.0593 4.86397 73.8633 5.06683ZM72.3606 16.3953V7.70116H73.8457V16.3953H72.3606Z" fill="white"/>
<path d="M83.1905 5.06683C82.9945 5.2697 82.7465 5.37113 82.4472 5.37113C82.1479 5.37113 81.8945 5.2697 81.6878 5.06683C81.4803 4.86397 81.377 4.61184 81.377 4.31044C81.377 4.00904 81.4803 3.7714 81.6878 3.56275C81.8945 3.35408 82.1479 3.24976 82.4472 3.24976C82.7465 3.24976 82.9945 3.35408 83.1905 3.56275C83.3857 3.7714 83.4837 4.02063 83.4837 4.31044C83.4837 4.60025 83.3857 4.86397 83.1905 5.06683ZM81.6878 16.3953V7.70116H83.1729V16.3953H81.6878Z" fill="white"/>
<path d="M86.417 16.3954V7.70126H87.9028V9.04013C88.49 8.03165 89.4055 7.52734 90.6487 7.52734C91.6278 7.52734 92.4163 7.84616 93.015 8.48374C93.6136 9.12131 93.9136 9.97333 93.9136 11.0398V16.3954H92.4454V11.2659C92.4454 10.5355 92.2609 9.95885 91.8927 9.53572C91.5238 9.11258 91.0292 8.90105 90.4069 8.90105C89.6933 8.90105 89.0974 9.18503 88.6197 9.75307C88.1413 10.3211 87.9028 11.0978 87.9028 12.0831V16.3954H86.417Z" fill="white"/>
<path d="M99.8025 16.5693C98.8349 16.5693 98.0261 16.3317 97.3754 15.8564C96.7248 15.3811 96.3653 14.7203 96.2964 13.8741H97.816C97.9079 14.361 98.141 14.7203 98.5153 14.9522C98.8896 15.184 99.3248 15.2999 99.8194 15.2999C100.315 15.2999 100.715 15.2014 101.02 15.0044C101.325 14.8073 101.477 14.5233 101.477 14.1523C101.477 13.8046 101.365 13.5205 101.141 13.3003C100.917 13.08 100.55 12.9003 100.044 12.7613L98.8004 12.4309C97.3153 12.0368 96.5727 11.1847 96.5727 9.87476C96.5727 9.16765 96.8518 8.59968 97.4099 8.17073C97.9687 7.74185 98.6856 7.52734 99.5606 7.52734C100.436 7.52734 101.175 7.76215 101.746 8.23162C102.315 8.70109 102.635 9.29516 102.704 10.0139H101.219C101.103 9.63137 100.899 9.32993 100.605 9.10968C100.312 8.88948 99.9633 8.77936 99.5606 8.77936C99.1342 8.77936 98.7802 8.87785 98.4984 9.07491C98.216 9.27203 98.0754 9.53281 98.0754 9.85738C98.0754 10.182 98.1788 10.4254 98.3863 10.6225C98.593 10.8196 98.9275 10.9819 99.3876 11.1094L100.769 11.4746C102.244 11.8455 102.98 12.7033 102.98 14.048C102.98 14.8826 102.687 15.5115 102.1 15.9346C101.512 16.3577 100.746 16.5693 99.8025 16.5693Z" fill="white"/>
<path d="M108.732 16.4822C107.938 16.4822 107.299 16.2561 106.815 15.8041C106.331 15.352 106.089 14.6912 106.089 13.8218V9.0748H104.259V7.70109H106.089V5.28412H107.575V7.70109H110.062V9.0748H107.575V13.6305C107.575 14.1753 107.69 14.5579 107.92 14.7781C108.151 14.9984 108.514 15.1085 109.008 15.1085C109.446 15.1085 109.797 15.0505 110.062 14.9347V16.2735C109.647 16.4126 109.204 16.4822 108.732 16.4822Z" fill="white"/>
<path d="M113.897 5.06683C113.701 5.2697 113.453 5.37113 113.154 5.37113C112.855 5.37113 112.601 5.2697 112.394 5.06683C112.186 4.86397 112.083 4.61184 112.083 4.31044C112.083 4.00904 112.186 3.7714 112.394 3.56275C112.601 3.35408 112.855 3.24976 113.154 3.24976C113.453 3.24976 113.701 3.35408 113.897 3.56275C114.092 3.7714 114.19 4.02063 114.19 4.31044C114.19 4.60025 114.092 4.86397 113.897 5.06683ZM112.394 16.3953V7.70116H113.879V16.3953H112.394Z" fill="white"/>
<path d="M120.477 16.4822C119.682 16.4822 119.044 16.2561 118.56 15.8041C118.076 15.352 117.834 14.6912 117.834 13.8218V9.0748H116.004V7.70109H117.834V5.28412H119.32V7.70109H121.807V9.0748H119.32V13.6305C119.32 14.1753 119.435 14.5579 119.665 14.7781C119.896 14.9984 120.258 15.1085 120.753 15.1085C121.191 15.1085 121.542 15.0505 121.807 14.9347V16.2735C121.392 16.4126 120.949 16.4822 120.477 16.4822Z" fill="white"/>
<path d="M127.196 16.5692C126.252 16.5692 125.486 16.2475 124.899 15.6042C124.311 14.9608 124.018 14.1059 124.018 13.0393V7.70117H125.503V12.8133C125.503 13.5436 125.679 14.1232 126.03 14.5521C126.382 14.9811 126.857 15.1955 127.455 15.1955C128.146 15.1955 128.719 14.9086 129.173 14.3348C129.628 13.761 129.856 12.9872 129.856 12.0135V7.70117H131.341V16.3953H129.856V15.0564C129.292 16.0649 128.405 16.5692 127.196 16.5692Z" fill="white"/>
<path d="M137.922 16.4822C137.128 16.4822 136.489 16.2561 136.005 15.8041C135.521 15.352 135.28 14.6912 135.28 13.8218V9.0748H133.449V7.70109H135.28V5.28412H136.765V7.70109H139.252V9.0748H136.765V13.6305C136.765 14.1753 136.88 14.5579 137.11 14.7781C137.341 14.9984 137.703 15.1085 138.199 15.1085C138.636 15.1085 138.987 15.0505 139.252 14.9347V16.2735C138.837 16.4126 138.394 16.4822 137.922 16.4822Z" fill="white"/>
<path d="M145.142 16.5693C143.886 16.5693 142.847 16.1404 142.024 15.2825C141.201 14.4247 140.789 13.3467 140.789 12.0483C140.789 10.75 141.189 9.65741 141.99 8.8054C142.79 7.95338 143.852 7.52734 145.176 7.52734C146.501 7.52734 147.56 8.00263 148.319 8.95321C149.08 9.90378 149.413 11.0688 149.321 12.4483H142.292C142.315 13.2366 142.603 13.8944 143.155 14.4219C143.708 14.9493 144.376 15.213 145.159 15.213C146.334 15.213 147.168 14.7261 147.663 13.7524H149.184C148.965 14.5639 148.499 15.2362 147.784 15.7695C147.07 16.3027 146.19 16.5693 145.142 16.5693ZM146.834 9.46618C146.362 9.05468 145.792 8.8489 145.124 8.8489C144.457 8.8489 143.861 9.05177 143.337 9.45745C142.813 9.8632 142.488 10.466 142.361 11.2659H147.75C147.611 10.4776 147.307 9.87767 146.834 9.46618Z" fill="white"/>
<path d="M17.6553 2.131C16.3916 1.11958 14.8947 0.380573 13.2452 0.0241126C12.6695 -0.100504 12.1053 0.270447 11.9815 0.847158C11.8577 1.42677 12.2261 1.99479 12.799 2.1194C13.9936 2.37733 15.0905 2.88449 16.0375 3.57712C16.4319 2.95405 16.9932 2.45268 17.6582 2.1281L17.6553 2.131Z" fill="white"/>
<path d="M19.5724 9.71817C19.6041 10.0196 19.6272 10.321 19.6272 10.6311C19.6272 11.5411 19.4861 12.4395 19.2097 13.3031C19.0284 13.8653 19.3364 14.471 19.8977 14.6507C20.0071 14.6855 20.1165 14.7029 20.223 14.7029C20.6721 14.7029 21.0895 14.4131 21.2363 13.9609C21.5818 12.8857 21.7545 11.7642 21.7545 10.634C21.7545 10.0891 21.7113 9.55305 21.6307 9.02844C21.0405 9.4371 20.3324 9.68631 19.5696 9.72399L19.5724 9.71817Z" fill="white"/>
<path d="M2.33138 10.6311C2.33138 10.3239 2.35441 10.0196 2.38608 9.71825C1.62323 9.68057 0.915083 9.43129 0.324954 9.02271C0.244352 9.55015 0.201172 10.0863 0.201172 10.6311C0.201172 11.7642 0.37677 12.8829 0.719333 13.9581C0.863265 14.4131 1.28355 14.7 1.73262 14.7C1.84201 14.7 1.9514 14.6826 2.05791 14.6478C2.61637 14.4652 2.92439 13.8624 2.74591 13.3002C2.46956 12.4366 2.3285 11.5382 2.3285 10.6282L2.33138 10.6311Z" fill="white"/>
<path d="M9.97754 0.847286C9.85375 0.267679 9.28956 -0.100374 8.71382 0.0242423C7.06436 0.380703 5.56744 1.11681 4.30371 2.13113C4.96868 2.45571 5.52714 2.95707 5.9244 3.57726C6.87145 2.88462 7.96537 2.37746 9.16004 2.11953C9.73571 1.99492 10.1013 1.4269 9.97754 0.847286Z" fill="white"/>
<path d="M7.00646 20.4062C7.00646 19.7454 7.16768 19.1224 7.44977 18.5717C6.37029 18.0849 5.38866 17.3806 4.57976 16.4822C4.18538 16.0446 3.51177 16.0127 3.0771 16.4098C2.64242 16.8068 2.61075 17.485 3.00513 17.9225C4.12493 19.16 5.50381 20.1048 7.02376 20.7104C7.01511 20.609 7.00937 20.5076 7.00937 20.4033L7.00646 20.4062Z" fill="white"/>
<path d="M18.8834 16.4129C18.4487 16.0158 17.7751 16.0477 17.3807 16.4853C16.5718 17.3837 15.5902 18.0909 14.5107 18.5748C14.7928 19.1254 14.9541 19.7456 14.9541 20.4093C14.9541 20.5136 14.9454 20.615 14.9397 20.7165C16.4567 20.1137 17.8384 19.1689 18.9582 17.9286C19.3526 17.491 19.3209 16.8128 18.8863 16.4158L18.8834 16.4129Z" fill="white"/>
<path d="M2.5764 8.32432C3.99931 8.32432 5.1528 7.16302 5.1528 5.73054C5.1528 4.29805 3.99931 3.13678 2.5764 3.13678C1.15349 3.13678 0 4.29805 0 5.73054C0 7.16302 1.15349 8.32432 2.5764 8.32432Z" fill="white"/>
<path d="M19.382 8.32432C20.8049 8.32432 21.9584 7.16302 21.9584 5.73054C21.9584 4.29805 20.8049 3.13678 19.382 3.13678C17.9591 3.13678 16.8057 4.29805 16.8057 5.73054C16.8057 7.16302 17.9591 8.32432 19.382 8.32432Z" fill="white"/>
<path d="M10.9802 22.9999C12.4031 22.9999 13.5566 21.8386 13.5566 20.4061C13.5566 18.9737 12.4031 17.8124 10.9802 17.8124C9.55732 17.8124 8.40381 18.9737 8.40381 20.4061C8.40381 21.8386 9.55732 22.9999 10.9802 22.9999Z" fill="white"/>
</g>
<defs>
<clipPath id="clip0_771_2929">
<rect width="150" height="23" fill="white"/>
</clipPath>
</defs>
</svg>
