<svg width="89" height="50" viewBox="0 0 89 50" fill="none" xmlns="http://www.w3.org/2000/svg">
<path fill-rule="evenodd" clip-rule="evenodd" d="M37.5955 39.7847C37.6228 39.7003 37.6234 39.6157 37.5961 39.531C37.5611 39.5031 37.534 39.4691 37.5182 39.4264C37.475 39.2756 37.3712 39.1694 37.2416 39.1007C36.9672 38.9554 36.8297 38.7294 36.8053 38.4248L36.7576 38.3607C36.6909 38.3101 36.6039 38.2868 36.5589 38.2083C36.5488 38.1792 36.5461 38.1497 36.5507 38.119C36.5278 37.8921 36.404 37.7618 36.2309 37.6035C35.9559 37.3523 35.7876 36.9868 35.8144 36.5822C35.8272 36.3857 35.7846 36.3167 35.5683 36.3044C35.0851 36.2762 34.8791 35.8603 34.7915 35.496C34.675 35.0114 34.4337 34.7225 34.0072 34.5232C33.8225 34.437 33.6634 34.2882 33.5639 34.0527C33.3436 34.7483 33.5453 35.403 33.5557 36.0569L33.5526 36.0529C33.6983 36.2253 33.7087 36.4528 33.7193 36.6491C33.7586 37.3732 33.8419 38.0982 33.7568 38.825C33.7394 38.9732 33.7735 39.1087 33.8544 39.2455C34.0911 39.6467 34.2019 40.0745 34.0799 40.5462C34.0117 40.8105 33.9859 41.0847 33.9621 41.3573C33.9092 41.9768 33.2989 42.2777 32.7905 41.9186C32.642 41.8137 32.527 41.7579 32.342 41.8119C32.1153 41.8781 31.9285 41.7996 31.8488 41.549C31.8236 41.4684 31.7801 41.3954 31.7478 41.3175C31.3885 40.36 31.1859 39.3768 31.2796 38.3466C31.2823 38.3153 31.2717 38.2794 31.2829 38.2521C31.481 37.7762 31.2832 37.3257 31.1959 36.8687C31.1837 36.835 31.1749 36.8003 31.1691 36.7653C31.0599 35.6101 31.1907 34.4526 31.1411 33.2976C31.118 32.7527 31.0745 32.2135 31.1424 31.6661C31.1913 31.2662 31.2619 30.8742 31.3873 30.4955C31.5659 29.9535 32.1811 29.5763 32.7448 29.6275C32.9435 29.6456 33.0667 29.7536 33.1641 29.9177C33.2907 30.1302 33.3311 30.3703 33.4011 30.6016C33.433 30.7077 33.461 30.8644 33.6174 30.8098C34.0528 30.6574 34.2715 30.9386 34.497 31.2238C34.7322 31.5207 35.0054 31.7133 35.3897 31.84C35.9394 32.0203 36.3684 32.4263 36.5771 33.0094L36.5768 33.0091C36.7843 33.14 36.913 33.3403 36.9651 33.5669C37.0408 33.8978 37.3131 34.0254 37.5383 34.2027C37.6557 34.2953 37.7086 34.191 37.7333 34.0935C37.775 33.9267 37.7625 33.7571 37.7235 33.5911C37.6533 33.293 37.6484 32.9762 37.5535 32.691C37.36 32.108 37.5136 31.5627 37.6572 31.0134C37.7038 30.8362 37.7083 30.7144 37.5754 30.5611C37.3009 30.2446 37.2681 29.8566 37.3508 29.4546C37.5863 29.0255 37.7841 28.9225 38.2453 29.0169C38.4918 29.0672 38.7391 29.0985 38.9886 29.1289C39.5563 29.1979 39.9786 29.699 39.7717 30.3716C39.6832 30.6586 39.6376 30.9043 39.7866 31.168L39.7863 31.1677C39.8603 31.5955 39.8396 32.0298 39.811 32.4561C39.766 33.1259 39.9166 33.7644 40.023 34.4124L40.0203 34.4088C40.1031 34.7636 40.2016 35.116 40.2169 35.4834C40.2333 35.5634 40.2406 35.6447 40.2424 35.726C40.2445 35.7557 40.2436 35.7864 40.2427 35.8161C40.2433 35.8447 40.2415 35.8735 40.24 35.9017C40.2345 35.9833 40.2357 36.0643 40.2634 36.1428L40.2871 36.2222C40.303 36.3498 40.3608 36.4629 40.4094 36.5801C40.4195 36.6092 40.4271 36.639 40.4329 36.6693C40.5135 36.9684 40.4959 37.2775 40.5296 37.5811L40.5254 37.5753C40.6297 37.8222 40.5546 38.0804 40.5713 38.3331C40.5801 38.4687 40.571 38.6036 40.6644 38.7165C40.6848 38.7447 40.704 38.7732 40.7237 38.8017C40.7441 38.8309 40.7602 38.8618 40.7742 38.8944C40.7852 38.929 40.7913 38.9637 40.7931 38.9995C40.8555 39.5031 40.8975 40.0294 40.7456 40.4998C40.5777 41.0209 40.7447 41.5386 40.6215 42.0437C40.6166 42.0787 40.6075 42.1124 40.5963 42.1455C40.358 42.7773 39.9001 43.0239 39.0942 42.9555C39.061 42.9493 39.0297 42.9389 38.999 42.9254C38.392 42.6258 38.1328 42.1348 38.1276 41.4546C38.1233 40.8752 37.8659 40.3618 37.5699 39.8736C37.5602 39.8386 37.569 39.8089 37.5955 39.7847Z" fill="white"/>
<path fill-rule="evenodd" clip-rule="evenodd" d="M65.5731 41.4128L65.5859 41.3908L65.5719 41.3696C65.3796 40.2655 65.2214 39.1587 65.2503 38.0322C65.2582 37.7292 65.2558 37.4265 65.131 37.1349C65.0641 36.9785 65.1088 36.804 65.1396 36.6359C65.2074 36.2673 65.1472 36.2035 64.7748 36.2406C64.6613 36.2522 64.5323 36.2403 64.4383 36.305C64.1571 36.4982 63.8489 36.4819 63.5343 36.4583C63.4209 36.4501 63.3065 36.4531 63.1918 36.4823C62.6618 36.6163 62.5827 36.9168 62.7457 37.3256C62.9109 37.7403 62.9298 38.1623 62.9529 38.5892C62.9712 38.936 62.9547 39.2854 62.9569 39.6331C62.959 40.0147 62.8501 40.3581 62.6116 40.6541C62.4071 40.9068 62.1826 41.0405 61.8138 41.0424C61.3717 41.0439 61.059 40.866 60.7468 40.6161C60.707 40.5839 60.6793 40.525 60.6239 40.5247C60.1398 40.5207 60.1161 40.1128 60.0397 39.7997C59.8818 39.1498 59.88 38.4818 59.8657 37.813C59.8545 37.3005 59.7823 36.7899 59.8481 36.2765C59.8532 36.2351 59.8733 36.1881 59.8371 36.1569C59.4933 35.8594 59.664 35.4478 59.6022 35.0884L59.6028 35.0908C59.5003 34.932 59.4964 34.7495 59.504 34.5734C59.524 34.1027 59.4419 33.6292 59.5828 33.1596C59.6387 32.9744 59.4988 32.7717 59.5024 32.5708C59.5119 32.0019 59.4623 31.4314 59.5432 30.865C59.5599 30.7451 59.5806 30.6218 59.49 30.5356C59.1964 30.2565 59.3242 29.9023 59.3235 29.5794C59.3232 29.3862 59.4884 29.2739 59.671 29.2178L59.6555 29.204L59.6707 29.2184C59.8599 29.0344 60.0598 28.9221 60.3428 29.0169C60.4642 29.0577 60.6142 29.0209 60.7176 28.9105C60.7958 28.8265 60.8956 28.8062 61.0033 28.8059C61.2038 28.8246 61.3693 28.8945 61.428 29.112C61.4484 29.1877 61.5062 29.2313 61.5543 29.2865C61.7311 29.4889 61.8257 29.7152 61.826 29.9986C61.8272 30.5749 61.9565 31.1444 61.9252 31.7253C61.9142 31.9252 62.1092 32.0598 62.1467 32.2666C62.2005 32.5631 62.0986 32.8517 62.157 33.1415L62.1549 33.1378C62.2507 33.2464 62.196 33.3771 62.1993 33.4964C62.209 33.8625 62.2611 33.8993 62.568 33.7212C62.6703 33.662 62.7786 33.6031 62.8924 33.6227C63.3487 33.7009 63.7969 33.5368 64.2508 33.5841C64.3728 33.597 64.4364 33.5289 64.5067 33.4418C64.7069 33.1946 64.8113 32.9247 64.7939 32.599C64.7778 32.2932 64.8125 31.9893 64.953 31.7081C65.0422 31.5299 64.9981 31.3569 64.9175 31.1935C64.5238 30.3958 64.9975 29.2736 65.8521 29.1089C66.4487 28.9939 66.8853 29.1558 67.1814 29.7223L67.1838 29.7247C67.468 29.8269 67.5747 30.0581 67.5988 30.3341C67.6295 30.6859 67.5921 31.0159 67.3746 31.3253C67.2112 31.5578 67.0426 31.8304 67.2812 32.1313C67.314 32.1724 67.3025 32.2331 67.2964 32.2856C67.2428 32.7404 67.3916 33.2041 67.2395 33.6555C67.2179 33.7205 67.2735 33.7715 67.2945 33.8294C67.454 34.2668 67.489 34.7056 67.3021 35.1482C67.1829 35.4309 67.3736 35.6576 67.5328 35.81C67.8361 36.101 68.0071 36.4083 67.9581 36.8337C67.9426 36.969 67.9614 37.1079 67.9545 37.2444C67.9186 37.951 67.973 38.6484 68.1403 39.3366C68.1759 39.4807 68.179 39.6285 68.1753 39.7764C68.2216 40.287 68.2849 40.7955 68.1966 41.3104C68.172 41.453 68.1181 41.5413 68.0031 41.6073C67.9733 41.7453 67.8884 41.8284 67.754 41.8609L67.7652 41.8759L67.753 41.8615C67.6313 42.0032 67.4643 41.9627 67.3134 41.9621C66.9045 41.96 66.5074 41.9682 66.1554 42.2372C66.0085 42.3498 65.8481 42.2985 65.724 42.132C65.5591 41.9109 65.5917 41.6591 65.5731 41.4128Z" fill="white"/>
<path fill-rule="evenodd" clip-rule="evenodd" d="M46.6557 30.2215C46.7868 30.2188 46.9201 30.1792 47.0202 30.3237C47.1166 30.4626 47.2684 30.4046 47.3932 30.3752C47.4729 30.3565 47.5474 30.3231 47.6329 30.32C47.9913 30.3059 47.9913 30.3037 48.1255 30.6392C48.1879 30.7947 48.256 30.9447 48.3488 31.0873C48.5198 31.3508 48.4675 31.6547 48.4571 31.9466C48.4547 32.0138 48.3996 32.0549 48.3306 32.0663C48.228 32.0831 48.1258 32.1015 48.0227 32.115C47.7178 32.1546 47.5048 32.3432 47.3506 32.5855C47.1446 32.9106 46.9359 33.231 46.6724 33.5129C46.4385 33.7631 46.4737 34.0649 46.7692 34.2453C46.9271 34.3412 47.0649 34.4382 47.0792 34.6418C47.0856 34.7335 47.158 34.7369 47.2164 34.7252C47.4778 34.6749 47.5818 34.8494 47.6953 35.0359C47.9153 35.3969 48.1483 35.7514 48.5067 35.9931C48.6707 36.1035 48.7526 36.2467 48.7361 36.4439C48.7246 36.5847 48.7684 36.6813 48.9044 36.7463C49.4557 37.01 49.7447 37.4786 49.8515 38.0626C49.8789 38.2132 49.9163 38.272 50.059 38.25C50.2005 38.2282 50.2954 38.2999 50.3849 38.3962C50.4481 38.4643 50.5011 38.5456 50.5899 38.5864C50.7974 38.8118 50.8144 39.0961 50.676 39.4218C50.5683 39.6745 50.3934 39.8824 50.2635 40.1201C50.0867 40.4421 49.7721 40.5924 49.4009 40.5986L49.3988 40.5998C49.337 40.8234 49.1663 40.8298 48.9774 40.8329C48.7763 40.8359 48.7057 40.7074 48.6476 40.5544C48.5186 40.2158 48.3123 39.9432 48.0053 39.7451C47.8921 39.6724 47.7863 39.5592 47.7589 39.4279C47.6883 39.0848 47.4738 38.8689 47.2076 38.6723C47.0862 38.5827 46.9618 38.4735 46.9015 38.3196L46.9006 38.3193C46.7734 38.261 46.705 38.176 46.733 38.0215C46.7664 37.8344 46.705 37.7188 46.4883 37.7145C46.3502 37.7117 46.2173 37.6795 46.2191 37.4823C46.22 37.3495 46.1187 37.3158 46.0006 37.3115C45.8993 37.3075 45.791 37.3167 45.7086 37.2342L45.7113 37.237C45.6243 37.2137 45.5604 37.1566 45.5266 37.0775C45.3669 36.703 45.0054 36.5886 44.6708 36.3681C44.787 37.0925 44.8758 37.774 44.9394 38.4588L44.9385 38.4564C45.028 38.5806 44.9577 38.7287 44.9978 38.8603C44.979 39.274 44.9698 39.6874 45.0027 40.1008C44.9811 40.3348 45.0493 40.5869 44.8646 40.7878L44.8704 40.7817C44.574 41.0442 44.2202 41.226 43.9135 41.4741C43.845 41.5297 43.762 41.5367 43.6783 41.5404L43.6744 41.5428C43.6521 41.6033 43.5937 41.5898 43.549 41.6051L43.5447 41.6072C43.3509 41.9047 43.0056 41.832 42.7333 41.9342C42.6381 41.9701 42.5015 41.8652 42.5143 41.7584C42.5468 41.4843 42.4029 41.1914 42.5946 40.935C42.6716 40.8319 42.6828 40.709 42.6238 40.6075C42.4288 40.2695 42.3941 39.8987 42.374 39.5221L42.3761 39.5255C42.3497 39.5 42.3305 39.4693 42.3189 39.4341C42.3028 39.401 42.2909 39.366 42.2839 39.3295C42.1845 38.353 41.8547 37.4152 41.8766 36.4114C41.8893 35.837 41.7193 35.2546 41.5495 34.6939C41.4619 34.4053 41.4637 34.11 41.4676 33.8196C41.4756 33.2507 41.3326 32.6901 41.3916 32.1199C41.3998 32.0451 41.3575 31.9776 41.3396 31.9068C41.1713 31.0002 41.1631 30.0952 41.3691 29.1929C41.398 29.1021 41.4564 29.0344 41.5328 28.981C41.8589 28.7586 42.1951 28.5771 42.6092 28.7099L42.6068 28.7077C43.0114 28.8028 43.2283 29.0491 43.2636 29.4766C43.2788 29.6609 43.3157 29.8495 43.368 30.0308L43.3671 30.0289C43.4818 30.0716 43.5323 30.1709 43.5231 30.2767C43.5 30.5512 43.6111 30.8122 43.5907 31.0833C43.5642 31.4271 43.8323 31.678 43.8648 32.0018L43.8612 31.9966C43.995 32.3423 43.9065 32.7216 44.0194 33.0716C44.0507 33.1676 44.0163 33.2841 44.1116 33.3678C44.2184 33.2859 44.1937 33.159 44.2211 33.0541C44.2588 32.9118 44.2822 32.7667 44.3318 32.626C44.4471 32.2984 44.7925 32.1497 44.9251 31.8332C44.9528 31.7663 45.0721 31.7672 45.1579 31.7682C45.2942 31.7697 45.4305 31.7694 45.5665 31.7685C46.0527 31.7651 45.9949 31.8096 45.9778 31.3449C45.9623 30.9272 46.2373 30.6481 46.4001 30.3151C46.4488 30.2151 46.5757 30.2697 46.6557 30.2215Z" fill="white"/>
<path fill-rule="evenodd" clip-rule="evenodd" d="M50.9247 40.2309C50.9679 40.1469 51.0108 40.0628 51.0537 39.9788C51.2065 39.681 51.455 39.5544 51.7791 39.6117C51.8186 39.6188 51.8679 39.6283 51.8919 39.6556C52.0212 39.8025 52.2105 39.8488 52.3611 39.9518C52.5375 40.0726 52.7174 40.1668 52.9151 40.2367C53.1004 40.3027 53.2175 40.4201 53.1911 40.637C53.1871 40.6679 53.1908 40.7001 53.1929 40.7317C53.1962 40.7796 53.2224 40.8121 53.2693 40.8124C53.3173 40.8124 53.3471 40.7768 53.3484 40.732C53.3523 40.5949 53.3484 40.4575 53.3514 40.3205C53.3566 40.0834 53.3849 40.0408 53.6268 40.0447C54.0548 40.0521 54.3986 39.8758 54.6819 39.5746C54.8526 39.3933 55.068 39.3305 55.2919 39.2839C55.4185 39.2572 55.4921 39.2056 55.538 39.079C55.5782 38.9686 55.6068 38.8303 55.7738 38.8198C55.8426 38.8155 55.8249 38.7386 55.8255 38.691C55.828 38.4055 55.8255 38.1206 55.8271 37.8357C55.8283 37.6621 55.7416 37.5339 55.6184 37.4287C55.4705 37.303 55.3597 37.1505 55.2968 36.9693C55.2314 36.781 55.0731 36.6675 54.9661 36.5142C54.9247 36.4547 54.8656 36.4458 54.8005 36.4464C54.6956 36.4473 54.59 36.4378 54.4862 36.4485C54.3271 36.4651 54.2042 36.42 54.1011 36.2915C53.9791 36.1397 53.816 36.0572 53.6243 36.0094C53.2869 35.9244 53.0085 35.7058 52.6979 35.5607C52.4031 35.4233 52.1633 35.2362 51.9799 34.97C51.9561 34.9357 51.9123 34.8998 51.9132 34.8657C51.9239 34.5833 51.7048 34.5597 51.5177 34.4953C51.3987 34.4545 51.2816 34.4069 51.1833 34.3247C51.0105 34.1809 51.013 34.1499 51.0966 33.9276C51.1891 33.6807 51.1578 33.4357 51.0486 33.1955C50.9046 32.8793 50.8487 32.561 51.0896 32.2604C51.1608 32.1718 51.1584 32.0617 51.1712 31.9614C51.1958 31.7694 51.253 31.5913 51.3522 31.429C51.4839 31.2137 51.6172 31.0006 51.6969 30.7583C51.7337 30.647 51.8186 30.5884 51.9275 30.5685C52.1779 30.5234 52.3288 30.3504 52.4429 30.1455C52.5165 30.0134 52.6188 29.9118 52.7149 29.8011C52.833 29.6656 52.969 29.5892 53.1549 29.6082C53.2327 29.6165 53.3262 29.6352 53.3782 29.5395C53.6471 29.2068 54.0582 29.2767 54.4074 29.1721C54.5666 29.124 54.74 29.1264 54.8958 29.0712C55.3546 28.9093 55.6774 29.0985 55.9457 29.4527L55.9488 29.4558C56.0693 29.5098 56.1094 29.6334 56.1837 29.7278L56.1958 29.7122L56.1818 29.726C56.281 29.7481 56.372 29.7962 56.3635 29.9088C56.3446 30.1615 56.4255 30.4375 56.3315 30.6614C56.1937 30.9889 56.1261 31.341 55.9625 31.6584C55.8535 31.8688 55.6896 31.92 55.4732 31.9139C54.9636 31.8992 54.457 31.9485 53.9556 32.0341C53.7068 32.0764 53.5291 32.2506 53.4253 32.4794C53.3097 32.7349 53.4971 32.9235 53.645 33.0557C53.913 33.2949 54.2255 33.4786 54.5702 33.6108C54.9928 33.773 55.4401 33.8721 55.8383 34.0987C55.9771 34.1775 56.1 34.2729 56.1818 34.414L56.1961 34.3987L56.183 34.4152C56.3403 34.4603 56.476 34.5621 56.6394 34.5916L56.6583 34.6072L56.6808 34.5974C56.7173 34.6176 56.6841 34.5747 56.7091 34.606C56.9723 34.9357 57.3237 35.1332 57.7046 35.2874L57.7052 35.2884C57.8205 35.3439 57.9179 35.4162 57.9468 35.5524L57.9452 35.5493C57.9884 35.5788 58.0435 35.6098 58.056 35.6567C58.153 36.0195 58.3764 36.2943 58.6018 36.5869C58.7956 36.8383 58.7186 37.2039 58.6255 37.4986C58.5081 37.8697 58.4144 38.2384 58.4071 38.6272C58.4028 38.8619 58.3036 39.0499 58.1445 39.2115V39.2112C58.0587 39.5804 57.7864 39.812 57.5187 40.0362C57.3498 40.1778 57.1633 40.2922 57.0854 40.5155C57.0614 40.5845 57.0234 40.6725 56.9592 40.6909C56.6455 40.7814 56.4337 41.0102 56.1922 41.208C56.0595 41.3166 55.89 41.3871 55.7525 41.5018C55.605 41.6245 55.4775 41.7879 55.238 41.7263C55.1477 41.703 55.0616 41.7947 55.0187 41.8812C54.8264 42.2701 54.4808 42.3464 54.0977 42.3498C53.9203 42.3516 53.7415 42.3786 53.5674 42.3731C53.2063 42.3618 52.8923 42.4792 52.5905 42.6528C52.331 42.8018 52.0854 42.67 51.9275 42.5246C51.7319 42.3446 51.473 42.1796 51.4246 41.8711L51.4255 41.8723C51.2439 41.779 51.0403 41.7288 50.8916 41.5733C50.7315 41.4064 50.6412 41.2276 50.7452 40.9958L50.7407 41.0022C50.8064 40.7461 50.7495 40.4603 50.9247 40.2309Z" fill="white"/>
<path fill-rule="evenodd" clip-rule="evenodd" d="M25.6526 38.6143C25.3143 38.7557 24.9547 38.7103 24.6018 38.7109C24.456 38.7112 24.4146 38.6566 24.4554 38.5198C24.5065 38.3493 24.5662 38.1812 24.6322 38.0162C24.7508 37.7212 24.6994 37.4142 24.7058 37.1112C24.707 37.0339 24.6574 36.9763 24.6145 36.9155C24.477 36.7205 24.4706 36.5524 24.6112 36.3798C24.7408 36.2203 24.8153 36.0354 24.8686 35.8449C24.9188 35.6649 25.0387 35.6692 25.181 35.663C25.3502 35.6563 25.4877 35.6842 25.5711 35.851C25.6018 35.9124 25.5766 35.9498 25.5404 35.9884C25.3225 36.2203 25.3712 36.4604 25.5182 36.7027C25.76 37.102 25.9943 37.5071 26.273 37.8822C26.3883 38.0374 26.4485 38.2101 26.4987 38.4425C26.1772 38.4146 25.9137 38.5057 25.6526 38.6143ZM31.0466 42.6392C31.0339 42.6107 31.0208 42.5831 31.0056 42.5564C30.7494 42.1169 30.7412 41.6094 30.6207 41.1328C30.6134 41.1027 30.604 41.073 30.5918 41.0445C30.4683 40.804 30.4485 40.52 30.283 40.2974L30.2331 40.2192C30.1032 40.0775 29.9985 39.9171 30.0055 39.7199C30.0268 39.1108 29.6988 38.6814 29.3012 38.2846C28.8205 38.0165 28.5406 37.5964 28.4694 37.0594C28.4167 36.6671 28.3614 36.3049 27.9394 36.1418C27.9102 36.1304 27.8949 36.0985 27.8776 36.0719C27.574 35.5974 27.2435 35.1408 27.0707 34.5899C26.9621 34.2446 26.7193 33.9971 26.3719 33.8702C26.2818 33.837 26.1893 33.7987 26.1492 33.7076C26.0339 33.4439 25.8428 33.2304 25.6831 32.9982C25.5258 32.7692 25.4424 32.5336 25.4877 32.2634C25.5507 31.8914 25.4089 31.6356 25.0855 31.4676C24.9812 31.3808 24.8899 31.2731 24.7472 31.2455C24.5373 31.0204 24.1621 30.9438 23.8579 31.0695C23.5737 31.1863 23.4776 31.3958 23.5354 31.7022C23.633 32.2236 23.2771 32.6741 23.2865 33.1847C23.2874 33.2411 23.2463 33.2807 23.1916 33.2976C22.8691 33.3954 22.9247 33.6644 22.9999 33.8634C23.0784 34.0723 23.0197 34.1885 22.8758 34.2946C22.6777 34.4412 22.6555 34.6356 22.6816 34.8577C22.7008 35.0172 22.8645 35.0819 22.922 35.2677C22.5207 35.2196 22.4592 35.5235 22.3701 35.7928C22.3135 35.963 22.2524 36.1326 22.2137 36.3071C22.0327 37.1247 21.691 37.9138 21.7747 38.7796C21.7814 38.8489 21.7409 38.9004 21.6962 38.9446C21.5952 39.0436 21.5362 39.1651 21.4978 39.2988C21.4354 39.5169 21.3141 39.5049 21.1793 39.3718C21.0494 39.243 20.9039 39.1476 20.7284 39.0985V39.0988V39.0985C20.6876 38.9581 20.5817 38.8811 20.4692 38.798C19.8537 38.3416 19.2789 37.8417 18.8639 37.1842C18.6622 36.8649 18.591 36.4853 18.4185 36.1507C18.2354 35.7971 18.0772 35.4401 17.6993 35.2269C17.228 34.961 17.0655 34.5568 17.7385 34.2615C18.2311 34.0453 18.6096 33.7343 18.7885 33.2108C18.9747 32.5986 19.2865 32.0806 19.8658 31.7675C20.0502 31.6681 20.1923 31.5476 20.1972 31.3115C20.2109 30.6374 20.1978 29.9633 20.2057 29.2892C20.2069 29.1539 20.1527 29.0733 20.0298 29.0245C19.6072 28.8568 19.0574 29.0159 18.801 29.3953C18.6132 29.6725 18.4392 29.9596 18.2062 30.2037C18.0233 30.4831 17.838 30.7739 17.5466 30.9379C17.2012 31.1327 16.897 31.3835 16.5647 31.5945L16.4945 31.6445L16.4248 31.6942L16.3527 31.7399C16.1817 31.8224 16.0378 31.9454 15.889 32.0598C15.6766 32.222 15.634 32.2147 15.5711 31.9485C15.495 31.628 15.4126 31.3072 15.3949 30.9753V30.9119C15.436 30.8579 15.4515 30.7965 15.4442 30.7291C15.3404 30.4506 15.3335 30.1632 15.359 29.8719C15.3663 29.8437 15.3742 29.8161 15.3806 29.7879C15.394 29.7477 15.4098 29.709 15.4244 29.6698L15.4384 29.6305L15.4482 29.5897C15.453 29.5621 15.4552 29.5339 15.4545 29.506C15.453 29.4631 15.4466 29.4211 15.4326 29.3803L15.3958 29.3021C15.1813 29.0199 14.9796 28.7295 14.7946 28.4256C14.5795 28.0713 14.3054 27.7751 13.8855 27.6625C13.8582 27.6512 13.8302 27.642 13.801 27.6368C13.7711 27.6337 13.7416 27.6352 13.7127 27.642C13.6847 27.6521 13.6586 27.6656 13.6348 27.684C13.5566 27.7521 13.4836 27.8248 13.4179 27.9045C13.4 27.9293 13.3841 27.9557 13.3711 27.9833C13.3032 28.1658 13.208 28.3385 13.1751 28.5335C13.1581 28.8669 13.1572 29.2009 13.176 29.5348C13.1982 29.7023 13.2883 29.8535 13.2932 30.0252C13.3184 30.9407 13.3561 31.8555 13.4133 32.7695C13.4474 33.3046 13.4368 33.8413 13.462 34.378C13.5092 35.3766 13.5487 36.3758 13.5995 37.375C13.6336 38.0445 13.7197 38.6946 13.9269 39.3298C13.936 39.3657 13.9482 39.4 13.9646 39.4334C14.0203 39.5466 14.0921 39.6524 14.1311 39.7711C14.254 40.144 14.4956 40.2903 14.8886 40.2557C15.234 40.2253 15.5765 40.2995 15.8671 40.5044C16.0229 40.6148 16.1829 40.6504 16.3627 40.6439C16.3971 40.6427 16.4297 40.6338 16.4598 40.616C16.7786 40.4237 16.705 40.1373 16.6405 39.853L16.6435 39.8585C16.6365 39.4791 16.4175 39.1399 16.4333 38.7578C16.4473 38.4082 16.4008 38.0647 16.3499 37.7206C16.2699 37.5611 16.1771 37.4075 16.1488 37.2265L16.1215 37.1499L16.1421 37.1799C16.168 37.306 16.2018 37.4299 16.2705 37.5412C16.5139 37.8715 16.9873 37.9684 17.1306 38.4045C17.1483 38.4576 17.2256 38.4864 17.2837 38.5094C17.4881 38.5897 17.5961 38.7446 17.6412 38.9553C17.6908 39.185 17.8411 39.2868 18.0696 39.2942C18.2682 39.3009 18.4657 39.3218 18.644 39.4242L18.7109 39.4865C18.7772 39.5579 18.8016 39.6506 18.825 39.7407C18.9333 40.1658 19.2467 40.4136 19.5738 40.6617C19.9538 40.95 20.3219 40.9034 20.701 40.678C20.7296 40.6682 20.7582 40.6583 20.7859 40.6461C21.0938 40.5541 21.147 40.5967 21.0725 40.8936C21.032 41.054 20.99 41.2147 20.9313 41.3695C20.9201 41.3996 20.9103 41.4303 20.9039 41.4615C20.8099 41.9308 20.8035 42.3988 20.921 42.8662C20.9639 43.0373 21.0329 43.2032 21.0083 43.3885C20.9261 44.0058 21.1327 44.2352 21.7592 44.2484C22.0287 44.2542 22.3047 44.1984 22.5663 44.2962C22.8399 44.399 23.0979 44.3843 23.3498 44.2371C23.3811 44.2217 23.4112 44.2036 23.4392 44.1822C23.6957 43.9865 23.8153 43.6295 23.7231 43.3388C23.71 43.2968 23.6954 43.2538 23.6513 43.2495C23.3635 43.2241 23.4916 43.0278 23.4998 42.8809L23.497 42.8846C23.7067 42.5003 23.7636 42.0513 23.996 41.6765H23.9963C24.0307 41.6664 24.0529 41.6459 24.059 41.6094L24.0584 41.6085L24.0593 41.6081V41.6075L24.0599 41.6081C24.0997 41.5968 24.139 41.5824 24.1652 41.548C24.414 41.2193 24.7247 41.0294 25.1524 41.0806C25.2656 41.0941 25.384 41.0978 25.4956 41.0785C25.6532 41.0518 25.7533 41.0672 25.855 41.2275C25.9444 41.368 26.1233 41.4315 26.2587 41.2288L26.2608 41.2263C26.3767 41.2159 26.4276 41.1174 26.5036 41.05C26.8249 40.7632 27.2773 40.7896 27.5432 41.1046L27.5417 41.103C27.5764 41.2364 27.6622 41.3189 27.7915 41.3582L27.7912 41.3576C27.8374 41.4361 27.9628 41.4395 27.9661 41.5618C27.9838 42.1074 28.3081 42.3899 28.797 42.5175C28.9385 42.5543 28.9963 42.6457 29.0486 42.768C29.1646 43.0394 29.1646 43.3256 29.1405 43.6062C29.108 43.9801 29.2936 44.2226 29.5561 44.4358C29.718 44.5677 29.8856 44.5729 30.0353 44.4281C30.217 44.2521 30.4266 44.1147 30.6231 43.9595C30.8133 43.8092 30.9739 43.6301 31.0722 43.4019C31.0856 43.3728 31.0971 43.3431 31.1054 43.3118C31.1893 43.0781 31.1525 42.8554 31.0466 42.6392Z" fill="white"/>
<path fill-rule="evenodd" clip-rule="evenodd" d="M24.0586 41.6096L24.0724 41.6246L24.0597 41.6082H24.059L24.0586 41.6096Z" fill="white"/>
<path fill-rule="evenodd" clip-rule="evenodd" d="M7.53932 35.2096C7.53354 35.3991 7.36316 35.5104 7.25911 35.6515L7.17483 35.6579C6.82799 35.3997 6.45742 35.5721 6.09232 35.5837C5.72114 35.5951 5.38403 35.7515 5.02167 35.7889L5.00342 35.7484L5.01984 35.7272C5.08343 35.5834 5.13911 35.4356 5.21274 35.297C5.29793 35.1381 5.32866 34.9903 5.22947 34.8222C5.16254 34.7087 5.15645 34.5858 5.26081 34.4747C5.58575 34.1285 5.71018 33.6783 5.8687 33.248C5.91555 33.1207 5.95115 32.9901 6.01321 32.8671C6.10662 32.6822 6.23227 32.508 6.20367 32.2819C6.57668 32.3393 6.82799 32.534 6.79757 32.8211C6.74128 33.3538 6.99411 33.7506 7.26276 34.1542C7.29744 34.2064 7.31783 34.2714 7.36073 34.3143C7.61782 34.5735 7.54875 34.901 7.53932 35.2096ZM13.5014 41.0059C13.4329 40.6937 13.3985 40.3662 13.1898 40.1015L13.1767 40.0874L13.1853 40.0705C12.9802 39.3403 12.5932 38.7039 12.1751 38.0835L12.1773 38.0866C12.1456 37.9369 12.1015 37.7925 12.0096 37.6673L11.9673 37.5971C11.9482 37.5606 11.9314 37.5235 11.9138 37.4864L11.8773 37.4113C11.7562 37.1021 11.4842 36.8979 11.3281 36.6136C11.1395 36.2692 11.1663 36.1848 11.5034 35.9968L11.5736 35.9517C11.6144 35.9195 11.6509 35.8827 11.6874 35.8456L11.7136 35.8183L11.7656 35.7656L11.7921 35.7398L11.8466 35.6892L11.9016 35.6355C11.9305 35.6061 11.957 35.5745 11.9786 35.5389L12.0145 35.4595C12.2357 34.786 12.1821 34.5839 11.6795 34.2021C11.5618 34.1128 11.4252 34.0586 11.2986 33.9856C11.2712 33.9709 11.2438 33.9567 11.2152 33.9451C10.9137 33.8285 10.6031 33.7365 10.3037 33.6157C9.99643 33.4915 9.6432 33.3927 9.46065 33.1094C9.22212 32.7389 9.06969 32.3114 8.7198 32.0166C8.54456 31.6281 8.64465 31.1864 8.48827 30.7939C8.47975 30.7626 8.4691 30.7316 8.45572 30.7019C8.43624 30.6565 8.41464 30.612 8.38878 30.5703C8.37114 30.5421 8.35166 30.5154 8.32915 30.4909C8.11983 30.2961 7.98809 30.0563 8.01151 29.7677C8.03555 29.477 8.06141 29.1795 8.21049 28.9164C8.36718 28.6397 8.45724 28.3361 8.55764 28.038C8.69911 27.6185 8.6267 27.2403 8.34041 26.8876C8.04437 26.523 7.65676 26.4337 7.22595 26.4267C7.19339 26.4261 7.16205 26.431 7.13102 26.442C6.90436 26.5267 6.74067 26.6763 6.64118 26.9002C6.5855 27.0263 6.4924 27.1262 6.40174 27.2287C5.8547 27.8466 5.27815 28.4487 5.16193 29.3261L5.12816 29.3788L5.07309 29.4485C4.72929 29.9229 4.40192 30.4078 4.11623 30.9202L4.07698 30.9981C3.94615 31.2343 3.78642 31.4533 3.67172 31.6986L3.62761 31.7744C3.47092 32.0117 3.36869 32.2697 3.32184 32.5527C3.28807 32.7597 3.21079 32.9551 3.10704 33.1382C3.09304 33.1643 3.07996 33.1906 3.0684 33.2182C2.93757 33.6129 2.84143 34.0291 2.44621 34.264L2.39631 34.3373C2.3741 34.3763 2.35311 34.4162 2.33455 34.4573C2.32177 34.4849 2.30991 34.5131 2.30048 34.5419C2.24328 34.6879 2.20068 34.84 2.14896 34.9878C2.04886 35.2743 2.04521 35.6156 1.83772 35.8373C1.58489 36.1072 1.46319 36.4023 1.44858 36.7586C1.4355 36.7871 1.42181 36.8157 1.40994 36.8445C1.20792 37.0926 0.942922 37.3005 0.940792 37.6692C0.940488 37.7646 0.857732 37.8363 0.782583 37.8946C0.541619 38.0811 0.451561 38.3384 0.410488 38.6309C0.362721 38.9714 0.365155 39.3231 0.200253 39.6412C0.096504 39.8411 0.0806831 40.0576 0.0937658 40.284C0.119931 40.7363 0.159483 40.7937 0.600643 40.8155C0.777107 40.8244 0.926797 40.8719 1.05154 40.9982C1.07679 41.0188 1.10265 41.0384 1.13095 41.055C1.35214 41.2145 1.56237 41.3988 1.8155 41.4969C2.28435 41.6788 2.67561 41.6049 2.79762 41.0832C2.83078 40.94 2.87946 40.8001 2.9178 40.6581C3.02367 40.264 3.25855 39.9939 3.63612 39.8405C3.79099 39.7773 3.94494 39.7135 4.10467 39.6626C4.13387 39.6516 4.16308 39.6399 4.19107 39.6258C4.31186 39.5617 4.44329 39.5234 4.56682 39.4657C4.9739 39.2744 5.27359 38.9925 5.39742 38.5374C5.49903 38.1626 5.6329 38.1402 5.89943 38.4276C6.14739 38.695 6.56451 38.9082 6.9001 38.6349L6.96855 38.5736C7.00141 38.5319 7.02423 38.4847 7.04431 38.4356C7.19765 38.0559 7.19735 38.0574 7.57309 38.1691C7.85574 38.2531 8.13169 38.2694 8.37479 38.0608C8.47245 37.9771 8.55642 37.9789 8.64648 38.0719C8.92882 38.3626 9.28084 38.604 9.30183 39.0716C9.30639 39.1784 9.36268 39.2762 9.44391 39.3467C9.6791 39.551 9.77524 39.8285 9.84704 40.1171C9.91093 40.3741 9.98426 40.6256 10.1212 40.8538L10.1787 40.9259C10.4358 41.1908 10.7224 41.3804 11.0939 41.1718C11.3762 41.0136 11.6741 40.8805 11.9333 40.6814L12.0017 40.621C12.26 40.3784 12.2847 40.383 12.4292 40.6943C12.4779 40.7992 12.5104 40.9102 12.5506 41.0182C12.6814 41.3672 12.8062 41.4451 13.1901 41.4178C13.2196 41.408 13.2482 41.3957 13.2753 41.3804C13.4174 41.296 13.54 41.1816 13.5014 41.0059Z" fill="white"/>
<path fill-rule="evenodd" clip-rule="evenodd" d="M74.977 34.7998C74.9694 34.9179 74.9048 34.9486 74.8078 34.9872C74.4202 35.1424 74.0067 35.2181 73.6252 35.3905C73.4931 35.45 73.3571 35.5003 73.1612 35.5797C73.2464 35.1783 73.3215 34.8329 73.3918 34.4864C73.4995 33.9574 73.7274 33.4817 74.0125 33.0299C74.0517 32.9683 74.0794 32.899 74.1135 32.8343C74.1506 32.7637 74.1591 32.6616 74.2735 32.6696C74.3898 32.6772 74.4978 32.6975 74.5565 32.8229C74.8507 33.4489 75.0241 34.0997 74.977 34.7998ZM79.0624 33.911C79.0414 33.6363 78.9215 33.4949 78.6885 33.4464C78.3203 33.3701 77.9726 33.455 77.6519 33.6519L77.6467 33.6372L77.651 33.6522C77.4286 33.739 77.2162 33.8561 76.9807 33.9052C76.6521 33.9733 76.5344 33.8798 76.5381 33.5507C76.5435 33.0566 76.5651 32.5586 76.4075 32.0838C76.3035 31.7692 76.3385 31.4971 76.5076 31.2193C76.7492 30.8224 76.6576 30.3007 76.3053 29.9732L76.3074 29.9744C76.2998 29.9395 76.2779 29.918 76.2444 29.9085L76.2454 29.9106L76.2426 29.9076L76.2444 29.9085C76.2353 29.8751 76.2137 29.8539 76.1806 29.8435V29.8438C76.1675 29.7714 76.1221 29.734 76.0519 29.7223C75.9685 29.484 75.737 29.5248 75.5626 29.4586L75.559 29.4574C75.4622 29.3485 75.3335 29.3187 75.1966 29.3089C74.7077 29.2752 74.2249 29.1878 73.7374 29.1424L73.7353 29.1418C73.2382 28.9099 72.8186 28.9768 72.462 29.3325C72.3452 29.4491 72.3248 29.6156 72.225 29.7377C72.048 29.9539 72.0102 30.1854 72.1557 30.4311C72.2153 30.5323 72.2263 30.6402 72.1757 30.7313C72.0948 30.8749 72.0945 31.0343 72.0492 31.1837L72.0358 31.23C72.0014 31.2873 72.0063 31.3524 72.0136 31.4125C72.0623 31.8081 71.9953 32.1359 71.5505 32.2546H71.549C71.3823 32.2782 71.1784 32.3055 71.158 32.4957C71.1255 32.8051 70.9028 33.0042 70.7948 33.2658L70.7957 33.2649L70.7942 33.2667L70.7948 33.2658C70.7339 33.309 70.6913 33.3685 70.6688 33.4381C70.478 34.0224 70.07 34.5266 70.0405 35.17L70.0439 35.1651C69.8905 35.5331 69.6258 35.8493 69.5431 36.2504L69.547 36.2452L69.5428 36.2514L69.5431 36.2504C69.4479 36.3563 69.5166 36.4854 69.4984 36.6022C69.4859 36.6826 69.5203 36.7733 69.446 36.8393C69.1485 37.1052 69.1509 37.5284 68.9343 37.8375C68.8859 37.9069 68.9057 37.9973 68.9075 38.0829C68.9233 38.8564 69.0313 39.6363 68.7615 40.3919C68.6626 40.6965 68.9507 40.7434 69.0852 40.897C69.5054 41.3773 70.0226 41.4175 70.5976 41.2767C70.8124 41.2243 70.9615 41.1295 71.0214 40.9115L71.0376 40.9188L71.022 40.9099C71.3817 40.6986 71.4808 40.345 71.5295 39.9644L71.528 39.9653L71.5295 39.9635V39.9644C71.7519 39.8101 71.6972 39.5427 71.7827 39.3326L71.7814 39.3336L71.783 39.3317L71.7827 39.3326C71.9482 39.2066 71.9476 38.9947 72.0379 38.83L72.0385 38.8291C72.1998 38.7867 72.2439 38.5779 72.4079 38.5518C72.7505 38.4969 72.9762 38.2598 73.2266 38.0544C73.4171 37.8983 73.5896 37.709 73.8768 37.7189C74.0788 37.7259 74.1719 37.7922 74.1485 37.9992C74.0724 38.6895 74.2498 39.3734 74.1984 40.0635C74.1944 40.1153 74.2127 40.1711 74.2428 40.2134C74.3587 40.3784 74.3575 40.5689 74.37 40.7572C74.391 41.0731 74.3021 41.3853 74.3393 41.7009C74.4247 42.428 74.7442 43.0969 75.5094 43.1316L75.5112 43.1312C75.7856 43.3116 76.1033 43.303 76.4109 43.3453C77.0577 43.4342 77.0708 43.441 77.211 42.8264C77.3495 42.2213 77.3169 41.6064 77.25 40.9933L77.2527 40.9986C77.2275 40.9568 77.2375 40.8973 77.1879 40.8688V40.8707L77.1861 40.8679L77.1879 40.8688C77.1374 40.5287 77.1894 40.1687 76.9926 39.8568L76.9944 39.8601C76.978 39.3967 76.9929 38.9346 76.9223 38.4712C76.8578 38.0482 76.9874 37.6216 76.9798 37.1929C76.9734 36.8172 77.0221 36.7878 77.3799 36.6737C77.6309 36.5936 77.9008 36.5301 78.0751 36.2977L78.0769 36.2958C78.3115 36.1808 78.3179 35.964 78.2939 35.7524C78.2549 35.4049 78.3955 35.1384 78.6471 34.9317C78.9745 34.6624 79.0946 34.3376 79.0624 33.911Z" fill="white"/>
<path fill-rule="evenodd" clip-rule="evenodd" d="M0.437363 38.1426L0.405273 38.1247L0.420199 38.1105L0.437363 38.1426Z" fill="white"/>
<path fill-rule="evenodd" clip-rule="evenodd" d="M0.940781 40.9886L0.922871 41.0207L0.908691 41.0066L0.940781 40.9886Z" fill="white"/>
<path fill-rule="evenodd" clip-rule="evenodd" d="M36.1466 19.6946L36.1449 19.6964L36.1431 19.6982L36.1466 19.6946Z" fill="white"/>
<path fill-rule="evenodd" clip-rule="evenodd" d="M50.6657 26.9868L50.663 26.9838L50.6621 26.9829L50.6657 26.9868Z" fill="white"/>
<path fill-rule="evenodd" clip-rule="evenodd" d="M66.041 3.15343C66.0054 3.0878 65.9663 3.02401 65.9627 2.94826C65.9598 2.87128 65.8988 2.84337 65.8184 2.83663C65.864 2.66826 65.9929 2.68727 66.1121 2.75842C66.2463 2.83877 66.2022 3.04395 66.041 3.15343Z" fill="white"/>
<path fill-rule="evenodd" clip-rule="evenodd" d="M55.0708 18.9343L55.0687 18.9361L55.0669 18.9382L55.0708 18.9343Z" fill="white"/>
<path fill-rule="evenodd" clip-rule="evenodd" d="M43.5667 22.8641L43.5623 22.8679L43.5615 22.8682L43.5667 22.8641Z" fill="white"/>
<path fill-rule="evenodd" clip-rule="evenodd" d="M59.8374 26.6328C59.8101 26.6392 59.7802 26.6377 59.7498 26.6358C59.7063 26.6343 59.6619 26.6309 59.6214 26.6502C59.6601 26.63 59.7054 26.6331 59.7498 26.6358L59.8061 26.6349L59.8374 26.6328L59.8974 26.5987C59.9494 26.5405 59.8593 26.526 59.8338 26.4914C59.8803 26.4944 59.9184 26.5153 59.9181 26.5644C59.9178 26.6242 59.8782 26.6306 59.8374 26.6328ZM57.9109 21.6007C57.4594 21.635 57.4594 21.635 57.2258 21.2176C57.1245 21.1744 57.0228 21.1575 56.9197 21.2118L56.8531 21.2768C56.6915 21.5997 56.4648 21.8503 56.1174 21.976C56.0724 21.992 56.0432 22.0727 56.0024 22.076C55.56 22.1156 55.435 22.4894 55.2369 22.7918C55.1514 22.9228 55.0391 23.0209 54.8548 23.0056C54.6494 22.9884 54.4395 22.9896 54.2536 23.1089C54.1897 23.1237 54.131 23.1595 54.0622 23.1553C53.9137 23.0338 54.0738 22.7762 53.8574 22.6848L53.8577 22.6882C53.8307 22.6189 53.7689 22.5588 53.8012 22.4735L53.7996 22.4345C53.7786 22.3683 53.7576 22.3017 53.8638 22.2938L53.88 22.3067L53.9338 22.3517L53.9402 22.3554C53.9694 22.3971 54.0263 22.3833 54.0598 22.4165L54.0649 22.4189C54.1918 22.4989 54.3065 22.437 54.4221 22.3879C54.5256 22.1898 54.5457 21.9917 54.423 21.793C54.3357 21.7013 54.2487 21.6089 54.1614 21.5172C54.1431 21.4231 54.1945 21.3559 54.259 21.3059C54.4422 21.1643 54.4379 21.002 54.326 20.822L54.3019 20.7686C54.2807 20.7045 54.2587 20.6404 54.3144 20.5815C54.6126 20.6042 54.6178 20.6042 54.6165 20.3337C54.6159 20.2062 54.6658 20.0654 54.552 19.9556C54.5323 19.9102 54.5314 19.8642 54.5499 19.8176C54.7751 19.5931 54.8669 19.2922 55.0026 19.0159C55.02 18.9856 55.0422 18.9586 55.069 18.9362C55.0936 18.9061 55.1225 18.8822 55.159 18.869C55.2527 18.6448 55.483 18.5436 55.6148 18.3541C55.769 18.3455 55.6184 18.2118 55.6899 18.1695L55.6887 18.1689C55.7127 18.0839 55.9437 18.1262 55.8189 17.9456C55.7751 17.8818 55.8414 17.8315 55.8764 17.7818L55.8743 17.7821C55.9817 17.7217 56.111 17.7005 56.1935 17.5963L56.1962 17.5935C56.4025 17.6033 56.3654 17.8079 56.449 17.9155C56.5564 18.0906 56.6921 18.2501 56.7302 18.4636C56.7481 18.5617 56.8184 18.6329 56.9109 18.6645C57.279 18.7917 57.3764 19.0975 57.4336 19.4388C57.471 19.6609 57.481 19.8967 57.6572 20.0706C57.8699 20.212 57.9088 20.4392 57.9493 20.6662C57.9913 20.906 58.0342 21.1459 58.0746 21.386C58.1032 21.5562 58.0777 21.5881 57.9109 21.6007ZM54.1952 25.7259C53.9368 25.9133 53.6606 25.9762 53.3567 25.8483C53.2404 25.7802 53.1212 25.7992 53.0019 25.8366C52.9608 25.8403 52.9176 25.8538 52.8787 25.8461C52.7536 25.8216 52.7186 25.7474 52.7965 25.6563C52.9903 25.4287 53.1555 25.1809 53.3007 24.9212C53.357 24.8206 53.4084 24.8341 53.5003 24.8577C53.7318 24.9166 53.949 25.0129 54.1717 25.0935C54.26 25.3014 54.2149 25.514 54.1952 25.7259ZM52.575 16.4505C52.6569 16.368 52.7558 16.3968 52.8403 16.4023C53.0125 16.4131 53.0448 16.3315 53.0506 16.1745C53.0591 15.9334 52.9769 15.7528 52.8066 15.5875C52.5975 15.3848 52.3173 15.2679 52.1558 15.0051C52.0937 14.9039 51.9738 14.9523 51.7971 15.1247C51.7073 15.2722 51.5771 15.3838 51.4606 15.5074C51.3243 15.6016 51.3291 15.7666 51.2893 15.8997C51.2214 16.1239 51.0958 16.2576 50.8545 16.3082C50.794 16.1904 50.8287 16.0104 50.6662 15.9457C50.5789 15.8791 50.4949 15.8675 50.4179 15.9619C50.2847 16.192 50.2847 16.192 49.9326 15.9619C50.0075 15.8175 50.0835 15.6706 50.1596 15.524C50.1852 15.49 50.2144 15.4614 50.2554 15.4473C50.6391 15.1833 51.0246 14.9226 51.4052 14.6542C51.617 14.5043 51.6176 14.2835 51.3958 14.1439C51.2108 14.0271 51.0641 13.8553 50.8554 13.7734C50.7876 13.7467 50.7319 13.6983 50.7176 13.6152C50.6914 13.4606 50.556 13.3481 50.5469 13.1683C50.8046 13.1392 51.0483 13.0834 51.1107 12.7755C51.1171 12.7436 51.1423 12.727 51.1767 12.7206C51.2786 12.7019 51.589 12.8445 51.6334 12.9362C51.6599 12.9905 51.7025 13.0641 51.6081 13.0858C51.5083 13.1095 51.4667 13.1579 51.4697 13.2579C51.4737 13.372 51.4587 13.483 51.5455 13.5845C51.6313 13.6848 51.7545 13.7198 51.8491 13.801C51.9322 13.8584 52 13.8345 52.0578 13.7602C52.2014 13.7201 52.0596 13.4947 52.2382 13.4778C52.2842 13.5348 52.3435 13.5857 52.3736 13.6505C52.478 13.8753 52.6322 14.0261 52.8845 14.0697C52.9967 14.089 53.0761 14.1629 53.0515 14.2917C53.0214 14.4494 53.1117 14.5901 53.0871 14.7567C53.0661 14.9011 53.2343 14.9778 53.3722 14.9897C53.513 15.0023 53.5675 15.0548 53.6366 15.1885C53.7887 15.4841 53.9791 15.7703 54.3591 15.8175C54.4699 15.8316 54.4936 15.8994 54.455 15.9987C54.4285 16.0668 54.4188 16.141 54.3671 16.199C54.2956 16.2797 54.3071 16.3698 54.3467 16.4609C54.3817 16.4729 54.409 16.4974 54.4395 16.5164L54.4991 16.5302C54.5618 16.5729 54.6302 16.6063 54.6893 16.6551L54.688 16.6541C54.7784 16.7112 54.8554 16.7863 54.9421 16.8486L55.0166 16.8933C55.2217 16.8725 55.2777 16.9872 55.2692 17.1651C55.2889 17.2086 55.2892 17.2586 55.3111 17.3015C55.2786 17.3767 55.2329 17.4402 55.1465 17.3767C54.9369 17.2218 54.6953 17.178 54.4456 17.143C54.2633 17.1175 54.0871 17.0746 53.921 16.9703C53.6959 16.8292 53.4339 16.8624 53.1945 16.9363C53.0682 16.9752 52.9833 16.9623 52.9286 16.8611C52.8422 16.7004 52.7028 16.59 52.575 16.4505ZM52.6131 18.4927C52.3715 18.6442 52.1333 18.8037 51.8284 18.8101C51.78 18.5878 52.0192 18.493 51.9894 18.3059C52.0426 18.1624 52.0213 18.0201 51.9915 17.875C51.9693 17.7677 52.0113 17.7358 52.1062 17.8021L52.1047 17.7993C52.1354 17.8137 52.1549 17.8382 52.1692 17.868C52.3091 17.9833 52.3803 18.1541 52.4993 18.2863C52.5294 18.3596 52.7214 18.3421 52.6131 18.4927ZM50.442 25.2794C50.3239 25.38 50.1398 25.3278 49.9853 25.3128C49.9086 25.3054 49.8995 25.2324 49.8992 25.1671C49.8983 24.9711 49.9622 24.7905 50.0775 24.6415C50.2594 24.4065 50.3729 24.4191 50.577 24.6577C50.6765 24.7739 50.7842 24.8831 50.9005 25.0086C50.7456 25.1095 50.5789 25.1622 50.442 25.2794ZM49.4744 13.8811L49.4042 13.8866C49.3241 13.9004 49.2441 13.9139 49.1641 13.9274L49.0902 13.939C48.8784 13.9737 48.6591 13.9792 48.4683 14.0982C48.4503 14.1289 48.4284 14.1565 48.4044 14.1826C48.3347 14.2601 48.2757 14.3534 48.193 14.4123C47.9085 14.6156 47.7828 14.9186 47.6374 15.2198C47.4944 15.5154 47.3286 15.8098 47.1196 16.0589C47.0088 16.1907 47.0858 16.4088 46.9309 16.4539C46.8022 16.4916 46.6413 16.3597 46.5016 16.4842L46.4724 16.494C46.2826 16.5465 46.3559 16.4241 46.372 16.3401C46.3745 16.2104 46.4307 16.0751 46.3303 15.9567C46.1533 15.6126 45.7946 15.509 45.4943 15.3372C45.3494 15.2544 45.2089 15.1759 45.0908 15.0584C45.0288 14.9839 44.9901 14.8977 44.8575 14.9039C44.5471 14.9189 44.2353 14.9094 43.924 14.9085C43.8081 14.9082 43.7239 14.9533 43.6791 15.0637L43.6807 15.0627C43.6323 15.1186 43.6837 15.2081 43.6158 15.2572C43.4756 15.4203 43.4038 15.6326 43.2328 15.7758C43.1388 15.8552 43.0849 16.3566 43.1388 16.4643C43.1604 16.5078 43.1993 16.5143 43.241 16.5164C43.3235 16.5216 43.4062 16.5269 43.489 16.5321L43.524 16.5676L43.5106 16.5959C43.3402 16.7894 43.0977 16.9173 42.9985 17.1776C42.9766 17.2344 42.9237 17.2822 42.9395 17.3491C42.959 17.4325 42.8884 17.5457 43.0128 17.5954C43.1306 17.6426 43.2982 17.592 43.3682 17.4914C43.4175 17.4218 43.4169 17.2951 43.5544 17.3273L43.628 17.3316C43.6858 17.3405 43.7436 17.3491 43.8014 17.3583C43.8526 17.3972 43.8425 17.4346 43.799 17.4714C43.517 17.5582 43.2946 17.7429 43.0499 17.8947C42.7621 18.0732 42.6955 18.2839 42.6806 18.5685L42.6693 18.6307C42.6556 18.7301 42.7244 18.8702 42.6137 18.9193C42.4853 18.9757 42.4554 18.8285 42.3989 18.746C42.3295 18.6461 42.2117 18.6635 42.1439 18.7098C41.8588 18.9058 41.6112 19.1426 41.4773 19.4747C41.4663 19.5023 41.4755 19.5379 41.4752 19.5695C41.4216 19.6928 41.2993 19.763 41.2378 19.8805C41.1329 20.1411 41.1718 20.3632 41.4021 20.5414C41.4578 20.5846 41.4977 20.649 41.5448 20.7036C41.5494 20.7714 41.5488 20.8395 41.5491 20.9069C41.4344 20.9842 41.3063 21.021 41.1715 21.037C41.1268 21.0591 41.0769 21.0606 41.03 21.0735C40.4587 21.0848 40.4587 21.0848 40.4632 21.6543C40.4638 21.7282 40.4641 21.8019 40.4666 21.8758C40.4687 21.9346 40.4517 21.9748 40.3884 21.9889C40.2147 22.0267 40.1136 22.1739 39.984 22.2741C39.8006 22.4165 39.758 22.6486 39.7257 22.859C39.6959 23.0528 39.7011 23.258 39.7355 23.457C39.7644 23.6257 39.8137 23.7824 39.9603 23.8882C40.0473 23.9508 40.0951 24.0462 40.1596 24.1278C40.3053 24.371 40.0625 24.3575 39.9588 24.436C39.7905 24.4292 39.6381 24.5488 39.4638 24.4982C39.402 24.4645 39.3463 24.4203 39.2821 24.3909C38.9882 24.347 38.6837 24.3305 38.4771 24.0661L38.4275 24.0287C38.1938 23.9057 38.1935 23.906 38.223 23.646C38.2623 23.5754 38.2392 23.4926 38.2672 23.4199C38.224 23.3261 38.1932 23.2243 38.136 23.1408C38.0125 22.9602 38.0058 22.962 38.1701 22.8394C38.3174 22.7293 38.4728 22.6296 38.5997 22.4934C38.7607 22.3858 38.8096 22.2174 38.8407 22.0395C38.8632 22.0006 38.8854 21.9619 38.9076 21.9233C38.9298 21.8929 38.9566 21.8678 38.9849 21.8439C39.1063 21.6807 39.1863 21.5059 39.1659 21.2931C39.158 21.2109 39.158 21.1143 39.2794 21.1063C39.636 21.0827 39.7297 20.8217 39.7285 20.5371C39.7273 20.3147 39.8237 20.1829 39.9731 20.0596C39.9968 19.9173 39.8633 19.7225 40.1063 19.6526C40.4523 19.6152 40.4693 19.5821 40.3388 19.1984C40.3138 19.169 40.2877 19.1407 40.2566 19.1174C40.1769 19.0662 40.1191 19.0917 40.0762 19.1699C40.0546 19.2579 40.0668 19.3536 40.0254 19.4339C39.9916 19.4993 39.95 19.587 39.8611 19.4818L39.8413 19.4431C39.7257 19.3548 39.6536 19.2754 39.7613 19.1116C39.9065 18.8914 39.7781 18.6249 39.834 18.3845C39.9603 18.3032 40.106 18.5019 40.2283 18.3578C40.3741 18.1854 40.5475 18.0422 40.6586 17.8336C40.8174 17.5365 40.7876 17.4386 40.4453 17.3764C40.4608 17.1997 40.5743 17.1062 40.7173 17.0329C40.8676 16.9553 40.9747 16.8523 40.9181 16.6603C40.8679 16.5683 40.7416 16.6115 40.6865 16.5278C41.0331 16.4272 41.079 16.1371 41.1137 15.8399C41.1569 15.7632 41.2409 15.7476 41.3087 15.708C41.4113 15.6746 41.5141 15.6418 41.6166 15.6089C41.8996 15.5068 41.846 15.2829 41.8101 15.0658C41.6194 14.6389 41.3026 14.3681 40.8508 14.2485C40.5219 14.1614 40.1824 14.1062 39.9037 13.8728C39.7975 13.7839 39.6335 13.7247 39.5289 13.9157C39.3576 14.1089 39.2344 14.3344 39.1066 14.557C39.0765 14.5861 39.0512 14.6248 39.0156 14.6432C38.8726 14.7174 38.6709 14.7067 38.6478 14.6134C38.6097 14.4589 38.74 14.4132 38.8525 14.3574C39.1787 14.1948 39.2353 14.0335 39.0926 13.705C39.012 13.5186 39.0257 13.4778 39.2338 13.4974C39.8054 13.5511 40.3434 13.4097 40.8816 13.2515C40.9208 13.2653 40.9585 13.2582 40.9951 13.241C41.3431 13.2245 41.689 13.1671 42.0392 13.1855C42.1612 13.1916 42.2863 13.1647 42.3529 13.3168C42.3873 13.3959 42.4749 13.3772 42.5464 13.3735C42.6273 13.3566 42.5625 13.2634 42.6185 13.2337C42.7074 13.1671 42.8114 13.1904 42.9106 13.1824C43.0572 13.1708 43.1893 13.1312 43.2608 12.9843C43.2888 12.946 43.3265 12.9233 43.3715 12.9116C43.4412 12.8954 43.5157 12.9009 43.5815 12.8693C43.6855 12.8199 43.7397 12.7332 43.7193 12.6191C43.6928 12.4715 43.5845 12.4912 43.4795 12.5194C43.4248 12.5338 43.3697 12.5679 43.3159 12.5188L43.3174 12.4878C43.4044 12.3458 43.2979 12.1225 43.5066 12.0324C43.6883 12.2195 44.0178 12.2317 44.0947 12.5433C44.1492 12.7638 44.2094 12.9797 44.319 13.1837C44.4154 13.364 44.5459 13.4401 44.7419 13.4278C44.8243 13.4226 44.9074 13.4299 44.9904 13.4318C45.0361 13.4471 45.0835 13.4542 45.1301 13.4637C45.5028 13.4462 45.7976 13.6572 46.107 13.8133C46.3422 13.9311 46.4834 13.9228 46.6513 13.7345C46.7052 13.6735 46.7815 13.6333 46.8476 13.5836C46.888 13.5799 46.9288 13.5772 46.9653 13.5578C47.1676 13.5281 47.3785 13.5293 47.5473 13.3839C47.6444 13.2999 47.7247 13.2183 47.6931 13.0659C47.6715 12.9592 47.6444 12.8383 47.7421 12.719C47.9413 12.8727 48.0089 13.1272 48.1844 13.2922C48.2273 13.307 48.2575 13.3367 48.2809 13.3747C48.4458 13.4177 48.5891 13.3809 48.6956 13.2456C48.7376 13.1926 48.7871 13.1625 48.8459 13.1404C49.0841 13.0503 49.1805 12.8776 49.1595 12.6237C49.1474 12.4786 49.1571 12.332 49.1571 12.1581C49.7267 12.3305 50.0693 12.7476 50.4559 13.1153C50.3838 13.1886 50.285 13.1745 50.2497 13.2702C50.1158 13.6311 49.8137 13.7817 49.4744 13.8811ZM44.8112 20.0629C44.8608 20.108 44.852 20.1599 44.8283 20.2135C44.7927 20.3313 44.8039 20.4527 44.8024 20.5733C44.7811 20.6325 44.7902 20.695 44.7817 20.7557C44.7696 20.8392 44.7574 20.9223 44.7449 21.006C44.7282 21.0566 44.7184 21.1075 44.7388 21.16C44.6953 21.4878 44.6728 21.5096 44.3518 21.5126C44.2371 21.5136 44.1221 21.5126 44.0077 21.5062C43.9551 21.5028 43.9049 21.4789 43.8964 21.4163C43.8875 21.3507 43.9332 21.3087 43.9855 21.3112C44.2103 21.32 44.2605 21.1547 44.3065 20.9907C44.3832 20.7199 44.472 20.4564 44.6342 20.2212C44.6828 20.15 44.716 20.0752 44.8112 20.0629ZM44.8097 19.0141C44.8304 18.9696 44.8596 18.9632 44.897 18.9945C45.25 19.011 45.2497 19.011 45.2828 18.6549C45.2862 18.624 45.2962 18.5936 45.3032 18.5633L45.3108 18.4832C45.3166 18.3848 45.3224 18.2863 45.3285 18.1882C45.3513 18.144 45.3555 18.0956 45.3638 18.0477V17.6297C45.5852 17.6297 45.7638 17.6975 45.9473 17.7297L46.0103 17.7343L46.0109 17.7346C46.0653 17.7855 46.1484 17.7395 46.202 17.7922L46.2035 17.7932C46.2948 17.8241 46.3608 17.8812 46.3903 17.9763C46.4557 18.0793 46.5692 18.1109 46.6665 18.167C46.7289 18.2029 46.7916 18.2418 46.843 18.2912C46.9096 18.3553 46.9778 18.4338 46.9504 18.5332C46.9188 18.6454 46.8123 18.5875 46.738 18.6022C46.7076 18.608 46.6772 18.6135 46.6471 18.6194L46.5756 18.6396C46.4943 18.6286 46.4131 18.616 46.3316 18.6068C46.2272 18.5948 46.1478 18.6316 46.1152 18.7374C46.0069 19.0874 45.7316 19.1864 45.4106 19.222C45.3607 19.2278 45.3132 19.2539 45.2643 19.2705C45.2335 19.276 45.2208 19.3251 45.1803 19.3057C45.1179 19.3505 45.0562 19.3953 44.9944 19.4401C44.9293 19.4848 45.0525 19.64 44.8873 19.6262C44.7403 19.4376 44.8493 19.2165 44.8097 19.0141ZM44.3056 17.6877C44.3488 17.7012 44.3932 17.6999 44.4376 17.6938C44.5456 17.6297 44.6092 17.6392 44.5894 17.7867C44.5359 17.8395 44.5554 17.9299 44.493 17.9787C44.4507 18.0029 44.4391 18.0437 44.4346 18.0885C44.4069 18.2348 44.3768 18.3811 44.444 18.5252C44.4988 18.5967 44.5946 18.6381 44.6071 18.7522C44.5389 18.8396 44.4142 18.7948 44.3323 18.8669C44.2493 18.9405 44.2782 19.0454 44.2326 19.119C44.1519 19.2508 44.0083 19.1785 43.8924 19.188C43.7877 19.1969 43.7038 19.1414 43.7013 19.0282C43.6959 18.7571 43.6995 18.4857 43.7038 18.2142C43.7077 17.9827 43.9292 18.0051 44.0549 17.9152C44.0856 17.899 44.1124 17.8769 44.1361 17.8514L44.1821 17.807C44.1443 17.6849 44.1541 17.6119 44.3056 17.6877ZM47.9276 25.7946C47.8063 26.0215 47.7597 26.2859 47.5829 26.4834C47.4798 26.5398 47.356 26.4699 47.255 26.5383C47.2261 26.5398 47.1968 26.5414 47.1682 26.5429C47.0864 26.5285 47.1296 26.4429 47.0907 26.404L47.0316 26.3344C46.9632 26.2838 46.9446 26.1991 46.8975 26.1341C46.6562 26.0298 46.3948 25.9804 46.188 25.7869C46.0614 25.6685 45.8855 25.663 45.7374 25.8004C45.685 25.8489 45.6233 25.8872 45.5563 25.9369C45.4572 25.8627 45.4897 25.7216 45.4076 25.6459C45.3145 25.4919 45.295 25.3165 45.2615 25.1453L45.2597 25.1426C45.1468 24.9816 45.0921 24.7825 44.9408 24.6464C44.8669 24.5559 44.7851 24.4878 44.6555 24.5074C44.5961 24.5166 44.5338 24.5087 44.4723 24.5087C44.1674 24.5084 44.1674 24.5084 44.0591 24.2014C43.9709 23.9959 43.8206 24.1038 43.6867 24.1256L43.632 24.1784C43.3134 24.2556 42.9949 24.255 42.6763 24.1784C42.6161 24.1183 42.6228 24.0391 42.6167 23.9637C42.69 23.8671 42.7871 23.9195 42.8762 23.9223C42.9556 23.8999 43.0384 23.8855 43.1135 23.8527C43.4327 23.7137 43.5231 23.4773 43.3895 23.1399L43.3362 23.1108C43.2577 23.0237 43.3463 23.0194 43.3928 22.9946C43.4272 22.97 43.4613 22.9455 43.4957 22.9213L43.5623 22.8673C43.5869 22.8357 43.6168 22.8112 43.6554 22.7992C43.6861 22.736 43.7166 22.6728 43.7473 22.6094C43.8127 22.5382 43.855 22.4272 43.9855 22.4634C44.0804 22.5983 44.116 22.7287 43.9502 22.8372C43.7966 22.9375 43.7877 23.0909 43.7841 23.254C43.782 23.358 43.8215 23.4264 43.9158 23.4331C44.2779 23.4589 44.4513 23.7613 44.6853 23.9671C44.8636 24.1241 45.0419 24.24 45.2828 24.2664C45.4976 24.29 45.7066 24.3403 45.8898 24.478C45.9954 24.5574 46.1216 24.6188 46.2634 24.6185C46.3699 24.5875 46.4843 24.6332 46.588 24.5841C46.7402 24.5614 46.8844 24.5108 47.0429 24.5105C47.2218 24.5102 47.366 24.555 47.4755 24.6988C47.5571 24.7687 47.5747 24.8865 47.6623 24.9521C47.7548 25.0969 47.7761 25.2741 47.9063 25.4088C47.9991 25.5039 47.9876 25.6827 47.9276 25.7946ZM37.756 16.0362C37.7046 16.0337 37.6748 15.9757 37.6745 15.9166V15.6007H37.6809C37.6809 15.5271 37.6772 15.4535 37.6818 15.3802C37.6927 15.1952 37.7195 15.1863 37.8844 15.24C38.0648 15.2989 38.1312 15.4547 38.2008 15.5982C38.255 15.7092 38.2842 15.8613 38.1695 15.9494C38.0554 16.0374 37.8993 16.0426 37.756 16.0362ZM37.0897 19.3539C37.0325 19.5787 36.9352 19.7848 36.8244 19.9857L36.7627 20.0534C36.4569 20.0752 36.5244 20.3301 36.477 20.5122L36.4709 20.5911C36.4033 20.8103 36.2603 20.9655 36.0744 21.0925C35.8873 21.2201 35.709 21.3618 35.528 21.4985C35.4136 21.5847 35.3954 21.7295 35.3254 21.8426C35.2947 21.8764 35.2928 21.9184 35.2901 21.9604C35.2366 22.2196 35.2627 22.4603 35.4562 22.659C35.5219 22.7268 35.5204 22.8096 35.5204 22.894C35.5204 23.0203 35.5265 23.1467 35.5201 23.2724C35.5095 23.4684 35.5627 23.6199 35.6947 23.7833C35.8879 24.0235 36.023 24.3118 36.173 24.585C36.2241 24.6783 36.1971 24.7917 36.2007 24.8963C36.135 25.0003 36.0541 25.0886 35.943 25.1441C35.8171 25.2156 35.6634 25.2413 35.5734 25.372C35.5441 25.5088 35.5009 25.6465 35.5913 25.778C35.6683 25.8483 35.6397 25.9547 35.678 26.0409C35.7233 26.1433 35.6874 26.2236 35.5518 26.2212C35.4188 26.219 35.3224 26.3138 35.2107 26.3659C35.0887 26.4233 34.9506 26.4555 34.8626 26.3494C34.74 26.2016 34.5906 26.2197 34.4367 26.2169C34.3743 26.2157 34.3119 26.2166 34.2496 26.2169C33.8483 26.22 33.8458 26.219 33.6961 26.6202C33.6304 26.7962 33.4823 26.6938 33.3758 26.7288C33.3277 26.788 33.234 26.7275 33.1908 26.7999L33.1935 26.7984C33.1534 26.8251 33.1004 26.818 33.0618 26.8481C33.025 26.8539 32.9882 26.8594 32.9517 26.8652L32.8929 26.883L32.8446 26.8478L32.8117 26.7962L32.8074 26.7926C32.5741 26.8263 32.3331 26.8192 32.1174 26.9404C32.0645 26.9698 31.9808 26.9756 31.951 26.918C31.9257 26.8695 31.9376 26.7938 31.9519 26.7349C31.9723 26.6499 32.0453 26.6708 32.1037 26.6846C32.3614 26.7469 32.6164 26.7358 32.8698 26.6634L32.8716 26.6622L32.9313 26.6027L32.9352 26.5975C33.011 26.481 33.0235 26.3442 33.0545 26.2138C33.0472 25.9808 33.105 25.774 33.2684 25.5989C33.3146 25.5496 33.328 25.4698 33.3566 25.4039C33.3526 25.3757 33.3572 25.3484 33.3718 25.3229C33.3758 25.2496 33.3788 25.176 33.3825 25.1024C33.3901 25.0711 33.4147 25.0478 33.4196 25.0156C33.4241 24.6295 33.4269 24.2437 33.4336 23.8579C33.4375 23.6315 33.4403 23.6266 33.656 23.623C33.7816 23.6211 33.9046 23.623 34.0123 23.5444C34.0609 23.5294 34.113 23.5224 34.1568 23.4935C34.4066 23.2549 34.5316 22.9648 34.5121 22.6155C34.5493 22.5704 34.5353 22.5192 34.5307 22.4689C34.7577 22.0061 35.0567 21.578 35.1961 21.0735C35.2171 20.9977 35.2615 20.9474 35.312 20.8944C35.3558 20.8484 35.3896 20.7932 35.3345 20.7297C35.3476 20.7021 35.3613 20.6745 35.3753 20.6469C35.4191 20.4481 35.3111 20.1902 35.5904 20.0823C35.7955 20.0464 35.9345 19.9071 36.0751 19.7691L36.1447 19.6965L36.2089 19.6311L36.2062 19.6354L36.278 19.5664C36.3586 19.3895 36.4922 19.2619 36.6565 19.1662C36.7757 19.0969 36.895 19.107 37.0134 19.1751C37.0864 19.2171 37.1122 19.2643 37.0897 19.3539ZM31.5838 22.8667C31.2719 22.9482 31.1094 23.1464 31.1176 23.4773C31.1222 23.6622 31.0918 23.8306 31.009 23.9925C31.0328 24.0857 30.9941 24.1547 30.9241 24.2112C30.859 24.2302 30.7933 24.229 30.7285 24.2106C30.514 24.2495 30.4617 24.3756 30.4632 24.5924C30.4666 25.0362 30.6725 25.3769 30.9217 25.713C31.0653 25.9071 31.2007 26.1016 31.4049 26.2387C31.4833 26.2917 31.4709 26.3672 31.3963 26.4193C31.3111 26.4791 31.2202 26.5313 31.1134 26.5457L31.0446 26.5527C30.7291 26.6487 30.4209 26.6205 30.1185 26.4978C30.0084 26.5251 29.8903 26.4764 29.7835 26.5349C29.6557 26.5328 29.5827 26.6328 29.486 26.6904C29.367 26.7613 29.2979 26.7143 29.2794 26.5742C29.2465 26.3273 29.412 26.1399 29.468 25.9194C29.4835 25.8599 29.5468 25.802 29.5398 25.7495C29.5033 25.4628 29.6922 25.2861 29.8377 25.0868L29.8486 25.0132C29.8672 24.9015 29.8854 24.7902 29.9037 24.6783C29.9177 24.5933 29.9478 24.5028 30.0169 24.4636C30.2286 24.3427 30.326 24.1455 30.4215 23.9358C30.5323 23.692 30.7869 23.5355 30.8417 23.2543C30.863 23.1454 30.7891 23.0222 30.8898 22.9252L30.9321 22.8789C31.3154 22.6679 31.4538 22.2815 31.6041 21.9092C31.6875 21.704 31.8165 21.5899 32.0289 21.5743C32.0821 21.6301 32.0669 21.7028 32.0404 21.7279C31.8107 21.9463 31.8588 22.2272 31.8594 22.4971C31.8594 22.794 31.8612 22.794 31.5838 22.8667ZM28.9687 16.0181L28.9876 15.9681C28.9949 15.9343 29.0192 15.9135 29.0442 15.8932C29.1705 15.6277 29.4166 15.5062 29.6557 15.3768C29.7771 15.1793 30.015 15.1443 30.1736 14.9974C30.2484 14.9284 30.3382 14.875 30.4212 14.8149C30.4991 14.7723 30.5554 14.772 30.5536 14.8842C30.5219 15.129 30.3625 15.2348 30.1392 15.2722C29.97 15.3001 29.817 15.3556 29.7367 15.5268C29.7315 15.6712 29.7555 15.8203 29.5194 15.7994C29.3694 15.7865 29.2897 15.953 29.1705 16.027C29.1032 16.0248 29.0299 16.1717 28.9687 16.0181ZM33.6898 15.8598C33.7041 15.8144 33.7342 15.7835 33.7762 15.7629C33.9471 15.5105 34.2334 15.4485 34.4845 15.3305C34.5785 15.2866 34.6834 15.2667 34.7677 15.2004C34.7951 15.1541 34.8572 15.1704 34.8888 15.1324L34.936 15.1247C34.9913 15.1655 34.9837 15.2136 34.9518 15.2645C34.9694 15.4955 34.8541 15.6148 34.6354 15.6476L34.5684 15.6559C34.3913 15.7178 34.1826 15.7454 34.1848 16.007C34.1632 16.0398 34.1744 16.072 34.1887 16.1036C34.1644 16.1622 34.2143 16.2438 34.134 16.2852L34.064 16.2772C34.004 16.2625 33.9444 16.2475 33.8848 16.2327L33.8136 16.2291C33.5306 16.1548 33.5261 16.141 33.6898 15.8598ZM35.4869 14.6555C35.5444 14.6309 35.6126 14.6208 35.6379 14.6987C35.6604 14.7689 35.6613 14.8471 35.5712 14.8747C35.4933 14.8987 35.4115 14.9008 35.3056 14.8665C35.3418 14.7594 35.4005 14.6926 35.4869 14.6555ZM36.0775 13.7382L36.145 13.6738L36.2095 13.6103L36.2056 13.614L36.2704 13.5462L36.2689 13.5508C36.2932 13.5207 36.3221 13.4965 36.3583 13.4818C36.4639 13.4784 36.4773 13.5732 36.4812 13.6333C36.4937 13.8384 36.5619 14.0396 36.529 14.2482L36.5247 14.2537C36.3084 14.2693 36.1657 14.1132 36.0145 14.0038C35.9117 13.9292 36.041 13.8259 36.0775 13.7382ZM28.0128 28.2637C27.8047 28.218 27.578 28.2107 27.4432 27.9957C27.3845 27.9018 27.2817 27.865 27.1725 27.8558C27.0797 27.7838 27.0003 27.7031 26.9927 27.5752C27.0386 27.5332 27.122 27.4927 27.1244 27.4482C27.1363 27.2164 27.2878 27.2176 27.4515 27.2247C27.5941 27.2311 27.7517 27.1965 27.8053 27.3976C27.8175 27.4424 27.8655 27.4967 27.909 27.5111C28.2078 27.6114 28.1664 27.8859 28.2103 28.1095C28.2337 28.2303 28.1476 28.2935 28.0128 28.2637ZM26.5938 21.5933C26.5913 21.6556 26.5843 21.7181 26.5874 21.7804C26.5956 21.9472 26.5436 21.9874 26.3583 22.0095C26.0976 22.0405 25.7568 22.03 25.6865 22.4177C25.4909 22.5719 25.4462 22.8878 25.1465 22.9311C25.0811 22.7823 25.1033 22.6311 25.1346 22.4799C25.2271 22.176 25.4382 21.981 25.7166 21.858C25.9701 21.746 26.2199 21.628 26.4614 21.4921C26.4891 21.4375 26.5268 21.4298 26.5752 21.4657C26.6239 21.5022 26.6136 21.547 26.5938 21.5933ZM24.967 27.0391C24.8447 27.2578 24.6436 27.2069 24.4528 27.1915C24.3831 27.1692 24.3071 27.1581 24.245 27.1225C23.9447 26.9505 23.6137 27.0213 23.2976 27.0094C23.1041 27.0023 22.9766 27.1679 22.8674 27.3799C22.7761 27.1437 22.7852 26.9453 22.829 26.7591C22.8981 26.4662 22.9516 26.166 23.0968 25.8958C23.1162 25.8587 23.1305 25.8185 23.1427 25.7783C23.1771 25.6627 23.1071 25.495 23.2373 25.437C23.3435 25.3901 23.4831 25.4189 23.6079 25.4164C23.8397 25.4122 24.0162 25.2763 24.1969 25.157C24.283 25.0996 24.3524 25.0168 24.4835 25.0309C24.3643 25.7014 24.5821 26.2141 25.1875 26.5398C25.2244 26.5589 25.249 26.588 25.2603 26.6285C25.106 26.7242 25.1303 26.9496 24.967 27.0391ZM61.0006 23.2169C61.0499 22.9541 61.149 22.717 61.2644 22.4781C61.4353 22.1239 61.6447 21.7868 61.6337 21.3587C61.6155 20.6223 61.617 20.6049 60.8877 20.6772C60.6601 20.6999 60.484 20.6536 60.3586 20.442C60.1602 20.1068 59.9296 19.7875 60.0437 19.3582C60.0705 19.2576 60.051 19.1475 59.9871 19.0549C59.9056 18.9632 59.7802 18.9233 59.7109 18.8175C59.671 18.7684 59.6312 18.7135 59.5752 18.6887C59.1918 18.5185 59.029 18.2041 58.9715 17.8051C58.9545 17.6889 58.9305 17.5506 58.7908 17.4945C58.7552 17.4708 58.7212 17.4451 58.6877 17.4193C58.6542 17.3917 58.6177 17.3702 58.576 17.3583C58.5149 17.3239 58.4324 17.3788 58.3761 17.3132C58.479 17.247 58.4917 17.1617 58.4504 17.0427C58.3463 16.7446 58.2344 16.4793 57.9639 16.2622C57.7171 16.0641 57.5398 15.7923 57.2179 15.6678C56.8975 15.5442 56.5424 15.4314 56.4353 15.0244C56.4171 14.9551 56.3422 14.9082 56.2695 14.8879C56.0085 14.8152 55.9586 14.6582 56.0356 14.4052C56.1311 14.0927 56.0681 13.9817 55.7672 13.8823C55.5941 13.8253 55.4584 13.7253 55.4067 13.5584C55.2907 13.1837 55.03 13.0763 54.6692 13.0518C54.4504 13.0371 54.1927 13.0043 54.071 12.7657C53.9515 12.5304 53.7506 12.4163 53.5249 12.3185C53.2848 12.2145 53.0119 12.1756 52.8038 12.014C52.617 11.8689 52.425 11.7996 52.1956 11.8202C51.9626 11.8413 51.7983 11.7416 51.6723 11.5444C51.5628 11.3733 51.4247 11.2273 51.1971 11.2279C50.5859 11.2733 50.6181 11.2 50.5661 11.83C50.4039 11.8386 50.4079 11.6969 50.3799 11.5996C50.3419 11.4681 50.3181 11.3344 50.201 11.2451C50.079 11.177 49.9892 11.0648 49.866 10.9985C49.8152 10.9771 49.7565 10.9847 49.7081 10.9541C49.6561 10.9722 49.6044 10.974 49.5526 10.9547C49.2666 11.0458 48.981 11.0292 48.6947 10.9568L48.6682 10.9538C48.6369 10.9768 48.6049 10.9728 48.5733 10.9553C48.5148 10.9709 48.4576 10.9722 48.4026 10.9418L48.3499 10.8777C48.3083 10.7133 48.2112 10.5928 48.0624 10.5143C47.9721 10.495 47.8969 10.4465 47.8172 10.4011C47.6289 10.2944 47.4354 10.2631 47.2574 10.4324C47.2072 10.4618 47.2163 10.5968 47.1065 10.5198C46.732 9.83773 46.0793 9.63103 45.3826 9.50007C45.3151 9.50958 45.2475 9.52338 45.1797 9.50406C45.1273 9.49302 45.0738 9.49363 45.0206 9.49179C44.9664 9.49333 44.915 9.48167 44.8645 9.46388C44.779 9.47339 44.709 9.43076 44.6363 9.39672C44.5557 9.37832 44.4747 9.39549 44.3938 9.39519C44.3348 9.40377 44.2894 9.37188 44.2429 9.34458C43.9122 9.21976 43.5656 9.31023 43.2279 9.2722C43.2015 9.2305 43.1211 9.37096 43.1211 9.24062C42.959 9.16824 42.7977 9.20811 42.6359 9.24583C42.5866 9.26576 42.5364 9.28325 42.4837 9.29398C42.4451 9.30103 42.4068 9.30839 42.3687 9.31882C42.3307 9.3271 42.2924 9.33477 42.2534 9.33017C41.9696 9.17345 41.6824 9.02348 41.3501 9.00109C41.2838 9.00753 41.2175 9.01551 41.1517 8.99649C41.0592 8.98208 40.964 8.98484 40.8724 8.96276C40.8168 8.99864 40.766 8.9508 40.7127 8.95325C40.6014 8.95877 40.4879 8.93945 40.3777 8.97319C39.8438 8.98576 39.3095 9.00293 38.7753 8.96368C38.2629 8.96889 37.7603 9.0517 37.2577 9.14125C37.1968 9.15198 37.1351 9.15198 37.0739 9.15444C36.968 9.1572 36.8625 9.15689 36.7578 9.17652C36.6872 9.19461 36.6154 9.19615 36.5442 9.18449C36.4158 9.17161 36.2956 9.21271 36.177 9.2492C35.9485 9.31851 35.7477 9.46266 35.5037 9.49241C35.2381 9.52522 35.0014 9.61753 34.8292 9.84325C34.7315 9.97145 34.5806 10.0279 34.4397 10.0978C34.262 10.1861 34.0555 10.2002 33.8924 10.3223C33.8723 10.3818 33.841 10.3974 33.7932 10.3484C33.6021 10.3352 33.415 10.3634 33.2294 10.406C32.8096 10.5529 32.4147 10.7587 32.007 10.9344C31.9434 10.9725 31.874 10.9841 31.8019 10.9811C31.7602 10.9817 31.7182 10.9829 31.6769 10.9832C31.2822 10.986 30.9838 11.2681 30.6187 11.3528C30.2542 11.438 30.0017 11.653 29.8654 12.0002C29.8176 12.1213 29.7476 12.1949 29.6207 12.2145C29.5669 12.228 29.5164 12.2495 29.4677 12.2756L29.4023 12.3161L29.3472 12.3636L29.3226 12.3884L29.2751 12.4366L29.252 12.4599L29.2057 12.5062L29.1826 12.5295L29.1397 12.5792L29.1026 12.6344C29.0792 12.673 29.0515 12.7086 29.0211 12.7417L28.997 12.7669L28.9462 12.8166L28.9191 12.8408L28.8601 12.8868L28.8279 12.9086L28.7609 12.953C28.5872 13.1085 28.3828 13.1962 28.1619 13.2695C27.8099 13.3858 27.5269 13.5854 27.5144 14.0126C27.5111 14.1295 27.4496 14.2068 27.3553 14.2644C27.324 14.319 27.2878 14.3233 27.2464 14.2758C26.7459 14.2371 26.5837 14.3448 26.4334 14.81C26.3461 15.0811 26.3184 15.3664 26.2363 15.6393C26.1672 15.8687 26.065 16.069 25.8417 16.1828C25.6947 16.2579 25.6114 16.3882 25.5353 16.5302C25.2724 17.0212 25.0059 17.5107 24.6737 17.96L24.6274 18.0311L24.6037 18.0646L24.5498 18.1232L24.5197 18.1489L24.4561 18.1952C24.3789 18.2495 24.308 18.3087 24.294 18.4114C24.3067 18.4949 24.2778 18.5654 24.2301 18.6301C24.2115 18.6675 24.1927 18.7077 24.1936 18.7494C24.199 19.0095 24.1601 19.2401 23.9219 19.4088C23.7944 19.4993 23.7798 19.6738 23.8172 19.8173C23.8902 20.0982 23.7612 20.2577 23.5355 20.3739C23.3015 20.4945 23.1801 20.687 23.1497 20.9477C23.1247 21.1627 23.0329 21.3369 22.8734 21.4949C22.7125 21.654 22.5439 21.8071 22.4225 22.0129C22.1642 22.4496 21.964 22.9044 21.8536 23.3997C21.8448 23.4619 21.8226 23.5196 21.7991 23.5766C21.7441 23.7901 21.7292 24.0121 21.6762 24.2244C21.535 24.7899 21.4897 25.3683 21.2843 25.9317C21.1009 26.4368 21.1982 27.0299 21.2591 27.5844C21.3123 27.6298 21.3032 27.6807 21.2728 27.7332C21.2862 27.8902 21.2585 28.0481 21.2792 28.2048C21.337 28.6452 21.5624 28.8651 21.9923 28.9007C22.5166 28.9446 22.6614 28.8483 22.8184 28.3505C22.8232 28.2306 22.8001 28.1055 22.8807 28.0009C22.8211 28.0779 22.8269 28.1699 22.829 28.2607C22.9538 28.7474 23.0472 28.825 23.5425 28.8378C23.7938 28.8443 24.0454 28.8406 24.2964 28.84C24.9198 28.8388 25.4644 29.059 25.9476 29.4423C26.1657 29.6153 26.3464 29.8152 26.3218 30.1302C26.3117 30.2602 26.3619 30.3811 26.4392 30.4844C26.6422 30.7552 26.7958 31.0546 26.9516 31.3536C27.0587 31.5591 27.1801 31.7581 27.3745 31.8964C27.4305 31.9335 27.4898 31.9633 27.5543 31.982C27.7825 32.016 28.0323 32.074 28.2191 31.9157C28.447 31.7225 28.6511 31.7612 28.8784 31.8786C29.1294 32.0077 29.3895 32.0556 29.6643 31.9636C29.7087 31.9363 29.7351 31.8949 29.7549 31.848C29.7841 31.6609 29.705 31.4579 29.8383 31.2864C30.1781 30.7687 30.4723 30.2271 30.7425 29.6686C30.9065 29.3304 31.1301 29.0218 31.2241 28.6486C31.2482 28.5542 31.3276 28.4925 31.3997 28.4309C31.4359 28.403 31.4739 28.3772 31.5147 28.356C31.9157 28.3134 32.3185 28.3432 32.7207 28.3386C32.8512 28.3367 32.9644 28.3778 33.049 28.483C33.1476 28.6045 33.2802 28.6379 33.4293 28.6514C33.6642 28.6722 33.8985 28.6498 34.1337 28.6618C34.186 28.6287 34.235 28.6259 34.2797 28.6741C34.3673 28.7096 34.4622 28.7066 34.5529 28.7247C34.5988 28.7391 34.6454 28.7529 34.6923 28.7639C35.2262 28.9206 35.7666 28.9627 36.3157 28.8562C36.358 28.8265 36.3808 28.7832 36.3942 28.7342C36.4073 28.6759 36.4103 28.6164 36.4213 28.5575C36.4496 28.456 36.519 28.4744 36.5886 28.5008C36.7024 28.544 36.8165 28.583 36.9394 28.5848C37.1341 28.5879 37.3319 28.5995 37.481 28.4339C37.5479 28.3609 37.5829 28.272 37.6054 28.1769C37.617 28.1328 37.6289 28.0886 37.6392 28.0438C37.6687 27.8801 37.7104 27.7187 37.5948 27.5642C37.4405 27.3584 37.5123 27.1701 37.6641 27.0008C37.7402 26.9158 37.8251 26.8386 37.8768 26.7337L37.9282 26.6653C38.2361 26.3429 38.6539 26.2801 39.0573 26.1822C39.102 26.1792 39.1471 26.1792 39.1921 26.1776C39.3031 26.1764 39.4142 26.177 39.5234 26.1522C39.5867 26.1362 39.6497 26.1188 39.7154 26.1194C39.8185 26.1163 39.9223 26.1197 40.0254 26.12C40.4456 26.128 40.8664 26.1047 41.2868 26.1323C41.5768 26.3932 41.9166 26.4616 42.2985 26.4399C42.7046 26.4166 43.1144 26.4552 43.52 26.4279C43.8349 26.407 44.0914 26.4978 44.3232 26.6978C44.5347 26.9217 44.8234 26.8502 45.0814 26.8977C45.1845 26.9563 45.2183 27.0649 45.2688 27.1612L45.3126 27.2311C45.389 27.328 45.4349 27.4464 45.5238 27.5347C45.553 27.5648 45.5822 27.5955 45.612 27.6249C45.9214 27.7847 46.0711 28.0463 46.093 28.3895C46.107 28.4339 46.121 28.4793 46.1381 28.5229C46.254 28.8569 46.5013 29.0298 46.8378 29.0513C47.0952 29.0672 47.3511 29.1093 47.6103 29.0967C47.8628 29.1025 48.116 29.0807 48.3682 29.1129C48.6332 29.1111 48.817 28.9949 48.8973 28.7323C49.05 28.5971 49.1069 28.4269 49.0777 28.2257C49.0582 28.0923 49.0397 27.9589 49.0208 27.8252C48.9886 27.7718 48.935 27.7353 48.907 27.6786L48.9009 27.6203C48.9031 27.5746 48.8991 27.5301 48.8818 27.4863C48.8723 27.4599 48.8623 27.4341 48.8602 27.4047L48.8714 27.386L48.8903 27.3933C48.904 27.4384 48.9101 27.4884 48.932 27.5341C48.9533 27.5734 48.9977 27.5859 49.0242 27.6188L49.0555 27.6129C49.1255 27.6651 49.1961 27.6626 49.2669 27.6142C49.3363 27.5332 49.406 27.4522 49.4754 27.3713C49.6065 27.2188 49.7677 27.1633 49.9628 27.2201C50.2643 27.2201 50.2646 27.2201 50.2752 26.948C50.2767 26.9063 50.2761 26.8646 50.2758 26.8229C50.2749 26.6889 50.3473 26.6892 50.435 26.7416C50.4776 26.7674 50.5083 26.8125 50.5445 26.849L50.6026 26.9235L50.5996 26.9195L50.6631 26.9839L50.7283 27.0508L50.7249 27.0462C50.7535 27.0673 50.7751 27.0949 50.7967 27.1228C50.8223 27.1394 50.8466 27.1603 50.8743 27.1719C51.2379 27.3246 51.6206 27.347 52.0046 27.3142C52.2203 27.2958 52.3392 27.3728 52.3907 27.5777C52.398 27.6071 52.4211 27.6326 52.4372 27.6592C52.4902 27.7654 52.5906 27.8098 52.6928 27.8209C53.0369 27.8577 53.3649 27.9619 53.6886 28.0708C53.9533 28.1598 54.2058 28.0628 54.4641 28.0714C55.0723 28.092 55.7003 28.2048 56.2729 27.869C56.3115 27.8242 56.3538 27.7973 56.4107 27.838C56.8881 27.8055 57.3572 27.7601 57.5446 27.2017C57.562 27.1505 57.6049 27.1179 57.6526 27.0934C57.7053 27.0741 57.76 27.0673 57.8157 27.0643C58.0448 27.056 58.3074 27.0744 58.4708 26.9186C58.6357 26.7613 58.7221 26.8082 58.845 26.9241C58.9801 26.9827 59.1167 27.0232 59.2621 26.9575C59.3677 26.8754 59.3604 26.7567 59.3585 26.6429C59.3582 26.6134 59.3205 26.6012 59.2871 26.5987C59.2761 26.5978 59.2463 26.6294 59.2518 26.5911C59.2697 26.4586 59.2718 26.4589 59.1644 26.4451L59.1368 26.4583C59.1401 26.5003 59.1094 26.4334 59.1511 26.4371C59.3792 26.4371 59.3792 26.4371 59.4961 26.2335C59.5624 26.1191 59.5855 26.0976 59.699 26.1574C59.7255 26.1553 59.7532 26.1556 59.7824 26.1589C59.7757 26.2003 59.7973 26.1476 59.7878 26.189L59.783 26.2052L59.7881 26.2083L59.7608 26.2411L59.783 26.2052C59.7501 26.1856 59.7227 26.1697 59.699 26.1574C59.5055 26.1727 59.3865 26.3368 59.3771 26.6171C59.375 26.6754 59.3424 26.7561 59.4164 26.7867C59.507 26.8244 59.5381 26.7334 59.5834 26.6803L59.5913 26.6729L59.5965 26.6656L59.6138 26.6548L59.5913 26.6729C59.5499 26.7327 59.5034 26.7901 59.4836 26.8625C59.5508 27.1459 59.7623 27.2909 60.0093 27.3762C60.1864 27.4375 60.3355 27.3955 60.4447 27.1952C60.5345 27.0315 60.5765 26.8447 60.6921 26.6953C60.7052 26.668 60.7152 26.6398 60.7219 26.6101C60.7444 26.5159 60.7237 26.412 60.7864 26.3273C60.8418 26.2405 60.9577 26.2298 61.014 26.1433C61.1034 25.9209 61.1557 25.6928 61.1214 25.4502C61.122 25.3962 61.1293 25.3435 61.1588 25.2968C61.24 25.1947 61.3812 25.191 61.4706 25.1033L61.5336 25.0386L61.561 25.0006C61.5783 24.9727 61.592 24.9432 61.6009 24.9116C61.6556 24.6878 61.5972 24.5105 61.4317 24.3406C61.1323 24.0333 60.912 23.6861 61.0006 23.2169Z" fill="white"/>
<path fill-rule="evenodd" clip-rule="evenodd" d="M36.1451 13.6735L36.1448 13.6738L36.1421 13.6767L36.1451 13.6735Z" fill="white"/>
<path fill-rule="evenodd" clip-rule="evenodd" d="M38.5855 18.5979C38.4613 18.5803 38.3404 18.5568 38.2788 18.4266C38.4165 18.4206 38.5396 18.4396 38.5855 18.5979Z" fill="white"/>
<path fill-rule="evenodd" clip-rule="evenodd" d="M49.6602 25.4795C49.6881 25.4277 49.7191 25.3519 49.7859 25.3911C49.8378 25.4217 49.8366 25.5217 49.7945 25.5538C49.7329 25.6004 49.7161 25.4892 49.6602 25.4791V25.4795Z" fill="white"/>
<path fill-rule="evenodd" clip-rule="evenodd" d="M37.826 18.1088C37.7891 18.1457 37.7522 18.1826 37.7148 18.2196C37.7268 18.1573 37.7634 18.12 37.826 18.1088Z" fill="white"/>
<path fill-rule="evenodd" clip-rule="evenodd" d="M27.2749 14.3261L27.3562 14.319C27.3324 14.36 27.3051 14.3611 27.2749 14.3261Z" fill="white"/>
<path fill-rule="evenodd" clip-rule="evenodd" d="M43.1342 9.32172L43.0864 9.34597L43.1077 9.29858L43.1342 9.32172Z" fill="white"/>
<path fill-rule="evenodd" clip-rule="evenodd" d="M72.0311 20.883C71.9423 21.1182 71.8017 21.3335 71.8142 21.6055C71.8221 21.7785 71.6898 21.9208 71.6502 22.087L71.6496 22.0926C71.6271 22.1496 71.586 22.1879 71.5328 22.2149L71.5246 22.2183C71.2103 22.4738 70.8415 22.4268 70.481 22.3983C70.3191 22.3857 70.1527 22.3615 70.0045 22.271C69.9075 22.7013 69.6215 22.916 69.1064 22.9709C68.8651 22.9967 68.6181 22.9985 68.3923 23.1095C68.1313 23.0424 67.8988 23.1356 67.6694 23.2423C67.6314 23.2546 67.6022 23.2791 67.5791 23.3107L67.583 23.308L67.5167 23.3748L67.5185 23.3711L67.4495 23.4202C67.3673 23.4276 67.2855 23.4346 67.2033 23.442C67.1565 23.4696 67.1072 23.4628 67.0579 23.4515C66.8817 23.4631 66.7111 23.5196 66.5303 23.5033C66.394 23.491 66.2921 23.5846 66.2115 23.6784C66.1196 23.7848 66.0177 23.8336 65.8823 23.818C65.7627 23.8036 65.6489 23.841 65.5528 23.8974C65.3611 24.0103 65.1585 24.0265 64.947 24.0112C64.7541 23.9974 64.5825 24.0458 64.4088 24.1378C63.8736 24.4215 63.302 24.5595 62.6935 24.5187C62.5696 24.5105 62.4866 24.4908 62.4634 24.3298C62.4178 24.0133 62.2313 23.7361 62.1808 23.4171C62.1717 23.3595 62.1376 23.319 62.0792 23.3156C61.9879 23.3104 61.9198 23.2945 61.9155 23.177C61.9112 23.0516 61.9353 22.9289 62.0451 22.8755C62.269 22.7676 62.4607 22.5967 62.7117 22.5415C62.9432 22.4909 63.1699 22.4127 63.4036 22.3759C63.7428 22.3226 64.0233 22.157 64.2941 21.9625C64.5275 21.865 64.7724 21.9334 65.0109 21.9131C65.1119 21.9395 65.2114 21.9772 65.3139 21.9892C65.46 22.0064 65.5881 21.9914 65.7031 21.8567C65.8853 21.643 65.899 21.6552 66.1351 21.8006C66.2763 21.8877 66.4241 21.888 66.5245 21.7601C66.7053 21.5295 66.9794 21.4743 67.2149 21.3464C67.5109 21.1857 67.8319 21.1461 68.1611 21.1443C68.204 21.1443 68.2426 21.1308 68.2722 21.0971L68.326 21.1066L68.396 21.1084C68.7532 20.9753 69.1453 20.9526 69.4779 20.7392C69.6988 20.5969 69.9516 20.5352 70.2133 20.514C70.3386 20.4506 70.4804 20.522 70.6066 20.4662C70.6745 20.4398 70.7597 20.4312 70.8074 20.3843C71.0384 20.1577 71.3241 20.1936 71.6015 20.2052C71.7512 20.2117 71.8854 20.2696 71.9198 20.446C71.9399 20.4788 71.9876 20.4901 71.9879 20.5374C72.0074 20.6364 71.9898 20.7419 72.0397 20.8358L72.0311 20.883Z" fill="white"/>
<path fill-rule="evenodd" clip-rule="evenodd" d="M61.3931 18.1253C61.3483 18.2498 61.2586 18.293 61.1296 18.3075C60.9124 18.3317 60.7505 18.209 60.5853 18.1118C60.4831 18.0514 60.5111 17.7493 60.6075 17.6153C60.6711 17.5266 60.7821 17.4598 60.7271 17.2929C60.5892 17.4171 60.4298 17.4306 60.2661 17.411C60.1241 17.3938 59.9747 17.3343 59.9448 17.1969C59.8989 16.9847 59.7574 16.9743 59.5992 16.9534C59.5603 16.9482 59.5244 16.92 59.487 16.9025C59.4103 16.8118 59.3504 16.7124 59.3351 16.5912C59.2725 16.2542 59.403 15.9791 59.6065 15.7267C59.7018 15.6086 59.8107 15.5381 59.9564 15.6295C60.2716 15.8273 60.5375 15.7712 60.8372 15.5534C61.0995 15.3633 61.4062 15.2148 61.7664 15.2829C61.9648 15.3203 62.116 15.3789 62.1966 15.5841C62.2611 15.7491 62.3219 15.9141 62.3731 16.0831C62.4096 16.1398 62.363 16.2217 62.4287 16.2698C62.7348 16.287 62.7385 16.287 62.7379 15.9834C62.7372 15.8147 62.7184 15.6448 62.9298 15.5832C63.0521 15.5366 63.1738 15.4853 63.3022 15.5626C63.3588 15.6592 63.3567 15.807 63.5599 15.7015C63.6828 15.6375 63.8006 15.8202 63.9208 15.8911L64.0002 15.9043C64.1642 15.9181 64.333 15.926 64.3467 16.1521L64.4094 16.1996C64.4967 16.2346 64.5874 16.2931 64.6589 16.1806C64.7349 16.0622 64.6148 16.0524 64.5591 16.0006C64.455 15.9037 64.5113 15.6509 64.6586 15.5059C64.7879 15.3786 64.881 15.4501 64.9701 15.5577C65.0173 15.6141 65.0656 15.6693 65.1359 15.6979C65.316 15.8294 65.4244 16.1321 65.344 16.3146C65.3109 16.3907 65.2394 16.4345 65.1508 16.4569C64.9753 16.5008 64.8624 16.6388 64.8092 16.7946C64.7057 17.096 64.5025 17.2242 64.2022 17.2319C64.1699 17.2454 64.1365 17.2485 64.1024 17.2408C63.6628 17.3273 63.2207 17.3325 62.7823 17.2454C62.5209 17.1936 62.5112 17.1862 62.4817 17.4632C62.4722 17.5503 62.4634 17.6303 62.3746 17.6732C62.2687 17.7039 62.1628 17.722 62.0594 17.6628C61.9532 17.5036 61.7846 17.4113 61.6553 17.2758C61.5708 17.1865 61.5151 17.2295 61.4816 17.3356C61.4083 17.5656 61.4323 17.806 61.4004 18.04C61.3925 18.0679 61.39 18.0965 61.3931 18.1253Z" fill="white"/>
<path fill-rule="evenodd" clip-rule="evenodd" d="M63.9322 15.9555C63.8923 16.0051 63.8409 16.018 63.8184 15.9527C63.7925 15.8776 63.7536 15.8208 63.6821 15.8006C63.6212 15.7834 63.5281 15.6472 63.5026 15.8484C63.4947 15.9128 63.3994 15.8411 63.3477 15.8279C63.2087 15.7923 63.3283 15.6926 63.3064 15.6264C63.4229 15.4755 63.5519 15.5856 63.6748 15.6117C63.7554 15.6285 63.8303 15.6681 63.9066 15.7021C64.2882 15.872 64.2872 15.8708 64.5127 15.5325C64.5468 15.4813 64.5881 15.4332 64.6338 15.3906C64.7588 15.4019 64.7956 15.3372 64.7941 15.22C64.7914 14.9805 64.7829 14.7401 64.8322 14.5033L64.8325 14.4233C64.9581 13.8746 64.9818 13.8035 65.6345 13.7936C65.7391 13.7921 65.8438 13.7909 65.9481 13.793C66.1781 13.7976 66.2712 13.8608 66.3354 14.0782C66.5003 14.6343 66.1669 15.1854 65.5913 15.1912C65.3807 15.1937 65.2669 15.3737 65.0786 15.389C65.0333 15.4185 64.9469 15.4243 65.0089 15.5141C65.0765 15.558 65.0941 15.6365 65.1361 15.6979C64.9648 15.7144 64.9119 15.5233 64.7604 15.474C64.6584 15.612 64.5848 15.7583 64.5358 15.9171L64.5985 15.9503C64.719 15.9711 64.8401 15.9898 64.7695 16.1646C64.7001 16.3373 64.6113 16.3686 64.4409 16.2864C64.395 16.264 64.339 16.2606 64.3101 16.2091C64.3381 16.1827 64.3618 16.1508 64.3962 16.1346L64.4193 16.1272C64.3822 16.1468 64.4287 16.1174 64.3898 16.1361C64.3578 16.1554 64.3353 16.1839 64.3092 16.2085L64.2486 16.1974C64.1665 16.137 64.36 16.0453 64.2316 15.9956C64.1686 15.9711 64.091 16.0208 64.0226 15.9733C63.9994 15.9573 63.9629 15.9607 63.9322 15.9555Z" fill="white"/>
<path fill-rule="evenodd" clip-rule="evenodd" d="M63.5611 14.7508C63.8337 14.63 64.1015 14.6747 64.3613 14.7876C64.4623 14.8311 64.5101 14.9225 64.5043 15.0415C64.4973 15.1762 64.5012 15.312 64.5006 15.447C64.5274 15.4951 64.5003 15.5304 64.4735 15.566C64.4449 15.6009 64.4139 15.6334 64.3804 15.6632C64.2037 15.7938 64.0342 15.8168 63.8982 15.6098C63.8176 15.4875 63.7321 15.4939 63.6052 15.5384C63.4707 15.585 63.2821 15.612 63.2127 15.4651C63.1346 15.2988 63.1513 15.0946 63.2124 14.9118C63.2362 14.8416 63.3122 14.8364 63.3725 14.871C63.5152 14.9526 63.5127 14.814 63.5611 14.7508Z" fill="white"/>
<path fill-rule="evenodd" clip-rule="evenodd" d="M62.4446 16.3102C62.3181 16.2655 62.3673 16.1681 62.3763 16.083C62.4729 16.1367 62.4405 16.2289 62.4446 16.3102Z" fill="white"/>
<path fill-rule="evenodd" clip-rule="evenodd" d="M25.9602 9.99812C26.1553 10.2496 26.4841 10.2935 26.7135 10.4919C26.7318 10.5244 26.7558 10.5526 26.7768 10.583C26.8383 10.6222 26.9028 10.6572 26.96 10.702C27.1188 10.8271 27.2323 10.9814 27.2265 11.1957C27.2183 11.4877 27.2773 11.7864 27.1611 12.0683C27.075 12.2774 27.0056 12.4976 26.8377 12.6623C26.8 12.8037 26.7047 12.8991 26.59 12.9797C26.4832 13.1469 26.3764 13.3143 26.2693 13.4815L26.27 13.4812C26.1759 13.675 26.0199 13.7063 25.8175 13.6986C25.618 13.6912 25.4673 13.6615 25.3411 13.4802C25.2477 13.3459 25.1397 13.2196 25.073 13.0699C24.9526 12.8018 24.6973 12.6635 24.5151 12.4553C24.4332 12.3967 24.4405 12.2866 24.3784 12.2164C24.2306 12.0259 24.1746 11.8097 24.1816 11.569C24.1895 11.2746 24.1956 10.9792 24.1795 10.6854C24.1554 10.2416 24.3267 9.88894 24.6778 9.64697C24.9218 9.47921 25.2252 9.60403 25.4996 9.57214C25.6304 9.5568 25.718 9.62059 25.7813 9.72885C25.8592 9.80645 25.9015 9.90796 25.9602 9.99812Z" fill="white"/>
<path fill-rule="evenodd" clip-rule="evenodd" d="M59.4639 11.9777C59.3958 12.1829 59.2701 12.343 59.0961 12.4684C59.0377 12.5101 58.9662 12.5586 58.9433 12.6199C58.8527 12.8641 58.6482 12.9413 58.4304 12.9656C58.2542 12.9855 58.1986 13.0711 58.1891 13.225C58.1821 13.2529 58.1687 13.2781 58.1499 13.3002C58.1477 13.4566 58.107 13.5924 57.9509 13.6621C57.8462 13.709 57.7355 13.7019 57.6561 13.6253C57.409 13.3879 57.0953 13.267 56.8017 13.1106C56.6256 13.0168 56.4549 12.9168 56.3934 12.7052C56.3344 12.627 56.3472 12.547 56.3861 12.4654L56.3831 12.4681C56.416 12.4451 56.4403 12.416 56.4485 12.3755C56.5136 12.3255 56.6101 12.3298 56.6578 12.2513C56.4713 11.9167 56.5206 11.3613 56.7479 11.0568C56.8796 10.8807 57.0053 10.7059 57.1869 10.574C57.3123 10.4833 57.3296 10.3112 57.4486 10.1947C57.6609 9.98705 57.8268 9.73096 58.012 9.49543C58.0428 9.47089 58.0702 9.44329 58.0872 9.40741C58.3184 9.18261 58.4687 8.88144 58.7489 8.70173C58.8098 8.66216 58.8326 8.59224 58.8496 8.51434C58.9166 8.21348 59.0431 7.94053 59.2622 7.71788C59.3288 7.65378 59.3793 7.57067 59.4694 7.53295C59.641 7.39923 59.8296 7.49154 60.0176 7.48572C60.1028 7.19283 60.2866 6.95607 60.4765 6.71287C60.8431 6.24364 61.3627 5.9621 61.7811 5.56157C62.0123 5.34045 62.2566 5.21011 62.566 5.15153C62.7343 5.11964 62.8873 5.00647 63.047 4.9301C63.0781 4.90342 63.1055 4.87398 63.1155 4.83227C63.2621 4.62925 63.4703 4.48633 63.6193 4.2787C63.7395 4.11064 63.8603 3.93246 63.9428 3.75672C64.0973 3.4255 64.3492 3.15194 64.4627 2.79833C64.5296 2.59071 64.6501 2.52998 64.8518 2.58212C65.2565 2.6867 65.6085 2.898 65.7923 3.28105C65.9818 3.67576 65.9596 4.10665 65.7643 4.49676C65.6408 4.74333 65.4463 4.95403 65.2839 5.18097C65.2349 5.19477 65.2029 5.22636 65.1883 5.27543C65.1308 5.30763 65.0733 5.33953 65.0158 5.37142C64.9851 5.38829 64.9586 5.41037 64.9386 5.43951L64.9422 5.43552L64.875 5.50207L64.8792 5.49993L64.8047 5.56004C64.5868 5.79772 64.4082 6.06883 64.1521 6.27615C64.006 6.39453 63.9853 6.60859 63.9227 6.78525C63.7985 7.13579 63.7416 7.18302 63.3832 7.1867C63.1873 7.18854 62.985 7.19345 62.8109 7.08427C62.7032 7.01618 62.6387 7.0539 62.6439 7.15542C62.6494 7.26582 62.5785 7.35476 62.5928 7.46118C62.5806 7.49706 62.5825 7.53908 62.5481 7.56515C62.5061 7.65225 62.5006 7.72647 62.5389 7.82921C62.5834 7.94697 62.5925 8.08099 62.4395 8.18312C61.9207 8.52906 61.4361 8.91549 61.1376 9.48745L61.0722 9.5537C61.0244 9.56627 60.9928 9.59663 60.9779 9.64417C60.7311 10.1343 60.4226 10.5869 60.1235 11.0445C59.9367 11.3303 59.7782 11.6364 59.5528 11.8959C59.5153 11.9143 59.4864 11.9428 59.4639 11.9777Z" fill="white"/>
<path fill-rule="evenodd" clip-rule="evenodd" d="M31.2185 4.67772C31.4183 4.83904 31.5285 5.07365 31.6666 5.27975C31.9499 5.70267 32.2076 6.14399 32.447 6.59635C32.6311 6.94474 32.8806 7.25511 33.1109 7.5756C33.2785 7.80868 33.5085 7.96417 33.6975 8.16719C33.7337 8.31931 33.7361 8.47143 33.6947 8.62293C33.6604 8.70052 33.6266 8.77811 33.5928 8.8554C33.5545 8.86828 33.5265 8.89527 33.4982 8.92195C33.3153 9.10228 33.0856 9.19613 32.8501 9.27709C32.803 9.29334 32.7376 9.30622 32.6977 9.28598C32.311 9.09338 31.8991 9.20901 31.5002 9.17772C31.4585 9.17466 31.4168 9.16975 31.3754 9.16576C31.345 9.15411 31.3228 9.13049 31.2973 9.11148L31.3003 9.11577L31.234 9.0483L31.2382 9.05168L31.1719 8.9839L31.1737 8.98911L31.119 8.9198C30.6894 8.2638 30.2281 7.62589 29.842 6.94505C29.6148 6.54391 29.3975 6.12927 29.2399 5.68304C29.0616 5.17793 28.8335 4.68386 28.5259 4.23824C28.3278 3.95057 28.2058 3.62916 28.0777 3.30837C28.0485 3.23538 28.0506 3.16484 28.0509 3.09185C28.0537 2.71248 28.0588 2.33311 28.0573 1.95405C28.057 1.89915 28.0558 1.84548 28.0829 1.80193C28.2426 1.54769 28.4054 1.29069 28.6418 1.10483C28.7696 1.00424 28.9482 1.08214 29.1018 1.06128C29.2828 1.03675 29.3659 1.13704 29.4763 1.2683C29.9321 1.8099 30.079 2.44628 30.1016 3.12988C30.1034 3.18202 30.1043 3.23661 30.0927 3.28721C30.0152 3.62119 30.0042 3.64113 30.3091 3.79447C30.571 3.92604 30.7423 4.13857 30.9233 4.35018C30.9942 4.48451 31.1123 4.5756 31.2185 4.67772Z" fill="white"/>
<path fill-rule="evenodd" clip-rule="evenodd" d="M48.2244 3.74478C48.2132 4.15819 48.2022 4.5716 48.1912 4.98501C48.1833 5.03654 48.1797 5.08959 48.1535 5.13652C48.1535 5.39444 48.163 5.64746 48.0312 5.89188C47.9451 6.05136 47.9427 6.24825 47.9506 6.43472C47.9183 6.50127 47.9424 6.57794 47.9129 6.6448C47.9068 6.83188 47.901 7.01957 47.8949 7.20695C47.8654 7.27136 47.8763 7.3376 47.8867 7.40354C47.8666 7.67097 47.9463 7.95527 47.772 8.19724C47.6454 8.37236 47.5977 8.62507 47.3324 8.67015C47.2484 8.71339 47.1632 8.70695 47.078 8.67506C46.8729 8.64868 46.6682 8.61832 46.475 8.54073C46.3378 8.48522 46.269 8.39567 46.2705 8.22975C46.2787 7.43942 46.2739 6.64879 46.2733 5.85815C46.273 5.66678 46.321 5.4843 46.3865 5.30888C46.443 5.15737 46.4607 5.00648 46.4598 4.84731C46.4567 4.24621 46.4561 3.64541 46.4607 3.04461C46.4631 2.66432 46.5288 2.30703 46.7616 1.98287C46.8495 1.8605 46.8973 1.71268 47.0348 1.62405C47.1233 1.5667 47.1264 1.46488 47.1264 1.36796C47.127 1.14684 47.1385 0.924802 47.1243 0.704295C47.1145 0.559846 47.1583 0.433185 47.2128 0.312044C47.2657 0.194277 47.361 0.102271 47.5015 0.0985909C47.856 0.0893903 48.2107 0.0832565 48.5655 0.0826432C48.6272 0.0823365 48.6811 0.127113 48.7243 0.175876C48.8356 0.350687 48.836 0.536845 48.7788 0.728523C48.6689 1.22167 48.5594 1.71482 48.4499 2.20798C48.4295 2.25122 48.4319 2.30151 48.4094 2.34445C48.4657 2.47019 48.3811 2.58551 48.3826 2.70726C48.3787 2.73885 48.3522 2.76032 48.3443 2.79037C48.3397 2.8465 48.3355 2.90293 48.3306 2.95936C48.3032 3.00321 48.3069 3.05566 48.2923 3.10319C48.3388 3.28874 48.2469 3.46753 48.2661 3.65155C48.2536 3.68313 48.2278 3.7089 48.2244 3.74478Z" fill="white"/>
<path fill-rule="evenodd" clip-rule="evenodd" d="M52.6095 8.15064C52.7023 7.90836 52.671 7.64921 52.7056 7.39926C52.7066 7.34958 52.7184 7.30143 52.7242 7.25267C52.7151 6.96684 52.8045 6.71198 52.9253 6.45436C53.0948 6.09094 53.2585 5.72506 53.4684 5.38311C53.4991 5.33281 53.56 5.30122 53.6068 5.26074C53.6747 5.2816 53.7425 5.28221 53.8116 5.26749C54.2673 5.44475 54.6346 5.72414 54.9233 6.13326C55.0687 6.33844 55.1956 6.51693 55.1798 6.78098C55.1743 6.87054 55.1022 6.93034 55.1159 7.01713C55.1052 7.04657 55.0812 7.06804 55.0736 7.09902C55.0849 7.39865 54.9175 7.64185 54.8235 7.90836C54.7654 7.98656 54.7508 8.08532 54.6997 8.16659L54.7 8.16628C54.616 8.48401 54.4843 8.78855 54.4444 9.11793C54.4846 9.32924 54.4006 9.5249 54.3541 9.72149C54.3139 9.89078 54.1654 9.98861 54.0112 10.0542C53.8876 10.107 53.7565 10.1689 53.6266 10.1742C53.4319 10.1824 53.4088 10.2882 53.4188 10.4391C53.4066 10.4683 53.3838 10.4919 53.3759 10.5232C53.3747 10.575 53.3789 10.6277 53.3707 10.6783C53.3482 10.8216 53.2938 10.9271 53.1176 10.8903C52.9518 10.8556 52.7692 10.9488 52.6132 10.8268C52.0384 10.2861 52.1665 9.6212 52.2885 8.95784C52.3186 8.79192 52.3755 8.63398 52.4212 8.47266L52.4203 8.4745C52.4671 8.44199 52.4586 8.38556 52.4781 8.34109L52.4738 8.34263C52.5243 8.28252 52.5569 8.20922 52.6095 8.15064Z" fill="white"/>
<path fill-rule="evenodd" clip-rule="evenodd" d="M38.5286 3.65335C38.6817 3.47609 38.8813 3.35587 39.0741 3.23534C39.5187 2.95687 40.1104 3.23166 40.2178 3.74812C40.2981 4.13577 40.3134 4.53017 40.3456 4.92303C40.3222 4.96535 40.3179 5.00829 40.3389 5.05276C40.3681 5.59682 40.4001 6.14241 40.3161 6.68371C40.2409 7.17073 40.0237 7.56881 39.5512 7.7795C39.379 7.82949 39.2071 7.83041 39.0349 7.7792C38.8551 7.69271 38.7188 7.57249 38.7124 7.3529C38.6923 7.30721 38.692 7.2563 38.6753 7.20968C38.6534 7.04438 38.6318 6.87877 38.6102 6.71316L38.6077 6.63863C38.4081 6.09917 38.281 5.54928 38.3306 4.96535C38.351 4.72675 38.3354 4.48508 38.3333 4.24434C38.3324 4.12933 38.3278 4.01493 38.3926 3.9125C38.479 3.84779 38.4702 3.73248 38.5286 3.65335Z" fill="white"/>
<path fill-rule="evenodd" clip-rule="evenodd" d="M21.1782 16.5443C21.1648 16.5815 21.1356 16.6321 21.1946 16.6443C21.274 16.6615 21.3601 16.6735 21.4286 16.6041C21.6802 16.6379 21.8941 16.7477 22.0596 16.9418C22.1101 17.0004 22.1624 17.0399 22.2391 17.0439C22.4001 17.2191 22.4947 17.461 22.7411 17.55C22.9581 17.7677 22.9191 18.0373 22.8379 18.2799C22.7499 18.543 22.5914 18.7752 22.4068 18.9941C22.2525 19.1772 22.0718 19.3456 21.9601 19.5649C21.9236 19.5796 21.8944 19.6035 21.8713 19.6354L21.874 19.6308L21.8077 19.698L21.8123 19.6955L21.7417 19.7652C21.6157 19.8605 21.5302 19.9881 21.4414 20.1175C21.2765 20.3564 21.114 20.3779 20.8551 20.2329C20.6923 20.1415 20.5232 20.0614 20.3561 19.9768C20.1142 19.8544 19.9922 19.6373 19.9296 19.3895C19.8921 19.2426 19.8967 19.0831 20.0421 18.9463C19.8766 18.8856 19.7397 18.8448 19.6305 18.7439C19.538 18.6583 19.4111 18.7013 19.2992 18.6961C19.0013 18.6823 18.9876 18.67 18.9888 18.3636C18.9891 18.2799 18.9937 18.1958 18.9961 18.1121L19.0393 18.0416L19.0363 18.0456C19.0676 18.025 19.0905 17.9977 19.1014 17.9612C19.0759 17.8622 19.0062 17.8892 18.9639 17.929C18.7552 18.1275 18.5045 18.1296 18.2446 18.1008C17.8592 17.8652 17.537 17.5555 17.2385 17.2191C17.2047 17.1884 17.1713 17.1577 17.1384 17.1267C17.0456 17.0237 16.9905 16.9191 17.1244 16.8069C17.2285 16.7584 17.3386 16.7649 17.4484 16.7783L17.4776 16.7854C17.5272 16.7713 17.4703 16.7655 17.4725 16.7532C17.2111 16.456 16.811 16.4079 16.5016 16.1978C16.4085 16.1349 16.2856 16.1171 16.2217 16.0083L16.2211 16.0049C15.9889 15.8338 15.7571 15.662 15.525 15.4915C15.4638 15.4464 15.4258 15.3848 15.392 15.3191C15.2697 15.0802 15.061 14.9505 14.8179 14.8738C14.5705 14.7959 14.3223 14.718 14.0694 14.6644C13.6517 14.5757 13.338 14.3338 13.0673 14.0194C13.0387 13.9565 12.9885 13.9108 12.9431 13.8618C12.8452 13.6891 12.6097 13.6087 12.6167 13.3662C12.4858 13.0595 12.5017 12.754 12.6258 12.4501C12.7186 12.2149 12.7475 11.9514 12.9757 11.7794C13.0663 11.7107 13.1503 11.6383 13.2568 11.5975C13.3323 11.5684 13.4223 11.5628 13.4579 11.4702C13.568 11.4595 13.6481 11.3871 13.736 11.3316C13.8696 11.2749 14.0056 11.2927 14.1416 11.3175C14.4117 11.4199 14.6697 11.5414 14.8915 11.7349C15.0327 11.8582 15.2156 11.9082 15.3844 11.9815C15.3984 12.0999 15.5098 12.1146 15.584 12.1569C16.0048 12.3955 16.4173 12.655 16.906 12.7384C17.1278 12.7764 17.2208 12.9892 17.3894 13.0993L17.411 13.122C17.5473 13.2521 17.6997 13.3554 17.8671 13.445C18.0764 13.5569 18.2781 13.687 18.4692 13.8286C18.5745 13.9065 18.6885 13.9939 18.7257 14.1362C18.7561 14.2531 18.8194 14.3209 18.9465 14.3086C19.0369 14.2767 19.127 14.2439 19.2122 14.32C19.3615 14.5702 19.4851 14.8294 19.4848 15.1305C19.5578 15.2296 19.6959 15.1845 19.7768 15.2645C19.9268 15.3023 20.0391 15.4277 20.1961 15.4492L20.2448 15.4832C20.3157 15.758 20.5368 15.7016 20.7173 15.6826C20.9963 15.6537 21.1283 15.8239 21.1353 16.1193C21.1383 16.2622 21.0875 16.4106 21.1782 16.5443Z" fill="white"/>
<path fill-rule="evenodd" clip-rule="evenodd" d="M21.8076 19.7125C21.8173 19.6677 21.8442 19.6404 21.889 19.6307C21.8875 19.6833 21.8599 19.7098 21.8076 19.7125Z" fill="white"/>
<path fill-rule="evenodd" clip-rule="evenodd" d="M21.8711 19.6506C21.8856 19.5947 21.9263 19.5715 21.9797 19.5648C21.9539 19.6062 21.9267 19.6462 21.8711 19.6506Z" fill="white"/>
<path fill-rule="evenodd" clip-rule="evenodd" d="M21.7417 19.7803C21.7544 19.7351 21.7801 19.7038 21.8283 19.6956C21.8227 19.7478 21.7902 19.7724 21.7417 19.7803Z" fill="white"/>
<path fill-rule="evenodd" clip-rule="evenodd" d="M16.5353 26.6542C16.4486 26.5245 16.3017 26.4865 16.1754 26.4187C15.8782 26.2583 15.6886 25.9774 15.4802 25.7333C15.3238 25.5502 15.2246 25.2901 15.1963 25.0276C15.1866 24.9972 15.1641 24.9733 15.1522 24.9439C15.0905 24.5427 15.1154 24.167 15.3205 23.7926C15.4388 23.5767 15.5849 23.3684 15.6585 23.1274C15.8407 22.9495 16.0522 22.8682 16.3093 22.9078C16.4112 22.9237 16.5177 22.9161 16.6217 22.9093C16.7879 22.8983 16.9175 22.9424 17.0343 23.0771C17.1813 23.2464 17.3732 23.3427 17.6118 23.3006C17.6723 23.2902 17.7377 23.3098 17.7986 23.3006C18.2796 23.2267 18.6334 23.4641 18.9672 23.7668C19.1199 23.9051 19.2815 24.0382 19.468 24.1308C19.5599 24.1768 19.646 24.2498 19.642 24.3369C19.6301 24.6019 19.7884 24.6436 19.9907 24.6494C20.1102 24.7252 20.218 24.8132 20.2764 24.9485C20.3278 25.1503 20.1869 25.2668 20.0795 25.3978C20.0302 25.4116 19.9983 25.4428 19.9843 25.4928C19.9405 25.5631 19.8967 25.6333 19.8526 25.7035C19.8361 25.7379 19.8097 25.7667 19.7935 25.8017C19.6977 25.9989 19.5763 26.185 19.5389 26.4071L19.5325 26.4862C19.5246 26.5159 19.5072 26.5466 19.5103 26.5748C19.5428 26.8337 19.4376 27.022 19.2249 27.1578L19.2225 27.1624L19.1716 27.1658L19.171 27.1643C18.8437 27.1453 18.5464 27.0603 18.3401 26.7775L18.3161 26.7588C17.8923 26.7475 17.5527 26.4359 17.1298 26.4224C17.0775 26.4209 17.0109 26.4147 16.9865 26.461C16.898 26.6279 16.7246 26.6046 16.5864 26.6598L16.5612 26.6527L16.5353 26.6542Z" fill="white"/>
<path fill-rule="evenodd" clip-rule="evenodd" d="M21.6821 20.5183L21.7127 20.5358C21.7068 20.5616 21.6952 20.5553 21.6821 20.5187V20.5183Z" fill="white"/>
</svg>
