<svg width="144" height="30" viewBox="0 0 144 30" fill="none" xmlns="http://www.w3.org/2000/svg">
<path d="M7.57777 23.4906L16.5428 0.84906C8.58634 1.55081 3.58657 10.3595 5.00169 17.8302C5.3885 19.8723 5.96856 22.097 7.57777 23.4906ZM22.1459 0.84906L25.1156 8.77359L31.1108 23.4906C38.2738 16.3306 31.4383 1.66865 22.1459 0.84906Z" fill="white"/>
<path d="M15.2818 18.5377L12.0601 26.8868L15.1418 28.5849L19.204 29.2924L23.5464 28.5849L26.4881 26.8868L23.2663 18.5377H15.2818Z" fill="white"/>
<path d="M18.0838 10.7547L15.2822 18.5377H23.2667L20.325 10.7547H18.0838Z" fill="#F3F3F3"/>
<path d="M19.2041 7.64148L18.0835 10.7547H20.3247L19.2041 7.64148Z" fill="white"/>
<path d="M66.4754 22.3585H65.7694L62.9051 16.5306H54.877L52.0732 22.3585H51.3672L58.9112 6.70868L66.4754 22.3585ZM62.6631 15.9396L58.8709 8.17585L55.1594 15.9396H62.6631ZM79.3124 7.66641H75.8228V7.07547H83.4274V7.66641H79.9781V22.3585H79.3124V7.66641ZM110.839 7.07547V22.3585H110.173V8.05358L103.033 22.6438L95.9324 7.87019V22.3585H95.2667V7.07547H96.2148L103.033 21.2581L109.911 7.07547H110.839ZM138.065 22.3585H137.359L134.495 16.5306H126.467L123.663 22.3585H122.957L130.501 6.70868L138.065 22.3585ZM134.253 15.9396L130.461 8.17585L126.749 15.9396H134.253Z" fill="white"/>
</svg>
