<svg width="514" height="106" viewBox="0 0 514 106" fill="none" xmlns="http://www.w3.org/2000/svg">
<path d="M27.0483 83L59.0483 3C30.6483 5.4795 12.8019 36.6034 17.8531 63C19.2338 70.2154 21.3043 78.0761 27.0483 83ZM79.0483 3L89.6486 31L111.048 83C136.616 57.7013 112.217 5.89589 79.0483 3Z" fill="#230b42"/>
<path d="M54.5483 65.5L43.0483 95L54.0483 101L68.5483 103.5L84.0483 101L94.5483 95L83.0483 65.5H54.5483Z" fill="#230b42"/>
<path d="M64.5483 38L54.5483 65.5H83.0483L72.5483 38H64.5483Z" fill="#230b42"/>
<path d="M68.5483 27L64.5483 38H72.5483L68.5483 27Z" fill="#230b42"/>
<path d="M237.28 79H234.76L224.536 58.408H195.88L185.872 79H183.352L210.28 23.704L237.28 79ZM223.672 56.32L210.136 28.888L196.888 56.32H223.672ZM283.101 27.088H270.645V25H297.789V27.088H285.477V79H283.101V27.088ZM395.633 25V79H393.257V28.456L367.769 80.008L342.425 27.808V79H340.049V25H343.433L367.769 75.112L392.321 25H395.633ZM492.816 79H490.296L480.072 58.408H451.416L441.408 79H438.888L465.816 23.704L492.816 79ZM479.208 56.32L465.672 28.888L452.424 56.32H479.208Z" fill="#230b42"/>
</svg>
