<svg width="90" height="60" viewBox="0 0 90 60" fill="none" xmlns="http://www.w3.org/2000/svg">
<path d="M23.0077 24.7808C22.7145 25.134 22.6298 25.3 22.6545 25.4872C22.6969 25.798 23.0289 25.9958 23.3185 26.1582C23.9959 26.5328 24.6927 26.8712 25.406 27.1719C25.406 29.2488 25.406 31.3433 25.406 33.4555C25.4272 36.7661 25.4754 40.0333 25.5508 43.2569H0C0.0132632 40.8305 0.619582 38.4442 1.76598 36.3058C2.35825 35.1646 3.11907 34.1191 4.02302 33.2047C5.72513 31.6768 7.67111 30.4447 9.7802 29.5596C11.0483 29.1322 12.8778 28.4717 15.0429 27.5251C17.8686 26.2924 18.1194 25.9499 18.1229 25.6638C18.1405 24.6253 14.9758 24.4876 10.3524 21.7785C7.72811 20.2421 6.08213 18.748 5.52413 16.6818C5.4305 16.3345 5.36552 15.9801 5.32984 15.6222L25.4448 15.661L25.4696 22.6086C25.1513 22.953 24.8065 23.2719 24.4382 23.5622C23.9168 23.913 23.4369 24.3218 23.0077 24.7808Z" fill="white"/>
<path d="M31.0039 1.1903V0H39.3113V1.1903H35.8357V11.08H34.4936V1.1903H31.0039Z" fill="white"/>
<path d="M42.5469 11.0764V0H43.8855V4.94489H49.791V0H51.1332V11.0764H49.791V6.13163H43.8714V11.0764H42.5469Z" fill="white"/>
<path d="M54.9443 11.0764V0H61.6199V1.1903H56.2865V4.93076H61.2844V6.12105H56.2865V9.88615H61.7153V11.0764H54.9443Z" fill="white"/>
<path d="M40.2369 19.9172H37.5349C37.5012 19.6562 37.4261 19.4022 37.3123 19.1649C37.2038 18.9463 37.0524 18.7518 36.8673 18.5927C36.6756 18.4339 36.4549 18.314 36.2174 18.2395C35.9495 18.1519 35.6692 18.109 35.3874 18.1123C34.8951 18.0987 34.4105 18.2369 33.9993 18.5079C33.5942 18.7904 33.2829 19.1877 33.1057 19.6488C32.6865 20.8301 32.6865 22.1196 33.1057 23.3009C33.2749 23.7573 33.5846 24.1481 33.9903 24.4173C34.3958 24.6864 34.8764 24.8198 35.3627 24.7984C35.6364 24.801 35.909 24.763 36.1715 24.6855C36.4048 24.6147 36.6229 24.5009 36.8143 24.3499C37.0016 24.2047 37.1578 24.0233 37.2735 23.8166C37.3984 23.5975 37.4844 23.3585 37.5278 23.1101L40.2298 23.1278C40.1791 23.6325 40.0354 24.1235 39.806 24.576C39.5619 25.0635 39.233 25.5036 38.8347 25.8758C38.4007 26.2826 37.8905 26.5995 37.3336 26.8082C36.5681 27.082 35.7544 27.1954 34.9432 27.1413C34.132 27.0872 33.3406 26.8669 32.6182 26.4938C31.8191 26.0435 31.1677 25.3712 30.7428 24.5583C30.261 23.5998 30.0255 22.5364 30.0576 21.4642C30.0271 20.3885 30.2701 19.3227 30.7639 18.3666C31.192 17.5542 31.8473 16.8841 32.6501 16.4381C33.467 15.9913 34.3857 15.7637 35.3168 15.7776C35.9481 15.7712 36.5764 15.8653 37.1781 16.0566C37.725 16.2294 38.2343 16.5038 38.6792 16.8655C39.117 17.2251 39.4775 17.6697 39.7389 18.1724C40.0146 18.7169 40.1836 19.3091 40.2369 19.9172Z" fill="white"/>
<path d="M45.5812 15.9048V26.9778H42.9004V15.9048H45.5812Z" fill="white"/>
<path d="M50.9146 15.9048L53.387 24.0286H53.4965L55.9689 15.9048H58.9641L55.2272 26.9778H51.6563L47.9194 15.9048H50.9146Z" fill="white"/>
<path d="M63.9722 15.9048V26.9778H61.2949V15.9048H63.9722Z" fill="white"/>
<path d="M76.8427 19.9171H74.1411C74.1103 19.6554 74.0353 19.4009 73.9185 19.1648C73.8111 18.9465 73.6611 18.7519 73.4764 18.5926C73.2829 18.4346 73.0619 18.3147 72.8235 18.2394C72.5558 18.1519 72.2748 18.109 71.9929 18.1123C71.5011 18.0987 71.0163 18.2368 70.605 18.5079C70.2016 18.7909 69.8913 19.1882 69.7153 19.6487C69.2937 20.8296 69.2937 22.1199 69.7153 23.3008C69.8929 23.756 70.204 24.1464 70.609 24.4206C71.0156 24.6786 71.49 24.8101 71.9724 24.7985C72.2456 24.8013 72.5187 24.7633 72.7808 24.6854C73.0153 24.6139 73.234 24.5001 73.4274 24.3499C73.6137 24.2038 73.77 24.0227 73.8861 23.8165C74.01 23.5973 74.0953 23.3583 74.1372 23.1101L76.8395 23.1278C76.7882 23.6325 76.6445 24.1235 76.4156 24.5759C76.1716 25.0634 75.8424 25.5036 75.4437 25.8757C75.0103 26.2825 74.5003 26.5994 73.9429 26.8082C73.1772 27.082 72.364 27.1954 71.5524 27.1413C70.7416 27.0872 69.9498 26.8668 69.2274 26.4938C68.4284 26.0445 67.7779 25.3718 67.3555 24.5582C66.8708 23.6008 66.634 22.5369 66.6671 21.4642C66.6363 20.3885 66.8795 19.3227 67.3737 18.3666C67.8032 17.5557 68.4584 16.8862 69.2598 16.4381C70.0769 15.9918 70.995 15.7643 71.9258 15.7776C72.5574 15.7709 73.1858 15.8651 73.7874 16.0567C74.3353 16.2298 74.8453 16.5042 75.2922 16.8655C75.7303 17.2249 76.0903 17.6696 76.3516 18.1723C76.6264 18.7167 76.7937 19.3093 76.8427 19.9171Z" fill="white"/>
<path d="M37.4538 35.6629C37.3971 35.4479 37.3053 35.2438 37.1818 35.059C37.0634 34.8857 36.9151 34.7351 36.7438 34.6139C36.5635 34.4875 36.3628 34.3931 36.1504 34.3349C35.9099 34.2692 35.6615 34.2372 35.4122 34.2396C34.92 34.2276 34.4354 34.3629 34.0206 34.6281C33.6138 34.9084 33.2992 35.3029 33.1164 35.7618C32.8871 36.3352 32.7778 36.9494 32.795 37.5667C32.7784 38.1864 32.884 38.8033 33.1058 39.3822C33.2736 39.853 33.5885 40.2573 34.0038 40.5352C34.4192 40.8132 34.913 40.9501 35.4122 40.9256C35.8408 40.9384 36.2668 40.8551 36.6591 40.6819C36.9822 40.5404 37.2536 40.3023 37.4361 40.0003C37.6205 39.6783 37.7122 39.3116 37.701 38.9407L38.199 39.0007H35.5041V37.0475H40.2829V38.5133C40.308 39.4039 40.0894 40.2844 39.6506 41.0599C39.2424 41.7578 38.6414 42.3232 37.9199 42.6881C37.1357 43.0802 36.2676 43.2754 35.391 43.2568C34.4192 43.2775 33.459 43.041 32.6078 42.5716C31.8074 42.1129 31.1572 41.432 30.7358 40.6113C30.2675 39.6726 30.0371 38.6331 30.0647 37.5843C30.0496 36.7597 30.1873 35.9395 30.4709 35.1649C30.7175 34.4933 31.104 33.8818 31.6047 33.3707C32.0811 32.8847 32.6554 32.5054 33.2895 32.258C33.9489 32.0005 34.6513 31.871 35.3593 31.8766C35.9681 31.8732 36.5737 31.9662 37.1535 32.1521C37.6841 32.3269 38.1809 32.5909 38.6229 32.9327C39.0428 33.2609 39.3964 33.6661 39.6648 34.1265C39.9315 34.5953 40.1009 35.113 40.1628 35.6488L37.4538 35.6629Z" fill="white"/>
<path d="M45.0513 43.1192H42.1938L45.9308 32.0427H49.4945L53.2314 43.1192H50.3529L47.7533 34.833H47.665L45.0513 43.1192ZM44.6663 38.7606H50.6707V40.7951H44.6663V38.7606Z" fill="white"/>
<path d="M55.5522 32.0427H58.8653L61.6909 38.9019H61.8216L64.6473 32.0427H67.964V43.1192H65.3287V36.3165H65.2372L62.5775 43.0485H60.9139L58.2542 36.2776H58.1624V43.1192H55.5557L55.5522 32.0427Z" fill="white"/>
<path d="M70.7539 43.1192V32.0427H78.4789V34.2184H73.431V36.4895H78.0826V38.6688H73.431V40.947H78.4789V43.1192H70.7539Z" fill="white"/>
<path d="M87.2834 35.3767C87.2748 35.1964 87.2274 35.0201 87.1445 34.8599C87.0616 34.6996 86.9448 34.559 86.8034 34.4477C86.449 34.2047 86.0234 34.0878 85.5947 34.1157C85.3011 34.1063 85.0074 34.1518 84.7295 34.2499C84.5242 34.3206 84.3442 34.4494 84.2108 34.6208C84.0971 34.7768 84.0355 34.9646 84.034 35.1577C84.0213 35.3103 84.0561 35.4631 84.1326 35.5957C84.214 35.7303 84.3253 35.844 84.4579 35.9276C84.6182 36.034 84.7919 36.1195 84.9734 36.1819C85.1969 36.2588 85.4242 36.3213 85.6555 36.3691L86.6053 36.5846C87.1066 36.6885 87.5945 36.8485 88.0603 37.0614C88.4495 37.2383 88.8071 37.4769 89.1198 37.7678C89.4008 38.0341 89.6227 38.3567 89.7703 38.7144C89.9219 39.0964 90 39.504 89.9992 39.9153C90.0111 40.5563 89.8248 41.1851 89.4663 41.7166C89.089 42.2401 88.5656 42.6406 87.9616 42.8681C87.2053 43.1514 86.4024 43.2869 85.5947 43.2672C84.7682 43.2854 83.9455 43.1438 83.1718 42.8505C82.5205 42.6019 81.96 42.1609 81.5653 41.586C81.1603 40.9443 80.9566 40.1966 80.9787 39.4385H83.5397C83.5476 39.758 83.6487 40.0684 83.8295 40.3321C84.0071 40.5766 84.2526 40.7643 84.5353 40.8725C84.8653 40.9997 85.2166 41.0621 85.5703 41.0562C85.8845 41.064 86.1971 41.0137 86.4924 40.9078C86.7205 40.8299 86.9234 40.6906 87.079 40.5052C87.2148 40.3358 87.2898 40.1254 87.2905 39.9083C87.2905 39.7121 87.2219 39.5222 87.0963 39.3714C86.9353 39.1976 86.7355 39.0645 86.5137 38.9828C86.19 38.8519 85.8553 38.7491 85.5142 38.6756L84.3592 38.4071C83.5263 38.2483 82.7471 37.8841 82.0911 37.3475C81.8155 37.0955 81.5992 36.7856 81.4571 36.4398C81.3158 36.0942 81.2526 35.7214 81.2716 35.3484C81.2558 34.7041 81.4492 34.072 81.8226 33.547C82.2174 33.0134 82.7495 32.597 83.3629 32.3426C84.0734 32.0425 84.8384 31.8944 85.609 31.9082C86.3779 31.8895 87.1405 32.039 87.8448 32.3462C88.4408 32.6055 88.9516 33.028 89.3179 33.5647C89.6732 34.1043 89.8603 34.7375 89.8548 35.3837L87.2834 35.3767Z" fill="white"/>
<path d="M31.1104 59.109V48.0323H32.4525V57.9216H37.6022V59.1121L31.1104 59.109Z" fill="white"/>
<path d="M41.9675 59.109H40.5547L44.62 48.0323H46.0046L50.0699 59.109H48.6572L45.3724 49.7845H45.2876L41.9675 59.109ZM42.4867 54.7818H48.1379V55.9724H42.4867V54.7818Z" fill="white"/>
<path d="M52.9526 59.1089V48.0323H56.8379C57.4977 48.0081 58.1536 48.1452 58.7487 48.4313C59.2186 48.666 59.6082 49.0344 59.8684 49.4907C60.1094 49.9463 60.231 50.4555 60.2216 50.971C60.2366 51.3792 60.1505 51.7842 59.9708 52.1505C59.8148 52.4465 59.5879 52.6992 59.3103 52.8855C59.0387 53.0647 58.7408 53.2005 58.4273 53.2881V53.3939C58.7918 53.4239 59.1428 53.5455 59.4481 53.7468C59.807 53.9821 60.102 54.3026 60.3063 54.6792C60.553 55.1331 60.6749 55.6439 60.6595 56.1595C60.6688 56.6837 60.5383 57.2 60.2816 57.6571C60.0041 58.126 59.5866 58.4971 59.0877 58.7166C58.418 58.9992 57.6948 59.131 56.9685 59.105L52.9526 59.1089ZM54.2948 52.8997H56.7672C57.1455 52.9052 57.5201 52.8247 57.8622 52.6629C58.1783 52.5136 58.4482 52.2823 58.6427 51.9918C58.8372 51.6886 58.9369 51.3342 58.9288 50.9742C58.934 50.7436 58.8915 50.5147 58.8039 50.3015C58.7164 50.0884 58.5858 49.895 58.4202 49.7347C58.0835 49.3936 57.5466 49.2223 56.8096 49.2223H54.2807L54.2948 52.8997ZM54.2948 57.9184H56.9544C57.8303 57.9184 58.4532 57.7487 58.8229 57.41C58.9996 57.2552 59.1406 57.0634 59.2363 56.8487C59.332 56.6339 59.3802 56.4018 59.3774 56.1666C59.3793 55.7994 59.2803 55.4394 59.0913 55.1244C58.893 54.8008 58.6111 54.5355 58.2754 54.3579C57.8875 54.1565 57.4549 54.0571 57.018 54.0689H54.2948V57.9184Z" fill="white"/>
</svg>
