<svg width="113" height="57" viewBox="0 0 113 57" fill="none" xmlns="http://www.w3.org/2000/svg">
<g clip-path="url(#clip0_771_1715)">
<path d="M61.0133 1.42702H58.3551V8.35225H56.7768V1.42702H54.1187V0H60.9717V1.42702H61.0133Z" fill="white"/>
<path d="M68.988 0V8.35225H67.4096V4.7847H63.6716V8.35225H62.0518V0H63.6716V3.35769H67.4096V0H68.988Z" fill="white"/>
<path d="M76.4225 6.92523V8.35225H70.6909V0H76.3396V1.42702H72.3108V3.44163H75.7995V4.74273H72.3108V6.92523H76.4225Z" fill="white"/>
<path d="M54.8252 20.1041V11.7519H57.8157C58.4802 11.7519 59.0617 11.8778 59.6016 12.0877C60.1416 12.2976 60.5153 12.5913 60.8891 12.9691C61.2214 13.3468 61.4706 13.7665 61.6367 14.2702C61.8029 14.7738 61.8859 15.3194 61.8859 15.907C61.8859 16.5366 61.8029 17.1242 61.5952 17.6279C61.3876 18.1315 61.1384 18.5932 60.7645 18.929C60.3907 19.3067 59.9754 19.5586 59.477 19.7684C58.9786 19.9782 58.3971 20.0622 57.8157 20.0622H54.8252V20.1041ZM60.3077 15.907C60.3077 15.4874 60.2661 15.1516 60.1416 14.8158C60.017 14.4801 59.8924 14.1862 59.6846 13.9344C59.477 13.6826 59.2278 13.5147 58.8955 13.3888C58.5632 13.2629 58.231 13.1789 57.8572 13.1789H56.445V18.6772H57.8572C58.2725 18.6772 58.6048 18.5932 58.8955 18.4673C59.1863 18.3414 59.477 18.1315 59.6431 17.8797C59.8508 17.6279 60.017 17.3341 60.1 16.9983C60.2246 16.6625 60.3077 16.2848 60.3077 15.907Z" fill="white"/>
<path d="M65.2082 11.7519H66.6205L69.777 20.1041H68.1157L67.368 18.0056H64.5022L63.7546 20.1041H62.0933L65.2082 11.7519ZM67.0773 16.8724L65.9559 13.5986L64.7514 16.8724H67.0773Z" fill="white"/>
<path d="M76.0491 13.1789H73.3906V20.1041H71.8124V13.1789H69.1543V11.7519H76.0072V13.1789H76.0491Z" fill="white"/>
<path d="M78.6236 11.7519H80.0361L83.1921 20.1041H81.5308L80.7831 18.0056H77.9177L77.17 20.1041H75.5088L78.6236 11.7519ZM80.4514 16.8724L79.3295 13.5986L78.1254 16.8724H80.4514Z" fill="white"/>
<path d="M60.5569 30.4292V31.8562H54.8252V23.504H60.4738V24.931H56.445V26.9456H59.9339V28.2467H56.445V30.4292H60.5569Z" fill="white"/>
<path d="M61.1382 27.6168C61.1382 27.1132 61.2212 26.6095 61.4289 26.1059C61.6366 25.6023 61.8858 25.1825 62.2181 24.7628C62.5503 24.3851 63.0072 24.0493 63.5056 23.7975C64.0041 23.5456 64.5855 23.4197 65.2085 23.4197C65.9561 23.4197 66.6207 23.5876 67.1606 23.9234C67.7005 24.2592 68.1159 24.6789 68.4067 25.2245L67.1606 26.0639C67.036 25.8121 66.9114 25.6442 66.7453 25.4763C66.5791 25.3084 66.413 25.1825 66.2469 25.0986C66.0807 25.0146 65.873 24.9307 65.7069 24.8887C65.5408 24.8468 65.3331 24.8048 65.1255 24.8048C64.7101 24.8048 64.3778 24.8887 64.0871 25.0566C63.7963 25.2245 63.5471 25.4343 63.3395 25.6861C63.1318 25.938 63.0072 26.2318 62.8826 26.5675C62.7995 26.9033 62.7164 27.2391 62.7164 27.5749C62.7164 27.9526 62.758 28.2883 62.8826 28.6241C63.0072 28.9599 63.1734 29.2537 63.381 29.5055C63.5887 29.7573 63.8379 29.9672 64.1286 30.1351C64.4194 30.303 64.7516 30.387 65.1255 30.387C65.2916 30.387 65.4993 30.3449 65.7069 30.303C65.9146 30.261 66.0808 30.1771 66.2884 30.0931C66.4545 30.0092 66.6207 29.8413 66.7868 29.7154C66.9529 29.5475 67.0775 29.3796 67.1606 29.1278L68.4897 29.8832C68.365 30.1771 68.1574 30.4709 67.9082 30.7227C67.659 30.9745 67.4098 31.1424 67.0775 31.3103C66.7868 31.4782 66.4545 31.6041 66.0808 31.688C65.7069 31.772 65.3747 31.8139 65.0424 31.8139C64.4609 31.8139 63.921 31.688 63.4225 31.4362C62.9242 31.1844 62.5088 30.8486 62.1765 30.4709C61.8443 30.0512 61.5535 29.5895 61.3458 29.0858C61.2628 28.6662 61.1382 28.1624 61.1382 27.6168Z" fill="white"/>
<path d="M73.0581 31.8982C72.4351 31.8982 71.8952 31.7723 71.3968 31.5205C70.8984 31.2687 70.4831 30.9748 70.1092 30.5552C69.777 30.1774 69.4862 29.7157 69.2786 29.2121C69.0709 28.7084 68.9878 28.1628 68.9878 27.6592C68.9878 27.1135 69.0709 26.5679 69.2786 26.0643C69.4862 25.5606 69.777 25.0989 70.1092 24.7212C70.4415 24.3435 70.8984 24.0077 71.3968 23.7978C71.8952 23.588 72.4351 23.4621 73.0166 23.4621C73.598 23.4621 74.1381 23.588 74.6363 23.8398C75.1346 24.0917 75.5499 24.4274 75.8823 24.8051C76.2147 25.1829 76.5052 25.6445 76.7129 26.1482C76.9205 26.6518 77.0042 27.1556 77.0042 27.7011C77.0042 28.2467 76.9205 28.7924 76.7129 29.296C76.5052 29.7997 76.2147 30.2614 75.8823 30.6391C75.5088 31.0169 75.0935 31.3527 74.5952 31.5625C74.0963 31.7723 73.6399 31.8982 73.0581 31.8982ZM70.6907 27.6592C70.6907 28.0369 70.7323 28.3726 70.8568 28.7084C70.9814 29.0442 71.106 29.338 71.3137 29.5898C71.5214 29.8416 71.7706 30.0515 72.0613 30.2194C72.352 30.3873 72.6844 30.4712 73.0997 30.4712C73.4733 30.4712 73.8475 30.3873 74.1381 30.2194C74.4287 30.0515 74.6782 29.8416 74.8858 29.5898C75.0935 29.338 75.2593 29.0442 75.3422 28.7084C75.467 28.3726 75.5088 28.0369 75.5088 27.7011C75.5088 27.3234 75.467 26.9876 75.3422 26.6518C75.2182 26.3161 75.0516 26.0223 74.8858 25.7705C74.6782 25.5186 74.4287 25.3088 74.1381 25.1409C73.8475 24.973 73.5151 24.931 73.1412 24.931C72.7674 24.931 72.3936 25.015 72.1029 25.1829C71.8121 25.3508 71.5629 25.5606 71.3552 25.8125C71.1476 26.0643 70.9814 26.3581 70.8984 26.6939C70.7323 26.9876 70.6907 27.3234 70.6907 27.6592Z" fill="white"/>
<path d="M79.9524 26.484V31.8143H78.333V23.504H79.5789L83.8986 28.9603V23.504H85.518V31.8562H84.231L79.9524 26.484Z" fill="white"/>
<path d="M90.7514 31.8982C90.1284 31.8982 89.5891 31.7723 89.0901 31.5205C88.5919 31.2687 88.1766 30.9748 87.8031 30.5552C87.4707 30.1774 87.1801 29.7157 86.9725 29.2121C86.7648 28.7084 86.6812 28.1628 86.6812 27.6592C86.6812 27.1135 86.7648 26.5679 86.9725 26.0643C87.1801 25.5606 87.4707 25.0989 87.8031 24.7212C88.1766 24.3435 88.5919 24.0077 89.0901 23.7978C89.5891 23.588 90.1284 23.4621 90.7103 23.4621C91.2914 23.4621 91.8315 23.588 92.3297 23.8398C92.8286 24.0917 93.244 24.4274 93.5764 24.8051C93.908 25.2249 94.1993 25.6445 94.407 26.1482C94.6146 26.6518 94.6976 27.1556 94.6976 27.7011C94.6976 28.2467 94.6146 28.7924 94.407 29.296C94.1993 29.7997 93.908 30.2614 93.5764 30.6391C93.2021 31.0169 92.7868 31.3527 92.2886 31.5625C91.8733 31.7723 91.3332 31.8982 90.7514 31.8982ZM88.3424 27.6592C88.3424 28.0369 88.3842 28.3726 88.509 28.7084C88.6337 29.0442 88.7584 29.338 88.9661 29.5898C89.1738 29.8416 89.4225 30.0515 89.7131 30.2194C90.0044 30.3873 90.336 30.4712 90.7514 30.4712C91.1256 30.4712 91.4991 30.3873 91.7904 30.2194C92.0809 30.0515 92.3297 29.8416 92.5373 29.5898C92.745 29.338 92.9116 29.0442 92.9945 28.7084C93.1192 28.3726 93.161 28.0369 93.161 27.7011C93.161 27.3234 93.1192 26.9876 92.9945 26.6518C92.8697 26.3161 92.7039 26.0223 92.5373 25.7705C92.3297 25.5186 92.0809 25.3088 91.7904 25.1409C91.4991 24.973 91.1674 24.931 90.7932 24.931C90.4197 24.931 90.0455 25.015 89.7549 25.1829C89.4643 25.3508 89.2148 25.5606 89.0072 25.8125C88.7995 26.0643 88.6337 26.3581 88.5501 26.6939C88.3842 26.9876 88.3424 27.3234 88.3424 27.6592Z" fill="white"/>
<path d="M102.755 31.8562V26.316L100.637 30.4292H99.7649L97.6465 26.316V31.8562H96.0264V23.504H97.7294L100.18 28.2467L102.63 23.504H104.333V31.8562H102.755Z" fill="white"/>
<path d="M106.991 23.504L109.027 27.5332L111.103 23.504H112.848L109.857 28.9182V31.8143H108.279V28.8763L105.247 23.504H106.991Z" fill="white"/>
<path d="M54.8252 43.6079V35.2557H56.445V42.181H60.6399V43.6079H54.8252Z" fill="white"/>
<path d="M64.4608 35.2557H65.8729L69.0295 43.6079H67.3682L66.6205 41.5094H63.7547L63.0071 43.6079H61.3457L64.4608 35.2557ZM66.2883 40.3762L65.1669 37.1024L63.9623 40.3762H66.2883Z" fill="white"/>
<path d="M76.5474 41.4674C76.5474 41.8032 76.4645 42.1389 76.3398 42.3908C76.215 42.6426 76.0074 42.8945 75.7579 43.0623C75.5092 43.2302 75.2178 43.3981 74.9273 43.482C74.6367 43.566 74.2632 43.6079 73.889 43.6079H69.9019V35.2557H74.3461C74.6367 35.2557 74.8862 35.2977 75.1349 35.4236C75.3844 35.5495 75.5502 35.7174 75.7168 35.9273C75.8826 36.1371 76.0074 36.3469 76.0903 36.5988C76.1732 36.8506 76.215 37.1024 76.215 37.3542C76.215 37.774 76.1321 38.1517 75.9245 38.4875C75.7168 38.8232 75.4255 39.1171 75.052 39.2849C75.5091 39.4108 75.8826 39.6627 76.1732 40.0404C76.4227 40.4601 76.5474 40.8798 76.5474 41.4674ZM71.5216 36.6408V38.7393H73.6813C73.9719 38.7393 74.1796 38.6554 74.3872 38.4455C74.5949 38.2776 74.6785 37.9839 74.6785 37.69C74.6785 37.3542 74.5949 37.1024 74.429 36.9345C74.2632 36.7667 74.0556 36.6408 73.7643 36.6408H71.5216ZM74.9273 41.1316C74.9273 40.9638 74.8862 40.8379 74.8444 40.712C74.8025 40.5861 74.7196 40.4601 74.6367 40.3342C74.5538 40.2503 74.4709 40.1663 74.3461 40.0824C74.2214 40.0404 74.0966 39.9984 73.9719 39.9984H71.5216V42.181H73.889C74.0556 42.181 74.1796 42.1389 74.3043 42.097C74.429 42.055 74.5538 41.9711 74.6367 41.8871C74.7196 41.8032 74.8025 41.6773 74.8444 41.5514C74.8862 41.4255 74.9273 41.2996 74.9273 41.1316Z" fill="white"/>
<path d="M23.4701 50.9403C17.2983 50.9403 11.4743 48.5247 7.08447 44.0887L8.69262 42.4637C12.6478 46.4604 17.8633 48.6564 23.4701 48.6564C29.0333 48.6564 34.2923 46.4604 38.2475 42.4637L39.8556 44.0887C35.5093 48.4808 29.6853 50.9403 23.4701 50.9403Z" fill="white"/>
<path d="M46.1576 33.0647L43.941 32.4498C45.3753 27.0037 44.6364 21.2941 41.8548 16.4189C39.0732 11.5876 34.553 8.07393 29.1636 6.62459L29.7721 4.38464C35.77 6.0097 40.7682 9.87469 43.8541 15.2769C46.9399 20.723 47.7658 27.0476 46.1576 33.0647Z" fill="white"/>
<path d="M0.782334 33.0647C-0.782334 27.0476 0 20.723 3.12934 15.2769C6.21522 9.87469 11.2135 6.0097 17.1679 4.38464L17.7764 6.62459C12.387 8.07393 7.86678 11.5876 5.08518 16.4628C2.30354 21.338 1.56467 27.0476 2.99895 32.4938L0.782334 33.0647Z" fill="white"/>
<path d="M33.4232 30.6051H31.1196V19.9325H20.5581V17.6047H33.4232V30.6051Z" fill="white"/>
<path d="M27.5557 37.6764H13.5605V23.5339H27.5557V37.6764ZM15.8206 35.3486H25.2521V25.8178H15.8206V35.3486Z" fill="white"/>
<path d="M57.608 50.2039C58.0571 50.2039 58.3961 50.3025 58.625 50.4998C58.854 50.6971 58.9684 50.9843 58.9684 51.3614C58.9684 51.5675 58.9178 51.7516 58.8165 51.9139C58.7197 52.0761 58.5744 52.2032 58.3807 52.2953C58.526 52.3436 58.6602 52.4181 58.7835 52.5189C58.9112 52.6154 59.0147 52.7404 59.0939 52.8938C59.1731 53.0473 59.2128 53.2336 59.2128 53.4529C59.2128 53.7203 59.1665 53.9418 59.0741 54.1171C58.9816 54.2925 58.8606 54.4306 58.7109 54.5315C58.5612 54.6323 58.3961 54.7047 58.2156 54.7485C58.0351 54.788 57.8546 54.8077 57.6741 54.8077H55.6797V50.2039H57.608ZM57.4892 50.8879H56.3929V52.1112H57.5684C57.7489 52.1068 57.9074 52.052 58.0439 51.9468C58.1848 51.8415 58.2552 51.6924 58.2552 51.4995C58.2552 51.2803 58.1804 51.1246 58.0307 51.0326C57.8854 50.9361 57.7049 50.8879 57.4892 50.8879ZM57.6014 52.7952H56.3929V54.1237H57.6344C57.8854 54.1237 58.0901 54.0689 58.2486 53.9593C58.4071 53.8453 58.4863 53.6721 58.4863 53.4397C58.4863 53.2731 58.4401 53.1438 58.3477 53.0517C58.2552 52.9596 58.1407 52.8938 58.0043 52.8544C57.8722 52.8149 57.7379 52.7952 57.6014 52.7952ZM60.5842 56.3204L61.1521 55.0247L61.1719 54.9787L59.5606 51.3548H60.353L61.4361 53.8935C61.4493 53.9198 61.4625 53.9527 61.4757 53.9922C61.4889 54.0316 61.5043 54.0755 61.5219 54.1237C61.5395 54.0755 61.5549 54.0294 61.5682 53.9856C61.5858 53.9374 61.6034 53.8913 61.621 53.8475L62.5257 51.3548H63.3314L61.905 54.8077L61.3172 56.3204H60.5842ZM68.9138 54.8077L68.478 53.6633H66.543L66.1072 54.8077H65.3807L67.1704 50.2039H67.8968L69.6733 54.8077H68.9138ZM67.1572 52.0586L66.8072 52.9793H68.2204L67.8572 52.0323C67.8 51.8788 67.7427 51.7144 67.6855 51.539C67.6283 51.3592 67.571 51.1794 67.5138 50.9997C67.4522 51.1838 67.3905 51.368 67.3289 51.5521C67.2716 51.7363 67.2144 51.9051 67.1572 52.0586ZM73.4156 51.3548V54.8077H72.7287V54.275C72.623 54.4197 72.4667 54.5556 72.2598 54.6828C72.0529 54.8099 71.8129 54.8735 71.54 54.8735C71.2494 54.8735 70.983 54.7968 70.7409 54.6433C70.5032 54.4898 70.3138 54.2772 70.173 54.0053C70.0321 53.7335 69.9616 53.4222 69.9616 53.0714C69.9616 52.7206 70.0343 52.4115 70.1796 52.1441C70.3249 51.8722 70.5252 51.6617 70.7805 51.5127C71.0359 51.3592 71.3264 51.2825 71.6522 51.2825C71.8944 51.2825 72.1057 51.3351 72.2862 51.4403C72.4711 51.5456 72.6186 51.6683 72.7287 51.8086V51.3548H73.4156ZM71.6985 54.2487C71.9098 54.2487 72.0947 54.1983 72.2532 54.0974C72.4117 53.9922 72.535 53.8519 72.623 53.6765C72.7111 53.4967 72.7551 53.295 72.7551 53.0714C72.7551 52.8522 72.7111 52.6549 72.623 52.4795C72.535 52.3041 72.4117 52.166 72.2532 52.0651C72.0947 51.9599 71.9098 51.9073 71.6985 51.9073C71.4959 51.9073 71.3154 51.9577 71.1569 52.0586C70.9984 52.1594 70.8752 52.2975 70.7871 52.4729C70.6991 52.6483 70.655 52.8478 70.655 53.0714C70.655 53.295 70.6991 53.4967 70.7871 53.6765C70.8752 53.8519 70.9984 53.9922 71.1569 54.0974C71.3154 54.1983 71.4959 54.2487 71.6985 54.2487ZM76.1745 51.2956C76.4827 51.2956 76.7579 51.3724 77 51.5258C77.2465 51.6749 77.4403 51.8832 77.5811 52.1506C77.722 52.4181 77.7925 52.7272 77.7925 53.078C77.7925 53.4244 77.722 53.7335 77.5811 54.0053C77.4403 54.2728 77.2487 54.4833 77.0066 54.6367C76.7645 54.7902 76.4937 54.8669 76.1943 54.8669C75.9478 54.8669 75.7232 54.8143 75.5207 54.7091C75.3226 54.6038 75.1663 54.4833 75.0518 54.3473V56.2546H74.365V51.3483H75.0518V51.8547C75.1531 51.71 75.305 51.5806 75.5075 51.4666C75.71 51.3526 75.9324 51.2956 76.1745 51.2956ZM76.0821 51.9204C75.8751 51.9204 75.6902 51.9709 75.5273 52.0717C75.3688 52.1726 75.2434 52.3107 75.1509 52.4861C75.0629 52.6571 75.0188 52.8544 75.0188 53.078C75.0188 53.2972 75.0629 53.4945 75.1509 53.6699C75.2434 53.8453 75.3688 53.9856 75.5273 54.0908C75.6902 54.1917 75.8751 54.2421 76.0821 54.2421C76.289 54.2421 76.4717 54.1917 76.6302 54.0908C76.7887 53.9856 76.9119 53.8453 77 53.6699C77.0925 53.4945 77.1387 53.2972 77.1387 53.078C77.1387 52.8544 77.0925 52.6571 77 52.4861C76.9119 52.3107 76.7887 52.1726 76.6302 52.0717C76.4717 51.9709 76.289 51.9204 76.0821 51.9204ZM79.6408 54.8077H78.9606V52.0125H78.2408V51.3548H78.9606V50.4735H79.6408V51.3548H80.4465V52.0125H79.6408V54.8077ZM81.5215 50.6051C81.3674 50.6051 81.2529 50.5656 81.1781 50.4867C81.1032 50.4078 81.0658 50.3047 81.0658 50.1776C81.0658 50.0679 81.1032 49.9693 81.1781 49.8816C81.2529 49.7939 81.3674 49.7501 81.5215 49.7501C81.6756 49.7501 81.79 49.7895 81.8649 49.8684C81.9397 49.9474 81.9771 50.0504 81.9771 50.1776C81.9771 50.2872 81.9397 50.3858 81.8649 50.4735C81.79 50.5612 81.6756 50.6051 81.5215 50.6051ZM81.8715 54.8077H81.1913V51.3548H81.8715V54.8077ZM86.9601 54.8077H84.7544V54.15H85.5007V50.8616H84.7544V50.2039H86.9601V50.8616H86.2139V54.15H86.9601V54.8077ZM89.7242 51.2825C90.0368 51.2825 90.279 51.3461 90.4507 51.4732C90.6224 51.6004 90.7412 51.7714 90.8073 51.9862C90.8777 52.2011 90.9129 52.44 90.9129 52.7031V54.8077H90.2327V52.7491C90.2327 52.5825 90.2107 52.4334 90.1667 52.3019C90.1227 52.1704 90.0478 52.0673 89.9422 51.9928C89.8365 51.9183 89.689 51.8876 89.4997 51.9007C89.3236 51.9007 89.1673 51.938 89.0308 52.0125C88.8943 52.0871 88.7865 52.1857 88.7072 52.3085C88.628 52.4313 88.5884 52.5672 88.5884 52.7163V54.8077H87.9082V51.3548H88.5884V51.9007C88.694 51.7385 88.8481 51.596 89.0506 51.4732C89.2532 51.3461 89.4777 51.2825 89.7242 51.2825ZM93.837 52.2624C93.7137 52.1397 93.5728 52.0388 93.4143 51.9599C93.2603 51.881 93.1172 51.8415 92.9851 51.8415C92.8926 51.8415 92.8002 51.8525 92.7077 51.8744C92.6197 51.8963 92.5448 51.938 92.4832 51.9994C92.4216 52.0564 92.3907 52.1419 92.3907 52.2559C92.3951 52.4137 92.4656 52.5255 92.6021 52.5913C92.743 52.6571 92.9169 52.7163 93.1238 52.7689C93.3043 52.8171 93.4804 52.8785 93.6521 52.953C93.8238 53.0232 93.9647 53.1284 94.0747 53.2687C94.1892 53.4046 94.2464 53.5976 94.2464 53.8475C94.2464 54.0623 94.1848 54.2465 94.0615 54.3999C93.9427 54.5534 93.7864 54.6718 93.5927 54.7551C93.4033 54.834 93.203 54.8735 92.9917 54.8735C92.7408 54.8735 92.492 54.8296 92.2455 54.7419C92.0033 54.6499 91.7964 54.4942 91.6247 54.275L92.087 53.8804C92.2058 54.0163 92.3401 54.1237 92.4898 54.2026C92.6439 54.2772 92.831 54.3144 93.0511 54.3144C93.1348 54.3144 93.2184 54.3013 93.3021 54.275C93.3857 54.2443 93.4562 54.1983 93.5134 54.1369C93.575 54.0711 93.6059 53.9834 93.6059 53.8738C93.6059 53.7686 93.5728 53.6874 93.5068 53.6304C93.4452 53.5691 93.3615 53.5208 93.2559 53.4858C93.1502 53.4463 93.0335 53.4112 92.9058 53.3805C92.7165 53.3279 92.5294 53.2643 92.3445 53.1898C92.164 53.1109 92.0121 53.0013 91.8888 52.8609C91.77 52.7163 91.7105 52.5211 91.7105 52.2756C91.7105 52.0695 91.7678 51.8941 91.8822 51.7494C92.0011 51.6004 92.1552 51.4864 92.3445 51.4074C92.5338 51.3241 92.7364 51.2825 92.9521 51.2825C93.159 51.2825 93.3835 51.3263 93.6257 51.414C93.8678 51.5017 94.0681 51.642 94.2266 51.8349L93.837 52.2624ZM96.1051 54.8077H95.4249V52.0125H94.705V51.3548H95.4249V50.4735H96.1051V51.3548H96.9107V52.0125H96.1051V54.8077ZM97.9864 50.6051C97.8324 50.6051 97.7179 50.5656 97.643 50.4867C97.5682 50.4078 97.5308 50.3047 97.5308 50.1776C97.5308 50.0679 97.5682 49.9693 97.643 49.8816C97.7179 49.7939 97.8324 49.7501 97.9864 49.7501C98.1405 49.7501 98.255 49.7895 98.3299 49.8684C98.4047 49.9474 98.4421 50.0504 98.4421 50.1776C98.4421 50.2872 98.4047 50.3858 98.3299 50.4735C98.255 50.5612 98.1405 50.6051 97.9864 50.6051ZM98.3365 54.8077H97.6563V51.3548H98.3365V54.8077ZM100.478 54.8077H99.7974V52.0125H99.0776V51.3548H99.7974V50.4735H100.478V51.3548H101.283V52.0125H100.478V54.8077ZM104.267 53.4331V51.3548H104.948V54.8077H104.267V54.2553C104.166 54.4175 104.017 54.5622 103.818 54.6893C103.625 54.8121 103.391 54.8735 103.118 54.8735C102.757 54.8735 102.465 54.7507 102.24 54.5052C102.016 54.2596 101.903 53.9198 101.903 53.4858V51.3548H102.583V53.3016C102.583 53.477 102.61 53.6392 102.663 53.7883C102.72 53.9374 102.808 54.0579 102.927 54.15C103.05 54.2377 103.206 54.2816 103.396 54.2816C103.634 54.2816 103.838 54.207 104.01 54.0579C104.182 53.9089 104.267 53.7006 104.267 53.4331ZM107.011 54.8077H106.331V52.0125H105.611V51.3548H106.331V50.4735H107.011V51.3548H107.817V52.0125H107.011V54.8077ZM111.382 54.3539H111.375C111.235 54.4898 111.041 54.6104 110.794 54.7156C110.548 54.8209 110.29 54.8735 110.022 54.8735C109.661 54.8735 109.341 54.7989 109.064 54.6499C108.791 54.4964 108.578 54.2881 108.424 54.0251C108.269 53.7576 108.192 53.4551 108.192 53.1174C108.192 52.7316 108.274 52.4028 108.437 52.1309C108.6 51.8547 108.815 51.6442 109.084 51.4995C109.352 51.3504 109.645 51.2759 109.962 51.2759C110.253 51.2759 110.517 51.3482 110.755 51.4929C110.992 51.6332 111.182 51.8284 111.323 52.0783C111.464 52.3282 111.534 52.6198 111.534 52.953L111.527 53.2424H108.873C108.912 53.5537 109.04 53.8014 109.256 53.9856C109.476 54.1654 109.753 54.2553 110.088 54.2553C110.33 54.2553 110.526 54.2114 110.675 54.1237C110.825 54.0316 110.948 53.9439 111.045 53.8606L111.382 54.3539ZM109.962 51.9007C109.702 51.9007 109.476 51.9621 109.282 52.0849C109.088 52.2033 108.961 52.4093 108.899 52.7031H110.841V52.6571C110.827 52.508 110.777 52.3764 110.689 52.2624C110.605 52.1484 110.499 52.0607 110.372 51.9994C110.244 51.9336 110.108 51.9007 109.962 51.9007Z" fill="white"/>
</g>
<defs>
<clipPath id="clip0_771_1715">
<rect width="113" height="57" fill="white"/>
</clipPath>
</defs>
</svg>
