<svg width="114" height="56" viewBox="0 0 114 56" fill="none" xmlns="http://www.w3.org/2000/svg">
<g clip-path="url(#clip0_771_2953)">
<path d="M64.6364 16.803V11.3691H65.512C67.5161 11.3691 68.3056 12.1608 68.3056 14.0836C68.3056 16.1085 67.1771 16.803 65.3792 16.803H64.6364ZM69.7686 14.1465C69.7686 11.5132 68.3056 10.0322 65.5349 10.0322H63.1733V18.1399H65.5231C68.2593 18.1399 69.7686 16.6708 69.7686 14.1465Z" fill="white"/>
<path d="M73.9962 10.0325H72.5332V18.1401H73.9962V10.0325Z" fill="white"/>
<path d="M80.6962 18.2542C81.7792 18.2542 82.6655 17.761 83.1043 16.9978L83.2308 18.1399H84.3879V13.7562H81.1218V14.9325H82.9138C82.8685 16.2522 81.969 16.9521 80.6962 16.9521C78.9511 16.9521 78.2077 15.6381 78.2077 14.0257C78.2077 12.5226 78.9511 11.1743 80.6728 11.1743C81.7097 11.1743 82.5632 11.6672 82.9364 12.7689L84.2326 12.2299C83.5767 10.7154 82.286 9.89996 80.6853 9.89996C77.9943 9.89996 76.7563 11.8624 76.7563 14.0836C76.7563 16.3094 78.0181 18.2542 80.6962 18.2542Z" fill="white"/>
<path d="M88.8746 10.0325H87.4121V18.1401H88.8746V10.0325Z" fill="white"/>
<path d="M93.8305 18.1399H95.2946V11.3348H97.8401V10.0322H91.2788V11.3348H93.8305V18.1399Z" fill="white"/>
<path d="M102.319 12.1725L103.413 15.1332H101.218L102.319 12.1725ZM100.757 16.3786H103.874L104.526 18.1397H106.104L102.86 10.0325H101.766L98.5054 18.1397H100.101L100.757 16.3786Z" fill="white"/>
<path d="M109.926 16.7628V10.0325H108.464V18.1397H113.406V16.7628H109.926Z" fill="white"/>
<path d="M64.6253 24.0015H65.7251C66.7163 24.0015 67.1476 24.38 67.1476 25.0403C67.1476 25.6825 66.7274 26.0264 65.7251 26.0264H64.6253V24.0015ZM64.6253 27.3865H65.7251C67.3841 27.3865 68.5995 26.5544 68.5995 25.0403C68.5995 23.5082 67.3841 22.6414 65.7251 22.6414H63.1733V30.7486H64.6253V27.3865Z" fill="white"/>
<path d="M72.4216 27.4211V22.6414H70.9644V27.5873C70.9644 29.5726 71.892 30.8633 74.0752 30.8633C76.2584 30.8633 77.1914 29.5726 77.1914 27.5298V22.6414H75.7284V27.4211C75.7284 28.7294 75.3886 29.4579 74.0752 29.4579C72.7672 29.4579 72.4216 28.7294 72.4216 27.4211Z" fill="white"/>
<path d="M83.538 29.36H81.8046V27.1623H83.481C84.247 27.1623 84.7303 27.656 84.7303 28.2354C84.7303 28.9985 84.2931 29.36 83.538 29.36ZM81.8046 23.9553H83.1866C83.8839 23.9553 84.425 24.2763 84.425 24.908C84.425 25.7054 83.8722 25.9059 83.3014 25.9059H81.8046V23.9553ZM84.863 26.4114C85.3245 26.1644 85.7672 25.5674 85.7672 24.8271C85.7672 23.204 84.4024 22.6414 83.1632 22.6414H80.3413V30.7486H83.5154C84.8982 30.7486 86.1709 29.9058 86.1709 28.3963C86.1709 27.587 85.6064 26.7034 84.863 26.4114Z" fill="white"/>
<path d="M93.8652 29.3718H90.3858V22.6414H88.9233V30.7486H93.8652V29.3718Z" fill="white"/>
<path d="M97.7506 22.6412H96.2881V30.7484H97.7506V22.6412Z" fill="white"/>
<path d="M104.451 29.4803C102.706 29.4803 101.963 28.2472 101.963 26.6343C101.963 25.1316 102.706 23.8978 104.429 23.8978C105.489 23.8978 106.329 24.3105 106.635 25.3779L108 24.8389C107.344 23.3244 106.053 22.509 104.441 22.509C101.762 22.509 100.512 24.4714 100.512 26.6926C100.512 28.9185 101.773 30.8633 104.451 30.8633C106.07 30.8633 107.366 30.043 108.012 28.5285L106.658 27.9777C106.22 29.0675 105.499 29.4803 104.451 29.4803Z" fill="white"/>
<path d="M68.1158 41.9813H64.6364V35.2509H63.1733V43.3585H68.1158V41.9813Z" fill="white"/>
<path d="M72.3644 40.3518L73.465 37.391L74.5591 40.3518H72.3644ZM72.9123 35.251L69.6519 43.3586H71.2473L71.9036 41.5971H75.0199L75.6711 43.3586H77.249L74.0065 35.251H72.9123Z" fill="white"/>
<path d="M82.8064 41.9696H81.0721V39.772H82.7493C83.5146 39.772 83.9987 40.2656 83.9987 40.8451C83.9987 41.6081 83.5606 41.9696 82.8064 41.9696ZM81.0721 36.565H82.4542C83.1523 36.565 83.6934 36.8867 83.6934 37.5176C83.6934 38.315 83.1405 38.5155 82.5698 38.5155H81.0721V36.565ZM84.1314 39.021C84.5921 38.774 85.0356 38.1771 85.0356 37.4375C85.0356 35.8136 83.6707 35.251 82.4316 35.251H79.6089V43.3586H82.7829C84.1658 43.3586 85.4385 42.5154 85.4385 41.0059C85.4385 40.1966 84.874 39.313 84.1314 39.021Z" fill="white"/>
<path d="M65.4109 53.7667C65.2773 53.8585 65.0933 53.9028 64.8568 53.899H63.9154V52.8785H64.8568C65.0933 52.8747 65.2773 52.9174 65.4109 53.0081C65.5437 53.0981 65.6103 53.2224 65.6103 53.3805C65.6103 53.546 65.5437 53.6748 65.4109 53.7667ZM63.9154 51.3171H64.8568C65.0489 51.3133 65.1989 51.3526 65.3083 51.433C65.417 51.5138 65.4718 51.6278 65.4718 51.7749C65.4718 51.9259 65.417 52.0437 65.3083 52.128C65.1989 52.2126 65.0489 52.2549 64.8568 52.2549H63.9154V51.3171ZM65.5548 52.4977C65.7653 52.4462 65.9306 52.344 66.0504 52.1916C66.1705 52.0395 66.2307 51.8557 66.2307 51.6426C66.2307 51.3446 66.1109 51.1094 65.8732 50.9363C65.6352 50.764 65.3087 50.6775 64.8958 50.6775H63.1733V54.5386H64.9456C65.3887 54.5386 65.7381 54.4444 65.9953 54.255C66.2513 54.0656 66.3795 53.8052 66.3795 53.4743C66.3795 53.2166 66.3072 53.0016 66.1614 52.8286C66.0155 52.6558 65.8131 52.5457 65.5548 52.4977Z" fill="white"/>
<path d="M68.2019 53.7334L67.3607 51.5876H66.6133L67.8368 54.4893L67.7484 54.6822C67.6554 54.8808 67.5115 54.9803 67.3163 54.9803C67.2497 54.9803 67.187 54.9681 67.128 54.9445C67.0687 54.9204 67.0036 54.8827 66.934 54.8312L66.624 55.3775C66.7384 55.4694 66.8536 55.536 66.97 55.5787C67.0863 55.621 67.2164 55.6424 67.3607 55.6424C67.5968 55.6424 67.8004 55.5807 67.9726 55.4576C68.1441 55.334 68.2757 55.151 68.3686 54.9086L69.6974 51.5876H68.9721L68.2019 53.7334Z" fill="white"/>
<path d="M72.4492 53.0883L73.1365 51.4662L73.8123 53.0883H72.4492ZM72.771 50.6772L71.0708 54.5387H71.84L72.184 53.7226H74.0775L74.4212 54.5387H75.2187L73.5406 50.6772H72.771Z" fill="white"/>
<path d="M77.4339 53.5128C77.4155 53.6558 77.3324 53.7762 77.1851 53.8742C77.0374 53.9718 76.8602 54.0206 76.6536 54.0206C76.4909 54.0206 76.3627 53.9836 76.2686 53.9101C76.1745 53.8365 76.1274 53.7373 76.1274 53.6123C76.1274 53.4834 76.1725 53.3904 76.2625 53.3336C76.3535 53.2765 76.4948 53.2479 76.6864 53.2479H77.4339V53.5128ZM77.8192 51.8356C77.6064 51.6519 77.3087 51.56 76.9249 51.56C76.67 51.56 76.4477 51.5889 76.2575 51.6453C76.0673 51.7026 75.8553 51.7951 75.6237 51.924L75.8836 52.4203C76.1902 52.2366 76.4837 52.1447 76.7641 52.1447C76.9815 52.1447 77.1476 52.1923 77.2628 52.2881C77.3772 52.3837 77.4339 52.5179 77.4339 52.691V52.768H76.5697C76.2127 52.7718 75.9352 52.8518 75.7397 53.0081C75.5438 53.1644 75.4458 53.3805 75.4458 53.6558C75.4458 53.8292 75.4883 53.9855 75.5732 54.1254C75.6578 54.265 75.7791 54.3739 75.936 54.4536C76.0926 54.5325 76.2747 54.5722 76.4817 54.5722C76.6922 54.5722 76.8786 54.5387 77.0413 54.4727C77.2031 54.4067 77.3359 54.3091 77.4399 54.1799V54.5387H78.148L78.1433 52.6082C78.1394 52.277 78.0317 52.0197 77.8192 51.8356Z" fill="white"/>
<path d="M81.1665 53.6976C81.0111 53.8649 80.812 53.9484 80.5692 53.9484C80.3209 53.9484 80.1202 53.8657 79.9648 53.7003C79.8102 53.5348 79.7321 53.3199 79.7321 53.0549C79.7321 52.7938 79.8102 52.5803 79.9648 52.4149C80.1202 52.2499 80.3209 52.1667 80.5692 52.1667C80.812 52.1667 81.0111 52.2499 81.1665 52.4149C81.3219 52.5803 81.3984 52.7938 81.3984 53.0549C81.3984 53.316 81.3219 53.5302 81.1665 53.6976ZM81.4624 51.7554C81.2508 51.6293 81.0064 51.5652 80.7285 51.5652C80.5075 51.5652 80.3131 51.609 80.1444 51.6948C79.9765 51.7813 79.8391 51.9072 79.7321 52.0729V51.5873H79.0122V55.6093H79.7321V54.059C79.843 54.2244 79.9835 54.3506 80.153 54.4364C80.3232 54.5233 80.5184 54.566 80.7402 54.566C81.0166 54.566 81.261 54.5039 81.4718 54.3788C81.6818 54.2534 81.8442 54.0792 81.9582 53.8546C82.073 53.6305 82.1308 53.3716 82.1308 53.077C82.1308 52.7789 82.0722 52.5159 81.9559 52.288C81.8396 52.0604 81.6756 51.8824 81.4624 51.7554Z" fill="white"/>
<path d="M83.9297 53.9372C83.8266 53.9372 83.7485 53.9093 83.697 53.8518C83.6455 53.7954 83.6197 53.6986 83.6197 53.5625V52.2328H84.4669V51.7087H83.6197V50.8979H82.9052V51.7087H82.4844L82.4898 52.2328H82.9052V53.6894C82.9052 53.9795 82.9864 54.1995 83.1496 54.3489C83.3113 54.4972 83.5197 54.5722 83.7751 54.5722C84.0327 54.5722 84.2803 54.5006 84.5169 54.3565L84.3505 53.8163C84.1803 53.8967 84.0406 53.9372 83.9297 53.9372Z" fill="white"/>
<path d="M85.1094 54.5389H85.8293V51.5876H85.1094V54.5389Z" fill="white"/>
<path d="M85.4646 50.3184C85.3459 50.3184 85.2483 50.3596 85.1703 50.4405C85.0929 50.5209 85.0547 50.6238 85.0547 50.7488C85.0547 50.8708 85.0929 50.9714 85.1703 51.0523C85.2483 51.1338 85.3459 51.1742 85.4646 51.1742C85.5825 51.1742 85.6801 51.1338 85.7582 51.0523C85.8347 50.9714 85.8738 50.8708 85.8738 50.7488C85.8738 50.6238 85.8347 50.5209 85.7582 50.4405C85.6801 50.3596 85.5825 50.3184 85.4646 50.3184Z" fill="white"/>
<path d="M88.1611 54.5389H88.9029V50.6774H88.1611V54.5389Z" fill="white"/>
<path d="M91.6396 51.5601C91.1337 51.5674 90.7784 51.7606 90.5762 52.1392V51.5876H89.8555V54.5388H90.5762V53.0884C90.5762 52.8414 90.6449 52.6397 90.7831 52.4815C90.9213 52.3233 91.111 52.2425 91.3507 52.2387C91.5538 52.2387 91.7146 52.2985 91.8325 52.4179C91.9512 52.5376 92.0098 52.7003 92.0098 52.9057V54.5388H92.7351V52.6961C92.7351 52.3473 92.6368 52.0698 92.4423 51.8663C92.2463 51.6619 91.9785 51.5601 91.6396 51.5601Z" fill="white"/>
<path d="M95.1339 52.9307C95.0004 52.8701 94.8302 52.8083 94.624 52.7458C94.4288 52.6913 94.2852 52.6383 94.1946 52.5891C94.1048 52.5395 94.0587 52.4687 94.0587 52.3768C94.0587 52.288 94.0954 52.2231 94.1673 52.1808C94.2391 52.1381 94.3367 52.1168 94.4577 52.1168C94.5873 52.1168 94.7279 52.1409 94.8817 52.1892C95.0348 52.2369 95.1839 52.3033 95.3268 52.3879L95.5876 51.8686C95.44 51.7699 95.2706 51.6922 95.0808 51.6369C94.8903 51.5824 94.6974 51.5546 94.5022 51.5546C94.1813 51.5546 93.9135 51.6312 93.7019 51.7836C93.4895 51.9358 93.3833 52.158 93.3833 52.4481C93.3833 52.636 93.4294 52.7877 93.5223 52.9032C93.6137 53.0191 93.723 53.1056 93.8487 53.1625C93.9744 53.22 94.1376 53.278 94.3367 53.3363C94.5428 53.3988 94.6928 53.456 94.7849 53.5078C94.877 53.5589 94.9231 53.6359 94.9231 53.7388C94.9231 53.831 94.8833 53.9 94.8036 53.9458C94.7248 53.9919 94.6186 54.0148 94.4858 54.0148C94.3195 54.0148 94.1446 53.9828 93.9596 53.9184C93.7753 53.8539 93.616 53.7647 93.484 53.6508L93.2334 54.1528C93.3857 54.285 93.5692 54.3872 93.7878 54.4589C94.0056 54.5306 94.2289 54.5664 94.4577 54.5664C94.7935 54.5664 95.0722 54.4894 95.294 54.3354C95.5157 54.1803 95.6266 53.9595 95.6266 53.6728C95.6266 53.4777 95.5774 53.3207 95.479 53.201C95.3814 53.0817 95.2667 52.9913 95.1339 52.9307Z" fill="white"/>
<path d="M97.4147 53.9372C97.3117 53.9372 97.2336 53.9093 97.1821 53.8518C97.1305 53.7954 97.1048 53.6986 97.1048 53.5625V52.2328H97.9519V51.7087H97.1048V50.8979H96.3903V51.7087H95.9702L95.9749 52.2328H96.3903V53.6894C96.3903 53.9795 96.4715 54.1995 96.6347 54.3489C96.7963 54.4972 97.0048 54.5722 97.2601 54.5722C97.5186 54.5722 97.7661 54.5006 98.0019 54.3565L97.8356 53.8163C97.6654 53.8967 97.5256 53.9372 97.4147 53.9372Z" fill="white"/>
<path d="M98.5952 54.5389H99.3151V51.5876H98.5952V54.5389Z" fill="white"/>
<path d="M98.9495 50.3184C98.8308 50.3184 98.7332 50.3596 98.6551 50.4405C98.5778 50.5209 98.5396 50.6238 98.5396 50.7488C98.5396 50.8708 98.5778 50.9714 98.6551 51.0523C98.7332 51.1338 98.8308 51.1742 98.9495 51.1742C99.0674 51.1742 99.165 51.1338 99.2431 51.0523C99.3204 50.9714 99.3594 50.8708 99.3594 50.7488C99.3594 50.6238 99.3204 50.5209 99.2431 50.4405C99.165 50.3596 99.0674 50.3184 98.9495 50.3184Z" fill="white"/>
<path d="M101.379 53.9372C101.276 53.9372 101.198 53.9093 101.147 53.8518C101.095 53.7954 101.069 53.6986 101.069 53.5625V52.2328H101.917V51.7087H101.069V50.8979H100.355V51.7087H99.9341L99.9395 52.2328H100.355V53.6894C100.355 53.9795 100.436 54.1995 100.599 54.3489C100.761 54.4972 100.97 54.5722 101.225 54.5722C101.483 54.5722 101.731 54.5006 101.967 54.3565L101.801 53.8163C101.63 53.8967 101.491 53.9372 101.379 53.9372Z" fill="white"/>
<path d="M104.57 53.0439C104.57 53.2868 104.504 53.4873 104.371 53.6451C104.238 53.8033 104.057 53.8845 103.828 53.8875C103.629 53.8875 103.473 53.8292 103.361 53.7114C103.247 53.5932 103.191 53.432 103.191 53.2258V51.5874H102.466V53.435C102.466 53.7849 102.562 54.061 102.754 54.2626C102.945 54.4654 103.208 54.5661 103.54 54.5661C104.028 54.5661 104.371 54.3754 104.57 53.9927V54.5386H105.296V51.5874H104.57V53.0439Z" fill="white"/>
<path d="M107.366 53.9372C107.263 53.9372 107.185 53.9093 107.134 53.8518C107.082 53.7954 107.056 53.6986 107.056 53.5625V52.2328H107.903V51.7087H107.056V50.8979H106.342V51.7087H105.921L105.926 52.2328H106.342V53.6894C106.342 53.9795 106.423 54.1995 106.586 54.3489C106.748 54.4972 106.957 54.5722 107.212 54.5722C107.47 54.5722 107.718 54.5006 107.953 54.3565L107.788 53.8163C107.617 53.8967 107.478 53.9372 107.366 53.9372Z" fill="white"/>
<path d="M108.967 52.8344C109 52.6137 109.089 52.4399 109.231 52.313C109.372 52.186 109.548 52.1227 109.759 52.1227C109.985 52.1227 110.165 52.1871 110.302 52.3156C110.439 52.4445 110.511 52.6175 110.518 52.8344H108.967ZM109.755 51.5654C109.462 51.5654 109.202 51.629 108.973 51.7552C108.744 51.8825 108.565 52.0602 108.438 52.2881C108.312 52.5161 108.248 52.7772 108.248 53.0715C108.248 53.3658 108.31 53.6262 108.436 53.8518C108.561 54.0786 108.739 54.2536 108.971 54.3786C109.201 54.5036 109.468 54.5662 109.77 54.5662C110.029 54.5662 110.264 54.5227 110.476 54.4339C110.688 54.3454 110.87 54.2205 111.016 54.0588L110.629 53.6559C110.525 53.763 110.404 53.8449 110.266 53.9013C110.128 53.959 109.983 53.9875 109.831 53.9875C109.613 53.9875 109.43 53.9277 109.28 53.8076C109.131 53.6887 109.032 53.5239 108.984 53.3143H111.172C111.175 53.2667 111.176 53.195 111.176 53.0994C111.176 52.6137 111.058 52.2367 110.82 51.9683C110.581 51.6996 110.226 51.5654 109.755 51.5654Z" fill="white"/>
<path d="M7.57697 37.7978C7.57697 37.6102 7.58424 37.4246 7.59802 37.2412C7.63974 36.6896 7.74268 36.1556 7.89728 35.644C6.99644 33.2974 6.49818 30.7544 6.49818 28.0963C6.49818 16.4093 16.0435 6.90074 27.776 6.90074C39.5088 6.90074 49.0549 16.4093 49.0549 28.0963C49.0549 30.7544 48.5562 33.2974 47.6554 35.644C47.8104 36.1556 47.913 36.6896 47.9547 37.2412C47.9684 37.4246 47.9753 37.6102 47.9753 37.7978V39.2402C49.8203 35.936 50.875 32.1374 50.875 28.0963C50.875 15.4094 40.5125 5.0874 27.776 5.0874C15.0394 5.0874 4.67773 15.4094 4.67773 28.0963C4.67773 32.1374 5.7328 35.9364 7.57697 39.2402V37.7978Z" fill="white"/>
<path d="M15.0695 20.0565C12.4462 20.0565 10.3188 22.1751 10.3188 24.7886C10.3188 27.4021 12.4462 29.5208 15.0695 29.5208C17.6929 29.5208 19.8198 27.4021 19.8198 24.7886C19.8198 22.1751 17.6929 20.0565 15.0695 20.0565Z" fill="white"/>
<path d="M19.4426 45.8586V42.5647C19.4426 41.6125 19.6041 40.698 19.9011 39.8468C19.9505 39.705 20.0041 39.5647 20.0607 39.4267C20.2884 38.8736 20.5739 38.3506 20.9106 37.8646C21.3312 37.2577 21.8306 36.7088 22.3943 36.2331C21.6718 32.8629 18.6685 30.334 15.0693 30.334C12.4976 30.334 10.2298 31.6259 8.88008 33.5925C8.45344 34.215 8.12081 34.9061 7.89695 35.6437C7.74237 36.1553 7.63942 36.6897 7.59771 37.2409C7.58394 37.4247 7.57666 37.6103 7.57666 37.7978V39.2403C10.1869 43.9165 14.3862 47.5935 19.4426 49.5494V47.5969V45.8586Z" fill="white"/>
<path d="M40.4827 20.0565C37.8594 20.0565 35.7324 22.1751 35.7324 24.7886C35.7324 27.4021 37.8594 29.5208 40.4827 29.5208C43.1063 29.5208 45.2334 27.4021 45.2334 24.7886C45.2334 22.1751 43.1063 20.0565 40.4827 20.0565Z" fill="white"/>
<path d="M47.9755 39.2402V37.7977C47.9755 37.6102 47.9682 37.4245 47.9544 37.2408C47.9131 36.6896 47.8101 36.1555 47.6552 35.6439C47.4316 34.9059 47.0991 34.2152 46.672 33.5927C45.3226 31.6262 43.0549 30.3343 40.4828 30.3343C36.8841 30.3343 33.8803 32.8628 33.1582 36.2329C33.7219 36.7086 34.2217 37.2575 34.6418 37.8648C34.8103 38.1076 34.9657 38.3596 35.1076 38.6203C35.3208 39.0114 35.5029 39.4212 35.6514 39.8466C35.7505 40.1306 35.8339 40.4214 35.9021 40.718C35.9702 41.015 36.0219 41.3181 36.0567 41.6261C36.0739 41.7801 36.0877 41.9352 36.096 42.0919C36.1049 42.2485 36.1095 42.4059 36.1095 42.5649V45.8584V47.5967V49.5492C41.1659 47.5936 45.3651 43.9166 47.9755 39.2402Z" fill="white"/>
<path d="M36.1097 47.5966V45.8584V42.5649C36.1097 42.4059 36.1051 42.2485 36.0962 42.0918C36.0875 41.9351 36.0741 41.78 36.0568 41.626C36.022 41.318 35.9704 41.0149 35.9022 40.7184C35.8341 40.4214 35.7507 40.1306 35.6516 39.8466C35.5031 39.4212 35.3206 39.0114 35.1078 38.6202C34.9658 38.3599 34.8101 38.1076 34.642 37.8648C34.2215 37.2575 33.7221 36.7089 33.1584 36.2328C31.7057 35.0069 29.8294 34.264 27.7767 34.264C25.7232 34.264 23.8469 35.0069 22.3945 36.2328C21.8309 36.7089 21.3314 37.2575 20.9108 37.8648C20.574 38.3503 20.2886 38.8734 20.0609 39.4265C20.0043 39.5648 19.9507 39.7048 19.9013 39.8466C19.6043 40.6981 19.4429 41.6123 19.4429 42.5649V45.8584V47.5966V49.5495C20.4508 49.9391 21.4925 50.2593 22.5626 50.5063C24.2391 50.8933 25.983 51.1048 27.7763 51.1048C29.5695 51.1048 31.3135 50.8933 32.9904 50.5063C34.0607 50.2593 35.102 49.9391 36.1097 49.5491V47.5966Z" fill="#F3F3F3"/>
<path d="M16.857 51.4396C14.4472 50.3212 12.2253 48.8399 10.2507 47.0487C8.28749 45.2567 6.61821 43.1902 5.27804 40.9011C2.96814 36.9436 1.74584 32.4176 1.74584 27.8097C1.74584 27.0835 1.77531 26.3696 1.82811 25.667C1.84572 25.4387 1.7753 25.2104 1.62223 25.0342C1.47528 24.8589 1.26365 24.7537 1.02868 24.7304C0.546496 24.6893 0.129367 25.0579 0.0884195 25.5267C0.0294854 26.2758 1.88565e-05 27.0432 1.88565e-05 27.8097C-0.00572145 32.7222 1.29924 37.5523 3.7737 41.7794C5.19576 44.2149 6.98253 46.422 9.07502 48.3306C11.1795 50.2454 13.5483 51.82 16.1165 53.0143C16.2344 53.073 16.3576 53.0967 16.4866 53.0967C16.8218 53.0967 17.1337 52.9034 17.2803 52.5984C17.48 52.1658 17.2921 51.6443 16.857 51.4396Z" fill="white"/>
<path d="M54.7795 24.6251C54.5503 24.6422 54.3387 24.7479 54.1859 24.9293C54.0386 25.1046 53.9625 25.3334 53.9862 25.5617C54.0448 26.3054 54.0804 27.0602 54.0804 27.8097C54.0804 32.3764 52.8749 36.873 50.5945 40.8129C49.2718 43.1024 47.603 45.175 45.6455 46.9727C43.6823 48.7814 41.467 50.2685 39.0625 51.3983C38.8513 51.4979 38.6921 51.6675 38.616 51.8901C38.5341 52.107 38.5451 52.3411 38.6454 52.5515C38.7863 52.8564 39.0977 53.0497 39.433 53.0497C39.5623 53.0497 39.6859 53.0261 39.8034 52.9674C42.372 51.7616 44.7347 50.1747 46.833 48.2543C48.9195 46.3345 50.6943 44.1271 52.1053 41.6798C54.5384 37.4821 55.8257 32.6866 55.8257 27.8097C55.8257 27.0076 55.7902 26.2056 55.7259 25.4154C55.6846 24.9468 55.256 24.584 54.7795 24.6251Z" fill="white"/>
<path d="M12.4126 6.63312C12.5887 6.63312 12.7655 6.58052 12.9124 6.47531C17.3026 3.40172 22.4689 1.76182 27.8533 1.73857H27.9585C33.3425 1.73857 38.5149 3.36055 42.9174 6.4166C43.2997 6.68 43.8642 6.58052 44.1279 6.1997C44.2634 6.01291 44.3161 5.77848 44.2751 5.55014C44.2342 5.32181 44.1045 5.12282 43.9166 4.98826C39.2206 1.72675 33.7016 -6.10352e-05 27.9585 -6.10352e-05H27.841C22.0993 0.023192 16.5859 1.77364 11.9071 5.05878C11.7192 5.18724 11.5899 5.38623 11.5486 5.61418C11.5129 5.8429 11.56 6.07695 11.6955 6.2645C11.8604 6.49855 12.1245 6.63312 12.4126 6.63312Z" fill="white"/>
<path d="M51.3973 15.3882C51.8948 15.3882 52.2982 14.9864 52.2982 14.4909C52.2982 13.995 51.8948 13.5932 51.3973 13.5932C50.8994 13.5932 50.4961 13.995 50.4961 14.4909C50.4961 14.9864 50.8994 15.3882 51.3973 15.3882Z" fill="white"/>
<path d="M4.40573 15.3882C4.90361 15.3882 5.30658 14.9864 5.30658 14.4909C5.30658 13.995 4.90361 13.5932 4.40573 13.5932C3.90824 13.5932 3.50488 13.995 3.50488 14.4909C3.50488 14.9864 3.90824 15.3882 4.40573 15.3882Z" fill="white"/>
<path d="M27.913 53.8473C27.4152 53.8473 27.0122 54.2491 27.0122 54.7447C27.0122 55.2406 27.4152 55.6424 27.913 55.6424C28.411 55.6424 28.814 55.2406 28.814 54.7447C28.814 54.2491 28.411 53.8473 27.913 53.8473Z" fill="white"/>
<path d="M64.7064 6.19565H65.5862V2.10657H67.1155V1.32397H63.1733V2.10657H64.7064V6.19565Z" fill="white"/>
<path d="M69.4396 4.16159H71.5823V6.19565H72.4613V1.32397H71.5823V3.35842H69.4396V1.32397H68.5605V6.19565H69.4396V4.16159Z" fill="white"/>
<path d="M77.7171 5.36826H75.3425V4.1614H77.5541V3.3586H75.3425V2.12734H77.7171V1.32416H74.4639V6.19546H77.7171V5.36826Z" fill="white"/>
<path d="M33.8556 32.0067C33.4063 31.6651 32.8702 31.0377 32.6329 29.93C32.5101 29.357 32.466 28.6583 32.5582 27.7995C32.5969 27.445 32.6199 27.103 32.6321 26.7713C32.7018 24.8437 32.3352 23.3295 31.5855 22.5366C31.0708 21.9923 30.1941 21.6455 29.4628 21.9588C29.4099 21.9816 29.359 22.0099 29.302 22.0217C29.3315 22.0155 29.1417 21.6954 29.1179 21.6664C28.5393 20.9551 27.3805 20.9082 26.5524 21.0809C26.3086 21.132 26.0699 21.1968 25.8352 21.2798L25.8012 21.2924C24.9512 21.6035 22.9957 22.3315 22.9865 26.5823C22.9862 26.6925 22.9812 26.7942 22.9838 26.909C23.0049 27.9191 22.9398 28.7875 22.7986 29.527C22.6053 30.541 22.2648 31.3061 21.7699 31.7962C21.6873 31.8782 21.6054 31.9476 21.5254 32.0067C21.5254 32.0067 21.5518 32.0231 21.5916 32.0467C21.6892 32.105 21.8017 32.1653 21.9307 32.2259C22.7037 32.6017 24.5953 33.3306 27.6171 33.3588C27.6442 33.3588 27.6687 33.3572 27.6954 33.3572C27.7222 33.3572 27.7467 33.3588 27.7735 33.3588C27.8727 33.3588 27.9706 33.3558 28.0678 33.35C30.8258 33.2837 32.592 32.6345 33.3807 32.2628C33.549 32.1904 33.7121 32.1084 33.8652 32.0067H33.8556Z" fill="#F3F3F3"/>
</g>
<defs>
<clipPath id="clip0_771_2953">
<rect width="114" height="56" fill="white"/>
</clipPath>
</defs>
</svg>
