<svg width="48" height="55" viewBox="0 0 48 55" fill="none" xmlns="http://www.w3.org/2000/svg">
<g clip-path="url(#clip0_771_1672)">
<path d="M14.8486 46.4203H12.8145L25.2922 0.0640259H47.7278L47.1814 2.0874H26.7798L26.2333 4.11077H46.6349L46.0884 6.13412H25.6868L25.1404 8.15751H45.542L44.9955 10.1809H24.5939L21.8919 20.2675H41.322L40.7755 22.2909H21.3455L20.799 24.3143H40.229L39.6825 26.3377H20.2525L19.706 28.361H39.1361L38.5896 30.3844H19.1596L14.8486 46.4203Z" fill="white"/>
<path d="M2.67471 46.4207H0.640625L13.1487 0.0643311H15.1524L2.67471 46.4207Z" fill="white"/>
<path d="M6.74309 46.4203H4.70898L17.1867 0.0640259H19.2208L6.74309 46.4203Z" fill="white"/>
<path d="M10.7811 46.4203H8.74707L21.2551 0.0640259H23.2589L10.7811 46.4203Z" fill="white"/>
<path d="M4.55684 48.3832V49.712H2.18881V50.7992H4.40505V52.128H2.18881V54.4835H0.519043V48.3832H4.55684Z" fill="white"/>
<path d="M5.74096 54.4533L5.31592 48.3832H6.68208L6.77316 50.8898C6.77316 51.4334 6.80354 51.9468 6.80354 52.3997H6.89462C6.89462 52.2488 6.95532 51.977 7.01608 51.4938L7.22855 49.9536H8.3215L8.53403 51.4938C8.59473 51.9468 8.62511 52.2488 8.65543 52.3997H8.71619C8.71619 51.9468 8.71619 51.4334 8.74651 50.8898L8.83759 48.3832H10.2038L9.77875 54.4835H8.16972L7.9268 52.6413C7.8661 52.1582 7.83572 51.7353 7.8054 51.4032H7.71433C7.68395 51.7656 7.65357 52.1883 7.59287 52.6413L7.35001 54.4835H5.74096V54.4533Z" fill="white"/>
<path d="M10.9023 54.4533V48.3832H13.24C13.9686 48.3832 14.5454 48.655 14.9705 49.1684C15.3955 49.6818 15.608 50.4066 15.608 51.3126C15.608 52.3092 15.3955 53.0642 14.9705 53.6379C14.5454 54.1815 13.9686 54.4835 13.24 54.4835H10.9023V54.4533ZM12.5418 53.2151H12.9971C13.6043 53.2151 13.8776 52.6413 13.8776 51.2823C13.8776 50.1046 13.6043 49.5912 12.9971 49.5912H12.5418V53.2151Z" fill="white"/>
</g>
<defs>
<clipPath id="clip0_771_1672">
<rect width="48" height="55" fill="white"/>
</clipPath>
</defs>
</svg>
