<svg width="79" height="91" viewBox="0 0 79 91" fill="none" xmlns="http://www.w3.org/2000/svg">
<path d="M24.4386 76.8046H21.0908L41.6271 0.105957H78.5524L77.653 3.45372H44.0754L43.176 6.80148H76.7536L75.8542 10.1492H42.2766L41.3772 13.497H74.9548L74.0554 16.8448H40.4778L36.0308 33.5336H68.0094L67.11 36.8813H35.1314L34.232 40.2291H66.2106L65.3112 43.5769H33.3326L32.4332 46.9246H64.4118L63.5124 50.2724H31.5338L24.4386 76.8046Z" fill="#230b42"/>
<path d="M4.40245 76.8051H1.05469L21.6409 0.106445H24.9387L4.40245 76.8051Z" fill="#230b42"/>
<path d="M11.0978 76.8046H7.75L28.2863 0.105957H31.634L11.0978 76.8046Z" fill="#230b42"/>
<path d="M17.7442 76.8046H14.3965L34.9827 0.105957H38.2805L17.7442 76.8046Z" fill="#230b42"/>
<path d="M7.50004 80.0522V82.2508H3.60265V84.0496H7.25021V86.2481H3.60265V90.1455H0.854492V80.0522H7.50004Z" fill="#230b42"/>
<path d="M9.44856 90.0955L8.74902 80.0522H10.9975L11.1474 84.1995C11.1474 85.0989 11.1974 85.9483 11.1974 86.6978H11.3473C11.3473 86.448 11.4472 85.9983 11.5472 85.1988L11.8969 82.6505H13.6957L14.0455 85.1988C14.1454 85.9483 14.1954 86.448 14.2453 86.6978H14.3453C14.3453 85.9483 14.3453 85.0989 14.3952 84.1995L14.5451 80.0522H16.7936L16.0941 90.1455H13.4459L13.0461 87.0975C12.9462 86.2981 12.8962 85.5985 12.8463 85.0489H12.6964C12.6464 85.6485 12.5964 86.348 12.4965 87.0975L12.0968 90.1455H9.44856V90.0955Z" fill="#230b42"/>
<path d="M17.9434 90.0955V80.0522H21.7908C22.99 80.0522 23.9393 80.5019 24.6389 81.3514C25.3384 82.2008 25.6882 83.4 25.6882 84.899C25.6882 86.5479 25.3384 87.7971 24.6389 88.7464C23.9393 89.6458 22.99 90.1455 21.7908 90.1455H17.9434V90.0955ZM20.6416 88.0469H21.3911C22.3904 88.0469 22.8401 87.0975 22.8401 84.849C22.8401 82.9003 22.3904 82.0509 21.3911 82.0509H20.6416V88.0469Z" fill="#230b42"/>
</svg>
