<svg width="130" height="43" viewBox="0 0 130 43" fill="none" xmlns="http://www.w3.org/2000/svg">
<g clip-path="url(#clip0_771_4467)">
<path d="M16.5651 18.3396C16.5366 17.8864 16.6428 17.4349 16.8704 17.0419C17.098 16.649 17.4368 16.3322 17.8441 16.1315C18.2514 15.9308 18.709 15.8551 19.1593 15.9139C19.6096 15.9728 20.0323 16.1636 20.3743 16.4623C20.7163 16.761 20.9623 17.1543 21.0812 17.5925C21.2002 18.0307 21.1868 18.4944 21.0427 18.925C20.8986 19.3556 20.6303 19.734 20.2716 20.0124C19.9128 20.2908 19.4797 20.4568 19.0268 20.4896C18.7237 20.5115 18.4193 20.4731 18.1311 20.3767C17.8429 20.2802 17.5767 20.1276 17.3478 19.9277C17.1189 19.7278 16.9319 19.4846 16.7975 19.212C16.6632 18.9394 16.5842 18.6429 16.5651 18.3396Z" fill="white"/>
<path d="M43.5471 18.3396C43.5757 17.8864 43.4694 17.4349 43.2418 17.0419C43.0142 16.649 42.6754 16.3322 42.2681 16.1315C41.8608 15.9308 41.4032 15.8551 40.9529 15.9139C40.5027 15.9728 40.0799 16.1636 39.7379 16.4623C39.3959 16.761 39.1499 17.1543 39.031 17.5925C38.9121 18.0307 38.9255 18.4944 39.0696 18.925C39.2136 19.3556 39.4819 19.734 39.8407 20.0124C40.1994 20.2908 40.6325 20.4568 41.0854 20.4896C41.3885 20.5115 41.6929 20.4731 41.9811 20.3767C42.2693 20.2802 42.5356 20.1276 42.7645 19.9277C42.9934 19.7278 43.1804 19.4846 43.3147 19.212C43.4491 18.9394 43.528 18.6429 43.5471 18.3396Z" fill="white"/>
<path d="M51.137 21.9408C50.8683 20.941 49.4923 20.7905 48.2775 21.1023C45.9224 21.7924 43.4748 22.1151 41.0213 22.059C38.8713 21.9085 36.818 20.1348 35.5173 18.92C36.8073 17.4365 38.4628 15.8455 38.839 15.4048C39.1157 15.1241 39.2855 14.7555 39.3189 14.3628C39.3522 13.9701 39.2471 13.5781 39.0218 13.2548C38.5595 12.7925 37.7425 13.072 36.8718 13.6203C36.001 14.1685 32.9373 17.3075 29.9703 17.3075C27.0033 17.3075 23.789 14.1685 22.9613 13.6203C22.5992 13.3658 22.1675 13.2293 21.725 13.2293C21.2825 13.2293 20.8508 13.3658 20.4888 13.6203C20.0265 14.0825 20.4888 14.6953 21.037 15.3618C21.424 15.8133 23.187 17.5118 24.4448 18.9738C23.144 20.1778 21.1123 21.8655 19.0698 22.016C16.6162 22.0723 14.1687 21.7496 11.8135 21.0593C10.5988 20.7475 9.22277 20.898 8.95402 21.8978C8.93534 22.267 9.02777 22.6334 9.2194 22.9496C9.41103 23.2658 9.69304 23.5172 10.029 23.6715C10.7385 24.1338 14.4043 24.8433 15.404 26.4235C16.4038 28.0038 16.5973 40.205 17.554 40.6135C18.3879 40.9339 19.3109 40.9339 20.1448 40.6135C21.08 40.1405 22.6495 26.832 23.4343 25.1228C24.1499 23.8551 24.9966 22.6661 25.9605 21.5753C26.8098 25.5528 27.7343 40.3663 28.6265 40.6673C29.4635 40.9001 30.3481 40.9001 31.185 40.6673C32.0665 40.291 33.034 25.0798 33.894 21.3925C34.914 22.5352 35.8112 23.7819 36.5708 25.112C37.3663 26.8213 38.9358 40.162 39.8603 40.6028C40.6943 40.9221 41.617 40.9221 42.451 40.6028C43.4078 40.1943 43.526 27.993 44.601 26.4128C45.676 24.8325 49.2988 24.123 49.976 23.6608C50.312 23.5065 50.594 23.255 50.7856 22.9388C50.9773 22.6226 51.0697 22.2563 51.051 21.887L51.137 21.9408Z" fill="white"/>
<path d="M27.7554 13.4589C27.7554 13.004 27.8903 12.5592 28.1431 12.1809C28.3959 11.8025 28.7551 11.5077 29.1755 11.3336C29.5959 11.1594 30.0584 11.1139 30.5047 11.2027C30.9509 11.2914 31.3608 11.5105 31.6826 11.8322C32.0043 12.154 32.2234 12.5639 32.3122 13.0101C32.4009 13.4564 32.3554 13.919 32.1813 14.3393C32.0071 14.7597 31.7123 15.119 31.334 15.3717C30.9556 15.6245 30.5109 15.7594 30.0559 15.7594C29.4457 15.7594 28.8606 15.5171 28.4292 15.0856C27.9977 14.6542 27.7554 14.0691 27.7554 13.4589Z" fill="white"/>
<path d="M51.5991 13.6203C52.6741 15.394 50.3736 16.0605 48.5891 15.652C47.0949 15.308 32.3996 7.46051 30.1959 7.25626C27.9921 7.05201 14.7911 15.179 13.3291 15.9638C12.4178 16.4976 11.3807 16.779 10.3245 16.779C9.26831 16.779 8.23121 16.4976 7.31986 15.9638C6.67486 15.6198 1.62236 12.9645 0.547363 12.2228C1.62236 11.1478 16.9196 2.02101 18.7041 1.13951C20.7466 0.0645093 21.9291 -0.429991 24.2189 0.419259C25.7776 0.999759 51.0939 12.8893 51.5991 13.6203Z" fill="white"/>
<path d="M6.34149 25.0153C7.8187 25.5026 9.25627 26.1028 10.6415 26.8105C13.2107 28.1328 13.3505 29.455 13.6407 31.5943C13.931 33.7335 14.2212 38.1303 14.2642 39.7428C12.055 38.2701 9.95016 36.6466 7.96474 34.8838C7.19074 34.2065 6.30924 33.7228 6.31999 32.68C6.31999 32.2823 6.13724 25.9935 6.31999 25.0045L6.34149 25.0153Z" fill="white"/>
<path d="M126.925 31.433C127.306 31.4373 127.677 31.5546 127.991 31.7701C128.305 31.9856 128.548 32.2895 128.69 32.6433C128.831 32.9972 128.864 33.385 128.785 33.7577C128.706 34.1303 128.517 34.4711 128.244 34.7367C127.971 35.0023 127.625 35.1809 127.25 35.2497C126.876 35.3186 126.489 35.2746 126.139 35.1234C125.789 34.9722 125.492 34.7206 125.286 34.4004C125.079 34.0803 124.972 33.706 124.979 33.325C124.979 33.0705 125.029 32.8185 125.127 32.5836C125.225 32.3488 125.369 32.1357 125.55 31.9567C125.731 31.7777 125.946 31.6364 126.182 31.541C126.417 31.4456 126.67 31.3979 126.925 31.4008V31.433ZM126.925 34.9913C127.248 34.9997 127.567 34.9119 127.84 34.739C128.114 34.5661 128.33 34.3159 128.461 34.0201C128.592 33.7242 128.632 33.3961 128.577 33.0774C128.521 32.7586 128.372 32.4634 128.149 32.2294C127.926 31.9954 127.638 31.8329 127.322 31.7627C127.006 31.6925 126.676 31.7177 126.375 31.835C126.073 31.9524 125.813 32.1566 125.628 32.4219C125.442 32.6872 125.34 33.0015 125.334 33.325C125.325 33.5388 125.36 33.7521 125.436 33.9521C125.512 34.152 125.628 34.3345 125.777 34.4882C125.925 34.642 126.104 34.764 126.301 34.8468C126.498 34.9296 126.711 34.9714 126.925 34.9698V34.9913ZM126.505 34.4645H126.183V32.25H127.043C127.138 32.2268 127.237 32.2258 127.332 32.2471C127.427 32.2684 127.516 32.3114 127.592 32.3728C127.668 32.4342 127.729 32.5123 127.77 32.601C127.811 32.6897 127.83 32.7866 127.828 32.8843C127.832 32.9646 127.82 33.0449 127.792 33.1204C127.764 33.1959 127.722 33.265 127.666 33.3233C127.611 33.3817 127.544 33.4282 127.47 33.4599C127.396 33.4916 127.317 33.5079 127.236 33.5078L127.881 34.4968H127.527L126.914 33.5185H126.495V34.4968L126.505 34.4645ZM126.505 33.2175H127.032C127.387 33.2175 127.494 33.0885 127.494 32.8413C127.495 32.7912 127.485 32.7416 127.464 32.6959C127.443 32.6502 127.413 32.6096 127.375 32.5768C127.337 32.5441 127.293 32.52 127.245 32.5062C127.197 32.4925 127.146 32.4894 127.097 32.4973H126.495V33.2175H126.505Z" fill="white"/>
<path d="M61.8225 12.5237C61.7258 13.6524 61.7043 14.9639 61.7043 16.3722V19.0274C62.2095 19.0274 62.7148 19.0274 63.4565 19.0274C64.1983 19.0274 64.7035 19.0274 65.2088 19.0274V16.3722C65.2088 14.9639 65.2088 13.6524 65.0905 12.5237H69.455C69.2407 15.2629 69.1654 18.0113 69.2293 20.7582C69.1607 23.5156 69.2325 26.2748 69.4443 29.0249H65.0475C65.1443 27.8962 65.1658 26.5739 65.1658 25.1764V21.7687C64.6605 21.7687 64.1553 21.7687 63.4135 21.7687C62.6718 21.7687 62.1665 21.7687 61.6613 21.7687V25.1334C61.6613 26.5417 61.6613 27.8532 61.7795 28.9819H57.4473C57.662 26.2427 57.7373 23.4943 57.673 20.7474C57.7374 18.0006 57.662 15.2522 57.4473 12.5129H61.8225V12.5237Z" fill="white"/>
<path d="M71.4975 17.2753C72.2999 17.1705 73.1073 17.1094 73.9163 17.0925C78.6893 17.0925 80.1405 18.963 80.1405 22.0483V24.9293C80.0671 26.3176 80.2567 27.7072 80.6995 29.025H77.0338C76.8588 28.8109 76.724 28.5669 76.636 28.3048C75.8971 28.8784 74.9913 29.1954 74.056 29.2078C73.581 29.2388 73.1047 29.1716 72.6568 29.0102C72.209 28.8489 71.7992 28.5969 71.4532 28.27C71.1071 27.9431 70.8322 27.5484 70.6456 27.1104C70.4591 26.6725 70.3648 26.2008 70.3688 25.7248C70.3688 23.5748 72.0565 22.1665 74.2495 21.4248L76.163 20.8013C76.1581 20.5954 76.1108 20.3927 76.0238 20.2059C75.9369 20.0192 75.8123 19.8525 75.6578 19.7162C75.5034 19.5799 75.3224 19.477 75.1263 19.414C74.9302 19.351 74.7232 19.3292 74.5183 19.35C73.421 19.432 72.3714 19.8317 71.4975 20.5003V17.2753ZM76.507 22.9943C75.8966 23.0659 75.3293 23.3454 74.9006 23.7858C74.4719 24.2263 74.2078 24.8009 74.1528 25.413C74.1304 25.5882 74.1439 25.766 74.1925 25.9358C74.2411 26.1055 74.3237 26.2636 74.4353 26.4004C74.547 26.5372 74.6853 26.6498 74.8418 26.7314C74.9984 26.813 75.17 26.8619 75.346 26.875C75.5499 26.8669 75.75 26.818 75.9347 26.7313C76.1193 26.6445 76.2847 26.5216 76.421 26.3698V22.9943H76.507Z" fill="white"/>
<path d="M85.8378 12.5237V17.7375C86.5148 17.3326 87.2852 17.1104 88.0738 17.0925C90.2238 17.0925 92.3201 18.705 92.3201 22.9082C92.3201 26.1332 90.5463 29.2722 87.2676 29.2722C86.1726 29.241 85.1214 28.835 84.2898 28.122L82.9998 29.197L81.9248 28.5305C82.101 26.9675 82.1693 25.3943 82.1291 23.822V17.2C82.1291 16.3507 82.1291 15.4047 81.8926 12.4915H85.8593L85.8378 12.5237ZM85.8378 25.7677C85.8073 25.914 85.8099 26.0654 85.8456 26.2106C85.8813 26.3557 85.9491 26.4911 86.0439 26.6066C86.1388 26.7221 86.2584 26.8149 86.3939 26.8781C86.5294 26.9413 86.6773 26.9733 86.8268 26.9717C87.7728 26.9717 88.4393 26.0042 88.4393 23.263C88.4393 21.3065 87.9341 19.6187 86.7731 19.6187C86.646 19.6071 86.5178 19.6237 86.3978 19.6671C86.2778 19.7106 86.1688 19.7799 86.0785 19.8702C85.9883 19.9604 85.919 20.0694 85.8755 20.1894C85.8321 20.3095 85.8155 20.4376 85.8271 20.5647V25.8L85.8378 25.7677Z" fill="white"/>
<path d="M95.6094 12.3625C96.0198 12.3625 96.4209 12.4841 96.7621 12.7121C97.1033 12.9401 97.3692 13.2641 97.5262 13.6432C97.6833 14.0223 97.7244 14.4395 97.6443 14.842C97.5643 15.2444 97.3667 15.6141 97.0765 15.9043C96.7863 16.1944 96.4167 16.392 96.0142 16.4721C95.6117 16.5521 95.1946 16.5111 94.8155 16.354C94.4363 16.197 94.1123 15.9311 93.8843 15.5899C93.6564 15.2487 93.5347 14.8476 93.5347 14.4372C93.5333 14.1643 93.5859 13.8939 93.6897 13.6415C93.7935 13.3892 93.9462 13.1599 94.1392 12.967C94.3321 12.774 94.5614 12.6212 94.8138 12.5175C95.0661 12.4137 95.3366 12.361 95.6094 12.3625ZM97.5229 17.372C97.5229 18.5652 97.5229 20.3282 97.5229 22.8115C97.4382 24.8839 97.4921 26.9597 97.6842 29.025H93.5239C93.6998 27.462 93.7681 25.8888 93.7282 24.3165V22.0697C93.7682 20.4974 93.6999 18.9242 93.5239 17.3612H97.5122L97.5229 17.372Z" fill="white"/>
<path d="M103.887 13.8352C103.887 14.5447 103.812 15.91 103.812 17.3612H105.543V19.5757H103.823V25.3915C103.778 25.5766 103.777 25.7698 103.822 25.9552C103.866 26.1405 103.954 26.3126 104.078 26.4574C104.201 26.6023 104.358 26.7156 104.534 26.7882C104.71 26.8608 104.901 26.8905 105.091 26.875C105.252 26.885 105.414 26.885 105.575 26.875V28.9497C104.821 29.1897 104.033 29.3058 103.242 29.2937C102.772 29.3158 102.303 29.2305 101.871 29.0443C101.439 28.858 101.055 28.5757 100.748 28.2187C100.229 27.4119 99.994 26.4545 100.082 25.499V19.5757H98.7378V17.3612H100.071C100.071 15.91 100.071 14.5447 99.9955 13.8352H103.876H103.887Z" fill="white"/>
<path d="M107.811 17.2753C108.603 17.1717 109.399 17.1107 110.197 17.0925C114.97 17.0925 116.422 18.963 116.422 22.0483V24.9293C116.366 26.3095 116.571 27.6879 117.024 28.9928H113.422C113.25 28.7788 113.119 28.5346 113.035 28.2725C112.297 28.8461 111.391 29.1632 110.455 29.1755C109.98 29.2066 109.504 29.1393 109.056 28.978C108.608 28.8166 108.199 28.5646 107.853 28.2378C107.507 27.9109 107.232 27.5161 107.045 27.0782C106.858 26.6403 106.764 26.1685 106.768 25.6925C106.768 23.5425 108.456 22.1343 110.638 21.3925L112.552 20.769C112.543 20.5639 112.492 20.3627 112.401 20.1782C112.311 19.9937 112.184 19.8297 112.028 19.6966C111.871 19.5634 111.689 19.4639 111.493 19.4043C111.296 19.3447 111.089 19.3262 110.885 19.35C109.764 19.4378 108.694 19.8569 107.811 20.554V17.329V17.2753ZM112.82 22.9943C112.21 23.0659 111.643 23.3454 111.214 23.7858C110.785 24.2263 110.521 24.8009 110.466 25.413C110.444 25.5924 110.459 25.7746 110.511 25.9478C110.562 26.121 110.65 26.2816 110.767 26.4191C110.885 26.5567 111.029 26.6683 111.192 26.7468C111.355 26.8253 111.532 26.869 111.713 26.875C111.917 26.8669 112.117 26.818 112.302 26.7313C112.486 26.6445 112.652 26.5216 112.788 26.3698V22.9943H112.82Z" fill="white"/>
<path d="M122.71 13.8352C122.71 14.5447 122.646 15.91 122.646 17.3612H124.377V19.5757H122.646V25.3915C122.601 25.5766 122.601 25.7698 122.645 25.9552C122.689 26.1405 122.777 26.3126 122.901 26.4574C123.025 26.6023 123.181 26.7156 123.357 26.7882C123.533 26.8608 123.724 26.8905 123.914 26.875C124.075 26.885 124.237 26.885 124.398 26.875V28.9497C123.644 29.1897 122.856 29.3058 122.065 29.2937C121.595 29.3158 121.126 29.2305 120.694 29.0443C120.262 28.858 119.878 28.5757 119.571 28.2187C119.052 27.4119 118.817 26.4545 118.905 25.499V19.5757H117.561V17.3612H118.905C118.905 15.91 118.905 14.5447 118.83 13.8352H122.71Z" fill="white"/>
<path d="M61.1991 33.0025C61.0639 32.9174 60.9073 32.8726 60.7476 32.8735C60.6408 32.8716 60.5348 32.8921 60.4364 32.9338C60.3381 32.9755 60.2496 33.0373 60.1766 33.1153C60.1037 33.1933 60.0479 33.2858 60.0129 33.3867C59.9779 33.4877 59.9645 33.5948 59.9736 33.7012C59.9798 33.915 60.0234 34.126 60.1026 34.3247H61.0378V35.475H60.0488V38.0227C60.0266 38.8734 60.0626 39.7247 60.1563 40.5705H57.9096C58.0037 39.7247 58.0397 38.8734 58.0171 38.0227V35.475H57.3398V34.3247H58.0278V33.841C57.992 33.5178 58.0383 33.1907 58.1623 32.8901C58.2863 32.5895 58.4841 32.325 58.7373 32.121C59.2197 31.7578 59.8107 31.5684 60.4143 31.5835C60.6805 31.5818 60.9452 31.6217 61.1991 31.7017V33.0025Z" fill="white"/>
<path d="M66.9716 37.4744C67.0218 37.8882 66.9837 38.3079 66.8597 38.7058C66.7358 39.1038 66.5287 39.4709 66.2524 39.7828C65.976 40.0948 65.6365 40.3446 65.2565 40.5157C64.8764 40.6867 64.4643 40.7752 64.0476 40.7752C63.6308 40.7752 63.2187 40.6867 62.8386 40.5157C62.4586 40.3446 62.1191 40.0948 61.8427 39.7828C61.5664 39.4709 61.3594 39.1038 61.2354 38.7058C61.1114 38.3079 61.0733 37.8882 61.1236 37.4744C61.0733 37.0607 61.1114 36.641 61.2354 36.2431C61.3594 35.8451 61.5664 35.478 61.8427 35.1661C62.1191 34.8541 62.4586 34.6043 62.8386 34.4332C63.2187 34.2622 63.6308 34.1737 64.0476 34.1737C64.4643 34.1737 64.8764 34.2622 65.2565 34.4332C65.6365 34.6043 65.976 34.8541 66.2524 35.1661C66.5287 35.478 66.7358 35.8451 66.8597 36.2431C66.9837 36.641 67.0218 37.0607 66.9716 37.4744ZM63.3488 37.4744C63.3488 38.9902 63.6713 39.5277 64.0476 39.5277C64.4238 39.5277 64.7463 38.9902 64.7463 37.4744C64.7463 35.9587 64.4238 35.4749 64.0476 35.4749C63.6713 35.4749 63.3488 36.0124 63.3488 37.5282V37.4744Z" fill="white"/>
<path d="M69.6055 34.3247C69.69 34.5979 69.7476 34.8788 69.7775 35.1632C69.9452 34.884 70.177 34.6487 70.4536 34.4767C70.7302 34.3047 71.0438 34.201 71.3685 34.1742C71.4607 34.156 71.5557 34.156 71.648 34.1742V35.8405C71.5229 35.8264 71.3967 35.8264 71.2717 35.8405C70.3257 35.8405 69.9065 36.7112 69.9065 38.0872C69.884 38.9379 69.9199 39.7892 70.014 40.635H67.692C67.79 39.7894 67.8295 38.9382 67.8102 38.0872V36.8725C67.8482 36.0175 67.776 35.1612 67.5952 34.3247H69.6055Z" fill="white"/>
<path d="M78.302 31.7018C78.302 32.3145 78.2375 33.024 78.2375 33.7873V35.2278H79.1835H80.1295V33.7873C80.1295 33.024 80.1295 32.3145 80.065 31.7018H82.43C82.3117 33.1857 82.2686 34.6747 82.301 36.163C82.2686 37.6513 82.3117 39.1403 82.43 40.6243H80.0972C80.0972 40.0115 80.1617 39.302 80.1617 38.5388V36.7113C79.893 36.7113 79.6135 36.7113 79.2157 36.7113C78.818 36.7113 78.5385 36.7113 78.2697 36.7113V38.5388C78.2697 39.302 78.2697 40.0115 78.3342 40.6243H75.9692C76.0872 39.1403 76.1303 37.6513 76.0982 36.163C76.1303 34.6747 76.0873 33.1857 75.9692 31.7018H78.3342H78.302Z" fill="white"/>
<path d="M86.9988 40.6242C86.9186 40.4447 86.8573 40.2574 86.816 40.0652C86.615 40.2879 86.3696 40.4661 86.0956 40.5883C85.8216 40.7105 85.525 40.774 85.225 40.7747C84.9742 40.7766 84.726 40.7249 84.4967 40.6232C84.2675 40.5215 84.0626 40.372 83.8957 40.1848C83.7289 39.9976 83.6039 39.7769 83.5291 39.5376C83.4543 39.2982 83.4314 39.0456 83.462 38.7967V36.8725C83.4748 36.021 83.4282 35.1697 83.3223 34.3247H85.4723V38.5065C85.4494 38.5919 85.4453 38.6813 85.4603 38.7684C85.4753 38.8556 85.5089 38.9385 85.559 39.0114C85.609 39.0844 85.6742 39.1456 85.7502 39.1909C85.8261 39.2362 85.911 39.2646 85.9989 39.274C86.0869 39.2834 86.1758 39.2737 86.2596 39.2455C86.3435 39.2173 86.4202 39.1713 86.4845 39.1106C86.5489 39.0499 86.5994 38.9761 86.6325 38.894C86.6655 38.812 86.6805 38.7238 86.6763 38.6355V36.8725C86.6986 36.0217 86.6627 35.1705 86.5688 34.3247H88.8155C88.7174 35.1702 88.6779 36.0215 88.6973 36.8725V38.0765C88.678 38.9274 88.7175 39.7787 88.8155 40.6242H86.988H86.9988Z" fill="white"/>
<path d="M91.7504 34.3247C91.8325 34.5044 91.8973 34.6916 91.9439 34.8837C92.383 34.4482 92.9705 34.1947 93.5886 34.1742C93.8693 34.1801 94.1442 34.2559 94.3882 34.3948C94.6322 34.5337 94.8377 34.7313 94.9861 34.9697C95.2133 34.7278 95.486 34.533 95.7885 34.3965C96.091 34.26 96.4174 34.1845 96.7491 34.1742C97.9746 34.1742 98.4369 35.0342 98.4369 36.3242V38.1194C98.4151 38.9701 98.451 39.8214 98.5444 40.6672H96.2976C96.391 39.8214 96.4269 38.9701 96.4051 38.1194V36.3349C96.4051 35.8942 96.2761 35.5717 95.8891 35.5717C95.7934 35.5724 95.6989 35.5935 95.6118 35.6334C95.5248 35.6734 95.4472 35.7313 95.3843 35.8035C95.3213 35.8756 95.2743 35.9603 95.2464 36.0519C95.2186 36.1435 95.2105 36.24 95.2226 36.3349V38.0764C95.2033 38.9274 95.2428 39.7787 95.3409 40.6242H93.1049C93.2029 39.7787 93.2424 38.9274 93.2231 38.0764V36.3134C93.2231 35.9049 93.0941 35.5717 92.7071 35.5717C92.6196 35.5717 92.5329 35.5889 92.4521 35.6224C92.3712 35.6559 92.2977 35.705 92.2358 35.7669C92.1739 35.8288 92.1248 35.9023 92.0913 35.9831C92.0579 36.064 92.0406 36.1507 92.0406 36.2382V38.0764C92.018 38.9272 92.0539 39.7784 92.1481 40.6242H89.9014C89.9953 39.7784 90.0312 38.9271 90.0089 38.0764V36.8724C90.0312 36.0217 89.9953 35.1705 89.9014 34.3247H91.7504Z" fill="white"/>
<path d="M99.7593 34.2709C100.194 34.2155 100.632 34.1832 101.071 34.1742C103.662 34.1742 104.446 35.1847 104.446 36.8617V38.4204C104.422 39.1508 104.531 39.8795 104.769 40.5704H102.791C102.695 40.4563 102.622 40.3249 102.576 40.1834C102.175 40.4927 101.684 40.6626 101.178 40.6672C100.921 40.6834 100.662 40.6464 100.419 40.5585C100.177 40.4706 99.9545 40.3336 99.767 40.1561C99.5794 39.9787 99.4304 39.7644 99.3292 39.5269C99.228 39.2893 99.1768 39.0334 99.1788 38.7752C99.2325 38.2069 99.4723 37.6723 99.8611 37.2543C100.25 36.8364 100.766 36.5585 101.329 36.4639L102.404 36.1307C102.406 36.0163 102.384 35.9027 102.339 35.7975C102.294 35.6923 102.227 35.598 102.142 35.5207C102.058 35.4434 101.958 35.385 101.849 35.3493C101.74 35.3136 101.625 35.3015 101.512 35.3137C100.903 35.3621 100.323 35.5904 99.8453 35.9694V34.2709H99.7593ZM102.468 37.3669C102.135 37.4083 101.827 37.5637 101.596 37.8067C101.364 38.0497 101.225 38.3654 101.2 38.6999C101.191 38.7957 101.202 38.8923 101.231 38.9838C101.261 39.0753 101.309 39.1599 101.372 39.2323C101.436 39.3047 101.513 39.3634 101.6 39.405C101.687 39.4465 101.781 39.47 101.877 39.4739C101.991 39.4721 102.104 39.4462 102.208 39.3981C102.311 39.3499 102.404 39.2806 102.479 39.1944V37.3777L102.468 37.3669Z" fill="white"/>
<path d="M107.177 34.3247C107.256 34.5047 107.317 34.6919 107.359 34.8837C107.56 34.661 107.806 34.4828 108.08 34.3606C108.354 34.2384 108.65 34.175 108.95 34.1742C109.201 34.1724 109.449 34.224 109.679 34.3257C109.908 34.4275 110.113 34.5769 110.28 34.7641C110.447 34.9514 110.572 35.172 110.646 35.4114C110.721 35.6508 110.744 35.9033 110.713 36.1522V38.0765C110.694 38.9274 110.734 39.7787 110.832 40.6242H108.585C108.683 39.7787 108.722 38.9275 108.703 38.0765V36.3565C108.72 36.2745 108.72 36.1898 108.701 36.1082C108.682 36.0265 108.646 35.9499 108.595 35.8835C108.544 35.8171 108.479 35.7626 108.405 35.7236C108.331 35.6846 108.249 35.6622 108.166 35.6577C108.082 35.6534 107.999 35.6655 107.92 35.6935C107.842 35.7214 107.769 35.7645 107.707 35.8205C107.646 35.8764 107.595 35.944 107.56 36.0193C107.524 36.0947 107.503 36.1764 107.499 36.2597V38.0872C107.477 38.9379 107.513 39.7891 107.607 40.635H105.349C105.443 39.7892 105.478 38.9379 105.457 38.0872V36.8725C105.478 36.0218 105.443 35.1706 105.349 34.3247H107.177Z" fill="white"/>
<path d="M112.68 31.6157C112.893 31.6157 113.101 31.6788 113.278 31.7969C113.454 31.915 113.592 32.0829 113.674 32.2793C113.755 32.4758 113.776 32.6919 113.735 32.9004C113.693 33.109 113.591 33.3005 113.441 33.4509C113.29 33.6012 113.099 33.7036 112.89 33.7451C112.682 33.7865 112.466 33.7653 112.269 33.6839C112.073 33.6025 111.905 33.4647 111.787 33.288C111.669 33.1112 111.605 32.9033 111.605 32.6907C111.605 32.4056 111.719 32.1322 111.92 31.9306C112.122 31.729 112.395 31.6157 112.68 31.6157ZM113.755 34.3247C113.755 34.9697 113.755 35.9265 113.755 37.2702C113.717 38.3894 113.753 39.5099 113.863 40.6242H111.616C111.71 39.7784 111.746 38.9272 111.724 38.0765V36.8725C111.746 36.0218 111.71 35.1705 111.616 34.3247H113.766H113.755Z" fill="white"/>
<path d="M117.282 32.4113C117.282 32.7983 117.282 33.4863 117.282 34.3248H118.217V35.475H117.282V38.7C117.26 38.7998 117.261 38.9033 117.286 39.0023C117.311 39.1014 117.359 39.1932 117.426 39.2705C117.493 39.3477 117.577 39.4083 117.671 39.4474C117.766 39.4865 117.868 39.5029 117.97 39.4955H118.228V40.5705C117.818 40.6996 117.389 40.7613 116.959 40.7533C116.704 40.7618 116.451 40.7119 116.218 40.6076C115.985 40.5033 115.779 40.3472 115.616 40.1513C115.333 39.7148 115.204 39.1964 115.25 38.6785V35.475H114.498V34.3248H115.218C115.218 33.54 115.218 32.7983 115.218 32.4113H117.368H117.282Z" fill="white"/>
<path d="M120.947 34.3247C121.184 35.5252 121.482 36.7128 121.84 37.883C122.156 36.713 122.4 35.5247 122.571 34.3247H124.355C123.827 36.6552 123.108 38.9383 122.205 41.151C122.003 41.7079 121.631 42.1868 121.14 42.5189C120.65 42.8511 120.067 43.0195 119.475 43C119.272 43.0041 119.07 42.9824 118.873 42.9355V41.3337C119.087 41.45 119.327 41.5127 119.571 41.5165C119.844 41.5171 120.107 41.4143 120.306 41.2287C120.506 41.0431 120.627 40.7886 120.646 40.5167C120.555 39.9216 120.37 39.3448 120.098 38.8075C119.541 37.3518 119.106 35.8524 118.797 34.3247H120.947Z" fill="white"/>
</g>
<defs>
<clipPath id="clip0_771_4467">
<rect width="129" height="43" fill="white" transform="translate(0.547363)"/>
</clipPath>
</defs>
</svg>
