<svg xmlns="http://www.w3.org/2000/svg" xmlns:xlink="http://www.w3.org/1999/xlink" width="108px" height="101px" viewBox="0 0 108 101" version="1.1">
    <!-- Generator: Sketch 51.2 (57519) - http://www.bohemiancoding.com/sketch -->
    <title>Group</title>
    <desc>Created with Sketch.</desc>
    <defs/>
    <g id="Landing-Page" stroke="none" stroke-width="1" fill="none" fill-rule="evenodd">
        <g id="ISLI_design_D1" transform="translate(-154.000000, 0.000000)">
            <g id="Group-6" transform="translate(150.000000, -5.000000)">
                <g id="Group-2" style="mix-blend-mode: multiply;" transform="translate(4.000000, 3.000000)">
                    <g id="Group">
                        <!-- <rect id="Rectangle-Copy-8" fill="#230b42" fill-rule="nonzero" x="0" y="0" width="108" height="103"></rect> -->
                        <g id="ISLI-Logo-ForSM_New" transform="translate(12.358209, 11.863874)">
                            <polygon id="Shape" fill="#230b42" points="14.5074627 28.2204912 22.0137597 47.9947644 34.3880597 21.0314136"/>
                            <polygon id="Shape" fill="#230b42" points="15.5820896 66.3298429 33.3134328 59.339057 26.2608976 40.9842932"/>
                            <polygon id="Shape" fill="#230b42" points="16.119403 10.3636866 26.4972281 14.0209424 30.0895522 3.65725583 19.7117271 0"/>
                            <polygon id="Shape" fill="#230b42" points="11.2835821 16.1542516 25.185923 23.7277487 34.3880597 20.4367093 20.93183 12.9424084"/>
                            <polygon id="Shape" fill="#230b42" points="14.2047773 27.5026178 24.1791045 23.8401692 10.7462687 16.7172775"/>
                            <polygon id="Shape" fill="#230b42" points="2.14925373 22.6652779 7.94677216 31.2774869 10.7462687 16.7172775"/>
                            <polygon id="Shape" fill="#230b42" points="34.3880597 22.1099476 42.4477612 19.3137483 39.4239235 11.3246073"/>
                            <path d="M78.4020412,43.4112971 L81.6716418,43.4112971 L81.6716418,24.538321 L78.4020412,24.538321 L78.4020412,43.4112971 Z M61.7743631,43.4112971 L74.8152835,43.4112971 L74.8152835,40.391621 L65.0410805,40.391621 L65.0410805,24.538321 L61.7743631,24.538321 L61.7743631,43.4112971 Z M51.2793488,43.6804931 C55.1861467,43.6804931 57.9108139,41.5766683 57.9108139,38.0449346 L57.9108139,37.9922658 C57.9108139,34.8643261 55.8925419,33.4364172 51.9597947,32.464971 C48.3730371,31.5871581 47.5224796,30.9551329 47.5224796,29.4979635 L47.5224796,29.4452948 C47.5224796,28.2046526 48.6382957,27.206872 50.5498876,27.206872 C52.2510026,27.206872 53.9261683,27.8827879 55.5984508,29.1497644 L57.3514642,26.6421457 C55.4529607,25.0606265 53.0603681,24.2190903 50.6046693,24.269125 C46.9112315,24.269125 44.2615287,26.5075478 44.2615287,29.7408251 L44.2615287,29.7964199 C44.2615287,33.2725588 46.4931609,34.4605322 50.4518572,35.4290523 C53.9117521,36.2395662 54.6469797,36.9681509 54.6469797,38.3141306 L54.6469797,38.3697254 C54.6469797,39.7712999 53.3725851,40.7398201 51.3543131,40.7398201 C49.0678993,40.7398201 47.2629875,39.8620072 45.4840249,38.2877962 L43.5234178,40.6608169 C45.6452097,42.617008 48.4127528,43.6945168 51.2793488,43.6804931 Z M36.5373134,43.4112971 L39.8040308,43.4112971 L39.8040308,24.538321 L36.5373134,24.538321 L36.5373134,43.4112971 Z" id="Shape" fill="#230b42"/>
                            <path d="M55.6216954,57.6587422 L57.7245302,57.6587422 L57.7245302,57.2218912 L56.1156305,57.2218912 L56.1156305,56.4738196 L57.5396656,56.4738196 L57.5396656,56.0398238 L56.130073,56.0398238 L56.130073,55.3174494 L57.7187532,55.3174494 L57.7187532,54.8805984 L55.6361379,54.8805984 L55.6216954,57.6587422 Z M53.7095021,57.6587422 L54.2092142,57.6587422 L54.2092142,55.3317255 L55.0988751,55.3317255 L55.0988751,54.8805984 L52.8198412,54.8805984 L52.8198412,55.3317255 L53.7095021,55.3317255 L53.7095021,57.6587422 Z M51.1329517,57.7015707 C51.8666331,57.7015707 52.3403486,57.2847064 52.3403486,56.4538329 L52.3403486,54.8805984 L51.8464135,54.8805984 L51.8464135,56.47953 C51.8464135,56.9906171 51.5777821,57.2475883 51.1416172,57.2475883 C50.7054523,57.2475883 50.4310439,56.976341 50.4310439,56.4595434 L50.4310439,54.8805984 L49.9371088,54.8805984 L49.9371088,56.47953 C49.9371088,57.2847064 50.4021588,57.6987154 51.1329517,57.6987154 L51.1329517,57.7015707 Z M48.0682431,57.6587422 L48.5679553,57.6587422 L48.5679553,55.3317255 L49.4518392,55.3317255 L49.4518392,54.8805984 L47.1728052,54.8805984 L47.1728052,55.3317255 L48.0624661,55.3317255 L48.0682431,57.6587422 Z M46.1329418,57.6587422 L46.6268769,57.6587422 L46.6268769,54.8805984 L46.1329418,54.8805984 L46.1329418,57.6587422 Z M44.194752,57.6587422 L44.6915756,57.6587422 L44.6915756,55.3317255 L45.584125,55.3317255 L45.584125,54.8805984 L43.3022026,54.8805984 L43.3022026,55.3317255 L44.194752,55.3317255 L44.194752,57.6587422 Z M41.9792652,57.6987154 C42.5569671,57.6987154 42.981578,57.3874948 42.981578,56.867842 C42.981578,56.4081492 42.6927271,56.1968618 42.0832516,56.0541 C41.5402118,55.9284697 41.4131174,55.8313917 41.4131174,55.617249 C41.4131174,55.434514 41.5806509,55.2860418 41.8695019,55.2860418 C42.1484315,55.2962603 42.4162883,55.3965524 42.6320684,55.5715653 L42.8978112,55.20324 C42.6106644,54.9709404 42.249145,54.8474353 41.8781674,54.8549013 C41.3206851,54.8549013 40.9191823,55.1832533 40.9191823,55.6600776 C40.9191823,56.1711647 41.2571379,56.345334 41.8550593,56.4880958 C42.374991,56.6080156 42.4876429,56.7136593 42.4876429,56.9135258 C42.4876429,57.1191027 42.2970013,57.2618645 41.9908193,57.2618645 C41.6597156,57.2577064 41.3426396,57.12907 41.1040469,56.9021048 L40.8151959,57.2504435 C41.1333489,57.5377182 41.5483576,57.6975341 41.9792652,57.6987154 Z M37.8227001,57.6587422 L38.3079697,57.6587422 L38.3079697,55.6800642 L39.8590993,57.6587422 L40.2721561,57.6587422 L40.2721561,54.8805984 L39.7868866,54.8805984 L39.7868866,56.7993164 L38.2819731,54.8805984 L37.8227001,54.8805984 L37.8227001,57.6587422 Z M36.5777526,57.6587422 L37.0716877,57.6587422 L37.0716877,54.8805984 L36.5777526,54.8805984 L36.5777526,57.6587422 Z M61.005877,51.5628152 L61.005877,50.5606276 L61.5835789,50.5606276 C61.9533081,50.5606276 62.1901658,50.7319418 62.1901658,51.0574386 C62.1901658,51.3429621 61.9561966,51.5542495 61.5835789,51.5542495 L61.005877,51.5628152 Z M60.5119418,52.89621 L61.005877,52.89621 L61.005877,52.0025214 L61.5835789,52.0025214 C62.2017199,52.0025214 62.7100975,51.6770246 62.7100975,51.0545833 C62.7100975,50.4835363 62.2999292,50.1266319 61.641349,50.1266319 L60.5321614,50.1266319 L60.5119418,52.89621 Z M59.2669943,52.89621 L59.7609294,52.89621 L59.7609294,50.1180662 L59.2727713,50.1180662 L59.2669943,52.89621 Z M56.1878432,52.89621 L56.6817783,52.89621 L56.6817783,51.7255636 L58.0220467,51.7255636 L58.0220467,52.89621 L58.5159818,52.89621 L58.5159818,50.1180662 L58.0220467,50.1180662 L58.0220467,51.2601602 L56.6817783,51.2601602 L56.6817783,50.1180662 L56.1878432,50.1180662 L56.1878432,52.89621 Z M54.6020515,52.9361833 C55.1797534,52.9361833 55.6072528,52.6249626 55.6072528,52.1053098 C55.6072528,51.645617 55.3010708,51.4343296 54.7060379,51.2915678 C54.1658866,51.1659375 54.0359037,51.0688595 54.0359037,50.8547169 C54.0359037,50.6719818 54.2034372,50.5235096 54.4951767,50.5235096 C54.7739787,50.5343502 55.0416417,50.6345698 55.2577432,50.8090331 L55.5205975,50.4407078 C55.2337028,50.2079624 54.8720115,50.0843986 54.5009537,50.0923691 C53.9434714,50.0923691 53.5419686,50.4207211 53.5419686,50.8975454 C53.5419686,51.4086325 53.8799242,51.5828018 54.4778456,51.7255636 C55.0006658,51.8454834 55.1133177,51.9511271 55.1133177,52.1509936 C55.1133177,52.3565705 54.9197876,52.4993323 54.6136056,52.4993323 C54.2826197,52.4946042 53.9657471,52.3660504 53.7268332,52.1395727 L53.4379822,52.4879114 C53.7590776,52.7778461 54.1787122,52.9378551 54.6136056,52.9361833 L54.6020515,52.9361833 Z M51.2109414,51.5085657 L51.2109414,50.5606276 L51.9272918,50.5606276 C52.2941325,50.5606276 52.5049937,50.723376 52.5049937,51.0231757 C52.5049937,51.3086992 52.2796899,51.4885791 51.9272918,51.4885791 L51.2109414,51.5085657 Z M50.7170063,52.9104861 L51.2109414,52.9104861 L51.2109414,51.9397062 L51.8290824,51.9397062 L52.5194362,52.9104861 L53.0971381,52.9104861 L52.3374601,51.8569044 C52.7357085,51.7729865 53.016443,51.4198039 53.0047058,51.0174653 C53.0083967,50.7951579 52.9244955,50.5801422 52.7707365,50.4178659 C52.5486471,50.2209606 52.2570673,50.1183909 51.9590654,50.1323424 L50.7083408,50.1323424 L50.7170063,52.9104861 Z M48.0249155,52.9104861 L50.1306389,52.9104861 L50.1306389,52.4736352 L48.5188506,52.4736352 L48.5188506,51.7027217 L49.9284432,51.7027217 L49.9284432,51.268726 L48.5188506,51.268726 L48.5188506,50.5606276 L50.1104193,50.5606276 L50.1104193,50.1237767 L48.0364695,50.1237767 L48.0249155,52.9104861 Z M45.9451887,50.5606276 C46.2048312,50.546001 46.4586949,50.6401698 46.6445017,50.8200325 C46.8303085,50.9998951 46.9308659,51.2488091 46.9215049,51.5057105 C46.9301743,51.7616657 46.8290882,52.0093372 46.6431589,52.1876872 C46.4572296,52.3660371 46.2037498,52.4584778 45.9451887,52.4422276 L45.3905949,52.4422276 L45.3905949,50.5606276 L45.9451887,50.5606276 Z M44.8966598,52.89621 L45.9451887,52.89621 C46.3330435,52.9198729 46.7135234,52.7838886 46.9963842,52.5205108 C47.279245,52.2571329 47.4392861,51.8898262 47.4385481,51.5057105 C47.4377953,51.1230416 47.2768809,50.757739 46.9939955,50.4965017 C46.7111101,50.2352644 46.3314742,50.1013829 45.9451887,50.1266319 L44.8966598,50.1266319 L44.8966598,52.89621 Z M42.4616463,51.791234 L42.9411389,50.6805475 L43.429297,51.791234 L42.4616463,51.791234 Z M41.4853301,52.89621 L41.9908193,52.89621 L42.2796702,52.2252297 L43.6083846,52.2252297 L43.8972355,52.89621 L44.4171672,52.89621 L43.1808852,50.0980796 L42.7216122,50.0980796 L41.4853301,52.89621 Z M39.0358741,52.89621 L41.138709,52.89621 L41.138709,52.459359 L39.5298092,52.459359 L39.5298092,51.7027217 L40.9394018,51.7027217 L40.9394018,51.268726 L39.5298092,51.268726 L39.5298092,50.5606276 L41.1184894,50.5606276 L41.1184894,50.1237767 L39.0358741,50.1237767 L39.0358741,52.89621 Z M36.5488675,52.89621 L38.5217194,52.89621 L38.5217194,52.4507933 L37.0312485,52.4507933 L37.0312485,50.1180662 L36.5373134,50.1180662 L36.5488675,52.89621 Z M65.1942157,48.1336778 L67.1641791,48.1336778 L67.1641791,47.6882611 L65.6881508,47.6882611 L65.6881508,45.355534 L65.1942157,45.355534 L65.1942157,48.1336778 Z M63.1289314,47.7282344 C62.8687098,47.7268567 62.6201564,47.6213169 62.4399987,47.4357024 C62.2598411,47.2500878 62.1634536,47.0002388 62.1728348,46.7431783 C62.1618046,46.4871902 62.2570364,46.2378568 62.4364654,46.0529474 C62.6158944,45.868038 62.8639484,45.7636006 63.1231544,45.7638326 C63.3833935,45.7659538 63.6316568,45.8722212 63.811274,46.0583777 C63.9908912,46.2445342 64.0865312,46.4946904 64.0763625,46.751744 C64.0873936,47.0069746 63.9924666,47.2555822 63.8135792,47.4399564 C63.6346917,47.6243306 63.3873718,47.7284672 63.1289314,47.7282344 Z M63.1289314,48.1793616 C63.5169515,48.1870341 63.8917679,48.0400188 64.168898,47.7714525 C64.446028,47.5028861 64.6021489,47.135371 64.6020712,46.751744 C64.6020712,45.9491005 63.9438173,45.2984293 63.1318199,45.2984293 C62.3198225,45.2984293 61.6615686,45.9491005 61.6615686,46.751744 C61.6567464,47.1348036 61.8097587,47.5033246 62.0854301,47.7725892 C62.3611015,48.0418539 62.7357158,48.188697 63.1231544,48.1793616 L63.1289314,48.1793616 Z M59.7233788,47.7282344 C59.4631571,47.7268567 59.2146038,47.6213169 59.0344461,47.4357024 C58.8542884,47.2500878 58.7579009,47.0002388 58.7672821,46.7431783 C58.7562728,46.4876852 58.8511152,46.2387981 59.0299132,46.0539773 C59.2087111,45.8691565 59.4560089,45.7643783 59.7147132,45.7638326 C59.9751976,45.7659789 60.2237342,45.8721561 60.4038055,46.0582194 C60.5838769,46.2442827 60.680178,46.4944179 60.6708099,46.751744 C60.6818902,47.0079692 60.5861852,47.257476 60.4060326,47.4420289 C60.2258799,47.6265818 59.9770433,47.7300322 59.7176017,47.7282344 L59.7233788,47.7282344 Z M59.7233788,48.1793616 C60.1113989,48.1870341 60.4862153,48.0400188 60.7633453,47.7714525 C61.0404754,47.5028861 61.1965962,47.135371 61.1965186,46.751744 C61.161659,45.9749089 60.5143725,45.3628305 59.7277115,45.3628305 C58.9410506,45.3628305 58.293764,45.9749089 58.2589045,46.751744 C58.2533622,47.13302 58.4045428,47.500206 58.6778596,47.769298 C58.9511764,48.0383899 59.3232421,48.186362 59.7089362,48.1793616 L59.7233788,48.1793616 Z M55.3299559,48.1336778 L55.80656,48.1336778 L55.80656,46.9630314 L57.1497169,46.9630314 L57.1497169,48.1336778 L57.643652,48.1336778 L57.643652,45.355534 L57.1497169,45.355534 L57.1497169,46.4976281 L55.80656,46.4976281 L55.80656,45.355534 L55.3155134,45.355534 L55.3299559,48.1336778 Z M53.6719515,48.1793616 C54.1077744,48.1943262 54.5271033,48.0138357 54.8129127,47.6882611 L54.4951767,47.37133 C54.2891561,47.5968699 53.9966939,47.7263919 53.6892825,47.7282344 C53.4327918,47.723166 53.1893445,47.6154983 53.0145923,47.4298442 C52.8398402,47.2441901 52.7487234,46.9964216 52.762071,46.7431783 C52.7495201,46.4906875 52.8410834,46.2439574 53.0158324,46.0593828 C53.1905815,45.8748082 53.4335787,45.7681665 53.6892825,45.7638326 C53.9872287,45.7711492 54.2699558,45.8954724 54.4749571,46.1093161 L54.7926931,45.7467012 C54.5037826,45.4559985 54.1041079,45.299422 53.692171,45.3155607 C53.3074705,45.3101219 52.9369131,45.4587841 52.6648609,45.7277023 C52.3928087,45.9966206 52.2424141,46.3629093 52.2479163,46.7431783 C52.2378061,47.1196335 52.3816547,47.4842214 52.6469378,47.7545089 C52.9122209,48.0247963 53.2765351,48.1779571 53.6575089,48.1793616 L53.6719515,48.1793616 Z M50.783442,48.1793616 C51.3611439,48.1793616 51.7886433,47.8681409 51.7886433,47.3484881 C51.7886433,46.8887953 51.4824613,46.6775079 50.8903169,46.5347461 C50.3472771,46.4091158 50.2172942,46.3120378 50.2172942,46.0978952 C50.2172942,45.9151601 50.3877162,45.7666879 50.6765672,45.7666879 C50.9553692,45.7775285 51.2230323,45.8777481 51.4391337,46.0522114 L51.7048765,45.6838861 C51.4174801,45.4520288 51.0561304,45.3285817 50.6852327,45.3355474 C50.1248619,45.3355474 49.7233591,45.6638994 49.7233591,46.1407237 C49.7233591,46.6518108 50.0613147,46.8259801 50.6592361,46.9687419 C51.1820563,47.0886617 51.2947082,47.1943054 51.2947082,47.3941719 C51.2947082,47.5997488 51.1011781,47.7425106 50.7978846,47.7425106 C50.4660717,47.7376533 50.1483413,47.60917 49.9082237,47.382751 L49.6193727,47.7310896 C49.9339502,48.0123536 50.3419554,48.1698154 50.766111,48.1736511 L50.783442,48.1793616 Z M46.1618269,47.0372675 L46.644208,45.926581 L47.1294776,47.0372675 L46.1618269,47.0372675 Z M45.1855107,48.1422435 L45.6938884,48.1422435 L45.9827393,47.4712632 L47.3114537,47.4712632 L47.6003046,48.1422435 L48.1231248,48.1422435 L46.8521807,45.3355474 L46.3957962,45.3355474 L45.1855107,48.1422435 Z M44.1831979,48.1422435 L44.6771331,48.1422435 L44.6771331,45.3640997 L44.1831979,45.3640997 L44.1831979,48.1422435 Z M42.063032,45.8066612 C42.3226745,45.7920345 42.5765382,45.8862033 42.762345,46.066066 C42.9481518,46.2459287 43.0487092,46.4948426 43.0393482,46.751744 C43.0480176,47.0076993 42.9469315,47.2553708 42.7610022,47.4337207 C42.5750729,47.6120707 42.3215931,47.7045114 42.063032,47.6882611 L41.5084382,47.6882611 L41.5084382,45.7980955 L42.063032,45.8066612 Z M41.0145031,48.1422435 L42.063032,48.1422435 C42.4508868,48.1659064 42.8313667,48.0299222 43.1142275,47.7665443 C43.3970883,47.5031664 43.5571294,47.1358597 43.5563914,46.751744 C43.5556386,46.3690751 43.3947242,46.0037725 43.1118388,45.7425352 C42.8289534,45.4812979 42.4493175,45.3474164 42.063032,45.3726654 L41.0145031,45.3726654 L41.0145031,48.1422435 Z M37.8371427,48.1422435 L38.3224123,48.1422435 L38.3224123,46.1635656 L39.8735418,48.1422435 L40.2865987,48.1422435 L40.2865987,45.3640997 L39.8013291,45.3640997 L39.8013291,47.2828177 L38.2964157,45.3640997 L37.8371427,45.3640997 L37.8371427,48.1422435 Z M36.5921951,48.1422435 L37.0861302,48.1422435 L37.0861302,45.3640997 L36.5921951,45.3640997 L36.5921951,48.1422435 Z" id="Shape" fill="#230b42"/>
                        </g>
                    </g>
                </g>
            </g>
        </g>
    </g>
</svg>