<svg width="129" height="50" viewBox="0 0 129 50" fill="none" xmlns="http://www.w3.org/2000/svg">
<path d="M63.2338 24.3283L63.2239 20.1492L61.1741 23.592H60.4477L58.4079 20.2388V24.3283H56.8955V17.3632H58.2288L60.8358 21.6915L63.403 17.3632H64.7264L64.7463 24.3283H63.2338Z" fill="white"/>
<path d="M68.4489 18.8955C69.2777 18.8955 69.9145 19.0945 70.3593 19.4925C70.8036 19.8839 71.026 20.4776 71.026 21.2736V24.3283H69.5732V23.6617C69.2812 24.1592 68.7374 24.4079 67.9414 24.4079C67.53 24.4079 67.1718 24.3383 66.8668 24.199C66.5683 24.0597 66.3394 23.8673 66.1802 23.6219C66.021 23.3765 65.9414 23.0978 65.9414 22.7861C65.9414 22.2885 66.127 21.8972 66.4986 21.6119C66.8767 21.3267 67.4568 21.1841 68.2399 21.1841H69.4737C69.4737 20.8458 69.3708 20.5871 69.1653 20.4079C68.9593 20.2222 68.6509 20.1293 68.2399 20.1293C67.9543 20.1293 67.6727 20.1758 67.3941 20.2686C67.122 20.3549 66.8897 20.4743 66.6976 20.6269L66.1404 19.5423C66.432 19.3367 66.7802 19.1774 67.1852 19.0647C67.5961 18.9519 68.0175 18.8955 68.4489 18.8955ZM68.3295 23.3632C68.5946 23.3632 68.83 23.3035 69.0359 23.1841C69.2414 23.058 69.3872 22.8756 69.4737 22.6368V22.0895H68.4091C67.7723 22.0895 67.4538 22.2985 67.4538 22.7164C67.4538 22.9154 67.53 23.0746 67.6827 23.194C67.8419 23.3068 68.0573 23.3632 68.3295 23.3632Z" fill="white"/>
<path d="M75.6839 18.8955C76.3476 18.8955 76.8814 19.0945 77.2859 19.4925C77.6973 19.8905 77.9028 20.4809 77.9028 21.2637V24.3283H76.3506V21.5025C76.3506 21.0779 76.258 20.7628 76.072 20.5572C75.8864 20.3449 75.6177 20.2388 75.266 20.2388C74.875 20.2388 74.563 20.3615 74.3307 20.607C74.0988 20.8458 73.9824 21.204 73.9824 21.6816V24.3283H72.4302V18.9751H73.9128V19.602C74.1187 19.3765 74.374 19.204 74.6789 19.0846C74.9844 18.9585 75.3192 18.8955 75.6839 18.8955Z" fill="white"/>
<path d="M82.5638 18.8955C83.2275 18.8955 83.7613 19.0945 84.1658 19.4925C84.5772 19.8905 84.7827 20.4809 84.7827 21.2637V24.3283H83.2305V21.5025C83.2305 21.0779 83.1379 20.7628 82.9518 20.5572C82.7663 20.3449 82.4976 20.2388 82.1459 20.2388C81.7548 20.2388 81.4429 20.3615 81.2106 20.607C80.9787 20.8458 80.8623 21.204 80.8623 21.6816V24.3283H79.3101V18.9751H80.7926V19.602C80.9986 19.3765 81.2538 19.204 81.5588 19.0846C81.8643 18.9585 82.1991 18.8955 82.5638 18.8955Z" fill="white"/>
<path d="M89.1172 17.3632H92.2814C93.0376 17.3632 93.7043 17.5091 94.2814 17.801C94.865 18.0862 95.3162 18.4909 95.6346 19.0149C95.9595 19.5389 96.1222 20.1492 96.1222 20.8457C96.1222 21.5423 95.9595 22.1526 95.6346 22.6766C95.3162 23.2006 94.865 23.6086 94.2814 23.9005C93.7043 24.1857 93.0376 24.3283 92.2814 24.3283H89.1172V17.3632ZM92.2018 23.005C92.8983 23.005 93.452 22.8126 93.8635 22.4278C94.2814 22.0364 94.4903 21.5091 94.4903 20.8457C94.4903 20.1824 94.2814 19.6583 93.8635 19.2736C93.452 18.8822 92.8983 18.6865 92.2018 18.6865H90.7291V23.005H92.2018Z" fill="white"/>
<path d="M102.472 21.6716C102.472 21.6915 102.462 21.8308 102.443 22.0895H98.3928C98.4659 22.4212 98.638 22.6832 98.9102 22.8756C99.1823 23.068 99.5206 23.1642 99.9251 23.1642C100.204 23.1642 100.449 23.1244 100.661 23.0448C100.88 22.9585 101.083 22.8259 101.268 22.6468L102.094 23.5423C101.59 24.1194 100.854 24.4079 99.8853 24.4079C99.2818 24.4079 98.7475 24.2919 98.2833 24.0597C97.8191 23.8209 97.4609 23.4925 97.2087 23.0746C96.9564 22.6567 96.8306 22.1824 96.8306 21.6517C96.8306 21.1277 96.9534 20.6567 97.1987 20.2388C97.451 19.8143 97.7923 19.4859 98.2236 19.2537C98.6614 19.0149 99.149 18.8955 99.6863 18.8955C100.21 18.8955 100.685 19.0083 101.109 19.2338C101.534 19.4593 101.865 19.7844 102.104 20.2089C102.349 20.6269 102.472 21.1144 102.472 21.6716ZM99.6962 20.0696C99.3445 20.0696 99.0495 20.1691 98.8107 20.3681C98.5719 20.5671 98.4261 20.8391 98.3729 21.1841H101.01C100.956 20.8458 100.811 20.5771 100.572 20.3781C100.333 20.1725 100.041 20.0696 99.6962 20.0696Z" fill="white"/>
<path d="M105.307 24.4079C104.862 24.4079 104.428 24.3549 104.003 24.2487C103.579 24.136 103.241 23.9967 102.988 23.8308L103.506 22.7164C103.744 22.869 104.033 22.995 104.371 23.0945C104.71 23.1874 105.042 23.2338 105.366 23.2338C106.023 23.2338 106.351 23.0713 106.351 22.7463C106.351 22.5937 106.262 22.4842 106.083 22.4179C105.904 22.3516 105.629 22.2952 105.257 22.2487C104.819 22.1824 104.458 22.1061 104.172 22.0199C103.887 21.9337 103.639 21.7811 103.426 21.5622C103.221 21.3433 103.118 21.0315 103.118 20.6269C103.118 20.2885 103.214 19.99 103.406 19.7313C103.605 19.466 103.891 19.2603 104.262 19.1144C104.64 18.9685 105.085 18.8955 105.595 18.8955C105.973 18.8955 106.348 18.9386 106.72 19.0249C107.098 19.1045 107.41 19.2173 107.655 19.3632L107.138 20.4676C106.667 20.2023 106.152 20.0696 105.595 20.0696C105.264 20.0696 105.015 20.1161 104.849 20.2089C104.683 20.3018 104.6 20.4212 104.6 20.5671C104.6 20.733 104.69 20.8491 104.869 20.9154C105.048 20.9817 105.334 21.0448 105.725 21.1045C106.162 21.1774 106.521 21.2571 106.799 21.3433C107.078 21.4229 107.32 21.5721 107.526 21.791C107.732 22.0099 107.834 22.3151 107.834 22.7065C107.834 23.0381 107.735 23.3333 107.536 23.592C107.337 23.8507 107.045 24.0531 106.66 24.199C106.282 24.3383 105.831 24.4079 105.307 24.4079Z" fill="white"/>
<path d="M112.045 18.8955C112.709 18.8955 113.243 19.0945 113.647 19.4925C114.059 19.8905 114.264 20.4809 114.264 21.2637V24.3283H112.712V21.5025C112.712 21.0779 112.619 20.7628 112.433 20.5572C112.248 20.3449 111.979 20.2388 111.627 20.2388C111.236 20.2388 110.924 20.3615 110.692 20.6069C110.46 20.8457 110.344 21.204 110.344 21.6816V24.3283H108.792V16.9453H110.344V19.5323C110.55 19.3267 110.798 19.1708 111.09 19.0647C111.382 18.9519 111.7 18.8955 112.045 18.8955Z" fill="white"/>
<path d="M115.671 18.9751H117.223V24.3283H115.671V18.9751ZM116.447 18.2288C116.162 18.2288 115.93 18.1459 115.751 17.9801C115.571 17.8143 115.482 17.6086 115.482 17.3632C115.482 17.1177 115.571 16.9121 115.751 16.7463C115.93 16.5804 116.162 16.4975 116.447 16.4975C116.733 16.4975 116.965 16.5771 117.144 16.7363C117.323 16.8955 117.412 17.0945 117.412 17.3333C117.412 17.592 117.323 17.8076 117.144 17.9801C116.965 18.1459 116.733 18.2288 116.447 18.2288Z" fill="white"/>
<path d="M35.2241 6.31842V6.36817H35.3734L35.2241 6.31842Z" fill="white"/>
<path d="M13.3833 28.607H13.4331C13.9315 27.6083 14.9339 27.2814 15.9704 27.3632C15.4131 25.9164 16.2862 24.2107 17.9604 24.1345C18.563 24.1071 19.0528 24.4492 19.5525 24.7264C19.9675 23.1263 21.563 22.1037 23.0848 23.0967C23.5446 23.3968 23.7379 23.8444 24.0301 24.2786C25.5332 22.3574 28.5053 23.7553 28.0599 26.1194C29.45 25.6671 31.1652 26.2697 31.2893 27.9602C31.3396 28.6466 31.037 29.1148 30.7465 29.7015C31.9468 30.1086 32.775 30.8304 32.7863 32.189H32.836C33.3182 30.7074 33.7604 29.2043 34.0083 27.6617C34.189 26.5367 34.3526 25.4081 34.5064 24.2786C34.9842 20.7705 35.2907 17.3296 36.9602 14.1293C37.8153 12.49 39.1125 10.9132 40.7962 10.0841C41.4598 9.75735 42.112 9.50173 42.836 9.33586C43.3676 9.21407 43.8914 9.20302 44.4281 9.14556C44.7978 9.10601 45.1453 8.97755 45.5226 9.00496C45.4681 8.60074 45.0591 8.35457 44.7266 8.17083C43.9457 7.73934 43.1053 7.37153 42.239 7.14571C38.738 6.23302 35.0671 5.94924 31.5425 6.95074C24.1764 9.04372 18.5133 15.472 15.4798 22.2885C14.6098 24.2434 13.6709 26.4713 13.3833 28.607Z" fill="white"/>
<path d="M37.5122 6.31842V6.36817H37.6615L37.5122 6.31842Z" fill="white"/>
<path d="M38.2422 6.3847L38.2753 6.40132L38.2422 6.3847Z" fill="white"/>
<path d="M38.7397 6.43445L38.7729 6.45107L38.7397 6.43445Z" fill="white"/>
<path d="M44.5275 9.10445L45.1245 9.95023C44.2491 10.1152 43.438 10.3334 42.6369 10.7367C40.9688 11.5767 39.7968 13.132 38.9125 14.7263C36.9713 18.2262 36.427 22.4414 35.4172 26.2686C34.881 28.3012 34.3691 30.8819 32.7364 32.3383C32.9122 30.9479 32.0269 30.0329 30.7464 29.7015C31.1446 29.1406 31.3791 28.5077 31.2787 27.8109C31.061 26.2996 29.4023 25.5243 28.0598 26.1194C28.2777 25.2041 27.9063 24.2075 27.1145 23.6869C26.1906 23.0794 24.5951 23.2418 24.03 24.2786C23.8324 23.8616 23.6129 23.4479 23.2339 23.1647C21.7512 22.0563 19.8837 23.019 19.5524 24.7263C18.9542 24.2699 18.2617 24.0423 17.5126 24.2048C16.1647 24.4972 15.3122 26.1094 15.9703 27.3632C15.4584 27.3526 15.0147 27.3099 14.5275 27.5279C12.7498 28.3237 12.9471 30.3167 14.1295 31.4925C11.7853 32.0493 12.1992 35.7669 14.5772 35.8706C14.3638 36.2456 14.1085 36.5737 14.0449 37.0149C13.8844 38.1279 14.4409 39.2781 15.5723 39.6127C16.1311 39.7779 16.6637 39.6781 17.2141 39.5522C17.0739 41.3287 18.5299 42.8056 20.3484 42.1116C20.7484 41.959 21.0476 41.639 21.3434 41.3433C21.7722 43.7488 25.6728 43.195 25.7215 40.8457C26.9008 41.8628 28.7874 41.5388 29.4092 40.0497C29.6541 39.4636 29.5385 38.8506 29.4031 38.2587C29.9142 38.2587 30.4277 38.2889 30.8956 38.0435C32.5205 37.1909 32.3891 35.2532 31.1942 34.1293C31.8334 33.9761 32.1417 33.4533 32.637 33.0853C34.7175 31.5392 35.8738 29.3694 36.5546 26.9154C37.7827 22.4891 38.4558 17.8413 41.4299 14.1791C42.4521 12.9205 43.6105 11.6346 45.1742 11.0664C45.3183 11.0141 45.558 10.9026 45.7111 10.9628C45.9082 11.0403 46.0193 11.3735 46.1226 11.5423C46.4636 12.0995 46.7767 12.6895 47.0494 13.2836C47.7802 14.8751 48.5104 16.6274 48.5076 18.4079C48.5061 19.2998 47.8977 19.9876 47.8737 20.8457C47.8606 21.3173 48.0719 21.796 48.3117 22.189C48.9349 23.2107 49.8066 24.0354 50.6469 24.8756C50.9066 25.1353 51.5723 25.5892 51.6195 25.9701C51.6588 26.2859 51.2628 26.6055 51.0593 26.7903C50.5265 27.2736 49.7425 27.7 49.5782 28.4577C49.4339 29.1225 50.1394 30.113 49.6903 30.646C49.3434 31.0576 48.6885 31.3456 48.2091 31.5761C48.068 31.644 47.7339 31.7548 47.7987 31.9742C47.8685 32.2107 48.3356 31.9202 48.4578 31.8708C48.9395 31.6763 49.5483 31.569 49.828 32.1393C50.2155 32.9296 48.8086 32.821 48.5587 33.2444C48.3749 33.5558 48.6035 34.0011 48.7442 34.2786C49.131 35.0413 49.9862 36.1362 49.1499 36.8935C48.6172 37.376 47.892 37.545 47.2141 37.7056C46.0548 37.9804 44.8676 38.1535 43.7315 38.5171C42.1865 39.0115 40.9784 40.0664 39.8509 41.194C39.3176 41.7272 38.7409 42.2646 38.3086 42.8855C38.8414 43.1614 39.5105 42.054 39.8464 41.6915C41.2407 40.187 42.5914 39.2651 44.5772 38.743C45.947 38.3829 47.4319 38.3747 48.7563 37.8505C49.244 37.6575 49.7887 37.4383 50.123 37.0142C50.7907 36.168 50.0404 35.2252 49.521 34.5273C49.3505 34.2982 49.0561 34.0366 49.0523 33.7313C49.0433 33.0206 50.1738 33.1992 50.329 32.4875C50.3787 32.2588 50.3558 31.9887 50.217 31.7956C50.1354 31.6819 49.8932 31.5493 49.9016 31.3931C49.918 31.0731 50.5782 31.051 50.6335 30.6467C50.7175 30.0329 50.0966 29.487 50.1872 28.8557C50.3807 27.5046 52.6708 27.3253 52.3121 25.7711C52.1583 25.1051 51.5051 24.7166 51.0449 24.2766C50.1548 23.4255 48.8873 22.2781 48.5393 21.0448C48.4059 20.5721 48.797 20.2173 48.9376 19.801C49.1476 19.1795 49.2082 18.4629 49.1459 17.8109C48.8478 14.691 47.1249 11.5272 45.423 8.9552L44.5275 9.10445Z" fill="white"/>
<path d="M45.4893 9.03815L45.5059 9.07128L45.4893 9.03815Z" fill="white"/>
<path d="M43.8145 9.17078L43.8476 9.18739L43.8145 9.17078Z" fill="white"/>
<path d="M32.7861 32.2886C33.4698 31.807 33.8367 30.9967 34.1505 30.2488C34.7653 28.7837 35.1553 27.2544 35.559 25.7214C36.4378 22.3839 36.9978 18.8765 38.4424 15.7214C39.342 13.7569 40.6235 11.9066 42.5374 10.8173C43.3622 10.3479 44.2189 10.1734 45.1244 9.95027C44.9895 9.71351 44.792 9.34982 44.5541 9.2054C44.1189 8.94112 43.0466 9.27012 42.5871 9.38445C40.5828 9.88316 39.0025 11.0897 37.785 12.7363C35.1977 16.2359 34.959 20.7799 34.4139 24.9254C34.0801 27.464 33.457 29.8308 32.7861 32.2886Z" fill="white"/>
<path d="M44.7266 9.40295L44.7763 9.45271L44.7266 9.40295Z" fill="white"/>
<path d="M43.582 10.2985L43.6318 10.3483L43.582 10.2985Z" fill="white"/>
<path d="M43.3335 10.398L43.3832 10.4478L43.3335 10.398Z" fill="white"/>
<path d="M46.2686 10.398L46.3183 10.4478L46.2686 10.398Z" fill="white"/>
<path d="M42.9849 10.5472L43.0346 10.597L42.9849 10.5472Z" fill="white"/>
<path d="M46.5176 10.8458L46.5673 10.8955L46.5176 10.8458Z" fill="white"/>
<path d="M45.6221 10.8955L45.6718 10.9453L45.6221 10.8955Z" fill="white"/>
<path d="M42.2388 10.9453L42.2885 10.995L42.2388 10.9453Z" fill="white"/>
<path d="M45.771 10.9453L45.8207 10.995L45.771 10.9453Z" fill="white"/>
<path d="M45.2734 10.995L45.3232 11.0447L45.2734 10.995Z" fill="white"/>
<path d="M45.1245 11.0448L45.1743 11.0946L45.1245 11.0448Z" fill="white"/>
<path d="M46.7163 11.194L46.7661 11.2438L46.7163 11.194Z" fill="white"/>
<path d="M44.627 11.2438L44.6767 11.2935L44.627 11.2438Z" fill="white"/>
<path d="M44.5273 11.2935L44.5771 11.3433L44.5273 11.2935Z" fill="white"/>
<path d="M41.6416 11.3433L41.6914 11.393L41.6416 11.3433Z" fill="white"/>
<path d="M41.3433 11.592L41.393 11.6418L41.3433 11.592Z" fill="white"/>
<path d="M44.0298 11.592L44.0795 11.6418L44.0298 11.592Z" fill="white"/>
<path d="M46.9653 11.6418L47.0151 11.6915L46.9653 11.6418Z" fill="white"/>
<path d="M46.2188 11.6915L46.2685 11.7413L46.2188 11.6915Z" fill="white"/>
<path d="M41.0947 11.791L41.1445 11.8408L41.0947 11.791Z" fill="white"/>
<path d="M47.2139 12.1393L47.2636 12.189L47.2139 12.1393Z" fill="white"/>
<path d="M47.2637 12.2388L47.3134 12.2886L47.2637 12.2388Z" fill="white"/>
<path d="M40.5474 12.3383L40.5971 12.3881L40.5474 12.3383Z" fill="white"/>
<path d="M47.3135 12.3383L47.3632 12.3881L47.3135 12.3383Z" fill="white"/>
<path d="M46.6167 12.4378L46.6665 12.4876L46.6167 12.4378Z" fill="white"/>
<path d="M47.3633 12.4378L47.413 12.4876L47.3633 12.4378Z" fill="white"/>
<path d="M46.6665 12.5373L46.7163 12.587L46.6665 12.5373Z" fill="white"/>
<path d="M47.4131 12.5373L47.4628 12.587L47.4131 12.5373Z" fill="white"/>
<path d="M47.0151 13.2338L47.0649 13.2836L47.0151 13.2338Z" fill="white"/>
<path d="M47.7612 13.2836L47.811 13.3333L47.7612 13.2836Z" fill="white"/>
<path d="M47.0645 13.3333L47.1142 13.3831L47.0645 13.3333Z" fill="white"/>
<path d="M47.3633 13.9801L47.413 14.0299L47.3633 13.9801Z" fill="white"/>
<path d="M39.1543 14.2289L39.204 14.2786L39.1543 14.2289Z" fill="white"/>
<path d="M41.2437 14.3284L41.2934 14.3781L41.2437 14.3284Z" fill="white"/>
<path d="M47.562 14.4776L47.6118 14.5274L47.562 14.4776Z" fill="white"/>
<path d="M38.856 14.7761L38.9057 14.8259L38.856 14.7761Z" fill="white"/>
<path d="M40.5972 15.1741L40.6469 15.2239L40.5972 15.1741Z" fill="white"/>
<path d="M40.3979 15.4727L40.4477 15.5224L40.3979 15.4727Z" fill="white"/>
<path d="M38.2588 16.0199L38.3085 16.0696L38.2588 16.0199Z" fill="white"/>
<path d="M48.1094 16.0696L48.1591 16.1194L48.1094 16.0696Z" fill="white"/>
<path d="M48.8062 16.1194L48.8559 16.1691L48.8062 16.1194Z" fill="white"/>
<path d="M48.2091 16.4179L48.2588 16.4677L48.2091 16.4179ZM39.6519 16.6667L39.7016 16.7164L39.6519 16.6667Z" fill="white"/>
<path d="M47.219 16.7101C46.7152 16.9189 46.7666 17.8496 46.9028 18.2587C46.9831 18.4998 47.1636 18.7838 47.4618 18.6762C47.9709 18.4926 47.9437 17.5204 47.7875 17.1144C47.6993 16.8851 47.5078 16.5905 47.219 16.7101Z" fill="white"/>
<path d="M37.96 16.7662L38.0097 16.8159L37.96 16.7662Z" fill="white"/>
<path d="M39.6021 16.7662L39.6518 16.8159L39.6021 16.7662Z" fill="white"/>
<path d="M49.0547 17.3134L49.1044 17.3632L49.0547 17.3134Z" fill="white"/>
<path d="M47.8608 17.5622V17.8607H47.9106L47.8608 17.5622Z" fill="white"/>
<path d="M37.6118 17.7114L37.6616 17.7612L37.6118 17.7114Z" fill="white"/>
<path d="M48.4741 17.7944L48.4907 17.8275L48.4741 17.7944Z" fill="white"/>
<path d="M37.562 17.8607L37.6118 17.9105L37.562 17.8607Z" fill="white"/>
<path d="M37.5122 18.0099L37.562 18.0597L37.5122 18.0099Z" fill="white"/>
<path d="M46.8159 18.0099L46.8657 18.0597L46.8159 18.0099Z" fill="white"/>
<path d="M37.4629 18.209L37.5126 18.2587L37.4629 18.209Z" fill="white"/>
<path d="M38.9551 18.2587L39.0048 18.3085L38.9551 18.2587Z" fill="white"/>
<path d="M38.8062 18.6567L38.8559 18.7065L38.8062 18.6567Z" fill="white"/>
<path d="M48.4741 18.7894L48.4907 18.8226L48.4741 18.7894Z" fill="white"/>
<path d="M38.7563 18.806L38.8061 18.8557L38.7563 18.806Z" fill="white"/>
<path d="M37.2637 18.8557L37.3134 18.9055L37.2637 18.8557Z" fill="white"/>
<path d="M49.1211 18.8889L49.1377 18.9221L49.1211 18.8889Z" fill="white"/>
<path d="M38.6567 19.1045L38.7065 19.1542L38.6567 19.1045Z" fill="white"/>
<path d="M48.4082 19.1045L48.458 19.1542L48.4082 19.1045Z" fill="white"/>
<path d="M37.1641 19.204L37.2138 19.2537L37.1641 19.204Z" fill="white"/>
<path d="M49.0547 19.204L49.1044 19.2537L49.0547 19.204Z" fill="white"/>
<path d="M41.2935 23.0348H41.3432C42.3774 21.1791 44.1493 19.8281 46.3183 20.2488C45.9064 19.3064 44.9605 19.3815 44.1293 19.662C42.7588 20.1245 41.6128 21.655 41.2935 23.0348Z" fill="white"/>
<path d="M45.373 19.4528L45.4228 19.5025L45.373 19.4528Z" fill="white"/>
<path d="M44.3779 19.5522L44.4277 19.602L44.3779 19.5522Z" fill="white"/>
<path d="M44.229 19.602L44.2788 19.6517L44.229 19.602Z" fill="white"/>
<path d="M45.771 19.602L45.8207 19.6517L45.771 19.602Z" fill="white"/>
<path d="M43.8311 19.7512L43.8808 19.801L43.8311 19.7512Z" fill="white"/>
<path d="M46.0698 19.8508L46.1196 19.9005L46.0698 19.8508Z" fill="white"/>
<path d="M36.9653 20L37.0151 20.0498L36.9653 20Z" fill="white"/>
<path d="M38.3584 20.0497L38.4081 20.0995L38.3584 20.0497Z" fill="white"/>
<path d="M43.1841 20.1492L43.2338 20.199L43.1841 20.1492Z" fill="white"/>
<path d="M46.1689 20.199L46.2187 20.2487L46.1689 20.199Z" fill="white"/>
<path d="M44.1792 20.2985L44.229 20.3483L44.1792 20.2985Z" fill="white"/>
<path d="M38.2588 20.3483L38.3085 20.398L38.2588 20.3483Z" fill="white"/>
<path d="M47.9106 20.398L47.9604 20.4478L47.9106 20.398Z" fill="white"/>
<path d="M36.8159 20.5472L36.8657 20.597L36.8159 20.5472Z" fill="white"/>
<path d="M47.8774 20.6799L47.8941 20.7131L47.8774 20.6799Z" fill="white"/>
<path d="M42.3384 20.995L42.3881 21.0447L42.3384 20.995Z" fill="white"/>
<path d="M47.8774 21.0282L47.8941 21.0613L47.8774 21.0282Z" fill="white"/>
<path d="M38.0596 21.0448L38.1093 21.0946L38.0596 21.0448Z" fill="white"/>
<path d="M48.5073 21.0448L48.5571 21.0946L48.5073 21.0448Z" fill="white"/>
<path d="M42.2388 23.4328C43.0958 23.0177 43.5218 21.7824 44.5771 21.651C44.9874 21.5999 45.3433 21.7627 45.7214 21.8905C45.5775 21.4014 44.8119 21.2828 44.3781 21.3881C43.525 21.5949 42.5727 22.6431 42.2388 23.4328Z" fill="white"/>
<path d="M44.8589 21.3599L44.892 21.3765L44.8589 21.3599Z" fill="white"/>
<path d="M44.229 21.393L44.2788 21.4428L44.229 21.393Z" fill="white"/>
<path d="M42.438 21.5423L42.4877 21.592L42.438 21.5423Z" fill="white"/>
<path d="M43.8311 21.592L43.8808 21.6418L43.8311 21.592Z" fill="white"/>
<path d="M34.7925 21.675L34.8091 21.7081L34.7925 21.675Z" fill="white"/>
<path d="M37.9106 21.6418L37.9604 21.6915L37.9106 21.6418Z" fill="white"/>
<path d="M43.7314 21.6418L43.7812 21.6915L43.7314 21.6418Z" fill="white"/>
<path d="M36.5176 21.6915L36.5673 21.7413L36.5176 21.6915Z" fill="white"/>
<path d="M41.8408 21.6915L41.8906 21.7413L41.8408 21.6915Z" fill="white"/>
<path d="M42.2887 21.6915L42.3385 21.7413L42.2887 21.6915ZM37.8608 21.8408L37.9106 21.8905L37.8608 21.8408Z" fill="white"/>
<path d="M43.4824 21.8408L43.5322 21.8906L43.4824 21.8408Z" fill="white"/>
<path d="M43.8311 21.9403L43.8808 21.9901L43.8311 21.9403Z" fill="white"/>
<path d="M49.0547 22.0398L49.1044 22.0895L49.0547 22.0398Z" fill="white"/>
<path d="M43.6318 22.0895L43.6816 22.1393L43.6318 22.0895Z" fill="white"/>
<path d="M36.418 22.1393L36.4677 22.189L36.418 22.1393Z" fill="white"/>
<path d="M43.1343 22.189L43.184 22.2388L43.1343 22.189Z" fill="white"/>
<path d="M41.5425 22.2388L41.5922 22.2886L41.5425 22.2388Z" fill="white"/>
<path d="M41.8408 22.2388L41.8906 22.2886L41.8408 22.2388Z" fill="white"/>
<path d="M48.4082 22.3383L48.458 22.3881L48.4082 22.3383Z" fill="white"/>
<path d="M41.6914 22.4378L41.7412 22.4876L41.6914 22.4378Z" fill="white"/>
<path d="M42.9355 22.4378L42.9853 22.4876L42.9355 22.4378Z" fill="white"/>
<path d="M43.2339 22.4378L43.2836 22.4876L43.2339 22.4378Z" fill="white"/>
<path d="M42.0894 24.9254C42.6099 24.6827 43.1229 23.6177 43.7302 23.6188C43.9851 23.6192 44.0193 24.0184 44.1488 24.177C44.4621 24.5607 45.0341 24.6902 45.4724 24.4499C46.3354 23.9768 46.1235 22.6696 45.1739 22.4637C44.1217 22.2354 43.1958 23.4155 42.627 24.1294C42.4313 24.375 42.2118 24.6357 42.0894 24.9254Z" fill="white"/>
<path d="M43.1841 22.4875L43.2338 22.5373L43.1841 22.4875Z" fill="white"/>
<path d="M45.3232 22.4875L45.373 22.5373L45.3232 22.4875Z" fill="white"/>
<path d="M37.6616 22.587L37.7114 22.6368L37.6616 22.587Z" fill="white"/>
<path d="M44.1294 22.6368L44.1791 22.6866L44.1294 22.6368Z" fill="white"/>
<path d="M48.6069 22.6368L48.6567 22.6866L48.6069 22.6368Z" fill="white"/>
<path d="M36.2686 22.7363L36.3183 22.7861L36.2686 22.7363Z" fill="white"/>
<path d="M41.3433 22.7363L41.393 22.7861L41.3433 22.7363Z" fill="white"/>
<path d="M43.98 22.7363L44.0297 22.7861L43.98 22.7363Z" fill="white"/>
<path d="M41.4429 22.7861L41.4926 22.8358L41.4429 22.7861Z" fill="white"/>
<path d="M42.8359 22.8358L42.8857 22.8856L42.8359 22.8358Z" fill="white"/>
<path d="M48.7563 22.8358L48.8061 22.8856L48.7563 22.8358Z" fill="white"/>
<path d="M49.6519 22.8358L49.7016 22.8856L49.6519 22.8358Z" fill="white"/>
<path d="M41.2935 22.8856L41.3432 22.9353L41.2935 22.8856Z" fill="white"/>
<path d="M42.7861 22.8856L42.8359 22.9353L42.7861 22.8856Z" fill="white"/>
<path d="M36.2188 22.9353L36.2685 22.9851L36.2188 22.9353Z" fill="white"/>
<path d="M41.3433 22.9353L41.393 22.9851L41.3433 22.9353Z" fill="white"/>
<path d="M42.7363 22.9353L42.7861 22.9851L42.7363 22.9353Z" fill="white"/>
<path d="M43.7314 22.9353L43.7812 22.9851L43.7314 22.9353Z" fill="white"/>
<path d="M42.4878 22.985L42.5375 23.0348L42.4878 22.985Z" fill="white"/>
<path d="M42.6865 22.985L42.7363 23.0348L42.6865 22.985Z" fill="white"/>
<path d="M41.2603 23.068L41.2769 23.1011L41.2603 23.068Z" fill="white"/>
<path d="M36.1689 23.1343L36.2187 23.1841L36.1689 23.1343Z" fill="white"/>
<path d="M42.3384 23.1841L42.3881 23.2338L42.3384 23.1841Z" fill="white"/>
<path d="M45.9702 23.1841L46.02 23.2338L45.9702 23.1841Z" fill="white"/>
<path d="M36.1196 23.3333L36.1694 23.3831L36.1196 23.3333Z" fill="white"/>
<path d="M42.0894 23.6319L42.2884 23.4329L42.0894 23.6319Z" fill="white"/>
<path d="M49.3037 23.4826L49.3535 23.5324L49.3037 23.4826Z" fill="white"/>
<path d="M21.7412 23.5323V23.5821H21.8905L21.7412 23.5323Z" fill="white"/>
<path d="M36.0698 23.5323L36.1196 23.5821L36.0698 23.5323Z" fill="white"/>
<path d="M23.2338 25.1741C23.2329 23.9029 21.7408 22.9036 20.7568 24.0306C20.5855 24.2268 20.1716 25.2269 20.5688 25.3884C20.7695 25.47 21.1822 25.2885 21.393 25.2531C21.9948 25.1519 22.6281 25.0617 23.2338 25.1741Z" fill="white"/>
<path d="M49.4526 23.6318L49.5024 23.6816L49.4526 23.6318Z" fill="white"/>
<path d="M43.9302 23.6816L43.9799 23.7313L43.9302 23.6816Z" fill="white"/>
<path d="M42.8857 23.7811L42.9355 23.8308L42.8857 23.7811Z" fill="white"/>
<path d="M45.9702 23.7811L46.02 23.8308L45.9702 23.7811Z" fill="white"/>
<path d="M22.7861 23.9304L22.8359 23.9801L22.7861 23.9304Z" fill="white"/>
<path d="M43.0347 24.0298L43.0844 24.0796L43.0347 24.0298Z" fill="white"/>
<path d="M42.9849 24.0796L43.0346 24.1293L42.9849 24.0796Z" fill="white"/>
<path d="M17.7612 24.1293V24.1791H17.9105L17.7612 24.1293Z" fill="white"/>
<path d="M18.1924 24.1459L18.2255 24.1626L18.1924 24.1459Z" fill="white"/>
<path d="M42.5869 24.1293L42.6367 24.1791L42.5869 24.1293Z" fill="white"/>
<path d="M22.9849 24.1791L23.0346 24.2288L22.9849 24.1791Z" fill="white"/>
<path d="M24.4775 25.3731L27.0149 26.4676C27.2589 25.8804 27.405 25.289 26.9832 24.7283C26.2227 23.7176 24.7153 24.2364 24.4775 25.3731Z" fill="white"/>
<path d="M35.9204 24.1791L35.9702 24.2288L35.9204 24.1791Z" fill="white"/>
<path d="M25.4229 24.2289L25.4726 24.2786L25.4229 24.2289Z" fill="white"/>
<path d="M26.5674 24.3781L26.6171 24.4279L26.5674 24.3781Z" fill="white"/>
<path d="M35.8706 24.3781L35.9204 24.4279L35.8706 24.3781Z" fill="white"/>
<path d="M44.4775 24.4279L44.5273 24.4776L44.4775 24.4279Z" fill="white"/>
<path d="M51.1938 24.4279L51.2436 24.4776L51.1938 24.4279Z" fill="white"/>
<path d="M44.7266 24.5273L44.7763 24.5771L44.7266 24.5273Z" fill="white"/>
<path d="M45.1743 24.5273L45.2241 24.5771L45.1743 24.5273Z" fill="white"/>
<path d="M35.8208 24.5771L35.8706 24.6268L35.8208 24.5771Z" fill="white"/>
<path d="M23.1841 24.6766L23.2338 24.7264L23.1841 24.6766Z" fill="white"/>
<path d="M42.189 24.6766L42.2387 24.7264L42.189 24.6766Z" fill="white"/>
<path d="M24.6768 24.7761L24.7265 24.8259L24.6768 24.7761Z" fill="white"/>
<path d="M51.5923 24.7761L51.642 24.8259L51.5923 24.7761Z" fill="white"/>
<path d="M20.3979 24.8756V25.0249H20.4477L20.3979 24.8756Z" fill="white"/>
<path d="M37.0645 24.9254L37.1142 24.9751L37.0645 24.9254Z" fill="white"/>
<path d="M41.9902 25.0746L42.1395 24.9254L41.9902 25.0746Z" fill="white"/>
<path d="M17.0648 27.5124L18.0101 26.7306L19.3036 25.9204C18.9584 24.7577 17.2997 24.7815 16.7686 25.7711C16.4331 26.3964 16.6895 26.9883 17.0648 27.5124Z" fill="white"/>
<path d="M18.2588 25.0249L18.3085 25.0747L18.2588 25.0249Z" fill="white"/>
<path d="M41.9404 25.0746L41.9902 25.1244L41.9404 25.0746Z" fill="white"/>
<path d="M22.189 25.1244V25.1741H22.388L22.189 25.1244Z" fill="white"/>
<path d="M22.8359 25.1244V25.1741H22.9852L22.8359 25.1244Z" fill="white"/>
<path d="M22.9849 25.1244V25.1741H23.1341L22.9849 25.1244Z" fill="white"/>
<path d="M17.2139 25.2239L17.2636 25.2736L17.2139 25.2239Z" fill="white"/>
<path d="M21.0947 25.2736L21.1445 25.3234L21.0947 25.2736Z" fill="white"/>
<path d="M20.8955 25.3234L20.9453 25.3731L20.8955 25.3234Z" fill="white"/>
<path d="M52.0894 25.3234L52.1391 25.3731L52.0894 25.3234Z" fill="white"/>
<path d="M20.4976 25.4229L20.5473 25.4727L20.4976 25.4229Z" fill="white"/>
<path d="M28.1094 25.5224V25.7214H28.1591L28.1094 25.5224Z" fill="white"/>
<path d="M16.8657 25.5721L16.9155 25.6219L16.8657 25.5721Z" fill="white"/>
<path d="M25.373 25.6219L25.4228 25.6716L25.373 25.6219Z" fill="white"/>
<path d="M35.5225 25.7214L35.5722 25.7711L35.5225 25.7214Z" fill="white"/>
<path d="M36.8657 25.7214L36.9155 25.7711L36.8657 25.7214Z" fill="white"/>
<path d="M25.7212 25.7711L25.7709 25.8209L25.7212 25.7711Z" fill="white"/>
<path d="M51.5923 25.8209L51.642 25.8707L51.5923 25.8209Z" fill="white"/>
<path d="M28.856 25.8707V25.9204H29.254L28.856 25.8707Z" fill="white"/>
<path d="M26.02 25.9204L26.0698 25.9702L26.02 25.9204Z" fill="white"/>
<path d="M26.1196 25.9702L26.1694 26.0199L26.1196 25.9702Z" fill="white"/>
<path d="M35.4727 25.9702L35.5224 26.0199L35.4727 25.9702Z" fill="white"/>
<path d="M22.0728 26.0365L22.1059 26.0531L22.0728 26.0365Z" fill="white"/>
<path d="M22.1391 26.041C20.855 26.2097 19.6638 26.5457 18.6068 27.339C17.8736 27.8892 17.2719 28.5707 16.7966 29.3532C14.9042 32.4682 16.0295 36.6539 19.0545 38.5799C20.3866 39.4281 22.0285 39.7312 23.5819 39.538C24.495 39.4244 25.375 39.0836 26.1689 38.6284C26.8843 38.2183 27.5386 37.6217 28.031 36.9632C30.8428 33.2026 29.1501 27.7965 24.6764 26.3185C23.9009 26.0622 22.9529 25.9341 22.1391 26.041Z" fill="white"/>
<path d="M23.1343 26.0199V26.0696H23.2835L23.1343 26.0199ZM26.2189 26.0199L26.2686 26.0696L26.2189 26.0199Z" fill="white"/>
<path d="M23.98 26.1194L24.0297 26.1691L23.98 26.1194Z" fill="white"/>
<path d="M18.7563 26.1691L18.8061 26.2189L18.7563 26.1691Z" fill="white"/>
<path d="M21.0449 26.1691L21.0947 26.2189L21.0449 26.1691Z" fill="white"/>
<path d="M15.7212 26.2189V26.6667H15.7709L15.7212 26.2189Z" fill="white"/>
<path d="M20.6963 26.2687L20.746 26.3184L20.6963 26.2687Z" fill="white"/>
<path d="M20.3979 26.3682L20.4477 26.4179L20.3979 26.3682Z" fill="white"/>
<path d="M26.8159 26.3682L26.8657 26.4179L26.8159 26.3682Z" fill="white"/>
<path d="M36.6665 26.4179L36.7163 26.4677L36.6665 26.4179Z" fill="white"/>
<path d="M25.1245 26.4677L25.1743 26.5174L25.1245 26.4677Z" fill="white"/>
<path d="M18.1592 26.5671L18.2089 26.6169L18.1592 26.5671Z" fill="white"/>
<path d="M19.8008 26.6169L19.8505 26.6667L19.8008 26.6169Z" fill="white"/>
<path d="M25.4727 26.6169L25.5224 26.6667L25.4727 26.6169Z" fill="white"/>
<path d="M52.1392 26.6667L52.1889 26.7164L52.1392 26.6667Z" fill="white"/>
<path d="M28.7065 26.7662L28.7563 26.8159L28.7065 26.7662Z" fill="white"/>
<path d="M29.5025 29.4527C30.9393 29.1747 30.5925 26.9425 29.2537 26.7754C28.9877 26.7422 27.9084 26.8605 28.0272 27.3154C28.0845 27.5351 28.3847 27.7358 28.5241 27.9104C28.8899 28.3684 29.3232 28.8863 29.5025 29.4527Z" fill="white"/>
<path d="M51.0449 26.7662L51.0947 26.8159L51.0449 26.7662Z" fill="white"/>
<path d="M52.04 26.8159L52.0898 26.8657L52.04 26.8159Z" fill="white"/>
<path d="M19.3037 26.8657L19.3535 26.9154L19.3037 26.8657Z" fill="white"/>
<path d="M25.9702 26.8657L26.02 26.9154L25.9702 26.8657Z" fill="white"/>
<path d="M29.6021 26.8657L29.6518 26.9154L29.6021 26.8657Z" fill="white"/>
<path d="M50.9453 26.8657L50.9951 26.9154L50.9453 26.8657Z" fill="white"/>
<path d="M17.7114 26.9154L17.7612 26.9652L17.7114 26.9154Z" fill="white"/>
<path d="M36.5176 26.9154L36.5673 26.9652L36.5176 26.9154Z" fill="white"/>
<path d="M29.8506 27.015L29.9003 27.0647L29.8506 27.015Z" fill="white"/>
<path d="M28.1094 27.0647L28.1591 27.1144L28.1094 27.0647Z" fill="white"/>
<path d="M35.1743 27.0647L35.2241 27.1144L35.1743 27.0647Z" fill="white"/>
<path d="M16.8159 27.1642L16.8657 27.2139L16.8159 27.1642Z" fill="white"/>
<path d="M51.6914 27.1642L51.7412 27.2139L51.6914 27.1642Z" fill="white"/>
<path d="M26.5176 27.2139L26.5673 27.2637L26.5176 27.2139Z" fill="white"/>
<path d="M15.6221 27.3134V27.3632H15.7713L15.6221 27.3134Z" fill="white"/>
<path d="M51.4927 27.3134L51.5424 27.3632L51.4927 27.3134Z" fill="white"/>
<path d="M50.3481 27.3632L50.3979 27.4129L50.3481 27.3632Z" fill="white"/>
<path d="M35.0747 27.413L35.1245 27.4627L35.0747 27.413Z" fill="white"/>
<path d="M18.3584 27.5125L18.4081 27.5622L18.3584 27.5125Z" fill="white"/>
<path d="M27.0151 27.6119L27.0649 27.6617L27.0151 27.6119Z" fill="white"/>
<path d="M17.96 27.8607L18.0097 27.9105L17.96 27.8607Z" fill="white"/>
<path d="M17.9106 27.9105L17.9604 27.9602L17.9106 27.9105Z" fill="white"/>
<path d="M27.3633 27.9105L27.413 27.9602L27.3633 27.9105Z" fill="white"/>
<path d="M27.4131 27.9602L27.4628 28.01L27.4131 27.9602Z" fill="white"/>
<path d="M34.9253 27.9602L34.975 28.01L34.9253 27.9602Z" fill="white"/>
<path d="M27.4629 28.0099L27.5126 28.0597L27.4629 28.0099Z" fill="white"/>
<path d="M17.7612 28.0597L17.811 28.1094L17.7612 28.0597Z" fill="white"/>
<path d="M49.7017 28.0597L49.7514 28.1094L49.7017 28.0597Z" fill="white"/>
<path d="M17.7114 28.1094L17.7612 28.1592L17.7114 28.1094Z" fill="white"/>
<path d="M15.373 28.1592V28.2089H15.5223L15.373 28.1592Z" fill="white"/>
<path d="M36.1196 28.1592L36.1694 28.2089L36.1196 28.1592Z" fill="white"/>
<path d="M15.2241 30.995L16.3186 28.4577C15.9435 28.2614 15.554 28.1418 15.1246 28.2278C13.5573 28.5419 13.8345 30.6649 15.2241 30.995Z" fill="white"/>
<path d="M15.771 28.209L15.8207 28.2587L15.771 28.209Z" fill="white"/>
<path d="M14.9253 28.2587L14.975 28.3085L14.9253 28.2587Z" fill="white"/>
<path d="M49.6021 28.2587L49.6518 28.3085L49.6021 28.2587Z" fill="white"/>
<path d="M50.3481 28.3085L50.3979 28.3582L50.3481 28.3085Z" fill="white"/>
<path d="M30.3979 28.408L30.4477 28.4577L30.3979 28.408Z" fill="white"/>
<path d="M28.9551 28.4577L29.0048 28.5075L28.9551 28.4577Z" fill="white"/>
<path d="M17.3633 28.5074L17.413 28.5572L17.3633 28.5074Z" fill="white"/>
<path d="M29.0049 28.5572L29.0546 28.6069L29.0049 28.5572Z" fill="white"/>
<path d="M35.9702 28.607L36.02 28.6567L35.9702 28.607Z" fill="white"/>
<path d="M28.0596 28.7065L28.1093 28.7562L28.0596 28.7065Z" fill="white"/>
<path d="M30.2983 28.7065L30.3481 28.7562L30.2983 28.7065Z" fill="white"/>
<path d="M13.2837 28.806L13.3334 28.8557L13.2837 28.806Z" fill="white"/>
<path d="M30.2485 28.806L30.2983 28.8557L30.2485 28.806Z" fill="white"/>
<path d="M29.2041 28.8557L29.2539 28.9055L29.2041 28.8557Z" fill="white"/>
<path d="M34.627 28.8557L34.6767 28.9055L34.627 28.8557Z" fill="white"/>
<path d="M50.1494 28.8557V29.0547H50.1992L50.1494 28.8557Z" fill="white"/>
<path d="M16.02 28.9055L16.0698 28.9552L16.02 28.9055Z" fill="white"/>
<path d="M13.2339 28.9552L13.2836 29.005L13.2339 28.9552Z" fill="white"/>
<path d="M17.0151 28.9552L17.0649 29.005L17.0151 28.9552Z" fill="white"/>
<path d="M34.5771 29.005L34.6269 29.0548L34.5771 29.005Z" fill="white"/>
<path d="M16.9653 29.0547L17.0151 29.1045L16.9653 29.0547Z" fill="white"/>
<path d="M13.1841 29.1542L13.2338 29.204L13.1841 29.1542Z" fill="white"/>
<path d="M28.4082 29.204L28.458 29.2537L28.4082 29.204Z" fill="white"/>
<path d="M29.8008 29.3035L29.8505 29.3532L29.8008 29.3035Z" fill="white"/>
<path d="M50.2485 29.4528L50.2983 29.5025L50.2485 29.4528Z" fill="white"/>
<path d="M28.6567 29.6517L28.7065 29.7015L28.6567 29.6517Z" fill="white"/>
<path d="M50.3481 29.7015L50.3979 29.7512L50.3481 29.7015Z" fill="white"/>
<path d="M28.7065 29.7512L28.7563 29.801L28.7065 29.7512Z" fill="white"/>
<path d="M14.0298 29.801L14.0795 29.8508L14.0298 29.801Z" fill="white"/>
<path d="M35.4229 29.801L35.4726 29.8508L35.4229 29.801Z" fill="white"/>
<path d="M28.7563 29.8508L28.8061 29.9005L28.7563 29.8508Z" fill="white"/>
<path d="M16.4678 29.9503L16.5175 30L16.4678 29.9503Z" fill="white"/>
<path d="M28.8062 29.9503L28.8559 30L28.8062 29.9503ZM50.4479 29.9503L50.4977 30L50.4479 29.9503Z" fill="white"/>
<path d="M49.8008 30.0497L49.8505 30.0995L49.8008 30.0497Z" fill="white"/>
<path d="M34.1792 30.0995L34.229 30.1492L34.1792 30.0995Z" fill="white"/>
<path d="M15.4229 30.199L15.4726 30.2487L15.4229 30.199Z" fill="white"/>
<path d="M34.1294 30.199L34.1791 30.2487L34.1294 30.199Z" fill="white"/>
<path d="M15.373 30.3483L15.4228 30.398L15.373 30.3483Z" fill="white"/>
<path d="M15.3232 30.4975L15.373 30.5472L15.3232 30.4975Z" fill="white"/>
<path d="M16.2188 30.5472L16.2685 30.597L16.2188 30.5472Z" fill="white"/>
<path d="M22.2388 30.5472L22.2885 30.597L22.2388 30.5472Z" fill="white"/>
<path d="M22.2887 30.5691C19.406 31.0193 20.106 35.471 22.9852 35.0597C25.9288 34.6391 25.2139 30.1122 22.2887 30.5691Z" fill="white"/>
<path d="M23.2339 30.597L23.2836 30.6468L23.2339 30.597Z" fill="white"/>
<path d="M30 30.6468C30.213 31.578 30.2985 32.4282 30.2985 33.3831C30.7623 33.3828 31.2031 33.2887 31.5331 32.9332C32.1508 32.2677 31.9485 31.0684 31.0945 30.6948C30.7573 30.5473 30.3521 30.5814 30 30.6468Z" fill="white"/>
<path d="M15.2734 30.6468L15.3232 30.6965L15.2734 30.6468Z" fill="white"/>
<path d="M14.5771 30.6965L14.6269 30.7463L14.5771 30.6965Z" fill="white"/>
<path d="M13.4824 30.7463L13.5322 30.796L13.4824 30.7463Z" fill="white"/>
<path d="M29.1045 30.7463L29.1542 30.796L29.1045 30.7463Z" fill="white"/>
<path d="M13.5322 30.8458L13.582 30.8955L13.5322 30.8458Z" fill="white"/>
<path d="M14.8257 30.8458L14.8754 30.8955L14.8257 30.8458Z" fill="white"/>
<path d="M16.1196 30.8458L16.1694 30.8955L16.1196 30.8458Z" fill="white"/>
<path d="M21.4429 30.8458L21.4926 30.8955L21.4429 30.8458Z" fill="white"/>
<path d="M23.8311 30.8458L23.8808 30.8955L23.8311 30.8458Z" fill="white"/>
<path d="M31.3433 30.8458L31.393 30.8955L31.3433 30.8458Z" fill="white"/>
<path d="M34.7759 30.8458L34.8256 30.8955L34.7759 30.8458Z" fill="white"/>
<path d="M30.0498 30.8955L30.0996 30.9453L30.0498 30.8955Z" fill="white"/>
<path d="M21.2935 30.9453L21.3432 30.995L21.2935 30.9453Z" fill="white"/>
<path d="M31.4927 30.995L31.5424 31.0447L31.4927 30.995Z" fill="white"/>
<path d="M13.6816 31.0448L13.7314 31.0946L13.6816 31.0448Z" fill="white"/>
<path d="M29.2041 31.0945L29.2539 31.1443L29.2041 31.0945Z" fill="white"/>
<path d="M16.02 31.194L16.0698 31.2438L16.02 31.194Z" fill="white"/>
<path d="M48.856 31.194L48.9057 31.2438L48.856 31.194Z" fill="white"/>
<path d="M31.6914 31.2438L31.7412 31.2935L31.6914 31.2438Z" fill="white"/>
<path d="M30.1494 31.3433L30.1992 31.393L30.1494 31.3433Z" fill="white"/>
<path d="M31.7412 31.3433L31.791 31.393L31.7412 31.3433Z" fill="white"/>
<path d="M49.8174 31.3765L49.8343 31.4096L49.8174 31.3765Z" fill="white"/>
<path d="M22.438 31.393L22.4877 31.4428L22.438 31.393Z" fill="white"/>
<path d="M22.4876 31.4149C20.618 31.7003 21.0708 34.4395 22.9354 34.1641C24.6613 33.9092 24.2008 31.1534 22.4876 31.4149Z" fill="white"/>
<path d="M22.8359 31.393L22.8857 31.4428L22.8359 31.393Z" fill="white"/>
<path d="M20.7959 31.4428L20.8456 31.4926L20.7959 31.4428Z" fill="white"/>
<path d="M48.4082 31.4428L48.458 31.4926L48.4082 31.4428Z" fill="white"/>
<path d="M13.98 31.4926L14.0297 31.5423L13.98 31.4926Z" fill="white"/>
<path d="M15.9702 31.4926L16.02 31.5423L15.9702 31.4926Z" fill="white"/>
<path d="M23.1841 31.4926L23.2338 31.5423L23.1841 31.4926Z" fill="white"/>
<path d="M23.2837 31.5423L23.3334 31.592L23.2837 31.5423Z" fill="white"/>
<path d="M24.5273 31.5423L24.5771 31.592L24.5273 31.5423Z" fill="white"/>
<path d="M20.6963 31.592L20.746 31.6418L20.6963 31.592Z" fill="white"/>
<path d="M50 31.592L50.0498 31.6418L50 31.592Z" fill="white"/>
<path d="M13.6318 31.6418L13.6816 31.6915L13.6318 31.6418Z" fill="white"/>
<path d="M24.627 31.6915L24.6767 31.7413L24.627 31.6915Z" fill="white"/>
<path d="M48.9053 31.6915L48.955 31.7413L48.9053 31.6915Z" fill="white"/>
<path d="M15.9204 31.791L15.9702 31.8408L15.9204 31.791Z" fill="white"/>
<path d="M24.6768 31.791L24.7265 31.8408L24.6768 31.791Z" fill="white"/>
<path d="M31.8906 31.8906V32.0398H31.9404L31.8906 31.8906Z" fill="white"/>
<path d="M33.9302 31.8906L33.9799 31.9403L33.9302 31.8906Z" fill="white"/>
<path d="M33.8804 31.9403L33.9301 31.9901L33.8804 31.9403Z" fill="white"/>
<path d="M30.2651 32.0233L30.2818 32.0564L30.2651 32.0233Z" fill="white"/>
<path d="M32.9849 32.0895L33.0346 32.1393L32.9849 32.0895Z" fill="white"/>
<path d="M32.7363 32.1393V32.3383H32.7861L32.7363 32.1393Z" fill="white"/>
<path d="M32.9355 32.1393L32.9853 32.189L32.9355 32.1393Z" fill="white"/>
<path d="M15.8872 32.2222L15.9038 32.2554L15.8872 32.2222Z" fill="white"/>
<path d="M29.4194 32.2222L29.436 32.2554L29.4194 32.2222Z" fill="white"/>
<path d="M15.2735 34.9752L15.0248 32.2388C14.7245 32.2388 14.4529 32.237 14.179 32.3793C13.3992 32.7846 13.1233 33.9614 13.7902 34.6119C14.2061 35.0176 14.7273 35.0765 15.2735 34.9752Z" fill="white"/>
<path d="M31.8408 32.2886L31.8906 32.3383L31.8408 32.2886Z" fill="white"/>
<path d="M14.1792 32.3383L14.229 32.3881L14.1792 32.3383Z" fill="white"/>
<path d="M20.3979 32.3881L20.4477 32.4378L20.3979 32.3881Z" fill="white"/>
<path d="M24.8755 32.3881L24.9252 32.4378L24.8755 32.3881Z" fill="white"/>
<path d="M12.7861 32.5373L12.8359 32.587L12.7861 32.5373Z" fill="white"/>
<path d="M13.8311 32.587L13.8808 32.6368L13.8311 32.587Z" fill="white"/>
<path d="M14.9751 32.6368V32.9851H15.0248L14.9751 32.6368Z" fill="white"/>
<path d="M24.0298 32.6866V32.9353H24.0795L24.0298 32.6866Z" fill="white"/>
<path d="M32.8359 32.8856L32.8857 32.9353L32.8359 32.8856Z" fill="white"/>
<path d="M49.2041 32.8856L49.2539 32.9353L49.2041 32.8856Z" fill="white"/>
<path d="M50 32.9353L50.0498 32.9851L50 32.9353Z" fill="white"/>
<path d="M31.4429 32.985L31.4926 33.0348L31.4429 32.985Z" fill="white"/>
<path d="M32.6367 33.0349L32.6865 33.0846L32.6367 33.0349Z" fill="white"/>
<path d="M49.8506 33.0349L49.9003 33.0846L49.8506 33.0349Z" fill="white"/>
<path d="M20.3979 33.1841L20.4477 33.2338L20.3979 33.1841Z" fill="white"/>
<path d="M31.144 33.1841L31.1938 33.2338L31.144 33.1841Z" fill="white"/>
<path d="M12.5371 33.2338L12.5869 33.2836L12.5371 33.2338Z" fill="white"/>
<path d="M31.0449 33.2338L31.0947 33.2836L31.0449 33.2338Z" fill="white"/>
<path d="M29.4028 33.2836V33.4328H29.4526L29.4028 33.2836Z" fill="white"/>
<path d="M15.8872 33.3665L15.9038 33.3997L15.8872 33.3665Z" fill="white"/>
<path d="M21.3433 33.3333L21.393 33.3831L21.3433 33.3333Z" fill="white"/>
<path d="M23.9302 33.3333L23.9799 33.3831L23.9302 33.3333Z" fill="white"/>
<path d="M30.7461 33.3333L30.7958 33.3831L30.7461 33.3333Z" fill="white"/>
<path d="M24.8257 33.3831L24.8754 33.4328L24.8257 33.3831Z" fill="white"/>
<path d="M48.4575 33.3831V33.5323H48.5073L48.4575 33.3831Z" fill="white"/>
<path d="M23.8804 33.4329L23.9301 33.4826L23.8804 33.4329Z" fill="white"/>
<path d="M13.3833 33.5323V33.7314H13.4331L13.3833 33.5323Z" fill="white"/>
<path d="M31.9902 33.6318L32.04 33.6816L31.9902 33.6318Z" fill="white"/>
<path d="M49.0215 33.7148L49.0381 33.7479L49.0215 33.7148Z" fill="white"/>
<path d="M31.8906 33.7313L31.9404 33.7811L31.8906 33.7313Z" fill="white"/>
<path d="M15.9204 33.7811L15.9702 33.8308L15.9204 33.7811Z" fill="white"/>
<path d="M21.6416 33.7811L21.6914 33.8308L21.6416 33.7811Z" fill="white"/>
<path d="M31.5918 33.9304L31.6415 33.9801L31.5918 33.9304Z" fill="white"/>
<path d="M49.0547 33.9304L49.1044 33.9801L49.0547 33.9304Z" fill="white"/>
<path d="M12.5371 33.9801L12.5869 34.0299L12.5371 33.9801Z" fill="white"/>
<path d="M20.6963 33.9801L20.746 34.0299L20.6963 33.9801Z" fill="white"/>
<path d="M23.2837 34.0298L23.3334 34.0796L23.2837 34.0298Z" fill="white"/>
<path d="M24.5273 34.0298L24.5771 34.0796L24.5273 34.0298Z" fill="white"/>
<path d="M15.9702 34.0796L16.02 34.1293L15.9702 34.0796Z" fill="white"/>
<path d="M23.1841 34.0796L23.2338 34.1293L23.1841 34.0796Z" fill="white"/>
<path d="M31.2935 34.0796L31.3432 34.1293L31.2935 34.0796Z" fill="white"/>
<path d="M22.9849 34.1293L23.0346 34.1791L22.9849 34.1293Z" fill="white"/>
<path d="M20.8457 34.1791L20.8955 34.2288L20.8457 34.1791Z" fill="white"/>
<path d="M22.5371 34.1791V34.2288H22.7859L22.5371 34.1791Z" fill="white"/>
<path d="M29.2539 34.2786L29.3037 34.3284L29.2539 34.2786Z" fill="white"/>
<path d="M31.3433 34.2786L31.393 34.3284L31.3433 34.2786Z" fill="white"/>
<path d="M29.2041 34.4776L29.2539 34.5274L29.2041 34.4776Z" fill="white"/>
<path d="M48.9053 34.5771L48.955 34.6268L48.9053 34.5771Z" fill="white"/>
<path d="M29.0049 37.1642C29.353 37.3089 29.661 37.4508 30.0497 37.4038C30.9238 37.298 31.4461 36.3954 31.1912 35.5722C31.102 35.2841 30.5285 34.4351 30.1275 34.6827C30.0046 34.7585 29.9879 34.9987 29.9489 35.1244C29.8419 35.4695 29.6939 35.7914 29.5451 36.1194C29.3839 36.4748 29.1224 36.7928 29.0049 37.1642Z" fill="white"/>
<path d="M23.8804 34.6766L23.9301 34.7264L23.8804 34.6766Z" fill="white"/>
<path d="M15.2241 34.7264L15.2739 34.7761L15.2241 34.7264Z" fill="white"/>
<path d="M21.5425 34.7761L21.5922 34.8259L21.5425 34.7761Z" fill="white"/>
<path d="M30.5474 34.7761L30.5971 34.8259L30.5474 34.7761Z" fill="white"/>
<path d="M14.0796 34.8259L14.1293 34.8756L14.0796 34.8259Z" fill="white"/>
<path d="M14.1792 34.8756L14.229 34.9254L14.1792 34.8756Z" fill="white"/>
<path d="M16.1689 34.8756L16.2187 34.9254L16.1689 34.8756Z" fill="white"/>
<path d="M21.7412 34.8756L21.791 34.9254L21.7412 34.8756Z" fill="white"/>
<path d="M30.6963 34.8756L30.746 34.9254L30.6963 34.8756Z" fill="white"/>
<path d="M49.7515 34.8756L49.8012 34.9254L49.7515 34.8756Z" fill="white"/>
<path d="M15.2734 34.9254L15.3232 34.9751L15.2734 34.9254Z" fill="white"/>
<path d="M15.1245 34.9751L15.1743 35.0248L15.1245 34.9751Z" fill="white"/>
<path d="M23.2339 34.9751L23.2836 35.0248L23.2339 34.9751Z" fill="white"/>
<path d="M16.2188 35.0249L16.2685 35.0747L16.2188 35.0249Z" fill="white"/>
<path d="M22.2388 35.0249L22.2885 35.0747L22.2388 35.0249Z" fill="white"/>
<path d="M13.0347 35.0746L13.0844 35.1244L13.0347 35.0746Z" fill="white"/>
<path d="M49.2041 35.1244L49.2539 35.1741L49.2041 35.1244Z" fill="white"/>
<path d="M16.3184 35.2736L16.3681 35.3234L16.3184 35.2736Z" fill="white"/>
<path d="M28.9551 35.2736L29.0048 35.3234L28.9551 35.2736Z" fill="white"/>
<path d="M31.0449 35.2736L31.0947 35.3234L31.0449 35.2736Z" fill="white"/>
<path d="M31.9902 35.2736L32.04 35.3234L31.9902 35.2736Z" fill="white"/>
<path d="M31.1938 35.6219L31.2436 35.6716L31.1938 35.6219Z" fill="white"/>
<path d="M29.7017 35.7214L29.7514 35.7711L29.7017 35.7214Z" fill="white"/>
<path d="M14.2788 35.8209L14.3286 35.8707L14.2788 35.8209Z" fill="white"/>
<path d="M31.2437 35.9204V36.1194H31.2934L31.2437 35.9204Z" fill="white"/>
<path d="M15.7212 36.1194C15.4454 36.2924 15.2 36.4704 15.0447 36.7662C14.2442 38.291 16.205 39.4562 17.363 38.3582V38.3084L15.7212 36.1194Z" fill="white"/>
<path d="M29.4526 36.2687L29.5024 36.3184L29.4526 36.2687Z" fill="white"/>
<path d="M29.4028 36.3682L29.4526 36.4179L29.4028 36.3682Z" fill="white"/>
<path d="M15.9204 36.4677L15.9702 36.5174L15.9204 36.4677Z" fill="white"/>
<path d="M49.4526 36.4677L49.5024 36.5174L49.4526 36.4677Z" fill="white"/>
<path d="M15.1743 36.5174L15.2241 36.5671L15.1743 36.5174Z" fill="white"/>
<path d="M16.9653 36.5174L17.0151 36.5671L16.9653 36.5174Z" fill="white"/>
<path d="M50.3481 36.5174L50.3979 36.5671L50.3481 36.5174Z" fill="white"/>
<path d="M29.2539 36.6169L29.3037 36.6667L29.2539 36.6169Z" fill="white"/>
<path d="M17.0645 36.6667L17.1142 36.7164L17.0645 36.6667Z" fill="white"/>
<path d="M15.0249 36.7164L15.0747 36.7662L15.0249 36.7164Z" fill="white"/>
<path d="M49.2539 36.7662L49.3037 36.8159L49.2539 36.7662Z" fill="white"/>
<path d="M16.1196 36.8159L16.1694 36.8657L16.1196 36.8159Z" fill="white"/>
<path d="M29.1045 36.8657L29.1542 36.9154L29.1045 36.8657Z" fill="white"/>
<path d="M31.9404 36.8657L31.9902 36.9154L31.9404 36.8657Z" fill="white"/>
<path d="M49.1543 36.8657L49.204 36.9154L49.1543 36.8657Z" fill="white"/>
<path d="M14.0298 36.9154L14.0795 36.9652L14.0298 36.9154Z" fill="white"/>
<path d="M28.0098 36.9154L28.0595 36.9652L28.0098 36.9154Z" fill="white"/>
<path d="M14.9253 36.9651L14.975 37.0149L14.9253 36.9651Z" fill="white"/>
<path d="M29.0049 37.015L29.0546 37.0647L29.0049 37.015Z" fill="white"/>
<path d="M17.3633 37.0647L17.413 37.1144L17.3633 37.0647Z" fill="white"/>
<path d="M30.7461 37.0647L30.7958 37.1144L30.7461 37.0647Z" fill="white"/>
<path d="M48.9053 37.0647L48.955 37.1144L48.9053 37.0647Z" fill="white"/>
<path d="M27.811 37.1642L27.8608 37.2139L27.811 37.1642Z" fill="white"/>
<path d="M29.1543 37.2139L29.204 37.2637L29.1543 37.2139Z" fill="white"/>
<path d="M29.2539 37.2637L29.3037 37.3134L29.2539 37.2637Z" fill="white"/>
<path d="M16.4678 37.3134L16.5175 37.3632L16.4678 37.3134Z" fill="white"/>
<path d="M30.2983 37.3134L30.3481 37.3632L30.2983 37.3134Z" fill="white"/>
<path d="M29.5522 37.3632L29.602 37.4129L29.5522 37.3632Z" fill="white"/>
<path d="M17.7114 37.4627L17.7612 37.5125L17.7114 37.4627Z" fill="white"/>
<path d="M49.5024 37.4627L49.5522 37.5125L49.5024 37.4627Z" fill="white"/>
<path d="M47.9106 37.5125L47.9604 37.5622L47.9106 37.5125Z" fill="white"/>
<path d="M27.4629 37.5622L27.5126 37.6119L27.4629 37.5622Z" fill="white"/>
<path d="M27.4131 37.6119L27.4628 37.6617L27.4131 37.6119Z" fill="white"/>
<path d="M31.4429 37.6119L31.4926 37.6617L31.4429 37.6119Z" fill="white"/>
<path d="M49.1045 37.6617L49.1542 37.7114L49.1045 37.6617Z" fill="white"/>
<path d="M31.1938 37.8109L31.2436 37.8607L31.1938 37.8109Z" fill="white"/>
<path d="M48.7563 37.8109L48.8061 37.8607L48.7563 37.8109Z" fill="white"/>
<path d="M46.418 37.8607L46.4677 37.9105L46.418 37.8607Z" fill="white"/>
<path d="M31.0449 37.9105L31.0947 37.9602L31.0449 37.9105Z" fill="white"/>
<path d="M27.0151 37.9602L27.0649 38.01L27.0151 37.9602Z" fill="white"/>
<path d="M18.3584 38.0597L18.4081 38.1094L18.3584 38.0597Z" fill="white"/>
<path d="M26.9155 38.0597L26.9653 38.1094L26.9155 38.0597Z" fill="white"/>
<path d="M26.02 39.6517C26.0932 40.3127 26.9112 40.6812 27.5126 40.5808C28.1255 40.4785 28.575 40.0058 28.6835 39.403C28.7312 39.1379 28.597 38.0778 28.1574 38.1821C27.942 38.2333 27.7314 38.5292 27.5623 38.6664C27.1083 39.0351 26.5855 39.4727 26.02 39.6517Z" fill="white"/>
<path d="M47.7612 38.1094L47.811 38.1592L47.7612 38.1094Z" fill="white"/>
<path d="M26.7661 38.1592L26.8159 38.2089L26.7661 38.1592Z" fill="white"/>
<path d="M29.353 38.209L29.4028 38.2587L29.353 38.209Z" fill="white"/>
<path d="M30.2983 38.209L30.3481 38.2587L30.2983 38.209Z" fill="white"/>
<path d="M44.7266 38.209L44.7763 38.2587L44.7266 38.209Z" fill="white"/>
<path d="M29.7017 38.2587V38.3085H30.0002L29.7017 38.2587Z" fill="white"/>
<path d="M44.5273 38.2587L44.5771 38.3085L44.5273 38.2587Z" fill="white"/>
<path d="M46.9653 38.2587L47.0151 38.3085L46.9653 38.2587Z" fill="white"/>
<path d="M26.5674 38.3085L26.6171 38.3582L26.5674 38.3085Z" fill="white"/>
<path d="M46.6665 38.3085L46.7163 38.3582L46.6665 38.3085Z" fill="white"/>
<path d="M14.1792 38.3582L14.229 38.408L14.1792 38.3582Z" fill="white"/>
<path d="M29.4028 38.3582L29.4526 38.408L29.4028 38.3582Z" fill="white"/>
<path d="M46.418 38.3582L46.4677 38.408L46.418 38.3582Z" fill="white"/>
<path d="M43.98 38.408L44.0297 38.4577L43.98 38.408Z" fill="white"/>
<path d="M46.1196 38.408L46.1694 38.4577L46.1196 38.408Z" fill="white"/>
<path d="M18.9053 38.4577L18.955 38.5075L18.9053 38.4577Z" fill="white"/>
<path d="M43.8311 38.4577L43.8808 38.5075L43.8311 38.4577Z" fill="white"/>
<path d="M45.8706 38.4577L45.9204 38.5075L45.8706 38.4577Z" fill="white"/>
<path d="M29.4526 38.5074L29.5024 38.5572L29.4526 38.5074Z" fill="white"/>
<path d="M14.2788 38.5572L14.3286 38.6069L14.2788 38.5572Z" fill="white"/>
<path d="M15.4229 38.5572L15.4726 38.6069L15.4229 38.5572Z" fill="white"/>
<path d="M27.6616 38.5572L27.7114 38.6069L27.6616 38.5572Z" fill="white"/>
<path d="M43.5322 38.5572L43.582 38.6069L43.5322 38.5572Z" fill="white"/>
<path d="M16.9155 38.6567L16.9653 38.7065L16.9155 38.6567Z" fill="white"/>
<path d="M44.5771 38.7065L44.6269 38.7562L44.5771 38.7065Z" fill="white"/>
<path d="M15.8208 38.7562L15.8706 38.806L15.8208 38.7562Z" fill="white"/>
<path d="M16.02 38.806L16.0698 38.8557L16.02 38.806Z" fill="white"/>
<path d="M16.4678 38.806L16.5175 38.8557L16.4678 38.806Z" fill="white"/>
<path d="M19.8008 38.9552L19.8505 39.005L19.8008 38.9552Z" fill="white"/>
<path d="M25.4727 38.9552L25.5224 39.005L25.4727 38.9552Z" fill="white"/>
<path d="M27.1641 38.9552L27.2138 39.005L27.1641 38.9552Z" fill="white"/>
<path d="M43.6816 38.9552L43.7314 39.005L43.6816 38.9552Z" fill="white"/>
<path d="M25.1245 39.1045L25.1743 39.1542L25.1245 39.1045Z" fill="white"/>
<path d="M18.3086 39.1542C18.0459 39.6061 17.9485 40.1595 18.1922 40.6468C18.589 41.4405 19.7833 41.6802 20.433 41.0342C20.6518 40.8166 20.7619 40.5386 20.846 40.2488L18.3086 39.1542Z" fill="white"/>
<path d="M20.4478 39.204L20.4975 39.2537L20.4478 39.204Z" fill="white"/>
<path d="M24.8257 39.204L24.8754 39.2537L24.8257 39.204Z" fill="white"/>
<path d="M24.6768 39.2537L24.7265 39.3035L24.6768 39.2537Z" fill="white"/>
<path d="M26.7163 39.2537L26.7661 39.3035L26.7163 39.2537Z" fill="white"/>
<path d="M42.8359 39.2537L42.8857 39.3035L42.8359 39.2537Z" fill="white"/>
<path d="M20.7461 39.3035L20.7958 39.3532L20.7461 39.3035Z" fill="white"/>
<path d="M24.1294 39.403L24.1791 39.4527L24.1294 39.403Z" fill="white"/>
<path d="M41.8906 39.403L41.9404 39.4527L41.8906 39.403Z" fill="white"/>
<path d="M15.2241 39.4528L15.2739 39.5025L15.2241 39.4528Z" fill="white"/>
<path d="M21.6416 39.5025L21.6914 39.5523L21.6416 39.5025Z" fill="white"/>
<path d="M23.6318 39.5025L23.6816 39.5523L23.6318 39.5025Z" fill="white"/>
<path d="M42.3384 39.5025L42.3881 39.5523L42.3384 39.5025Z" fill="white"/>
<path d="M22.0728 39.5688L22.1059 39.5854L22.0728 39.5688Z" fill="white"/>
<path d="M23.1343 39.5522V39.602H23.2835L23.1343 39.5522Z" fill="white"/>
<path d="M26.2188 39.5522L26.2685 39.602L26.2188 39.5522Z" fill="white"/>
<path d="M29.5024 39.5522L29.5522 39.602L29.5024 39.5522Z" fill="white"/>
<path d="M42.2388 39.5522L42.2885 39.602L42.2388 39.5522Z" fill="white"/>
<path d="M16.9155 39.602L16.9653 39.6517L16.9155 39.602Z" fill="white"/>
<path d="M15.8706 39.6517L15.9204 39.7015L15.8706 39.6517Z" fill="white"/>
<path d="M42.04 39.6517L42.0898 39.7015L42.04 39.6517Z" fill="white"/>
<path d="M17.1807 39.7347L17.1973 39.7678L17.1807 39.7347Z" fill="white"/>
<path d="M41.3433 39.801L41.393 39.8508L41.3433 39.801Z" fill="white"/>
<path d="M18.0098 39.9005V40.1493H18.0595L18.0098 39.9005Z" fill="white"/>
<path d="M19.8008 39.9005L19.8505 39.9503L19.8008 39.9005Z" fill="white"/>
<path d="M20.0498 40L20.0996 40.0498L20.0498 40Z" fill="white"/>
<path d="M28.4082 40L28.458 40.0498L28.4082 40Z" fill="white"/>
<path d="M41.0947 40L41.1445 40.0498L41.0947 40Z" fill="white"/>
<path d="M20.1992 40.0497L20.249 40.0995L20.1992 40.0497Z" fill="white"/>
<path d="M20.3481 40.0995L20.3979 40.1492L20.3481 40.0995Z" fill="white"/>
<path d="M22.0894 40.4477C22.0894 40.987 22.1879 41.4186 22.6367 41.7716C23.379 42.3555 24.5252 41.9738 24.8204 41.0945C24.9205 40.7964 24.8819 40.4522 24.8257 40.1492L22.0894 40.4477Z" fill="white"/>
<path d="M17.1807 40.2322L17.1973 40.2653L17.1807 40.2322Z" fill="white"/>
<path d="M20.7461 40.199L20.7958 40.2487L20.7461 40.199Z" fill="white"/>
<path d="M28.209 40.199L28.2587 40.2487L28.209 40.199Z" fill="white"/>
<path d="M41.2935 40.199L41.3432 40.2487L41.2935 40.199Z" fill="white"/>
<path d="M20.7959 40.2985L20.8456 40.3483L20.7959 40.2985Z" fill="white"/>
<path d="M24.0796 40.2985L24.1293 40.3483L24.0796 40.2985Z" fill="white"/>
<path d="M18.0596 40.3483L18.1093 40.398L18.0596 40.3483Z" fill="white"/>
<path d="M23.4658 40.4146L23.499 40.4312L23.4658 40.4146Z" fill="white"/>
<path d="M18.1094 40.4975L18.1591 40.5472L18.1094 40.4975Z" fill="white"/>
<path d="M26.8159 40.4975L26.8657 40.5472L26.8159 40.4975Z" fill="white"/>
<path d="M27.7114 40.4975L27.7612 40.5472L27.7114 40.4975Z" fill="white"/>
<path d="M40.0996 40.8955L40.1494 40.9453L40.0996 40.8955Z" fill="white"/>
<path d="M40.0498 40.9453L40.0996 40.995L40.0498 40.9453Z" fill="white"/>
<path d="M40 40.995L40.0498 41.0447L40 40.995Z" fill="white"/>
<path d="M17.4131 41.0448L17.4628 41.0946L17.4131 41.0448Z" fill="white"/>
<path d="M40.3481 41.0945L40.3979 41.1443L40.3481 41.0945Z" fill="white"/>
<path d="M26.1689 41.1443L26.2187 41.194L26.1689 41.1443Z" fill="white"/>
<path d="M39.8506 41.1443L39.9003 41.194L39.8506 41.1443Z" fill="white"/>
<path d="M26.2686 41.194L26.3183 41.2438L26.2686 41.194Z" fill="white"/>
<path d="M39.8008 41.194L39.8505 41.2438L39.8008 41.194Z" fill="white"/>
<path d="M18.8062 41.2438L18.8559 41.2935L18.8062 41.2438Z" fill="white"/>
<path d="M39.7515 41.2438L39.8012 41.2935L39.7515 41.2438Z" fill="white"/>
<path d="M19.9502 41.2935L19.9999 41.3433L19.9502 41.2935Z" fill="white"/>
<path d="M39.7017 41.2935L39.7514 41.3433L39.7017 41.2935Z" fill="white"/>
<path d="M19.0547 41.3433L19.1044 41.393L19.0547 41.3433Z" fill="white"/>
<path d="M19.8008 41.3433L19.8505 41.393L19.8008 41.3433Z" fill="white"/>
<path d="M27.9106 41.3433L27.9604 41.393L27.9106 41.3433Z" fill="white"/>
<path d="M19.3037 41.3931V41.4428H19.5525L19.3037 41.3931Z" fill="white"/>
<path d="M27.7114 41.3931L27.7612 41.4428L27.7114 41.3931Z" fill="white"/>
<path d="M40 41.4428L40.0498 41.4926L40 41.4428Z" fill="white"/>
<path d="M17.7612 41.5423L17.811 41.592L17.7612 41.5423Z" fill="white"/>
<path d="M22.438 41.592L22.4877 41.6418L22.438 41.592Z" fill="white"/>
<path d="M22.4878 41.6418L22.5375 41.6915L22.4878 41.6418Z" fill="white"/>
<path d="M24.4277 41.6418L24.4775 41.6915L24.4277 41.6418Z" fill="white"/>
<path d="M39.5024 41.9901L39.5522 42.0398L39.5024 41.9901Z" fill="white"/>
<path d="M23.3833 42.0398V42.0895H23.5823L23.3833 42.0398Z" fill="white"/>
<path d="M18.7065 42.1393L18.7563 42.189L18.7065 42.1393Z" fill="white"/>
<path d="M19.1377 42.2554L19.1708 42.272L19.1377 42.2554Z" fill="white"/>
<path d="M19.7349 42.2554L19.768 42.272L19.7349 42.2554Z" fill="white"/>
<path d="M39.0547 42.4875L39.1044 42.5373L39.0547 42.4875Z" fill="white"/>
<path d="M38.5571 42.5373L38.6069 42.587L38.5571 42.5373Z" fill="white"/>
<path d="M39.0049 42.5373L39.0546 42.587L39.0049 42.5373Z" fill="white"/>
<path d="M22.9355 42.8358L22.9853 42.8856L22.9355 42.8358Z" fill="white"/>
<path d="M23.2173 42.9022L23.2504 42.9188L23.2173 42.9022Z" fill="white"/>
<path d="M23.7148 42.9022L23.748 42.9188L23.7148 42.9022Z" fill="white"/>
<path d="M62.0099 32.3482C62.4079 32.4743 62.7199 32.6865 62.9453 32.985C63.1706 33.2769 63.2836 33.6384 63.2836 34.0696C63.2836 34.6799 63.0448 35.1509 62.5672 35.4826C62.096 35.8076 61.4065 35.9701 60.4975 35.9701H56.8955V29.0049H60.2985C61.1477 29.0049 61.7975 29.1675 62.2487 29.4925C62.7065 29.8175 62.9353 30.2587 62.9353 30.8159C62.9353 31.1542 62.8522 31.456 62.6866 31.7214C62.5274 31.9867 62.302 32.1956 62.0099 32.3482ZM58.4975 30.2189V31.8607H60.0995C60.4975 31.8607 60.7995 31.791 61.005 31.6517C61.2104 31.5124 61.3134 31.3068 61.3134 31.0348C61.3134 30.7628 61.2104 30.5605 61.005 30.4278C60.7995 30.2885 60.4975 30.2189 60.0995 30.2189H58.4975ZM60.3781 34.7562C60.8025 34.7562 61.1209 34.6865 61.3333 34.5472C61.5522 34.4079 61.6617 34.1924 61.6617 33.9005C61.6617 33.3234 61.2338 33.0348 60.3781 33.0348H58.4975V34.7562H60.3781ZM66.5537 30.5373C67.3831 30.5373 68.0199 30.7363 68.4642 31.1343C68.9084 31.5257 69.1308 32.1194 69.1308 32.9154V35.9701H67.6781V35.3035C67.3861 35.801 66.8423 36.0497 66.0463 36.0497C65.6348 36.0497 65.2766 35.9801 64.9716 35.8408C64.6731 35.7015 64.4443 35.5091 64.2851 35.2637C64.1259 35.0182 64.0463 34.7396 64.0463 34.4278C64.0463 33.9303 64.2318 33.5389 64.6035 33.2537C64.9816 32.9685 65.5622 32.8258 66.3448 32.8258H67.5786C67.5786 32.4875 67.4756 32.2288 67.2701 32.0497C67.0647 31.864 66.7562 31.7711 66.3448 31.7711C66.0597 31.7711 65.7776 31.8175 65.499 31.9104C65.2269 31.9966 64.995 32.116 64.8025 32.2686L64.2453 31.1841C64.5373 30.9784 64.8856 30.8192 65.29 30.7064C65.7015 30.5937 66.1224 30.5373 66.5537 30.5373ZM66.4343 35.0049C66.6995 35.0049 66.9353 34.9452 67.1408 34.8258C67.3463 34.6998 67.4925 34.5174 67.5786 34.2786V33.7313H66.5139C65.8771 33.7313 65.5587 33.9403 65.5587 34.3582C65.5587 34.5572 65.6348 34.7164 65.7875 34.8358C65.9468 34.9486 66.1622 35.0049 66.4343 35.0049ZM73.7895 30.5373C74.4527 30.5373 74.9866 30.7363 75.3915 31.1343C75.8025 31.5323 76.0084 32.1227 76.0084 32.9054V35.9701H74.4562V33.1443C74.4562 32.7197 74.3632 32.4046 74.1776 32.199C73.9915 31.9867 73.7229 31.8806 73.3716 31.8806C72.9801 31.8806 72.6681 32.0033 72.4363 32.2487C72.204 32.4875 72.088 32.8457 72.088 33.3234V35.9701H70.5358V30.6169H72.0184V31.2438C72.2239 31.0182 72.4791 30.8457 72.7846 30.7263C73.0895 30.6003 73.4244 30.5373 73.7895 30.5373ZM79.7139 33.8706L78.9676 34.6069V35.9701H77.4154V28.587H78.9676V32.7661L81.2363 30.6169H83.0871L80.8582 32.8855L83.2861 35.9701H81.4055L79.7139 33.8706Z" fill="white"/>
</svg>
