<svg width="2585" height="1005" viewBox="0 0 2585 1005" fill="none" xmlns="http://www.w3.org/2000/svg">
<path d="M1271 489L1270.8 405L1229.6 474.2H1215L1174 406.8V489H1143.6V349H1170.4L1222.8 436L1274.4 349H1301L1301.4 489H1271Z" fill="#230b42"/>
<path d="M1375.82 379.8C1392.48 379.8 1405.28 383.8 1414.22 391.8C1423.15 399.667 1427.62 411.6 1427.62 427.6V489H1398.42V475.6C1392.55 485.6 1381.62 490.6 1365.62 490.6C1357.35 490.6 1350.15 489.2 1344.02 486.4C1338.02 483.6 1333.42 479.733 1330.22 474.8C1327.02 469.867 1325.42 464.267 1325.42 458C1325.42 448 1329.15 440.133 1336.62 434.4C1344.22 428.667 1355.88 425.8 1371.62 425.8H1396.42C1396.42 419 1394.35 413.8 1390.22 410.2C1386.08 406.467 1379.88 404.6 1371.62 404.6C1365.88 404.6 1360.22 405.533 1354.62 407.4C1349.15 409.133 1344.48 411.533 1340.62 414.6L1329.42 392.8C1335.28 388.667 1342.28 385.467 1350.42 383.2C1358.68 380.933 1367.15 379.8 1375.82 379.8ZM1373.42 469.6C1378.75 469.6 1383.48 468.4 1387.62 466C1391.75 463.467 1394.68 459.8 1396.42 455V444H1375.02C1362.22 444 1355.82 448.2 1355.82 456.6C1355.82 460.6 1357.35 463.8 1360.42 466.2C1363.62 468.467 1367.95 469.6 1373.42 469.6Z" fill="#230b42"/>
<path d="M1521.25 379.8C1534.59 379.8 1545.32 383.8 1553.45 391.8C1561.72 399.8 1565.85 411.667 1565.85 427.4V489H1534.65V432.2C1534.65 423.667 1532.79 417.333 1529.05 413.2C1525.32 408.933 1519.92 406.8 1512.85 406.8C1504.99 406.8 1498.72 409.267 1494.05 414.2C1489.39 419 1487.05 426.2 1487.05 435.8V489H1455.85V381.4H1485.65V394C1489.79 389.467 1494.92 386 1501.05 383.6C1507.19 381.067 1513.92 379.8 1521.25 379.8Z" fill="#230b42"/>
<path d="M1659.53 379.8C1672.87 379.8 1683.6 383.8 1691.73 391.8C1700 399.8 1704.13 411.667 1704.13 427.4V489H1672.93V432.2C1672.93 423.667 1671.07 417.333 1667.33 413.2C1663.6 408.933 1658.2 406.8 1651.13 406.8C1643.27 406.8 1637 409.267 1632.33 414.2C1627.67 419 1625.33 426.2 1625.33 435.8V489H1594.13V381.4H1623.93V394C1628.07 389.467 1633.2 386 1639.33 383.6C1645.47 381.067 1652.2 379.8 1659.53 379.8Z" fill="#230b42"/>
<path d="M1791.26 349H1854.86C1870.06 349 1883.46 351.933 1895.06 357.8C1906.79 363.533 1915.86 371.667 1922.26 382.2C1928.79 392.733 1932.06 405 1932.06 419C1932.06 433 1928.79 445.267 1922.26 455.8C1915.86 466.333 1906.79 474.533 1895.06 480.4C1883.46 486.133 1870.06 489 1854.86 489H1791.26V349ZM1853.26 462.4C1867.26 462.4 1878.39 458.533 1886.66 450.8C1895.06 442.933 1899.26 432.333 1899.26 419C1899.26 405.667 1895.06 395.133 1886.66 387.4C1878.39 379.533 1867.26 375.6 1853.26 375.6H1823.66V462.4H1853.26Z" fill="#230b42"/>
<path d="M2059.69 435.6C2059.69 436 2059.49 438.8 2059.09 444H1977.69C1979.16 450.667 1982.62 455.933 1988.09 459.8C1993.56 463.667 2000.36 465.6 2008.49 465.6C2014.09 465.6 2019.02 464.8 2023.29 463.2C2027.69 461.467 2031.76 458.8 2035.49 455.2L2052.09 473.2C2041.96 484.8 2027.16 490.6 2007.69 490.6C1995.56 490.6 1984.82 488.267 1975.49 483.6C1966.16 478.8 1958.96 472.2 1953.89 463.8C1948.82 455.4 1946.29 445.867 1946.29 435.2C1946.29 424.667 1948.76 415.2 1953.69 406.8C1958.76 398.267 1965.62 391.667 1974.29 387C1983.09 382.2 1992.89 379.8 2003.69 379.8C2014.22 379.8 2023.76 382.067 2032.29 386.6C2040.82 391.133 2047.49 397.667 2052.29 406.2C2057.22 414.6 2059.69 424.4 2059.69 435.6ZM2003.89 403.4C1996.82 403.4 1990.89 405.4 1986.09 409.4C1981.29 413.4 1978.36 418.867 1977.29 425.8H2030.29C2029.22 419 2026.29 413.6 2021.49 409.6C2016.69 405.467 2010.82 403.4 2003.89 403.4Z" fill="#230b42"/>
<path d="M2116.66 490.6C2107.73 490.6 2099 489.533 2090.46 487.4C2081.93 485.133 2075.13 482.333 2070.06 479L2080.46 456.6C2085.26 459.667 2091.06 462.2 2097.86 464.2C2104.66 466.067 2111.33 467 2117.86 467C2131.06 467 2137.66 463.733 2137.66 457.2C2137.66 454.133 2135.86 451.933 2132.26 450.6C2128.66 449.267 2123.13 448.133 2115.66 447.2C2106.86 445.867 2099.6 444.333 2093.86 442.6C2088.13 440.867 2083.13 437.8 2078.86 433.4C2074.73 429 2072.66 422.733 2072.66 414.6C2072.66 407.8 2074.6 401.8 2078.46 396.6C2082.46 391.267 2088.2 387.133 2095.66 384.2C2103.26 381.267 2112.2 379.8 2122.46 379.8C2130.06 379.8 2137.6 380.667 2145.06 382.4C2152.66 384 2158.93 386.267 2163.86 389.2L2153.46 411.4C2144 406.067 2133.66 403.4 2122.46 403.4C2115.8 403.4 2110.8 404.333 2107.46 406.2C2104.13 408.067 2102.46 410.467 2102.46 413.4C2102.46 416.733 2104.26 419.067 2107.86 420.4C2111.46 421.733 2117.2 423 2125.06 424.2C2133.86 425.667 2141.06 427.267 2146.66 429C2152.26 430.6 2157.13 433.6 2161.26 438C2165.4 442.4 2167.46 448.533 2167.46 456.4C2167.46 463.067 2165.46 469 2161.46 474.2C2157.46 479.4 2151.6 483.467 2143.86 486.4C2136.26 489.2 2127.2 490.6 2116.66 490.6Z" fill="#230b42"/>
<path d="M2252.11 379.8C2265.45 379.8 2276.18 383.8 2284.31 391.8C2292.58 399.8 2296.71 411.667 2296.71 427.4V489H2265.51V432.2C2265.51 423.667 2263.65 417.333 2259.91 413.2C2256.18 408.933 2250.78 406.8 2243.71 406.8C2235.85 406.8 2229.58 409.267 2224.91 414.2C2220.25 419 2217.91 426.2 2217.91 435.8V489H2186.71V340.6H2217.91V392.6C2222.05 388.467 2227.05 385.333 2232.91 383.2C2238.78 380.933 2245.18 379.8 2252.11 379.8Z" fill="#230b42"/>
<path d="M2324.99 381.4H2356.19V489H2324.99V381.4ZM2340.59 366.4C2334.86 366.4 2330.19 364.733 2326.59 361.4C2322.99 358.067 2321.19 353.933 2321.19 349C2321.19 344.067 2322.99 339.933 2326.59 336.6C2330.19 333.267 2334.86 331.6 2340.59 331.6C2346.33 331.6 2350.99 333.2 2354.59 336.4C2358.19 339.6 2359.99 343.6 2359.99 348.4C2359.99 353.6 2358.19 357.933 2354.59 361.4C2350.99 364.733 2346.33 366.4 2340.59 366.4Z" fill="#230b42"/>
<path d="M708 127V128H711L708 127Z" fill="#230b42"/>
<path d="M269 575H270C280.019 554.927 300.168 548.356 321 550C309.798 520.919 327.349 486.636 361 485.104C373.112 484.553 382.957 491.43 393 497C401.342 464.839 433.412 444.285 464 464.244C473.243 470.275 477.128 479.272 483 488C513.213 449.384 572.953 477.481 564 525C591.94 515.909 626.417 528.021 628.91 562C629.922 575.797 623.84 585.207 618 597C642.126 605.183 658.774 619.691 659 647H660C669.691 617.218 678.58 587.006 683.562 556C687.195 533.387 690.483 510.702 693.575 488C703.178 417.487 709.339 348.325 742.895 284C760.084 251.049 786.157 219.356 820 202.691C833.338 196.123 846.447 190.985 861 187.651C871.685 185.203 882.213 184.981 893 183.826C900.431 183.031 907.417 180.449 915 181C913.905 172.875 905.684 167.927 899 164.234C883.304 155.561 866.412 148.168 849 143.629C778.629 125.284 704.844 119.58 634 139.71C485.941 181.779 372.113 310.987 311.139 448C293.653 487.293 274.781 532.073 269 575Z" fill="#230b42"/>
<path d="M754 127V128H757L754 127Z" fill="#230b42"/>
<path d="M768.667 128.333L769.333 128.667L768.667 128.333Z" fill="#230b42"/>
<path d="M778.667 129.333L779.333 129.667L778.667 129.333Z" fill="#230b42"/>
<path d="M895 183L907 200C889.404 203.315 873.102 207.701 857 215.809C823.471 232.692 799.914 263.954 782.139 296C743.12 366.347 732.18 451.072 711.884 528C701.106 568.854 690.817 620.726 658 650C661.532 622.053 643.739 603.662 618 597C626.005 585.727 630.718 573.006 628.7 559C624.323 528.622 590.984 513.039 564 525C568.38 506.603 560.914 486.571 545 476.108C526.428 463.897 494.359 467.161 483 488C479.028 479.619 474.616 471.303 466.999 465.61C437.196 443.333 399.659 462.683 393 497C380.976 487.826 367.057 483.25 352 486.517C324.909 492.394 307.773 524.799 321 550C310.711 549.788 301.794 548.929 292 553.312C256.268 569.306 260.235 609.367 284 633C236.883 644.191 245.201 718.916 293 721C288.71 728.538 283.579 735.131 282.3 744C279.075 766.372 290.259 789.49 313 796.215C324.232 799.537 334.938 797.53 346 795C343.182 830.708 372.448 860.394 409 846.444C417.04 843.376 423.055 836.944 429 831C437.619 879.352 516.02 868.22 517 821C540.703 841.443 578.624 834.93 591.123 805C596.044 793.218 593.721 780.897 591 769C601.273 769 611.595 769.608 621 764.674C653.66 747.537 651.018 708.589 627 686C639.848 682.92 646.046 672.412 656.001 665.015C697.819 633.939 721.06 590.325 734.745 541C759.43 452.032 772.959 358.611 832.739 285C853.284 259.702 876.569 233.855 908 222.436C910.896 221.384 915.714 219.143 918.79 220.353C922.752 221.911 924.985 228.608 927.061 232C933.916 243.2 940.209 255.06 945.691 267C960.38 298.989 975.057 334.211 975 370C974.971 387.926 962.741 401.752 962.259 419C961.995 428.478 966.242 438.1 971.062 446C983.59 466.535 1001.11 483.112 1018 500C1023.22 505.22 1036.6 514.343 1037.55 522C1038.34 528.347 1030.38 534.771 1026.29 538.486C1015.58 548.199 999.822 556.77 996.519 572C993.62 585.363 1007.8 605.272 998.772 615.985C991.8 624.259 978.636 630.048 969 634.681C966.164 636.044 959.449 638.272 960.752 642.682C962.155 647.435 971.544 641.596 974 640.604C983.681 636.695 995.919 634.537 1001.54 646.001C1009.33 661.885 981.051 659.703 976.028 668.213C972.333 674.473 976.928 683.422 979.756 689C987.53 704.331 1004.72 726.338 987.91 741.56C977.203 751.258 962.626 754.655 949 757.884C925.699 763.407 901.837 766.886 879 774.194C847.946 784.132 823.664 805.336 801 828C790.282 838.718 778.689 849.518 770 862C780.709 867.544 794.159 845.286 800.911 838C828.936 807.759 856.085 789.229 896 778.735C923.532 771.496 953.379 771.332 980 760.796C989.803 756.917 1000.75 752.51 1007.47 743.985C1020.89 726.978 1005.81 708.026 995.37 694C991.943 689.394 986.025 684.136 985.948 678C985.768 663.715 1008.49 667.304 1011.61 653C1012.61 648.403 1012.15 642.973 1009.36 639.093C1007.72 636.806 1002.85 634.141 1003.02 631.001C1003.35 624.569 1016.62 624.126 1017.73 616C1019.42 603.661 1006.94 592.69 1008.76 580C1012.65 552.843 1058.68 549.238 1051.47 518C1048.38 504.612 1035.25 496.804 1026 487.961C1008.11 470.853 982.633 447.79 975.637 423C972.956 413.499 980.817 406.369 983.644 398C987.865 385.508 989.082 371.104 987.83 358C981.838 295.289 947.209 231.698 913 180L895 183Z" fill="#230b42"/>
<path d="M914.333 181.667L914.667 182.333L914.333 181.667Z" fill="#230b42"/>
<path d="M880.667 184.333L881.333 184.667L880.667 184.333Z" fill="#230b42"/>
<path d="M659 649C672.741 639.32 680.116 623.034 686.424 608C698.782 578.552 706.621 547.812 714.735 517C732.398 449.916 743.654 379.417 772.691 316C790.772 276.513 816.531 239.322 855 217.428C871.579 207.992 888.798 204.484 907 200C904.288 195.241 900.317 187.931 895.536 185.028C886.789 179.716 865.235 186.329 856 188.627C815.713 198.651 783.948 222.902 759.478 256C707.472 326.342 702.675 417.675 691.718 501C685.009 552.025 672.485 599.598 659 649Z" fill="#230b42"/>
<path d="M899 189L900 190L899 189Z" fill="#230b42"/>
<path d="M876 207L877 208L876 207Z" fill="#230b42"/>
<path d="M871 209L872 210L871 209Z" fill="#230b42"/>
<path d="M930 209L931 210L930 209Z" fill="#230b42"/>
<path d="M864 212L865 213L864 212Z" fill="#230b42"/>
<path d="M935 218L936 219L935 218Z" fill="#230b42"/>
<path d="M917 219L918 220L917 219Z" fill="#230b42"/>
<path d="M849 220L850 221L849 220Z" fill="#230b42"/>
<path d="M920 220L921 221L920 220Z" fill="#230b42"/>
<path d="M910 221L911 222L910 221Z" fill="#230b42"/>
<path d="M907 222L908 223L907 222Z" fill="#230b42"/>
<path d="M939 225L940 226L939 225Z" fill="#230b42"/>
<path d="M897 226L898 227L897 226Z" fill="#230b42"/>
<path d="M895 227L896 228L895 227Z" fill="#230b42"/>
<path d="M837 228L838 229L837 228Z" fill="#230b42"/>
<path d="M831 233L832 234L831 233Z" fill="#230b42"/>
<path d="M885 233L886 234L885 233Z" fill="#230b42"/>
<path d="M944 234L945 235L944 234Z" fill="#230b42"/>
<path d="M929 235L930 236L929 235Z" fill="#230b42"/>
<path d="M826 237L827 238L826 237Z" fill="#230b42"/>
<path d="M949 244L950 245L949 244Z" fill="#230b42"/>
<path d="M950 246L951 247L950 246Z" fill="#230b42"/>
<path d="M815 248L816 249L815 248Z" fill="#230b42"/>
<path d="M951 248L952 249L951 248Z" fill="#230b42"/>
<path d="M937 250L938 251L937 250Z" fill="#230b42"/>
<path d="M952 250L953 251L952 250Z" fill="#230b42"/>
<path d="M938 252L939 253L938 252Z" fill="#230b42"/>
<path d="M953 252L954 253L953 252Z" fill="#230b42"/>
<path d="M945 266L946 267L945 266Z" fill="#230b42"/>
<path d="M960 267L961 268L960 267Z" fill="#230b42"/>
<path d="M946 268L947 269L946 268Z" fill="#230b42"/>
<path d="M952 281L953 282L952 281Z" fill="#230b42"/>
<path d="M787 286L788 287L787 286Z" fill="#230b42"/>
<path d="M829 288L830 289L829 288Z" fill="#230b42"/>
<path d="M956 291L957 292L956 291Z" fill="#230b42"/>
<path d="M781 297L782 298L781 297Z" fill="#230b42"/>
<path d="M816 305L817 306L816 305Z" fill="#230b42"/>
<path d="M812 311L813 312L812 311Z" fill="#230b42"/>
<path d="M769 322L770 323L769 322Z" fill="#230b42"/>
<path d="M967 323L968 324L967 323Z" fill="#230b42"/>
<path d="M981 324L982 325L981 324Z" fill="#230b42"/>
<path d="M969 330L970 331L969 330ZM797 335L798 336L797 335Z" fill="#230b42"/>
<path d="M949.105 335.873C938.978 340.069 940.012 358.777 942.75 367C944.364 371.846 947.991 377.554 953.985 375.392C964.217 371.7 963.672 352.16 960.532 344C958.758 339.391 954.909 333.469 949.105 335.873Z" fill="#230b42"/>
<path d="M763 337L764 338L763 337Z" fill="#230b42"/>
<path d="M796 337L797 338L796 337Z" fill="#230b42"/>
<path d="M986 348L987 349L986 348Z" fill="#230b42"/>
<path d="M962 353V359H963L962 353Z" fill="#230b42"/>
<path d="M756 356L757 357L756 356Z" fill="#230b42"/>
<path d="M974.333 357.667L974.667 358.333L974.333 357.667Z" fill="#230b42"/>
<path d="M755 359L756 360L755 359Z" fill="#230b42"/>
<path d="M754 362L755 363L754 362Z" fill="#230b42"/>
<path d="M941 362L942 363L941 362Z" fill="#230b42"/>
<path d="M753 366L754 367L753 366Z" fill="#230b42"/>
<path d="M783 367L784 368L783 367Z" fill="#230b42"/>
<path d="M780 375L781 376L780 375Z" fill="#230b42"/>
<path d="M974.333 377.667L974.667 378.333L974.333 377.667Z" fill="#230b42"/>
<path d="M779 378L780 379L779 378Z" fill="#230b42"/>
<path d="M749 379L750 380L749 379Z" fill="#230b42"/>
<path d="M987.333 379.667L987.667 380.333L987.333 379.667Z" fill="#230b42"/>
<path d="M777 384L778 385L777 384Z" fill="#230b42"/>
<path d="M973 384L974 385L973 384Z" fill="#230b42"/>
<path d="M747 386L748 387L747 386Z" fill="#230b42"/>
<path d="M986 386L987 387L986 386Z" fill="#230b42"/>
<path d="M830 463H831C851.787 425.699 887.403 398.545 931 407C922.721 388.059 903.708 389.568 887 395.206C859.453 404.502 836.419 435.266 830 463Z" fill="#230b42"/>
<path d="M912 391L913 392L912 391Z" fill="#230b42"/>
<path d="M892 393L893 394L892 393Z" fill="#230b42"/>
<path d="M889 394L890 395L889 394Z" fill="#230b42"/>
<path d="M920 394L921 395L920 394Z" fill="#230b42"/>
<path d="M881 397L882 398L881 397Z" fill="#230b42"/>
<path d="M926 399L927 400L926 399Z" fill="#230b42"/>
<path d="M743 402L744 403L743 402Z" fill="#230b42"/>
<path d="M771 403L772 404L771 403Z" fill="#230b42"/>
<path d="M868 405L869 406L868 405Z" fill="#230b42"/>
<path d="M928 406L929 407L928 406Z" fill="#230b42"/>
<path d="M888 408L889 409L888 408Z" fill="#230b42"/>
<path d="M769 409L770 410L769 409Z" fill="#230b42"/>
<path d="M963 410L964 411L963 410Z" fill="#230b42"/>
<path d="M740 413L741 414L740 413Z" fill="#230b42"/>
<path d="M962.333 415.667L962.667 416.333L962.333 415.667Z" fill="#230b42"/>
<path d="M851 422L852 423L851 422Z" fill="#230b42"/>
<path d="M962.333 422.667L962.667 423.333L962.333 422.667Z" fill="#230b42"/>
<path d="M765 423L766 424L765 423Z" fill="#230b42"/>
<path d="M975 423L976 424L975 423Z" fill="#230b42"/>
<path d="M849 471C866.227 462.655 874.789 437.826 896 435.185C904.247 434.158 911.402 437.43 919 440C916.108 430.168 900.72 427.785 892 429.9C874.854 434.058 855.711 455.126 849 471Z" fill="#230b42"/>
<path d="M901.667 429.333L902.333 429.667L901.667 429.333Z" fill="#230b42"/>
<path d="M889 430L890 431L889 430Z" fill="#230b42"/>
<path d="M853 433L854 434L853 433Z" fill="#230b42"/>
<path d="M881 434L882 435L881 434Z" fill="#230b42"/>
<path d="M699.333 435.667L699.667 436.333L699.333 435.667Z" fill="#230b42"/>
<path d="M762 435L763 436L762 435Z" fill="#230b42"/>
<path d="M879 435L880 436L879 435Z" fill="#230b42"/>
<path d="M734 436L735 437L734 436Z" fill="#230b42"/>
<path d="M841 436L842 437L841 436Z" fill="#230b42"/>
<path d="M850 436L851 437L850 436ZM761 439L762 440L761 439Z" fill="#230b42"/>
<path d="M874 439L875 440L874 439Z" fill="#230b42"/>
<path d="M881 441L882 442L881 441Z" fill="#230b42"/>
<path d="M986 443L987 444L986 443Z" fill="#230b42"/>
<path d="M877 444L878 445L877 444Z" fill="#230b42"/>
<path d="M732 445L733 446L732 445Z" fill="#230b42"/>
<path d="M867 446L868 447L867 446Z" fill="#230b42"/>
<path d="M835 447L836 448L835 447Z" fill="#230b42"/>
<path d="M841 447L842 448L841 447Z" fill="#230b42"/>
<path d="M973 449L974 450L973 449Z" fill="#230b42"/>
<path d="M838 451L839 452L838 451Z" fill="#230b42"/>
<path d="M863 451L864 452L863 451Z" fill="#230b42"/>
<path d="M869 451L870 452L869 451Z" fill="#230b42"/>
<path d="M846 501C856.463 496.121 866.775 474.716 878.981 474.737C884.104 474.746 884.792 482.77 887.394 485.957C893.693 493.67 905.19 496.272 914 491.442C931.345 481.933 927.087 455.659 908 451.519C886.85 446.93 868.24 470.65 856.807 485C852.874 489.936 848.462 495.176 846 501Z" fill="#230b42"/>
<path d="M868 452L869 453L868 452Z" fill="#230b42"/>
<path d="M911 452L912 453L911 452Z" fill="#230b42"/>
<path d="M757 454L758 455L757 454Z" fill="#230b42"/>
<path d="M887 455L888 456L887 455Z" fill="#230b42"/>
<path d="M977 455L978 456L977 455Z" fill="#230b42"/>
<path d="M729 457L730 458L729 457Z" fill="#230b42"/>
<path d="M831 457L832 458L831 457Z" fill="#230b42"/>
<path d="M884 457L885 458L884 457Z" fill="#230b42"/>
<path d="M833 458L834 459L833 458Z" fill="#230b42"/>
<path d="M861 459L862 460L861 459Z" fill="#230b42"/>
<path d="M980 459L981 460L980 459Z" fill="#230b42"/>
<path d="M998 459L999 460L998 459Z" fill="#230b42"/>
<path d="M830 460L831 461L830 460Z" fill="#230b42"/>
<path d="M860 460L861 461L860 460Z" fill="#230b42"/>
<path d="M728 461L729 462L728 461Z" fill="#230b42"/>
<path d="M831 461L832 462L831 461Z" fill="#230b42"/>
<path d="M859 461L860 462L859 461Z" fill="#230b42"/>
<path d="M879 461L880 462L879 461Z" fill="#230b42"/>
<path d="M854 462L855 463L854 462Z" fill="#230b42"/>
<path d="M858 462L859 463L858 462Z" fill="#230b42"/>
<path d="M829.333 463.667L829.667 464.333L829.333 463.667Z" fill="#230b42"/>
<path d="M727 465L728 466L727 465Z" fill="#230b42"/>
<path d="M851 466L852 467L851 466Z" fill="#230b42"/>
<path d="M924 466L925 467L924 466Z" fill="#230b42"/>
<path d="M726 469L727 470L726 469Z" fill="#230b42"/>
<path d="M846 475L850 471L846 475Z" fill="#230b42"/>
<path d="M991 472L992 473L991 472Z" fill="#230b42"/>
<path d="M437 473V474H440L437 473Z" fill="#230b42"/>
<path d="M725 473L726 474L725 473Z" fill="#230b42"/>
<path d="M467 506C466.983 480.448 436.991 460.361 417.213 483.015C413.77 486.959 405.451 507.06 413.434 510.306C417.468 511.947 425.764 508.298 430 507.586C442.097 505.553 454.825 503.74 467 506Z" fill="#230b42"/>
<path d="M994 475L995 476L994 475Z" fill="#230b42"/>
<path d="M883 476L884 477L883 476Z" fill="#230b42"/>
<path d="M862 478L863 479L862 478Z" fill="#230b42"/>
<path d="M924 478L925 479L924 478Z" fill="#230b42"/>
<path d="M458 481L459 482L458 481Z" fill="#230b42"/>
<path d="M865 483L866 484L865 483Z" fill="#230b42"/>
<path d="M864 484L865 485L864 484Z" fill="#230b42"/>
<path d="M357 485V486H360L357 485Z" fill="#230b42"/>
<path d="M365.667 485.333L366.333 485.667L365.667 485.333Z" fill="#230b42"/>
<path d="M856 485L857 486L856 485Z" fill="#230b42"/>
<path d="M462 486L463 487L462 486Z" fill="#230b42"/>
<path d="M492 510L543 532C547.906 520.197 550.842 508.31 542.363 497.04C527.077 476.724 496.779 487.153 492 510Z" fill="#230b42"/>
<path d="M722 486L723 487L722 486Z" fill="#230b42"/>
<path d="M511 487L512 488L511 487Z" fill="#230b42"/>
<path d="M534 490L535 491L534 490Z" fill="#230b42"/>
<path d="M721 490L722 491L721 490Z" fill="#230b42"/>
<path d="M894 491L895 492L894 491Z" fill="#230b42"/>
<path d="M1029 491L1030 492L1029 491Z" fill="#230b42"/>
<path d="M899 493L900 494L899 493Z" fill="#230b42"/>
<path d="M908 493L909 494L908 493Z" fill="#230b42"/>
<path d="M720 494L721 495L720 494Z" fill="#230b42"/>
<path d="M466 496L467 497L466 496Z" fill="#230b42"/>
<path d="M848 496L849 497L848 496Z" fill="#230b42"/>
<path d="M496 498L497 499L496 498Z" fill="#230b42"/>
<path d="M1037 498L1038 499L1037 498Z" fill="#230b42"/>
<path d="M410 500V503H411L410 500Z" fill="#230b42"/>
<path d="M745 501L746 502L745 501Z" fill="#230b42"/>
<path d="M844 504L847 501L844 504Z" fill="#230b42"/>
<path d="M343 553L362 537.286L388 521C381.062 497.631 347.721 498.108 337.046 518C330.302 530.567 335.457 542.466 343 553Z" fill="#230b42"/>
<path d="M367 503L368 504L367 503Z" fill="#230b42"/>
<path d="M843 504L844 505L843 504Z" fill="#230b42"/>
<path d="M446 505V506H450L446 505Z" fill="#230b42"/>
<path d="M459 505V506H462L459 505Z" fill="#230b42"/>
<path d="M462 505V506H465L462 505Z" fill="#230b42"/>
<path d="M346 507L347 508L346 507Z" fill="#230b42"/>
<path d="M424 508L425 509L424 508Z" fill="#230b42"/>
<path d="M420 509L421 510L420 509Z" fill="#230b42"/>
<path d="M1047 509L1048 510L1047 509Z" fill="#230b42"/>
<path d="M412 511L413 512L412 511Z" fill="#230b42"/>
<path d="M565 513V517H566L565 513Z" fill="#230b42"/>
<path d="M339 514L340 515L339 514Z" fill="#230b42"/>
<path d="M510 515L511 516L510 515Z" fill="#230b42"/>
<path d="M714 517L715 518L714 517Z" fill="#230b42"/>
<path d="M741 517L742 518L741 517Z" fill="#230b42"/>
<path d="M517 518L518 519L517 518Z" fill="#230b42"/>
<path d="M1037 519L1038 520L1037 519Z" fill="#230b42"/>
<path d="M580 520V521H588L580 520Z" fill="#230b42"/>
<path d="M523 521L524 522L523 521Z" fill="#230b42"/>
<path d="M525 522L526 523L525 522Z" fill="#230b42"/>
<path d="M713 522L714 523L713 522Z" fill="#230b42"/>
<path d="M443.667 523.333L444.333 523.667L443.667 523.333Z" fill="#230b42"/>
<path d="M445 523.424C419.189 526.815 395.247 533.569 374 549.514C359.263 560.573 347.17 574.271 337.615 590C299.578 652.611 322.197 736.743 383 775.456C409.775 792.504 442.778 798.598 474 794.714C492.353 792.43 510.041 785.581 526 776.431C540.378 768.188 553.531 756.196 563.427 742.961C619.944 667.373 585.921 558.709 496 529.001C480.413 523.851 461.357 521.276 445 523.424Z" fill="#230b42"/>
<path d="M465 523V524H468L465 523ZM527 523L528 524L527 523Z" fill="#230b42"/>
<path d="M482 525L483 526L482 525Z" fill="#230b42"/>
<path d="M377 526L378 527L377 526Z" fill="#230b42"/>
<path d="M423 526L424 527L423 526Z" fill="#230b42"/>
<path d="M316 527V536H317L316 527Z" fill="#230b42"/>
<path d="M416 528L417 529L416 528Z" fill="#230b42"/>
<path d="M410 530L411 531L410 530Z" fill="#230b42"/>
<path d="M539 530L540 531L539 530Z" fill="#230b42"/>
<path d="M737 531L738 532L737 531Z" fill="#230b42"/>
<path d="M505 532L506 533L505 532Z" fill="#230b42"/>
<path d="M365 534L366 535L365 534Z" fill="#230b42"/>
<path d="M398 535L399 536L398 535Z" fill="#230b42"/>
<path d="M512 535L513 536L512 535Z" fill="#230b42"/>
<path d="M1048 536L1049 537L1048 536Z" fill="#230b42"/>
<path d="M577 538L578 539L577 538Z" fill="#230b42"/>
<path d="M593 592C621.88 586.412 614.909 541.544 588 538.185C582.652 537.518 560.958 539.896 563.346 549.039C564.499 553.456 570.532 557.49 573.335 561C580.686 570.205 589.397 580.614 593 592Z" fill="#230b42"/>
<path d="M1026 538L1027 539L1026 538Z" fill="#230b42"/>
<path d="M1046 539L1047 540L1046 539Z" fill="#230b42"/>
<path d="M388 540L389 541L388 540Z" fill="#230b42"/>
<path d="M522 540L523 541L522 540Z" fill="#230b42"/>
<path d="M595 540L596 541L595 540Z" fill="#230b42"/>
<path d="M1024 540L1025 541L1024 540Z" fill="#230b42"/>
<path d="M356 541L357 542L356 541Z" fill="#230b42"/>
<path d="M734 541L735 542L734 541Z" fill="#230b42"/>
<path d="M600 543L601 544L600 543Z" fill="#230b42"/>
<path d="M565 544L566 545L565 544Z" fill="#230b42"/>
<path d="M707 544L708 545L707 544Z" fill="#230b42"/>
<path d="M338 546L339 547L338 546Z" fill="#230b42"/>
<path d="M1039 546L1040 547L1039 546Z" fill="#230b42"/>
<path d="M533 547L534 548L533 547Z" fill="#230b42"/>
<path d="M314 549V550H317L314 549Z" fill="#230b42"/>
<path d="M1035 549L1036 550L1035 549Z" fill="#230b42"/>
<path d="M1012 550L1013 551L1012 550Z" fill="#230b42"/>
<path d="M705 551L706 552L705 551Z" fill="#230b42"/>
<path d="M369 553L370 554L369 553Z" fill="#230b42"/>
<path d="M543 555L544 556L543 555Z" fill="#230b42"/>
<path d="M361 560L362 561L361 560Z" fill="#230b42"/>
<path d="M360 561L361 562L360 561Z" fill="#230b42"/>
<path d="M550 561L551 562L550 561Z" fill="#230b42"/>
<path d="M551 562L552 563L551 562Z" fill="#230b42"/>
<path d="M702 562L703 563L702 562Z" fill="#230b42"/>
<path d="M552 563L553 564L552 563Z" fill="#230b42"/>
<path d="M357 564L358 565L357 564Z" fill="#230b42"/>
<path d="M999 564L1000 565L999 564Z" fill="#230b42"/>
<path d="M356 565L357 566L356 565Z" fill="#230b42"/>
<path d="M309 566V567H312L309 566Z" fill="#230b42"/>
<path d="M726 566L727 567L726 566Z" fill="#230b42"/>
<path d="M306 623L328 572C320.459 568.053 312.631 565.65 304 567.379C272.498 573.691 278.068 616.365 306 623Z" fill="#230b42"/>
<path d="M317 567L318 568L317 567Z" fill="#230b42"/>
<path d="M300 568L301 569L300 568Z" fill="#230b42"/>
<path d="M997 568L998 569L997 568Z" fill="#230b42"/>
<path d="M1012 569L1013 570L1012 569Z" fill="#230b42"/>
<path d="M611 571L612 572L611 571Z" fill="#230b42"/>
<path d="M582 572L583 573L582 572Z" fill="#230b42"/>
<path d="M349 573L350 574L349 573Z" fill="#230b42"/>
<path d="M583 574L584 575L583 574Z" fill="#230b42"/>
<path d="M723 575L724 576L723 575Z" fill="#230b42"/>
<path d="M564 577L565 578L564 577Z" fill="#230b42"/>
<path d="M609 577L610 578L609 577Z" fill="#230b42"/>
<path d="M267 579L268 580L267 579Z" fill="#230b42"/>
<path d="M608 579L609 580L608 579Z" fill="#230b42"/>
<path d="M587 580L588 581L587 580Z" fill="#230b42"/>
<path d="M696 580L697 581L696 580Z" fill="#230b42"/>
<path d="M1008 580V584H1009L1008 580Z" fill="#230b42"/>
<path d="M322 581L323 582L322 581Z" fill="#230b42"/>
<path d="M266 582L267 583L266 582Z" fill="#230b42"/>
<path d="M342 582L343 583L342 582Z" fill="#230b42"/>
<path d="M695 583L696 584L695 583Z" fill="#230b42"/>
<path d="M341 584L342 585L341 584Z" fill="#230b42"/>
<path d="M265 586L266 587L265 586Z" fill="#230b42"/>
<path d="M571 587L572 588L571 587Z" fill="#230b42"/>
<path d="M599 589L600 590L599 589Z" fill="#230b42"/>
<path d="M1010 592L1011 593L1010 592Z" fill="#230b42"/>
<path d="M576 596L577 597L576 596Z" fill="#230b42"/>
<path d="M1012 597L1013 598L1012 597Z" fill="#230b42"/>
<path d="M577 598L578 599L577 598Z" fill="#230b42"/>
<path d="M282 599L283 600L282 599Z" fill="#230b42"/>
<path d="M712 599L713 600L712 599Z" fill="#230b42"/>
<path d="M578 600L579 601L578 600Z" fill="#230b42"/>
<path d="M331 602L332 603L331 602Z" fill="#230b42"/>
<path d="M579 602L580 603L579 602ZM1014 602L1015 603L1014 602Z" fill="#230b42"/>
<path d="M1001 604L1002 605L1001 604Z" fill="#230b42"/>
<path d="M687 605L688 606L687 605Z" fill="#230b42"/>
<path d="M310 607L311 608L310 607Z" fill="#230b42"/>
<path d="M686 607L687 608L686 607Z" fill="#230b42"/>
<path d="M309 610L310 611L309 610Z" fill="#230b42"/>
<path d="M308 613L309 614L308 613Z" fill="#230b42"/>
<path d="M326 614L327 615L326 614Z" fill="#230b42"/>
<path d="M447 614L448 615L447 614Z" fill="#230b42"/>
<path d="M448 614.439C390.058 623.489 404.128 712.968 462 704.7C521.165 696.247 506.797 605.256 448 614.439Z" fill="#230b42"/>
<path d="M467 615L468 616L467 615Z" fill="#230b42"/>
<path d="M603 616C607.281 634.718 609 651.806 609 671C618.322 670.994 627.182 669.102 633.815 661.957C646.232 648.58 642.165 624.475 625 616.966C618.222 614.001 610.078 614.686 603 616Z" fill="#230b42"/>
<path d="M307 616L308 617L307 616Z" fill="#230b42"/>
<path d="M293 617L294 618L293 617Z" fill="#230b42"/>
<path d="M271 618L272 619L271 618Z" fill="#230b42"/>
<path d="M585 618L586 619L585 618Z" fill="#230b42"/>
<path d="M272 620L273 621L272 620Z" fill="#230b42"/>
<path d="M298 620L299 621L298 620Z" fill="#230b42"/>
<path d="M324 620L325 621L324 620Z" fill="#230b42"/>
<path d="M431 620L432 621L431 620Z" fill="#230b42"/>
<path d="M479 620L480 621L479 620Z" fill="#230b42"/>
<path d="M630 620L631 621L630 620Z" fill="#230b42"/>
<path d="M699 620L700 621L699 620Z" fill="#230b42"/>
<path d="M604 621L605 622L604 621Z" fill="#230b42"/>
<path d="M428 622L429 623L428 622Z" fill="#230b42"/>
<path d="M633 623L634 624L633 623Z" fill="#230b42"/>
<path d="M275 624L276 625L275 624Z" fill="#230b42"/>
<path d="M587 625L588 626L587 625Z" fill="#230b42"/>
<path d="M322 627L323 628L322 627Z" fill="#230b42"/>
<path d="M982 627L983 628L982 627Z" fill="#230b42"/>
<path d="M637 628L638 629L637 628Z" fill="#230b42"/>
<path d="M606 630L607 631L606 630Z" fill="#230b42"/>
<path d="M638 630L639 631L638 630Z" fill="#230b42"/>
<path d="M1001.33 630.667L1001.67 631.333L1001.33 630.667Z" fill="#230b42"/>
<path d="M451 631L452 632L451 631Z" fill="#230b42"/>
<path d="M452 631.44C414.421 637.176 423.523 692.234 461 686.699C495.691 681.575 486.435 626.183 452 631.44Z" fill="#230b42"/>
<path d="M459 631L460 632L459 631Z" fill="#230b42"/>
<path d="M418 632L419 633L418 632Z" fill="#230b42"/>
<path d="M973 632L974 633L973 632Z" fill="#230b42"/>
<path d="M281 633L282 634L281 633Z" fill="#230b42"/>
<path d="M321 633L322 634L321 633Z" fill="#230b42"/>
<path d="M466 633L467 634L466 633Z" fill="#230b42"/>
<path d="M468 634L469 635L468 634Z" fill="#230b42"/>
<path d="M493 634L494 635L493 634Z" fill="#230b42"/>
<path d="M416 635L417 636L416 635Z" fill="#230b42"/>
<path d="M1005 635L1006 636L1005 635Z" fill="#230b42"/>
<path d="M274 636L275 637L274 636Z" fill="#230b42"/>
<path d="M495 637L496 638L495 637Z" fill="#230b42"/>
<path d="M983 637L984 638L983 637Z" fill="#230b42"/>
<path d="M320 639L321 640L320 639Z" fill="#230b42"/>
<path d="M496 639L497 640L496 639Z" fill="#230b42"/>
<path d="M641 641V644H642L641 641Z" fill="#230b42"/>
<path d="M682 641L683 642L682 641Z" fill="#230b42"/>
<path d="M681 642L682 643L681 642Z" fill="#230b42"/>
<path d="M608.333 643.667L608.667 644.333L608.333 643.667Z" fill="#230b42"/>
<path d="M663 645L664 646L663 645Z" fill="#230b42"/>
<path d="M658 646V650H659L658 646Z" fill="#230b42"/>
<path d="M662 646L663 647L662 646Z" fill="#230b42"/>
<path d="M319.333 647.667L319.667 648.333L319.333 647.667Z" fill="#230b42"/>
<path d="M591.333 647.667L591.667 648.333L591.333 647.667Z" fill="#230b42"/>
<path d="M307 703L302 648C295.964 648 290.505 647.963 285 650.824C269.326 658.97 263.78 682.624 277.185 695.699C285.546 703.854 296.022 705.038 307 703Z" fill="#230b42"/>
<path d="M640 649L641 650L640 649Z" fill="#230b42"/>
<path d="M285 650L286 651L285 650Z" fill="#230b42"/>
<path d="M410 651L411 652L410 651Z" fill="#230b42"/>
<path d="M500 651L501 652L500 651Z" fill="#230b42"/>
<path d="M257 654L258 655L257 654Z" fill="#230b42"/>
<path d="M278 655L279 656L278 655Z" fill="#230b42"/>
<path d="M301 656V663H302L301 656Z" fill="#230b42"/>
<path d="M483 657V662H484L483 657Z" fill="#230b42"/>
<path d="M660 661L661 662L660 661Z" fill="#230b42"/>
<path d="M989 661L990 662L989 661Z" fill="#230b42"/>
<path d="M1005 662L1006 663L1005 662Z" fill="#230b42"/>
<path d="M632 663L633 664L632 663Z" fill="#230b42"/>
<path d="M656 664L657 665L656 664Z" fill="#230b42"/>
<path d="M1002 664L1003 665L1002 664Z" fill="#230b42"/>
<path d="M410 667L411 668L410 667Z" fill="#230b42"/>
<path d="M626 667L627 668L626 667Z" fill="#230b42"/>
<path d="M252 668L253 669L252 668Z" fill="#230b42"/>
<path d="M624 668L625 669L624 668Z" fill="#230b42"/>
<path d="M591 669V672H592L591 669Z" fill="#230b42"/>
<path d="M319.333 670.667L319.667 671.333L319.333 670.667Z" fill="#230b42"/>
<path d="M429 670L430 671L429 670Z" fill="#230b42"/>
<path d="M481 670L482 671L481 670Z" fill="#230b42"/>
<path d="M618 670L619 671L618 670Z" fill="#230b42"/>
<path d="M499 671L500 672L499 671Z" fill="#230b42"/>
<path d="M974 671V674H975L974 671Z" fill="#230b42"/>
<path d="M480 672L481 673L480 672Z" fill="#230b42"/>
<path d="M269 674V678H270L269 674Z" fill="#230b42"/>
<path d="M643 676L644 677L643 676Z" fill="#230b42"/>
<path d="M985.333 677.667L985.667 678.333L985.333 677.667Z" fill="#230b42"/>
<path d="M641 678L642 679L641 678Z" fill="#230b42"/>
<path d="M320 679L321 680L320 679Z" fill="#230b42"/>
<path d="M435 679L436 680L435 679Z" fill="#230b42"/>
<path d="M635 682L636 683L635 682Z" fill="#230b42"/>
<path d="M986 682L987 683L986 682Z" fill="#230b42"/>
<path d="M252 683L253 684L252 683Z" fill="#230b42"/>
<path d="M416 683L417 684L416 683Z" fill="#230b42"/>
<path d="M468 684L469 685L468 684Z" fill="#230b42"/>
<path d="M493 684L494 685L493 684Z" fill="#230b42"/>
<path d="M321 685L322 686L321 685Z" fill="#230b42"/>
<path d="M466 685L467 686L466 685Z" fill="#230b42"/>
<path d="M629 685L630 686L629 685Z" fill="#230b42"/>
<path d="M462 686L463 687L462 686Z" fill="#230b42"/>
<path d="M419 687L420 688L419 687Z" fill="#230b42"/>
<path d="M453 687V688H458L453 687Z" fill="#230b42"/>
<path d="M588 689L589 690L588 689Z" fill="#230b42"/>
<path d="M630 689L631 690L630 689Z" fill="#230b42"/>
<path d="M587 693L588 694L587 693Z" fill="#230b42"/>
<path d="M983 695L984 696L983 695Z" fill="#230b42"/>
<path d="M583 747C589.997 749.908 596.188 752.76 604 751.816C621.57 749.69 632.068 731.548 626.945 715C625.153 709.209 613.625 692.146 605.564 697.121C603.095 698.645 602.758 703.473 601.975 706C599.825 712.937 596.85 719.406 593.858 726C590.618 733.142 585.363 739.535 583 747Z" fill="#230b42"/>
<path d="M480 697L481 698L480 697Z" fill="#230b42"/>
<path d="M306 698L307 699L306 698Z" fill="#230b42"/>
<path d="M433 699L434 700L433 699Z" fill="#230b42"/>
<path d="M614 699L615 700L614 699Z" fill="#230b42"/>
<path d="M283 700L284 701L283 700Z" fill="#230b42"/>
<path d="M285 701L286 702L285 701Z" fill="#230b42"/>
<path d="M325 701L326 702L325 701Z" fill="#230b42"/>
<path d="M437 701L438 702L437 701Z" fill="#230b42"/>
<path d="M617 701L618 702L617 701Z" fill="#230b42"/>
<path d="M1000 701L1001 702L1000 701Z" fill="#230b42"/>
<path d="M307 702L308 703L307 702Z" fill="#230b42"/>
<path d="M304 703L305 704L304 703Z" fill="#230b42"/>
<path d="M467 703L468 704L467 703Z" fill="#230b42"/>
<path d="M326 704L327 705L326 704Z" fill="#230b42"/>
<path d="M447 704L448 705L447 704Z" fill="#230b42"/>
<path d="M262 705L263 706L262 705Z" fill="#230b42"/>
<path d="M989 706L990 707L989 706Z" fill="#230b42"/>
<path d="M328 709L329 710L328 709Z" fill="#230b42"/>
<path d="M582 709L583 710L582 709Z" fill="#230b42"/>
<path d="M624 709L625 710L624 709Z" fill="#230b42"/>
<path d="M643 709L644 710L643 709Z" fill="#230b42"/>
<path d="M627 716L628 717L627 716Z" fill="#230b42"/>
<path d="M597 718L598 719L597 718Z" fill="#230b42"/>
<path d="M287 720L288 721L287 720Z" fill="#230b42"/>
<path d="M628 722V726H629L628 722Z" fill="#230b42"/>
<path d="M316 726C310.455 729.478 305.523 733.055 302.402 739C286.312 769.65 325.723 793.069 349 771V770L316 726Z" fill="#230b42"/>
<path d="M592 729L593 730L592 729Z" fill="#230b42"/>
<path d="M591 731L592 732L591 731Z" fill="#230b42"/>
<path d="M320 733L321 734L320 733Z" fill="#230b42"/>
<path d="M994 733L995 734L994 733Z" fill="#230b42"/>
<path d="M305 734L306 735L305 734Z" fill="#230b42"/>
<path d="M341 734L342 735L341 734Z" fill="#230b42"/>
<path d="M1012 734L1013 735L1012 734Z" fill="#230b42"/>
<path d="M588 736L589 737L588 736Z" fill="#230b42"/>
<path d="M343 737L344 738L343 737Z" fill="#230b42"/>
<path d="M302 738L303 739L302 738Z" fill="#230b42"/>
<path d="M990 739L991 740L990 739Z" fill="#230b42"/>
<path d="M324 740L325 741L324 740Z" fill="#230b42"/>
<path d="M585 741L586 742L585 741Z" fill="#230b42"/>
<path d="M642 741L643 742L642 741Z" fill="#230b42"/>
<path d="M988 741L989 742L988 741Z" fill="#230b42"/>
<path d="M282 742L283 743L282 742Z" fill="#230b42"/>
<path d="M563 742L564 743L563 742Z" fill="#230b42"/>
<path d="M300 743L301 744L300 743Z" fill="#230b42"/>
<path d="M583 744L584 745L583 744Z" fill="#230b42"/>
<path d="M349 745L350 746L349 745Z" fill="#230b42"/>
<path d="M618 745L619 746L618 745Z" fill="#230b42"/>
<path d="M983 745L984 746L983 745Z" fill="#230b42"/>
<path d="M559 747L560 748L559 747Z" fill="#230b42"/>
<path d="M586 748L587 749L586 748Z" fill="#230b42"/>
<path d="M588 749L589 750L588 749Z" fill="#230b42"/>
<path d="M331 750L332 751L331 750Z" fill="#230b42"/>
<path d="M609 750L610 751L609 750Z" fill="#230b42"/>
<path d="M594 751L595 752L594 751Z" fill="#230b42"/>
<path d="M356 753L357 754L356 753Z" fill="#230b42"/>
<path d="M995 753L996 754L995 753Z" fill="#230b42"/>
<path d="M963 754L964 755L963 754Z" fill="#230b42"/>
<path d="M552 755L553 756L552 755Z" fill="#230b42"/>
<path d="M551 756L552 757L551 756Z" fill="#230b42"/>
<path d="M632 756L633 757L632 756Z" fill="#230b42"/>
<path d="M987 757L988 758L987 757Z" fill="#230b42"/>
<path d="M627 760L628 761L627 760Z" fill="#230b42"/>
<path d="M980 760L981 761L980 760Z" fill="#230b42"/>
<path d="M933 761L934 762L933 761Z" fill="#230b42"/>
<path d="M624 762L625 763L624 762Z" fill="#230b42"/>
<path d="M543 763L544 764L543 763Z" fill="#230b42"/>
<path d="M369 765L370 766L369 765Z" fill="#230b42"/>
<path d="M541 765L542 766L541 765Z" fill="#230b42"/>
<path d="M523 797C524.471 810.286 540.913 817.692 553 815.674C565.321 813.618 574.355 804.118 576.535 792C577.494 786.672 574.797 765.365 565.961 767.461C561.631 768.489 557.398 774.437 554 777.196C544.874 784.606 534.366 793.402 523 797Z" fill="#230b42"/>
<path d="M960 766L961 767L960 766Z" fill="#230b42"/>
<path d="M538 767L539 768L538 767Z" fill="#230b42"/>
<path d="M590 768L591 769L590 768Z" fill="#230b42"/>
<path d="M609 768L610 769L609 768Z" fill="#230b42"/>
<path d="M899 768L900 769L899 768Z" fill="#230b42"/>
<path d="M597 769V770H603L597 769Z" fill="#230b42"/>
<path d="M895 769L896 770L895 769Z" fill="#230b42"/>
<path d="M944 769L945 770L944 769Z" fill="#230b42"/>
<path d="M534 770L535 771L534 770Z" fill="#230b42"/>
<path d="M938 770L939 771L938 770Z" fill="#230b42"/>
<path d="M285 771L286 772L285 771Z" fill="#230b42"/>
<path d="M591 771L592 772L591 771Z" fill="#230b42"/>
<path d="M933 771L934 772L933 771Z" fill="#230b42"/>
<path d="M884 772L885 773L884 772Z" fill="#230b42"/>
<path d="M927 772L928 773L927 772Z" fill="#230b42"/>
<path d="M380 773L381 774L380 773Z" fill="#230b42"/>
<path d="M881 773L882 774L881 773Z" fill="#230b42"/>
<path d="M922 773L923 774L922 773Z" fill="#230b42"/>
<path d="M592 774L593 775L592 774Z" fill="#230b42"/>
<path d="M287 775L288 776L287 775Z" fill="#230b42"/>
<path d="M310 775L311 776L310 775Z" fill="#230b42"/>
<path d="M556 775L557 776L556 775Z" fill="#230b42"/>
<path d="M875 775L876 776L875 775Z" fill="#230b42"/>
<path d="M340 777L341 778L340 777Z" fill="#230b42"/>
<path d="M896 778L897 779L896 778Z" fill="#230b42"/>
<path d="M318 779L319 780L318 779Z" fill="#230b42"/>
<path d="M322 780L323 781L322 780Z" fill="#230b42"/>
<path d="M331 780L332 781L331 780Z" fill="#230b42"/>
<path d="M398 783L399 784L398 783Z" fill="#230b42"/>
<path d="M512 783L513 784L512 783Z" fill="#230b42"/>
<path d="M546 783L547 784L546 783Z" fill="#230b42"/>
<path d="M878 783L879 784L878 783Z" fill="#230b42"/>
<path d="M505 786L506 787L505 786Z" fill="#230b42"/>
<path d="M368 787C362.719 796.083 360.762 807.206 365.659 817C373.636 832.954 397.641 837.771 410.699 824.787C415.097 820.414 417.311 814.826 419 809L368 787Z" fill="#230b42"/>
<path d="M411 788L412 789L411 788Z" fill="#230b42"/>
<path d="M499 788L500 789L499 788Z" fill="#230b42"/>
<path d="M496 789L497 790L496 789Z" fill="#230b42"/>
<path d="M537 789L538 790L537 789Z" fill="#230b42"/>
<path d="M861 789L862 790L861 789Z" fill="#230b42"/>
<path d="M417 790L418 791L417 790Z" fill="#230b42"/>
<path d="M485 792L486 793L485 792Z" fill="#230b42"/>
<path d="M842 792L843 793L842 792Z" fill="#230b42"/>
<path d="M306 793L307 794L306 793Z" fill="#230b42"/>
<path d="M435 794L436 795L435 794Z" fill="#230b42"/>
<path d="M475 794L476 795L475 794Z" fill="#230b42"/>
<path d="M851 794L852 795L851 794Z" fill="#230b42"/>
<path d="M443.667 795.333L444.333 795.667L443.667 795.333Z" fill="#230b42"/>
<path d="M465 795V796H468L465 795Z" fill="#230b42"/>
<path d="M527 795L528 796L527 795Z" fill="#230b42"/>
<path d="M593 795L594 796L593 795Z" fill="#230b42"/>
<path d="M849 795L850 796L849 795Z" fill="#230b42"/>
<path d="M340 796L341 797L340 796Z" fill="#230b42"/>
<path d="M319 797L320 798L319 797Z" fill="#230b42"/>
<path d="M845 797L846 798L845 797Z" fill="#230b42"/>
<path d="M345.333 798.667L345.667 799.333L345.333 798.667Z" fill="#230b42"/>
<path d="M831 800L832 801L831 800Z" fill="#230b42"/>
<path d="M362 802V807H363L362 802Z" fill="#230b42"/>
<path d="M398 802L399 803L398 802Z" fill="#230b42"/>
<path d="M403 804L404 805L403 804Z" fill="#230b42"/>
<path d="M571 804L572 805L571 804Z" fill="#230b42"/>
<path d="M826 804L827 805L826 804Z" fill="#230b42"/>
<path d="M406 805L407 806L406 805Z" fill="#230b42"/>
<path d="M409 806L410 807L409 806Z" fill="#230b42"/>
<path d="M444 813C444 823.84 445.981 832.515 455.001 839.61C469.921 851.347 492.961 843.674 498.895 826C500.907 820.009 500.13 813.089 499 807L444 813Z" fill="#230b42"/>
<path d="M345.333 808.667L345.667 809.333L345.333 808.667Z" fill="#230b42"/>
<path d="M417 808L418 809L417 808Z" fill="#230b42"/>
<path d="M567 808L568 809L567 808Z" fill="#230b42"/>
<path d="M830 808L831 809L830 808Z" fill="#230b42"/>
<path d="M418 810L419 811L418 810Z" fill="#230b42"/>
<path d="M484 810L485 811L484 810Z" fill="#230b42"/>
<path d="M363 811L364 812L363 811Z" fill="#230b42"/>
<path d="M471.667 812.333L472.333 812.667L471.667 812.333Z" fill="#230b42"/>
<path d="M364 814L365 815L364 814Z" fill="#230b42"/>
<path d="M539 814L540 815L539 814Z" fill="#230b42"/>
<path d="M557 814L558 815L557 814Z" fill="#230b42"/>
<path d="M806 822L807 823L806 822Z" fill="#230b42"/>
<path d="M805 823L806 824L805 823Z" fill="#230b42"/>
<path d="M804 824L805 825L804 824Z" fill="#230b42"/>
<path d="M350 825L351 826L350 825Z" fill="#230b42"/>
<path d="M811 826L812 827L811 826Z" fill="#230b42"/>
<path d="M526 827L527 828L526 827Z" fill="#230b42"/>
<path d="M801 827L802 828L801 827Z" fill="#230b42"/>
<path d="M528 828L529 829L528 828Z" fill="#230b42"/>
<path d="M800 828L801 829L800 828Z" fill="#230b42"/>
<path d="M378 829L379 830L378 829Z" fill="#230b42"/>
<path d="M799 829L800 830L799 829Z" fill="#230b42"/>
<path d="M401 830L402 831L401 830Z" fill="#230b42"/>
<path d="M798 830L799 831L798 830Z" fill="#230b42"/>
<path d="M383 831L384 832L383 831Z" fill="#230b42"/>
<path d="M398 831L399 832L398 831Z" fill="#230b42"/>
<path d="M561 831L562 832L561 831Z" fill="#230b42"/>
<path d="M388 832V833H393L388 832Z" fill="#230b42"/>
<path d="M557 832L558 833L557 832Z" fill="#230b42"/>
<path d="M804 833L805 834L804 833Z" fill="#230b42"/>
<path d="M357 835L358 836L357 835Z" fill="#230b42"/>
<path d="M451 836L452 837L451 836Z" fill="#230b42"/>
<path d="M452 837L453 838L452 837Z" fill="#230b42"/>
<path d="M491 837L492 838L491 837Z" fill="#230b42"/>
<path d="M794 844L795 845L794 844Z" fill="#230b42"/>
<path d="M470 845V846H474L470 845Z" fill="#230b42"/>
<path d="M376 847L377 848L376 847Z" fill="#230b42"/>
<path d="M384.667 849.333L385.333 849.667L384.667 849.333Z" fill="#230b42"/>
<path d="M396.667 849.333L397.333 849.667L396.667 849.333Z" fill="#230b42"/>
<path d="M785 854L786 855L785 854Z" fill="#230b42"/>
<path d="M775 855L776 856L775 855Z" fill="#230b42"/>
<path d="M784 855L785 856L784 855Z" fill="#230b42"/>
<path d="M461 861L462 862L461 861Z" fill="#230b42"/>
<path d="M466.667 862.333L467.333 862.667L466.667 862.333Z" fill="#230b42"/>
<path d="M476.667 862.333L477.333 862.667L476.667 862.333Z" fill="#230b42"/>
<path d="M1176 609V646H1240.8V672H1176V723H1143.6V583H1249.4V609H1176Z" fill="#230b42"/>
<path d="M1317.6 724.6C1306.27 724.6 1296.07 722.267 1287 717.6C1278.07 712.8 1271.07 706.2 1266 697.8C1260.93 689.4 1258.4 679.867 1258.4 669.2C1258.4 658.533 1260.93 649 1266 640.6C1271.07 632.2 1278.07 625.667 1287 621C1296.07 616.2 1306.27 613.8 1317.6 613.8C1328.93 613.8 1339.07 616.2 1348 621C1356.93 625.667 1363.93 632.2 1369 640.6C1374.07 649 1376.6 658.533 1376.6 669.2C1376.6 679.867 1374.07 689.4 1369 697.8C1363.93 706.2 1356.93 712.8 1348 717.6C1339.07 722.267 1328.93 724.6 1317.6 724.6ZM1317.6 699C1325.6 699 1332.13 696.333 1337.2 691C1342.4 685.533 1345 678.267 1345 669.2C1345 660.133 1342.4 652.933 1337.2 647.6C1332.13 642.133 1325.6 639.4 1317.6 639.4C1309.6 639.4 1303 642.133 1297.8 647.6C1292.6 652.933 1290 660.133 1290 669.2C1290 678.267 1292.6 685.533 1297.8 691C1303 696.333 1309.6 699 1317.6 699Z" fill="#230b42"/>
<path d="M1505.85 615.4V723H1476.25V710.2C1472.12 714.867 1467.19 718.467 1461.45 721C1455.72 723.4 1449.52 724.6 1442.85 724.6C1428.72 724.6 1417.52 720.533 1409.25 712.4C1400.99 704.267 1396.85 692.2 1396.85 676.2V615.4H1428.05V671.6C1428.05 688.933 1435.32 697.6 1449.85 697.6C1457.32 697.6 1463.32 695.2 1467.85 690.4C1472.39 685.467 1474.65 678.2 1474.65 668.6V615.4H1505.85Z" fill="#230b42"/>
<path d="M1600.16 613.8C1613.49 613.8 1624.23 617.8 1632.36 625.8C1640.63 633.8 1644.76 645.667 1644.76 661.4V723H1613.56V666.2C1613.56 657.667 1611.69 651.333 1607.96 647.2C1604.23 642.933 1598.83 640.8 1591.76 640.8C1583.89 640.8 1577.63 643.267 1572.96 648.2C1568.29 653 1565.96 660.2 1565.96 669.8V723H1534.76V615.4H1564.56V628C1568.69 623.467 1573.83 620 1579.96 617.6C1586.09 615.067 1592.83 613.8 1600.16 613.8Z" fill="#230b42"/>
<path d="M1783.81 574.6V723H1754.01V710.6C1746.28 719.933 1735.08 724.6 1720.41 724.6C1710.28 724.6 1701.08 722.333 1692.81 717.8C1684.68 713.267 1678.28 706.8 1673.61 698.4C1668.95 690 1666.61 680.267 1666.61 669.2C1666.61 658.133 1668.95 648.4 1673.61 640C1678.28 631.6 1684.68 625.133 1692.81 620.6C1701.08 616.067 1710.28 613.8 1720.41 613.8C1734.15 613.8 1744.88 618.133 1752.61 626.8V574.6H1783.81ZM1725.81 699C1733.68 699 1740.21 696.333 1745.41 691C1750.61 685.533 1753.21 678.267 1753.21 669.2C1753.21 660.133 1750.61 652.933 1745.41 647.6C1740.21 642.133 1733.68 639.4 1725.81 639.4C1717.81 639.4 1711.21 642.133 1706.01 647.6C1700.81 652.933 1698.21 660.133 1698.21 669.2C1698.21 678.267 1700.81 685.533 1706.01 691C1711.21 696.333 1717.81 699 1725.81 699Z" fill="#230b42"/>
<path d="M1856.09 613.8C1872.76 613.8 1885.56 617.8 1894.49 625.8C1903.42 633.667 1907.89 645.6 1907.89 661.6V723H1878.69V709.6C1872.82 719.6 1861.89 724.6 1845.89 724.6C1837.62 724.6 1830.42 723.2 1824.29 720.4C1818.29 717.6 1813.69 713.733 1810.49 708.8C1807.29 703.867 1805.69 698.267 1805.69 692C1805.69 682 1809.42 674.133 1816.89 668.4C1824.49 662.667 1836.16 659.8 1851.89 659.8H1876.69C1876.69 653 1874.62 647.8 1870.49 644.2C1866.36 640.467 1860.16 638.6 1851.89 638.6C1846.16 638.6 1840.49 639.533 1834.89 641.4C1829.42 643.133 1824.76 645.533 1820.89 648.6L1809.69 626.8C1815.56 622.667 1822.56 619.467 1830.69 617.2C1838.96 614.933 1847.42 613.8 1856.09 613.8ZM1853.69 703.6C1859.02 703.6 1863.76 702.4 1867.89 700C1872.02 697.467 1874.96 693.8 1876.69 689V678H1855.29C1842.49 678 1836.09 682.2 1836.09 690.6C1836.09 694.6 1837.62 697.8 1840.69 700.2C1843.89 702.467 1848.22 703.6 1853.69 703.6Z" fill="#230b42"/>
<path d="M2005.53 717.8C2002.46 720.067 1998.66 721.8 1994.13 723C1989.73 724.067 1985.06 724.6 1980.13 724.6C1967.33 724.6 1957.39 721.333 1950.33 714.8C1943.39 708.267 1939.93 698.667 1939.93 686V641.8H1923.33V617.8H1939.93V591.6H1971.13V617.8H1997.93V641.8H1971.13V685.6C1971.13 690.133 1972.26 693.667 1974.53 696.2C1976.93 698.6 1980.26 699.8 1984.53 699.8C1989.46 699.8 1993.66 698.467 1997.13 695.8L2005.53 717.8Z" fill="#230b42"/>
<path d="M2023.04 615.4H2054.24V723H2023.04V615.4ZM2038.64 600.4C2032.91 600.4 2028.24 598.733 2024.64 595.4C2021.04 592.067 2019.24 587.933 2019.24 583C2019.24 578.067 2021.04 573.933 2024.64 570.6C2028.24 567.267 2032.91 565.6 2038.64 565.6C2044.37 565.6 2049.04 567.2 2052.64 570.4C2056.24 573.6 2058.04 577.6 2058.04 582.4C2058.04 587.6 2056.24 591.933 2052.64 595.4C2049.04 598.733 2044.37 600.4 2038.64 600.4Z" fill="#230b42"/>
<path d="M2134.4 724.6C2123.06 724.6 2112.86 722.267 2103.8 717.6C2094.86 712.8 2087.86 706.2 2082.8 697.8C2077.73 689.4 2075.2 679.867 2075.2 669.2C2075.2 658.533 2077.73 649 2082.8 640.6C2087.86 632.2 2094.86 625.667 2103.8 621C2112.86 616.2 2123.06 613.8 2134.4 613.8C2145.73 613.8 2155.86 616.2 2164.8 621C2173.73 625.667 2180.73 632.2 2185.8 640.6C2190.86 649 2193.4 658.533 2193.4 669.2C2193.4 679.867 2190.86 689.4 2185.8 697.8C2180.73 706.2 2173.73 712.8 2164.8 717.6C2155.86 722.267 2145.73 724.6 2134.4 724.6ZM2134.4 699C2142.4 699 2148.93 696.333 2154 691C2159.2 685.533 2161.8 678.267 2161.8 669.2C2161.8 660.133 2159.2 652.933 2154 647.6C2148.93 642.133 2142.4 639.4 2134.4 639.4C2126.4 639.4 2119.8 642.133 2114.6 647.6C2109.4 652.933 2106.8 660.133 2106.8 669.2C2106.8 678.267 2109.4 685.533 2114.6 691C2119.8 696.333 2126.4 699 2134.4 699Z" fill="#230b42"/>
<path d="M2279.65 613.8C2292.99 613.8 2303.72 617.8 2311.85 625.8C2320.12 633.8 2324.25 645.667 2324.25 661.4V723H2293.05V666.2C2293.05 657.667 2291.18 651.333 2287.45 647.2C2283.72 642.933 2278.32 640.8 2271.25 640.8C2263.39 640.8 2257.12 643.267 2252.45 648.2C2247.78 653 2245.45 660.2 2245.45 669.8V723H2214.25V615.4H2244.05V628C2248.18 623.467 2253.32 620 2259.45 617.6C2265.58 615.067 2272.32 613.8 2279.65 613.8Z" fill="#230b42"/>
</svg>
