<svg xmlns="http://www.w3.org/2000/svg" xmlns:xlink="http://www.w3.org/1999/xlink" width="201px" height="58px" viewBox="0 0 201 58" version="1.1">
    <!-- Generator: Sketch 47 (45396) - http://www.bohemiancoding.com/sketch -->
    <title>rangsutralogo_2017</title>
    <desc>Created with Sketch.</desc>
    <defs/>
    <g id="Page-1" stroke="none" stroke-width="1" fill="none" fill-rule="evenodd">
        <g id="rangsutra_about" transform="translate(0.000000, -7.000000)">
            <g id="rangsutralogo_2017" transform="translate(0.000000, 7.000000)">
                <path d="M78,23.9837436 C78.8461764,23.0056591 79.6428184,21.9717792 80.5637271,21.0815 C80.9307123,20.7211648 81.712494,20.3572728 82.0945548,20.4679742 C82.4766156,20.5786756 82.4929835,21.4651759 82.4708007,21.9539959 C82.3898228,23.4813638 82.1809169,24.9985063 82.0600961,26.5258743 C82.0226223,27.0378126 82.0519122,27.903862 82.1285828,28.0745822 C82.2052534,28.2450802 82.4542175,28.3771216 82.6965052,27.9394287 C82.9387929,27.5017359 83.2228618,26.8072959 83.564649,26.1679842 C84.1857671,24.9840574 84.6518209,23.8005751 85.3636084,22.6795568 C85.5783292,22.3430068 86.1460362,21.8746377 86.5412344,22.0275745 C86.9364326,22.1807337 86.9416014,22.8636145 86.926095,23.2648515 C86.8629925,24.5365837 86.6680855,25.798535 86.5793544,27.0693781 C86.5255127,27.8547355 86.3353437,29.4330083 86.7606933,29.486803 C86.9898436,29.5159232 87.5116775,28.4993821 87.8463576,27.9874438 C89.812011,24.9809453 90.8925065,21.5740989 92.015214,18.129463 C91.0126813,18.0132043 90.2160392,17.9280665 89.4125055,17.8407058 C89.4019525,17.6584264 89.3870922,17.4812597 89.3621096,17.3020924 C89.9860274,17.1115882 90.5974539,16.8077151 91.2289096,16.7670357 C92.0311512,16.7163531 92.5409245,16.4362653 92.6236254,15.5884438 C92.6856511,14.9658041 92.8456686,14.3936246 92.9757502,13.750534 C93.1002323,13.1350076 93.7011058,12.9529505 94.0138185,13.0098572 C94.3263158,13.066764 94.400402,13.7632046 94.3596977,14.1155374 C94.2817349,14.8164239 94.029971,15.4975264 93.768731,16.5069541 C95.8788955,16.1461743 99.4886595,15.5119754 99.6568611,15.4877455 C99.8248472,15.4632934 99.8552139,15.6526862 99.8198938,15.88098 C99.7845736,16.1092738 99.3661158,16.3875833 99.0994916,16.4653855 C97.6677327,16.8675116 96.243727,17.2929784 94.7844011,17.5346098 C93.8451862,17.6899918 93.3127994,17.9554084 93.2400054,19.0573096 C93.0709424,21.6345624 92.7842891,24.2073693 92.5766754,26.7850667 C92.5437243,27.2192028 92.3957673,27.8196134 92.6436545,28.1339342 C92.8915418,28.448255 93.1956398,28.3215486 93.5186901,27.9116423 C93.8417404,27.5017359 94.7691101,25.9801476 95.5560606,24.8026671 C96.8176797,22.9178537 98.0121043,20.9945838 99.3323032,19.1615645 C99.8203245,18.4760161 100.428521,17.5346098 101.536368,18.3115201 C101.563289,18.329748 101.621007,18.3115201 101.656112,18.2970711 C104.327091,17.0275618 107.127507,18.2019302 109.851036,17.8633795 C110.27617,17.8133638 111.141299,17.9763038 111.193633,18.2792878 C111.245967,18.5822717 111.228523,18.8196795 111.044169,19.2075789 C110.922271,19.471884 110.270786,19.9702626 110.270786,20.2276766 C110.280478,22.2298602 110.081263,24.2507162 110.306752,26.2364502 C110.400652,27.0649322 110.676537,28.4249143 110.857015,28.6996672 C111.037492,28.97442 111.32673,29.0439974 111.710514,28.7036684 C112.094082,28.3631172 112.724461,27.5395255 113.380684,26.7077091 C116.78025,22.397246 121.295631,20.5366624 126.502125,20.9714655 C131.831594,21.4193838 137.110451,22.4754928 142.436689,23.1154713 C148.811979,23.8834899 155.199114,24.7426483 161.609293,25.0811989 C167.151113,25.3639543 172.731915,24.9298181 178.294625,24.8929177 C185.986884,24.8473478 182.595717,24.884026 190.287329,24.8700216 C193.663851,24.8606853 199.35492,24.8991418 200.418833,24.8991418 C201.193722,24.8991418 201.193722,26.0539485 200.418833,26.0539485 C199.643512,26.0539485 192.502593,26.0394995 188.54135,26.0495026 C179.762135,26.0721764 182.071083,26.0906267 173.291869,26.1368634 C168.922075,26.1593149 164.544313,26.4462938 160.191318,26.2377839 C155.846076,26.0270512 151.511387,25.4201941 147.185959,24.8560172 C140.322001,23.9650711 133.495733,22.7273495 126.615624,22.0960404 C121.82888,21.657903 117.492252,23.2648515 114.336482,27.3612474 C113.796342,28.0559097 113.255556,28.7507943 112.667173,29.4085562 C111.233476,31.0072799 109.783842,30.6742865 109.276007,28.5309476 C108.945419,27.1425121 108.882747,25.6793866 108.742543,24.2451589 C108.686978,23.6727572 108.732421,23.0870179 108.468166,22.4294783 C107.609713,24.1382365 106.766337,25.8576647 105.884194,27.5477503 C105.61477,28.059911 105.294304,28.6272 104.842034,28.9292948 C104.432191,29.2076043 103.655578,29.6292921 103.291608,29.2671785 C102.927422,28.9050649 103.16971,28.1603869 103.39003,27.7900486 C104.949071,25.1672259 106.586075,22.5844158 108.200249,19.9929364 C108.351006,19.755084 108.527607,19.5372379 108.88167,19.0573096 C106.931308,19.0573096 105.231202,19.0426383 103.53088,19.0617554 C102.56216,19.0710917 102.029342,19.6326011 101.848434,20.5917908 C101.47025,22.6395442 101.12954,24.6928549 100.686745,26.7221581 C100.582508,27.1965291 100.155005,27.9641031 99.868782,27.9641031 C99.0042995,27.9785521 98.9392587,27.1818578 98.9950387,26.4654109 C99.1429957,24.5859325 99.3124894,22.6991185 99.3058131,20.6927114 C98.2526691,22.4894972 97.2307533,24.2993982 96.1504732,26.0683975 C95.5657521,27.0378126 95.0034292,28.070581 94.2220783,28.8508257 C92.8880959,30.186578 91.5401147,29.6499652 91.2433392,27.7593723 C91.1552541,27.173633 91.1912204,26.5701104 91.1802367,25.975924 C91.171622,25.4090796 91.1737757,24.8386784 91.1737757,24.0217555 C90.2571743,25.9092364 89.4930527,27.5668674 88.6391231,29.1802624 C88.1123357,30.1676832 87.5487206,31.4049601 86.1387138,30.8714595 C84.776303,30.3599657 85.0898771,29.024658 85.1267049,27.8998608 C85.1447957,27.2234264 85.1865769,26.3024709 85.2315885,25.4779901 C84.9757327,26.0572829 84.4394692,26.9586767 84.1756448,27.535302 C83.9512325,28.0376818 83.6471345,28.5780735 83.481302,28.9115114 C83.1944334,29.4888036 82.6777683,29.9978521 82.0030239,29.9747338 C81.3280641,29.9518377 80.8798857,28.9059541 80.8357355,28.2879825 C80.7347284,26.8259684 80.9492338,25.3455041 81.0323654,23.8688187 C81.0543329,23.4302367 81.0752234,22.9916547 81.1142048,22.2587581 C80.5187155,22.7633608 79.948424,23.2001645 79.4939999,23.6758693" id="Fill-1" fill="#230b42"/>
                <path d="M46.5790376,29.8009708 C48.5200121,27.7010871 48.8541888,24.8104352 50.181378,22.4161233 C47.6130819,24.2085454 47.1001841,27.0036898 46.5790376,29.8009708 Z M63.3466714,31.3955406 C64.7937835,31.6512957 68.6968829,24.4713514 67.6423227,22.0392211 C64.793149,22.934898 61.8995593,31.1395719 63.3466714,31.3955406 Z M56.3864896,57.7449363 C55.9129316,57.3421808 55.8750723,56.7383681 56.2608561,56.4924415 C56.6464283,56.2467286 57.1390217,56.5497033 57.8665963,56.4759894 C58.5939595,56.4024892 59.1117219,56.3383902 59.6874364,56.2029276 C63.2893538,55.354684 65.7028287,52.817645 67.5632201,49.5342798 C69.2102037,46.6205523 69.7734395,43.3314182 69.7159103,39.9790397 C69.6404033,35.4425388 69.5467069,28.9337111 69.5532636,28.316865 C69.5615122,27.5423352 69.2690019,26.1592921 69.1456949,25.843284 C68.5234494,26.8605353 68.0185887,27.8030045 67.4111485,28.6548804 C66.8713897,29.4153084 66.212131,30.4289275 65.6228801,31.1780313 C65.2853193,31.607281 64.2870193,32.7503801 63.1888892,32.6886314 C62.3815775,32.6431211 62.0603026,32.0296936 61.832724,31.241703 C61.7030719,30.7921552 61.710263,29.9845077 61.6144516,29.2334809 C60.9537123,30.3199592 60.5175906,31.2502495 59.8788478,32.002131 C59.4903145,32.4630029 58.7876973,32.8723819 58.2160014,32.8890477 C57.4112277,32.9027221 57.154673,32.1023391 57.1166023,31.36926 C57.0747244,30.4945221 57.1079306,29.6127334 57.1079306,28.4741212 C56.6861911,29.291811 56.4584011,29.9678419 56.0324315,30.4778564 C55.6936017,30.8733473 55.0062129,31.4602806 54.6301583,31.3154169 C54.2538923,31.1703394 54.0567703,30.3755116 54.0068553,29.8847269 C53.9230996,29.1674589 54.0601544,28.4260469 53.868743,27.6083572 C53.2477666,28.9262329 52.6341927,30.2532962 51.9857207,31.5572838 C51.8120757,31.9053415 51.3888557,32.4354403 51.0735029,32.6127809 C50.5578555,32.8935346 50.0661082,33.1535629 49.609682,32.9911788 C49.2393381,32.8627671 49.0030878,32.0506326 48.8926826,31.4963897 C48.7700101,30.8850988 48.8641295,30.2362031 48.8641295,29.5772652 C48.0762762,30.2891916 47.470105,30.999836 46.7241295,31.4735278 C45.7446534,32.1023391 44.8631037,31.5322852 45.0177133,30.3755116 C45.4631412,27.0244152 46.2683379,23.7968161 48.9421746,21.459766 C49.3721627,21.090342 50.2112001,20.9055232 50.7524395,21.050387 C51.1274365,21.1508088 51.4582291,21.9554651 51.5280255,22.4864186 C51.6111467,23.171637 52.0060251,24.0562034 51.0218959,24.5301088 C50.9476579,24.5683546 50.9163552,24.7482591 50.9013384,24.8636374 C50.6600121,26.6816991 50.4127636,28.4967695 50.1923762,30.3154722 C50.155363,30.6128917 50.1858196,31.6034351 50.6249024,31.36926 C51.0637737,31.1348713 51.6401228,29.7358035 52.0345782,28.8653389 C52.7012396,27.380592 53.2670135,25.8473436 53.9000457,24.3491359 C54.0601544,23.9852672 54.2780038,23.5942632 54.5766478,23.3476957 C54.8148015,23.153903 55.2549419,23.0483533 55.5389921,23.1327503 C55.7280769,23.1859525 55.9188537,23.6513113 55.9010874,23.9179632 C55.8147936,25.2984424 55.657646,26.6688793 55.7280769,28.140379 C56.2532419,27.2703417 56.7172823,26.3526575 57.327472,25.5527018 C57.6466319,25.1371265 58.345442,24.6174972 58.6703125,24.6174972 C58.995183,24.6174972 59.0799962,25.6411584 59.0444635,26.1340798 C58.9135424,27.7889027 58.6703125,29.4262052 58.7492036,31.1976883 C58.9287707,30.9831703 59.1356218,30.7808311 59.2957305,30.5528523 C61.1089565,27.9181691 62.855347,25.2375483 64.7421764,22.6624772 C65.4041847,21.7659457 66.3436866,21.0463274 67.260769,20.3910218 C68.4855901,19.5211982 69.7159103,20.1805634 70.0818127,21.5990746 C71.4388239,26.8964308 70.7334573,32.2563904 70.9809172,37.6597237 C71.0576933,40.393333 70.9147164,42.9846425 70.3335027,45.5272367 C69.201955,50.4929874 66.6939376,54.2457711 62.477812,56.3054861 C61.3815854,56.8411402 60.5076499,57.1834289 59.1745386,57.4814893 C59.0368493,57.5124705 58.4401959,57.6895975 58.0279741,57.8425804 C57.6349992,57.9880852 56.8600476,58.1476917 56.3864896,57.7449363 L56.3864896,57.7449363 Z" id="Fill-2" fill="#230b42"/>
                <path d="M0.58307567,23.4142709 C1.09469134,23.4142709 6.39780932,23.4412932 9.31345924,23.4244562 C14.4158466,23.3895352 19.522752,23.3729061 24.6212668,23.1935201 C28.5278762,23.0573697 32.4146923,22.6547385 36.1549944,21.3971657 C37.951243,20.7924914 38.2326531,21.0140736 38.3570071,22.82581 C38.3856215,23.2446545 38.489967,23.6556002 38.5889338,24.2099716 C40.9546722,20.663824 44.7080982,19.6321985 48.3128587,18.389384 C48.9139748,18.1804814 49.5686621,18.0179323 50.2054924,18.0004718 C50.4625911,17.9875843 50.9533377,18.2395146 50.996797,18.6593984 C51.0404716,19.0792822 50.6310499,19.4230881 50.1626785,19.4160207 C46.7943627,19.6569343 44.4150702,20.6218356 41.7403831,22.5553799 C40.8529085,23.2049526 40.2324292,24.3215942 40.1265777,24.9672175 C39.8511917,26.6637976 39.7950387,28.3982088 39.5936627,30.1137045 C39.5577334,30.4236286 39.4768387,30.7333449 39.065696,30.9459891 C38.6545532,31.1588411 38.0938844,30.6894858 38.0542976,30.4585497 C37.8490489,29.390756 37.8703483,28.2820133 37.6851082,27.2111016 C37.4142402,25.5866501 37.0392418,23.9794512 36.7046908,22.3868027 C27.7905731,25.0644975 18.7667312,24.2966506 9.82464462,24.4957836 C6.73795413,24.5689515 1.3492083,24.5097104 0.566509477,24.5097104 C-0.216404488,24.5097104 -0.166060474,23.4142709 0.58307567,23.4142709" id="Fill-3" fill="#230b42"/>
                <path d="M76.7282272,27.1112857 C75.1600915,28.8122537 73.4795032,32.8241109 74.4609833,32.7081953 C75.4424634,32.5922798 77.0550427,29.6662305 76.7282272,27.1112857 Z M78.891287,23.7595578 C78.0346624,24.5943245 77.50506,25.5013474 77.8448986,27.0901109 C78.2802392,29.1591272 77.5654207,30.9891086 76.2089606,32.505616 C75.8015264,32.9605463 75.1466551,33.4931903 74.632763,33.7608221 C74.2307034,33.9767176 73.4569713,34.1439329 73.1233342,33.8138682 C72.7896971,33.4835853 72.8903671,32.4770191 73.0307261,32.1373494 C73.892932,30.0537072 74.7210301,28.4302345 75.7674185,26.4441709 C76.2862718,25.4467732 76.3629628,24.8405632 75.4815325,24.1234585 C72.813676,21.9562086 71.1266795,19.1541519 71.0142269,15.5232225 C70.8323182,9.77918088 72.3783354,4.78869953 76.6054388,1.04119971 C76.7941691,0.873766127 77.1947817,0.48672604 77.5263516,0.205778159 C77.788879,-0.0166662001 78.2213256,-0.0819369199 78.4894342,0.126099856 C78.7573361,0.334136631 78.8253451,0.811769858 78.5797684,1.01631389 C78.4100558,1.15777016 78.1355391,1.33131606 77.8591619,1.43828145 C76.2199164,2.07243343 75.2857739,3.585448 74.4217076,5.03100889 C72.2214391,8.73310299 71.5434158,12.8082662 72.2042818,17.1532441 C72.6941951,20.3670085 74.6755529,22.3423755 77.243773,24.2756113 C77.6276417,23.8263566 77.9914591,23.3640042 78.3649921,22.9199886 C78.5948585,22.6375127 78.7732531,22.9199886 78.891287,23.1808532 C78.9942308,23.4041708 79.072989,23.5798996 78.891287,23.7595578 L78.891287,23.7595578 Z" id="Fill-4" fill="#230b42"/>
            </g>
        </g>
    </g>
</svg>