<svg xmlns="http://www.w3.org/2000/svg" xmlns:xlink="http://www.w3.org/1999/xlink" width="160px" height="47px" viewBox="0 0 160 47" version="1.1">
    <!-- Generator: Sketch 51.3 (57544) - http://www.bohemiancoding.com/sketch -->
    <title>Group 23</title>
    <desc>Created with Sketch.</desc>
    <defs/>
    <g id="Events" stroke="none" stroke-width="1" fill="none" fill-rule="evenodd">
        <g id="Artboard" transform="translate(-62.000000, -32.000000)">
            <g id="Group-23" transform="translate(62.000000, 32.000000)">
                <path d="M58.8624,26.8147 C58.0204,26.0207 57.0574,25.7557 55.9264,25.7557 C54.5304,25.7557 53.7604,26.1887 53.7604,26.9347 C53.7604,27.7057 54.4584,28.1377 55.9744,28.2347 C58.2124,28.3787 61.0514,28.8837 61.0514,32.0367 C61.0514,34.1297 59.3434,35.9347 55.9504,35.9347 C54.0734,35.9347 52.1964,35.6227 50.4644,33.8177 L51.9084,31.7237 C52.7504,32.6627 54.6754,33.3597 55.9984,33.3837 C57.1054,33.4087 58.1404,32.8307 58.1404,31.9637 C58.1404,31.1457 57.4664,30.8087 55.7824,30.7127 C53.5444,30.5437 50.8734,29.7267 50.8734,27.0317 C50.8734,24.2887 53.7134,23.3257 55.8784,23.3257 C57.7314,23.3257 59.1274,23.6867 60.4984,24.8897 L58.8624,26.8147 Z" id="Fill-1" fill="#230b42"/>
                <path d="M65.3116,29.6057 C65.3116,31.4107 66.3946,33.0947 68.5366,33.0947 C70.6776,33.0947 71.7606,31.4107 71.7606,29.6057 C71.7606,27.8257 70.5096,26.0927 68.5366,26.0927 C66.4186,26.0927 65.3116,27.8257 65.3116,29.6057 M74.7206,29.6057 C74.7206,33.0227 72.3866,35.7907 68.5366,35.7907 C64.6866,35.7907 62.3756,33.0227 62.3756,29.6057 C62.3756,26.2127 64.7336,23.4217 68.5126,23.4217 C72.2906,23.4217 74.7206,26.2127 74.7206,29.6057" id="Fill-3" fill="#230b42"/>
                <path d="M86.92,34.01 C85.548,35.358 84.105,35.887 82.348,35.887 C78.907,35.887 76.044,33.818 76.044,29.606 C76.044,25.395 78.907,23.325 82.348,23.325 C84.032,23.325 85.332,23.807 86.631,25.082 L84.778,27.031 C84.081,26.406 83.214,26.093 82.396,26.093 C80.423,26.093 78.979,27.536 78.979,29.606 C78.979,31.868 80.519,33.072 82.348,33.072 C83.287,33.072 84.225,32.807 84.947,32.084 L86.92,34.01 Z" id="Fill-5" fill="#230b42"/>
                <polygon id="Clip-8" points="4 46.9473 159.447 46.9473 159.447 0.0003 4 0.0003"/>
                <path d="M88.22,35.5253 L91.156,35.5253 L91.156,23.6143 L88.22,23.6143 L88.22,35.5253 Z M91.42,20.3173 C91.42,22.6033 87.955,22.6033 87.955,20.3173 C87.955,18.0313 91.42,18.0313 91.42,20.3173 Z" id="Fill-7" fill="#230b42"/>
                <path d="M96.0884,29.5822 C96.0884,31.8442 97.6524,33.1912 99.6014,33.1912 C104.2214,33.1912 104.2214,25.9962 99.6014,25.9962 C97.6524,25.9962 96.0884,27.3202 96.0884,29.5822 Z M103.2114,23.6622 L106.0264,23.6622 L106.0264,35.5252 L103.2594,35.5252 L103.1144,33.7932 C102.4414,35.1882 100.5884,35.8622 99.2644,35.8872 C95.7514,35.9102 93.1524,33.7452 93.1524,29.5822 C93.1524,25.4912 95.8714,23.3502 99.3374,23.3732 C100.9254,23.3732 102.4414,24.1192 103.1144,25.2992 L103.2114,23.6622 Z" id="Fill-9" fill="#230b42"/>
                <polygon id="Fill-10" fill="#230b42" points="108.505 35.5253 111.417 35.5253 111.417 18.7053 108.505 18.7053"/>
                <path d="M121.7403,26.8147 C120.8983,26.0207 119.9353,25.7557 118.8043,25.7557 C117.4083,25.7557 116.6383,26.1887 116.6383,26.9347 C116.6383,27.7057 117.3363,28.1377 118.8523,28.2347 C121.0903,28.3787 123.9293,28.8837 123.9293,32.0367 C123.9293,34.1297 122.2213,35.9347 118.8283,35.9347 C116.9513,35.9347 115.0743,35.6227 113.3423,33.8177 L114.7863,31.7237 C115.6283,32.6627 117.5533,33.3597 118.8763,33.3837 C119.9833,33.4087 121.0183,32.8307 121.0183,31.9637 C121.0183,31.1457 120.3443,30.8087 118.6603,30.7127 C116.4223,30.5437 113.7513,29.7267 113.7513,27.0317 C113.7513,24.2887 116.5913,23.3257 118.7563,23.3257 C120.6093,23.3257 122.0053,23.6867 123.3763,24.8897 L121.7403,26.8147 Z" id="Fill-11" fill="#230b42"/>
                <path d="M129.9459,20.3176 L129.9459,23.6866 L133.2179,23.6866 L133.2179,26.2136 L129.9219,26.2136 L129.9219,31.3386 C129.9219,32.4696 130.5479,33.0226 131.4619,33.0226 C131.9189,33.0226 132.4479,32.8796 132.8819,32.6626 L133.6999,35.1646 C132.8579,35.5016 132.1599,35.6456 131.2689,35.6706 C128.6949,35.7656 127.0099,34.2976 127.0099,31.3386 L127.0099,26.2136 L124.7959,26.2136 L124.7959,23.6866 L127.0099,23.6866 L127.0099,20.6296 L129.9459,20.3176 Z" id="Fill-12" fill="#230b42"/>
                <path d="M137.6939,29.5822 C137.6939,31.8442 139.2579,33.1912 141.2069,33.1912 C145.8269,33.1912 145.8269,25.9962 141.2069,25.9962 C139.2579,25.9962 137.6939,27.3202 137.6939,29.5822 Z M144.8169,23.6622 L147.6319,23.6622 L147.6319,35.5252 L144.8649,35.5252 L144.7199,33.7932 C144.0469,35.1882 142.1939,35.8622 140.8699,35.8872 C137.3569,35.9102 134.7579,33.7452 134.7579,29.5822 C134.7579,25.4912 137.4769,23.3502 140.9429,23.3732 C142.5309,23.3732 144.0469,24.1192 144.7199,25.2992 L144.8169,23.6622 Z" id="Fill-13" fill="#230b42"/>
                <path d="M152.8301,23.6623 L153.0471,25.0343 C153.9611,23.5663 155.1881,23.3503 156.3921,23.3503 C157.6191,23.3503 158.7981,23.8313 159.4471,24.4803 L158.1241,27.0313 C157.5221,26.5253 156.9691,26.2613 156.0061,26.2613 C154.4661,26.2613 153.0471,27.0793 153.0471,29.2683 L153.0471,35.5253 L150.1111,35.5253 L150.1111,23.6623 L152.8301,23.6623 Z" id="Fill-14" fill="#230b42"/>
                <path d="M29.659,23.7295 C29.319,23.7295 29.001,23.8505 28.784,24.0605 C28.658,24.1835 28.546,24.3685 28.485,24.5535 C28.424,24.7355 28.403,24.9545 28.43,25.1255 C28.499,25.5695 28.857,25.9645 29.341,26.1325 C29.674,26.2465 30.03,26.3035 30.399,26.3035 C31,26.3035 31.64,26.1615 32.398,25.8565 C31.942,25.1015 31.23,24.1615 30.118,23.8005 C29.971,23.7535 29.817,23.7295 29.659,23.7295 Z M39.473,42.7805 L41.674,41.0555 C41.953,40.8805 42.727,40.2635 42.847,39.5895 C42.905,39.2685 42.804,38.9415 42.538,38.5895 L39.927,35.6935 L39.964,35.6605 L35.774,30.5985 L33.337,27.4475 C32.258,27.9085 31.292,28.1325 30.39,28.1325 C29.818,28.1325 29.264,28.0415 28.745,27.8625 C27.611,27.4735 26.797,26.5335 26.621,25.4085 C26.558,25.0005 26.586,24.5445 26.7,24.1255 L26.779,23.8815 C26.962,23.4175 27.212,23.0375 27.507,22.7495 C28.071,22.1995 28.832,21.8965 29.651,21.8965 C30.001,21.8965 30.347,21.9515 30.68,22.0605 C32.008,22.4885 33.068,23.4175 34.004,24.9765 L37.662,23.2875 L43.706,20.6905 C44.876,20.1305 44.787,19.1485 44.757,18.9575 L42.62,12.8085 C42.572,12.6775 42.502,12.5995 42.38,12.5445 C42.256,12.4885 42.09,12.4585 41.885,12.4585 C41.473,12.4585 40.99,12.5835 40.783,12.6605 L34.882,14.3575 L30.536,15.5835 L30.508,15.3535 C30.479,15.1185 30.44,14.8995 30.402,14.6815 L30.392,14.5655 L30.531,13.6665 L34.354,12.5395 L40.16,10.8725 C40.346,10.8025 41.058,10.5635 41.872,10.5635 C42.356,10.5635 42.79,10.6495 43.161,10.8185 C43.745,11.0835 44.175,11.5505 44.403,12.1695 L46.597,18.5135 C46.797,19.4415 46.605,21.4155 44.496,22.4125 L38.433,25.0165 L35.059,26.5775 L37.261,29.4235 L41.88,35.0035 C41.995,35.1215 42.105,35.2505 42.206,35.3805 L42.327,35.5375 L42.309,35.5515 L43.99,37.4195 C44.602,38.2095 44.838,39.0745 44.681,39.9325 C44.402,41.4565 42.99,42.4265 42.71,42.6055 L40.893,44.0335 L39.473,42.7805 Z" id="Fill-15" fill="#230b42"/>
                <path d="M30.3987,26.5024 C30.0067,26.5024 29.6297,26.4404 29.2767,26.3204 C28.7237,26.1294 28.3147,25.6734 28.2337,25.1554 C28.2017,24.9524 28.2257,24.7034 28.2957,24.4914 C28.3667,24.2774 28.4967,24.0634 28.6467,23.9184 C28.8997,23.6724 29.2677,23.5314 29.6587,23.5314 C29.8347,23.5314 30.0097,23.5584 30.1797,23.6124 C31.4417,24.0204 32.2107,25.1284 32.6857,25.9514 C31.8087,26.3274 31.0817,26.5024 30.3987,26.5024 Z M38.6147,24.7224 L44.4117,22.2324 C46.4057,21.2904 46.5927,19.4354 46.4097,18.5784 L44.2167,12.2384 C44.0077,11.6704 43.6127,11.2414 43.0787,10.9994 C42.7317,10.8414 42.3257,10.7624 41.8717,10.7624 C41.0937,10.7624 40.4027,10.9934 40.2147,11.0634 L34.4097,12.7294 L30.7067,13.8204 L30.5887,14.5954 C30.6297,14.8344 30.6737,15.0704 30.7047,15.3294 L34.8277,14.1674 L40.6567,12.4944 L40.7127,12.4754 C40.9427,12.3894 41.4437,12.2604 41.8847,12.2604 C42.1187,12.2604 42.3117,12.2954 42.4627,12.3634 C42.6327,12.4414 42.7387,12.5584 42.8077,12.7424 L44.9537,18.9274 C44.9867,19.1424 45.0917,20.2484 43.7847,20.8734 L37.7447,23.4674 L33.9237,25.2324 C32.9917,23.6244 31.9407,22.6744 30.6187,22.2494 C30.3017,22.1454 29.9767,22.0944 29.6507,22.0944 C28.8847,22.0944 28.1737,22.3764 27.6457,22.8914 C27.3697,23.1604 27.1367,23.5154 26.9877,23.8914 L26.9857,23.8914 L26.9667,23.9484 C26.9557,23.9754 26.9467,24.0034 26.9357,24.0354 C26.9257,24.0654 26.9147,24.0974 26.9057,24.1284 L26.8997,24.1464 L26.8917,24.1774 C26.7847,24.5694 26.7577,24.9944 26.8177,25.3774 C26.9817,26.4274 27.7457,27.3094 28.8097,27.6754 C29.3097,27.8474 29.8427,27.9344 30.3897,27.9344 C31.3007,27.9344 32.2867,27.6964 33.3997,27.2044 L35.9277,30.4714 L40.2387,35.6814 L40.2077,35.7084 L42.6967,38.4694 C42.9977,38.8684 43.1097,39.2474 43.0427,39.6254 C42.9087,40.3724 42.0957,41.0254 41.7967,41.2124 L39.7837,42.7894 L40.9007,43.7754 L42.6037,42.4384 C42.8917,42.2534 44.2227,41.3314 44.4867,39.8964 C44.6327,39.0974 44.4107,38.2864 43.8427,37.5524 L42.0187,35.5254 L42.0487,35.5024 C41.9527,35.3774 41.8477,35.2534 41.7277,35.1314 L37.1047,29.5444 L34.7487,26.5014 L38.3547,24.8344 L38.6147,24.7224 Z" id="Fill-16" fill="#230b42"/>
                <path d="M14.2488,25.8731 C15.0068,26.1791 15.6458,26.3211 16.2478,26.3211 C16.6188,26.3211 16.9748,26.2631 17.3068,26.1481 C17.7908,25.9821 18.1478,25.5871 18.2168,25.1431 C18.2438,24.9711 18.2228,24.7521 18.1628,24.5711 C18.0998,24.3841 17.9878,24.1991 17.8628,24.0781 C17.6458,23.8671 17.3278,23.7461 16.9868,23.7461 C16.8298,23.7461 16.6758,23.7701 16.5288,23.8171 C15.4178,24.1771 14.7058,25.1191 14.2488,25.8731 M10.6598,46.9471 C9.9118,46.9471 9.1658,46.6911 8.4408,46.1851 L3.8668,42.5951 C3.6028,42.4261 2.1908,41.4521 1.9118,39.9331 C1.7548,39.0751 1.9908,38.2101 2.5938,37.4321 L5.2698,34.4581 L9.4128,29.4111 L11.6038,26.5771 L8.2068,25.0051 L2.1748,22.4161 C0.0608,21.4161 -0.1342,19.4461 0.0568,18.5441 L0.0828,18.4451 L2.2528,12.1861 C2.4868,11.5551 2.9188,11.0831 3.5028,10.8181 C3.8728,10.6491 4.3068,10.5631 4.7918,10.5631 C5.5758,10.5631 6.2618,10.7821 6.5208,10.8771 L12.3028,12.5371 L16.4318,13.7631 L16.2528,14.5061 C16.2288,14.6441 16.2198,14.7941 16.2108,14.9481 C16.2038,15.0731 16.1958,15.2011 16.1798,15.3341 L16.1518,15.5611 L11.7768,14.3571 L5.8988,12.6661 C5.6658,12.5801 5.1918,12.4591 4.7788,12.4591 C4.5728,12.4591 4.4068,12.4871 4.2858,12.5441 C4.1618,12.6011 4.0898,12.6821 4.0358,12.8271 L1.8958,19.0001 C1.8778,19.1541 1.8018,20.1391 2.9658,20.6951 L8.9778,23.2751 L12.6548,24.9761 C13.5788,23.4461 14.6638,22.4971 15.9668,22.0771 C16.2998,21.9681 16.6468,21.9131 16.9968,21.9131 C17.8148,21.9131 18.5758,22.2161 19.1398,22.7671 C19.4298,23.0501 19.6768,23.4221 19.8348,23.8141 L19.7088,24.0491 L19.8958,23.9821 L19.9318,24.0891 C20.0618,24.5691 20.0888,25.0201 20.0268,25.4251 C19.8508,26.5501 19.0368,27.4891 17.9018,27.8791 C17.3798,28.0601 16.8268,28.1501 16.2568,28.1501 C15.3558,28.1501 14.3918,27.9271 13.3118,27.4661 L10.8938,30.5911 L6.9818,35.3521 L4.0968,38.5441 C3.7888,38.9421 3.6868,39.2711 3.7468,39.5951 C3.8618,40.2261 4.5738,40.8431 4.8998,41.0431 L4.9888,41.1041 L9.5348,44.6741 C9.6688,44.7661 10.1828,45.0891 10.7228,45.0891 C11.0328,45.0891 11.3038,44.9791 11.5258,44.7621 L17.0968,38.7281 L18.5008,40.0001 L15.6978,43.0411 C15.6368,43.1221 15.4318,43.3731 15.1018,43.6321 L12.8718,46.0531 C12.4528,46.4861 11.6538,46.9471 10.6598,46.9471" id="Fill-17" fill="#230b42"/>
                <path d="M18.4129,25.1725 C18.3329,25.6895 17.9229,26.1465 17.3709,26.3355 C17.0179,26.4575 16.6409,26.5195 16.2479,26.5195 C15.5659,26.5195 14.8379,26.3445 13.9619,25.9685 C14.4369,25.1455 15.2059,24.0375 16.4679,23.6295 C16.6369,23.5745 16.8119,23.5475 16.9869,23.5475 C17.3789,23.5475 17.7479,23.6885 17.9999,23.9355 C18.1499,24.0805 18.2799,24.2945 18.3509,24.5095 C18.4219,24.7205 18.4449,24.9695 18.4129,25.1725 M19.7579,24.2035 L19.7419,24.1465 C19.7319,24.1135 19.7219,24.0825 19.7089,24.0485 C19.6999,24.0205 19.6909,23.9925 19.6819,23.9655 L19.6739,23.9425 L19.6509,23.8885 C19.5019,23.5185 19.2719,23.1735 19.0009,22.9075 C18.4739,22.3935 17.7619,22.1115 16.9969,22.1115 C16.6709,22.1115 16.3449,22.1625 16.0279,22.2655 C14.7289,22.6845 13.6509,23.6555 12.7339,25.2305 L8.8999,23.4585 L2.8809,20.8735 C1.5809,20.2535 1.6789,19.1415 1.7079,18.9345 L3.8499,12.7575 C3.9219,12.5625 4.0309,12.4415 4.2019,12.3635 C4.3509,12.2955 4.5449,12.2605 4.7789,12.2605 C5.2199,12.2605 5.7209,12.3885 5.9539,12.4755 L11.8299,14.1655 L15.9829,15.3095 C16.0199,15.0105 16.0099,14.7355 16.0599,14.4595 L16.1949,13.8995 L12.2479,12.7275 L6.4529,11.0635 C6.2599,10.9935 5.5709,10.7625 4.7919,10.7625 C4.3369,10.7625 3.9309,10.8415 3.5849,10.9985 C3.0499,11.2415 2.6549,11.6745 2.4409,12.2525 L0.2749,18.4985 L0.2509,18.5855 C0.0709,19.4345 0.2589,21.2905 2.2529,22.2335 L8.2899,24.8255 L11.9139,26.5015 L9.5659,29.5365 L5.3009,34.7325 L5.2939,34.7265 L2.7869,37.5095 L2.7509,37.5525 C2.1839,38.2865 1.9609,39.0975 2.1069,39.8965 C2.3709,41.3315 3.7019,42.2535 3.9899,42.4385 L8.5219,45.9975 L8.5549,46.0225 C9.3159,46.5545 10.0339,46.7485 10.6599,46.7485 C11.6139,46.7485 12.3569,46.3005 12.7259,45.9175 L14.9789,43.4755 C15.2719,43.2455 15.4679,43.0165 15.5519,42.9065 L18.2199,40.0125 L17.1099,39.0075 L14.5499,41.7835 L14.5489,41.7825 L11.9889,44.5515 L11.6649,44.9035 C10.8289,45.7185 9.6739,45.0105 9.4119,44.8295 L4.8659,41.2605 L4.7969,41.2115 C4.5179,41.0415 3.6889,40.3815 3.5519,39.6305 C3.4819,39.2495 3.5949,38.8695 3.8969,38.4695 L3.9419,38.4195 L3.9489,38.4115 L4.4899,37.8125 C4.4899,37.8125 4.4899,37.8135 4.4899,37.8135 L6.8289,35.2255 L10.7369,30.4695 L13.2499,27.2225 C14.3619,27.7135 15.3469,27.9525 16.2569,27.9525 C16.8059,27.9525 17.3369,27.8645 17.8369,27.6915 C18.9009,27.3255 19.6659,26.4455 19.8299,25.3945 C19.8889,25.0145 19.8629,24.5935 19.7579,24.2035" id="Fill-18" fill="#230b42"/>
                <path d="M23.2581,27.5957 C23.0741,27.5957 22.8651,27.6457 22.7111,27.7247 C22.3101,27.9337 22.0481,28.3977 22.0441,28.9077 C22.0331,30.0747 22.7001,31.0487 23.2721,31.7217 C23.8431,31.0507 24.5111,30.0787 24.5001,28.9077 C24.4961,28.3977 24.2351,27.9327 23.8341,27.7247 C23.6791,27.6457 23.4691,27.5957 23.2861,27.5957 L23.2581,27.5957 Z M35.9311,46.9477 C34.9381,46.9477 34.1461,46.4927 33.7371,46.0687 L30.6851,42.7607 L30.7051,42.7417 L25.8421,37.4847 L23.3311,34.5847 L20.8121,37.4927 L18.2321,40.2917 L16.8281,39.0207 L19.4071,36.2247 L22.0801,33.1377 C21.2361,32.1957 20.1951,30.7657 20.2141,28.8907 C20.2251,27.6897 20.8611,26.6197 21.8711,26.0987 C22.2221,25.9167 22.6511,25.7997 23.0791,25.7707 L23.5701,25.7707 L23.5721,25.7807 C23.9611,25.8187 24.3471,25.9297 24.6731,26.0977 C25.6851,26.6197 26.3201,27.6907 26.3301,28.8907 C26.3491,30.7367 25.3421,32.1427 24.5241,33.0697 L27.2601,36.2297 L32.6391,42.0437 L32.6841,42.1117 C32.6831,42.1107 32.6831,42.1097 32.6841,42.1097 C32.6881,42.1097 32.7611,42.1967 32.8731,42.2937 L33.0581,42.4547 L32.9881,42.5067 L35.0931,44.7877 C35.3031,44.9917 35.5571,45.0947 35.8631,45.0947 C36.4021,45.0947 36.9231,44.7667 37.0701,44.6657 L39.7911,42.5317 L41.2111,43.7837 L38.1611,46.1787 C37.4281,46.6917 36.6811,46.9477 35.9311,46.9477 Z" id="Fill-19" fill="#230b42"/>
                <path d="M23.2719,32.0232 C22.6419,31.3132 21.8329,30.2332 21.8459,28.9052 C21.8499,28.3212 22.1549,27.7902 22.6199,27.5492 C22.8029,27.4542 23.0409,27.3982 23.2579,27.3982 L23.2869,27.3982 C23.5029,27.3982 23.7409,27.4542 23.9249,27.5492 C24.3899,27.7902 24.6939,28.3212 24.6989,28.9062 C24.7109,30.2322 23.9029,31.3132 23.2719,32.0232 Z M39.7839,42.7892 L37.1819,44.8302 C36.9189,45.0092 35.7649,45.7192 34.9479,44.9222 L32.6939,42.4802 L32.7429,42.4432 C32.5949,42.3152 32.5079,42.2022 32.5069,42.2002 L32.4749,42.1582 L27.1109,36.3592 L24.2599,33.0672 C25.0839,32.1562 26.1509,30.7452 26.1319,28.8932 C26.1219,27.7662 25.5279,26.7632 24.5819,26.2752 C24.2399,26.0972 23.8259,25.9882 23.4149,25.9672 L23.4139,25.9662 L23.3069,25.9642 L23.1579,25.9642 L23.0929,25.9682 C22.6949,25.9962 22.2949,26.1032 21.9619,26.2752 C21.0159,26.7632 20.4229,27.7662 20.4119,28.8932 C20.3939,30.7722 21.4949,32.2082 22.3449,33.1342 L19.5539,36.3592 L17.1099,39.0072 L18.2199,40.0132 L20.6629,37.3632 L23.3309,34.2822 L25.9869,37.3502 L30.9889,42.7562 L30.9679,42.7752 L33.8799,45.9312 C34.2399,46.3052 34.9789,46.7492 35.9309,46.7492 C36.5569,46.7492 37.2759,46.5562 38.0389,46.0222 L40.9009,43.7762 L39.7839,42.7892 Z" id="Fill-20" fill="#230b42"/>
                <path d="M29.2727,16.1202 C28.4207,16.3492 27.3197,16.7732 26.6667,17.7432 C26.3807,18.1682 26.3337,18.6992 26.5467,19.0972 C26.6297,19.2512 26.7787,19.4132 26.9367,19.5192 C27.0987,19.6302 27.2987,19.7102 27.4737,19.7312 C27.5197,19.7392 27.5607,19.7392 27.6027,19.7392 C28.0127,19.7392 28.4297,19.5082 28.6907,19.1352 C29.3617,18.1782 29.3627,16.9972 29.2727,16.1202 M17.3897,16.1372 C17.2987,17.0142 17.2997,18.1932 17.9717,19.1502 C18.2327,19.5242 18.6497,19.7572 19.0607,19.7572 C19.1047,19.7572 19.1477,19.7552 19.1897,19.7502 C19.3657,19.7262 19.5657,19.6472 19.7247,19.5382 C19.8857,19.4282 20.0317,19.2692 20.1167,19.1122 C20.3297,18.7172 20.2817,18.1852 19.9957,17.7602 C19.3437,16.7912 18.2417,16.3672 17.3897,16.1372 M19.0517,21.5882 C18.0447,21.5882 17.0807,21.0702 16.4727,20.2032 C15.2677,18.4842 15.4417,16.4392 15.7297,14.8502 L16.0087,10.2432 L16.1827,6.0272 L16.2017,6.0272 L16.3567,2.9662 C16.4267,1.9372 17.1687,0.0002 19.4797,0.0002 L27.2067,0.0002 C29.5097,0.0002 30.2507,1.9242 30.3197,2.9412 L30.5037,6.2182 L30.6697,10.2622 L30.9597,14.9932 C31.2247,16.5092 31.3777,18.4912 30.1897,20.1862 C29.5817,21.0532 28.6177,21.5702 27.6107,21.5702 C27.4867,21.5702 27.3627,21.5632 27.2427,21.5472 C26.9267,21.5082 26.5977,21.4072 26.2937,21.2602 L26.2897,21.2782 L25.8797,21.0162 L25.7687,20.9342 C25.4237,20.6682 25.1277,20.3232 24.9337,19.9612 C24.3957,18.9572 24.4787,17.7162 25.1487,16.7212 C26.1857,15.1812 27.8187,14.5952 29.0197,14.2972 L28.7777,10.3572 L28.6227,6.5682 L28.4287,3.0622 C28.4057,2.7932 28.2457,1.8932 27.1977,1.8932 C27.1977,1.8932 19.5517,1.8952 19.5507,1.8952 C18.3827,1.8952 18.2627,2.8742 18.2497,3.0692 L18.0547,6.6032 L17.9007,10.3392 L17.6577,14.3172 C18.8547,14.6172 20.4807,15.2032 21.5137,16.7382 C22.1837,17.7342 22.2667,18.9752 21.7297,19.9782 C21.5367,20.3372 21.2467,20.6772 20.9147,20.9362 L20.6817,21.1012 L20.4947,21.2242 L20.4867,21.2162 C20.1507,21.3972 19.7767,21.5202 19.4197,21.5652 C19.2987,21.5812 19.1747,21.5882 19.0517,21.5882" id="Fill-21" fill="#230b42"/>
                <path d="M28.8531,19.248 C28.5551,19.674 28.0761,19.938 27.6031,19.938 C27.5511,19.938 27.4991,19.936 27.4481,19.928 C27.2431,19.902 27.0111,19.811 26.8251,19.684 C26.6391,19.557 26.4701,19.373 26.3721,19.19 C26.1251,18.73 26.1761,18.117 26.5021,17.632 C27.2431,16.532 28.5201,16.099 29.4441,15.871 C29.5611,16.814 29.6151,18.162 28.8531,19.248 M20.1601,17.649 C20.4861,18.135 20.5391,18.746 20.2911,19.207 C20.1921,19.39 20.0231,19.574 19.8371,19.702 C19.6521,19.829 19.4201,19.92 19.2151,19.946 C19.1651,19.953 19.1131,19.955 19.0601,19.955 C18.5871,19.955 18.1071,19.691 17.8091,19.265 C17.0471,18.179 17.1011,16.831 17.2191,15.888 C18.1421,16.116 19.4201,16.549 20.1601,17.649 M30.7621,15.005 L30.4711,10.269 L30.3241,6.688 L30.3241,6.686 L30.3061,6.226 L30.3001,6.226 L30.1221,2.955 C30.0571,2.002 29.3641,0.198 27.2061,0.198 C27.1681,0.198 27.1291,0.198 27.0911,0.199 L19.5901,0.199 C19.5531,0.199 19.5161,0.198 19.4801,0.198 C17.3151,0.198 16.6201,2.013 16.5551,2.976 L16.3901,6.226 L16.3731,6.226 L16.2071,10.255 L15.9241,14.886 C15.6441,16.437 15.4721,18.43 16.6351,20.088 C17.2061,20.903 18.1101,21.389 19.0521,21.389 C19.1661,21.389 19.2811,21.383 19.3951,21.368 C19.7751,21.32 20.1721,21.179 20.5171,20.97 L20.5181,20.971 L20.5731,20.936 C20.5971,20.92 20.6211,20.905 20.6441,20.888 L20.6111,20.839 L20.6651,20.874 C20.6861,20.859 20.7081,20.844 20.7291,20.828 L20.7461,20.817 L20.7921,20.78 C21.1061,20.535 21.3751,20.218 21.5551,19.884 C22.0571,18.946 21.9781,17.783 21.3491,16.849 C20.3161,15.313 18.6401,14.754 17.4501,14.471 L17.7021,10.331 L17.8561,6.593 L18.0511,3.057 C18.0601,2.917 18.1811,1.696 19.4781,1.696 C19.5021,1.696 19.5271,1.696 19.5541,1.697 L27.1021,1.697 C27.1021,1.697 27.1741,1.696 27.1981,1.696 C28.4411,1.696 28.6081,2.827 28.6271,3.051 L28.8211,6.561 L28.9761,10.346 L29.2281,14.45 C28.0311,14.733 26.3491,15.293 25.3131,16.832 C24.6841,17.766 24.6061,18.929 25.1081,19.867 C25.2911,20.208 25.5671,20.528 25.8881,20.776 L25.8881,20.777 L25.9341,20.811 C25.9551,20.827 25.9771,20.842 25.9971,20.857 L26.0311,20.809 L26.0191,20.871 C26.0421,20.887 26.0651,20.904 26.0901,20.919 L26.1621,20.965 L26.1631,20.963 C26.5031,21.167 26.8941,21.303 27.2681,21.351 C27.3801,21.365 27.4951,21.372 27.6111,21.372 C28.5531,21.372 29.4561,20.886 30.0271,20.072 C31.1731,18.438 31.0221,16.503 30.7621,15.005" id="Fill-22" fill="#230b42"/>
            </g>
        </g>
    </g>
</svg>