<svg width="90" height="52" viewBox="0 0 90 52" fill="none" xmlns="http://www.w3.org/2000/svg">
<g clip-path="url(#clip0_771_3015)">
<path fill-rule="evenodd" clip-rule="evenodd" d="M49.5546 0L25.355 14.9482L26.5637 16.8928L50.7634 1.94459L49.5546 0Z" fill="white"/>
<path fill-rule="evenodd" clip-rule="evenodd" d="M39.4606 8.98213C33.7759 11.7998 31.4649 18.6786 34.2939 24.3404C37.123 30.0022 44.0295 32.3039 49.7142 29.4863C55.3988 26.6686 57.71 19.7898 54.8807 14.128C52.0519 8.46619 45.1452 6.16448 39.4606 8.98213Z" fill="#F3F3F3"/>
<path d="M0 48.4295L1.22193 47.702C2.08526 49.2761 3.06812 50.0696 4.19708 50.0696C4.67522 50.0696 5.12682 49.9641 5.55181 49.7393C5.97685 49.5142 6.29562 49.21 6.52142 48.8396C6.74722 48.4692 6.85348 48.0591 6.85348 47.649C6.85348 47.1728 6.69406 46.6966 6.36201 46.2336C5.91041 45.5986 5.08694 44.8314 3.90488 43.9318C2.70951 43.0323 1.96572 42.3841 1.67352 41.974C1.16881 41.2994 0.916449 40.5718 0.916449 39.7913C0.916449 39.1695 1.06255 38.6007 1.36803 38.0848C1.67352 37.5689 2.08526 37.1721 2.62981 36.8678C3.17437 36.5768 3.75877 36.4313 4.39631 36.4313C5.07366 36.4313 5.71122 36.6032 6.29562 36.9339C6.88003 37.2647 7.50426 37.8864 8.16837 38.7727L6.99956 39.659C6.45499 38.9447 6.0034 38.4817 5.61824 38.2435C5.23308 38.0187 4.82132 37.8996 4.36974 37.8996C3.78534 37.8996 3.32047 38.0716 2.94858 38.4288C2.57669 38.7859 2.39074 39.2093 2.39074 39.7252C2.39074 40.0426 2.45715 40.3337 2.58997 40.6247C2.72279 40.9157 2.96186 41.2332 3.30719 41.5771C3.49313 41.7624 4.11739 42.2386 5.16665 43.0058C6.41516 43.9186 7.26519 44.7387 7.73006 45.4399C8.19492 46.141 8.42072 46.8685 8.42072 47.5828C8.42072 48.6147 8.02228 49.5273 7.23864 50.2815C6.44171 51.0487 5.48543 51.4325 4.35646 51.4325C3.47985 51.4325 2.69622 51.1943 1.979 50.7312C1.26178 50.2682 0.597685 49.5273 0 48.4295Z" fill="white"/>
<path d="M16.4719 40.6095C18.1055 40.6095 19.4603 41.2048 20.5361 42.3821C21.519 43.4536 21.9971 44.7368 21.9971 46.2051C21.9971 47.6867 21.4791 48.9699 20.4431 50.0809C19.4072 51.1922 18.0789 51.7345 16.4585 51.7345C14.8249 51.7345 13.4967 51.1789 12.4607 50.0809C11.4247 48.9831 10.9067 47.6867 10.9067 46.2051C10.9067 44.7368 11.3982 43.4668 12.3677 42.3953C13.4701 41.2048 14.8249 40.6095 16.4719 40.6095ZM16.4585 41.9456C15.3163 41.9456 14.3467 42.3689 13.5233 43.2023C12.7131 44.0357 12.3013 45.0543 12.3013 46.2316C12.3013 46.9989 12.4873 47.7132 12.8592 48.3746C13.2311 49.036 13.7358 49.552 14.3733 49.9091C15.0108 50.2661 15.7015 50.4514 16.4585 50.4514C17.2156 50.4514 17.9063 50.2661 18.5438 49.9091C19.1814 49.552 19.6861 49.036 20.0579 48.3746C20.4298 47.7132 20.6158 46.9989 20.6158 46.2316C20.6158 45.041 20.204 44.0357 19.3806 43.2023C18.5704 42.3689 17.6008 41.9456 16.4585 41.9456Z" fill="white"/>
<path d="M24.4834 37.1429H25.8514V51.8133H24.4834V37.1429Z" fill="white"/>
<path d="M30.1895 41.7756L29.4324 41.3523C29.6848 40.8628 29.8442 40.4792 29.9372 40.1881C30.0168 39.9104 30.0832 39.5532 30.1231 39.1034H29.2598V36.4313H31.0263V38.098C31.0263 38.9314 30.9731 39.5929 30.8536 40.0691C30.7474 40.5453 30.5216 41.1141 30.1895 41.7756Z" fill="white"/>
<path d="M38.1587 42.0253L37.2821 42.9248C36.5516 42.2236 35.8344 41.8665 35.1437 41.8665C34.7054 41.8665 34.3202 42.012 34.0015 42.303C33.6827 42.594 33.5233 42.938 33.5233 43.3216C33.5233 43.6656 33.6562 43.9963 33.9085 44.3005C34.1741 44.618 34.7187 44.9884 35.5555 45.425C36.5782 45.9541 37.2688 46.4568 37.6274 46.9462C37.9861 47.4357 38.172 47.9913 38.172 48.613C38.172 49.4861 37.8665 50.2137 37.2555 50.8223C36.6446 51.4305 35.8742 51.7217 34.9578 51.7217C34.3468 51.7217 33.7624 51.5894 33.2046 51.325C32.6467 51.0605 32.1818 50.6901 31.8232 50.227L32.6865 49.248C33.3905 50.0285 34.121 50.4251 34.9046 50.4251C35.4492 50.4251 35.9141 50.2533 36.2992 49.8962C36.6844 49.552 36.8836 49.1289 36.8836 48.6659C36.8836 48.2823 36.7508 47.9251 36.4985 47.6209C36.2461 47.3166 35.675 46.9462 34.7718 46.4965C33.8155 46.007 33.1647 45.5175 32.8194 45.0413C32.4741 44.5651 32.3014 44.0095 32.3014 43.401C32.3014 42.594 32.5803 41.9326 33.1249 41.4035C33.6827 40.8744 34.3734 40.6098 35.2101 40.6098C36.193 40.5965 37.1759 41.0728 38.1587 42.0253Z" fill="white"/>
<path d="M54.7342 37.1429L61.4285 51.4563H59.8746L57.6167 46.7467H51.4271L49.1826 51.4563H47.6021L54.3891 37.1429H54.7342ZM54.5616 40.1854L52.1048 45.371H57.019L54.5616 40.1854Z" fill="white"/>
<path d="M63.9285 37.1429H66.7841C68.3777 37.1429 69.4538 37.209 70.0246 37.3413C70.8749 37.5397 71.5655 37.9498 72.11 38.598C72.6411 39.233 72.9071 40.0267 72.9071 40.9659C72.9071 41.7464 72.7211 42.4343 72.3492 43.0163C71.9773 43.6116 71.4591 44.0481 70.7685 44.3524C70.0912 44.6567 69.135 44.8022 67.9397 44.8154L73.106 51.4563H71.3264L66.1596 44.8154H65.3496V51.4563H63.915V37.1429H63.9285ZM65.363 38.5451V43.4132L67.8333 43.4264C68.7895 43.4264 69.5065 43.3338 69.9585 43.1486C70.4234 42.9634 70.7819 42.6724 71.034 42.2755C71.2866 41.8787 71.4194 41.4289 71.4194 40.9395C71.4194 40.4633 71.2866 40.0267 71.034 39.6298C70.7685 39.233 70.4363 38.9552 70.0112 38.7832C69.5865 38.6113 68.8824 38.5319 67.8994 38.5319H65.363V38.5451Z" fill="white"/>
<path d="M89.6447 39.4473L88.5155 40.3204C87.8915 39.5134 87.1342 38.8917 86.271 38.4816C85.4078 38.0716 84.4381 37.8599 83.389 37.8599C82.2468 37.8599 81.1842 38.1377 80.2012 38.6801C79.2181 39.2357 78.4613 39.9632 77.9298 40.8892C77.3988 41.8152 77.1198 42.847 77.1198 44.0112C77.1198 45.7573 77.7175 47.2124 78.9263 48.3765C80.1216 49.5406 81.6357 50.1225 83.4685 50.1225C85.4739 50.1225 87.161 49.3422 88.5155 47.768L89.6447 48.6279C88.9272 49.5406 88.0376 50.2419 86.9616 50.7312C85.8861 51.2339 84.6907 51.4721 83.3755 51.4721C80.8655 51.4721 78.8865 50.6386 77.4251 48.9718C76.2034 47.5696 75.5923 45.8631 75.5923 43.8789C75.5923 41.7888 76.3227 40.0161 77.8105 38.5875C79.2848 37.1588 81.131 36.4445 83.3492 36.4445C84.6902 36.4445 85.899 36.709 86.9885 37.2382C88.0774 37.7541 88.9541 38.4948 89.6447 39.4473Z" fill="white"/>
</g>
<defs>
<clipPath id="clip0_771_3015">
<rect width="90" height="52" fill="white"/>
</clipPath>
</defs>
</svg>
