<svg width="147" height="26" viewBox="0 0 147 26" fill="none" xmlns="http://www.w3.org/2000/svg">
<path fill-rule="evenodd" clip-rule="evenodd" d="M26.0885 0.359619V4.48139H1.95216L0 0.359619H26.0885Z" fill="white"/>
<path fill-rule="evenodd" clip-rule="evenodd" d="M26.0885 10.037V5.91532H1.95216L0 10.037H26.0885Z" fill="white"/>
<path d="M35.399 0.736933L36.957 0.762858C37.252 0.769172 37.4972 0.790933 37.6909 0.829755C37.8849 0.868307 38.0373 0.917875 38.1484 0.982488C38.2618 1.04522 38.3424 1.11843 38.3918 1.20239C38.4412 1.28634 38.4702 1.37688 38.4784 1.47387L38.4907 1.61612C38.4972 1.70451 38.5072 1.76281 38.5217 1.79263C38.5361 1.82299 38.5589 1.83803 38.5898 1.83588C38.6146 1.83588 38.6351 1.82285 38.6518 1.79491C38.6682 1.76684 38.6764 1.72587 38.6764 1.66784C38.6764 1.62902 38.6787 1.55352 38.6827 1.43948C38.6866 1.32745 38.6909 1.19594 38.695 1.04938C38.6991 0.90095 38.7032 0.754396 38.7073 0.612006C38.7115 0.467736 38.7138 0.344959 38.7138 0.245689C38.7157 0.204584 38.7115 0.170196 38.7055 0.137957C38.6992 0.107598 38.6807 0.0925532 38.652 0.0905382C38.6272 0.0905382 38.5859 0.099001 38.5302 0.111897C38.4726 0.126942 38.3984 0.139837 38.3057 0.155017C38.2069 0.174494 38.0852 0.189539 37.9408 0.202435C37.7966 0.213316 37.6255 0.219629 37.4277 0.219629H32.7899C32.7384 0.219629 32.658 0.21748 32.5508 0.211032C32.4435 0.206868 32.3241 0.198136 32.1921 0.189674C32.0623 0.178793 31.9346 0.168046 31.813 0.155151C31.7038 0.144404 31.613 0.127076 31.5429 0.103434C31.473 0.0796575 31.4172 0.0558812 31.3738 0.0343884C31.3326 0.0128957 31.2976 0.00201495 31.269 0C31.2523 0.00201495 31.2359 0.0170599 31.2214 0.0451348C31.2049 0.075359 31.1904 0.109613 31.1782 0.146419C31.1638 0.185241 31.1534 0.21748 31.1452 0.245555C31.1389 0.269197 31.1267 0.325347 31.1081 0.411318C31.0876 0.499707 31.065 0.605155 31.038 0.725918C31.0133 0.846546 30.9865 0.967443 30.9617 1.09022C30.937 1.213 30.9164 1.31845 30.8998 1.41127C30.8835 1.50181 30.8731 1.56212 30.8731 1.59006C30.8731 1.62888 30.8792 1.65682 30.8895 1.6763C30.9019 1.69578 30.9164 1.70652 30.9348 1.70652C30.9596 1.70652 30.9824 1.69793 31.001 1.68073C31.0215 1.66126 31.04 1.62687 31.0587 1.5773C31.0751 1.53418 31.0978 1.48461 31.1267 1.42416C31.1555 1.36586 31.2029 1.28433 31.2691 1.17633C31.3327 1.07276 31.4153 0.993234 31.5141 0.93292C31.6131 0.874621 31.7451 0.831501 31.9057 0.80571C32.0686 0.779918 32.2766 0.764739 32.5301 0.762724L34.3606 0.736799V6.20576C34.3606 6.62165 34.3606 7.00731 34.3583 7.3649C34.3564 7.72033 34.3503 8.03936 34.342 8.31729C34.3337 8.5975 34.3192 8.82815 34.2986 9.01124C34.2843 9.13644 34.2636 9.25035 34.2391 9.35177C34.2142 9.45077 34.1792 9.53472 34.1317 9.59732C34.0864 9.66193 34.0226 9.70519 33.9402 9.72225C33.8822 9.73528 33.8206 9.74804 33.7545 9.75892C33.6886 9.76738 33.6269 9.77396 33.569 9.77396C33.5321 9.77396 33.5073 9.78243 33.4928 9.79774C33.4764 9.81279 33.4701 9.83213 33.4701 9.85147C33.4701 9.89016 33.4867 9.91609 33.5177 9.93126C33.5505 9.94846 33.6002 9.95504 33.668 9.95504C33.7648 9.95504 33.8763 9.95276 34.006 9.94846C34.134 9.94416 34.2636 9.94 34.3893 9.93556C34.5172 9.93127 34.6264 9.9271 34.7171 9.92267C34.8078 9.91824 34.8613 9.91609 34.8799 9.91609C34.8986 9.91609 34.9541 9.91837 35.0489 9.92267C35.1436 9.92697 35.2634 9.93113 35.4095 9.93556C35.554 9.93986 35.7127 9.94403 35.8858 9.94846C36.0571 9.95276 36.2302 9.95504 36.4012 9.95504C36.4692 9.95504 36.5187 9.94658 36.5518 9.9271C36.5825 9.90964 36.5991 9.88398 36.5991 9.85161C36.5991 9.83213 36.5929 9.81292 36.5785 9.79788C36.562 9.7827 36.5373 9.7741 36.5002 9.7741C36.4611 9.7741 36.4095 9.77182 36.3457 9.76752C36.2797 9.7612 36.2118 9.75462 36.1398 9.74804C36.0695 9.73958 36.0035 9.73085 35.9438 9.72225C35.8222 9.70519 35.7274 9.66207 35.6614 9.59732C35.5955 9.53472 35.5502 9.45077 35.5213 9.35177C35.4923 9.25035 35.4719 9.1363 35.4616 9.01124C35.441 8.82815 35.4266 8.5975 35.4184 8.31729C35.4099 8.0395 35.404 7.72047 35.4018 7.3649C35.3997 7.00731 35.3997 6.62165 35.3997 6.20576L35.399 0.736933ZM47.8218 4.82244C47.8218 4.48191 47.8218 4.19324 47.8218 3.95413C47.8218 3.71489 47.8218 3.51447 47.8237 3.35274C47.8237 3.19114 47.8259 3.05533 47.8281 2.94773C47.8302 2.84 47.8322 2.74946 47.8342 2.67182C47.8383 2.59632 47.8424 2.52312 47.8465 2.45635C47.855 2.32713 47.8693 2.22154 47.8899 2.13974C47.9126 2.05793 47.9497 1.99547 48.0011 1.94792C48.0527 1.90251 48.1247 1.86826 48.2177 1.84891C48.2835 1.83588 48.3371 1.82944 48.3765 1.82514C48.4176 1.82285 48.4547 1.82285 48.4898 1.82285C48.5167 1.82084 48.5392 1.80996 48.5579 1.7925C48.5784 1.77329 48.5886 1.75166 48.5886 1.73245C48.5886 1.70008 48.5742 1.6763 48.5434 1.6634C48.5124 1.64836 48.465 1.64178 48.4032 1.64178C48.3207 1.64178 48.2219 1.64406 48.1085 1.64608C47.995 1.64836 47.8817 1.65024 47.7683 1.65481C47.6548 1.65911 47.558 1.66112 47.4777 1.66327C47.3952 1.66542 47.3457 1.66757 47.3272 1.66757C47.3128 1.66757 47.2634 1.66529 47.1808 1.66327C47.0982 1.66099 46.9954 1.65911 46.8716 1.65481C46.748 1.65024 46.618 1.64823 46.4801 1.64608C46.3442 1.64393 46.2141 1.64178 46.0906 1.64178C46.0286 1.64178 45.9854 1.64836 45.9586 1.6634C45.9297 1.6763 45.9174 1.69994 45.9174 1.73245C45.9174 1.75179 45.9255 1.77342 45.9421 1.7925C45.9586 1.80996 45.9792 1.82084 46.0039 1.82285C46.0389 1.82285 46.078 1.82285 46.1256 1.82715C46.1708 1.82944 46.2184 1.83132 46.2616 1.83575C46.307 1.83991 46.346 1.84435 46.3749 1.84878C46.4925 1.86597 46.5811 1.89821 46.6408 1.94577C46.7005 1.99305 46.7419 2.05995 46.7644 2.1439C46.7872 2.22813 46.8016 2.33143 46.8078 2.45635C46.8097 2.52312 46.8138 2.59646 46.816 2.6741C46.8179 2.75389 46.82 2.84645 46.8219 2.95646C46.8242 3.06823 46.8262 3.20417 46.8284 3.3702C46.8284 3.53381 46.8305 3.73652 46.8324 3.97777C46.8324 4.21916 46.8324 4.5077 46.8324 4.84823V5.08089C46.8324 5.11111 46.8262 5.13019 46.816 5.13677C46.8056 5.14335 46.7891 5.14765 46.7706 5.14537H42.232C42.2134 5.14765 42.199 5.14322 42.1867 5.13677C42.1763 5.13019 42.17 5.11111 42.17 5.08089V4.84823C42.17 4.5077 42.17 4.21903 42.17 3.97777C42.17 3.73652 42.17 3.53368 42.17 3.3702C42.1721 3.20417 42.1721 3.06823 42.1721 2.95646C42.1742 2.84658 42.1742 2.75389 42.1763 2.6741C42.1782 2.59646 42.1803 2.52312 42.1823 2.45635C42.1886 2.32713 42.2051 2.22154 42.2277 2.13974C42.2504 2.05793 42.2874 1.99547 42.3391 1.94792C42.3926 1.90251 42.4688 1.86826 42.5658 1.84891C42.6275 1.83588 42.6793 1.82944 42.7204 1.82514C42.7636 1.82285 42.803 1.82285 42.838 1.82285C42.8584 1.82084 42.8769 1.80996 42.8956 1.7925C42.9141 1.77329 42.9225 1.75166 42.9245 1.73245C42.9245 1.70008 42.9122 1.6763 42.8853 1.6634C42.8565 1.64836 42.8131 1.64178 42.7514 1.64178C42.6647 1.64178 42.5637 1.64406 42.4484 1.64608C42.335 1.64836 42.2195 1.65024 42.1062 1.65481C41.9928 1.65911 41.898 1.66112 41.8176 1.66327C41.7374 1.66542 41.6899 1.66757 41.6754 1.66757C41.6589 1.66757 41.6073 1.66529 41.5229 1.66327C41.4403 1.66099 41.3375 1.65911 41.2137 1.65481C41.0899 1.65024 40.9601 1.64823 40.822 1.64608C40.684 1.64393 40.5521 1.64178 40.4263 1.64178C40.3643 1.64178 40.3212 1.64836 40.2943 1.6634C40.2655 1.6763 40.2532 1.69994 40.2532 1.73245C40.2551 1.75179 40.2636 1.77342 40.2819 1.7925C40.3004 1.80996 40.319 1.82084 40.3397 1.82285C40.3747 1.82285 40.4137 1.82285 40.4613 1.82715C40.5067 1.82944 40.554 1.83132 40.5973 1.83575C40.6427 1.83991 40.6818 1.84435 40.7108 1.84878C40.8283 1.86597 40.919 1.89821 40.9807 1.94577C41.0427 1.99305 41.0859 2.05995 41.1087 2.1439C41.1335 2.22813 41.1499 2.33143 41.1562 2.45635C41.1603 2.52312 41.1643 2.59646 41.1686 2.67182C41.1708 2.74946 41.1748 2.84 41.1748 2.94773C41.1768 3.05533 41.1788 3.19114 41.1788 3.35274C41.181 3.51433 41.181 3.71475 41.181 3.95413C41.181 4.19324 41.181 4.48191 41.181 4.82244V6.76175C41.181 7.11719 41.181 7.44482 41.1788 7.74868C41.1766 8.05253 41.1708 8.32186 41.1622 8.55882C41.1541 8.79389 41.1395 8.98773 41.1191 9.14074C41.1046 9.24847 41.0882 9.3433 41.0697 9.4231C41.053 9.5049 41.0264 9.56952 40.9914 9.62123C40.9564 9.67093 40.903 9.70546 40.8348 9.72252C40.7832 9.73555 40.7274 9.74831 40.6676 9.75919C40.608 9.76765 40.5525 9.77423 40.5007 9.77423C40.4699 9.77652 40.4473 9.78512 40.4349 9.80459C40.4205 9.82407 40.4141 9.84314 40.4141 9.86477C40.4141 9.89701 40.4286 9.92079 40.4595 9.93368C40.4884 9.94873 40.5316 9.95531 40.5873 9.95531C40.674 9.95531 40.775 9.95303 40.8904 9.94873C41.0058 9.94443 41.1192 9.94027 41.2345 9.93583C41.3481 9.93153 41.4448 9.92737 41.5273 9.92294C41.6077 9.91864 41.6571 9.91635 41.6757 9.91635C41.6903 9.91635 41.7397 9.91864 41.8221 9.92294C41.9047 9.92723 42.0116 9.9314 42.1418 9.93583C42.2716 9.94013 42.4116 9.9443 42.5641 9.94873C42.7169 9.95303 42.8713 9.95531 43.0238 9.95531C43.0856 9.95531 43.129 9.94685 43.1576 9.92938C43.1846 9.91219 43.1968 9.89056 43.1968 9.86491C43.1968 9.84328 43.1907 9.82407 43.1763 9.80473C43.1639 9.78525 43.1413 9.77665 43.1103 9.77437C43.0753 9.77437 43.03 9.77208 42.9743 9.76779C42.9165 9.76147 42.8567 9.75489 42.7929 9.74831C42.7291 9.73985 42.6714 9.73111 42.6157 9.72252C42.5106 9.70546 42.4302 9.67093 42.3786 9.62123C42.3249 9.56952 42.2878 9.50504 42.2673 9.4231C42.2466 9.3433 42.2301 9.24847 42.2197 9.14074C42.1952 8.91009 42.1806 8.59549 42.1766 8.19264C42.1703 7.78978 42.1684 7.32204 42.1703 6.78755V5.68873C42.1703 5.6628 42.1766 5.64561 42.187 5.63701C42.1994 5.62828 42.2138 5.62385 42.2323 5.62385H46.771C46.7895 5.62385 46.806 5.62815 46.8164 5.63701C46.8265 5.64548 46.8327 5.66267 46.8327 5.68873V6.78755C46.8349 7.3199 46.8327 7.78736 46.8265 8.18605C46.8223 8.58474 46.8081 8.89934 46.7833 9.12757C46.7729 9.23557 46.7585 9.33229 46.7402 9.41436C46.7217 9.49617 46.6926 9.56522 46.6556 9.61693C46.6165 9.6708 46.5609 9.70532 46.4866 9.72238C46.4372 9.73541 46.3835 9.74817 46.3259 9.75905C46.2703 9.76752 46.2167 9.7741 46.1651 9.7741C46.1341 9.77638 46.1136 9.78498 46.0992 9.80446C46.0847 9.82394 46.0785 9.84301 46.0785 9.86464C46.0785 9.89688 46.0911 9.92065 46.1197 9.93355C46.1466 9.94859 46.1899 9.95518 46.2517 9.95518C46.3363 9.95518 46.4352 9.95289 46.5485 9.94859C46.6638 9.9443 46.7773 9.94013 46.8928 9.9357C47.0062 9.9314 47.1031 9.92724 47.1834 9.9228C47.2659 9.9185 47.3132 9.91622 47.3276 9.91622C47.3461 9.91622 47.3956 9.9185 47.4822 9.9228C47.5666 9.9271 47.674 9.93127 47.8015 9.9357C47.9315 9.94 48.0716 9.94416 48.224 9.94859C48.3747 9.95289 48.525 9.95518 48.6755 9.95518C48.7374 9.95518 48.7849 9.94671 48.8156 9.92925C48.8466 9.91206 48.861 9.89043 48.861 9.86477C48.861 9.84314 48.8547 9.82394 48.8402 9.80459C48.8239 9.78512 48.799 9.77652 48.7621 9.77423C48.7309 9.77423 48.6878 9.77195 48.6321 9.76765C48.5743 9.76134 48.5145 9.75476 48.4507 9.74817C48.3889 9.73971 48.3313 9.73098 48.2797 9.72238C48.1705 9.70532 48.0901 9.6708 48.0366 9.6211C47.9849 9.56938 47.9477 9.5049 47.9292 9.42296C47.9086 9.34317 47.8942 9.24833 47.8838 9.1406C47.8675 8.9876 47.8552 8.79376 47.8466 8.55868C47.8365 8.32159 47.8303 8.05226 47.8284 7.74854C47.824 7.44469 47.8221 7.11719 47.8221 6.76162L47.8218 4.82244ZM51.81 6.76162C51.81 7.11706 51.81 7.44469 51.8081 7.74854C51.8059 8.0524 51.7999 8.32173 51.7914 8.55868C51.7833 8.79376 51.7686 8.9876 51.7483 9.1406C51.7339 9.24833 51.7173 9.34317 51.6989 9.42713C51.6822 9.50893 51.6554 9.57583 51.6204 9.6254C51.5854 9.67711 51.532 9.70949 51.4639 9.72238C51.4123 9.73098 51.3566 9.73971 51.2968 9.75288C51.2372 9.76577 51.1815 9.77208 51.1299 9.77423C51.0989 9.77652 51.0763 9.78512 51.0639 9.80459C51.0495 9.82407 51.0432 9.84314 51.0432 9.86477C51.0432 9.89701 51.0578 9.92079 51.0885 9.93368C51.1176 9.94873 51.1607 9.95531 51.2165 9.95531C51.3051 9.95531 51.406 9.95303 51.5175 9.94685C51.6308 9.94242 51.74 9.93597 51.8472 9.92938C51.9688 9.92307 52.0719 9.91877 52.1606 9.91877C52.2492 9.91649 52.3006 9.91649 52.3174 9.91649C52.3976 9.91649 52.5111 9.91649 52.6575 9.91877C52.8036 9.92307 52.9914 9.92938 53.22 9.94241C53.4427 9.94886 53.7127 9.95732 54.0281 9.96632C54.3434 9.97479 54.7041 9.98124 55.1122 9.98124C55.2504 9.98338 55.3597 9.97909 55.44 9.97049C55.5204 9.96189 55.5802 9.93798 55.6214 9.89715C55.6626 9.85631 55.6956 9.78941 55.7183 9.69673C55.7348 9.63655 55.7512 9.55017 55.7677 9.44472C55.7843 9.33686 55.8006 9.22483 55.8151 9.10836C55.8318 8.99217 55.842 8.89088 55.8523 8.80263C55.8627 8.71437 55.8668 8.65822 55.8668 8.63673C55.8668 8.59576 55.8627 8.55694 55.8523 8.52255C55.842 8.48789 55.8234 8.47083 55.7924 8.46855C55.7617 8.4664 55.739 8.47929 55.7226 8.50321C55.7059 8.529 55.6936 8.57225 55.6813 8.63673C55.6606 8.78127 55.6297 8.90405 55.5884 9.0009C55.5471 9.09802 55.4937 9.17956 55.4277 9.24215C55.3618 9.30475 55.2814 9.35862 55.1866 9.39945C55.0896 9.43827 54.9744 9.46407 54.8425 9.48153C54.7084 9.49859 54.5764 9.50719 54.4445 9.51148C54.3107 9.51592 54.1949 9.51592 54.0983 9.51592C53.8304 9.51807 53.614 9.50517 53.445 9.48153C53.2759 9.45762 53.146 9.41463 53.0554 9.35217C52.9625 9.28944 52.8987 9.20132 52.8617 9.08485C52.8246 8.96866 52.8037 8.81982 52.7997 8.63673C52.7977 8.58918 52.7956 8.50965 52.7956 8.39332C52.7936 8.27699 52.7936 8.14334 52.7936 7.99033C52.7956 7.83733 52.7956 7.68017 52.7956 7.52045C52.7978 7.36113 52.7978 7.21471 52.7978 7.07904C52.7999 6.94538 52.7999 6.8398 52.7999 6.76216V5.84428C52.7999 5.82279 52.8038 5.80546 52.8143 5.79028C52.8247 5.77564 52.8431 5.76664 52.8741 5.76664C52.9131 5.76664 52.9852 5.76664 53.0885 5.76906C53.1915 5.76906 53.3109 5.77107 53.4469 5.77322C53.5853 5.77564 53.7233 5.7798 53.8655 5.78397C54.0056 5.7884 54.1355 5.79257 54.251 5.79686C54.3684 5.80345 54.4572 5.80989 54.5189 5.81836C54.6571 5.83569 54.7664 5.86148 54.8427 5.89385C54.9189 5.92609 54.9747 5.96491 55.0072 6.01005C55.0425 6.0533 55.0652 6.1026 55.0753 6.15458C55.1001 6.22564 55.1145 6.29026 55.1186 6.35057C55.1247 6.40887 55.1267 6.46475 55.1247 6.51633C55.1247 6.54857 55.131 6.57463 55.1433 6.59183C55.1558 6.61131 55.1743 6.61977 55.1989 6.61977C55.2361 6.61762 55.2608 6.59398 55.2774 6.55086C55.2918 6.50774 55.2978 6.46032 55.2978 6.4129C55.2978 6.38268 55.3 6.32666 55.3059 6.2427C55.3102 6.15875 55.3164 6.06606 55.3227 5.96679C55.3308 5.86551 55.3391 5.77712 55.3472 5.70176C55.3618 5.52297 55.3802 5.38273 55.401 5.28587C55.4215 5.18875 55.4319 5.12428 55.4338 5.09405C55.4338 5.06181 55.4276 5.03804 55.4172 5.02501C55.4049 5.0101 55.3905 5.00351 55.3719 5.00351C55.3534 5.00351 55.3306 5.01842 55.3058 5.04448C55.2791 5.07256 55.2481 5.1048 55.211 5.14577C55.1576 5.20165 55.0875 5.23832 55.0011 5.25793C54.9164 5.27513 54.8093 5.29017 54.6795 5.30105C54.6258 5.30522 54.5372 5.30938 54.4095 5.31395C54.2816 5.31596 54.1354 5.32026 53.9727 5.32026C53.8095 5.32255 53.6469 5.3247 53.4882 5.3247C53.3295 5.32684 53.1932 5.32685 53.08 5.32685C52.9646 5.32685 52.8926 5.32685 52.8617 5.32685C52.8328 5.32685 52.8141 5.31596 52.808 5.29649C52.8019 5.27728 52.7978 5.24907 52.7999 5.21052V2.22383C52.7999 2.18514 52.8038 2.15465 52.8122 2.13544C52.8206 2.11596 52.837 2.1075 52.8618 2.1075C52.8886 2.1075 52.9546 2.1075 53.0556 2.10965C53.1566 2.10965 53.2759 2.1118 53.4142 2.11395C53.5543 2.1161 53.6945 2.11825 53.8346 2.12039C53.977 2.12456 54.1004 2.12698 54.2098 2.13114C54.319 2.13544 54.3934 2.13974 54.4325 2.14632C54.6283 2.17198 54.7766 2.19804 54.8818 2.22813C54.9869 2.2562 55.0612 2.29046 55.1086 2.33156C55.156 2.37253 55.1889 2.4221 55.2115 2.48241C55.2363 2.54918 55.2529 2.62024 55.261 2.69573C55.2694 2.76907 55.2735 2.82724 55.2735 2.87022C55.2735 2.91563 55.2797 2.95002 55.2941 2.97594C55.3064 2.99958 55.3291 3.01234 55.3602 3.01234C55.3848 3.01019 55.4055 2.99716 55.4241 2.97352C55.4405 2.94988 55.4527 2.92409 55.4591 2.89615C55.465 2.86149 55.4715 2.80977 55.4775 2.74315C55.4837 2.6741 55.4899 2.60304 55.4941 2.52312C55.5003 2.44574 55.5044 2.37455 55.5085 2.3098C55.5147 2.24532 55.5188 2.20005 55.5209 2.17198C55.5353 2.01898 55.5538 1.90493 55.5743 1.82514C55.5951 1.7475 55.6055 1.69161 55.6073 1.65494C55.6073 1.62673 55.6032 1.60296 55.5969 1.58375C55.5888 1.56225 55.5764 1.55137 55.5579 1.55137C55.5331 1.55366 55.5085 1.56011 55.4837 1.573C55.4591 1.5859 55.4343 1.59449 55.4097 1.60309C55.3643 1.60967 55.2982 1.62055 55.2097 1.6356C55.1211 1.64849 55.0221 1.65938 54.915 1.66784C54.8715 1.66985 54.7788 1.67214 54.6428 1.67214C54.5046 1.67214 54.3399 1.67415 54.1481 1.67415C53.9564 1.67415 53.7586 1.67214 53.5524 1.67214C53.3442 1.67214 53.1506 1.67214 52.9692 1.66972C52.7879 1.66972 52.6372 1.66972 52.5198 1.6677C52.4003 1.6677 52.3343 1.6677 52.318 1.6677C52.2993 1.6677 52.2499 1.66542 52.1652 1.6634C52.0786 1.66112 51.9757 1.65924 51.8499 1.65494C51.7241 1.65037 51.5921 1.64836 51.4539 1.64621C51.314 1.64406 51.182 1.64191 51.0563 1.64191C50.9943 1.64191 50.9512 1.64849 50.9243 1.66354C50.8954 1.67643 50.883 1.70008 50.883 1.73258C50.8851 1.75408 50.8935 1.77356 50.9119 1.79263C50.9303 1.81211 50.949 1.82097 50.9696 1.82299C51.0046 1.82299 51.0437 1.82299 51.0913 1.82729C51.1366 1.82957 51.1839 1.83145 51.2274 1.83588C51.2726 1.84005 51.3118 1.84448 51.3407 1.84891C51.4583 1.86611 51.5489 1.89835 51.6106 1.9459C51.6726 1.99318 51.7157 2.06008 51.7385 2.14404C51.7633 2.22826 51.7798 2.33156 51.7861 2.45649C51.7901 2.52325 51.7942 2.59659 51.7984 2.67195C51.8006 2.7496 51.8046 2.84013 51.8046 2.94787C51.8068 3.05546 51.8088 3.19127 51.8088 3.35287C51.8108 3.51447 51.8108 3.71489 51.8108 3.95426C51.8108 4.19337 51.8108 4.48204 51.8108 4.82257L51.81 6.76162ZM62.9281 6.2059C62.9281 6.62178 62.9281 7.00744 62.9259 7.36302C62.9239 7.72047 62.9178 8.0395 62.9095 8.31729C62.9012 8.5975 62.8867 8.82815 62.8661 9.01124C62.8516 9.13644 62.8311 9.25035 62.8063 9.34975C62.7817 9.4509 62.7467 9.53284 62.6993 9.59746C62.6539 9.66207 62.5901 9.70532 62.5075 9.72238C62.4497 9.73541 62.3881 9.74817 62.322 9.75905C62.2561 9.76752 62.1941 9.7741 62.1365 9.7741C62.0993 9.7741 62.0747 9.78256 62.0603 9.79788C62.0439 9.81292 62.0376 9.83226 62.0376 9.85161C62.0376 9.8903 62.054 9.91622 62.0849 9.9314C62.118 9.94859 62.1675 9.95518 62.2353 9.95518C62.3301 9.95289 62.4435 9.94859 62.5713 9.94215C62.6993 9.93355 62.8269 9.92912 62.9527 9.92912C63.0847 9.9228 63.1979 9.9185 63.2886 9.9185C63.3792 9.91622 63.4328 9.91622 63.4473 9.91622C63.4658 9.91622 63.5112 9.9185 63.5856 9.92052C63.6595 9.9228 63.7504 9.9271 63.8576 9.93342C63.9668 9.94 64.0803 9.94658 64.2019 9.95504C64.3234 9.95934 64.443 9.9635 64.5626 9.97009C64.68 9.9764 64.7872 9.98083 64.8799 9.98728C64.9747 9.99158 65.0449 9.99386 65.0923 9.99386C65.5147 9.99158 65.8961 9.93758 66.2321 9.83428C66.57 9.72883 66.8649 9.58456 67.1163 9.39905C67.368 9.21609 67.5779 9.00466 67.7449 8.76569C67.9121 8.52645 68.0376 8.27014 68.1202 8.00068C68.2046 7.7292 68.2459 7.45342 68.2459 7.17536C68.2437 6.87379 68.1983 6.59357 68.112 6.33929C68.0234 6.085 67.9058 5.85449 67.7575 5.64749C67.6071 5.44076 67.4401 5.2578 67.2545 5.1005C67.0691 4.94306 66.8773 4.80941 66.6816 4.69953C66.4838 4.59179 66.292 4.50784 66.1065 4.44766C66.2528 4.29036 66.3951 4.12862 66.5332 3.96474C66.6711 3.80099 66.7949 3.62865 66.9062 3.44327C67.0154 3.26032 67.1041 3.0599 67.17 2.84201C67.2339 2.62453 67.267 2.38314 67.2689 2.12026C67.2711 1.98875 67.2505 1.8379 67.207 1.66972C67.1639 1.50181 67.0896 1.33148 66.9826 1.15712C66.8773 0.984771 66.7288 0.825322 66.5434 0.676619C66.3559 0.530065 66.1188 0.411452 65.8323 0.321048C65.5457 0.23051 65.1995 0.183226 64.7956 0.180942C64.5092 0.183226 64.2515 0.189674 64.0207 0.20042C63.7899 0.211166 63.5982 0.217748 63.4477 0.219898C63.4291 0.219898 63.3756 0.217748 63.2808 0.213584C63.1878 0.209286 63.0726 0.204853 62.9344 0.20042C62.7965 0.196256 62.65 0.189808 62.4955 0.187524C62.3409 0.183226 62.1926 0.180942 62.0502 0.180942C61.9821 0.180942 61.9326 0.187524 61.8998 0.202569C61.8688 0.219763 61.8523 0.245689 61.8523 0.28451C61.8544 0.310167 61.8648 0.329645 61.8832 0.342541C61.9038 0.355705 61.9264 0.362019 61.9512 0.362019C61.9902 0.362019 62.0356 0.362019 62.0872 0.366183C62.1407 0.368601 62.1924 0.372765 62.2438 0.379347C62.2954 0.38378 62.3368 0.392243 62.3717 0.40084C62.5058 0.428915 62.6109 0.474318 62.685 0.534498C62.7613 0.592663 62.8128 0.67232 62.8459 0.77159C62.8768 0.870591 62.8972 0.991488 62.9036 1.13791C62.9076 1.2177 62.9116 1.3038 62.9159 1.39448C62.9182 1.4826 62.9222 1.59261 62.9242 1.71741C62.9242 1.84462 62.9263 2.00407 62.9263 2.19575C62.9285 2.38543 62.9285 2.62238 62.9285 2.90475C62.9285 3.18697 62.9285 3.52951 62.9285 3.93049L62.9281 6.2059ZM63.9173 0.749828C63.9173 0.711276 63.9276 0.681052 63.9503 0.659559C63.973 0.637932 64.0101 0.620738 64.0659 0.607573C64.1338 0.590513 64.2038 0.577618 64.278 0.566737C64.3522 0.558274 64.4222 0.551692 64.4883 0.547259C64.5564 0.545244 64.6119 0.542961 64.6594 0.542961C64.9624 0.545379 65.2199 0.612006 65.4323 0.739216C65.6446 0.866158 65.8156 1.03864 65.9495 1.25195C66.0815 1.4654 66.1785 1.70438 66.2383 1.96726C66.3 2.22799 66.3309 2.49517 66.329 2.76665C66.3268 3.03384 66.2856 3.27953 66.2032 3.50144C66.1228 3.72563 66.0156 3.91517 65.8836 4.07247C65.8198 4.14998 65.758 4.21043 65.6961 4.25557C65.6342 4.3007 65.5622 4.33536 65.4837 4.35698C65.4033 4.37834 65.3063 4.39352 65.189 4.4001C65.0734 4.40642 64.9292 4.40843 64.7581 4.40843C64.5313 4.40628 64.3582 4.4001 64.2366 4.38694C64.117 4.37404 64.0388 4.36545 64.0035 4.35685C63.9727 4.34597 63.95 4.32891 63.9377 4.30943C63.9233 4.28995 63.917 4.25772 63.917 4.21446L63.9173 0.749828ZM63.9173 4.84836C63.9173 4.81599 63.9236 4.79221 63.9358 4.77932C63.9484 4.76441 63.967 4.75782 63.9917 4.75782C64.0411 4.75782 64.109 4.75782 64.1979 4.75782C64.2862 4.75782 64.3812 4.75997 64.4841 4.75997C64.5852 4.76212 64.6779 4.76441 64.7645 4.76857C64.8489 4.77274 64.913 4.77717 64.9561 4.78362C65.0551 4.79423 65.156 4.81156 65.2613 4.83103C65.3663 4.85253 65.4775 4.88718 65.595 4.93648C65.7146 4.98605 65.8426 5.06168 65.9826 5.15866C66.2198 5.33074 66.4155 5.527 66.5721 5.74246C66.7287 5.95793 66.8505 6.18414 66.939 6.41693C67.0296 6.65187 67.0916 6.88252 67.1285 7.10859C67.1656 7.33695 67.1843 7.54799 67.1822 7.74424C67.1799 8.0352 67.1409 8.28492 67.0645 8.49635C66.9882 8.70524 66.8874 8.88188 66.7616 9.02212C66.6336 9.16209 66.4936 9.27198 66.3411 9.35392C66.1865 9.43572 66.0318 9.49402 65.8752 9.53043C65.7207 9.56508 65.5743 9.58013 65.4382 9.58013C65.362 9.58013 65.259 9.57583 65.1313 9.5671C65.0033 9.5585 64.8714 9.53916 64.7313 9.51095C64.5911 9.48301 64.4656 9.44204 64.3499 9.38602C64.2244 9.32356 64.1336 9.25465 64.078 9.17902C64.0222 9.10366 63.9872 9.00264 63.9708 8.87758C63.9522 8.75239 63.9396 8.58662 63.9295 8.37774C63.9272 8.3365 63.9254 8.2461 63.9233 8.10814C63.9213 7.97032 63.9213 7.79999 63.9191 7.59742C63.9191 7.39499 63.9191 7.17737 63.917 6.94243C63.917 6.70762 63.917 6.47268 63.917 6.23787C63.917 6.00521 63.917 5.7876 63.917 5.58516L63.9173 4.84836Z" fill="white"/>
<path d="M72.3333 4.71855C72.3333 4.37802 72.3333 4.08935 72.3333 3.85024C72.3333 3.611 72.3333 3.41058 72.3333 3.24885C72.3355 3.08725 72.3355 2.95144 72.3355 2.84384C72.3376 2.73611 72.3376 2.64557 72.3396 2.56793C72.3416 2.49244 72.3437 2.41923 72.3457 2.35247C72.352 2.22324 72.3684 2.11766 72.391 2.0337C72.4137 1.94948 72.455 1.88285 72.5106 1.83543C72.5664 1.78801 72.6489 1.75349 72.7537 1.73186C72.8178 1.72542 72.8837 1.71883 72.9519 1.71453C73.0198 1.70795 73.0735 1.70607 73.1125 1.70607C73.1333 1.70379 73.1517 1.69761 73.1705 1.6823C73.1889 1.66497 73.1972 1.64777 73.199 1.62856C73.199 1.59619 73.1846 1.57241 73.1538 1.55952C73.1251 1.54447 73.0816 1.53789 73.0259 1.53789C72.9394 1.53789 72.8322 1.54017 72.7043 1.54219C72.5767 1.54447 72.449 1.54635 72.3188 1.55092C72.1913 1.55522 72.0799 1.55723 71.9873 1.55938C71.8965 1.56153 71.8428 1.56368 71.8264 1.56368C71.8099 1.56368 71.7583 1.5614 71.6759 1.55938C71.5956 1.5571 71.4925 1.55522 71.3707 1.55092C71.2492 1.54635 71.1194 1.54434 70.9834 1.54219C70.8473 1.54004 70.7155 1.53789 70.5897 1.53789C70.5277 1.53789 70.4846 1.54447 70.4577 1.55952C70.4289 1.57241 70.4165 1.59606 70.4165 1.62856C70.4185 1.64791 70.4269 1.66953 70.4452 1.68861C70.4637 1.70607 70.4824 1.71695 70.5031 1.71897C70.5381 1.71897 70.5771 1.71897 70.6247 1.72327C70.6701 1.72555 70.7174 1.72743 70.7606 1.73186C70.806 1.73603 70.8451 1.74046 70.8742 1.74489C70.9916 1.76209 71.0823 1.79433 71.1441 1.84188C71.2061 1.88916 71.2493 1.95606 71.2721 2.04002C71.2969 2.12424 71.3132 2.22754 71.3196 2.35247C71.3236 2.41923 71.3276 2.49257 71.332 2.56793C71.3342 2.64557 71.3382 2.73611 71.3382 2.84384C71.3401 2.95144 71.3423 3.08725 71.3423 3.24885C71.3443 3.41045 71.3444 3.61087 71.3444 3.85024C71.3444 4.08935 71.3444 4.37802 71.3444 4.71855V6.65787C71.3444 7.01331 71.3443 7.34094 71.3423 7.64479C71.34 7.94864 71.3342 8.21797 71.3256 8.45493C71.3175 8.69001 71.3028 8.88385 71.2825 9.03685C71.268 9.14458 71.2516 9.23942 71.2331 9.31921C71.2164 9.40101 71.1897 9.46563 71.1547 9.51735C71.1197 9.56705 71.0664 9.60157 70.9982 9.61863C70.9466 9.63166 70.8908 9.64442 70.831 9.6553C70.7714 9.66376 70.7158 9.67035 70.664 9.67035C70.6333 9.67263 70.6106 9.68123 70.5983 9.7007C70.5839 9.72018 70.5774 9.73926 70.5774 9.76088C70.5774 9.79312 70.592 9.8169 70.6228 9.8298C70.6518 9.84484 70.695 9.85142 70.7507 9.85142C70.8395 9.85142 70.9384 9.84914 71.0476 9.84296C71.1568 9.83853 71.268 9.83208 71.3815 9.8255C71.4888 9.81918 71.5835 9.81489 71.6639 9.81489C71.7465 9.8126 71.7999 9.8126 71.8267 9.8126C71.9856 9.8126 72.1627 9.81488 72.3544 9.82106C72.5481 9.82536 72.7686 9.83195 73.0139 9.83839C73.2654 9.85142 73.5476 9.85989 73.857 9.86647C74.1682 9.87278 74.5184 9.87721 74.906 9.87721C75.0502 9.87721 75.1637 9.87507 75.2482 9.86647C75.3348 9.85989 75.3986 9.84484 75.4422 9.82536C75.4873 9.804 75.5202 9.77365 75.5409 9.73482C75.5614 9.69627 75.5821 9.64429 75.5986 9.57981C75.6213 9.49572 75.6419 9.3986 75.6607 9.28872C75.6791 9.17695 75.6976 9.06492 75.712 8.95262C75.7264 8.84073 75.7388 8.74173 75.7473 8.65535C75.7554 8.5714 75.7596 8.5131 75.7596 8.48086C75.7596 8.42256 75.7533 8.37957 75.741 8.35378C75.7286 8.32584 75.7102 8.31268 75.6854 8.31268C75.6544 8.31496 75.6296 8.32772 75.6113 8.3558C75.5928 8.38159 75.5802 8.41624 75.5741 8.4548C75.5556 8.5671 75.5246 8.67698 75.4813 8.78458C75.438 8.89231 75.3825 8.98929 75.3143 9.07527C75.2277 9.18098 75.1164 9.25863 74.9846 9.30618C74.8526 9.35346 74.7042 9.38355 74.5393 9.39672C74.3723 9.40961 74.1929 9.41378 74.0032 9.41163C73.7208 9.41163 73.4818 9.40303 73.2882 9.3857C73.0942 9.36636 72.9376 9.33828 72.8181 9.2996C72.7006 9.26292 72.6121 9.21322 72.5564 9.15291C72.4905 9.09045 72.4429 8.96995 72.41 8.78659C72.379 8.6035 72.3585 8.34062 72.3482 7.99808C72.3378 7.65742 72.3337 7.22017 72.3337 6.68353L72.3333 4.71855ZM77.744 6.33481C77.744 6.73336 77.7688 7.0845 77.8182 7.38849C77.8676 7.69234 77.9336 7.95724 78.0202 8.18372C78.1067 8.40993 78.2077 8.60793 78.3231 8.7741C78.4386 8.94228 78.5625 9.09071 78.6963 9.21779C78.89 9.4033 79.1002 9.54972 79.323 9.65544C79.5455 9.76102 79.7659 9.83853 79.9804 9.88608C80.1968 9.93551 80.3905 9.96587 80.5617 9.97863C80.735 9.98938 80.8667 9.99569 80.9595 9.99368C81.1758 9.99569 81.4088 9.98078 81.6602 9.94398C81.9097 9.90757 82.1693 9.83208 82.4374 9.71562C82.7033 9.60157 82.9691 9.42694 83.2349 9.19213C83.4493 8.99601 83.6245 8.77208 83.7586 8.51766C83.8925 8.26351 83.9957 7.99002 84.0678 7.69906C84.1378 7.4081 84.1872 7.10854 84.212 6.80254C84.2388 6.4964 84.2511 6.19497 84.2492 5.89528V4.71882C84.2492 4.37829 84.2492 4.08962 84.2492 3.85051C84.247 3.61127 84.247 3.41085 84.247 3.24912C84.2451 3.08752 84.247 2.95171 84.247 2.84411C84.247 2.73638 84.2492 2.64584 84.2511 2.5682C84.2533 2.49271 84.2574 2.4195 84.2614 2.35274C84.2678 2.23224 84.2842 2.13082 84.3068 2.04915C84.3296 1.96493 84.3666 1.90031 84.418 1.85048C84.4717 1.80118 84.548 1.76652 84.6448 1.74516C84.7107 1.73213 84.7644 1.72568 84.8035 1.72139C84.8448 1.7191 84.8818 1.7191 84.9169 1.7191C84.9416 1.71709 84.9622 1.70621 84.9789 1.68874C84.9954 1.66953 85.0036 1.64791 85.0036 1.6287C85.0036 1.59632 84.9912 1.57255 84.9644 1.55965C84.9356 1.54461 84.8922 1.53803 84.8304 1.53803C84.7482 1.53803 84.6594 1.54031 84.5627 1.54232C84.4657 1.54461 84.3709 1.54649 84.2803 1.55106C84.1895 1.55535 84.1113 1.55737 84.0453 1.55952C83.9793 1.56167 83.9361 1.56382 83.9154 1.56382C83.8989 1.56382 83.8514 1.56153 83.7733 1.55952C83.6968 1.55723 83.6 1.55535 83.4868 1.55106C83.3714 1.54649 83.2497 1.54447 83.12 1.54232C82.99 1.54017 82.8643 1.53803 82.7405 1.53803C82.6787 1.53803 82.6356 1.54461 82.6087 1.55965C82.5799 1.57255 82.5675 1.59619 82.5675 1.6287C82.5675 1.64804 82.5758 1.66967 82.5921 1.68874C82.6087 1.70621 82.6293 1.71709 82.6539 1.7191C82.6891 1.7191 82.7281 1.7191 82.7757 1.7234C82.8211 1.72568 82.8684 1.72756 82.9118 1.732C82.957 1.73616 82.9961 1.74059 83.0252 1.74503C83.1426 1.76222 83.2333 1.79674 83.2951 1.84846C83.3549 1.89789 83.3982 1.96694 83.4209 2.0509C83.4435 2.13499 83.456 2.23641 83.4581 2.3526C83.4602 2.41936 83.4642 2.49271 83.4662 2.56807C83.4684 2.64571 83.4703 2.73625 83.4725 2.84398C83.4746 2.95158 83.4765 3.08738 83.4786 3.24898C83.4786 3.41058 83.4807 3.611 83.4807 3.85038C83.483 4.08948 83.483 4.37816 83.483 4.71868V6.10215C83.4849 6.47706 83.4685 6.82806 83.4354 7.1514C83.4024 7.47701 83.3406 7.77428 83.2499 8.04361C83.1614 8.31294 83.0314 8.55434 82.8644 8.7655C82.7387 8.92052 82.5884 9.05861 82.413 9.17266C82.2358 9.28885 82.0419 9.37952 81.8337 9.44413C81.6237 9.50861 81.4071 9.54112 81.1825 9.54112C80.9784 9.5434 80.7848 9.52809 80.6053 9.50028C80.4261 9.46993 80.2507 9.4119 80.0819 9.32566C79.9106 9.23942 79.7377 9.11234 79.5623 8.94644C79.4449 8.83858 79.3357 8.7115 79.2389 8.56495C79.1399 8.41853 79.0553 8.24175 78.9832 8.0326C78.9131 7.82587 78.8575 7.57615 78.8183 7.2872C78.7793 6.99625 78.7585 6.65357 78.7585 6.25716V4.71855C78.7585 4.37802 78.7585 4.08935 78.7585 3.85024C78.7585 3.611 78.7585 3.41058 78.7607 3.24885C78.7607 3.08725 78.7629 2.95144 78.7648 2.84384C78.7648 2.73611 78.7689 2.64557 78.7711 2.56793C78.7751 2.49244 78.7793 2.41923 78.7834 2.35247C78.7896 2.23197 78.8062 2.1284 78.8267 2.04431C78.8493 1.96022 78.8864 1.89346 78.9381 1.84403C78.9875 1.79446 79.0617 1.76222 79.1544 1.74503C79.2204 1.732 79.2739 1.72555 79.3132 1.72125C79.3543 1.71897 79.3914 1.71897 79.4265 1.71897C79.4534 1.71695 79.4759 1.70607 79.4945 1.68861C79.5152 1.6694 79.5254 1.64777 79.5254 1.62856C79.5254 1.59619 79.5111 1.57241 79.4801 1.55952C79.4491 1.54447 79.4019 1.53789 79.3399 1.53789C79.2573 1.53789 79.1585 1.54017 79.0474 1.54219C78.9339 1.54447 78.8206 1.54635 78.7073 1.55092C78.5917 1.55522 78.4929 1.55723 78.4083 1.55938C78.3218 1.56153 78.266 1.56368 78.2393 1.56368C78.2127 1.56368 78.1567 1.5614 78.0723 1.55938C77.9877 1.5571 77.8848 1.55522 77.7631 1.55092C77.6415 1.54635 77.5137 1.54434 77.3797 1.54219C77.2459 1.54004 77.1159 1.53789 76.9901 1.53789C76.9284 1.53789 76.8852 1.54447 76.8582 1.55952C76.8293 1.57241 76.817 1.59606 76.817 1.62856C76.8191 1.64791 76.8272 1.66953 76.8458 1.68861C76.8642 1.70607 76.883 1.71695 76.9034 1.71897C76.9386 1.71897 76.9778 1.71897 77.0253 1.72327C77.0705 1.72555 77.1179 1.72743 77.1613 1.73186C77.2066 1.73603 77.2457 1.74046 77.2747 1.74489C77.3922 1.76209 77.4829 1.79661 77.5446 1.84833C77.6064 1.89776 77.6497 1.96681 77.6724 2.05076C77.697 2.13485 77.7137 2.23627 77.7198 2.35247C77.724 2.41923 77.7282 2.49257 77.7324 2.56793C77.7343 2.64557 77.7385 2.73611 77.7385 2.84384C77.7407 2.95144 77.7425 3.08725 77.7425 3.24885C77.7447 3.41045 77.7447 3.61087 77.7447 3.85024C77.7447 4.08935 77.7447 4.37802 77.7447 4.71855L77.744 6.33481ZM87.7549 6.65787C87.7549 7.01331 87.7549 7.34094 87.753 7.64479C87.7508 7.94864 87.7447 8.21797 87.7364 8.45493C87.7282 8.69001 87.7136 8.88385 87.6932 9.03685C87.6788 9.14458 87.6623 9.23942 87.6438 9.32337C87.6272 9.40518 87.6004 9.47208 87.5654 9.52164C87.5306 9.57336 87.4769 9.60573 87.4089 9.61863C87.3572 9.62723 87.3016 9.63596 87.2418 9.64912C87.1822 9.66202 87.1264 9.66833 87.0748 9.67048C87.0438 9.67276 87.0213 9.68136 87.0089 9.70084C86.9944 9.72032 86.9882 9.73939 86.9882 9.76102C86.9882 9.79326 87.0026 9.81703 87.0335 9.82993C87.0625 9.84498 87.1058 9.85156 87.1614 9.85156C87.25 9.85156 87.351 9.84927 87.4624 9.84309C87.5758 9.83866 87.6849 9.83221 87.7921 9.82563C87.9136 9.81932 88.0169 9.81502 88.1054 9.81502C88.1942 9.81274 88.2456 9.81274 88.2622 9.81274C88.3426 9.81274 88.456 9.81274 88.6023 9.81502C88.7486 9.81932 88.9363 9.82563 89.1649 9.83866C89.3874 9.84511 89.6577 9.85357 89.973 9.86257C90.2884 9.87104 90.6491 9.87748 91.057 9.87748C91.1954 9.87963 91.3046 9.87533 91.385 9.86674C91.4651 9.85814 91.5249 9.83423 91.5661 9.79339C91.6075 9.75256 91.6406 9.68566 91.6631 9.59297C91.6797 9.53279 91.6959 9.44642 91.7127 9.34097C91.7291 9.2331 91.7454 9.12107 91.7601 9.00461C91.7767 8.88841 91.7868 8.78713 91.7973 8.69887C91.8074 8.61062 91.8117 8.55447 91.8117 8.53298C91.8117 8.49201 91.8074 8.45319 91.7973 8.4188C91.7868 8.38414 91.7682 8.36708 91.7374 8.3648C91.7064 8.36265 91.6838 8.37554 91.6675 8.39945C91.6509 8.42524 91.6384 8.4685 91.626 8.53298C91.6055 8.67752 91.5745 8.80029 91.5333 8.89714C91.4919 8.99426 91.4385 9.0758 91.3725 9.1384C91.3065 9.201 91.2261 9.25486 91.1313 9.2957C91.0346 9.33452 90.9192 9.36031 90.7872 9.37778C90.6532 9.39484 90.5212 9.40343 90.3892 9.40773C90.2554 9.41216 90.1399 9.41216 90.0431 9.41216C89.7751 9.41431 89.5587 9.40142 89.3897 9.37778C89.2208 9.35387 89.091 9.31088 89.0002 9.24842C88.9073 9.18568 88.8434 9.09756 88.8065 8.9811C88.7693 8.8649 88.7486 8.71607 88.7445 8.53298C88.7426 8.48542 88.7405 8.4059 88.7405 8.28957C88.7384 8.17324 88.7384 8.03958 88.7384 7.88658C88.7405 7.73358 88.7405 7.57642 88.7405 7.4167C88.7427 7.25738 88.7427 7.11096 88.7427 6.97529C88.7446 6.84163 88.7446 6.73605 88.7446 6.65841V5.73999C88.7446 5.7185 88.7487 5.70117 88.759 5.68599C88.7694 5.67135 88.788 5.66235 88.8188 5.66235C88.8579 5.66235 88.9301 5.66235 89.0333 5.66477C89.1364 5.66477 89.2556 5.66678 89.3918 5.66893C89.5299 5.67135 89.668 5.67552 89.8101 5.67968C89.9503 5.68411 90.0804 5.68828 90.1956 5.69257C90.3132 5.69916 90.4018 5.70561 90.4636 5.71407C90.602 5.7314 90.7112 5.75719 90.7873 5.78956C90.8635 5.8218 90.9193 5.86062 90.9521 5.90576C90.9874 5.94901 91.0099 5.99831 91.02 6.0503C91.0449 6.12136 91.0595 6.18597 91.0635 6.24628C91.0694 6.30458 91.0717 6.36046 91.0694 6.41205C91.0694 6.44428 91.0759 6.47034 91.0881 6.48754C91.1007 6.50702 91.1191 6.51548 91.1439 6.51548C91.1811 6.51333 91.2057 6.48969 91.2221 6.44657C91.2365 6.40345 91.2427 6.35603 91.2427 6.30861C91.2427 6.27839 91.2449 6.22237 91.2507 6.13842C91.2552 6.05446 91.2611 5.96177 91.2675 5.8625C91.2755 5.76122 91.2839 5.67283 91.2921 5.59747C91.3065 5.41868 91.3252 5.27844 91.3457 5.18158C91.3663 5.08446 91.3767 5.01999 91.3786 4.98976C91.3786 4.95752 91.3724 4.93375 91.3622 4.92072C91.3496 4.90581 91.3352 4.89922 91.3168 4.89922C91.2982 4.89922 91.2754 4.91413 91.2506 4.94019C91.2238 4.96827 91.1931 5.00051 91.156 5.04148C91.1024 5.09736 91.0324 5.13403 90.9458 5.15364C90.8612 5.17084 90.754 5.18588 90.6245 5.19676C90.5706 5.20093 90.4821 5.20509 90.3542 5.20966C90.2265 5.21167 90.0804 5.21597 89.9175 5.21597C89.7545 5.21826 89.5917 5.22041 89.4329 5.22041C89.2742 5.22256 89.1382 5.22256 89.0248 5.22256C88.9096 5.22256 88.8375 5.22256 88.8065 5.22256C88.7777 5.22256 88.7589 5.21168 88.7528 5.1922C88.7467 5.17299 88.7427 5.14478 88.7446 5.10623V2.12008C88.7446 2.08139 88.7487 2.0509 88.757 2.03169C88.7654 2.01221 88.7818 2.00375 88.8066 2.00375C88.8334 2.00375 88.8993 2.00375 89.0003 2.0059C89.1013 2.0059 89.2209 2.00805 89.3591 2.01019C89.499 2.01234 89.6393 2.01449 89.7796 2.01664C89.9217 2.02081 90.0454 2.02322 90.1547 2.02739C90.2639 2.03169 90.3382 2.03599 90.3772 2.04257C90.573 2.06822 90.7216 2.09428 90.8266 2.12437C90.9318 2.15245 91.006 2.1867 91.0533 2.22781C91.1009 2.26878 91.1337 2.31835 91.1565 2.37866C91.1813 2.44542 91.1977 2.51648 91.2059 2.59198C91.2141 2.66532 91.2185 2.72349 91.2185 2.76647C91.2185 2.81187 91.2244 2.84626 91.2388 2.87219C91.2512 2.89583 91.2738 2.90859 91.3051 2.90859C91.3296 2.90644 91.3502 2.89341 91.3689 2.86977C91.3855 2.84613 91.3974 2.82034 91.4039 2.7924C91.41 2.75774 91.4162 2.70602 91.4225 2.63939C91.4284 2.57035 91.4346 2.49929 91.4389 2.41936C91.445 2.34199 91.4493 2.27079 91.4533 2.20605C91.4597 2.14157 91.4637 2.0963 91.4656 2.06822C91.48 1.91522 91.4987 1.80118 91.5193 1.72139C91.5398 1.64374 91.5502 1.58786 91.5521 1.55119C91.5521 1.52298 91.5481 1.4992 91.5417 1.48C91.5337 1.4585 91.5213 1.44762 91.5027 1.44762C91.4778 1.44991 91.4533 1.45635 91.4284 1.46925C91.4039 1.48214 91.379 1.49074 91.3545 1.49934C91.3091 1.50592 91.2431 1.5168 91.1544 1.53185C91.0658 1.54474 90.9669 1.55562 90.8597 1.56409C90.8163 1.5661 90.7238 1.56838 90.5875 1.56838C90.4494 1.56838 90.2846 1.5704 90.0931 1.5704C89.9013 1.5704 89.7033 1.56838 89.4971 1.56838C89.289 1.56838 89.0954 1.56838 88.914 1.56597C88.7326 1.56597 88.5821 1.56597 88.4647 1.56395C88.345 1.56395 88.2792 1.56395 88.2627 1.56395C88.2442 1.56395 88.1947 1.56167 88.11 1.55965C88.0235 1.55737 87.9205 1.55549 87.7947 1.55119C87.6688 1.54662 87.5368 1.54461 87.3989 1.54246C87.2587 1.54031 87.1267 1.53816 87.0012 1.53816C86.9392 1.53816 86.896 1.54474 86.8692 1.55979C86.8403 1.57268 86.8279 1.59632 86.8279 1.62883C86.83 1.65033 86.8382 1.6698 86.8566 1.68888C86.8751 1.70836 86.8938 1.71722 86.9146 1.71924C86.9495 1.71924 86.9886 1.71924 87.0362 1.72353C87.0815 1.72582 87.1288 1.7277 87.1722 1.73213C87.2176 1.7363 87.2565 1.74073 87.2856 1.74516C87.4031 1.76236 87.4939 1.7946 87.5555 1.84215C87.6175 1.88943 87.6606 1.95633 87.6832 2.04028C87.708 2.12451 87.7246 2.22781 87.7308 2.35274C87.7349 2.4195 87.739 2.49284 87.7432 2.5682C87.7453 2.64584 87.7496 2.73638 87.7496 2.84411C87.7515 2.95171 87.7536 3.08752 87.7536 3.24912C87.7555 3.41072 87.7555 3.61114 87.7555 3.85051C87.7555 4.08962 87.7555 4.37829 87.7555 4.71882L87.7549 6.65787ZM98.8732 6.10201C98.8732 6.5179 98.8732 6.90356 98.871 7.26114C98.8691 7.61658 98.8628 7.93561 98.8545 8.21354C98.8465 8.49375 98.8319 8.7244 98.8112 8.90749C98.7968 9.03268 98.7762 9.14659 98.7514 9.24801C98.7268 9.34701 98.6918 9.43097 98.6443 9.49357C98.5989 9.55818 98.5351 9.60144 98.4525 9.61849C98.3947 9.63152 98.3331 9.64429 98.2671 9.65517C98.2011 9.66363 98.1391 9.67021 98.0815 9.67021C98.0443 9.67021 98.0197 9.67867 98.0053 9.69399C97.989 9.70903 97.9826 9.72838 97.9826 9.74772C97.9826 9.78641 97.9992 9.81233 98.0299 9.82751C98.063 9.84471 98.1125 9.85129 98.1805 9.85129C98.2775 9.85129 98.3887 9.84901 98.5163 9.84471C98.6463 9.84041 98.7721 9.83624 98.8959 9.83181C99.0214 9.82751 99.1246 9.82335 99.2092 9.81891C99.2916 9.81462 99.3367 9.81233 99.343 9.81233C99.3614 9.81233 99.4172 9.81462 99.512 9.81891C99.6048 9.82321 99.7263 9.82738 99.8727 9.83181C100.017 9.83611 100.176 9.84027 100.349 9.84471C100.52 9.84901 100.693 9.85129 100.864 9.85129C100.932 9.85129 100.982 9.84283 101.015 9.82335C101.046 9.80589 101.062 9.78023 101.062 9.74785C101.062 9.72838 101.056 9.70917 101.041 9.69412C101.025 9.67894 101 9.67035 100.963 9.67035C100.924 9.67035 100.872 9.66806 100.809 9.66376C100.743 9.65745 100.675 9.65087 100.602 9.64429C100.532 9.63582 100.466 9.62709 100.407 9.61849C100.285 9.60144 100.19 9.55832 100.124 9.49357C100.058 9.43097 100.013 9.34701 99.9842 9.24801C99.9552 9.14659 99.9348 9.03255 99.9244 8.90749C99.9036 8.7244 99.8894 8.49375 99.881 8.21354C99.873 7.93575 99.8668 7.61671 99.8646 7.26114C99.8624 6.90356 99.8624 6.5179 99.8624 6.10201V5.79158C99.8624 5.75934 99.8686 5.73328 99.883 5.71608C99.8956 5.69674 99.918 5.68814 99.949 5.68814L101.47 5.7138C101.507 5.7138 101.536 5.72038 101.561 5.73328C101.584 5.74644 101.608 5.76578 101.631 5.79158C101.695 5.87795 101.775 5.98985 101.872 6.13197C101.971 6.27422 102.082 6.43139 102.204 6.6083C102.326 6.7828 102.451 6.96589 102.585 7.15354C102.717 7.34093 102.849 7.52618 102.979 7.70524C103.212 8.02817 103.422 8.31483 103.607 8.56266C103.793 8.81037 103.97 9.02167 104.135 9.1963C104.302 9.37079 104.473 9.50673 104.648 9.6056C104.753 9.66591 104.865 9.71347 104.98 9.74987C105.098 9.78641 105.234 9.81247 105.392 9.82751C105.551 9.84269 105.743 9.85129 105.971 9.85129H106.85C106.959 9.85129 107.037 9.84471 107.082 9.82751C107.126 9.81247 107.149 9.78641 107.146 9.74772C107.146 9.72824 107.134 9.70903 107.113 9.69399C107.093 9.67881 107.066 9.67021 107.035 9.67021C106.998 9.67021 106.936 9.67021 106.854 9.66591C106.771 9.66175 106.67 9.65087 106.553 9.63139C106.45 9.61836 106.322 9.58397 106.174 9.53024C106.023 9.47826 105.854 9.38799 105.662 9.25876C105.473 9.1294 105.267 8.94403 105.044 8.70075C104.687 8.29777 104.296 7.81499 103.869 7.25456C103.445 6.69468 102.979 6.07179 102.472 5.39101C102.841 5.03315 103.135 4.68846 103.354 4.35237C103.574 4.01627 103.731 3.68878 103.828 3.36545C103.923 3.04225 103.97 2.72335 103.968 2.40459C103.966 2.18026 103.937 1.97567 103.877 1.786C103.82 1.59646 103.748 1.42828 103.657 1.27756C103.568 1.12899 103.476 0.999632 103.379 0.894049C103.282 0.786316 103.195 0.704375 103.115 0.646076C102.894 0.484746 102.659 0.3617 102.41 0.280028C102.161 0.197952 101.903 0.142071 101.639 0.116011C101.375 0.0879361 101.113 0.0750405 100.852 0.0771898C100.773 0.0771898 100.678 0.0794734 100.565 0.0816226C100.454 0.0837719 100.336 0.0859212 100.213 0.0902198C100.087 0.094384 99.9696 0.0986825 99.854 0.103115C99.7406 0.105399 99.6418 0.109698 99.5593 0.111713C99.4767 0.113727 99.4211 0.115877 99.3923 0.115877C99.3736 0.115877 99.3201 0.113727 99.2253 0.109563C99.1323 0.105265 99.0172 0.100832 98.8789 0.0963989C98.741 0.0922347 98.5946 0.0857869 98.44 0.0835033C98.2854 0.0792047 98.1371 0.0769211 97.9947 0.0769211C97.9268 0.0769211 97.8774 0.0835033 97.8443 0.0985482C97.8133 0.115742 97.797 0.141668 97.797 0.180489C97.7989 0.206146 97.8093 0.225624 97.8279 0.23852C97.8483 0.251684 97.8709 0.257998 97.8959 0.257998C97.9349 0.257998 97.9803 0.257998 98.0319 0.262162C98.0855 0.26458 98.1371 0.268744 98.1884 0.275326C98.2402 0.279759 98.2814 0.288222 98.3164 0.296819C98.4504 0.324894 98.5558 0.370297 98.6297 0.430477C98.7059 0.488642 98.7575 0.568299 98.7905 0.667569C98.8215 0.76657 98.8419 0.887467 98.8483 1.03389C98.8523 1.11368 98.8565 1.19978 98.8606 1.29046C98.8628 1.37858 98.8668 1.48859 98.8691 1.61338C98.8691 1.74059 98.871 1.90004 98.871 2.09173C98.8732 2.28141 98.8732 2.51836 98.8732 2.80072C98.8732 3.08295 98.8732 3.42549 98.8732 3.82647V6.10201ZM99.8623 0.723584C99.8623 0.684763 99.8706 0.652524 99.8893 0.626733C99.9057 0.600807 99.9305 0.581329 99.9615 0.568434C100.005 0.555538 100.066 0.542508 100.149 0.529612C100.231 0.518866 100.328 0.510134 100.438 0.501537C100.549 0.495089 100.666 0.490791 100.79 0.490791C101.233 0.493209 101.615 0.596508 101.934 0.801227C102.251 1.00796 102.497 1.30335 102.67 1.68686C102.841 2.07266 102.927 2.53583 102.929 3.07677C102.929 3.40427 102.895 3.69939 102.831 3.96012C102.765 4.22072 102.676 4.44492 102.563 4.63258C102.451 4.81782 102.321 4.96451 102.175 5.06781C102.031 5.16882 101.878 5.23572 101.716 5.26823C101.555 5.30047 101.398 5.31551 101.248 5.31336C101.064 5.31336 100.885 5.30477 100.71 5.28529C100.536 5.26823 100.382 5.2423 100.248 5.21194C100.112 5.1797 100.013 5.14518 99.9491 5.10663C99.9181 5.08715 99.8957 5.06351 99.8831 5.03745C99.8687 5.01166 99.8626 4.98385 99.8626 4.95121L99.8623 0.723584ZM109.305 4.71855C109.305 4.37802 109.305 4.08935 109.305 3.85024C109.305 3.611 109.305 3.41058 109.305 3.24885C109.307 3.08725 109.307 2.95144 109.307 2.84384C109.309 2.73611 109.309 2.64557 109.311 2.56793C109.313 2.49244 109.315 2.41923 109.317 2.35247C109.323 2.22324 109.34 2.11766 109.362 2.03585C109.383 1.95404 109.422 1.89158 109.474 1.84403C109.527 1.79863 109.604 1.76437 109.701 1.74503C109.76 1.732 109.812 1.72555 109.855 1.72125C109.896 1.71897 109.935 1.71897 109.973 1.71897C109.993 1.71695 110.012 1.70607 110.03 1.68861C110.049 1.6694 110.057 1.64777 110.059 1.62856C110.059 1.59619 110.047 1.57241 110.018 1.55952C109.991 1.54447 109.948 1.53789 109.886 1.53789C109.799 1.53789 109.698 1.54017 109.583 1.54219C109.465 1.54447 109.35 1.54635 109.235 1.55092C109.121 1.55522 109.022 1.55723 108.942 1.55938C108.862 1.56153 108.812 1.56368 108.798 1.56368C108.779 1.56368 108.732 1.5614 108.649 1.55938C108.569 1.5571 108.472 1.55522 108.359 1.55092C108.245 1.54635 108.13 1.54434 108.012 1.54219C107.895 1.54004 107.79 1.53789 107.697 1.53789C107.635 1.53789 107.592 1.54447 107.565 1.55952C107.536 1.57241 107.524 1.59606 107.524 1.62856C107.524 1.64791 107.532 1.66953 107.549 1.68861C107.565 1.70607 107.586 1.71695 107.611 1.71897C107.65 1.71897 107.699 1.72125 107.759 1.72743C107.819 1.73401 107.88 1.74489 107.944 1.75779C108.06 1.78157 108.144 1.83973 108.196 1.93443C108.249 2.02699 108.28 2.16709 108.291 2.35233C108.295 2.41909 108.299 2.49244 108.303 2.5678C108.305 2.64544 108.309 2.73598 108.309 2.84371C108.311 2.95131 108.313 3.08712 108.313 3.24871C108.315 3.41031 108.315 3.61073 108.315 3.85011C108.315 4.08922 108.315 4.37789 108.315 4.71842V6.65773C108.315 7.01317 108.313 7.3408 108.311 7.64465C108.307 7.94851 108.301 8.21784 108.293 8.4548C108.283 8.68987 108.27 8.88371 108.254 9.03671C108.243 9.14445 108.229 9.23928 108.21 9.31907C108.192 9.40088 108.165 9.46549 108.128 9.51721C108.091 9.56691 108.039 9.60144 107.969 9.61849C107.918 9.63152 107.862 9.64429 107.802 9.65517C107.743 9.66363 107.687 9.67021 107.635 9.67021C107.604 9.6725 107.582 9.68109 107.569 9.70057C107.555 9.72005 107.549 9.73912 107.549 9.76075C107.549 9.79299 107.563 9.81677 107.594 9.82966C107.623 9.84471 107.666 9.85129 107.722 9.85129C107.808 9.85129 107.907 9.84901 108.023 9.84471C108.136 9.84041 108.25 9.83624 108.363 9.83181C108.474 9.82751 108.571 9.82335 108.651 9.81891C108.732 9.81448 108.779 9.81233 108.798 9.81233C108.812 9.81233 108.862 9.81462 108.946 9.81891C109.031 9.82321 109.138 9.82738 109.27 9.83181C109.4 9.83611 109.544 9.84027 109.696 9.84471C109.851 9.84901 110.006 9.85129 110.158 9.85129C110.22 9.85129 110.263 9.84283 110.29 9.82536C110.319 9.80817 110.331 9.78654 110.331 9.76088C110.331 9.73926 110.325 9.72005 110.311 9.7007C110.298 9.68123 110.276 9.67263 110.245 9.67035C110.21 9.67035 110.164 9.66806 110.109 9.66376C110.051 9.65745 109.991 9.65087 109.927 9.64429C109.863 9.63582 109.806 9.62709 109.75 9.61849C109.645 9.60144 109.565 9.56691 109.513 9.51721C109.46 9.46549 109.422 9.40101 109.402 9.31907C109.381 9.23928 109.365 9.14445 109.354 9.03671C109.338 8.88371 109.325 8.68987 109.319 8.4548C109.313 8.2177 109.309 7.94837 109.307 7.64465C109.305 7.3408 109.305 7.01331 109.305 6.65773V4.71855Z" fill="white"/>
<path d="M118.046 6.86086C117.968 6.64983 117.863 6.45585 117.729 6.28338C117.597 6.10888 117.448 5.95588 117.281 5.82222C117.116 5.68641 116.944 5.57452 116.766 5.47968C116.589 5.38699 116.416 5.31392 116.249 5.26193C116.438 5.0916 116.616 4.91294 116.783 4.72555C116.948 4.53803 117.084 4.33103 117.189 4.10495C117.292 3.87847 117.345 3.62217 117.349 3.33564C117.351 3.21703 117.329 3.08351 117.285 2.93695C117.242 2.7904 117.17 2.6417 117.067 2.49286C116.966 2.34214 116.828 2.20432 116.653 2.07939C116.477 1.95232 116.259 1.8509 115.997 1.77326C115.736 1.69588 115.424 1.65706 115.062 1.65478C114.89 1.65478 114.726 1.65706 114.563 1.66136C114.402 1.66566 114.256 1.66982 114.121 1.67425C113.987 1.67869 113.876 1.68084 113.788 1.68084C113.769 1.68084 113.72 1.67855 113.635 1.67654C113.548 1.67425 113.445 1.67237 113.32 1.66808C113.194 1.66351 113.062 1.66149 112.924 1.65934C112.784 1.65719 112.652 1.65505 112.526 1.65505C112.464 1.65505 112.421 1.66163 112.394 1.67667C112.365 1.68957 112.353 1.71321 112.353 1.74572C112.355 1.76506 112.363 1.78011 112.382 1.793C112.4 1.80388 112.419 1.81046 112.439 1.81046C112.474 1.81046 112.513 1.81046 112.561 1.81476C112.606 1.81678 112.654 1.81893 112.697 1.82323C112.742 1.82752 112.782 1.83169 112.811 1.83612C112.928 1.85332 113.019 1.88784 113.08 1.93969C113.142 1.99141 113.186 2.06247 113.208 2.15086C113.233 2.2371 113.25 2.34469 113.256 2.46962C113.26 2.53638 113.264 2.60973 113.268 2.68509C113.271 2.76273 113.275 2.85327 113.275 2.961C113.276 3.0686 113.279 3.2044 113.279 3.366C113.281 3.5276 113.281 3.72802 113.281 3.9674C113.281 4.2065 113.281 4.49518 113.281 4.8357V6.77502C113.281 7.13046 113.281 7.45809 113.279 7.76194C113.276 8.0658 113.271 8.33513 113.262 8.57209C113.254 8.80716 113.239 9.001 113.219 9.154C113.204 9.26173 113.188 9.36074 113.17 9.44711C113.153 9.53348 113.126 9.60454 113.091 9.65814C113.056 9.71416 113.003 9.74868 112.935 9.76158C112.883 9.77031 112.827 9.77904 112.767 9.79193C112.708 9.80483 112.652 9.81141 112.601 9.81356C112.57 9.81356 112.547 9.81987 112.535 9.83076C112.52 9.84365 112.514 9.8587 112.514 9.87817C112.514 9.91041 112.528 9.93419 112.559 9.94708C112.588 9.96213 112.631 9.96871 112.687 9.96871C112.776 9.96871 112.879 9.96643 112.996 9.96025C113.114 9.95582 113.229 9.94937 113.343 9.94279C113.458 9.94279 113.557 9.94077 113.639 9.93647C113.724 9.93217 113.773 9.92989 113.788 9.92989C113.806 9.92989 113.848 9.93217 113.915 9.93419C113.984 9.93647 114.066 9.93835 114.167 9.94265C114.268 9.94695 114.375 9.95111 114.493 9.95568C114.61 9.96428 114.728 9.97059 114.847 9.97717C114.965 9.98376 115.076 9.98805 115.177 9.99007C115.28 9.99249 115.365 9.9945 115.433 9.9945C115.896 9.99007 116.3 9.92129 116.643 9.78535C116.985 9.64968 117.269 9.4643 117.496 9.23393C117.72 9.00127 117.89 8.7404 117.999 8.45173C118.11 8.16077 118.166 7.86121 118.166 7.55104C118.164 7.30267 118.124 7.07216 118.046 6.86086ZM114.22 2.17208C114.22 2.13984 114.231 2.11593 114.251 2.09887C114.272 2.08154 114.307 2.06636 114.357 2.05575C114.416 2.04272 114.48 2.03197 114.55 2.02539C114.621 2.01693 114.688 2.0125 114.752 2.00833C114.816 2.00591 114.87 2.00403 114.913 2.00403C115.185 2.00605 115.418 2.06005 115.612 2.1612C115.806 2.26477 115.964 2.40272 116.088 2.57493C116.212 2.74513 116.302 2.9348 116.36 3.14382C116.418 3.35284 116.447 3.56172 116.447 3.77504C116.444 4.03805 116.403 4.26628 116.325 4.46052C116.247 4.65221 116.146 4.81596 116.026 4.95163C115.954 5.03572 115.874 5.10047 115.787 5.1413C115.698 5.18214 115.589 5.20807 115.459 5.21881C115.327 5.23171 115.162 5.23816 114.962 5.23614C114.76 5.23372 114.606 5.22754 114.499 5.21438C114.391 5.20148 114.323 5.19302 114.295 5.18442C114.27 5.17784 114.251 5.16696 114.239 5.14977C114.227 5.13271 114.22 5.10678 114.22 5.06796L114.22 2.17208ZM117.003 8.7721C116.906 8.99402 116.781 9.16649 116.624 9.28712C116.465 9.41003 116.294 9.49412 116.109 9.53926C115.923 9.58668 115.738 9.6083 115.556 9.60602C115.488 9.60602 115.398 9.60401 115.288 9.59756C115.177 9.59098 115.062 9.57607 114.938 9.5543C114.816 9.53308 114.705 9.49842 114.604 9.45087C114.495 9.39714 114.416 9.34099 114.367 9.27853C114.319 9.21821 114.287 9.13855 114.272 9.03713C114.256 8.93612 114.243 8.79816 114.233 8.6234C114.231 8.587 114.229 8.51137 114.227 8.39719C114.225 8.28301 114.225 8.14075 114.223 7.97284C114.223 7.80466 114.223 7.62345 114.22 7.4276C114.22 7.23147 114.22 7.03522 114.22 6.83708C114.22 6.6411 114.22 6.45572 114.22 6.28324V5.67567C114.22 5.65001 114.227 5.63053 114.237 5.61737C114.25 5.60447 114.264 5.59816 114.282 5.59816C114.328 5.59816 114.39 5.59816 114.47 5.59816C114.548 5.59816 114.633 5.60017 114.723 5.60017C114.812 5.60246 114.894 5.60447 114.969 5.60864C115.045 5.61307 115.101 5.61723 115.136 5.62382C115.222 5.63886 115.319 5.65189 115.422 5.66479C115.525 5.67795 115.637 5.70146 115.752 5.73585C115.869 5.77024 115.989 5.8284 116.113 5.90819C116.325 6.0526 116.498 6.21433 116.636 6.39299C116.772 6.56977 116.877 6.75299 116.951 6.93823C117.028 7.12562 117.079 7.3024 117.11 7.47273C117.139 7.64078 117.153 7.78733 117.151 7.91212C117.15 8.26151 117.1 8.54804 117.003 8.7721Z" fill="white"/>
<path d="M125.67 6.86086C125.592 6.64983 125.487 6.45585 125.353 6.28338C125.221 6.10888 125.072 5.95588 124.905 5.82222C124.741 5.68641 124.568 5.57452 124.39 5.47968C124.213 5.38699 124.04 5.31392 123.873 5.26193C124.063 5.0916 124.24 4.91294 124.407 4.72555C124.572 4.53803 124.708 4.33103 124.813 4.10495C124.916 3.87847 124.97 3.62217 124.974 3.33564C124.976 3.21703 124.953 3.08351 124.91 2.93695C124.866 2.7904 124.794 2.6417 124.691 2.49286C124.59 2.34214 124.452 2.20432 124.277 2.07939C124.102 1.95232 123.883 1.8509 123.621 1.77326C123.36 1.69588 123.049 1.65706 122.686 1.65478C122.515 1.65478 122.35 1.65706 122.187 1.66136C122.026 1.66566 121.88 1.66982 121.746 1.67425C121.612 1.67855 121.5 1.68084 121.412 1.68084C121.393 1.68084 121.344 1.67855 121.259 1.67654C121.173 1.67425 121.07 1.67237 120.944 1.66808C120.818 1.66351 120.686 1.66149 120.548 1.65934C120.408 1.65719 120.276 1.65505 120.15 1.65505C120.088 1.65505 120.045 1.66163 120.018 1.67667C119.989 1.68957 119.977 1.71321 119.977 1.74572C119.979 1.76506 119.987 1.78011 120.006 1.793C120.024 1.80388 120.043 1.81046 120.064 1.81046C120.099 1.81046 120.138 1.81046 120.185 1.81476C120.231 1.81678 120.278 1.81893 120.321 1.82323C120.367 1.82752 120.406 1.83169 120.435 1.83612C120.552 1.85332 120.643 1.88784 120.705 1.93969C120.767 1.99141 120.81 2.06247 120.832 2.15086C120.857 2.2371 120.874 2.34469 120.88 2.46962C120.884 2.53638 120.888 2.60973 120.892 2.68509C120.895 2.76273 120.899 2.85327 120.899 2.961C120.901 3.0686 120.903 3.2044 120.903 3.366C120.905 3.5276 120.905 3.72802 120.905 3.9674C120.905 4.2065 120.905 4.49518 120.905 4.8357V6.77502C120.905 7.13046 120.905 7.45809 120.903 7.76194C120.901 8.0658 120.895 8.33513 120.886 8.57209C120.878 8.80716 120.863 9.001 120.843 9.154C120.828 9.26173 120.812 9.36074 120.793 9.44711C120.777 9.53348 120.75 9.60454 120.715 9.65814C120.68 9.71416 120.627 9.74868 120.559 9.76158C120.507 9.77031 120.451 9.77904 120.392 9.79193C120.332 9.80483 120.276 9.81141 120.225 9.81356C120.194 9.81356 120.171 9.81987 120.159 9.83076C120.144 9.84365 120.138 9.8587 120.138 9.87817C120.138 9.91041 120.152 9.93419 120.183 9.94708C120.212 9.96213 120.256 9.96871 120.311 9.96871C120.4 9.96871 120.503 9.96643 120.62 9.96025C120.738 9.95582 120.853 9.94937 120.967 9.94279C121.082 9.94279 121.181 9.94077 121.263 9.93647C121.348 9.93217 121.397 9.92989 121.412 9.92989C121.43 9.92989 121.472 9.93217 121.54 9.93419C121.608 9.93647 121.69 9.93835 121.791 9.94265C121.892 9.94695 121.999 9.95111 122.117 9.95568C122.234 9.96428 122.352 9.97059 122.471 9.97717C122.589 9.98376 122.7 9.98805 122.801 9.99007C122.904 9.99249 122.989 9.9945 123.057 9.9945C123.521 9.99007 123.924 9.92129 124.267 9.78535C124.609 9.64968 124.893 9.4643 125.12 9.23393C125.345 9.00127 125.514 8.7404 125.623 8.45173C125.734 8.16077 125.79 7.86121 125.79 7.55104C125.788 7.30267 125.748 7.07216 125.67 6.86086ZM121.845 2.17208C121.845 2.13984 121.855 2.11593 121.876 2.09887C121.896 2.08154 121.931 2.06636 121.981 2.05575C122.04 2.04272 122.104 2.03197 122.175 2.02539C122.245 2.01693 122.313 2.0125 122.376 2.00833C122.44 2.00591 122.494 2.00403 122.537 2.00403C122.809 2.00605 123.042 2.06005 123.236 2.1612C123.43 2.26477 123.588 2.40272 123.712 2.57493C123.836 2.74513 123.926 2.9348 123.984 3.14382C124.042 3.35284 124.071 3.56172 124.071 3.77504C124.069 4.03805 124.028 4.26628 123.949 4.46052C123.871 4.65221 123.77 4.81596 123.65 4.95163C123.578 5.03572 123.498 5.10047 123.411 5.1413C123.322 5.18214 123.213 5.20807 123.083 5.21881C122.951 5.23171 122.786 5.23816 122.587 5.23614C122.385 5.23372 122.23 5.22754 122.123 5.21438C122.015 5.20148 121.948 5.19302 121.919 5.18442C121.894 5.17784 121.875 5.16696 121.863 5.14977C121.851 5.13271 121.844 5.10678 121.844 5.06796L121.845 2.17208ZM124.627 8.7721C124.53 8.99402 124.405 9.16649 124.248 9.28712C124.089 9.41003 123.918 9.49412 123.733 9.53926C123.547 9.58668 123.362 9.6083 123.18 9.60602C123.112 9.60602 123.022 9.60401 122.912 9.59756C122.801 9.59098 122.686 9.57607 122.562 9.5543C122.44 9.53308 122.329 9.49842 122.228 9.45087C122.119 9.39714 122.04 9.34099 121.991 9.27853C121.943 9.21821 121.91 9.13855 121.896 9.03713C121.879 8.93612 121.867 8.79816 121.857 8.6234C121.855 8.587 121.853 8.51137 121.851 8.39719C121.849 8.28301 121.849 8.14075 121.847 7.97284C121.847 7.80466 121.847 7.62345 121.844 7.4276C121.844 7.23147 121.844 7.03522 121.844 6.83708C121.844 6.6411 121.844 6.45572 121.844 6.28324V5.67567C121.844 5.65001 121.851 5.63053 121.861 5.61737C121.873 5.60447 121.888 5.59816 121.906 5.59816C121.952 5.59816 122.014 5.59816 122.094 5.59816C122.172 5.59816 122.257 5.60017 122.348 5.60017C122.436 5.60246 122.519 5.60447 122.593 5.60864C122.669 5.61307 122.725 5.61723 122.76 5.62382C122.846 5.63886 122.943 5.65189 123.046 5.66479C123.149 5.67795 123.261 5.70146 123.376 5.73585C123.494 5.77024 123.613 5.8284 123.737 5.90819C123.949 6.0526 124.122 6.21433 124.26 6.39299C124.396 6.56977 124.501 6.75299 124.576 6.93823C124.652 7.12562 124.703 7.3024 124.734 7.47273C124.763 7.64078 124.777 7.78733 124.775 7.91212C124.773 8.26151 124.724 8.54804 124.627 8.7721Z" fill="white"/>
<path d="M135.956 3.78395C135.739 3.27538 135.438 2.84203 135.051 2.48458C134.661 2.12901 134.208 1.85524 133.686 1.66785C133.165 1.48046 132.596 1.38563 131.979 1.38334C131.479 1.38576 131.025 1.45024 130.617 1.57731C130.209 1.70667 129.844 1.88117 129.525 2.10308C129.205 2.32486 128.929 2.57941 128.694 2.86594C128.461 3.1526 128.267 3.45417 128.115 3.77535C127.962 4.09653 127.849 4.41731 127.775 4.74266C127.701 5.06586 127.664 5.37831 127.664 5.67585C127.664 6.00778 127.698 6.34387 127.772 6.68198C127.845 7.0225 127.954 7.35201 128.104 7.67535C128.253 7.99653 128.442 8.29823 128.673 8.57616C128.902 8.85624 129.176 9.10179 129.489 9.31296C129.805 9.52628 130.163 9.69204 130.568 9.81065C130.972 9.93128 131.421 9.99173 131.917 9.99388C132.443 9.99159 132.929 9.91422 133.379 9.7631C133.826 9.61037 134.23 9.39705 134.587 9.12114C134.945 8.84751 135.248 8.52216 135.502 8.14725C135.753 7.77448 135.947 7.36289 136.081 6.91679C136.215 6.47081 136.283 6.00119 136.283 5.50767C136.279 4.86571 136.17 4.29037 135.956 3.78395ZM135.02 7.19713C134.923 7.58937 134.791 7.92332 134.624 8.19695C134.459 8.47058 134.272 8.69679 134.065 8.87343C133.859 9.04806 133.645 9.18575 133.425 9.28287C133.204 9.37986 132.992 9.44877 132.783 9.48772C132.577 9.52413 132.392 9.5436 132.227 9.54132C131.732 9.5393 131.276 9.44232 130.86 9.2505C130.444 9.05867 130.079 8.7829 129.77 8.42088C129.461 8.05671 129.222 7.62148 129.049 7.10847C128.877 6.59587 128.791 6.0204 128.789 5.37817C128.791 4.7792 128.869 4.25786 129.022 3.80947C129.176 3.36135 129.393 2.98858 129.671 2.69118C129.951 2.39176 130.281 2.16971 130.662 2.01899C131.042 1.87015 131.462 1.79708 131.917 1.79708C132.264 1.79708 132.596 1.85068 132.915 1.96069C133.237 2.07057 133.534 2.23432 133.806 2.4522C134.078 2.66982 134.317 2.93901 134.521 3.26235C134.725 3.58554 134.884 3.96032 134.997 4.38695C135.11 4.81359 135.168 5.28992 135.17 5.81783C135.168 6.34602 135.119 6.8069 135.02 7.19713Z" fill="white"/>
<path d="M139.295 3.23219C139.381 3.33132 139.515 3.48433 139.699 3.6869C139.882 3.89148 140.103 4.13502 140.356 4.41738C140.612 4.69759 140.89 5.00346 141.189 5.33096C141.488 5.66047 141.797 5.99898 142.115 6.34783C142.348 6.60239 142.588 6.8607 142.84 7.12815C143.091 7.39534 143.337 7.65607 143.576 7.90606C143.817 8.15819 144.035 8.38655 144.233 8.59114C144.431 8.79586 144.594 8.96404 144.72 9.09326C144.846 9.22262 144.922 9.29785 144.946 9.32162C145.146 9.51345 145.299 9.65772 145.406 9.75484C145.513 9.85169 145.594 9.91644 145.645 9.94868C145.699 9.98091 145.742 9.99609 145.775 9.99381C145.794 9.99609 145.808 9.9875 145.821 9.97245C145.831 9.95727 145.841 9.92288 145.847 9.87103C145.853 9.81932 145.858 9.73966 145.86 9.63394C145.862 9.52849 145.862 9.38422 145.862 9.20529L145.887 2.76687C145.884 2.54926 145.891 2.37463 145.907 2.24325C145.922 2.11174 145.957 2.01261 146.012 1.94585C146.066 1.87909 146.153 1.83395 146.27 1.81017C146.332 1.79714 146.385 1.7907 146.429 1.7864C146.472 1.78411 146.505 1.78411 146.53 1.78411C146.567 1.7821 146.598 1.76907 146.62 1.74758C146.641 1.72393 146.653 1.70217 146.653 1.68082C146.651 1.64858 146.633 1.6291 146.595 1.61822C146.558 1.60747 146.513 1.60317 146.455 1.60317C146.231 1.60317 146.035 1.60747 145.872 1.61634C145.707 1.6248 145.594 1.62923 145.528 1.62923C145.485 1.62923 145.404 1.62695 145.289 1.62265C145.171 1.61835 145.035 1.61419 144.878 1.60975C144.72 1.60546 144.559 1.60317 144.39 1.60317C144.328 1.60317 144.277 1.60747 144.24 1.61822C144.2 1.6291 144.182 1.64858 144.18 1.68082C144.18 1.70217 144.184 1.72393 144.196 1.74758C144.207 1.76907 144.231 1.78223 144.266 1.78411C144.297 1.78411 144.341 1.7864 144.398 1.78841C144.458 1.79258 144.522 1.79701 144.592 1.80574C144.662 1.81206 144.732 1.82294 144.798 1.83583C144.91 1.85531 144.992 1.90058 145.05 1.97177C145.107 2.04068 145.149 2.14828 145.169 2.29054C145.192 2.43279 145.204 2.62233 145.206 2.85741L145.318 8.36493C145.233 8.27238 145.101 8.12784 144.926 7.934C144.751 7.74003 144.547 7.51167 144.31 7.24851C144.075 6.98791 143.823 6.70999 143.555 6.41473C143.287 6.12162 143.017 5.8265 142.745 5.53339C142.407 5.16922 142.078 4.81379 141.758 4.4648C141.439 4.11782 141.14 3.79033 140.86 3.48433C140.579 3.17604 140.328 2.90241 140.107 2.66102C139.889 2.41976 139.709 2.22163 139.569 2.07064C139.431 1.91764 139.345 1.8228 139.307 1.78398C139.27 1.74314 139.225 1.69774 139.176 1.64616C139.126 1.59243 139.077 1.54702 139.027 1.5082C138.975 1.46938 138.928 1.45017 138.887 1.44789C138.858 1.44574 138.833 1.46307 138.811 1.49316C138.788 1.52566 138.771 1.58383 138.757 1.66362C138.745 1.74529 138.739 1.85961 138.739 2.00401V8.30031C138.741 8.62983 138.732 8.88855 138.72 9.08023C138.706 9.27219 138.675 9.41216 138.632 9.50257C138.586 9.59096 138.518 9.64711 138.43 9.67075C138.347 9.69654 138.262 9.714 138.18 9.7226C138.095 9.73106 138.032 9.73549 137.984 9.73549C137.959 9.73549 137.939 9.74396 137.922 9.76142C137.906 9.77861 137.898 9.79997 137.898 9.8259C137.898 9.86244 137.912 9.8885 137.943 9.89897C137.972 9.91214 138.015 9.91644 138.071 9.91644C138.238 9.91644 138.394 9.91214 138.541 9.90556C138.687 9.89897 138.813 9.89481 138.916 9.8885C139.019 9.88191 139.087 9.87761 139.122 9.87761C139.176 9.8799 139.301 9.88608 139.503 9.89709C139.703 9.90797 139.961 9.91429 140.272 9.91657C140.334 9.91657 140.384 9.90999 140.418 9.89494C140.452 9.88205 140.47 9.85841 140.47 9.82603C140.47 9.80011 140.462 9.77861 140.445 9.76155C140.429 9.74409 140.408 9.73563 140.384 9.73563C140.348 9.73563 140.303 9.73334 140.244 9.73133C140.184 9.72717 140.118 9.72058 140.046 9.71185C139.976 9.70111 139.907 9.68821 139.839 9.67088C139.741 9.64724 139.662 9.59552 139.605 9.51358C139.545 9.42963 139.501 9.30242 139.473 9.12779C139.444 8.95329 139.427 8.71647 139.419 8.41678L139.295 3.23219Z" fill="white"/>
<path d="M40.0099 16.1803C39.9997 16.0575 39.9813 15.9692 39.9586 15.913C39.9378 15.8571 39.9049 15.8314 39.8616 15.8314C39.8203 15.8334 39.7833 15.8528 39.7544 15.8916C39.7277 15.9304 39.7009 15.9778 39.6761 16.0382L36.0403 24.1572L32.2559 16.0253C32.2249 15.9542 32.1961 15.9046 32.1673 15.8744C32.1385 15.8442 32.1076 15.8314 32.0704 15.8314C32.0331 15.8314 32.0024 15.8528 31.9797 15.8936C31.9551 15.9349 31.9407 15.993 31.9343 16.0642L31.0439 24.4937C31.0296 24.6594 31.0111 24.819 30.9843 24.972C30.9595 25.127 30.9142 25.2564 30.8482 25.3643C30.7822 25.4697 30.6834 25.5388 30.5494 25.5666C30.4587 25.586 30.3863 25.5971 30.3309 25.6012C30.2774 25.6054 30.2258 25.6054 30.1782 25.6054C30.1454 25.6054 30.1186 25.612 30.0938 25.6227C30.069 25.6359 30.0566 25.6505 30.0547 25.6703C30.0567 25.7154 30.0751 25.7456 30.1144 25.7628C30.1515 25.7802 30.203 25.7865 30.2648 25.7865C30.3513 25.7865 30.4461 25.7843 30.5535 25.7802C30.6585 25.7757 30.7636 25.7716 30.8688 25.767C30.972 25.7628 31.0625 25.7587 31.1409 25.7541C31.2192 25.7499 31.2749 25.7475 31.3037 25.7475C31.3305 25.7475 31.3821 25.7499 31.4605 25.7541C31.5387 25.7585 31.6337 25.7627 31.7449 25.767C31.8562 25.7714 31.9716 25.7756 32.0955 25.7802C32.2191 25.7843 32.3386 25.7865 32.4541 25.7865C32.5281 25.7865 32.5839 25.7802 32.6211 25.7628C32.6582 25.7455 32.6768 25.7153 32.6768 25.6703C32.6768 25.6507 32.6665 25.6359 32.6456 25.6227C32.6271 25.612 32.6045 25.6054 32.5776 25.6054C32.5385 25.6054 32.4767 25.6012 32.3942 25.5925C32.3095 25.5842 32.2147 25.5666 32.1077 25.5408C32.0129 25.5193 31.9366 25.4717 31.8769 25.3985C31.8192 25.3253 31.7882 25.2389 31.7862 25.1398C31.7862 25.0299 31.7862 24.9182 31.7882 24.8061C31.7882 24.6938 31.7924 24.5839 31.7986 24.4805L32.2933 18.4819H32.3427C32.3634 18.5336 32.4065 18.6346 32.4706 18.7833C32.5346 18.932 32.6128 19.1128 32.7076 19.3243C32.8004 19.5352 32.8992 19.7637 33.0084 20.0051C33.1158 20.2464 33.2228 20.4876 33.3279 20.7292C33.4351 20.9682 33.5362 21.1902 33.6269 21.3948C33.7177 21.5997 33.7959 21.7697 33.8576 21.9077C33.9195 22.0434 33.9588 22.1296 33.9752 22.1661C33.9876 22.1901 34.0228 22.2653 34.0826 22.3905C34.1403 22.5133 34.2164 22.6704 34.3071 22.8601C34.3978 23.0498 34.4948 23.2565 34.6019 23.4764C34.707 23.6983 34.8121 23.9182 34.9172 24.1357C35.0223 24.3534 35.1193 24.5516 35.2078 24.7325C35.2964 24.9136 35.3665 25.0579 35.4222 25.1657C35.5004 25.3187 35.5604 25.4394 35.6076 25.5275C35.653 25.6139 35.6902 25.6742 35.7209 25.7088C35.75 25.7452 35.7789 25.7626 35.8056 25.7603C35.8406 25.7627 35.8736 25.7454 35.9024 25.7088C35.9333 25.6722 35.9705 25.6053 36.0179 25.5063C36.0633 25.4071 36.1291 25.2626 36.2137 25.0752L39.2435 18.3524H39.2807L39.8742 25.0235C39.8825 25.1033 39.8868 25.1765 39.8868 25.2454C39.8868 25.3142 39.8805 25.3706 39.8702 25.4133C39.8619 25.4587 39.8455 25.4844 39.8248 25.4888C39.7938 25.4951 39.7733 25.5061 39.7589 25.519C39.7444 25.5339 39.7382 25.5534 39.7382 25.5793C39.7362 25.6116 39.7566 25.6374 39.8042 25.6591C39.8536 25.6786 39.9466 25.6955 40.0844 25.7087C40.1792 25.717 40.3007 25.7236 40.4493 25.7323C40.5979 25.7389 40.7584 25.7452 40.9316 25.7518C41.1028 25.7584 41.2717 25.7647 41.4366 25.7689C41.6016 25.7755 41.7478 25.7799 41.8756 25.782C42.0013 25.7842 42.0942 25.7862 42.1499 25.7862C42.2261 25.7862 42.2879 25.7755 42.3354 25.756C42.3827 25.7365 42.4074 25.7087 42.4095 25.6699C42.4095 25.6439 42.4012 25.6266 42.3826 25.6179C42.3661 25.6096 42.3413 25.605 42.3104 25.605C42.2465 25.6074 42.1414 25.6028 41.9971 25.5901C41.8529 25.5793 41.69 25.5449 41.5064 25.4888C41.3747 25.4415 41.2673 25.3657 41.185 25.2647C41.1026 25.1613 41.0387 25.0428 40.9911 24.9113C40.9459 24.7778 40.911 24.6418 40.8902 24.5039C40.8674 24.3662 40.8512 24.2371 40.8387 24.1185L40.0099 16.1803ZM43.5036 21.6103C43.5036 21.9422 43.5386 22.2783 43.6129 22.6164C43.685 22.9569 43.7942 23.2865 43.9449 23.6098C44.0932 23.931 44.2828 24.2327 44.5136 24.5105C44.7424 24.7907 45.0163 25.0362 45.3296 25.2474C45.6451 25.4607 46.0038 25.6265 46.4077 25.7451C46.8119 25.8657 47.261 25.9262 47.7578 25.9285C48.2834 25.926 48.7699 25.8487 49.2192 25.6975C49.6663 25.5448 50.0702 25.3315 50.4269 25.0556C50.7856 24.7819 51.0886 24.4566 51.3423 24.0817C51.5935 23.7089 51.7874 23.2975 51.9213 22.8512C52.0552 22.4053 52.1233 21.9356 52.1233 21.4421C52.1193 20.8001 52.0099 20.2248 51.7957 19.7184C51.5791 19.2097 51.2784 18.7765 50.8907 18.4189C50.5012 18.0634 50.0477 17.7897 49.5261 17.6022C49.0046 17.4148 48.4357 17.3201 47.8194 17.3178C47.3187 17.3202 46.8652 17.3847 46.4571 17.5116C46.0491 17.641 45.684 17.8157 45.3647 18.0374C45.0452 18.2593 44.769 18.5139 44.534 18.8004C44.3011 19.0869 44.1075 19.3886 43.9548 19.7098C43.8024 20.031 43.689 20.3518 43.6147 20.6771C43.5408 21.0003 43.5036 21.3129 43.5036 21.6103ZM44.6291 21.3129C44.6311 20.7139 44.7095 20.1926 44.862 19.7442C45.0164 19.2961 45.233 18.9233 45.5111 18.626C45.7916 18.3265 46.1214 18.1044 46.5027 17.9536C46.882 17.8049 47.3023 17.7317 47.7579 17.7317C48.1042 17.7317 48.4359 17.7854 48.7556 17.8954C49.0769 18.0053 49.3739 18.169 49.646 18.3868C49.918 18.6045 50.1572 18.8737 50.3612 19.1969C50.5652 19.5201 50.7238 19.895 50.8374 20.3217C50.9507 20.7483 51.0084 21.2245 51.0105 21.7525C51.0084 22.2805 50.959 22.7413 50.8602 23.1316C50.7632 23.5238 50.6312 23.8578 50.4642 24.1314C50.2994 24.405 50.1119 24.6312 49.9057 24.808C49.6997 24.9825 49.4852 25.1202 49.2648 25.2173C49.0441 25.3142 48.8318 25.3833 48.6237 25.4222C48.4174 25.4586 48.2319 25.478 48.0671 25.4759C47.5725 25.4737 47.1168 25.3768 46.7005 25.1849C46.2842 24.9931 45.9193 24.7172 45.6102 24.3553C45.3011 23.9912 45.0618 23.5559 44.8889 23.0429C44.7178 22.5304 44.6311 21.9551 44.6291 21.3129Z" fill="white"/>
<path d="M55.358 18.8175C55.2755 18.5953 55.2053 18.4057 55.1497 18.2463C55.092 18.087 55.0632 17.9727 55.0611 17.8995C55.0592 17.8607 55.0652 17.824 55.0819 17.7916C55.0961 17.7594 55.1313 17.7313 55.1848 17.7055C55.2365 17.686 55.3002 17.6733 55.3744 17.6646C55.4466 17.656 55.5168 17.6538 55.5806 17.6538C55.6176 17.6517 55.6465 17.6406 55.665 17.6213C55.6836 17.5998 55.6918 17.5762 55.6918 17.5502C55.6918 17.4985 55.593 17.4729 55.3953 17.4729C55.2529 17.4729 55.1105 17.475 54.9704 17.4792C54.8303 17.4836 54.7066 17.4878 54.5995 17.4921C54.4943 17.4965 54.4201 17.4987 54.381 17.4987C54.346 17.4987 54.284 17.4965 54.1976 17.4945C54.111 17.4921 54.0078 17.4903 53.8883 17.4859C53.7687 17.4815 53.641 17.4793 53.507 17.4773C53.371 17.4751 53.239 17.4731 53.1071 17.4731C53.0204 17.4731 52.9504 17.4773 52.9009 17.488C52.8495 17.4988 52.8246 17.5183 52.8227 17.5505C52.8227 17.572 52.8288 17.5938 52.8432 17.6174C52.8556 17.6389 52.8782 17.6521 52.9093 17.6541C52.9421 17.6519 53 17.6541 53.0782 17.6582C53.1565 17.6624 53.241 17.6734 53.3298 17.6929C53.4472 17.7186 53.5483 17.7595 53.6307 17.8091C53.713 17.8608 53.7895 17.9406 53.8594 18.0502C53.9274 18.1584 54.0036 18.3155 54.0841 18.5201L56.7554 25.2561C56.8253 25.4306 56.881 25.5685 56.9263 25.6654C56.9737 25.7645 57.013 25.8335 57.0501 25.8724C57.085 25.9109 57.1242 25.9304 57.1635 25.9285C57.1985 25.9304 57.2335 25.9068 57.2685 25.8592C57.3036 25.8119 57.3489 25.7277 57.4045 25.6073C57.4602 25.4887 57.5364 25.3185 57.6334 25.1008C57.7159 24.918 57.8252 24.6678 57.9571 24.3512C58.091 24.0343 58.2475 23.6573 58.427 23.222C58.606 22.7868 58.8082 22.3019 59.0308 21.7654C59.171 21.4269 59.307 21.0973 59.4369 20.7766C59.5689 20.4575 59.6885 20.1624 59.7996 19.8905C59.9089 19.6192 60.0038 19.3887 60.0798 19.1969C60.1563 19.0074 60.2118 18.8715 60.243 18.7917C60.3377 18.5437 60.4199 18.3543 60.4943 18.2184C60.5664 18.0849 60.6325 17.9857 60.6901 17.9233C60.7457 17.8608 60.7994 17.8134 60.8489 17.7834C60.917 17.7402 60.9849 17.71 61.0549 17.6929C61.1251 17.6734 61.1889 17.6624 61.2446 17.6582C61.3 17.6541 61.3415 17.6519 61.3682 17.6541C61.4114 17.6519 61.4424 17.6409 61.463 17.6216C61.4814 17.6001 61.4918 17.5764 61.4918 17.5505C61.4918 17.5249 61.4774 17.5051 61.4464 17.4922C61.4176 17.4793 61.3743 17.473 61.3187 17.473C61.2361 17.473 61.1498 17.4751 61.059 17.4772C60.9661 17.4793 60.8795 17.4813 60.795 17.4858C60.7104 17.4902 60.6384 17.4921 60.5807 17.4944C60.5209 17.4965 60.4817 17.4985 60.4651 17.4985C60.4177 17.4985 60.3375 17.4964 60.226 17.4919C60.1126 17.4878 59.9848 17.4836 59.8404 17.479C59.6942 17.4749 59.5479 17.4727 59.4015 17.4727C59.315 17.4727 59.2532 17.479 59.214 17.4942C59.1726 17.5071 59.1542 17.5306 59.1542 17.5633C59.1564 17.5889 59.1686 17.6106 59.1934 17.6277C59.218 17.6451 59.2447 17.6537 59.2778 17.6537C59.3398 17.6515 59.4014 17.6537 59.4632 17.6578C59.5252 17.662 59.5869 17.673 59.6488 17.6925C59.7044 17.7137 59.7415 17.7462 59.7642 17.7893C59.7868 17.8325 59.7972 17.8777 59.7972 17.9253C59.7972 17.9704 59.7868 18.0307 59.7662 18.1018C59.7478 18.175 59.7251 18.2526 59.6982 18.339C59.6631 18.4529 59.6075 18.6211 59.5311 18.843C59.4529 19.0629 59.3601 19.3214 59.253 19.6168C59.1438 19.914 59.0262 20.2309 58.8983 20.5712C58.7705 20.9117 58.6385 21.2585 58.5025 21.6141C58.3644 21.9675 58.2303 22.3144 58.0985 22.6528C57.9665 22.9888 57.8408 23.3034 57.7232 23.5944C57.6059 23.8854 57.5007 24.1375 57.41 24.3508L55.358 18.8175ZM63.5014 22.5924C63.5014 22.9481 63.5014 23.2756 63.4994 23.5795C63.4973 23.8833 63.4912 24.1528 63.4829 24.3896C63.4746 24.6247 63.4601 24.8186 63.4396 24.9716C63.4252 25.0794 63.4089 25.1741 63.3902 25.2581C63.3736 25.3399 63.347 25.4068 63.3119 25.4562C63.277 25.5079 63.2234 25.5404 63.1555 25.5533C63.1038 25.5619 63.0481 25.5707 62.9882 25.5838C62.9287 25.5967 62.8729 25.603 62.8213 25.6051C62.7904 25.6075 62.7679 25.6161 62.7554 25.6355C62.741 25.655 62.7347 25.6741 62.7347 25.6956C62.7347 25.7278 62.7491 25.7517 62.7801 25.7646C62.8089 25.7798 62.8523 25.7861 62.9079 25.7861C62.9966 25.7861 63.0975 25.784 63.2089 25.7778C63.3223 25.7734 63.4315 25.7668 63.5386 25.7602C63.6602 25.7539 63.7634 25.7497 63.8519 25.7497C63.9408 25.7473 63.9921 25.7473 64.0087 25.7473C64.0891 25.7473 64.2024 25.7473 64.3488 25.7497C64.4951 25.7539 64.6828 25.7602 64.9114 25.7734C65.134 25.7799 65.4041 25.7883 65.7194 25.7973C66.0348 25.8056 66.3955 25.8122 66.8036 25.8122C66.9418 25.8143 67.0511 25.81 67.1313 25.8014C67.2116 25.7928 67.2714 25.7689 67.3127 25.728C67.354 25.6873 67.3871 25.6204 67.4097 25.5275C67.4262 25.4675 67.4425 25.3811 67.4591 25.2757C67.4756 25.1678 67.4919 25.0558 67.5064 24.9393C67.5231 24.8231 67.5333 24.7218 67.5437 24.6334C67.554 24.5453 67.5581 24.4892 67.5581 24.4677C67.5581 24.4267 67.554 24.3879 67.5437 24.3535C67.5333 24.3188 67.5147 24.3018 67.4839 24.2995C67.4529 24.2974 67.4303 24.3102 67.4139 24.3342C67.3973 24.3601 67.385 24.4032 67.3726 24.4677C67.3519 24.6122 67.3209 24.735 67.2798 24.8319C67.2385 24.929 67.185 25.0105 67.1191 25.0732C67.053 25.1357 66.9727 25.1897 66.8779 25.2304C66.7809 25.2692 66.6657 25.2949 66.5337 25.3125C66.3997 25.3295 66.2677 25.3381 66.1357 25.3424C66.0019 25.3469 65.8864 25.3469 65.7897 25.3469C65.5216 25.349 65.3053 25.3361 65.1363 25.3125C64.9673 25.2886 64.8375 25.2456 64.7467 25.1831C64.6539 25.1204 64.59 25.0323 64.553 24.9158C64.5158 24.7996 64.4951 24.6508 64.491 24.4677C64.489 24.4201 64.487 24.3407 64.487 24.2243C64.4849 24.1081 64.4849 23.9743 64.4849 23.8213C64.487 23.6683 64.487 23.5111 64.487 23.3514C64.4891 23.1921 64.4891 23.0455 64.4891 22.9099C64.4911 22.7763 64.4911 22.6706 64.4911 22.593V21.6752C64.4911 21.6537 64.4952 21.6364 64.5055 21.6212C64.5159 21.6066 64.5345 21.5976 64.5653 21.5976C64.6045 21.5976 64.6766 21.5976 64.7797 21.6C64.8828 21.6 65.0022 21.6019 65.1383 21.6042C65.2764 21.6066 65.4146 21.6108 65.5566 21.6149C65.6968 21.6194 65.8267 21.6235 65.9421 21.6278C66.0597 21.6344 66.1483 21.6407 66.2102 21.6493C66.3484 21.6666 66.4577 21.6923 66.5338 21.7248C66.6101 21.757 66.6658 21.7959 66.6986 21.841C66.7337 21.8843 66.7565 21.9336 66.7666 21.9855C66.7915 22.0566 66.8059 22.1212 66.81 22.1815C66.816 22.2398 66.8181 22.2957 66.816 22.3473C66.816 22.3795 66.8223 22.4056 66.8346 22.4228C66.8472 22.4423 66.8657 22.4506 66.8904 22.4506C66.9276 22.4487 66.9521 22.4249 66.9686 22.3818C66.983 22.3388 66.9892 22.2913 66.9892 22.2439C66.9892 22.2136 66.9914 22.1577 66.9973 22.0735C67.0017 21.9896 67.0076 21.897 67.014 21.7977C67.0221 21.6965 67.0303 21.6081 67.0386 21.5327C67.053 21.3538 67.0715 21.2137 67.0922 21.1168C67.1128 21.0197 67.1232 20.9552 67.125 20.925C67.125 20.8928 67.119 20.8689 67.1087 20.856C67.0963 20.841 67.0818 20.8345 67.0633 20.8345C67.0448 20.8345 67.022 20.8494 66.9972 20.8754C66.9703 20.9035 66.9395 20.9358 66.9025 20.9767C66.8489 21.0326 66.7789 21.0693 66.6923 21.0888C66.6078 21.1061 66.5006 21.121 66.3708 21.132C66.3171 21.1362 66.2286 21.1403 66.1007 21.1449C65.973 21.1471 65.8267 21.1512 65.664 21.1512C65.501 21.1534 65.3382 21.1556 65.1794 21.1556C65.0207 21.1578 64.8847 21.1578 64.7714 21.1578C64.6561 21.1578 64.584 21.1578 64.553 21.1578C64.5241 21.1578 64.5054 21.1471 64.4993 21.1273C64.4931 21.1081 64.4892 21.08 64.4911 21.0415V18.0549C64.4911 18.0161 64.4952 17.9856 64.5034 17.9663C64.5119 17.9468 64.5283 17.9385 64.5531 17.9385C64.58 17.9385 64.6458 17.9385 64.7468 17.9406C64.848 17.9406 64.9673 17.9428 65.1056 17.945C65.2456 17.9469 65.3857 17.9492 65.5261 17.9513C65.6683 17.9555 65.7918 17.9579 65.9012 17.9621C66.0105 17.9663 66.0847 17.9707 66.1237 17.9773C66.3195 18.0029 66.4681 18.029 66.573 18.0591C66.6783 18.0872 66.7525 18.1213 66.7998 18.1625C66.8474 18.2035 66.8802 18.2531 66.903 18.3134C66.9278 18.38 66.9441 18.4511 66.9524 18.5267C66.9606 18.5999 66.965 18.6582 66.965 18.7012C66.965 18.7466 66.9709 18.781 66.9854 18.8069C66.9978 18.8305 67.0204 18.8433 67.0515 18.8433C67.0761 18.8411 67.0969 18.8281 67.1153 18.8045C67.1318 18.7808 67.1442 18.7552 67.1503 18.7271C67.1565 18.6924 67.1627 18.6407 67.1689 18.5741C67.1749 18.5051 67.1813 18.434 67.1853 18.3542C67.1916 18.2766 67.1957 18.2055 67.1997 18.1409C67.2062 18.0761 67.2101 18.031 67.2121 18.0029C67.2266 17.8499 67.2451 17.7359 67.2657 17.6561C67.2864 17.5784 67.2967 17.5226 67.2985 17.4858C67.2985 17.4577 67.2945 17.434 67.2884 17.4147C67.2801 17.3932 67.2678 17.3822 67.2491 17.3822C67.2243 17.3846 67.1997 17.3911 67.1749 17.404C67.1503 17.4168 67.1255 17.4254 67.1009 17.4342C67.0555 17.4405 66.9896 17.4515 66.9009 17.4664C66.8123 17.4793 66.7134 17.4903 66.6062 17.4987C66.5629 17.5008 66.4702 17.5031 66.3341 17.5031C66.1959 17.5031 66.0311 17.505 65.8395 17.505C65.6478 17.505 65.4499 17.5031 65.2437 17.5031C65.0355 17.5031 64.8418 17.5031 64.6605 17.5007C64.4791 17.5007 64.3287 17.5007 64.2112 17.4985C64.0915 17.4985 64.0258 17.4985 64.0092 17.4985C63.9907 17.4985 63.9413 17.4964 63.8566 17.4944C63.7699 17.4919 63.667 17.4902 63.5413 17.4858C63.4154 17.4813 63.2834 17.4792 63.1455 17.4772C63.0053 17.475 62.8733 17.473 62.7478 17.473C62.6858 17.473 62.6426 17.4793 62.6158 17.4945C62.587 17.5074 62.5745 17.5309 62.5745 17.5635C62.5766 17.585 62.5848 17.6045 62.6032 17.6236C62.6217 17.6431 62.6404 17.6519 62.6612 17.6541C62.6962 17.6541 62.7352 17.6541 62.7828 17.6582C62.8282 17.6604 62.8755 17.6624 62.9188 17.6668C62.9642 17.671 63.0031 17.6754 63.0322 17.68C63.1497 17.6971 63.2405 17.7293 63.3021 17.7769C63.3641 17.8241 63.4072 17.891 63.43 17.975C63.4547 18.0592 63.4712 18.1625 63.4774 18.2874C63.4815 18.3543 63.4856 18.4275 63.4898 18.5029C63.4919 18.5808 63.4962 18.6711 63.4962 18.779C63.4981 18.8866 63.5002 19.0222 63.5002 19.1838C63.5021 19.3457 63.5021 19.5461 63.5021 19.7855C63.5021 20.0245 63.5021 20.3131 63.5021 20.6537L63.5014 22.5924ZM78.1254 17.6149C78.1131 17.5114 78.0924 17.4362 78.0634 17.3886C78.0347 17.3414 78.0017 17.3176 77.9646 17.3176C77.9276 17.3176 77.8966 17.3349 77.8698 17.3693C77.8411 17.4015 77.8164 17.4448 77.7915 17.4987L74.6257 24.3123L71.336 17.4859C71.3052 17.4211 71.268 17.378 71.229 17.3524C71.1897 17.3287 71.1506 17.3157 71.1134 17.3177C71.0825 17.3177 71.0556 17.3372 71.033 17.3717C71.0103 17.4061 70.9958 17.4535 70.9898 17.5116L70.1984 24.6872C70.1839 24.827 70.1675 24.9585 70.1467 25.0836C70.1261 25.2105 70.0889 25.3162 70.0355 25.4026C69.982 25.4887 69.8953 25.5425 69.7779 25.5661C69.6995 25.5793 69.6375 25.59 69.5902 25.5966C69.5426 25.6029 69.4973 25.6049 69.4562 25.6049C69.4253 25.6049 69.3984 25.6135 69.378 25.6288C69.3573 25.6437 69.345 25.6632 69.345 25.6826C69.345 25.7214 69.3634 25.747 69.3966 25.7624C69.4294 25.7797 69.4748 25.786 69.5304 25.786C69.6067 25.786 69.6912 25.7838 69.7839 25.7797C69.8787 25.7752 69.9717 25.7711 70.0623 25.7665C70.1531 25.7624 70.2332 25.7582 70.3035 25.7536C70.3715 25.7495 70.4189 25.747 70.4456 25.747C70.4786 25.747 70.5489 25.7515 70.6558 25.7581C70.765 25.7644 70.8908 25.7685 71.0352 25.7751C71.1795 25.7817 71.3197 25.7859 71.4599 25.7859C71.5217 25.7859 71.5711 25.7795 71.606 25.7622C71.639 25.747 71.6576 25.7212 71.6576 25.6824C71.6557 25.6629 71.6472 25.6436 71.6288 25.6287C71.6104 25.6135 71.5918 25.6048 71.5711 25.6048C71.5321 25.6048 71.4762 25.6006 71.402 25.5919C71.328 25.5836 71.2455 25.566 71.1507 25.5402C71.0704 25.5207 71.0065 25.4864 70.9612 25.4347C70.9159 25.383 70.8911 25.3138 70.8911 25.2299C70.8911 25.1374 70.8911 25.0446 70.8933 24.9478C70.8933 24.8507 70.8973 24.7603 70.9034 24.6739L71.3241 19.7095H71.3735C71.4126 19.8044 71.4745 19.9421 71.5589 20.1274C71.6415 20.3126 71.7381 20.5238 71.8495 20.7586C71.9587 20.9958 72.0699 21.2371 72.1855 21.4827C72.3007 21.7286 72.4081 21.9568 72.5089 22.1723C72.61 22.3879 72.6926 22.5666 72.7584 22.7088C72.8142 22.8294 72.8843 22.9782 72.9688 23.1506C73.0532 23.3229 73.1438 23.5082 73.2429 23.7063C73.3417 23.905 73.4409 24.101 73.5397 24.2968C73.6385 24.4907 73.7315 24.6717 73.8159 24.8396C73.9024 25.0057 73.9746 25.1458 74.0321 25.2558C74.1022 25.3873 74.158 25.4906 74.1992 25.5641C74.2424 25.637 74.2796 25.689 74.3106 25.7191C74.3413 25.7469 74.3723 25.7621 74.4033 25.7598C74.4343 25.7622 74.4673 25.7469 74.4981 25.7147C74.5291 25.6844 74.5662 25.6263 74.6116 25.5423C74.6547 25.4559 74.7146 25.3356 74.7867 25.1782L77.4085 19.5672H77.4333L77.9526 25.1264C77.965 25.2322 77.9671 25.3203 77.9608 25.3938C77.9526 25.4648 77.9339 25.5058 77.9031 25.5141C77.8783 25.5207 77.8597 25.5336 77.8473 25.5508C77.835 25.5657 77.8288 25.5852 77.8288 25.6045C77.8247 25.6304 77.8455 25.6544 77.8866 25.6736C77.9278 25.693 78.0125 25.7082 78.138 25.7211C78.2206 25.7297 78.3276 25.736 78.4596 25.7426C78.5916 25.7492 78.7358 25.7555 78.8904 25.7597C79.0471 25.7662 79.1977 25.7707 79.3478 25.7748C79.4965 25.7773 79.6284 25.7814 79.7438 25.7834C79.8591 25.7834 79.9416 25.7856 79.9932 25.7856C80.0571 25.7856 80.1087 25.7773 80.152 25.7578C80.1932 25.7402 80.2138 25.7145 80.2159 25.6823C80.2159 25.6564 80.2076 25.6369 80.191 25.624C80.1747 25.6111 80.1541 25.6045 80.1293 25.6045C80.0715 25.6069 79.9788 25.6024 79.8509 25.5916C79.7252 25.5809 79.5832 25.5506 79.4245 25.5011C79.313 25.4601 79.2246 25.3976 79.1544 25.3117C79.0863 25.2277 79.0328 25.1306 78.9936 25.0207C78.9546 24.9108 78.9255 24.7964 78.9072 24.6825C78.8905 24.568 78.876 24.4626 78.8679 24.3634L78.1254 17.6149ZM82.5464 22.5924C82.5464 22.9481 82.5464 23.2756 82.5444 23.5795C82.5423 23.8833 82.5362 24.1528 82.5277 24.3896C82.5196 24.6247 82.5051 24.8186 82.4846 24.9716C82.4702 25.0794 82.4536 25.1741 82.4352 25.2581C82.4185 25.3399 82.3918 25.4068 82.3568 25.4562C82.3218 25.5079 82.2684 25.5404 82.2002 25.5533C82.1486 25.5619 82.0929 25.5707 82.0332 25.5838C81.9736 25.5967 81.9179 25.603 81.8663 25.6051C81.8353 25.6075 81.8126 25.6161 81.8003 25.6355C81.7859 25.655 81.7797 25.6741 81.7797 25.6956C81.7797 25.7278 81.7941 25.7517 81.8249 25.7646C81.8539 25.7798 81.897 25.7861 81.9528 25.7861C82.0415 25.7861 82.1425 25.784 82.2539 25.7778C82.3672 25.7734 82.4764 25.7668 82.5835 25.7602C82.7051 25.7539 82.8083 25.7497 82.8969 25.7497C82.9855 25.7473 83.037 25.7473 83.0537 25.7473C83.134 25.7473 83.2474 25.7473 83.3938 25.7497C83.5399 25.7539 83.7276 25.7602 83.9563 25.7734C84.1789 25.7799 84.4489 25.7883 84.7643 25.7973C85.0797 25.8056 85.4403 25.8122 85.8484 25.8122C85.9867 25.8143 86.0959 25.81 86.1762 25.8014C86.2566 25.7928 86.3164 25.7689 86.3576 25.728C86.399 25.6873 86.4318 25.6204 86.4546 25.5275C86.471 25.4675 86.4874 25.3811 86.504 25.2757C86.5205 25.1678 86.5368 25.0558 86.5513 24.9393C86.568 24.8231 86.5782 24.7218 86.5886 24.6334C86.5989 24.5453 86.603 24.4892 86.603 24.4677C86.603 24.4267 86.5989 24.3879 86.5886 24.3535C86.5782 24.3188 86.5597 24.3018 86.5288 24.2995C86.4979 24.2974 86.4753 24.3102 86.4588 24.3342C86.4421 24.3601 86.4299 24.4032 86.4175 24.4677C86.3968 24.6122 86.3659 24.735 86.3248 24.8319C86.2834 24.929 86.23 25.0105 86.164 25.0732C86.098 25.1357 86.0176 25.1897 85.9228 25.2304C85.8258 25.2692 85.7105 25.2949 85.5787 25.3125C85.4446 25.3295 85.3127 25.3381 85.1807 25.3424C85.0469 25.3469 84.9312 25.3469 84.8345 25.3469C84.5666 25.349 84.3502 25.3361 84.1812 25.3125C84.0122 25.2886 83.8824 25.2456 83.7917 25.1831C83.6987 25.1204 83.6349 25.0323 83.5979 24.9158C83.5608 24.7996 83.54 24.6508 83.536 24.4677C83.5339 24.4201 83.5318 24.3407 83.5318 24.2243C83.5298 24.1081 83.5298 23.9743 83.5298 23.8213C83.5318 23.6683 83.5318 23.5111 83.5318 23.3514C83.534 23.1921 83.534 23.0455 83.534 22.9099C83.5361 22.7763 83.5361 22.6706 83.5361 22.593V21.6752C83.5361 21.6537 83.5401 21.6364 83.5505 21.6212C83.5609 21.6066 83.5793 21.5976 83.6103 21.5976C83.6493 21.5976 83.7215 21.5976 83.8247 21.6C83.9277 21.6 84.047 21.6019 84.183 21.6042C84.3214 21.6066 84.4594 21.6108 84.6016 21.6149C84.7417 21.6194 84.8716 21.6235 84.9871 21.6278C85.1047 21.6344 85.1933 21.6407 85.255 21.6493C85.3932 21.6666 85.5024 21.6923 85.5788 21.7248C85.655 21.757 85.7106 21.7959 85.7435 21.841C85.7786 21.8843 85.8013 21.9336 85.8115 21.9855C85.8363 22.0566 85.8507 22.1212 85.8549 22.1815C85.8609 22.2398 85.863 22.2957 85.8609 22.3473C85.8609 22.3795 85.8673 22.4056 85.8796 22.4228C85.8922 22.4423 85.9106 22.4506 85.9351 22.4506C85.9723 22.4487 85.997 22.4249 86.0136 22.3818C86.028 22.3388 86.0341 22.2913 86.0341 22.2439C86.0341 22.2136 86.0362 22.1577 86.0422 22.0735C86.0465 21.9896 86.0526 21.897 86.0589 21.7977C86.067 21.6965 86.0753 21.6081 86.0835 21.5327C86.098 21.3538 86.1164 21.2137 86.1372 21.1168C86.1578 21.0197 86.1681 20.9552 86.17 20.925C86.17 20.8928 86.1639 20.8689 86.1536 20.856C86.1411 20.841 86.1267 20.8345 86.1082 20.8345C86.0896 20.8345 86.0669 20.8494 86.0421 20.8754C86.0153 20.9035 85.9844 20.9358 85.9472 20.9767C85.8938 21.0326 85.8238 21.0693 85.7373 21.0888C85.6527 21.1061 85.5455 21.121 85.4157 21.132C85.3621 21.1362 85.2734 21.1403 85.1457 21.1449C85.0178 21.1471 84.8716 21.1512 84.709 21.1512C84.5459 21.1534 84.3831 21.1556 84.2244 21.1556C84.0657 21.1578 83.9296 21.1578 83.8162 21.1578C83.7009 21.1578 83.6288 21.1578 83.5979 21.1578C83.569 21.1578 83.5504 21.1471 83.5442 21.1273C83.5381 21.1081 83.534 21.08 83.5361 21.0415V18.0549C83.5361 18.0161 83.5401 17.9856 83.5484 17.9663C83.5568 17.9469 83.5732 17.9385 83.5981 17.9385C83.6248 17.9385 83.6907 17.9385 83.7918 17.9406C83.8928 17.9406 84.0122 17.9428 84.1504 17.945C84.2905 17.9469 84.4307 17.9492 84.5708 17.9513C84.7132 17.9555 84.8367 17.9579 84.9459 17.9621C85.0553 17.9663 85.1296 17.9707 85.1687 17.9773C85.3645 18.0029 85.5128 18.029 85.618 18.0591C85.7232 18.0872 85.7975 18.1213 85.8448 18.1625C85.8924 18.2035 85.9251 18.2531 85.9477 18.3134C85.9725 18.38 85.9891 18.4511 85.9973 18.5267C86.0056 18.5999 86.0097 18.6582 86.0097 18.7012C86.0097 18.7466 86.0159 18.781 86.0303 18.8069C86.0427 18.8305 86.0653 18.8433 86.0964 18.8433C86.1211 18.8411 86.1417 18.8281 86.1603 18.8045C86.1767 18.7808 86.1889 18.7552 86.1953 18.7271C86.2013 18.6924 86.2077 18.6407 86.2137 18.5741C86.2199 18.5051 86.2261 18.434 86.2303 18.3542C86.2365 18.2766 86.2406 18.2055 86.2447 18.1409C86.2509 18.0761 86.2552 18.031 86.2571 18.0029C86.2715 17.8499 86.29 17.7359 86.3105 17.6561C86.3313 17.5784 86.3417 17.5226 86.3435 17.4858C86.3435 17.4577 86.3395 17.434 86.3331 17.4147C86.3251 17.3932 86.3127 17.3822 86.2941 17.3822C86.2693 17.3846 86.2447 17.3911 86.2199 17.404C86.1953 17.4168 86.1705 17.4254 86.1458 17.4342C86.1005 17.4405 86.0344 17.4515 85.9459 17.4664C85.8573 17.4793 85.7582 17.4903 85.6512 17.4987C85.6077 17.5008 85.5151 17.5031 85.379 17.5031C85.2409 17.5031 85.0761 17.505 84.8843 17.505C84.6926 17.505 84.4948 17.5031 84.2886 17.5031C84.0804 17.5031 83.8869 17.5031 83.7055 17.5007C83.5241 17.5007 83.3735 17.5007 83.256 17.4985C83.1365 17.4985 83.0705 17.4985 83.0542 17.4985C83.0355 17.4985 82.9861 17.4964 82.9014 17.4944C82.8148 17.4919 82.712 17.4902 82.5861 17.4858C82.4602 17.4813 82.3283 17.4792 82.1903 17.4772C82.0502 17.475 81.9182 17.473 81.7925 17.473C81.7305 17.473 81.6874 17.4793 81.6606 17.4945C81.6316 17.5074 81.6193 17.5309 81.6193 17.5635C81.6213 17.585 81.6297 17.6045 81.6481 17.6236C81.6665 17.6431 81.6853 17.6519 81.7059 17.6541C81.7408 17.6541 81.7801 17.6541 81.8274 17.6582C81.8728 17.6604 81.9202 17.6624 81.9636 17.6668C82.0089 17.671 82.048 17.6754 82.077 17.68C82.1945 17.6971 82.2851 17.7293 82.3468 17.7769C82.4088 17.8241 82.4519 17.891 82.4747 17.975C82.4995 18.0592 82.516 18.1625 82.5223 18.2874C82.5263 18.3543 82.5304 18.4275 82.5346 18.5029C82.5368 18.5808 82.5409 18.6711 82.5409 18.779C82.543 18.8866 82.545 19.0222 82.545 19.1838C82.547 19.3457 82.547 19.5461 82.547 19.7855C82.547 20.0245 82.547 20.3131 82.547 20.6537L82.5464 22.5924ZM90.0966 19.102C90.1832 19.2012 90.317 19.3542 90.5005 19.5567C90.6839 19.7613 90.9045 20.0048 91.158 20.2872C91.4136 20.5674 91.692 20.8733 91.9907 21.2008C92.2896 21.5303 92.5988 21.8688 92.9163 22.2177C93.1493 22.4722 93.3902 22.7305 93.6418 22.998C93.8932 23.265 94.1385 23.5259 94.3777 23.7759C94.6189 24.028 94.8372 24.2562 95.0352 24.461C95.2332 24.6657 95.3959 24.8337 95.5217 24.9631C95.6475 25.0925 95.7236 25.1677 95.7482 25.1913C95.9482 25.3834 96.1008 25.5274 96.208 25.6245C96.3151 25.7216 96.3957 25.7861 96.4471 25.8186C96.5007 25.8506 96.5441 25.8659 96.5771 25.8638C96.5955 25.8659 96.6098 25.8572 96.6223 25.8423C96.6325 25.8271 96.6429 25.7927 96.6493 25.7407C96.6552 25.6893 96.6595 25.6095 96.6616 25.5038C96.6638 25.3983 96.6638 25.254 96.6638 25.0751L96.6884 18.6367C96.6865 18.4189 96.6924 18.2445 96.7092 18.1131C96.7234 17.9816 96.7586 17.8824 96.814 17.8158C96.8678 17.7489 96.9544 17.7038 97.072 17.6801C97.1337 17.667 97.1871 17.6605 97.2307 17.6562C97.2737 17.6541 97.3069 17.6541 97.3315 17.6541C97.3686 17.6519 97.3995 17.6389 97.4223 17.6174C97.4428 17.5938 97.4551 17.572 97.4551 17.5505C97.4531 17.5183 97.4347 17.4988 97.3976 17.488C97.3604 17.4773 97.315 17.4731 97.2573 17.4731C97.0325 17.4731 96.8366 17.4773 96.674 17.486C96.5092 17.4946 96.3959 17.4989 96.3296 17.4989C96.2867 17.4989 96.2061 17.4968 96.0905 17.4923C95.9732 17.4882 95.837 17.484 95.6804 17.4794C95.5217 17.4753 95.3609 17.4731 95.1919 17.4731C95.1301 17.4731 95.0785 17.4773 95.0415 17.488C95.0023 17.4988 94.9837 17.5183 94.9819 17.5505C94.9819 17.572 94.9859 17.5938 94.9983 17.6174C95.0087 17.6389 95.0333 17.6521 95.0682 17.6541C95.0992 17.6541 95.1425 17.6562 95.2002 17.6582C95.26 17.6624 95.3238 17.6668 95.3942 17.6756C95.4642 17.6819 95.5341 17.6929 95.6001 17.7058C95.7115 17.7253 95.7939 17.7703 95.8517 17.8415C95.9093 17.9105 95.9505 18.018 95.9711 18.1602C95.9939 18.3025 96.0061 18.4922 96.0083 18.7272L96.1197 24.2348C96.0351 24.1422 95.9031 23.9978 95.7281 23.8037C95.5529 23.6099 95.3488 23.3815 95.1116 23.1183C94.8768 22.8579 94.6251 22.5797 94.3573 22.2846C94.0893 21.9914 93.8195 21.6963 93.5474 21.4032C93.2092 21.039 92.8795 20.6836 92.5601 20.3346C92.2406 19.9875 91.9417 19.6602 91.6614 19.3542C91.3813 19.0459 91.1295 18.7722 90.9092 18.5308C90.6906 18.2895 90.5112 18.0915 90.371 17.9405C90.2331 17.7875 90.1465 17.6928 90.1095 17.6539C90.0723 17.613 90.0269 17.5676 89.9775 17.516C89.9281 17.4623 89.8787 17.4169 89.8289 17.378C89.7773 17.3392 89.7301 17.32 89.6889 17.3177C89.6601 17.3156 89.6353 17.3329 89.6125 17.3631C89.5898 17.3954 89.5733 17.4537 89.5589 17.5334C89.5466 17.615 89.5405 17.7294 89.5405 17.874V24.1701C89.5427 24.4997 89.5343 24.7584 89.5219 24.9499C89.5077 25.142 89.4765 25.2819 89.4335 25.3724C89.3881 25.4608 89.3199 25.5169 89.2315 25.5406C89.1489 25.5662 89.0643 25.5838 88.982 25.5923C88.8976 25.6009 88.8334 25.6052 88.7862 25.6052C88.7614 25.6052 88.7408 25.6138 88.7242 25.6311C88.7078 25.6484 88.6996 25.6699 88.6996 25.6956C88.6996 25.7323 88.714 25.7583 88.745 25.7688C88.7736 25.782 88.8172 25.7861 88.8728 25.7861C89.0397 25.7861 89.1963 25.782 89.3427 25.7754C89.4891 25.7688 89.6149 25.7646 89.7178 25.7583C89.8212 25.7517 89.889 25.7473 89.924 25.7473C89.9776 25.7497 90.1032 25.7559 90.3054 25.7668C90.5051 25.7778 90.7629 25.7841 91.074 25.7863C91.136 25.7863 91.1856 25.7799 91.2206 25.7648C91.2534 25.7519 91.2722 25.7281 91.2722 25.6957C91.2722 25.6701 91.2637 25.6484 91.2474 25.6312C91.2308 25.6139 91.2102 25.6053 91.1856 25.6053C91.1504 25.6053 91.105 25.6032 91.0454 25.6012C90.9856 25.597 90.9196 25.5904 90.8474 25.5817C90.7774 25.5709 90.7093 25.558 90.6415 25.5407C90.5424 25.5171 90.4641 25.4653 90.4065 25.3835C90.3467 25.2996 90.3033 25.1721 90.2745 24.9976C90.2457 24.8231 90.2291 24.5863 90.2208 24.2866L90.0966 19.102Z" fill="white"/>
<path d="M102.84 18.1199L104.2 18.1456C104.458 18.1521 104.672 18.1715 104.839 18.2039C105.006 18.2362 105.136 18.2792 105.231 18.3332C105.328 18.387 105.396 18.4494 105.437 18.5206C105.478 18.5917 105.503 18.6693 105.511 18.7533L105.524 18.8697C105.53 18.9451 105.54 18.9967 105.552 19.0248C105.567 19.0528 105.585 19.0657 105.61 19.0636C105.637 19.0636 105.66 19.0507 105.678 19.0272C105.699 19.0012 105.709 18.9666 105.709 18.9215C105.709 18.8868 105.711 18.818 105.715 18.7189C105.719 18.6176 105.723 18.5034 105.728 18.372C105.732 18.2404 105.736 18.1133 105.74 17.9861C105.744 17.8612 105.746 17.7535 105.746 17.6673C105.748 17.633 105.746 17.6049 105.74 17.579C105.736 17.553 105.721 17.5401 105.697 17.538C105.672 17.538 105.635 17.5443 105.584 17.5529C105.534 17.5636 105.468 17.5768 105.388 17.5896C105.303 17.6027 105.196 17.6155 105.068 17.624C104.941 17.6347 104.788 17.6413 104.609 17.6413H100.503C100.459 17.6413 100.389 17.6391 100.294 17.6371C100.202 17.633 100.097 17.6285 99.9813 17.6198C99.8659 17.6135 99.7545 17.6027 99.6492 17.5896C99.505 17.5681 99.3957 17.54 99.3257 17.51C99.2536 17.4796 99.2021 17.4625 99.167 17.4602C99.1544 17.4626 99.1422 17.4754 99.1278 17.499C99.1134 17.5247 99.101 17.5528 99.0866 17.5854C99.0742 17.6176 99.0638 17.6434 99.0556 17.6672C99.0537 17.6867 99.0432 17.7363 99.027 17.8136C99.0102 17.8913 98.9899 17.984 98.9672 18.0917C98.9445 18.1974 98.9218 18.305 98.901 18.4126C98.8782 18.5205 98.8598 18.6152 98.8432 18.6973C98.8288 18.7768 98.8205 18.8308 98.8205 18.8566C98.8229 18.8891 98.8309 18.9106 98.8495 18.9256C98.8659 18.9408 98.8803 18.9471 98.8949 18.9471C98.9195 18.9471 98.9423 18.9429 98.9607 18.93C98.9793 18.9149 98.9937 18.8868 99.0061 18.8437C99.0224 18.8073 99.0389 18.7639 99.0595 18.7122C99.0803 18.6604 99.1193 18.5894 99.1791 18.4947C99.2307 18.4083 99.2987 18.3414 99.3851 18.2921C99.4697 18.2425 99.5851 18.2057 99.7275 18.1842C99.8714 18.1628 100.055 18.1499 100.28 18.1454L101.85 18.1198V22.7349C101.85 23.0906 101.85 23.4181 101.848 23.722C101.846 24.0258 101.842 24.2953 101.836 24.5321C101.83 24.7672 101.817 24.9611 101.801 25.1141C101.784 25.2778 101.756 25.4092 101.71 25.5129C101.665 25.6163 101.589 25.6808 101.479 25.7086C101.43 25.7218 101.376 25.7345 101.319 25.7453C101.263 25.7539 101.209 25.7602 101.158 25.7602C101.127 25.7602 101.104 25.7688 101.092 25.7841C101.077 25.799 101.071 25.8185 101.071 25.8378C101.071 25.8701 101.084 25.894 101.113 25.9069C101.139 25.922 101.183 25.9284 101.245 25.9284C101.329 25.9284 101.43 25.9262 101.549 25.922C101.669 25.9176 101.789 25.9134 101.91 25.9089C102.03 25.9047 102.133 25.9006 102.22 25.896C102.304 25.8918 102.356 25.8894 102.37 25.8894C102.388 25.8894 102.438 25.8918 102.523 25.896C102.609 25.9004 102.716 25.9046 102.844 25.9089C102.974 25.9133 103.114 25.9175 103.266 25.922C103.417 25.9262 103.567 25.9284 103.718 25.9284C103.78 25.9284 103.823 25.92 103.852 25.9024C103.879 25.8854 103.891 25.8639 103.891 25.838C103.893 25.8165 103.887 25.7973 103.877 25.7779C103.864 25.7584 103.842 25.7498 103.804 25.7474C103.769 25.7474 103.724 25.7453 103.664 25.7411C103.606 25.7345 103.547 25.7279 103.483 25.7216C103.419 25.713 103.361 25.7043 103.31 25.6957C103.201 25.6786 103.118 25.644 103.06 25.5944C103.005 25.5427 102.963 25.4782 102.941 25.3963C102.916 25.3165 102.9 25.2218 102.889 25.1139C102.873 24.9609 102.862 24.7671 102.854 24.532C102.848 24.295 102.844 24.0256 102.842 23.7219C102.84 23.418 102.84 23.0906 102.84 22.7348L102.84 18.1199Z" fill="white"/>
</svg>
