<svg width="200" height="80" viewBox="0 0 200 80" fill="none" xmlns="http://www.w3.org/2000/svg">
<path d="M96.4234 14.9831C96.284 14.9137 96.284 14.775 96.284 14.5669V3.4683H92.4504C92.311 3.4683 92.1716 3.39893 92.0322 3.32957C91.8928 3.2602 91.8928 3.12147 91.8928 2.91337V0.554928C91.8928 0.416196 91.9625 0.277464 92.0322 0.138732C92.1716 0 92.2413 0 92.4504 0H104.23C104.369 0 104.509 0.069366 104.648 0.138732C104.788 0.277464 104.788 0.34683 104.788 0.554928V2.98274C104.788 3.12147 104.718 3.2602 104.648 3.39893C104.509 3.4683 104.439 3.53767 104.23 3.53767H100.396V14.6362C100.396 14.775 100.327 14.9137 100.257 15.0524C100.118 15.1218 100.048 15.1912 99.8388 15.1912H96.8416C96.6325 15.1218 96.4931 15.1218 96.4234 14.9831Z" fill="#230b42"/>
<path d="M106.809 14.9831C106.739 14.9137 106.669 14.775 106.669 14.5669V0.554928C106.669 0.416196 106.739 0.277464 106.809 0.138732C106.879 0 107.018 0 107.227 0H110.224C110.364 0 110.503 0.069366 110.642 0.138732C110.782 0.277464 110.782 0.34683 110.782 0.554928V5.68801H115.94V0.554928C115.94 0.416196 116.009 0.277464 116.079 0.138732C116.219 0 116.288 0 116.497 0H119.425C119.564 0 119.704 0.069366 119.843 0.138732C119.982 0.208098 119.982 0.34683 119.982 0.554928V14.5669C119.982 14.7056 119.913 14.8443 119.843 14.9831C119.704 15.0524 119.634 15.1218 119.425 15.1218H116.497C116.358 15.1218 116.219 15.0524 116.079 14.9831C115.94 14.9137 115.94 14.775 115.94 14.5669V9.29504H110.782V14.5669C110.782 14.7056 110.712 14.8443 110.642 14.9831C110.503 15.0524 110.433 15.1218 110.224 15.1218H107.227C107.088 15.1218 106.948 15.1218 106.809 14.9831Z" fill="#230b42"/>
<path d="M123.119 14.9831C122.98 14.8443 122.98 14.775 122.98 14.6362V0.554928C122.98 0.416196 123.049 0.277464 123.119 0.138732C123.189 0 123.328 0 123.468 0H133.783C133.923 0 134.062 0.069366 134.202 0.138732C134.341 0.277464 134.341 0.34683 134.341 0.554928V2.70527C134.341 2.84401 134.271 2.98274 134.202 3.12147C134.062 3.19084 133.993 3.2602 133.783 3.2602H126.883V6.03484H133.296C133.435 6.03484 133.574 6.10421 133.714 6.17357C133.853 6.31231 133.853 6.38167 133.853 6.58977V8.53202C133.853 8.67075 133.783 8.80948 133.714 8.94821C133.574 9.08695 133.505 9.08695 133.296 9.08695H126.883V11.931H133.923C134.062 11.931 134.202 12.0003 134.341 12.0697C134.48 12.1391 134.48 12.2778 134.48 12.4859V14.6362C134.48 14.775 134.411 14.9137 134.341 15.0524C134.202 15.1218 134.132 15.1912 133.923 15.1912H123.468C123.328 15.1218 123.259 15.1218 123.119 14.9831Z" fill="#230b42"/>
<path d="M93.0081 36.4171C92.8687 36.2784 92.8687 36.209 92.8687 36.0703V22.0583C92.8687 21.9196 92.9384 21.7809 93.0081 21.6422C93.0778 21.5034 93.2172 21.5034 93.4263 21.5034H99.1418C101.303 21.5034 102.975 21.989 104.16 23.0295C105.345 24.07 105.973 25.5266 106.042 27.3995C106.042 27.8157 106.042 28.3707 106.042 29.0643C106.042 29.758 106.042 30.3129 106.042 30.7291C105.903 34.683 103.672 36.6252 99.2812 36.6252H93.4263C93.2869 36.6252 93.1475 36.5558 93.0081 36.4171ZM99.1418 33.365C100.048 33.365 100.745 33.1569 101.163 32.7407C101.581 32.3245 101.86 31.6309 101.86 30.6597C101.86 30.2435 101.93 29.6886 101.93 29.0643C101.93 28.44 101.93 27.8851 101.86 27.4689C101.86 26.5671 101.581 25.8735 101.093 25.4573C100.606 25.0411 99.9085 24.7636 99.0024 24.7636H96.9113V33.4344H99.1418V33.365Z" fill="#230b42"/>
<path d="M107.018 36.4865C106.948 36.4171 106.879 36.2784 106.879 36.1397C106.879 36.0703 106.879 36.0009 106.879 35.9316L111.967 22.0584C112.106 21.6422 112.385 21.4341 112.803 21.4341H116.219C116.637 21.4341 116.916 21.6422 117.055 22.0584L122.143 35.9316C122.143 36.0009 122.143 36.0703 122.143 36.1397C122.143 36.2784 122.074 36.3478 122.004 36.4865C121.934 36.5559 121.795 36.6252 121.655 36.6252H118.798C118.449 36.6252 118.17 36.4865 118.031 36.1397L117.264 34.0587H111.549L110.782 36.1397C110.643 36.4865 110.364 36.6252 110.015 36.6252H107.297C107.227 36.6252 107.088 36.5559 107.018 36.4865ZM112.594 30.7985H116.497L114.546 25.2492L112.594 30.7985Z" fill="#230b42"/>
<path d="M125.768 36.4865C125.629 36.4171 125.629 36.2784 125.629 36.0703V24.9717H121.795C121.656 24.9717 121.516 24.9024 121.377 24.833C121.237 24.7637 121.237 24.6249 121.237 24.4168V21.989C121.237 21.8503 121.307 21.7115 121.377 21.5728C121.516 21.4341 121.586 21.4341 121.795 21.4341H133.574C133.714 21.4341 133.853 21.5034 133.993 21.5728C134.132 21.7115 134.132 21.7809 134.132 21.989V24.4168C134.132 24.5556 134.062 24.6943 133.993 24.833C133.853 24.9024 133.784 24.9717 133.574 24.9717H129.741V36.0703C129.741 36.209 129.671 36.3478 129.601 36.4865C129.462 36.5559 129.392 36.6252 129.183 36.6252H126.186C126.047 36.6252 125.907 36.5559 125.768 36.4865Z" fill="#230b42"/>
<path d="M133.365 36.4865C133.296 36.4171 133.226 36.2784 133.226 36.1397C133.226 36.0703 133.226 36.0009 133.226 35.9316L138.314 22.0584C138.453 21.6422 138.732 21.4341 139.15 21.4341H142.566C142.984 21.4341 143.263 21.6422 143.402 22.0584L148.49 35.9316C148.49 36.0009 148.49 36.0703 148.49 36.1397C148.49 36.2784 148.421 36.3478 148.351 36.4865C148.281 36.5559 148.142 36.6252 148.003 36.6252H145.145C144.796 36.6252 144.517 36.4865 144.378 36.1397L143.611 34.0587H137.896L137.129 36.1397C136.99 36.4865 136.711 36.6252 136.362 36.6252H133.505C133.574 36.6252 133.505 36.5559 133.365 36.4865ZM138.941 30.7985H142.845L140.893 25.2492L138.941 30.7985Z" fill="#230b42"/>
<path d="M93.0081 57.9205C92.8687 57.7818 92.8687 57.7125 92.8687 57.5737V43.4924C92.8687 43.3537 92.9384 43.215 93.0081 43.0762C93.0778 42.9375 93.2172 42.9375 93.4263 42.9375H103.672C103.812 42.9375 103.951 43.0069 104.091 43.0762C104.23 43.215 104.23 43.2843 104.23 43.4924V45.6428C104.23 45.7815 104.16 45.9202 104.091 46.059C103.951 46.1283 103.881 46.1977 103.672 46.1977H96.8416V48.9723H103.254C103.394 48.9723 103.533 49.0417 103.672 49.1111C103.812 49.2498 103.812 49.3192 103.812 49.5273V51.4695C103.812 51.6082 103.742 51.747 103.672 51.8857C103.533 52.0244 103.463 52.0244 103.254 52.0244H96.8416V54.7991H103.882C104.021 54.7991 104.16 54.8684 104.3 54.9378C104.439 55.0072 104.439 55.1459 104.439 55.354V57.5044C104.439 57.6431 104.369 57.7818 104.3 57.9205C104.16 57.9899 104.091 58.0593 103.882 58.0593H93.4263C93.2869 58.0593 93.1475 57.9899 93.0081 57.9205Z" fill="#230b42"/>
<path d="M108.133 56.8108C106.948 55.8397 106.321 54.383 106.251 52.4407C106.251 52.0245 106.251 51.4002 106.251 50.5679C106.251 49.6661 106.251 49.0418 106.251 48.6256C106.321 46.7527 106.948 45.296 108.133 44.2555C109.318 43.2151 110.921 42.7295 113.013 42.7295C114.337 42.7295 115.452 42.9376 116.498 43.3538C117.543 43.77 118.31 44.3943 118.937 45.1573C119.564 45.9203 119.843 46.8915 119.843 48.0013C119.843 48.14 119.774 48.2094 119.704 48.3481C119.634 48.4175 119.495 48.4869 119.355 48.4869H116.288C116.079 48.4869 115.94 48.4175 115.87 48.3481C115.801 48.2788 115.661 48.14 115.591 47.9319C115.382 47.2383 115.104 46.7527 114.685 46.4753C114.267 46.1978 113.71 46.0591 113.013 46.0591C111.34 46.0591 110.503 46.9608 110.434 48.7643C110.434 49.1805 110.434 49.7355 110.434 50.5679C110.434 51.4002 110.434 51.9552 110.434 52.4407C110.503 54.2442 111.34 55.146 113.013 55.146C113.71 55.146 114.197 55.0073 114.685 54.7298C115.173 54.4523 115.452 53.9668 115.591 53.2731C115.661 53.065 115.731 52.9263 115.801 52.8569C115.87 52.7876 116.079 52.7182 116.288 52.7182H119.355C119.495 52.7182 119.564 52.7876 119.704 52.8569C119.774 52.9263 119.843 53.065 119.843 53.2038C119.843 54.3136 119.495 55.2154 118.937 56.0478C118.31 56.8108 117.543 57.4351 116.498 57.8513C115.452 58.2675 114.337 58.4756 113.013 58.4756C110.921 58.2675 109.318 57.7819 108.133 56.8108Z" fill="#230b42"/>
<path d="M123.468 56.8108C122.283 55.8396 121.655 54.3829 121.586 52.4407C121.586 52.0245 121.586 51.4002 121.586 50.5678C121.586 49.7354 121.586 49.1111 121.586 48.6949C121.655 46.8221 122.283 45.296 123.468 44.3249C124.653 43.2844 126.325 42.7988 128.347 42.7988C130.368 42.7988 131.971 43.2844 133.156 44.3249C134.341 45.3654 134.968 46.8221 135.038 48.6949C135.038 49.5273 135.108 50.1516 135.108 50.5678C135.108 50.984 135.108 51.6083 135.038 52.4407C134.968 54.3829 134.341 55.8396 133.156 56.8108C131.971 57.7819 130.368 58.3368 128.277 58.3368C126.325 58.2674 124.653 57.7819 123.468 56.8108ZM130.159 54.383C130.577 53.8974 130.856 53.2037 130.856 52.302C130.856 51.4696 130.926 50.8453 130.926 50.4985C130.926 50.1516 130.926 49.5273 130.856 48.7643C130.856 47.7932 130.577 47.0995 130.159 46.6833C129.741 46.1978 129.113 45.9897 128.347 45.9897C127.58 45.9897 126.953 46.1978 126.535 46.6833C126.116 47.1689 125.838 47.8625 125.838 48.7643C125.838 49.1805 125.838 49.7354 125.838 50.4985C125.838 51.2615 125.838 51.8858 125.838 52.302C125.838 53.2731 126.116 53.9668 126.535 54.383C126.953 54.7991 127.58 55.0766 128.347 55.0766C129.113 55.0766 129.741 54.7991 130.159 54.383Z" fill="#230b42"/>
<path d="M137.757 57.9206C137.617 57.7818 137.617 57.7125 137.617 57.5737V43.4924C137.617 43.3537 137.687 43.215 137.757 43.0762C137.826 42.9375 137.966 42.9375 138.175 42.9375H140.614C140.963 42.9375 141.172 43.0762 141.381 43.3537L146.539 51.4001V43.4924C146.539 43.3537 146.609 43.215 146.678 43.0762C146.748 42.9375 146.888 42.9375 147.097 42.9375H149.885C150.024 42.9375 150.163 43.0069 150.303 43.0762C150.442 43.1456 150.442 43.2843 150.442 43.4924V57.5044C150.442 57.6431 150.373 57.7818 150.303 57.9206C150.233 58.0593 150.094 58.0593 149.885 58.0593H147.445C147.097 58.0593 146.887 57.9206 146.678 57.6431L141.451 49.9435V57.5737C141.451 57.7125 141.381 57.8512 141.311 57.9899C141.172 58.0593 141.102 58.1287 140.893 58.1287H138.105C138.035 58.0593 137.896 57.9899 137.757 57.9206Z" fill="#230b42"/>
<path d="M154.694 56.8108C153.509 55.8396 152.882 54.3829 152.812 52.4407C152.812 52.0245 152.812 51.4002 152.812 50.5678C152.812 49.7354 152.812 49.1111 152.812 48.6949C152.882 46.8221 153.509 45.296 154.694 44.3249C155.879 43.2844 157.552 42.7988 159.573 42.7988C161.594 42.7988 163.198 43.2844 164.383 44.3249C165.567 45.3654 166.195 46.8221 166.264 48.6949C166.264 49.5273 166.334 50.1516 166.334 50.5678C166.334 50.984 166.334 51.6083 166.264 52.4407C166.195 54.3829 165.567 55.8396 164.383 56.8108C163.198 57.7819 161.594 58.3368 159.503 58.3368C157.552 58.2674 155.949 57.7819 154.694 56.8108ZM161.385 54.383C161.804 53.8974 162.082 53.2037 162.082 52.302C162.082 51.4696 162.152 50.8453 162.152 50.4985C162.152 50.1516 162.152 49.5273 162.082 48.7643C162.082 47.7932 161.804 47.0995 161.385 46.6833C160.967 46.1978 160.34 45.9897 159.573 45.9897C158.806 45.9897 158.179 46.1978 157.761 46.6833C157.343 47.1689 157.064 47.8625 157.064 48.7643C157.064 49.1805 157.064 49.7354 157.064 50.4985C157.064 51.2615 157.064 51.8858 157.064 52.302C157.064 53.2731 157.343 53.9668 157.761 54.383C158.179 54.7991 158.806 55.0766 159.573 55.0766C160.34 55.0766 160.967 54.7991 161.385 54.383Z" fill="#230b42"/>
<path d="M168.983 57.9206C168.843 57.8512 168.843 57.7125 168.843 57.5044V43.4924C168.843 43.3537 168.913 43.215 168.983 43.0762C169.052 42.9375 169.192 42.9375 169.401 42.9375H171.84C172.189 42.9375 172.468 43.0762 172.607 43.4231L176.371 50.0822L180.135 43.4231C180.274 43.0762 180.553 42.9375 180.902 42.9375H183.341C183.481 42.9375 183.62 43.0069 183.759 43.0762C183.899 43.1456 183.899 43.2843 183.899 43.4924V57.5044C183.899 57.6431 183.829 57.7818 183.759 57.9206C183.62 57.9899 183.55 58.0593 183.341 58.0593H180.553C180.414 58.0593 180.274 57.9899 180.205 57.9206C180.065 57.7818 180.065 57.7125 180.065 57.5737V49.666L177.695 53.9667C177.486 54.3135 177.277 54.4523 176.929 54.4523H175.744C175.465 54.4523 175.186 54.3135 174.977 53.9667L172.677 49.666V57.5737C172.677 57.7125 172.607 57.8512 172.537 57.9899C172.398 58.0593 172.328 58.1287 172.119 58.1287H169.401C169.261 58.0593 169.122 57.9899 168.983 57.9206Z" fill="#230b42"/>
<path d="M191.008 57.9208C190.869 57.782 190.869 57.7127 190.869 57.5739V52.9958L185.85 43.7007C185.781 43.6314 185.781 43.562 185.781 43.4926C185.781 43.3539 185.85 43.2845 185.92 43.1458C185.99 43.0764 186.129 43.0071 186.269 43.0071H189.126C189.336 43.0071 189.475 43.0764 189.614 43.1458C189.754 43.2152 189.823 43.3539 189.893 43.4926L192.89 48.9032L195.887 43.4926C195.957 43.3539 196.027 43.2845 196.166 43.1458C196.306 43.0071 196.445 43.0071 196.654 43.0071H199.512C199.651 43.0071 199.721 43.0764 199.86 43.1458C199.93 43.2152 200 43.3539 200 43.4926C200 43.562 200 43.6314 199.93 43.7007L194.912 52.9958V57.5739C194.912 57.7127 194.842 57.8514 194.772 57.9901C194.633 58.0595 194.563 58.1289 194.354 58.1289H191.357C191.217 58.0595 191.078 57.9901 191.008 57.9208Z" fill="#230b42"/>
<path d="M93.0081 79.3546C92.8687 79.2159 92.8687 79.1465 92.8687 79.0078V64.9265C92.8687 64.7878 92.9384 64.649 93.0081 64.5103C93.0778 64.3716 93.2172 64.3716 93.3566 64.3716H96.4234C96.5628 64.3716 96.7022 64.4409 96.8416 64.5103C96.981 64.5797 96.981 64.7184 96.981 64.9265V76.1638H103.533C103.672 76.1638 103.812 76.2332 103.951 76.3025C104.091 76.4413 104.091 76.5106 104.091 76.7187V79.0078C104.091 79.1465 104.021 79.2853 103.951 79.424C103.812 79.4934 103.742 79.5627 103.533 79.5627H93.4263C93.2869 79.5627 93.1475 79.4934 93.0081 79.3546Z" fill="#230b42"/>
<path d="M104.787 79.424C104.718 79.3546 104.648 79.2159 104.648 79.0772C104.648 79.0078 104.648 78.9384 104.648 78.8691L109.736 64.9959C109.876 64.5797 110.154 64.3716 110.573 64.3716H113.988C114.406 64.3716 114.685 64.5797 114.824 64.9959L119.913 78.8691C119.913 78.9384 119.913 79.0078 119.913 79.0772C119.913 79.2159 119.843 79.2853 119.773 79.424C119.704 79.4934 119.564 79.5627 119.425 79.5627H116.567C116.218 79.5627 115.94 79.424 115.8 79.0772L115.034 76.9962H109.318L108.551 79.0772C108.412 79.424 108.133 79.5627 107.785 79.5627H104.927C104.927 79.5627 104.857 79.4934 104.787 79.424ZM110.363 73.736H114.267L112.315 68.1867L110.363 73.736Z" fill="#230b42"/>
<path d="M121.725 79.3546C121.586 79.2159 121.586 79.1465 121.586 79.0078V64.9265C121.586 64.7878 121.655 64.649 121.725 64.5103C121.795 64.3716 121.934 64.3716 122.143 64.3716H128.835C130.647 64.3716 132.041 64.7184 132.947 65.4814C133.853 66.2445 134.271 67.285 134.271 68.6723C134.271 69.3659 134.062 69.9902 133.714 70.4758C133.365 70.9613 132.947 71.3775 132.459 71.5856C133.086 71.8631 133.574 72.2793 133.993 72.9036C134.411 73.5279 134.62 74.1522 134.62 74.9152C134.62 76.3719 134.132 77.4818 133.156 78.3141C132.18 79.1465 130.786 79.4934 129.044 79.4934H122.143C122.004 79.5627 121.864 79.4934 121.725 79.3546ZM128.416 70.4064C128.974 70.4064 129.392 70.2677 129.671 69.9902C129.95 69.7128 130.089 69.2966 130.089 68.8804C130.089 68.4642 129.95 68.048 129.671 67.7705C129.392 67.493 128.974 67.3543 128.416 67.3543H125.698V70.4064H128.416ZM128.556 76.6494C129.113 76.6494 129.532 76.5106 129.88 76.1638C130.229 75.817 130.368 75.4701 130.368 74.9846C130.368 74.499 130.229 74.0828 129.88 73.736C129.532 73.3892 129.113 73.2504 128.556 73.2504H125.628V76.6494H128.556Z" fill="#230b42"/>
<path d="M38.5016 78.0369C27.0705 78.0369 16.3365 73.0425 8.94811 64.3024L7.62378 62.707L10.8301 60.0017L12.1544 61.5971C18.7063 69.3661 28.3252 73.8055 38.5016 73.8055C48.678 73.8055 58.2969 69.3661 64.8488 61.5971L66.1731 60.0017L69.3794 62.707L68.0551 64.3024C60.6667 73.0425 49.9327 78.0369 38.5016 78.0369Z" fill="#230b42"/>
<path d="M73.9796 54.7299L70.0763 53.3425L70.7733 51.4003C74.2584 41.8971 73.3523 31.3535 68.2641 22.6134C63.1759 13.8039 54.5329 7.76906 44.4958 5.96555L42.4048 5.61872L43.1018 1.52612L45.1928 1.87295C56.4845 3.88457 66.173 10.6131 71.8886 20.463C77.6041 30.313 78.6496 42.1052 74.7463 52.7876L73.9796 54.7299Z" fill="#230b42"/>
<path d="M3.0234 54.7301L2.32638 52.7878C-1.57691 42.1055 -0.531386 30.3133 5.18415 20.4633C10.8997 10.6133 20.5882 3.81545 31.8799 1.8732L33.9709 1.52637L34.6679 5.61896L32.5769 5.96579C22.5398 7.69994 13.8968 13.8041 8.80863 22.5443C3.65071 31.3537 2.74459 41.828 6.22967 51.3312L6.92669 53.2734L3.0234 54.7301Z" fill="#230b42"/>
<path d="M48.5385 49.9431H22.6792V24.1389H48.6082V49.9431H48.5385ZM26.8613 45.7811H44.4261V28.3009H26.8613V45.7811Z" fill="#230b42"/>
<path d="M55.9269 57.2959H32.1587V53.134H51.7448V33.5728H55.9269V57.2959Z" fill="#230b42"/>
</svg>
