<?xml version="1.0" encoding="utf-8"?>
<!-- Generator: Adobe Illustrator 16.0.0, SVG Export Plug-In . SVG Version: 6.00 Build 0)  -->
<!DOCTYPE svg PUBLIC "-//W3C//DTD SVG 1.1//EN" "http://www.w3.org/Graphics/SVG/1.1/DTD/svg11.dtd">
<svg version="1.1" id="Layer_1" xmlns="http://www.w3.org/2000/svg" xmlns:xlink="http://www.w3.org/1999/xlink" x="0px" y="0px"
	 width="141.5px" height="63.5px" viewBox="0 0 141.5 63.5" enable-background="new 0 0 141.5 63.5" xml:space="preserve">
<g>
	<g>
		<g>
			<path fill="#230b42" d="M36.591,51.141c0-1.648,0.771-2.471,2.318-2.471c0.338,0,0.666,0.045,0.982,0.137
				c0.312,0.092,0.471,0.209,0.471,0.348c0,0.102-0.057,0.236-0.166,0.402c-0.107,0.166-0.203,0.25-0.289,0.25
				c-0.014,0-0.061-0.018-0.145-0.055c-0.238-0.111-0.529-0.168-0.873-0.168c-0.801,0-1.203,0.527-1.203,1.576
				c0,1.047,0.396,1.572,1.188,1.572c0.336,0,0.654-0.07,0.961-0.209c0.1-0.047,0.162-0.07,0.178-0.07
				c0.098,0,0.191,0.08,0.281,0.238c0.084,0.162,0.127,0.283,0.127,0.365c0,0.186-0.168,0.33-0.514,0.434
				c-0.342,0.1-0.686,0.152-1.033,0.152c-0.775,0-1.354-0.205-1.727-0.611C36.777,52.627,36.591,51.996,36.591,51.141z"/>
			<path fill="#230b42" d="M44.244,52.998c-0.387-0.426-0.576-1.041-0.576-1.842s0.189-1.416,0.576-1.844
				c0.383-0.43,0.936-0.643,1.652-0.643c0.721,0,1.268,0.213,1.648,0.643c0.385,0.428,0.576,1.043,0.576,1.844
				s-0.191,1.416-0.576,1.842c-0.381,0.43-0.928,0.645-1.648,0.645C45.179,53.643,44.626,53.428,44.244,52.998z M45.05,52.328
				c0.195,0.27,0.477,0.404,0.846,0.404c0.371,0,0.65-0.135,0.84-0.404c0.191-0.27,0.287-0.66,0.287-1.172
				c0-0.514-0.096-0.902-0.287-1.172c-0.189-0.266-0.469-0.4-0.84-0.4c-0.369,0-0.65,0.135-0.846,0.4
				c-0.188,0.27-0.287,0.658-0.287,1.172C44.763,51.668,44.863,52.059,45.05,52.328z"/>
			<path fill="#230b42" d="M51.687,53.379v-4.447c0-0.146,0.141-0.221,0.418-0.221h0.299c0.223,0,0.375,0.062,0.457,0.188
				l1.83,2.812v-2.779c0-0.146,0.135-0.221,0.412-0.221h0.205c0.273,0,0.414,0.074,0.414,0.221v4.447
				c0,0.146-0.141,0.219-0.414,0.219h-0.266c-0.221,0-0.375-0.061-0.457-0.188l-1.863-2.848v2.816c0,0.146-0.139,0.219-0.414,0.219
				h-0.203C51.828,53.598,51.687,53.525,51.687,53.379z"/>
			<path fill="#230b42" d="M59.132,53.029c0-0.107,0.055-0.234,0.16-0.389c0.109-0.152,0.197-0.227,0.271-0.227
				c0.027,0,0.086,0.021,0.18,0.074c0.285,0.162,0.566,0.244,0.84,0.244c0.438,0,0.654-0.17,0.654-0.51
				c0-0.146-0.068-0.27-0.207-0.373c-0.141-0.104-0.311-0.191-0.506-0.268s-0.391-0.166-0.586-0.264
				c-0.195-0.1-0.361-0.252-0.5-0.463c-0.141-0.209-0.211-0.469-0.211-0.781s0.084-0.58,0.254-0.799
				c0.297-0.406,0.764-0.605,1.395-0.605c0.352,0,0.648,0.049,0.889,0.15c0.238,0.104,0.361,0.215,0.361,0.334
				c0,0.102-0.045,0.229-0.133,0.381c-0.086,0.15-0.172,0.223-0.246,0.223c-0.023,0-0.062-0.016-0.129-0.047
				c-0.184-0.084-0.398-0.127-0.643-0.127c-0.24,0-0.41,0.043-0.508,0.127c-0.094,0.084-0.143,0.188-0.143,0.312
				c0,0.123,0.07,0.236,0.209,0.332c0.139,0.1,0.307,0.186,0.5,0.258c0.195,0.074,0.389,0.16,0.586,0.26
				c0.199,0.102,0.365,0.256,0.506,0.463c0.139,0.207,0.209,0.457,0.209,0.748c0,0.289-0.045,0.535-0.137,0.74
				c-0.092,0.207-0.213,0.369-0.373,0.482c-0.305,0.225-0.68,0.336-1.123,0.336c-0.445,0-0.818-0.068-1.121-0.203
				C59.283,53.307,59.132,53.17,59.132,53.029z"/>
			<path fill="#230b42" d="M65.691,51.961v-3.029c0-0.146,0.137-0.221,0.414-0.221h0.234c0.279,0,0.42,0.074,0.42,0.221v2.959
				c0,0.244,0.086,0.445,0.262,0.607c0.178,0.156,0.404,0.234,0.682,0.234s0.506-0.078,0.682-0.234
				c0.18-0.162,0.271-0.363,0.271-0.607v-2.959c0-0.146,0.137-0.221,0.414-0.221h0.229c0.281,0,0.418,0.074,0.418,0.221v3.029
				c0,0.529-0.176,0.945-0.527,1.238c-0.354,0.295-0.85,0.443-1.486,0.443c-0.641,0-1.135-0.148-1.486-0.443
				C65.865,52.906,65.691,52.49,65.691,51.961z"/>
			<path fill="#230b42" d="M73.429,53.307v-4.375c0-0.146,0.141-0.221,0.418-0.221h0.234c0.279,0,0.418,0.074,0.418,0.221v3.744
				h1.553c0.137,0,0.205,0.117,0.205,0.346v0.217c0,0.23-0.068,0.348-0.205,0.348h-2.344C73.525,53.586,73.429,53.49,73.429,53.307z
				"/>
			<path fill="#230b42" d="M80.459,53.379v-3.744h-1.102c-0.141,0-0.211-0.117-0.211-0.35V49.07c0-0.23,0.07-0.344,0.211-0.344
				h3.283c0.139,0,0.209,0.113,0.209,0.344v0.215c0,0.232-0.07,0.35-0.209,0.35h-1.104v3.744c0,0.146-0.137,0.219-0.418,0.219
				h-0.244C80.6,53.598,80.459,53.525,80.459,53.379z"/>
			<path fill="#230b42" d="M86.119,53.379v-4.447c0-0.152,0.139-0.229,0.418-0.229h0.244c0.277,0,0.414,0.076,0.414,0.229v4.447
				c0,0.152-0.137,0.227-0.414,0.227h-0.244C86.258,53.605,86.119,53.531,86.119,53.379z"/>
			<path fill="#230b42" d="M90.9,53.379v-4.447c0-0.146,0.135-0.221,0.414-0.221h0.295c0.227,0,0.379,0.062,0.461,0.188l1.826,2.812
				v-2.779c0-0.146,0.141-0.221,0.42-0.221h0.201c0.275,0,0.416,0.074,0.416,0.221v4.447c0,0.146-0.141,0.219-0.416,0.219H94.25
				c-0.221,0-0.371-0.061-0.457-0.188l-1.861-2.848v2.816c0,0.146-0.139,0.219-0.416,0.219h-0.201
				C91.035,53.598,90.9,53.525,90.9,53.379z"/>
			<path fill="#230b42" d="M98.502,51.141c0-1.648,0.775-2.471,2.318-2.471c0.338,0,0.67,0.047,0.996,0.145
				c0.328,0.092,0.49,0.207,0.49,0.34c0,0.102-0.057,0.236-0.162,0.402c-0.111,0.166-0.205,0.25-0.287,0.25
				c-0.016,0-0.066-0.018-0.154-0.055c-0.254-0.111-0.555-0.168-0.9-0.168c-0.803,0-1.203,0.527-1.203,1.576
				c0,1.047,0.395,1.572,1.189,1.572c0.182,0,0.363-0.018,0.541-0.051v-0.881h-0.611c-0.141,0-0.209-0.115-0.209-0.348v-0.221
				c0-0.232,0.068-0.348,0.209-0.348h1.408c0.184,0,0.279,0.092,0.279,0.275v1.932c0,0.109-0.059,0.207-0.18,0.287
				c-0.117,0.078-0.27,0.133-0.455,0.164c-0.332,0.066-0.66,0.1-0.982,0.1c-0.781,0-1.355-0.205-1.729-0.611
				C98.689,52.627,98.502,51.996,98.502,51.141z"/>
		</g>
		<g>
			<path fill="#230b42" d="M37,26.034c-0.508,0.253-0.959,0.598-1.352,1.035c-0.395,0.436-0.717,0.963-0.973,1.58
				c-0.252,0.621-0.377,1.311-0.377,2.07c0,0,0.051,4.097,0.062,7.414c0.008,2.207,0.275,3.857-0.062,4.146
				c-0.301,0.252-4.658,0.309-4.812,0c-0.152-0.311,0-3.168,0-3.168v-7.466c0-1.686-0.113-3.102-0.338-4.238
				c-0.223-1.144-0.461-2.062-0.715-2.763c-0.312-0.82-0.947-1.435-1.014-1.985c-0.066-0.549,2.992-1.898,3.637-1.724
				c0.25,0.07,0.754,1.022,1.033,1.469c0.227,0.396,0.447,1.055,0.602,1.682c0.152,0.63,0.324,2.091,0.551,1.482
				c0.229-0.604,1.379-2.803,2.447-3.518c1.068-0.72,2.281-1.079,3.627-1.079c0.65,0,2.549,0.379,2.539,0.89
				c-0.016,0.513-0.816,4.038-1.27,4.258c-0.455,0.224-1.365-0.465-2.066-0.465C38.011,25.653,37.501,25.782,37,26.034z"/>
			<path fill="#230b42" d="M42.023,27.299c0.518-1.436,1.236-2.637,2.152-3.608c0.914-0.97,1.99-1.702,3.23-2.195
				c1.236-0.488,2.57-0.736,4.004-0.736c1.266,0,2.342,0.153,3.23,0.465c0.885,0.308,1.607,0.729,2.174,1.267
				c0.561,0.534,0.977,1.166,1.242,1.898c0.268,0.731,0.402,1.517,0.402,2.361c0,1.016-0.283,1.979-0.844,2.893
				c-0.566,0.914-1.373,1.715-2.426,2.402c-1.057,0.695-2.32,1.267-3.82,1.644c-2.188,0.553-4.838,0.564-5.021,0.658
				c-0.236,0.115,0.08,1.105,0.266,1.682c0.184,0.578,0.584,1.234,0.939,1.672c0.348,0.436,0.807,0.781,1.369,1.035
				c0.562,0.252,1.266,0.381,2.111,0.381c0.617,0,1.277-0.072,1.982-0.215c0.703-0.139,1.35-0.309,1.943-0.506
				c0.697-0.227,1.561-0.545,2.062-0.758c0.5-0.215,1.48,2.787,1.27,2.994c-0.215,0.207-1.521,0.689-2.363,0.971
				c-0.734,0.254-1.576,0.48-2.535,0.676c-0.955,0.197-1.967,0.293-3.033,0.293c-1.635,0-3.025-0.248-4.18-0.736
				c-1.152-0.492-2.098-1.189-2.828-2.09c-0.729-0.898-1.266-1.98-1.605-3.248c-0.338-1.266-0.506-2.672-0.506-4.218
				C41.24,30.397,41.501,28.735,42.023,27.299z M48.732,24.704c-0.605,0.438-1.09,1-1.455,1.688
				c-0.365,0.692-0.727,1.706-0.99,2.653c-0.234,0.838-0.473,2.117-0.064,2.266c0.242,0.086,2.496-0.234,3.439-0.531
				c0.939-0.293,1.707-0.658,2.297-1.096c0.594-0.434,1.021-0.908,1.287-1.414c0.27-0.504,0.402-1.012,0.402-1.52
				c0-0.814-0.242-1.468-0.717-1.961c-0.479-0.493-1.111-0.739-1.898-0.739C50.103,24.05,49.339,24.27,48.732,24.704z"/>
			<path fill="#230b42" d="M60.716,27.299c0.521-1.436,1.238-2.637,2.154-3.608c0.912-0.97,1.988-1.702,3.229-2.195
				c1.236-0.488,2.572-0.736,4.008-0.736c1.264,0,2.338,0.153,3.227,0.465c0.889,0.308,1.61,0.729,2.172,1.267
				c0.564,0.534,0.979,1.166,1.244,1.898c0.268,0.731,0.402,1.517,0.402,2.361c0,1.016-0.279,1.979-0.844,2.893
				c-0.566,0.914-1.371,1.715-2.426,2.402c-1.055,0.695-2.323,1.267-3.821,1.644c-2.186,0.553-4.836,0.564-5.021,0.658
				c-0.234,0.115,0.08,1.105,0.262,1.682c0.186,0.578,0.588,1.234,0.943,1.672c0.35,0.436,0.807,0.781,1.371,1.035
				c0.562,0.252,1.264,0.381,2.109,0.381c0.615,0,1.277-0.072,1.982-0.215c0.703-0.139,1.35-0.309,1.94-0.506
				c0.703-0.227,1.564-0.545,2.068-0.758c0.5-0.215,1.479,2.787,1.268,2.994c-0.213,0.207-1.52,0.689-2.363,0.971
				c-0.734,0.254-1.577,0.48-2.536,0.676c-0.955,0.197-1.965,0.293-3.033,0.293c-1.635,0-3.027-0.248-4.18-0.736
				c-1.152-0.492-2.096-1.189-2.826-2.09c-0.73-0.898-1.268-1.98-1.605-3.248c-0.338-1.266-0.508-2.672-0.508-4.218
				C59.933,30.397,60.195,28.735,60.716,27.299z M67.425,24.704c-0.605,0.438-1.09,1-1.453,1.688
				c-0.369,0.692-0.73,1.706-0.992,2.653c-0.236,0.838-0.471,2.117-0.064,2.266c0.244,0.086,2.496-0.234,3.439-0.531
				c0.941-0.293,1.707-0.658,2.297-1.096c0.594-0.434,1.021-0.908,1.289-1.414c0.266-0.504,0.4-1.012,0.4-1.52
				c0-0.814-0.24-1.468-0.717-1.961c-0.48-0.493-1.111-0.739-1.898-0.739C68.796,24.05,68.031,24.27,67.425,24.704z"/>
			<path fill="#230b42" d="M112.113,27.299c0.52-1.436,1.234-2.637,2.152-3.608c0.912-0.97,1.99-1.702,3.227-2.195
				c1.24-0.488,2.572-0.736,4.008-0.736c1.268,0,2.342,0.153,3.229,0.465c0.887,0.308,1.607,0.729,2.174,1.267
				c0.561,0.534,0.979,1.166,1.242,1.898c0.268,0.731,0.404,1.517,0.404,2.361c0,1.016-0.281,1.979-0.846,2.893
				s-1.373,1.715-2.426,2.402c-1.057,0.695-2.32,1.267-3.816,1.644c-2.189,0.553-4.842,0.564-5.023,0.658
				c-0.236,0.115,0.08,1.105,0.262,1.682c0.186,0.578,0.588,1.234,0.943,1.672c0.346,0.436,0.805,0.781,1.367,1.035
				c0.562,0.252,1.268,0.381,2.113,0.381c0.615,0,1.277-0.072,1.982-0.215c0.701-0.139,1.35-0.309,1.941-0.506
				c0.697-0.227,1.562-0.545,2.064-0.758c0.5-0.215,1.479,2.787,1.268,2.994c-0.213,0.207-1.52,0.689-2.361,0.971
				c-0.736,0.254-1.578,0.48-2.535,0.676c-0.955,0.197-1.967,0.293-3.037,0.293c-1.629,0-3.021-0.248-4.176-0.736
				c-1.154-0.492-2.098-1.189-2.828-2.09c-0.73-0.898-1.268-1.98-1.607-3.248c-0.336-1.266-0.504-2.672-0.504-4.218
				C111.33,30.397,111.592,28.735,112.113,27.299z M118.82,24.704c-0.604,0.438-1.09,1-1.451,1.688
				c-0.369,0.692-0.73,1.706-0.994,2.653c-0.232,0.838-0.473,2.117-0.066,2.266c0.244,0.086,2.5-0.234,3.439-0.531
				c0.943-0.293,1.713-0.658,2.301-1.096c0.592-0.434,1.02-0.908,1.289-1.414c0.266-0.504,0.398-1.012,0.398-1.52
				c0-0.814-0.238-1.468-0.715-1.961c-0.479-0.493-1.111-0.739-1.898-0.739C120.193,24.05,119.424,24.27,118.82,24.704z"/>
			<path fill="#230b42" d="M80.824,41.117c-0.762-0.885-1.139-2.016-1.139-3.395v-22.51c0,0,0-2.126,0-2.68
				c0-0.558,4.807-1.656,4.807-0.889c0,0.767,0,3.721,0,3.721V37.26c0,0.646,0.127,1.096,0.383,1.348
				c0.252,0.254,0.617,0.34,1.277,0.385c0.656,0.043,1.553-0.248,2.053-0.344c0.502-0.094,1.062,2.844,0.594,3.039
				c-0.262,0.111-0.773,0.268-1.227,0.379c-0.391,0.115-0.855,0.207-1.391,0.277c-0.535,0.068-1.139,0.105-1.812,0.105
				C82.768,42.449,81.582,42.004,80.824,41.117z"/>
			<path fill="#230b42" d="M91.92,41.117c-0.787-0.885-1.182-2.029-1.182-3.438c0,0,0-15.873,0-16.262
				c0-0.545,1.398-0.55,2.654-0.545c1.143,0.001,2.156,0.112,2.156,0.622c0,0.676,0,15.765,0,15.765c0,0.646,0.098,1.08,0.297,1.307
				c0.197,0.227,0.52,0.43,0.914,0.43c0.113,0,0.527,0.004,1.07-0.178c0.541-0.182,0.9,2.893,0.504,3.039
				c-0.395,0.148-1.127,0.414-1.508,0.467c-0.379,0.053-1.008,0.125-1.486,0.125C93.85,42.449,92.705,42.004,91.92,41.117z"/>
			<path fill="#230b42" d="M101.922,42.279c0-0.787,0-17.596,0-17.596s-3.549,0-3.85,0c-0.332,0-0.188-0.792-0.205-1.617
				c-0.018-0.885-0.061-1.798,0.258-1.8c0.387-0.004,3.668,0,3.668,0c0-0.394-0.023-2.231-0.023-2.625
				c0-1.126,0.15-2.073,0.562-2.946c0.404-0.869,0.953-1.59,1.643-2.15c0.689-0.562,1.49-0.99,2.406-1.287
				c0.912-0.295,1.863-0.443,2.85-0.443c1.096,0,1.994,0.175,2.701,0.527c0.701,0.354,1.498,0.999,1.727,1.246
				c0.23,0.248-1.686,3.05-2.066,2.742c-0.258-0.211-0.344-0.239-0.779-0.465c-0.438-0.225-0.898-0.292-1.291-0.292
				c-0.256,0-0.52-0.011-0.887,0.061c-0.363,0.07-0.715,0.224-1.053,0.462c-0.336,0.242-0.625,0.586-0.865,1.035
				c-0.24,0.45-0.217,1.648-0.217,2.099c0,0.397-0.166,2.037,0.1,2.037c0.197,0,4.508,0,4.926,0c0.674,0-0.062,3.417-0.406,3.417
				c-0.34,0-4.389,0-4.389,0s0,17.025,0,17.596S101.922,43.068,101.922,42.279z"/>
			<path fill="#230b42" d="M95.352,14.651c0.441,0.532,0.662,1.225,0.662,2.065c0,0.848-0.227,1.549-0.68,2.111
				c-0.455,0.564-1.121,0.843-2.004,0.843c-0.83,0-1.471-0.273-1.928-0.821c-0.451-0.55-0.676-1.217-0.676-2.002
				c0-0.875,0.225-1.593,0.676-2.155c0.457-0.562,1.137-0.844,2.043-0.844C94.273,13.849,94.91,14.117,95.352,14.651z"/>
			<path fill="#230b42" d="M63.05,12.575c-0.275,0.378,0.457,0.697,1.203,1.009c0.746,0.313,3.74,1.57,4.291,1.879
				c1.51,0.849,2.711,0.957,4.32,1.058c0.825,0.049,1.881,0.189,1.881,0.189c0.119,0.596,1.385,0.957,0.391,0.95
				c-1.484,0.107-3.231-0.146-4.854-0.093c-1.053,0.035-8.178-2.401-9.107-2.585c-1.557-0.269-4.904-0.451-7.021-0.363
				c-1.123,0.046-4.598,0.805-5.1,0.799c-1.605-0.021-1.814,0.22-3.402,0.355c-1.727,0.146-3.396-0.592-5.025-1.193
				c-2.172-0.802-4.104-0.259-6.145,0.784c-1.408,0.722-4.76,0.803-7.379,1.14l-0.016,0.01l-0.053-0.001
				c-1.506,0.198-2.875,0.295-3.328,1.103L24.4,38.434c0,0,0,3.018,0,3.57c0,0.555-6.256,0.768-6.256,0s0-3.719,0-3.719
				s0.688-17.831,0.572-20.252c-0.115-2.422-5.705-2.806-8.219-2.635c0,0-0.146-0.692,0.061-1.394
				c0.031-0.1,2.988-0.365,3.035-0.445c0.086-0.149-2.814-0.506-2.83-0.653c-0.039-0.494-0.15-0.999,0.49-1.617
				c0.109-0.104,0.217-0.205,0.66-0.091c1.355,0.349,4.48,1.31,6.584,1.009c0.645-0.094,1.838,0.118,2.178,0.135
				c0.34,0.016,1.268,0.097,2.518,0.127c1.254,0.032,3.844-0.062,5.186-0.064c1.344-0.006,3.447-0.486,4.357-1.215
				c2.799-2.244,5.414-2.21,8.543-1.061c3.6,1.319,3.473,1.816,7.209,1.984c2.879,0.128,3.893-0.717,6.197-0.763
				c2.309-0.044,4.197,0.885,6.145-0.192c0.549-0.303,3.508-1.021,3.859-1.247c0.271-0.176,1.379-0.941,2.666-0.006
				c0.312,0.225,0.367,0,0.225,0.24C67.433,10.386,63.277,12.269,63.05,12.575z"/>
		</g>
	</g>
</g>
</svg>
