<svg width="117" height="46" viewBox="0 0 117 46" fill="none" xmlns="http://www.w3.org/2000/svg">
<mask id="mask0_771_4221" style="mask-type:alpha" maskUnits="userSpaceOnUse" x="0" y="9" width="77" height="37">
<path d="M0.194824 9.84991H76.2864V46.0001H0.194824V9.84991Z" fill="#C4C4C4"/>
</mask>
<g mask="url(#mask0_771_4221)">
<path d="M32.9617 7.87366V9.6688H25.1463V45.8282H23.141V33.2109C22.3526 35.1941 21.0328 36.8183 19.1818 38.0835C17.365 39.3144 15.1026 39.9298 12.3946 39.9298C10.098 39.9298 8.04125 39.451 6.22447 38.4938C4.44198 37.5021 3.03656 36.1003 2.00821 34.2879C1.01413 32.4756 0.517093 30.3387 0.517093 27.8768C0.517093 25.5516 1.03127 23.5 2.05963 21.7219C3.12226 19.9439 4.54482 18.5761 6.32731 17.6187C8.14409 16.6271 10.1665 16.1313 12.3946 16.1313C15.1026 16.1313 17.365 16.7639 19.1818 18.029C21.0328 19.26 22.3526 20.8671 23.141 22.8503V9.6688H-5.2417V7.87366H32.9617ZM12.7546 38.1858C15.0512 38.1858 16.9708 37.6902 18.5134 36.6985C20.0902 35.6729 21.2556 34.3906 22.0098 32.8519C22.7639 31.2788 23.141 29.706 23.141 28.1331V28.0818C23.141 26.3721 22.7639 24.748 22.0098 23.2093C21.2899 21.6364 20.1416 20.3542 18.5648 19.3626C17.0222 18.371 15.0855 17.8752 12.7546 17.8752C10.9035 17.8752 9.18958 18.2855 7.61275 19.1061C6.07022 19.9268 4.83621 21.1064 3.91067 22.6451C3.01942 24.1496 2.57381 25.9106 2.57381 27.9281C2.57381 30.0479 3.01942 31.8773 3.91067 33.416C4.80191 34.9546 6.01881 36.1342 7.56135 36.9549C9.10388 37.7755 10.835 38.1858 12.7546 38.1858Z" fill="white"/>
<path d="M32.2784 45.8278V9.66837H24.5142V7.87323H42.1505V9.66837H34.3865V45.8278H32.2784Z" fill="white"/>
<path d="M72.5007 9.66837H64.7587V45.8278H62.6568V33.8259C61.7681 35.7406 60.4009 37.2795 58.5551 38.442C56.7093 39.6046 54.6242 40.186 52.3002 40.186C50.2493 40.186 48.3693 39.7756 46.6604 38.955C44.9854 38.1001 43.6524 36.8863 42.6613 35.3132C41.67 33.7061 41.1743 31.8256 41.1743 29.6713C41.1743 27.4489 41.7213 25.4998 42.8151 23.8244C43.9088 22.1489 45.4298 20.9009 47.3782 20.0802H36.2524V18.3364H54.6585V20.0802H53.0691C51.0524 20.0802 49.2922 20.4905 47.7883 21.3112C46.3184 22.1318 45.1736 23.2602 44.3531 24.6963C43.5671 26.0982 43.1739 27.6711 43.1739 29.415C43.1739 31.2955 43.6013 32.9197 44.4558 34.2875C45.3103 35.6211 46.4553 36.6468 47.8907 37.3648C49.3606 38.0488 50.95 38.3907 52.6589 38.3907C54.539 38.3907 56.2308 37.9462 57.7349 37.0571C59.273 36.1338 60.4691 34.92 61.3238 33.4155C62.2125 31.8769 62.6568 30.2185 62.6568 28.4404V9.66837H32.0996V7.87323H72.5007V9.66837Z" fill="white"/>
<path d="M71.8159 45.8278V9.66837H64.0742V7.87323H81.6598V9.66837H73.9181V45.8278H71.8159Z" fill="white"/>
</g>
<path d="M25.1468 0H23.1377V10.109H25.1468V0Z" fill="white"/>
<path d="M34.3884 0H32.2886V10.109H34.3884V0Z" fill="white"/>
<path d="M64.7585 0H62.6587V10.109H64.7585V0Z" fill="white"/>
<path d="M73.9231 0H71.8232V10.109H73.9231V0Z" fill="white"/>
<path d="M28.8246 9.27722L30.4668 4.29259H32.2146L29.8099 10.7902H27.8158L25.4229 4.29259H27.1824L28.8246 9.27722Z" fill="white"/>
<path d="M40.415 9.86364C40.2351 10.1608 39.9419 10.411 39.5352 10.6143C39.1286 10.8097 38.6907 10.9075 38.2214 10.9075C37.8148 10.9075 37.4473 10.8254 37.1188 10.6612C36.7904 10.497 36.5323 10.2702 36.3446 9.98093C36.1569 9.69163 36.0631 9.35932 36.0631 8.984C36.0631 8.38194 36.286 7.88934 36.7317 7.50621C37.1853 7.12308 37.8617 6.93151 38.761 6.93151H40.415C40.3994 6.5171 40.2781 6.1887 40.0514 5.94631C39.8324 5.69611 39.5274 5.571 39.1364 5.571C38.7923 5.571 38.5069 5.66483 38.2801 5.85249C38.0533 6.03232 37.9086 6.28644 37.8461 6.61484H36.2039C36.2821 6.1457 36.4502 5.72738 36.7083 5.35989C36.9741 4.98457 37.3182 4.69527 37.7405 4.49198C38.1706 4.28086 38.6516 4.17531 39.1833 4.17531C39.7307 4.17531 40.2234 4.28868 40.6613 4.51543C41.1071 4.74218 41.4551 5.06667 41.7053 5.4889C41.9556 5.91113 42.0807 6.40764 42.0807 6.97843V10.7902H40.415V9.86364ZM38.7024 9.58216C38.9761 9.58216 39.242 9.52352 39.5 9.40623C39.7659 9.28895 39.9849 9.11302 40.1569 8.87845C40.329 8.64388 40.415 8.3663 40.415 8.04572V7.99881H38.8549C38.4795 7.99881 38.198 8.07309 38.0103 8.22165C37.8304 8.37021 37.7405 8.56569 37.7405 8.80808C37.7405 9.04265 37.8226 9.2303 37.9868 9.37105C38.1589 9.51179 38.3974 9.58216 38.7024 9.58216Z" fill="white"/>
<path d="M45.1476 7.54139C45.1476 6.86896 45.2844 6.28253 45.5581 5.78211C45.8318 5.27388 46.2111 4.88293 46.696 4.60926C47.1808 4.32778 47.736 4.18703 48.3616 4.18703C49.1671 4.18703 49.8318 4.39033 50.3558 4.79692C50.8875 5.19569 51.2434 5.75866 51.4232 6.48583H49.652C49.5581 6.20434 49.3978 5.98541 49.171 5.82903C48.9521 5.66483 48.6784 5.58273 48.3499 5.58273C47.8807 5.58273 47.5093 5.75475 47.2355 6.09879C46.9618 6.435 46.825 6.91587 46.825 7.54139C46.825 8.1591 46.9618 8.63997 47.2355 8.984C47.5093 9.32022 47.8807 9.48833 48.3499 9.48833C49.0146 9.48833 49.4486 9.19121 49.652 8.59696H51.4232C51.2434 9.30067 50.8875 9.85974 50.3558 10.2741C49.824 10.6886 49.1593 10.8958 48.3616 10.8958C47.736 10.8958 47.1808 10.7589 46.696 10.4853C46.2111 10.2038 45.8318 9.81282 45.5581 9.3124C45.2844 8.80417 45.1476 8.21383 45.1476 7.54139Z" fill="white"/>
<path d="M59.2029 4.19876C59.6955 4.19876 60.1335 4.30823 60.5166 4.52716C60.8998 4.73828 61.197 5.05495 61.4081 5.47717C61.6271 5.89158 61.7366 6.392 61.7366 6.97843V10.7902H60.0944V7.20127C60.0944 6.68521 59.9653 6.29035 59.7073 6.01669C59.4492 5.7352 59.0973 5.59446 58.6515 5.59446C58.198 5.59446 57.8382 5.7352 57.5724 6.01669C57.3143 6.29035 57.1853 6.68521 57.1853 7.20127V10.7902H55.543V2.11108H57.1853V5.10186C57.3964 4.82038 57.6779 4.60144 58.0298 4.44506C58.3817 4.28086 58.7728 4.19876 59.2029 4.19876Z" fill="white"/>
<path d="M69.8298 9.86364C69.65 10.1608 69.3567 10.411 68.9501 10.6143C68.5434 10.8097 68.1055 10.9075 67.6363 10.9075C67.2296 10.9075 66.8621 10.8254 66.5336 10.6612C66.2052 10.497 65.9471 10.2702 65.7594 9.98093C65.5718 9.69163 65.4779 9.35932 65.4779 8.984C65.4779 8.38194 65.7008 7.88934 66.1465 7.50621C66.6001 7.12308 67.2765 6.93151 68.1759 6.93151H69.8298C69.8142 6.5171 69.693 6.1887 69.4662 5.94631C69.2472 5.69611 68.9422 5.571 68.5512 5.571C68.2071 5.571 67.9217 5.66483 67.6949 5.85249C67.4681 6.03232 67.3235 6.28644 67.2609 6.61484H65.6187C65.6969 6.1457 65.865 5.72738 66.1231 5.35989C66.389 4.98457 66.733 4.69527 67.1553 4.49198C67.5854 4.28086 68.0664 4.17531 68.5981 4.17531C69.1456 4.17531 69.6382 4.28868 70.0761 4.51543C70.5219 4.74218 70.8699 5.06667 71.1201 5.4889C71.3704 5.91113 71.4955 6.40764 71.4955 6.97843V10.7902H69.8298V9.86364ZM68.1172 9.58216C68.3909 9.58216 68.6568 9.52352 68.9149 9.40623C69.1807 9.28895 69.3997 9.11302 69.5718 8.87845C69.7438 8.64388 69.8298 8.3663 69.8298 8.04572V7.99881H68.2697C67.8943 7.99881 67.6128 8.07309 67.4251 8.22165C67.2453 8.37021 67.1553 8.56569 67.1553 8.80808C67.1553 9.04265 67.2374 9.2303 67.4017 9.37105C67.5737 9.51179 67.8122 9.58216 68.1172 9.58216Z" fill="white"/>
<path d="M84.1868 16.8892L82.9223 14.6561H82.3804V16.8892H81.2308V11.1586H83.3822C83.8256 11.1586 84.2033 11.238 84.5153 11.3967C84.8273 11.55 85.06 11.7607 85.2132 12.0289C85.372 12.2916 85.4514 12.5872 85.4514 12.9156C85.4514 13.2932 85.3419 13.6353 85.1229 13.9418C84.9039 14.2428 84.5782 14.4508 84.1458 14.5658L85.517 16.8892H84.1868ZM82.3804 13.794H83.3411C83.6531 13.794 83.8858 13.7201 84.039 13.5724C84.1923 13.4191 84.269 13.2084 84.269 12.9402C84.269 12.6775 84.1923 12.475 84.039 12.3327C83.8858 12.1849 83.6531 12.111 83.3411 12.111H82.3804V13.794Z" fill="white"/>
<path d="M90.3914 14.5165C90.3914 14.6807 90.3804 14.8285 90.3585 14.9598H87.033C87.0604 15.2882 87.1754 15.5455 87.3779 15.7316C87.5804 15.9177 87.8295 16.0107 88.1251 16.0107C88.5521 16.0107 88.8559 15.8274 89.0365 15.4607H90.2764C90.145 15.8985 89.8932 16.2598 89.521 16.5444C89.1488 16.8235 88.6917 16.9631 88.1497 16.9631C87.7118 16.9631 87.3177 16.8673 86.9673 16.6757C86.6225 16.4787 86.3515 16.2023 86.1544 15.8465C85.9628 15.4908 85.867 15.0803 85.867 14.615C85.867 14.1443 85.9628 13.7311 86.1544 13.3753C86.346 13.0196 86.6143 12.7459 86.9591 12.5543C87.304 12.3628 87.7009 12.267 88.1497 12.267C88.5822 12.267 88.9681 12.36 89.3075 12.5461C89.6524 12.7322 89.9179 12.9977 90.104 13.3425C90.2956 13.6818 90.3914 14.0732 90.3914 14.5165ZM89.2008 14.1881C89.1953 13.8926 89.0885 13.6572 88.8805 13.4821C88.6725 13.3014 88.418 13.2111 88.1169 13.2111C87.8322 13.2111 87.5914 13.2987 87.3943 13.4738C87.2027 13.6435 87.085 13.8816 87.0412 14.1881H89.2008Z" fill="white"/>
<path d="M92.6428 16.9631C92.2705 16.9631 91.9366 16.8974 91.641 16.766C91.3454 16.6292 91.11 16.4459 90.9348 16.216C90.7652 15.9861 90.6721 15.7316 90.6557 15.4524H91.8134C91.8353 15.6276 91.9202 15.7726 92.068 15.8876C92.2213 16.0025 92.4101 16.06 92.6346 16.06C92.8535 16.06 93.0232 16.0162 93.1436 15.9286C93.2695 15.8411 93.3325 15.7288 93.3325 15.592C93.3325 15.4442 93.2559 15.3348 93.1026 15.2636C92.9548 15.187 92.7167 15.1049 92.3882 15.0173C92.0488 14.9352 91.7696 14.8504 91.5507 14.7628C91.3372 14.6752 91.1511 14.5411 90.9923 14.3605C90.8391 14.1799 90.7624 13.9363 90.7624 13.6298C90.7624 13.3781 90.8336 13.1482 90.9759 12.9402C91.1237 12.7322 91.3317 12.568 91.5999 12.4476C91.8737 12.3272 92.1939 12.267 92.5607 12.267C93.1026 12.267 93.535 12.4038 93.858 12.6775C94.181 12.9457 94.3589 13.3096 94.3917 13.7694H93.2914C93.275 13.5888 93.1984 13.4465 93.0615 13.3425C92.9302 13.233 92.7522 13.1783 92.5278 13.1783C92.3198 13.1783 92.1583 13.2166 92.0434 13.2932C91.9339 13.3698 91.8791 13.4766 91.8791 13.6134C91.8791 13.7667 91.9558 13.8843 92.109 13.9664C92.2623 14.0431 92.5004 14.1224 92.8234 14.2045C93.1519 14.2866 93.4228 14.3715 93.6363 14.459C93.8498 14.5466 94.0332 14.6834 94.1865 14.8695C94.3452 15.0502 94.4273 15.291 94.4328 15.592C94.4328 15.8547 94.3589 16.0901 94.2111 16.2981C94.0688 16.5061 93.8607 16.6703 93.587 16.7907C93.3188 16.9056 93.0041 16.9631 92.6428 16.9631Z" fill="white"/>
<path d="M97.0679 16.9631C96.63 16.9631 96.2359 16.8673 95.8855 16.6757C95.5352 16.4787 95.2587 16.2023 95.0562 15.8465C94.8591 15.4908 94.7606 15.0803 94.7606 14.615C94.7606 14.1498 94.8619 13.7393 95.0644 13.3835C95.2724 13.0278 95.5543 12.7541 95.9101 12.5625C96.266 12.3655 96.6628 12.267 97.1008 12.267C97.5387 12.267 97.9356 12.3655 98.2914 12.5625C98.6472 12.7541 98.9264 13.0278 99.1289 13.3835C99.3369 13.7393 99.4409 14.1498 99.4409 14.615C99.4409 15.0803 99.3342 15.4908 99.1207 15.8465C98.9127 16.2023 98.628 16.4787 98.2667 16.6757C97.9109 16.8673 97.5113 16.9631 97.0679 16.9631ZM97.0679 15.9615C97.2759 15.9615 97.4703 15.9122 97.6509 15.8137C97.837 15.7097 97.9848 15.5564 98.0943 15.3539C98.2038 15.1514 98.2585 14.9051 98.2585 14.615C98.2585 14.1826 98.1436 13.8515 97.9137 13.6216C97.6892 13.3863 97.4128 13.2686 97.0843 13.2686C96.7559 13.2686 96.4795 13.3863 96.255 13.6216C96.0361 13.8515 95.9266 14.1826 95.9266 14.615C95.9266 15.0474 96.0333 15.3813 96.2468 15.6166C96.4658 15.8465 96.7395 15.9615 97.0679 15.9615Z" fill="white"/>
<path d="M104.25 12.3409V16.8892H103.092V16.3145C102.945 16.5115 102.75 16.6675 102.509 16.7825C102.274 16.8919 102.017 16.9467 101.738 16.9467C101.382 16.9467 101.067 16.8728 100.793 16.725C100.52 16.5717 100.303 16.3501 100.145 16.06C99.9913 15.7644 99.9147 15.4141 99.9147 15.0091V12.3409H101.064V14.8449C101.064 15.2061 101.155 15.4853 101.335 15.6823C101.516 15.8739 101.762 15.9697 102.074 15.9697C102.392 15.9697 102.641 15.8739 102.821 15.6823C103.002 15.4853 103.092 15.2061 103.092 14.8449V12.3409H104.25Z" fill="white"/>
<path d="M106.205 13.0469C106.353 12.8061 106.545 12.6173 106.78 12.4804C107.021 12.3436 107.295 12.2752 107.601 12.2752V13.4821H107.298C106.936 13.4821 106.663 13.5669 106.476 13.7366C106.296 13.9062 106.205 14.2018 106.205 14.6232V16.8892H105.056V12.3409H106.205V13.0469Z" fill="white"/>
<path d="M107.752 14.615C107.752 14.1443 107.847 13.7338 108.039 13.3835C108.231 13.0278 108.496 12.7541 108.835 12.5625C109.175 12.3655 109.564 12.267 110.001 12.267C110.565 12.267 111.031 12.4093 111.397 12.6939C111.77 12.973 112.019 13.3671 112.145 13.8761H110.905C110.839 13.6791 110.727 13.5258 110.568 13.4164C110.415 13.3014 110.223 13.244 109.993 13.244C109.665 13.244 109.405 13.3644 109.213 13.6052C109.022 13.8406 108.926 14.1772 108.926 14.615C108.926 15.0474 109.022 15.384 109.213 15.6249C109.405 15.8602 109.665 15.9779 109.993 15.9779C110.459 15.9779 110.762 15.7699 110.905 15.3539H112.145C112.019 15.8465 111.77 16.2379 111.397 16.528C111.025 16.818 110.56 16.9631 110.001 16.9631C109.564 16.9631 109.175 16.8673 108.835 16.6757C108.496 16.4787 108.231 16.205 108.039 15.8547C107.847 15.499 107.752 15.0857 107.752 14.615Z" fill="white"/>
<path d="M116.887 14.5165C116.887 14.6807 116.876 14.8285 116.854 14.9598H113.529C113.556 15.2882 113.671 15.5455 113.874 15.7316C114.076 15.9177 114.325 16.0107 114.621 16.0107C115.048 16.0107 115.352 15.8274 115.532 15.4607H116.772C116.641 15.8985 116.389 16.2598 116.017 16.5444C115.644 16.8235 115.187 16.9631 114.645 16.9631C114.207 16.9631 113.813 16.8673 113.463 16.6757C113.118 16.4787 112.847 16.2023 112.65 15.8465C112.458 15.4908 112.363 15.0803 112.363 14.615C112.363 14.1443 112.458 13.7311 112.65 13.3753C112.842 13.0196 113.11 12.7459 113.455 12.5543C113.8 12.3628 114.196 12.267 114.645 12.267C115.078 12.267 115.464 12.36 115.803 12.5461C116.148 12.7322 116.413 12.9977 116.6 13.3425C116.791 13.6818 116.887 14.0732 116.887 14.5165ZM115.696 14.1881C115.691 13.8926 115.584 13.6572 115.376 13.4821C115.168 13.3014 114.914 13.2111 114.613 13.2111C114.328 13.2111 114.087 13.2987 113.89 13.4738C113.698 13.6435 113.581 13.8816 113.537 14.1881H115.696Z" fill="white"/>
<path d="M80.9517 23.164C80.9517 22.6002 81.0776 22.0967 81.3294 21.6533C81.5867 21.2045 81.9343 20.8569 82.3722 20.6107C82.8156 20.3589 83.311 20.233 83.8584 20.233C84.4989 20.233 85.06 20.3972 85.5417 20.7256C86.0234 21.054 86.3601 21.5083 86.5516 22.0884H85.2297C85.0983 21.8148 84.9122 21.6095 84.6713 21.4727C84.4359 21.3359 84.1622 21.2674 83.8502 21.2674C83.5163 21.2674 83.2179 21.3468 82.9552 21.5055C82.6979 21.6588 82.4954 21.8777 82.3476 22.1623C82.2052 22.4469 82.1341 22.7808 82.1341 23.164C82.1341 23.5416 82.2052 23.8755 82.3476 24.1656C82.4954 24.4502 82.6979 24.6718 82.9552 24.8306C83.2179 24.9838 83.5163 25.0605 83.8502 25.0605C84.1622 25.0605 84.4359 24.992 84.6713 24.8552C84.9122 24.7129 85.0983 24.5049 85.2297 24.2312H86.5516C86.3601 24.8169 86.0234 25.2739 85.5417 25.6023C85.0654 25.9252 84.5043 26.0867 83.8584 26.0867C83.311 26.0867 82.8156 25.9636 82.3722 25.7173C81.9343 25.4655 81.5867 25.1179 81.3294 24.6746C81.0776 24.2312 80.9517 23.7277 80.9517 23.164Z" fill="white"/>
<path d="M91.4338 23.6648C91.4338 23.829 91.4229 23.9767 91.401 24.1081H88.0755C88.1028 24.4365 88.2178 24.6937 88.4203 24.8798C88.6229 25.0659 88.8719 25.159 89.1675 25.159C89.5945 25.159 89.8983 24.9756 90.079 24.6089H91.3188C91.1875 25.0468 90.9357 25.408 90.5634 25.6926C90.1912 25.9718 89.7341 26.1113 89.1922 26.1113C88.7542 26.1113 88.3601 26.0155 88.0098 25.824C87.6649 25.6269 87.3939 25.3505 87.1969 24.9948C87.0053 24.639 86.9095 24.2285 86.9095 23.7633C86.9095 23.2926 87.0053 22.8793 87.1969 22.5236C87.3885 22.1678 87.6567 21.8941 88.0016 21.7026C88.3464 21.511 88.7433 21.4152 89.1922 21.4152C89.6246 21.4152 90.0105 21.5083 90.3499 21.6944C90.6948 21.8805 90.9603 22.1459 91.1464 22.4907C91.338 22.8301 91.4338 23.2214 91.4338 23.6648ZM90.2432 23.3364C90.2377 23.0408 90.131 22.8054 89.923 22.6303C89.7149 22.4497 89.4604 22.3594 89.1593 22.3594C88.8747 22.3594 88.6338 22.4469 88.4367 22.6221C88.2451 22.7918 88.1275 23.0299 88.0837 23.3364H90.2432Z" fill="white"/>
<path d="M94.4652 21.4234C95.0072 21.4234 95.4451 21.5958 95.779 21.9407C96.1129 22.28 96.2799 22.7562 96.2799 23.3692V26.0374H95.1303V23.5252C95.1303 23.164 95.04 22.8875 94.8594 22.696C94.6787 22.4989 94.4324 22.4004 94.1204 22.4004C93.8029 22.4004 93.5511 22.4989 93.365 22.696C93.1843 22.8875 93.094 23.164 93.094 23.5252V26.0374H91.9444V21.4891H93.094V22.0556C93.2473 21.8586 93.4416 21.7053 93.677 21.5958C93.9178 21.4809 94.1806 21.4234 94.4652 21.4234Z" fill="white"/>
<path d="M98.383 22.4333V24.6335C98.383 24.7868 98.4186 24.899 98.4898 24.9701C98.5664 25.0358 98.6923 25.0687 98.8675 25.0687H99.4012V26.0374H98.6786C97.7097 26.0374 97.2253 25.5667 97.2253 24.6253V22.4333H96.6833V21.4891H97.2253V20.3644H98.383V21.4891H99.4012V22.4333H98.383Z" fill="white"/>
<path d="M108.31 23.6648C108.31 23.829 108.299 23.9767 108.277 24.1081H104.952C104.979 24.4365 105.094 24.6937 105.297 24.8798C105.499 25.0659 105.748 25.159 106.044 25.159C106.471 25.159 106.775 24.9756 106.955 24.6089H108.195C108.064 25.0468 107.812 25.408 107.44 25.6926C107.068 25.9718 106.61 26.1113 106.069 26.1113C105.631 26.1113 105.236 26.0155 104.886 25.824C104.541 25.6269 104.27 25.3505 104.073 24.9948C103.882 24.639 103.786 24.2285 103.786 23.7633C103.786 23.2926 103.882 22.8793 104.073 22.5236C104.265 22.1678 104.533 21.8941 104.878 21.7026C105.223 21.511 105.62 21.4152 106.069 21.4152C106.501 21.4152 106.887 21.5083 107.226 21.6944C107.571 21.8805 107.837 22.1459 108.023 22.4907C108.214 22.8301 108.31 23.2214 108.31 23.6648ZM107.12 23.3364C107.114 23.0408 107.007 22.8054 106.799 22.6303C106.591 22.4497 106.337 22.3594 106.036 22.3594C105.751 22.3594 105.51 22.4469 105.313 22.6221C105.121 22.7918 105.004 23.0299 104.96 23.3364H107.12Z" fill="white"/>
<path d="M101.607 22.1952C101.755 21.9543 101.946 21.7655 102.181 21.6287C102.422 21.4919 102.696 21.4234 103.003 21.4234V22.6303H102.699C102.337 22.6303 102.064 22.7151 101.878 22.8848C101.697 23.0545 101.607 23.35 101.607 23.7715V26.0374H100.457V21.4891H101.607V22.1952Z" fill="white"/>
<path d="M84.7698 29.4551V30.3829H82.3804V31.8524H84.2115V32.7638H82.3804V35.1857H81.2308V29.4551H84.7698Z" fill="white"/>
<path d="M87.2765 35.2596C86.8385 35.2596 86.4444 35.1638 86.0941 34.9722C85.7437 34.7752 85.4673 34.4988 85.2647 34.143C85.0677 33.7873 84.9691 33.3768 84.9691 32.9115C84.9691 32.4463 85.0704 32.0358 85.273 31.68C85.481 31.3243 85.7629 31.0506 86.1187 30.859C86.4745 30.662 86.8714 30.5635 87.3093 30.5635C87.7472 30.5635 88.1441 30.662 88.4999 30.859C88.8557 31.0506 89.1349 31.3243 89.3375 31.68C89.5455 32.0358 89.6495 32.4463 89.6495 32.9115C89.6495 33.3768 89.5427 33.7873 89.3293 34.143C89.1212 34.4988 88.8366 34.7752 88.4753 34.9722C88.1195 35.1638 87.7199 35.2596 87.2765 35.2596ZM87.2765 34.258C87.4845 34.258 87.6788 34.2087 87.8595 34.1102C88.0456 34.0062 88.1934 33.8529 88.3029 33.6504C88.4123 33.4479 88.4671 33.2016 88.4671 32.9115C88.4671 32.4791 88.3521 32.148 88.1222 31.9181C87.8978 31.6828 87.6213 31.5651 87.2929 31.5651C86.9644 31.5651 86.688 31.6828 86.4636 31.9181C86.2446 32.148 86.1351 32.4791 86.1351 32.9115C86.1351 33.3439 86.2419 33.6778 86.4554 33.9131C86.6743 34.143 86.948 34.258 87.2765 34.258Z" fill="white"/>
<path d="M91.3138 31.3434C91.4616 31.1026 91.6532 30.9138 91.8886 30.7769C92.1295 30.6401 92.4032 30.5717 92.7097 30.5717V31.7786H92.4059C92.0446 31.7786 91.7709 31.8634 91.5848 32.0331C91.4042 32.2027 91.3138 32.4983 91.3138 32.9197V35.1857H90.1643V30.6374H91.3138V31.3434Z" fill="white"/>
<path d="M98.7743 31.1792C98.6429 30.9384 98.4623 30.755 98.2324 30.6292C98.0024 30.5033 97.7342 30.4403 97.4277 30.4403C97.0883 30.4403 96.7872 30.517 96.5244 30.6702C96.2617 30.8235 96.0564 31.0424 95.9086 31.327C95.7608 31.6116 95.6869 31.94 95.6869 32.3122C95.6869 32.6953 95.7608 33.0292 95.9086 33.3138C96.0619 33.5984 96.2726 33.8174 96.5409 33.9706C96.8091 34.1239 97.1211 34.2005 97.4769 34.2005C97.9149 34.2005 98.2734 34.0856 98.5526 33.8557C98.8318 33.6203 99.0152 33.2947 99.1027 32.8787H97.1321V32.0002H100.236V33.0018C100.159 33.4014 99.995 33.7708 99.7432 34.1102C99.4914 34.4495 99.1657 34.7232 98.7661 34.9312C98.3719 35.1337 97.9285 35.235 97.4359 35.235C96.883 35.235 96.3821 35.1118 95.9332 34.8655C95.4898 34.6137 95.1395 34.2662 94.8822 33.8228C94.6304 33.3795 94.5045 32.876 94.5045 32.3122C94.5045 31.7485 94.6304 31.2449 94.8822 30.8016C95.1395 30.3528 95.4898 30.0052 95.9332 29.7589C96.3821 29.5071 96.8803 29.3812 97.4277 29.3812C98.0736 29.3812 98.6347 29.54 99.1109 29.8574C99.5872 30.1694 99.9156 30.61 100.096 31.1792H98.7743Z" fill="white"/>
<path d="M101.341 30.0955C101.138 30.0955 100.969 30.0326 100.832 29.9067C100.7 29.7753 100.635 29.6139 100.635 29.4223C100.635 29.2307 100.7 29.072 100.832 28.9461C100.969 28.8148 101.138 28.7491 101.341 28.7491C101.543 28.7491 101.71 28.8148 101.842 28.9461C101.979 29.072 102.047 29.2307 102.047 29.4223C102.047 29.6139 101.979 29.7753 101.842 29.9067C101.71 30.0326 101.543 30.0955 101.341 30.0955ZM101.907 30.6374V35.1857H100.758V30.6374H101.907Z" fill="white"/>
<path d="M103.864 31.3434C104.012 31.1026 104.204 30.9138 104.439 30.7769C104.68 30.6401 104.954 30.5717 105.26 30.5717V31.7786H104.956C104.595 31.7786 104.321 31.8634 104.135 32.0331C103.955 32.2027 103.864 32.4983 103.864 32.9197V35.1857H102.715V30.6374H103.864V31.3434Z" fill="white"/>
<path d="M106.856 29.1103V35.1857H105.706V29.1103H106.856Z" fill="white"/>
<path d="M109.404 35.2596C109.031 35.2596 108.698 35.1939 108.402 35.0625C108.106 34.9257 107.871 34.7424 107.696 34.5125C107.526 34.2826 107.433 34.0281 107.417 33.7489H108.574C108.596 33.9241 108.681 34.0691 108.829 34.1841C108.982 34.299 109.171 34.3565 109.396 34.3565C109.614 34.3565 109.784 34.3127 109.905 34.2251C110.031 34.1376 110.093 34.0254 110.093 33.8885C110.093 33.7407 110.017 33.6313 109.864 33.5601C109.716 33.4835 109.478 33.4014 109.149 33.3138C108.81 33.2317 108.531 33.1469 108.312 33.0593C108.098 32.9717 107.912 32.8376 107.753 32.657C107.6 32.4764 107.523 32.2328 107.523 31.9263C107.523 31.6746 107.595 31.4447 107.737 31.2367C107.885 31.0287 108.093 30.8645 108.361 30.7441C108.635 30.6237 108.955 30.5635 109.322 30.5635C109.864 30.5635 110.296 30.7003 110.619 30.974C110.942 31.2422 111.12 31.6061 111.153 32.0659H110.052C110.036 31.8853 109.959 31.743 109.822 31.639C109.691 31.5295 109.513 31.4748 109.289 31.4748C109.081 31.4748 108.919 31.5131 108.804 31.5897C108.695 31.6664 108.64 31.7731 108.64 31.9099C108.64 32.0632 108.717 32.1808 108.87 32.2629C109.023 32.3396 109.261 32.4189 109.584 32.501C109.913 32.5831 110.184 32.668 110.397 32.7555C110.611 32.8431 110.794 32.9799 110.947 33.166C111.106 33.3467 111.188 33.5875 111.194 33.8885C111.194 34.1512 111.12 34.3866 110.972 34.5946C110.83 34.8026 110.622 34.9668 110.348 35.0872C110.08 35.2021 109.765 35.2596 109.404 35.2596Z" fill="white"/>
</svg>
