<svg width="180" height="58" viewBox="0 0 180 58" fill="none" xmlns="http://www.w3.org/2000/svg">
<path fill-rule="evenodd" clip-rule="evenodd" d="M12.9617 0.0957031L35.4083 56.779L58.1194 0.0957031H12.9617Z" fill="#E5097F"/>
<path fill-rule="evenodd" clip-rule="evenodd" d="M0 23.4492L31.1758 56.779L10.2786 23.4492H0Z" fill="#00A0E3"/>
<path fill-rule="evenodd" clip-rule="evenodd" d="M5.06372 11.6211L33.4432 56.7788L15.4557 11.6211H5.06372Z" fill="#FFED00"/>
<path fill-rule="evenodd" clip-rule="evenodd" d="M70.7786 23.4492L39.6028 56.779L60.5 23.4492H70.7786Z" fill="#00A0E3"/>
<path fill-rule="evenodd" clip-rule="evenodd" d="M65.7527 11.6211L37.3354 56.7788L55.3607 11.6211H65.7527Z" fill="#FFED00"/>
<path fill-rule="evenodd" clip-rule="evenodd" d="M30.5685 10.1478H25.5803V8.97631C25.5803 7.61591 25.7315 6.59561 26.0338 5.83983C26.3361 5.12185 26.9785 4.44165 27.9232 3.87481C28.868 3.30798 30.0772 3.04346 31.5888 3.04346C33.4026 3.04346 34.763 3.34577 35.67 3.98818C36.5769 4.63059 37.1437 5.42416 37.3327 6.33109C37.5216 7.27581 37.5972 9.16526 37.5972 12.075V20.8798H32.4201V19.3305C32.08 19.9729 31.6643 20.4263 31.1731 20.7287C30.644 21.031 30.0394 21.1821 29.3214 21.1821C28.3767 21.1821 27.5453 20.9176 26.7518 20.3886C25.996 19.8595 25.5803 18.7258 25.5803 16.9498V15.5138C25.5803 14.1912 25.7693 13.322 26.1849 12.8308C26.6006 12.3395 27.6209 11.8105 29.2458 11.1681C30.9841 10.4879 31.9289 10.0344 32.0422 9.76988C32.1556 9.54314 32.2312 9.05189 32.2312 8.3339C32.2312 7.42697 32.1556 6.82234 32.0422 6.55782C31.8911 6.2933 31.6643 6.14215 31.362 6.14215C30.9841 6.14215 30.7952 6.25551 30.6818 6.48225C30.6062 6.70898 30.5685 7.3136 30.5685 8.29611V10.1478ZM32.269 12.5663C31.3998 13.2087 30.9086 13.6999 30.7952 14.1534C30.644 14.5691 30.6062 15.1737 30.6062 15.9673C30.6062 16.8742 30.6818 17.441 30.7952 17.7055C30.9086 17.9701 31.1353 18.0834 31.5132 18.0834C31.8533 18.0834 32.08 17.9701 32.1556 17.7811C32.269 17.5922 32.3067 17.0253 32.3067 16.1562V12.5663H32.269Z" fill="#FEFEFE"/>
<path fill-rule="evenodd" clip-rule="evenodd" d="M39.0332 22.202C39.0332 21.1817 38.9954 20.5393 38.9198 20.3125C38.8442 20.0858 38.6175 19.9724 38.2774 19.9724C37.9373 19.9724 37.7106 20.0858 37.635 20.3503C37.5216 20.6148 37.4838 21.2195 37.4838 22.202V29.1551C37.4838 30.1754 37.5216 30.7801 37.635 31.0446C37.7483 31.3091 37.9373 31.4225 38.2774 31.4225C38.6175 31.4225 38.8064 31.3091 38.882 31.0824C38.9576 30.8556 38.9954 30.2888 38.9954 29.3819V22.202H39.0332ZM37.5594 17.3272L37.4838 18.801C37.9373 18.1964 38.4285 17.7429 38.9954 17.4784C39.5622 17.1761 40.129 17.0249 40.7715 17.0249C41.565 17.0249 42.2452 17.2516 42.8121 17.6673C43.3789 18.083 43.7568 18.5742 43.9079 19.1411C44.0591 19.7079 44.1347 20.6526 44.1347 21.9752V29.0418C44.1347 30.5533 44.0591 31.6492 43.8701 32.2916C43.6812 32.934 43.3033 33.4631 42.7743 33.841C42.2074 34.2188 41.5272 34.4078 40.7337 34.4078C40.0913 34.4078 39.5244 34.2566 38.9576 33.9543C38.4285 33.652 37.9373 33.2363 37.4838 32.6317V38.4512H32.3823V19.33L37.5594 17.3272Z" fill="#FEFEFE"/>
<path fill-rule="evenodd" clip-rule="evenodd" d="M82.8979 11.2988H75V9.44713C75 7.33096 75.2645 5.66825 75.7558 4.49679C76.247 3.32534 77.2295 2.30504 78.7411 1.43589C80.2149 0.566748 82.1421 0.113281 84.5228 0.113281C87.357 0.113281 89.5109 0.604537 90.9469 1.62484C92.3829 2.64514 93.252 3.85438 93.5543 5.32815C93.8567 6.80191 93.97 9.78723 93.97 14.3597V28.1904H85.8076V25.7341C85.2786 26.7167 84.6362 27.4724 83.8048 27.9637C83.0112 28.4549 82.0287 28.7195 80.8951 28.7195C79.4213 28.7195 78.0609 28.3038 76.8517 27.4724C75.6424 26.6411 75 24.8272 75 22.0686V19.8013C75 17.7229 75.3401 16.3247 75.9825 15.5689C76.6249 14.8132 78.2498 13.944 80.8195 12.9615C83.5781 11.8656 85.0518 11.1476 85.2408 10.7697C85.4297 10.3919 85.5431 9.63608 85.5431 8.50241C85.5431 7.06644 85.4297 6.12171 85.203 5.66825C84.9763 5.21478 84.6362 5.02584 84.1449 5.02584C83.5781 5.02584 83.238 5.21478 83.0868 5.59267C82.9357 5.97056 82.8979 6.91528 82.8979 8.46462V11.3366V11.2988ZM85.5431 15.0777C84.1827 16.0602 83.4269 16.8915 83.2002 17.5717C82.9735 18.2519 82.8979 19.1967 82.8979 20.4437C82.8979 21.8797 82.9735 22.7866 83.1624 23.2023C83.3513 23.618 83.7292 23.8447 84.2583 23.8447C84.7873 23.8447 85.1274 23.6935 85.2786 23.3534C85.4297 23.0133 85.5053 22.182 85.5053 20.7838V15.1155L85.5431 15.0777Z" fill="black"/>
<path fill-rule="evenodd" clip-rule="evenodd" d="M145.136 1.81367V5.1013H146.837V8.38893H145.136V19.4989C145.136 20.8593 145.212 21.615 145.363 21.7662C145.514 21.9174 146.081 21.9929 147.101 21.9929V25.3184H144.569C143.133 25.3184 142.113 25.2428 141.471 25.1294C140.866 25.016 140.337 24.7515 139.846 24.2981C139.392 23.8824 139.09 23.3533 138.977 22.8243C138.863 22.2575 138.788 20.9726 138.788 18.8942V8.35114H137.427V5.06351H138.788V4.19437L145.136 1.77588V1.81367Z" fill="black"/>
<path fill-rule="evenodd" clip-rule="evenodd" d="M128.169 4.61031L128.093 6.49975C128.547 5.74398 129.114 5.17714 129.756 4.79926C130.436 4.42137 131.192 4.23242 132.061 4.23242C133.157 4.23242 134.026 4.49694 134.706 4.9882C135.387 5.47945 135.84 6.12187 136.029 6.91543C136.218 7.709 136.331 8.99382 136.331 10.8077V25.3564H130.021V10.9966C130.021 9.56065 129.983 8.69151 129.869 8.3892C129.794 8.08689 129.529 7.93573 129.076 7.93573C128.622 7.93573 128.358 8.12468 128.245 8.46478C128.131 8.80488 128.056 9.78739 128.056 11.3367V25.3564H121.745V7.10438L128.131 4.6481L128.169 4.61031Z" fill="black"/>
<path fill-rule="evenodd" clip-rule="evenodd" d="M113.167 15.4557C112.147 16.2115 111.58 16.8161 111.391 17.3074C111.24 17.7986 111.164 18.5166 111.164 19.4613C111.164 20.5194 111.24 21.2374 111.391 21.5397C111.542 21.842 111.806 21.9932 112.222 21.9932C112.6 21.9932 112.865 21.8798 112.978 21.6153C113.091 21.3886 113.167 20.7084 113.167 19.6881V15.4179V15.4557ZM111.164 12.6216H105.231V11.2234C105.231 9.63623 105.42 8.3892 105.798 7.52005C106.176 6.65091 106.932 5.89513 108.028 5.21493C109.123 4.53473 110.597 4.23242 112.373 4.23242C114.527 4.23242 116.114 4.61031 117.21 5.36609C118.306 6.12187 118.949 7.06659 119.175 8.16247C119.402 9.25834 119.515 11.5257 119.515 14.9645V25.3564H113.394V23.5048C113.016 24.2605 112.524 24.7896 111.882 25.1675C111.277 25.5453 110.559 25.7343 109.69 25.7343C108.594 25.7343 107.574 25.432 106.667 24.7896C105.76 24.185 105.269 22.8246 105.269 20.7084V19.0079C105.269 17.4585 105.496 16.4004 105.987 15.8336C106.478 15.2668 107.687 14.6244 109.615 13.8686C111.693 13.0372 112.789 12.5082 112.94 12.2437C113.091 11.9791 113.167 11.3745 113.167 10.5432C113.167 9.44729 113.091 8.76709 112.94 8.42699C112.789 8.08689 112.524 7.93573 112.147 7.93573C111.731 7.93573 111.466 8.08689 111.353 8.35141C111.24 8.61593 111.202 9.33392 111.202 10.5054V12.6593L111.164 12.6216Z" fill="black"/>
<path fill-rule="evenodd" clip-rule="evenodd" d="M155.906 15.4557C154.886 16.2115 154.319 16.8161 154.13 17.3074C153.979 17.7986 153.903 18.5166 153.903 19.4613C153.903 20.5194 153.979 21.2374 154.13 21.5397C154.281 21.842 154.545 21.9932 154.961 21.9932C155.339 21.9932 155.604 21.8798 155.717 21.6153C155.83 21.3886 155.906 20.7084 155.906 19.6881V15.4179V15.4557ZM153.903 12.6216H147.97V11.2234C147.97 9.63623 148.159 8.3892 148.537 7.52005C148.915 6.65091 149.633 5.89513 150.767 5.21493C151.862 4.53473 153.336 4.23242 155.112 4.23242C157.266 4.23242 158.853 4.61031 159.949 5.36609C161.045 6.12187 161.688 7.06659 161.914 8.16247C162.141 9.25834 162.254 11.5257 162.254 14.9645V25.3564H156.133V23.5048C155.755 24.2605 155.263 24.7896 154.621 25.1675C154.016 25.5453 153.298 25.7343 152.429 25.7343C151.333 25.7343 150.313 25.432 149.406 24.7896C148.499 24.185 148.008 22.8246 148.008 20.7084V19.0079C148.008 17.4585 148.235 16.4004 148.726 15.8336C149.217 15.2668 150.426 14.6244 152.354 13.8686C154.432 13.0372 155.528 12.5082 155.679 12.2437C155.83 11.9791 155.906 11.3745 155.906 10.5432C155.906 9.44729 155.83 8.76709 155.679 8.42699C155.528 8.08689 155.263 7.93573 154.886 7.93573C154.47 7.93573 154.205 8.08689 154.092 8.35141C153.979 8.61593 153.941 9.33392 153.941 10.5054V12.6593L153.903 12.6216Z" fill="black"/>
<path fill-rule="evenodd" clip-rule="evenodd" d="M102.964 4.57227V21.0104C102.964 22.9377 102.926 24.2603 102.85 24.9405C102.775 25.6207 102.548 26.2253 102.132 26.7543C101.717 27.2834 101.188 27.6613 100.508 27.888C99.8273 28.1147 98.8448 28.2659 97.4844 28.2659H95.0659V24.9405C95.8217 24.9405 96.2374 24.8649 96.3507 24.6759C96.4263 24.5248 96.5019 23.4667 96.5019 21.5395V7.06633L103.002 4.57227H102.964Z" fill="black"/>
<path fill-rule="evenodd" clip-rule="evenodd" d="M102.964 0V3.36321L96.4641 5.85728L102.964 0Z" fill="#E5097F"/>
<path fill-rule="evenodd" clip-rule="evenodd" d="M179.411 40.1852H173.818V39.0515C173.818 38.1068 173.78 37.5022 173.667 37.2376C173.554 36.9731 173.289 36.8598 172.836 36.8598C172.496 36.8598 172.193 36.9731 172.042 37.1999C171.853 37.4266 171.778 37.8045 171.778 38.2579C171.778 38.9004 171.815 39.3538 171.929 39.6561C172.004 39.9584 172.269 40.2985 172.722 40.6386C173.176 40.9787 174.083 41.5078 175.443 42.188C177.295 43.0949 178.466 43.9263 179.071 44.7198C179.638 45.5134 179.94 46.6471 179.94 48.1586C179.94 49.8591 179.713 51.1062 179.298 51.9753C178.844 52.8444 178.126 53.4869 177.106 53.9403C176.085 54.3938 174.838 54.6205 173.402 54.6205C171.815 54.6205 170.417 54.356 169.283 53.8647C168.15 53.3735 167.356 52.6933 166.941 51.8241C166.525 50.955 166.298 49.6702 166.298 47.9319V46.9494H171.891V48.272C171.891 49.3679 171.966 50.1236 172.118 50.426C172.269 50.7661 172.533 50.9172 172.949 50.9172C173.402 50.9172 173.705 50.8038 173.894 50.5771C174.083 50.3504 174.158 49.8969 174.158 49.1789C174.158 48.1964 174.045 47.554 173.818 47.3273C173.591 47.0627 172.344 46.3448 170.153 45.0977C168.301 44.0396 167.167 43.0949 166.752 42.2636C166.336 41.4322 166.147 40.4119 166.147 39.2405C166.147 37.5777 166.374 36.3685 166.789 35.5749C167.243 34.7814 167.961 34.1767 169.019 33.7611C170.077 33.3454 171.286 33.1187 172.684 33.1187C174.045 33.1187 175.216 33.3076 176.199 33.6477C177.181 33.9878 177.899 34.4413 178.428 35.0459C178.957 35.6127 179.26 36.1418 179.373 36.633C179.486 37.1243 179.524 37.8801 179.524 38.9381V40.1474L179.411 40.1852Z" fill="black"/>
<path fill-rule="evenodd" clip-rule="evenodd" d="M135.236 30.7761V34.0637H136.936V37.3513H135.236V48.4613C135.236 49.8217 135.311 50.5774 135.462 50.7286C135.613 50.8798 136.18 50.9553 137.201 50.9553V54.2808H134.669C133.233 54.2808 132.212 54.2052 131.57 54.0918C130.965 53.9784 130.436 53.7139 129.945 53.2605C129.492 52.8448 129.189 52.3157 129.076 51.7867C128.963 51.2199 128.887 49.935 128.887 47.8566V37.3135H127.527V34.0259H128.887V33.1568L135.236 30.7383V30.7761Z" fill="black"/>
<path fill-rule="evenodd" clip-rule="evenodd" d="M118.268 33.5722L118.193 35.4617C118.646 34.7059 119.213 34.1391 119.855 33.7612C120.536 33.3833 121.291 33.1943 122.161 33.1943C123.256 33.1943 124.126 33.4589 124.806 33.9501C125.486 34.4414 125.939 35.0838 126.128 35.8773C126.317 36.6709 126.431 37.9557 126.431 39.7696V54.3183H120.12V39.9585C120.12 38.5226 120.082 37.6534 119.969 37.3511C119.893 37.0488 119.629 36.8976 119.175 36.8976C118.722 36.8976 118.457 37.0866 118.344 37.4267C118.231 37.7668 118.155 38.7493 118.155 40.2986V54.3183H111.844V36.0663L118.231 33.61L118.268 33.5722Z" fill="black"/>
<path fill-rule="evenodd" clip-rule="evenodd" d="M98.127 33.6102L97.9002 36.2554C98.8072 34.2904 100.13 33.2701 101.868 33.1567V40.45C100.697 40.45 99.8652 40.6011 99.3362 40.9035C98.8072 41.2058 98.4671 41.6592 98.3537 42.2261C98.2403 42.7929 98.1647 44.0777 98.1647 46.0805V54.2807H91.854V36.0287L98.127 33.6102Z" fill="black"/>
<path fill-rule="evenodd" clip-rule="evenodd" d="M161.159 33.6102L160.932 36.2554C161.839 34.2904 163.162 33.2701 164.9 33.1567V40.45C163.728 40.45 162.897 40.6011 162.368 40.9035C161.839 41.2058 161.499 41.6592 161.385 42.2261C161.272 42.7929 161.196 44.0777 161.196 46.0805V54.2807H154.886V36.0287L161.159 33.6102Z" fill="black"/>
<path fill-rule="evenodd" clip-rule="evenodd" d="M83.2002 39.5808C83.2002 38.296 83.1624 37.5402 83.049 37.2379C82.9357 36.9734 82.7089 36.8223 82.2555 36.8223C81.8398 36.8223 81.5753 36.9734 81.4619 37.2757C81.3485 37.578 81.273 38.3338 81.273 39.5431V48.1211C81.273 49.3682 81.3485 50.1617 81.4619 50.464C81.5753 50.7664 81.8398 50.9175 82.2555 50.9175C82.6711 50.9175 82.8979 50.7664 83.0112 50.5018C83.1246 50.2373 83.1624 49.5193 83.1624 48.4234V39.5431L83.2002 39.5808ZM81.3863 33.5724L81.3107 35.3863C81.8776 34.6305 82.4822 34.1015 83.1624 33.7236C83.8426 33.3457 84.5984 33.1567 85.3919 33.1567C86.3745 33.1567 87.2058 33.4213 87.9238 33.9503C88.6418 34.4793 89.0953 35.084 89.2464 35.7642C89.4354 36.4444 89.5109 37.6158 89.5109 39.2785V48.0078C89.5109 49.8972 89.3976 51.2198 89.1708 52.0512C88.9441 52.8447 88.4906 53.4872 87.8104 53.9406C87.1302 54.4319 86.2989 54.6586 85.3164 54.6586C84.5228 54.6586 83.8048 54.4697 83.1246 54.1296C82.4444 53.7517 81.8398 53.2226 81.3107 52.5046V57.266H75V36.0665L81.3863 33.6102V33.5724Z" fill="black"/>
<path fill-rule="evenodd" clip-rule="evenodd" d="M146.308 40.9033V39.3917C146.308 38.3336 146.232 37.6156 146.119 37.3133C146.005 37.011 145.779 36.8599 145.401 36.8599C144.947 36.8599 144.683 37.011 144.607 37.2755C144.494 37.5401 144.456 38.258 144.456 39.4295V40.9411H146.308V40.9033ZM152.618 44.2665H144.456V48.7634C144.456 49.7081 144.532 50.3127 144.645 50.5772C144.796 50.8417 145.061 50.9929 145.438 50.9929C145.93 50.9929 146.232 50.804 146.383 50.4639C146.534 50.086 146.61 49.4058 146.61 48.3855V45.6647H152.581V47.1762C152.581 48.461 152.505 49.4436 152.354 50.1238C152.203 50.804 151.825 51.5597 151.22 52.3155C150.616 53.1091 149.86 53.6759 148.953 54.0538C148.046 54.4317 146.912 54.6584 145.514 54.6584C144.191 54.6584 143.02 54.4695 142 54.0916C140.979 53.7137 140.186 53.1847 139.619 52.5045C139.052 51.8243 138.636 51.1063 138.448 50.2749C138.221 49.4813 138.107 48.2721 138.107 46.7605V40.7143C138.107 38.9005 138.334 37.4645 138.825 36.4442C139.317 35.3861 140.11 34.5925 141.244 34.0257C142.378 33.4589 143.625 33.1943 145.098 33.1943C146.874 33.1943 148.348 33.5344 149.482 34.2146C150.616 34.8948 151.447 35.764 151.9 36.8976C152.354 37.9935 152.581 39.5807 152.581 41.5835V44.3421L152.618 44.2665Z" fill="black"/>
<path fill-rule="evenodd" clip-rule="evenodd" d="M109.539 29V32.3254L103.039 34.8195L109.539 29Z" fill="#E5097F"/>
<path fill-rule="evenodd" clip-rule="evenodd" d="M109.539 33.5347V54.2808H103.039V36.0287L109.539 33.5347Z" fill="black"/>
</svg>
