<svg width="100" height="33" viewBox="0 0 100 33" fill="none" xmlns="http://www.w3.org/2000/svg">
<path d="M17.2184 32.5L34.3176 6.31592H29.879L17.2184 32.5Z" fill="#01AEFA"/>
<path d="M17.2184 32.5L0 6.31592H4.55782L17.2184 32.5Z" fill="#01AEFA"/>
<path d="M17.2185 32.5L31.4592 3.40771L25.8277 3.40771L17.2185 32.5Z" fill="#FEF10F"/>
<path d="M17.2185 32.5L2.8584 3.40771H8.60933L17.2185 32.5Z" fill="#FEF10F"/>
<path d="M17.1593 32.4998V0.5H26.692L17.1593 32.4998Z" fill="#ED2592"/>
<path d="M17.1593 32.4998V0.5H7.62671L17.1593 32.4998Z" fill="#ED2592"/>
<path d="M45.7926 0.5L48.0361 15.3804H44.0238L43.8283 12.7058H42.4226L42.1899 15.3804H38.1311L40.1233 0.5H45.7926ZM43.7166 10.068C43.518 8.38291 43.3194 6.30266 43.1208 3.82718C42.7236 6.6703 42.4754 8.75056 42.3761 10.068H43.7166Z" fill="black"/>
<path d="M52.579 0.5V2.43933H48.7064V0.5H52.579ZM52.579 3.18381V12.8345C52.579 13.9681 52.5542 14.737 52.5045 15.1414C52.4611 15.5397 52.3183 15.889 52.0763 16.1892C51.8405 16.4956 51.5208 16.7223 51.1174 16.8694C50.7203 17.0164 50.1214 17.09 49.3208 17.09H47.8685V15.1414C48.3154 15.1414 48.5667 15.0924 48.6226 14.9944C48.6784 14.8964 48.7064 14.2836 48.7064 13.1562V3.18381H52.579Z" fill="black"/>
<path d="M57.2988 7.90804H53.7706V7.09003C53.7706 6.14641 53.8792 5.42031 54.0964 4.91174C54.3198 4.39703 54.7636 3.94361 55.4276 3.55145C56.0917 3.1593 56.9543 2.96322 58.0156 2.96322C59.2878 2.96322 60.2467 3.18687 60.8921 3.63417C61.5376 4.07534 61.9254 4.62068 62.0558 5.27019C62.1861 5.91357 62.2513 7.24322 62.2513 9.25913V15.3804H58.5927V14.2959C58.3631 14.7309 58.0652 15.0587 57.6991 15.2793C57.3391 15.4938 56.9078 15.601 56.4051 15.601C55.7472 15.601 55.1421 15.4202 54.5898 15.0587C54.0436 14.6911 53.7706 13.8915 53.7706 12.6598V11.658C53.7706 10.745 53.9164 10.1231 54.2081 9.79222C54.4998 9.46134 55.2228 9.07531 56.3772 8.63414C57.6122 8.1562 58.2731 7.83451 58.36 7.66907C58.4469 7.50363 58.4903 7.16662 58.4903 6.65805C58.4903 6.0208 58.4407 5.6072 58.3414 5.41725C58.2483 5.22117 58.09 5.12313 57.8666 5.12313C57.6122 5.12313 57.4539 5.20585 57.3919 5.37129C57.3298 5.5306 57.2988 5.95033 57.2988 6.63048V7.90804ZM58.4903 9.58082C57.8883 10.0159 57.5377 10.3805 57.4384 10.6746C57.3453 10.9687 57.2988 11.3915 57.2988 11.9429C57.2988 12.5741 57.3391 12.9815 57.4198 13.1654C57.5067 13.3492 57.6742 13.4411 57.9225 13.4411C58.1583 13.4411 58.3104 13.3706 58.3786 13.2297C58.4531 13.0826 58.4903 12.7027 58.4903 12.09V9.58082Z" fill="black"/>
<path d="M67.3713 3.18381L67.3062 4.30512C67.5792 3.85782 67.9113 3.52388 68.3022 3.30329C68.6994 3.07658 69.1556 2.96322 69.6707 2.96322C70.3161 2.96322 70.8437 3.11334 71.2533 3.41358C71.6629 3.71383 71.9266 4.09373 72.0445 4.55328C72.1625 5.00671 72.2214 5.76651 72.2214 6.83268V15.3804H68.4605V6.93378C68.4605 6.09433 68.4326 5.58269 68.3767 5.39887C68.3209 5.21504 68.1657 5.12313 67.9113 5.12313C67.6444 5.12313 67.4768 5.23036 67.4086 5.44482C67.3403 5.65315 67.3062 6.21687 67.3062 7.13599V15.3804H63.5452V3.18381H67.3713Z" fill="black"/>
<path d="M77.4904 1.55698V3.47792H78.5051V5.40806H77.4904V11.9337C77.4904 12.7364 77.5308 13.1837 77.6115 13.2757C77.6983 13.3676 78.049 13.4135 78.6634 13.4135V15.3804H77.146C76.2895 15.3804 75.6782 15.3467 75.3121 15.2793C74.9459 15.2058 74.6232 15.0434 74.3439 14.7922C74.0646 14.5348 73.8909 14.2438 73.8226 13.919C73.7543 13.5882 73.7202 12.8161 73.7202 11.6029V5.40806H72.9103V3.47792H73.7202V1.55698H77.4904Z" fill="black"/>
<path d="M82.6943 7.90804H79.1661V7.09003C79.1661 6.14641 79.2747 5.42031 79.4919 4.91174C79.7153 4.39703 80.1591 3.94361 80.8231 3.55145C81.4872 3.1593 82.3498 2.96322 83.4111 2.96322C84.6834 2.96322 85.6422 3.18687 86.2876 3.63417C86.9331 4.07534 87.321 4.62068 87.4513 5.27019C87.5816 5.91357 87.6468 7.24322 87.6468 9.25913V15.3804H83.9883V14.2959C83.7586 14.7309 83.4607 15.0587 83.0946 15.2793C82.7346 15.4938 82.3033 15.601 81.8006 15.601C81.1427 15.601 80.5377 15.4202 79.9853 15.0587C79.4392 14.6911 79.1661 13.8915 79.1661 12.6598V11.658C79.1661 10.745 79.3119 10.1231 79.6036 9.79222C79.8953 9.46134 80.6183 9.07531 81.7727 8.63414C83.0077 8.1562 83.6686 7.83451 83.7555 7.66907C83.8424 7.50363 83.8859 7.16662 83.8859 6.65805C83.8859 6.0208 83.8362 5.6072 83.7369 5.41725C83.6438 5.22117 83.4856 5.12313 83.2621 5.12313C83.0077 5.12313 82.8494 5.20585 82.7874 5.37129C82.7253 5.5306 82.6943 5.95033 82.6943 6.63048V7.90804ZM83.8859 9.58082C83.2839 10.0159 82.9332 10.3805 82.8339 10.6746C82.7408 10.9687 82.6943 11.3915 82.6943 11.9429C82.6943 12.5741 82.7346 12.9815 82.8153 13.1654C82.9022 13.3492 83.0698 13.4411 83.318 13.4411C83.5538 13.4411 83.7059 13.3706 83.7742 13.2297C83.8486 13.0826 83.8859 12.7027 83.8859 12.09V9.58082Z" fill="black"/>
<path d="M38.1311 17.09H42.0782C43.1457 17.09 43.9649 17.1727 44.5358 17.3381C45.113 17.5036 45.5443 17.7425 45.8298 18.055C46.1215 18.3675 46.317 18.7474 46.4163 19.1947C46.5218 19.6359 46.5746 20.3222 46.5746 21.2535V22.5495C46.5746 23.4992 46.4753 24.1916 46.2767 24.6267C46.0781 25.0617 45.7119 25.3957 45.1782 25.6285C44.6507 25.8614 43.9587 25.9778 43.1022 25.9778H42.0503V31.9704H38.1311V17.09ZM42.0503 19.6359V23.4226C42.162 23.4288 42.2582 23.4318 42.3389 23.4318C42.6988 23.4318 42.9471 23.3461 43.0836 23.1745C43.2263 22.9968 43.2977 22.6322 43.2977 22.0807V20.8583C43.2977 20.3497 43.217 20.0189 43.0557 19.8657C42.8943 19.7125 42.5592 19.6359 42.0503 19.6359Z" fill="black"/>
<path d="M51.3502 19.7738L51.2012 21.373C51.7474 20.2272 52.5387 19.6206 53.5751 19.5532V23.8454C52.8862 23.8454 52.3804 23.9373 52.0577 24.1212C51.735 24.305 51.5364 24.5623 51.4619 24.8932C51.3874 25.218 51.3502 25.9716 51.3502 27.1542V31.9704H47.5893V19.7738H51.3502Z" fill="black"/>
<path d="M58.2948 17.09V19.0293H54.4222V17.09H58.2948ZM58.2948 19.7738V31.9704H54.4222V19.7738H58.2948Z" fill="black"/>
<path d="M63.4801 19.7738L63.4149 20.8951C63.688 20.4478 64.02 20.1138 64.411 19.8933C64.8082 19.6665 65.2643 19.5532 65.7795 19.5532C66.4249 19.5532 66.9524 19.7033 67.362 20.0036C67.7716 20.3038 68.0354 20.6837 68.1533 21.1432C68.2712 21.5967 68.3302 22.3565 68.3302 23.4226V31.9704H64.5693V23.5237C64.5693 22.6843 64.5413 22.1727 64.4855 21.9888C64.4296 21.805 64.2745 21.7131 64.02 21.7131C63.7531 21.7131 63.5856 21.8203 63.5173 22.0348C63.449 22.2431 63.4149 22.8068 63.4149 23.726V31.9704H59.654V19.7738H63.4801Z" fill="black"/>
<path d="M73.5992 18.1469V20.0679H74.6139V21.998H73.5992V28.5237C73.5992 29.3264 73.6395 29.7737 73.7202 29.8656C73.8071 29.9575 74.1577 30.0035 74.7721 30.0035V31.9704H73.2547C72.3983 31.9704 71.787 31.9367 71.4208 31.8693C71.0547 31.7958 70.732 31.6334 70.4527 31.3822C70.1734 31.1248 69.9996 30.8338 69.9314 30.509C69.8631 30.1781 69.829 29.4061 69.829 28.1928V21.998H69.0191V20.0679H69.829V18.1469H73.5992Z" fill="black"/>
<path d="M83.9603 26.0881H79.0916V28.7259C79.0916 29.2774 79.132 29.6328 79.2126 29.7921C79.2933 29.9514 79.4485 30.0311 79.6781 30.0311C79.9636 30.0311 80.1529 29.9269 80.246 29.7186C80.3453 29.5041 80.3949 29.0936 80.3949 28.487V26.8785H83.9603V27.7792C83.9603 28.5329 83.9107 29.1119 83.8114 29.5164C83.7183 29.9208 83.4949 30.3527 83.1411 30.8123C82.7874 31.2719 82.3374 31.6181 81.7913 31.8509C81.2514 32.0776 80.5718 32.191 79.7526 32.191C78.9582 32.191 78.2569 32.0776 77.6487 31.8509C77.0405 31.6242 76.5657 31.3148 76.2244 30.9226C75.8893 30.5243 75.6565 30.0893 75.5262 29.6175C75.3959 29.1395 75.3307 28.4471 75.3307 27.5403V23.9833C75.3307 22.9171 75.4765 22.0777 75.7682 21.4649C76.0599 20.8461 76.5378 20.3743 77.2019 20.0495C77.8659 19.7186 78.6293 19.5532 79.4919 19.5532C80.547 19.5532 81.4158 19.7523 82.0985 20.1506C82.7874 20.5428 83.2684 21.0667 83.5414 21.7223C83.8207 22.3718 83.9603 23.2878 83.9603 24.4704V26.0881ZM80.1901 24.1028V23.2113C80.1901 22.5801 80.156 22.1727 80.0877 21.9888C80.0194 21.805 79.8798 21.7131 79.6688 21.7131C79.4081 21.7131 79.2468 21.7928 79.1847 21.9521C79.1227 22.1053 79.0916 22.525 79.0916 23.2113V24.1028H80.1901Z" fill="black"/>
<path d="M88.9594 19.7738L88.8104 21.373C89.3566 20.2272 90.1479 19.6206 91.1843 19.5532V23.8454C90.4954 23.8454 89.9896 23.9373 89.6669 24.1212C89.3442 24.305 89.1456 24.5623 89.0711 24.8932C88.9966 25.218 88.9594 25.9716 88.9594 27.1542V31.9704H85.1985V19.7738H88.9594Z" fill="black"/>
<path d="M99.7115 23.6708H96.3788V23.009C96.3788 22.4453 96.3447 22.0899 96.2764 21.9429C96.2144 21.7897 96.053 21.7131 95.7923 21.7131C95.5813 21.7131 95.4231 21.7836 95.3176 21.9245C95.2121 22.0593 95.1593 22.2646 95.1593 22.5403C95.1593 22.9141 95.1841 23.1898 95.2338 23.3675C95.2896 23.5391 95.4479 23.729 95.7086 23.9373C95.9754 24.1457 96.5185 24.449 97.3377 24.8473C98.4299 25.3742 99.1468 25.8705 99.4881 26.3362C99.8294 26.8019 100 27.479 100 28.3675C100 29.3601 99.8698 30.1107 99.6091 30.6193C99.3485 31.1217 98.9109 31.5108 98.2965 31.7866C97.6883 32.0562 96.9529 32.191 96.0902 32.191C95.1345 32.191 94.3153 32.0439 93.6326 31.7498C92.9561 31.4557 92.4907 31.0574 92.2362 30.555C91.9818 30.0525 91.8545 29.2927 91.8545 28.2756V27.6873H95.1872V28.4594C95.1872 29.115 95.2276 29.5409 95.3083 29.7369C95.3951 29.933 95.5627 30.0311 95.811 30.0311C96.0778 30.0311 96.264 29.9667 96.3695 29.838C96.475 29.7032 96.5278 29.4244 96.5278 29.0017C96.5278 28.4196 96.4595 28.055 96.323 27.9079C96.1802 27.7609 95.451 27.3258 94.1353 26.6028C93.0306 25.99 92.3572 25.4355 92.1152 24.9392C91.8732 24.4367 91.7521 23.8424 91.7521 23.1561C91.7521 22.1818 91.8825 21.4649 92.1431 21.0054C92.4038 20.5397 92.8444 20.1812 93.465 19.93C94.0919 19.6788 94.818 19.5532 95.6434 19.5532C96.4626 19.5532 97.1577 19.6574 97.7287 19.8657C98.3058 20.0679 98.7465 20.3375 99.0506 20.6745C99.3609 21.0115 99.5471 21.324 99.6091 21.612C99.6774 21.9 99.7115 22.3503 99.7115 22.9631V23.6708Z" fill="black"/>
</svg>
